<?xml version="1.0" encoding="UTF-8" standalone="no"?>
<!-- Created with Inkscape (http://www.inkscape.org/) -->

<svg
   width="132.66243mm"
   height="80.352081mm"
   viewBox="0 0 132.66243 80.352085"
   version="1.1"
   id="svg5"
   sodipodi:docname="acc-6.svg"
   inkscape:version="1.2.2 (b0a8486541, 2022-12-01)"
   xmlns:inkscape="http://www.inkscape.org/namespaces/inkscape"
   xmlns:sodipodi="http://sodipodi.sourceforge.net/DTD/sodipodi-0.dtd"
   xmlns="http://www.w3.org/2000/svg"
   xmlns:svg="http://www.w3.org/2000/svg">
  <sodipodi:namedview
     id="namedview7"
     pagecolor="#ffffff"
     bordercolor="#666666"
     borderopacity="1.0"
     inkscape:showpageshadow="2"
     inkscape:pageopacity="0.0"
     inkscape:pagecheckerboard="0"
     inkscape:deskcolor="#d1d1d1"
     inkscape:document-units="mm"
     showgrid="false"
     inkscape:zoom="3.2777308"
     inkscape:cx="110.74735"
     inkscape:cy="230.95246"
     inkscape:window-width="2560"
     inkscape:window-height="1372"
     inkscape:window-x="0"
     inkscape:window-y="32"
     inkscape:window-maximized="1"
     inkscape:current-layer="layer1"
     showguides="true" />
  <defs
     id="defs2" />
  <g
     inkscape:label="Layer 1"
     inkscape:groupmode="layer"
     id="layer1"
     transform="translate(-65.470752,-32.844491)">
    <path
       style="fill:#ddf1fb;fill-opacity:1;fill-rule:nonzero;stroke:#000000;stroke-width:1;stroke-linecap:round;stroke-linejoin:round"
       d="m 129.92811,62.433277 c 0.0385,0.07786 0.0628,0.164449 0.11536,0.233577 0.0333,0.04374 0.0882,0.06563 0.13457,0.09516 0.10755,0.06856 0.21979,0.129617 0.32683,0.198975 0.0533,0.03454 0.10213,0.07553 0.15381,0.112461 0.0573,0.04094 0.11822,0.07693 0.17302,0.121115 0.0992,0.07997 0.18919,0.170911 0.28838,0.250878 0.0548,0.04419 0.11847,0.07662 0.17303,0.121116 0.0483,0.03939 0.0906,0.08565 0.13458,0.129765 0.097,0.0972 0.19528,0.193209 0.28837,0.294135 0.096,0.104095 0.18037,0.2184 0.26916,0.328739 0.0902,0.112085 0.18352,0.221787 0.26915,0.337391 0.0363,0.04901 0.0625,0.104823 0.0961,0.155718 0.22332,0.338016 0.0169,-0.02125 0.32683,0.501759 0.0349,0.05894 0.0628,0.121782 0.0961,0.181671 0.0308,0.05548 0.0722,0.10559 0.0961,0.164369 0.0469,0.115136 0.0728,0.237877 0.11535,0.354692 0.0216,0.0593 0.0545,0.114011 0.0769,0.17302 0.0225,0.0594 0.0368,0.121652 0.0577,0.181672 0.0433,0.124567 0.0952,0.246134 0.13458,0.371994 0.0472,0.150986 0.0347,0.20214 0.0577,0.354692 0.0192,0.112463 0.0384,0.224926 0.0577,0.33739 0.0128,0.05479 0.029,0.108905 0.0385,0.164369 0.01,0.0572 0.0115,0.115511 0.0192,0.17302 0.0179,0.132835 0.0408,0.26498 0.0577,0.397947 0.009,0.06895 0.01,0.138755 0.0192,0.207624 0.01,0.07255 0.0285,0.143729 0.0384,0.216277 0.0157,0.114986 0.0252,0.230743 0.0385,0.346041 0.0116,0.101073 0.0293,0.201462 0.0385,0.302785 0.008,0.09212 0.0103,0.184761 0.0192,0.276832 0.004,0.04069 0.0161,0.08036 0.0192,0.121115 0.003,0.04313 0,0.08651 0,0.129765 0,0.123998 0.009,0.248334 0,0.371994 -0.003,0.04361 -0.0151,0.08623 -0.0192,0.129766 -0.009,0.09209 -0.0103,0.184762 -0.0192,0.276832 -0.0194,0.200818 -0.0169,0.04376 -0.0577,0.25953 -0.0375,0.198371 -0.0184,0.243321 -0.0769,0.406599 -0.016,0.04456 -0.0384,0.08651 -0.0577,0.129765 -0.032,0.08363 -0.0663,0.166446 -0.0961,0.250879 -3e-5,1.08e-4 -0.0769,0.259425 -0.0769,0.259532 -0.24605,0.608933 -0.0216,0.02261 -0.17303,0.363342 -0.015,0.03372 -0.0225,0.07055 -0.0384,0.103812 -0.0693,0.144166 -0.15531,0.275299 -0.23071,0.415249 -0.0487,0.09033 -0.0847,0.187143 -0.13457,0.276834 -0.0505,0.09089 -0.11666,0.172163 -0.17303,0.25953 -0.0201,0.03117 -0.0364,0.0648 -0.0577,0.09516 -0.0173,0.02458 -0.0412,0.04413 -0.0577,0.06921 -0.0349,0.05301 -0.0621,0.110787 -0.0961,0.16437 -0.0173,0.02727 -0.0414,0.04998 -0.0577,0.07786 -0.0159,0.02724 -0.0215,0.05987 -0.0384,0.08651 -0.0519,0.0818 -0.11322,0.157336 -0.17302,0.233577 -0.08,0.101986 -0.0772,0.08337 -0.19225,0.207624 -0.0841,0.09085 -0.15955,0.191798 -0.24993,0.276834 -0.0225,0.02119 -0.0526,0.03277 -0.0769,0.05191 -0.0813,0.06401 -0.15006,0.14282 -0.23071,0.207624 -0.0362,0.02906 -0.0809,0.04683 -0.11535,0.07786 -0.024,0.02161 -0.0385,0.05191 -0.0577,0.07786 -0.0897,0.06344 -0.17895,0.127585 -0.26916,0.190321 -0.20381,0.141737 -0.40291,0.266025 -0.61521,0.397948 -0.0612,0.03805 -0.088,0.06556 -0.1538,0.09516 -0.0183,0.0082 -0.076,0.0091 -0.0577,0.0173 0.0292,0.01315 0.0642,-0.0029 0.0961,0 0.12211,0.01099 0.24321,0.03169 0.36527,0.04326 0.30199,0.02861 0.60173,0.07362 0.90359,0.10381 0.36486,0.03649 0.72937,0.04325 1.09584,0.04325 0.44662,0 0.92071,-0.0092 1.36499,-0.06921 0.1996,-0.02694 0.57916,-0.08337 0.80746,-0.129765 0.29364,-0.05967 0.62144,-0.150035 0.90359,-0.216275 0.23931,-0.05618 0.33556,-0.06746 0.57676,-0.112464 0.23262,-0.0434 0.52563,-0.10013 0.76901,-0.147065 0.281,-0.05419 0.53884,-0.104512 0.82668,-0.15572 0.34666,-0.06167 0.69243,-0.112071 1.03816,-0.18167 0.35462,-0.07139 0.70466,-0.162866 1.0574,-0.242229 0.0574,-0.01291 0.11575,-0.0212 0.17302,-0.0346 0.10299,-0.0241 0.20442,-0.05464 0.30761,-0.07786 0.279,-0.06277 0.56505,-0.09503 0.84591,-0.147066 0.59865,-0.110919 1.19725,-0.241629 1.78795,-0.389296 0.41937,-0.10484 0.83138,-0.237079 1.24964,-0.346042 0.42566,-0.110894 -0.01,0.01701 0.6152,-0.164369 0.36871,-0.107039 0.0214,-0.01279 0.36529,-0.121115 0.13401,-0.04221 0.2703,-0.07709 0.40372,-0.121115 0.0181,-0.006 0.35932,-0.144846 0.36529,-0.147067 0.12109,-0.04509 0.24242,-0.08973 0.36527,-0.129765 0.0631,-0.02057 0.12868,-0.03283 0.19225,-0.0519 0.14879,-0.04463 0.29547,-0.09605 0.44219,-0.147069 0.0842,-0.02928 0.16617,-0.06465 0.24993,-0.09516 0.29604,-0.107841 0.59255,-0.20937 0.88436,-0.328739 0.0455,-0.01862 0.0888,-0.04254 0.13458,-0.06056 0.22079,-0.08693 0.45208,-0.146641 0.67288,-0.233577 0.0458,-0.01802 0.0885,-0.04342 0.13457,-0.06056 0.15304,-0.05689 0.30807,-0.108306 0.46141,-0.16437 0.0508,-0.01858 0.10376,-0.03134 0.1538,-0.05191 0.0975,-0.04006 0.19156,-0.08809 0.28838,-0.129767 0.255,-0.109757 0.51871,-0.198794 0.76901,-0.320087 0.20398,-0.09885 0.39734,-0.219921 0.59598,-0.328739 0.07,-0.03836 0.14432,-0.06929 0.21148,-0.112462 0.0234,-0.01507 0.0348,-0.04457 0.0577,-0.06056 0.0356,-0.0249 0.0786,-0.03741 0.11535,-0.06056 0.20469,-0.128949 0.39182,-0.285547 0.59598,-0.415249 0.0367,-0.02329 0.0789,-0.03689 0.11535,-0.06056 0.0217,-0.01409 0.0359,-0.03792 0.0577,-0.0519 0.0683,-0.04393 0.14368,-0.07637 0.21148,-0.121115 0.0288,-0.019 0.0489,-0.04906 0.0769,-0.06921 0.0364,-0.0262 0.078,-0.04446 0.11535,-0.06921 0.0716,-0.04738 0.14031,-0.09903 0.21147,-0.147067 0.0314,-0.02119 0.0641,-0.04037 0.0961,-0.06056 0.0385,-0.02018 0.0791,-0.0367 0.11534,-0.06056 0.27892,-0.183435 0.0354,-0.03199 0.19226,-0.164369 0.0302,-0.02546 0.0641,-0.04614 0.0961,-0.06921 0.0449,-0.04326 0.0883,-0.08808 0.13458,-0.129765 0.16873,-0.151845 -0.0142,0.02609 0.1538,-0.112464 0.0532,-0.04389 0.10158,-0.09337 0.15381,-0.138415 0.13182,-0.113689 0.2787,-0.204974 0.40372,-0.328739 0.0533,-0.05273 0.0769,-0.05026 0.0769,-0.121115 0,-0.01154 0.006,-0.02468 0,-0.0346 -0.11135,-0.187891 -0.36931,-0.346747 -0.5383,-0.467154 -0.21443,-0.15278 -0.0416,-0.05447 -0.38451,-0.25088 -0.0499,-0.02856 -0.10324,-0.05056 -0.1538,-0.07786 -0.0456,-0.02463 -0.0883,-0.05445 -0.13458,-0.07786 -0.10766,-0.0545 -0.21926,-0.101004 -0.32683,-0.155717 -0.04,-0.02033 -0.0769,-0.04614 -0.11534,-0.06921 -0.0577,-0.02595 -0.11618,-0.05014 -0.17303,-0.07786 -0.097,-0.04728 -0.19139,-0.09978 -0.28838,-0.147067 -0.0568,-0.02771 -0.11725,-0.04805 -0.17303,-0.07786 -0.047,-0.02513 -0.0885,-0.05971 -0.13457,-0.08651 -0.15862,-0.09219 -0.31654,-0.186137 -0.48064,-0.268182 -0.0628,-0.03143 -0.12892,-0.05605 -0.19225,-0.08651 -0.12255,-0.05895 -0.24273,-0.122724 -0.36528,-0.181672 -0.15364,-0.0739 -0.24434,-0.107442 -0.40373,-0.17302 -0.48369,-0.198996 -0.96968,-0.391666 -1.46112,-0.57097 -0.0762,-0.02782 -0.15463,-0.04958 -0.2307,-0.07786 -0.0714,-0.02654 -0.13995,-0.06036 -0.21148,-0.08651 -0.191,-0.06983 -0.38633,-0.127564 -0.57676,-0.198972 -0.17449,-0.06543 -0.34698,-0.136139 -0.51908,-0.207624 -0.20048,-0.08328 -0.39064,-0.176959 -0.59598,-0.250881 -0.0632,-0.02275 -0.12884,-0.03836 -0.19226,-0.06056 -0.23141,-0.08099 -0.45912,-0.17363 -0.6921,-0.25088 -0.27785,-0.09213 -0.24614,-0.06933 -0.61521,-0.181671 -0.15529,-0.04727 -0.30593,-0.109077 -0.46141,-0.155721 -0.33808,-0.10142 -0.67741,-0.189605 -1.01894,-0.276831 -0.15406,-0.03935 -0.30669,-0.08437 -0.4614,-0.121115 -0.0761,-0.01807 -0.1538,-0.02884 -0.2307,-0.04325 -0.0769,-0.0173 -0.15403,-0.03364 -0.23071,-0.05191 -0.36477,-0.0869 -0.35448,-0.09134 -0.65366,-0.155721 -0.22104,-0.04757 -0.40382,-0.07788 -0.63443,-0.129765 -0.12952,-0.02914 -0.25479,-0.07557 -0.38451,-0.103812 -0.13391,-0.02916 -0.26942,-0.05056 -0.40373,-0.07786 -0.0644,-0.01307 -0.1277,-0.0311 -0.19225,-0.04325 -0.21106,-0.03976 -0.4227,-0.07647 -0.63443,-0.112464 -0.14667,-0.02492 -0.29562,-0.03503 -0.44218,-0.06056 -0.0986,-0.01717 -0.39252,-0.07774 -0.53831,-0.112464 -0.0578,-0.01378 -0.11455,-0.03254 -0.17302,-0.04325 -0.11473,-0.02104 -0.23089,-0.0334 -0.34606,-0.05191 -0.4311,-0.06928 0.035,7.7e-5 -0.36528,-0.06921 -0.16533,-0.03409 -0.33358,-0.0498 -0.49986,-0.07786 -0.21118,-0.03564 -0.42174,-0.07723 -0.63443,-0.103815 -0.47549,-0.05943 0.24064,0.04763 -0.48063,-0.06056 -0.23135,-0.0347 -0.46033,-0.09044 -0.69211,-0.121116 -0.24248,-0.03209 -0.48761,-0.04749 -0.73056,-0.07786 -0.21716,-0.02714 -0.43563,-0.05081 -0.65366,-0.06921 -0.1535,-0.01296 -0.30783,-0.01394 -0.4614,-0.02596 -0.0451,-0.0035 -0.0896,-0.01297 -0.13458,-0.0173 -0.16608,-0.01601 -0.33342,-0.02212 -0.49986,-0.0346 -0.1536,-0.01151 -0.3075,-0.02883 -0.4614,-0.0346 -0.1664,-0.0062 -0.3335,-0.0024 -0.49986,-0.0087 -0.17953,-0.0067 -0.35883,-0.0186 -0.53831,-0.02596 -0.1724,-0.0071 -0.34642,0 -0.51908,0 -0.28153,0 -0.56446,-0.0063 -0.84591,0 -0.0322,7.94e-4 -0.064,0.0075 -0.0961,0.0087 -0.0512,0.0019 -0.10255,-0.0013 -0.1538,0 -0.21107,0.0059 -0.42462,0.0283 -0.63443,0.05191 -0.096,0.0108 -0.0511,0.0087 -0.13458,0.0087 -0.0192,0 -0.0577,-0.01923 -0.0577,0 0,0.01924 0.0444,-0.01392 0.0577,0 0.0139,0.01463 0,0.04037 0,0.06056"
       id="path44370-7" />
    <path
       style="fill:none;stroke:#000000;stroke-width:1;stroke-linecap:round;stroke-linejoin:round"
       d="m 127.62716,63.011275 c 0.56046,0.975171 0.0915,0.214521 0.40373,0.648826 0.1874,0.260639 0.004,0.06556 0.30761,0.415249 0.0409,0.04702 0.0913,0.08488 0.13457,0.129767 0.12638,0.131235 0.24149,0.272912 0.36528,0.406597 0.0437,0.04722 0.0915,0.09065 0.13458,0.138417 0.0844,0.09347 0.28249,0.350072 0.32683,0.415249 0.0311,0.04574 0.046,0.101182 0.0769,0.147067 0.0335,0.04982 0.0836,0.08742 0.11535,0.138417 0.0584,0.09394 0.097,0.199191 0.1538,0.294134 0.0332,0.05543 0.0826,0.100041 0.11535,0.155718 0.0254,0.04308 0.035,0.09388 0.0577,0.138417 0.0955,0.187488 0.21513,0.364515 0.30761,0.553666 0.0978,0.132481 0.12384,0.296094 0.19225,0.441201 0.0225,0.04774 0.0566,0.08969 0.0769,0.138416 0.067,0.160929 0.0919,0.26171 0.13458,0.415249 0.054,0.194324 0.11801,0.389678 0.15379,0.58827 0.01,0.05429 0.0107,0.109865 0.0192,0.16437 0.11282,0.723363 0.0221,0.04951 0.0769,0.493107 0.0289,0.234306 0.0384,0.465098 0.0384,0.700733 0,0.121114 0.0107,0.242704 0,0.363342 -0.003,0.03788 -0.0149,0.07468 -0.0192,0.112464 -0.009,0.07477 -0.007,0.150702 -0.0192,0.224927 -0.007,0.04178 -0.029,0.07983 -0.0385,0.121115 -0.01,0.04261 -0.006,0.088 -0.0192,0.129765 -0.0257,0.08297 -0.066,0.160768 -0.0961,0.242227 -0.0403,0.108826 -0.0326,0.140834 -0.0961,0.242229 -0.16396,0.261591 -0.13999,0.176937 -0.32683,0.4239 -0.10104,0.07766 -0.12323,0.205168 -0.19225,0.302786 -0.0223,0.0315 -0.053,0.05621 -0.0769,0.08651 -0.0467,0.05918 -0.0888,0.121784 -0.13458,0.181672 -0.0248,0.03241 -0.0558,0.06028 -0.0769,0.09516 -0.0177,0.02926 -0.0256,0.06344 -0.0384,0.09516 -0.0385,0.05767 -0.0751,0.116616 -0.11535,0.17302 -0.0795,0.111239 -0.19624,0.204793 -0.28838,0.302786 -0.0206,0.02188 -0.0367,0.04768 -0.0577,0.06921 -0.024,0.02472 -0.0554,0.04228 -0.0769,0.06921 -0.0366,0.04573 -0.0595,0.101337 -0.0961,0.147068 -0.0215,0.02693 -0.0529,0.04448 -0.0769,0.06921 -0.0613,0.06302 -0.11676,0.131453 -0.17303,0.198974 -0.0784,0.09406 -0.15827,0.196353 -0.23071,0.294135 -0.0618,0.08337 -0.11099,0.175785 -0.17302,0.25953 -0.0778,0.104995 -0.16586,0.203048 -0.24993,0.302786 -0.0983,0.116574 -0.20265,0.21711 -0.3076,0.328738 -0.0206,0.02188 -0.0374,0.04705 -0.0577,0.06921 -0.0802,0.08764 -0.18517,0.175304 -0.26915,0.250879 -0.0591,0.05322 -0.11184,0.113536 -0.17303,0.16437 -0.0554,0.04607 -0.11471,0.08738 -0.17302,0.129765 -0.0728,0.05291 -0.0855,0.05096 -0.15381,0.112464 -0.0271,0.0244 -0.0508,0.05239 -0.0769,0.07786 -0.0123,0.01204 -0.0227,0.04168 -0.0384,0.0346 -0.0669,-0.03009 -0.0292,-0.106891 -0.0192,-0.147069"
       id="path62760-9" />
    <path
       style="fill:#ddf1fb;fill-opacity:1;fill-rule:nonzero;stroke:#000000;stroke-width:1;stroke-linecap:round;stroke-linejoin:round"
       d="m 131.71155,99.33913 c 0.0385,0.07786 0.0628,0.164449 0.11536,0.233577 0.0333,0.04374 0.0882,0.06563 0.13457,0.09516 0.10755,0.06856 0.21979,0.129617 0.32683,0.198975 0.0533,0.03454 0.10213,0.07553 0.15381,0.112461 0.0573,0.04094 0.11822,0.07693 0.17302,0.121117 0.0992,0.08 0.18919,0.17091 0.28838,0.25088 0.0548,0.0442 0.11847,0.0766 0.17303,0.12111 0.0483,0.0394 0.0906,0.0857 0.13458,0.12977 0.097,0.0972 0.19528,0.19321 0.28837,0.29413 0.096,0.1041 0.18037,0.2184 0.26916,0.32874 0.0902,0.11209 0.18352,0.22179 0.26915,0.33739 0.0363,0.049 0.0625,0.10482 0.0961,0.15572 0.22332,0.33802 0.0169,-0.0212 0.32683,0.50176 0.0349,0.0589 0.0628,0.12178 0.0961,0.18167 0.0308,0.0555 0.0722,0.10559 0.0961,0.16437 0.0469,0.11514 0.0728,0.23788 0.11535,0.35469 0.0216,0.0593 0.0545,0.11401 0.0769,0.17302 0.0225,0.0594 0.0368,0.12165 0.0577,0.18167 0.0433,0.12457 0.0952,0.24614 0.13458,0.372 0.0472,0.15098 0.0347,0.20214 0.0577,0.35469 0.0192,0.11246 0.0384,0.22492 0.0577,0.33739 0.0128,0.0548 0.029,0.1089 0.0385,0.16437 0.01,0.0572 0.0115,0.11551 0.0192,0.17302 0.0179,0.13283 0.0408,0.26498 0.0577,0.39794 0.009,0.069 0.01,0.13876 0.0192,0.20763 0.01,0.0725 0.0285,0.14373 0.0384,0.21628 0.0157,0.11498 0.0252,0.23074 0.0385,0.34604 0.0116,0.10107 0.0293,0.20146 0.0385,0.30278 0.008,0.0921 0.0103,0.18476 0.0192,0.27683 0.004,0.0407 0.0161,0.0804 0.0192,0.12112 0.003,0.0431 0,0.0865 0,0.12976 0,0.124 0.009,0.24834 0,0.372 -0.003,0.0436 -0.0151,0.0862 -0.0192,0.12976 -0.009,0.0921 -0.0103,0.18477 -0.0192,0.27684 -0.0194,0.20081 -0.0169,0.0438 -0.0577,0.25953 -0.0375,0.19837 -0.0184,0.24332 -0.0769,0.40659 -0.016,0.0446 -0.0384,0.0865 -0.0577,0.12977 -0.032,0.0836 -0.0663,0.16645 -0.0961,0.25088 -3e-5,1.1e-4 -0.0769,0.25942 -0.0769,0.25953 -0.24605,0.60893 -0.0216,0.0226 -0.17303,0.36334 -0.015,0.0337 -0.0225,0.0705 -0.0384,0.10381 -0.0693,0.14417 -0.15531,0.2753 -0.23071,0.41525 -0.0487,0.0903 -0.0847,0.18715 -0.13457,0.27684 -0.0505,0.0909 -0.11666,0.17216 -0.17303,0.25953 -0.0201,0.0312 -0.0364,0.0648 -0.0577,0.0952 -0.0173,0.0246 -0.0412,0.0441 -0.0577,0.0692 -0.0349,0.053 -0.0621,0.11078 -0.0961,0.16437 -0.0173,0.0273 -0.0414,0.05 -0.0577,0.0779 -0.0159,0.0272 -0.0215,0.0599 -0.0384,0.0865 -0.0519,0.0818 -0.11322,0.15733 -0.17302,0.23357 -0.08,0.10199 -0.0772,0.0834 -0.19225,0.20763 -0.0841,0.0909 -0.15955,0.1918 -0.24993,0.27683 -0.0225,0.0212 -0.0526,0.0328 -0.0769,0.0519 -0.0813,0.064 -0.15006,0.14282 -0.23071,0.20763 -0.0362,0.0291 -0.0809,0.0468 -0.11535,0.0779 -0.024,0.0216 -0.0385,0.0519 -0.0577,0.0779 -0.0897,0.0634 -0.17895,0.12758 -0.26916,0.19032 -0.20381,0.14174 -0.40291,0.26602 -0.61521,0.39795 -0.0612,0.038 -0.088,0.0656 -0.1538,0.0952 -0.0183,0.008 -0.076,0.009 -0.0577,0.0173 0.0292,0.0131 0.0642,-0.003 0.0961,0 0.12211,0.011 0.24321,0.0317 0.36527,0.0433 0.30199,0.0286 0.60173,0.0736 0.90359,0.10381 0.36486,0.0365 0.72937,0.0433 1.09584,0.0433 0.44662,0 0.92071,-0.009 1.36499,-0.0692 0.1996,-0.0269 0.57916,-0.0834 0.80746,-0.12977 0.29364,-0.0597 0.62144,-0.15003 0.90359,-0.21627 0.23931,-0.0562 0.33556,-0.0675 0.57676,-0.11247 0.23262,-0.0434 0.52563,-0.10013 0.76901,-0.14706 0.281,-0.0542 0.53884,-0.10452 0.82668,-0.15572 0.34666,-0.0617 0.69243,-0.11207 1.03816,-0.18167 0.35462,-0.0714 0.70466,-0.16287 1.0574,-0.24223 0.0574,-0.0129 0.11575,-0.0212 0.17302,-0.0346 0.10299,-0.0241 0.20442,-0.0546 0.30761,-0.0779 0.279,-0.0628 0.56505,-0.095 0.84591,-0.14707 0.59865,-0.11092 1.19725,-0.24163 1.78795,-0.38929 0.41937,-0.10484 0.83138,-0.23708 1.24964,-0.34605 0.42566,-0.11089 -0.01,0.017 0.6152,-0.16436 0.36871,-0.10704 0.0214,-0.0128 0.36529,-0.12112 0.13401,-0.0422 0.2703,-0.0771 0.40372,-0.12111 0.0181,-0.006 0.35932,-0.14485 0.36529,-0.14707 0.12109,-0.0451 0.24242,-0.0897 0.36527,-0.12977 0.0631,-0.0206 0.12868,-0.0328 0.19225,-0.0519 0.14879,-0.0446 0.29547,-0.096 0.44219,-0.14707 0.0842,-0.0293 0.16617,-0.0647 0.24993,-0.0952 0.29604,-0.10784 0.59255,-0.20937 0.88436,-0.32874 0.0455,-0.0186 0.0888,-0.0425 0.13458,-0.0605 0.22079,-0.0869 0.45208,-0.14665 0.67288,-0.23358 0.0458,-0.018 0.0885,-0.0434 0.13457,-0.0606 0.15304,-0.0569 0.30807,-0.10831 0.46141,-0.16437 0.0508,-0.0186 0.10376,-0.0313 0.1538,-0.0519 0.0975,-0.0401 0.19156,-0.0881 0.28838,-0.12977 0.255,-0.10976 0.51871,-0.19879 0.76901,-0.32009 0.20398,-0.0988 0.39734,-0.21992 0.59598,-0.32874 0.07,-0.0384 0.14432,-0.0693 0.21148,-0.11246 0.0234,-0.0151 0.0348,-0.0446 0.0577,-0.0606 0.0356,-0.0249 0.0786,-0.0374 0.11535,-0.0606 0.20469,-0.12895 0.39182,-0.28554 0.59598,-0.41525 0.0367,-0.0233 0.0789,-0.0369 0.11535,-0.0606 0.0217,-0.0141 0.0359,-0.0379 0.0577,-0.0519 0.0683,-0.0439 0.14368,-0.0764 0.21148,-0.12111 0.0288,-0.019 0.0489,-0.0491 0.0769,-0.0692 0.0364,-0.0262 0.078,-0.0445 0.11535,-0.0692 0.0716,-0.0474 0.14031,-0.099 0.21147,-0.14707 0.0314,-0.0212 0.0641,-0.0404 0.0961,-0.0606 0.0385,-0.0202 0.0791,-0.0367 0.11534,-0.0606 0.27892,-0.18343 0.0354,-0.032 0.19226,-0.16437 0.0302,-0.0255 0.0641,-0.0461 0.0961,-0.0692 0.0449,-0.0433 0.0883,-0.0881 0.13458,-0.12976 0.16873,-0.15185 -0.0142,0.0261 0.1538,-0.11247 0.0532,-0.0439 0.10158,-0.0934 0.15381,-0.13841 0.13182,-0.11369 0.2787,-0.20497 0.40372,-0.32874 0.0533,-0.0527 0.0769,-0.0503 0.0769,-0.12111 0,-0.0115 0.006,-0.0247 0,-0.0346 -0.11135,-0.1879 -0.36931,-0.34675 -0.5383,-0.46716 -0.21443,-0.15278 -0.0416,-0.0545 -0.38451,-0.25088 -0.0499,-0.0286 -0.10324,-0.0506 -0.1538,-0.0779 -0.0456,-0.0246 -0.0883,-0.0545 -0.13458,-0.0779 -0.10766,-0.0545 -0.21926,-0.101 -0.32683,-0.15572 -0.04,-0.0203 -0.0769,-0.0461 -0.11534,-0.0692 -0.0577,-0.0259 -0.11618,-0.0501 -0.17303,-0.0779 -0.097,-0.0473 -0.19139,-0.0998 -0.28838,-0.14706 -0.0568,-0.0277 -0.11725,-0.0481 -0.17303,-0.0779 -0.047,-0.0251 -0.0885,-0.0597 -0.13457,-0.0865 -0.15862,-0.0922 -0.31654,-0.18614 -0.48064,-0.26818 -0.0628,-0.0314 -0.12892,-0.056 -0.19225,-0.0865 -0.12255,-0.059 -0.24273,-0.12273 -0.36528,-0.18168 -0.15364,-0.0739 -0.24434,-0.10744 -0.40373,-0.17302 -0.48369,-0.19899 -0.96968,-0.39166 -1.46112,-0.57097 -0.0762,-0.0278 -0.15463,-0.0496 -0.2307,-0.0779 -0.0714,-0.0265 -0.13995,-0.0604 -0.21148,-0.0865 -0.191,-0.0698 -0.38633,-0.12756 -0.57676,-0.19897 -0.17449,-0.0654 -0.34698,-0.13614 -0.51908,-0.20762 -0.20048,-0.0833 -0.39064,-0.17696 -0.59598,-0.25088 -0.0632,-0.0228 -0.12884,-0.0384 -0.19226,-0.0606 -0.23141,-0.081 -0.45912,-0.17363 -0.6921,-0.25088 -0.27785,-0.0921 -0.24614,-0.0693 -0.61521,-0.18167 -0.15529,-0.0473 -0.30593,-0.10908 -0.46141,-0.15573 -0.33808,-0.10142 -0.67741,-0.1896 -1.01894,-0.27683 -0.15406,-0.0393 -0.30669,-0.0844 -0.4614,-0.12111 -0.0761,-0.0181 -0.1538,-0.0288 -0.2307,-0.0433 -0.0769,-0.0173 -0.15403,-0.0336 -0.23071,-0.0519 -0.36477,-0.0869 -0.35448,-0.0913 -0.65366,-0.15572 -0.22104,-0.0476 -0.40382,-0.0779 -0.63443,-0.12977 -0.12952,-0.0291 -0.25479,-0.0756 -0.38451,-0.10381 -0.13391,-0.0292 -0.26942,-0.0506 -0.40373,-0.0779 -0.0644,-0.0131 -0.1277,-0.0311 -0.19225,-0.0433 -0.21106,-0.0398 -0.4227,-0.0765 -0.63443,-0.11246 -0.14667,-0.0249 -0.29562,-0.035 -0.44218,-0.06056 -0.0986,-0.01717 -0.39252,-0.07774 -0.53831,-0.112464 -0.0578,-0.01378 -0.11455,-0.03254 -0.17302,-0.04325 -0.11473,-0.02104 -0.23089,-0.0334 -0.34606,-0.05191 -0.4311,-0.06928 0.035,7.7e-5 -0.36528,-0.06921 -0.16533,-0.03409 -0.33358,-0.0498 -0.49986,-0.07786 -0.21118,-0.03564 -0.42174,-0.07723 -0.63443,-0.103815 -0.47549,-0.05943 0.24064,0.04763 -0.48063,-0.06056 -0.23135,-0.0347 -0.46033,-0.09044 -0.69211,-0.121116 -0.24248,-0.03209 -0.48761,-0.04749 -0.73056,-0.07786 -0.21716,-0.02714 -0.43563,-0.05081 -0.65366,-0.06921 -0.1535,-0.01296 -0.30783,-0.01394 -0.4614,-0.02596 -0.0451,-0.0035 -0.0896,-0.01297 -0.13458,-0.0173 -0.16608,-0.01601 -0.33342,-0.02212 -0.49986,-0.0346 -0.1536,-0.01151 -0.3075,-0.02883 -0.4614,-0.0346 -0.1664,-0.0062 -0.3335,-0.0024 -0.49986,-0.0087 -0.17953,-0.0067 -0.35883,-0.0186 -0.53831,-0.02596 -0.1724,-0.0071 -0.34642,0 -0.51908,0 -0.28153,0 -0.56446,-0.0063 -0.84591,0 -0.0322,7.94e-4 -0.064,0.0075 -0.0961,0.0087 -0.0512,0.0019 -0.10255,-0.0013 -0.1538,0 -0.21107,0.0059 -0.42462,0.0283 -0.63443,0.05191 -0.096,0.0108 -0.0511,0.0087 -0.13458,0.0087 -0.0192,0 -0.0577,-0.01923 -0.0577,0 0,0.01924 0.0444,-0.01392 0.0577,0 0.0139,0.01463 0,0.04037 0,0.06056"
       id="path44370-7-8" />
    <path
       style="fill:none;fill-opacity:1;fill-rule:nonzero;stroke:#000000;stroke-width:1;stroke-linecap:round;stroke-linejoin:round"
       d="m 156.70438,105.30833 c -0.30084,-0.10571 -0.61635,-0.0319 -0.92281,-0.0779 -0.019,-0.003 0.0385,-9.5e-4 0.0577,0 0.0659,0.003 0.2665,0.0222 0.3076,0.026 0.74442,0.0687 0.42446,0.0483 1.24964,0.0865 1.67181,0.0774 3.34488,0.0635 5.01779,0.0865 0.38537,0.005 0.50593,0.0166 0.86514,0 0.12832,-0.006 0.2564,-0.0164 0.3845,-0.0259 0.0257,-0.002 0.0923,0.0121 0.0769,-0.009 -0.0194,-0.0262 -0.0636,-0.0191 -0.0961,-0.0173 -0.0713,0.004 -0.14099,0.0231 -0.21148,0.0346"
       id="path44329-5-9" />
    <path
       style="fill:none;stroke:#000000;stroke-width:1;stroke-linecap:round;stroke-linejoin:round"
       d="m 129.4106,99.917128 c 0.56046,0.975172 0.0915,0.214522 0.40373,0.648822 0.1874,0.26064 0.004,0.0656 0.30761,0.41525 0.0409,0.047 0.0913,0.0849 0.13457,0.12977 0.12638,0.13124 0.24149,0.27291 0.36528,0.4066 0.0437,0.0472 0.0915,0.0906 0.13458,0.13841 0.0844,0.0935 0.28249,0.35008 0.32683,0.41525 0.0311,0.0457 0.046,0.10119 0.0769,0.14707 0.0335,0.0498 0.0836,0.0874 0.11535,0.13842 0.0584,0.0939 0.097,0.19919 0.1538,0.29413 0.0332,0.0554 0.0826,0.10004 0.11535,0.15572 0.0254,0.0431 0.035,0.0939 0.0577,0.13842 0.0955,0.18748 0.21513,0.36451 0.30761,0.55366 0.0978,0.13248 0.12384,0.2961 0.19225,0.4412 0.0225,0.0477 0.0566,0.0897 0.0769,0.13842 0.067,0.16093 0.0919,0.26171 0.13458,0.41525 0.054,0.19432 0.11801,0.38968 0.15379,0.58827 0.01,0.0543 0.0107,0.10986 0.0192,0.16437 0.11282,0.72336 0.0221,0.0495 0.0769,0.49311 0.0289,0.2343 0.0384,0.46509 0.0384,0.70073 0,0.12111 0.0107,0.2427 0,0.36334 -0.003,0.0379 -0.0149,0.0747 -0.0192,0.11246 -0.009,0.0748 -0.007,0.15071 -0.0192,0.22493 -0.007,0.0418 -0.029,0.0798 -0.0385,0.12112 -0.01,0.0426 -0.006,0.088 -0.0192,0.12976 -0.0257,0.083 -0.066,0.16077 -0.0961,0.24223 -0.0403,0.10882 -0.0326,0.14083 -0.0961,0.24223 -0.16396,0.26159 -0.13999,0.17693 -0.32683,0.4239 -0.10104,0.0777 -0.12323,0.20517 -0.19225,0.30278 -0.0223,0.0315 -0.053,0.0562 -0.0769,0.0865 -0.0467,0.0592 -0.0888,0.12179 -0.13458,0.18168 -0.0248,0.0324 -0.0558,0.0603 -0.0769,0.0952 -0.0177,0.0293 -0.0256,0.0634 -0.0384,0.0952 -0.0385,0.0577 -0.0751,0.11661 -0.11535,0.17302 -0.0795,0.11123 -0.19624,0.20479 -0.28838,0.30278 -0.0206,0.0219 -0.0367,0.0477 -0.0577,0.0692 -0.024,0.0247 -0.0554,0.0423 -0.0769,0.0692 -0.0366,0.0457 -0.0595,0.10134 -0.0961,0.14707 -0.0215,0.0269 -0.0529,0.0445 -0.0769,0.0692 -0.0613,0.063 -0.11676,0.13145 -0.17303,0.19897 -0.0784,0.0941 -0.15827,0.19636 -0.23071,0.29414 -0.0618,0.0834 -0.11099,0.17578 -0.17302,0.25953 -0.0778,0.10499 -0.16586,0.20305 -0.24993,0.30278 -0.0983,0.11658 -0.20265,0.21711 -0.3076,0.32874 -0.0206,0.0219 -0.0374,0.047 -0.0577,0.0692 -0.0802,0.0876 -0.18517,0.17531 -0.26915,0.25088 -0.0591,0.0532 -0.11184,0.11354 -0.17303,0.16437 -0.0554,0.0461 -0.11471,0.0874 -0.17302,0.12977 -0.0728,0.0529 -0.0855,0.051 -0.15381,0.11246 -0.0271,0.0244 -0.0508,0.0524 -0.0769,0.0779 -0.0123,0.012 -0.0227,0.0417 -0.0384,0.0346 -0.0669,-0.0301 -0.0292,-0.10689 -0.0192,-0.14707"
       id="path62760-9-7" />
    <path
       style="fill:#6ae4a3;fill-opacity:1;stroke:#000000;stroke-width:1;stroke-linecap:round;stroke-linejoin:round"
       d="m 163.07666,104.70473 c -0.16313,0.23653 -0.32626,0.47306 -0.4894,0.7096 0,0.0245 -0.0245,0.0734 0,0.0734 0.0828,0 -0.067,-0.0986 0,-0.19576 0.14468,-0.20976 0.29715,-0.42 0.4894,-0.58725 0.35531,-0.3091 0.76142,-0.55444 1.14193,-0.83194 0.54543,-0.39777 0.5711,-0.40936 1.19629,-0.92981 10e-4,-0.001 0.65134,-0.58622 0.65253,-0.58725 0.10677,-0.0921 0.22326,-0.17289 0.32626,-0.26916 0.13298,-0.12428 0.24536,-0.26974 0.38065,-0.39149 0.065,-0.0585 0.15249,-0.0883 0.21751,-0.14681 0.0453,-0.0407 0.0689,-0.10074 0.10874,-0.14682 0.0872,-0.10093 0.18467,-0.1927 0.27189,-0.29362 0.0398,-0.0461 0.0618,-0.10806 0.10876,-0.14681 0.0642,-0.0529 0.14936,-0.0747 0.21751,-0.12236 0.8455,-0.6848 -0.10406,0.046 0.43502,-0.29362 0.0413,-0.026 0.0605,-0.10511 0.10875,-0.0979 0.0197,0.003 0.11213,0.30427 0.16314,0.3915 0.13641,0.23325 0.1896,0.1795 0.38063,0.36704 0.13411,0.13167 0.26877,0.26494 0.38065,0.41596 0.0433,0.0585 0.18886,0.45972 0.21751,0.51385 0.0458,0.0867 0.10602,0.16502 0.16313,0.24469 0.17742,0.24749 0.38742,0.47276 0.54377,0.73406 0.27472,0.45915 0.14492,0.29347 0.32626,0.66065 0.15973,0.32345 0.0499,0.0776 0.27188,0.39151 0.0781,0.11044 0.13699,0.23388 0.21751,0.34256 0.0469,0.0634 0.11191,0.11135 0.16314,0.17128 0.15832,0.18523 0.30665,0.37384 0.48939,0.53832 0.0451,0.0405 0.36872,0.33482 0.38065,0.36703 0.017,0.0459 -0.0148,0.10017 0,0.14681 0.0179,0.0564 0.10874,0.16004 0.10874,0.22022 0,0.0305 -0.0438,0.0448 -0.0544,0.0734 -0.008,0.0229 0.0112,0.0516 0,0.0734 -0.204,0.39777 -0.54898,0.65161 -0.92441,0.88088 -0.0848,0.0518 -0.18414,0.0757 -0.27188,0.12235 -0.44263,0.23537 -0.88521,0.50817 -1.30507,0.78299 -0.29393,0.19239 -0.56672,0.40878 -0.87002,0.58725 -0.14339,0.0844 -0.29712,0.15161 -0.43502,0.24469 -0.0452,0.0305 -0.0635,0.0918 -0.10877,0.12235 -0.11825,0.0798 -0.25829,0.12234 -0.38063,0.19574 -0.18715,0.11229 -0.3644,0.22148 -0.54378,0.34257 -0.0362,0.0245 -0.065,0.0734 -0.10875,0.0734 -0.0436,0 -0.19396,-0.15646 -0.21751,-0.17129 -0.0505,-0.0318 -0.11371,-0.04 -0.16314,-0.0734 -0.0606,-0.0409 -0.10375,-0.10408 -0.16311,-0.14682 -0.12241,-0.0881 -0.25682,-0.15857 -0.38065,-0.24469 -0.0758,-0.0527 -0.13708,-0.12603 -0.21751,-0.17127 -1.31471,-0.73949 -0.12304,-0.0116 -1.03316,-0.48938 -0.19067,-0.1001 -0.57653,-0.38803 -0.70691,-0.48937 -0.24514,-0.19054 -0.48039,-0.42694 -0.65253,-0.68513 -0.28753,-0.43127 -0.28809,-0.64676 -0.87004,-0.73407"
       id="path111766-0" />
    <path
       style="fill:none;fill-opacity:1;stroke:#000000;stroke-width:1;stroke-linecap:round;stroke-linejoin:round"
       d="m 183.08747,95.749169 c -0.55996,0.336999 -1.25575,0.624377 -1.63132,1.198968 -0.0408,0.06248 -0.0888,0.123827 -0.10874,0.195744 -0.0589,0.211847 -0.13464,0.396571 0.0544,0.538317 0.17863,0.133963 0.81905,0.235768 0.87002,0.244687 0.58095,0.10166 0.98584,-0.158625 1.46821,-0.489374 0.14077,-0.09653 0.27061,-0.212051 0.38062,-0.342564 0.0917,-0.108736 0.15391,-0.239831 0.21751,-0.36703 5e-5,-8.8e-5 0.32628,-0.64089 0.32628,-0.831938 0,-0.05219 -0.0332,-0.09912 -0.0544,-0.14681 -0.0152,-0.03411 -0.0215,-0.08014 -0.0544,-0.09788 -0.15711,-0.08484 -0.2284,-0.04234 -0.38064,-0.02447 -0.36231,0.04253 -0.82742,-0.133426 -1.08754,0.122344 -0.32682,0.32136 -0.27396,0.875551 -0.38065,1.321311 -0.001,0.0053 -0.023,0.432963 0.0544,0.464908 0.39958,0.164823 0.82827,0.250805 1.25067,0.342564 0.31265,0.06792 0.82422,-0.05237 1.08753,-0.220221 0.37756,-0.240682 0.68718,-0.863349 0.7613,-1.296845 0.0165,-0.09648 0.0583,-0.214983 0,-0.29363 -0.38055,-0.513707 -0.87283,-0.557605 -1.4682,-0.660651 -0.56473,-0.09774 -0.74647,0.01505 -1.30505,0.342564 -0.34354,0.201436 -0.6796,0.422272 -0.97878,0.685117 -0.20629,0.181228 -0.24941,0.782087 -0.21752,0.954292 0.0199,0.107304 0.14083,0.167045 0.21752,0.244686 0.0685,0.0694 0.12685,0.15975 0.21751,0.195744 0.32804,0.130246 1.35014,0.346748 1.74006,0.171287 0.17743,-0.07984 0.34206,-0.191026 0.48939,-0.318097 0.20839,-0.179722 0.16314,-0.257175 0.16314,-0.489374 0,-0.37143 0.1044,-0.359058 -0.16314,-0.513841 -0.0688,-0.03981 -0.13911,-0.08465 -0.21751,-0.09788 -0.98477,-0.166182 -1.40474,0.134564 -2.17508,0.758527 -0.10366,0.08396 -0.18216,0.19493 -0.27189,0.29363 -0.0734,0.08075 -0.16918,0.146841 -0.2175,0.244688 -0.16841,0.340982 -0.17529,0.357711 0,0.562774 0.30285,0.354307 0.2555,0.214918 0.97878,0.269163 0.87532,0.06565 1.68088,-0.188521 2.28385,-0.856404 0.31413,-0.347941 0.52146,-0.655478 0.59814,-1.150035 0.0303,-0.195649 -0.23433,-0.515937 -0.38063,-0.587251 -0.79455,-0.387324 -1.19834,-0.456538 -2.06634,-0.36703 -0.84583,0.08722 -1.86053,0.199057 -2.55573,0.782994 -0.30252,0.254103 -0.51005,0.330677 -0.43502,0.685128 0.12902,0.609528 0.83289,0.869305 1.35943,1.003224 1.11221,0.282876 3.04187,0.44769 3.86078,-0.611727 0.0685,-0.08859 0.10312,-0.1991 0.16314,-0.29362 0.049,-0.07712 0.14715,-0.130277 0.16314,-0.220221 0.0824,-0.463741 -0.22317,-0.608428 -0.59816,-0.685128 -0.0891,-0.01823 -0.1819,-0.03796 -0.27189,-0.02447 -0.0786,0.0118 -0.145,0.06525 -0.21751,0.09788 0.32626,0.0571 0.64874,0.14344 0.97879,0.171288 0.25299,0.02135 0.50745,-0.01903 0.76128,-0.02447 0.45304,-0.0097 0.90635,0.0076 1.35944,0 0.16331,-0.0027 0.32626,-0.01631 0.48939,-0.02447 0.19939,0 0.39877,0 0.59816,0 1.12184,0 2.25041,-0.02597 3.37138,0.02447 0.30824,0.01387 0.61586,0.05606 0.92442,0.07341 0.17936,0.01009 0.36427,0 0.54376,0"
       id="path111852-2" />
    <path
       style="fill:none;fill-opacity:1;stroke:#000000;stroke-width:1;stroke-linecap:round;stroke-linejoin:round"
       d="m 108.76481,98.849772 c -0.17878,0.005 -0.96032,-0.03734 -1.25067,0.122343 -0.15529,0.08541 -0.44684,0.932171 0.0544,0.831941 0.101,-0.0202 0.19287,-0.0808 0.2719,-0.146813 0.1974,-0.164957 0.55807,-1.104966 0.27189,-1.272378 -0.31602,-0.184865 -0.83088,-0.28415 -1.1963,-0.244687 -0.92001,0.09936 -1.44968,0.260331 -1.9032,1.076627 -0.19019,0.34232 0.24731,0.627801 0.48939,0.758521 0.11527,0.0622 0.25392,0.0646 0.38063,0.0979 0.0908,0.0238 0.17827,0.0664 0.27188,0.0734 0.29383,0.022 1.07724,0.0435 1.35944,-0.220224 0.15573,-0.14554 0.28278,-0.324477 0.38065,-0.513839 0.0861,-0.166566 0.16314,-0.350819 0.16314,-0.538316 0,-0.281552 -0.20957,-0.409112 -0.43503,-0.464908 -0.94332,-0.23346 -1.91119,-0.240935 -2.6101,0.562782 -0.20778,0.238932 -0.32628,0.413584 -0.32628,0.758531 0,0.0763 0.21855,0.295594 0.27189,0.318104 0.54958,0.23185 1.09661,0.31605 1.68571,0.24468 0.62238,-0.0754 1.02673,-0.11896 1.46818,-0.538324 0.15917,-0.1512 0.7217,-0.855524 0.65251,-0.905334 -0.4132,-0.29749 -1.01439,-0.09058 -1.52255,-0.122343 -0.53393,-0.03337 -1.02373,0.09149 -1.46819,0.391498 -0.0967,0.06525 -0.20108,0.12754 -0.27188,0.220221 -0.0282,0.03688 -0.42855,0.605648 -0.38065,0.831942 0.0203,0.0959 0.0889,0.18066 0.16314,0.24469 0.37945,0.32726 0.51189,0.34962 0.97879,0.41597 1.51712,0.21558 2.59577,-0.0793 3.53452,-1.29685 0.0515,-0.06682 0.2592,-0.623464 0.21751,-0.758537 -0.19986,-0.647478 -0.76006,-0.832421 -1.35944,-0.929814 -1.16012,-0.188508 -2.21797,-0.383736 -3.26263,0.269152 -0.13395,0.08371 -0.50356,0.6277 -0.38063,0.807472 0.42263,0.618079 1.25341,0.589034 1.9032,0.636196 0.57471,0.04171 1.58497,-0.03683 1.84881,-0.709597 0.35231,-0.89834 -0.092,-1.092994 -0.65251,-1.223444 -0.35876,-0.0835 -0.72184,-0.15186 -1.08755,-0.195744 -0.17211,-0.02064 -0.78589,-0.01339 -0.97879,0.0734 -0.72879,0.327937 -0.62647,0.271502 -0.87004,0.783005 -0.0544,0.114186 -0.16312,0.21609 -0.16312,0.342561 0,0.113541 0.15312,0.617207 0.32625,0.734063 0.26911,0.181636 1.08122,0.277744 1.25067,0.293629 0.14461,0.01354 0.29037,-0.01146 0.43503,-0.02447 0.43435,-0.03909 0.91262,-0.159115 1.08755,-0.611716 0.0359,-0.09285 0.0544,-0.194083 0.0544,-0.293622 0,-0.910926 -0.25513,-0.936151 -1.08755,-1.076624 -0.12894,-0.02175 -0.41484,-0.04351 -0.54377,0 -0.13519,0.04562 -0.25402,0.129998 -0.38065,0.195744 -0.54821,0.284636 -0.62636,0.396661 -1.08753,0.88088"
       id="path112307" />
    <rect
       style="fill:#6ae4a3;fill-opacity:0;stroke:none;stroke-width:1;stroke-linecap:round;stroke-linejoin:round"
       id="rect112317"
       width="144.15401"
       height="92.198372"
       x="59.479389"
       y="26.503557" />
    <path
       style="fill:#6ae4a3;fill-opacity:1;stroke:#000000;stroke-width:1;stroke-linecap:round;stroke-linejoin:round"
       d="m 162.90794,89.593551 c -0.0181,0.07137 -0.0603,0.140709 -0.0544,0.214104 0.004,0.04885 0.0595,0.07859 0.0816,0.122343 0.0461,0.0913 0.0799,0.188352 0.12235,0.28139 0.0255,0.05586 0.0596,0.107827 0.0816,0.165165 0.0397,0.103594 0.14736,0.575493 0.14953,0.587251 0.0231,0.124627 0.0115,0.253496 0.0272,0.379266 0.0148,0.118725 0.0389,0.23616 0.0544,0.354798 0.007,0.05477 0.007,0.110356 0.0136,0.165165 0.007,0.05336 0.0227,0.105447 0.0272,0.159046 0.0158,0.189295 0.0136,0.313457 0.0136,0.489376 0,0.05506 0.006,0.110463 0,0.165163 -0.0343,0.301395 -0.0501,0.238256 -0.0816,0.464908 -0.0172,0.123934 -0.0257,0.248934 -0.0408,0.373149 -0.004,0.03471 -0.0124,0.06905 -0.0136,0.103991 -0.003,0.09986 0,0.199828 0,0.299742 0,0.03466 -0.002,0.06941 0,0.103994 0.002,0.03286 0.009,0.06525 0.0136,0.09787 0.005,0.05709 0.0106,0.114089 0.0136,0.171282 0.006,0.108946 0.004,0.266583 0,0.36703 -0.002,0.037 -0.0114,0.0732 -0.0136,0.11011 -0.0247,0.41198 0.0481,-0.336348 -0.0136,0.33033 -0.002,0.0268 -0.0111,0.0527 -0.0136,0.0795 -0.005,0.0528 0,0.10603 0,0.15905 0,0.0364 -0.006,0.0882 0,0.12234 10e-4,0.008 0.0109,0.0112 0.0136,0.0183 0.002,0.006 -0.002,0.0126 0,0.0183 0.003,0.007 0.007,0.0152 0.0136,0.0184 0.0125,0.006 0.0275,0.002 0.0408,0.006 0.0322,0.009 0.0632,0.0213 0.0952,0.0306 0.11191,0.0324 0.10114,0.025 0.23111,0.0428 0.0645,0.009 0.4914,0.0697 0.59814,0.0795 0.095,0.009 0.1905,0.01 0.28549,0.0184 0.20413,0.0181 0.40758,0.0433 0.61174,0.0612 0.60665,0.053 0.002,-0.0193 0.57096,0.0489 0.52955,0.0635 1.05823,0.15181 1.59053,0.18964 0.0859,0.006 0.17228,0.002 0.2583,0.006 0.0817,0.004 0.16313,0.0122 0.24469,0.0183 0.14954,0.008 0.29901,0.0176 0.44861,0.0245 0.25801,0.0118 0.51676,0.0122 0.77488,0.0183 0.23128,0.005 0.46183,0.0183 0.69331,0.0183 0.0713,0 0.35199,0.0144 0.43502,-0.0122 0.0568,-0.0182 0.15135,-0.0814 0.19032,-0.1101 0.0159,-0.0117 0.0266,-0.0291 0.0408,-0.0428 0.0175,-0.0169 0.0392,-0.0298 0.0544,-0.0489 0.10491,-0.13219 0.18705,-0.29691 0.2311,-0.45879 0.01,-0.0357 0.009,-0.0734 0.0136,-0.11011 0.0199,-0.16529 0.0197,-0.1567 0.0272,-0.37315 0.003,-0.0897 0,-0.17944 0,-0.26916 0,-0.09176 0.003,-0.183564 0,-0.275272 -0.002,-0.04709 -0.0113,-0.09364 -0.0136,-0.140696 -0.007,-0.134414 0.004,-0.269228 0,-0.403734 -0.002,-0.04912 -0.0114,-0.09772 -0.0136,-0.146812 -0.002,-0.05092 0.003,-0.102035 0,-0.152932 -0.0186,-0.331573 -0.0594,-0.66113 -0.0952,-0.990984 -0.0247,-0.227698 -0.007,-0.104104 -0.0136,-0.336447 -0.003,-0.102012 -0.0106,-0.203848 -0.0136,-0.305859 -0.002,-0.05503 0.002,-0.110155 0,-0.165165 -0.002,-0.05723 -0.0106,-0.114088 -0.0136,-0.171282 -0.006,-0.114117 -0.007,-0.228448 -0.0136,-0.342561 -0.003,-0.05516 -0.0114,-0.109969 -0.0136,-0.165165 -0.0108,-0.266705 0.007,-0.534504 0,-0.801353 -0.0163,-0.592979 0.006,-0.137344 -0.0408,-0.501601 -0.007,-0.05278 -0.005,-0.106479 -0.0136,-0.159049 -0.0302,-0.193293 -0.0878,-0.377189 -0.12235,-0.568898 -0.003,-0.01605 0.003,-0.03283 0,-0.04894 -7.1e-4,-0.0044 -0.0177,-0.06913 -0.0272,-0.07341 -0.0125,-0.0056 -0.0271,-0.0053 -0.0408,-0.0061 -0.0589,-0.0033 -0.11783,-0.0037 -0.17672,-0.0061 -0.0929,-0.0038 -0.17844,-0.01032 -0.27189,-0.01223 -0.16763,-0.0034 -0.33532,0 -0.50299,0 -0.14953,0 -0.2993,-0.0082 -0.44861,0 -0.2769,0.0153 -0.55358,0.03703 -0.82925,0.06729 -0.0909,0.01 -0.18097,0.02683 -0.27189,0.0367 -0.56083,0.06092 -1.12314,0.105764 -1.68569,0.146813 -0.16316,0.0119 -0.32652,0.02143 -0.48939,0.0367 -0.16323,0.0153 -0.32632,0.03216 -0.4894,0.04894 -0.05,0.0051 -0.0995,0.01413 -0.14954,0.01835 -0.095,0.008 -0.19039,0.01122 -0.28548,0.01835 -0.10437,0.0078 -0.20807,0.01893 -0.31267,0.02447 -0.11463,0.0061 -0.22544,0.0087 -0.33985,0.01835 -0.12258,0.01034 -0.24434,0.0076 -0.36705,0.01224 -0.0868,0.0033 -0.17144,0.01223 -0.25829,0.01223 -0.0453,0 -0.0906,0 -0.13595,0 -0.0226,0 -0.0453,0 -0.068,0 -0.0136,0 -0.0518,-0.0079 -0.0408,0 0.0323,0.02323 0.0725,0.03263 0.10875,0.04894"
       id="path110294-6" />
    <path
       style="fill:#6ae4a3;fill-opacity:1;stroke:#000000;stroke-width:1;stroke-linecap:round;stroke-linejoin:round"
       d="m 166.10261,91.141201 c -0.11471,0.348424 -0.001,-0.03976 -0.0816,0.507729 -0.0107,0.07286 -0.0345,0.1432 -0.0544,0.214101 -0.0436,0.155467 -0.0879,0.310772 -0.13595,0.464907 -0.11647,0.373436 -0.0537,0.08858 -0.13594,0.458788 -0.0547,0.246296 -0.0857,0.332011 -0.0952,0.544432 -0.002,0.04889 -0.0146,0.100103 0,0.146813 0.0236,0.07563 0.11879,0.27106 0.20391,0.342563 0.14831,0.124571 0.35802,0.154562 0.54378,0.17128 0.0588,0.0053 0.11767,0.01224 0.17672,0.01224 0.19553,0 0.38857,-0.04954 0.57096,-0.116227 0.0319,-0.01167 0.066,-0.01921 0.0952,-0.0367 0.0531,-0.03185 0.10426,-0.0679 0.14954,-0.11011 0.01,-0.0089 0.0769,-0.132223 0.0816,-0.140696"
       id="path111531-2" />
    <path
       style="fill:#6ae4a3;fill-opacity:1;stroke:#000000;stroke-width:1;stroke-linecap:round;stroke-linejoin:round"
       d="m 165.45008,92.511453 c 0.33533,-0.03874 0.67065,-0.07748 1.00598,-0.116226 0.13141,-0.01427 0.26288,-0.02804 0.39423,-0.04282 0.0549,-0.0062 0.0457,-0.02158 0.0272,0.0367"
       id="path111533-5" />
    <path
       style="fill:#6ae4a3;fill-opacity:1;stroke:#000000;stroke-width:1;stroke-linecap:round;stroke-linejoin:round"
       d="m 90.030506,74.664086 c -0.16313,0.236532 -0.32626,0.473063 -0.4894,0.709595 0,0.02447 -0.0245,0.07341 0,0.07341 0.0828,0 -0.067,-0.09857 0,-0.195754 0.14468,-0.209763 0.29715,-0.420004 0.4894,-0.587251 0.35531,-0.309105 0.76142,-0.554443 1.14193,-0.831937 0.54543,-0.397774 0.5711,-0.409362 1.19629,-0.929815 0.001,-10e-4 0.65134,-0.586222 0.65253,-0.587251 0.10677,-0.09208 0.22326,-0.17289 0.32626,-0.269154 0.13298,-0.12428 0.24536,-0.26974 0.38065,-0.391497 0.065,-0.05851 0.15249,-0.08829 0.21751,-0.14681 0.0453,-0.04074 0.0689,-0.100741 0.10874,-0.14682 0.0872,-0.100924 0.18467,-0.1927 0.27189,-0.293621 0.0398,-0.04608 0.0618,-0.108053 0.10876,-0.14681 0.0642,-0.05294 0.14936,-0.07465 0.21751,-0.122354 0.8455,-0.684801 -0.10406,0.04601 0.43502,-0.29362 0.0413,-0.02599 0.0605,-0.105111 0.10875,-0.09788 0.0197,0.003 0.11213,0.304273 0.16314,0.391497 0.13641,0.233251 0.1896,0.179497 0.38063,0.367041 0.13411,0.131671 0.26877,0.26494 0.38065,0.415964 0.0433,0.05846 0.18886,0.459715 0.21751,0.51385 0.0458,0.08665 0.10602,0.165016 0.16313,0.244688 0.17742,0.247485 0.38742,0.472754 0.54377,0.734061 0.27472,0.459144 0.14492,0.293468 0.32626,0.660651 0.15973,0.323442 0.0499,0.0776 0.27188,0.391507 0.0781,0.110442 0.13699,0.233876 0.21751,0.342564 0.0469,0.06336 0.11191,0.111342 0.16314,0.171277 0.15832,0.185227 0.30665,0.373838 0.48939,0.538317 0.0451,0.04055 0.36872,0.334824 0.38065,0.36703 0.017,0.04589 -0.0148,0.100168 0,0.146811 0.0179,0.05638 0.10874,0.16004 0.10874,0.22022 0,0.03045 -0.0438,0.04485 -0.0544,0.07341 -0.008,0.02294 0.0112,0.05163 0,0.0734 -0.204,0.397771 -0.54898,0.651607 -0.92441,0.880882 -0.0848,0.0518 -0.18414,0.07568 -0.27188,0.122343 -0.44263,0.235375 -0.88521,0.508177 -1.30507,0.782994 -0.29393,0.192394 -0.56672,0.408779 -0.87002,0.587251 -0.14339,0.08438 -0.29712,0.151609 -0.43502,0.244686 -0.0452,0.03053 -0.0635,0.09183 -0.10877,0.122354 -0.11825,0.07982 -0.25829,0.122341 -0.38063,0.195744 -0.18715,0.112289 -0.3644,0.22148 -0.54378,0.342564 -0.0362,0.02447 -0.065,0.07341 -0.10875,0.07341 -0.0436,0 -0.19396,-0.156457 -0.21751,-0.171289 -0.0505,-0.03178 -0.11371,-0.04004 -0.16314,-0.0734 -0.0606,-0.04093 -0.10375,-0.104074 -0.16311,-0.14682 -0.12241,-0.08813 -0.25682,-0.15857 -0.38065,-0.244686 -0.0758,-0.05269 -0.13708,-0.126035 -0.21751,-0.171276 -1.31471,-0.739489 -0.12304,-0.01156 -1.03316,-0.489376 -0.19067,-0.100097 -0.57653,-0.388035 -0.70691,-0.489373 -0.24514,-0.190534 -0.48039,-0.42694 -0.65253,-0.685127 -0.28753,-0.431269 -0.28809,-0.646758 -0.87004,-0.734072"
       id="path111766" />
    <path
       style="fill:#6ae4a3;fill-opacity:1;stroke:#000000;stroke-width:1;stroke-linecap:round;stroke-linejoin:round"
       d="m 89.598857,60.104493 c -0.0181,0.07137 -0.0603,0.140709 -0.0544,0.214104 0.004,0.04885 0.0595,0.07859 0.0816,0.122343 0.0461,0.0913 0.0799,0.188352 0.12235,0.28139 0.0255,0.05586 0.0596,0.107827 0.0816,0.165165 0.0397,0.103594 0.14736,0.575493 0.14953,0.587251 0.0231,0.124627 0.0115,0.253496 0.0272,0.379266 0.0148,0.118725 0.0389,0.23616 0.0544,0.354798 0.007,0.05477 0.007,0.110356 0.0136,0.165165 0.007,0.05336 0.0227,0.105447 0.0272,0.159046 0.0158,0.189295 0.0136,0.313457 0.0136,0.489376 0,0.05506 0.006,0.110463 0,0.165163 -0.0343,0.301395 -0.0501,0.238256 -0.0816,0.464908 -0.0172,0.123934 -0.0257,0.248934 -0.0408,0.373149 -0.004,0.03471 -0.0124,0.06905 -0.0136,0.103991 -0.003,0.09986 0,0.199828 0,0.299742 0,0.03466 -0.002,0.06941 0,0.103994 0.002,0.03286 0.009,0.06525 0.0136,0.09787 0.005,0.05709 0.0106,0.114089 0.0136,0.171282 0.006,0.108946 0.004,0.266583 0,0.367033 -0.002,0.03695 -0.0114,0.07319 -0.0136,0.110108 -0.0247,0.41198 0.0481,-0.336349 -0.0136,0.33033 -0.002,0.02678 -0.0111,0.05274 -0.0136,0.07952 -0.005,0.05279 0,0.106032 0,0.159049 0,0.03636 -0.006,0.08817 0,0.122343 0.001,0.0075 0.0109,0.01121 0.0136,0.01835 0.002,0.0057 -0.002,0.01262 0,0.01835 0.003,0.0071 0.007,0.01523 0.0136,0.01835 0.0125,0.0056 0.0275,0.0025 0.0408,0.0061 0.0322,0.0087 0.0632,0.02133 0.0952,0.03059 0.11191,0.03237 0.10114,0.02495 0.23111,0.04282 0.0645,0.0089 0.4914,0.06967 0.59814,0.07952 0.095,0.0088 0.1905,0.0099 0.28549,0.01835 0.20413,0.01809 0.40758,0.04335 0.61174,0.06117 0.60665,0.05297 0.002,-0.01933 0.57096,0.04894 0.52955,0.06354 1.05823,0.151812 1.59053,0.189632 0.0859,0.0061 0.17228,0.0019 0.2583,0.0061 0.0817,0.004 0.16313,0.01223 0.24469,0.01835 0.14954,0.0082 0.29901,0.0176 0.44861,0.02447 0.25801,0.01185 0.51676,0.01224 0.77488,0.01835 0.23128,0.0055 0.46183,0.01835 0.69331,0.01835 0.0713,0 0.35199,0.01445 0.43502,-0.01224 0.0568,-0.01824 0.15135,-0.08142 0.19032,-0.110108 0.0159,-0.01169 0.0266,-0.02914 0.0408,-0.04282 0.0175,-0.01693 0.0392,-0.02983 0.0544,-0.04894 0.10491,-0.132183 0.18705,-0.296904 0.2311,-0.45879 0.01,-0.03569 0.009,-0.07339 0.0136,-0.11011 0.0199,-0.165283 0.0197,-0.156698 0.0272,-0.373148 0.003,-0.08966 0,-0.179439 0,-0.269158 0,-0.09176 0.003,-0.183565 0,-0.275273 -0.002,-0.04709 -0.0113,-0.09364 -0.0136,-0.140696 -0.007,-0.134414 0.004,-0.269228 0,-0.403734 -0.002,-0.04912 -0.0114,-0.09772 -0.0136,-0.146812 -0.002,-0.05092 0.003,-0.102035 0,-0.152932 -0.0186,-0.331573 -0.0594,-0.66113 -0.0952,-0.990984 -0.0247,-0.227698 -0.007,-0.104104 -0.0136,-0.336447 -0.003,-0.102012 -0.0106,-0.203848 -0.0136,-0.305859 -0.002,-0.05503 0.002,-0.110155 0,-0.165165 -0.002,-0.05723 -0.0106,-0.114088 -0.0136,-0.171282 -0.006,-0.114117 -0.007,-0.228448 -0.0136,-0.342561 -0.003,-0.05516 -0.0114,-0.109969 -0.0136,-0.165165 -0.0108,-0.266705 0.007,-0.534504 0,-0.801353 -0.0163,-0.592979 0.006,-0.137344 -0.0408,-0.501601 -0.007,-0.05278 -0.005,-0.106479 -0.0136,-0.159049 -0.0302,-0.193293 -0.0878,-0.377189 -0.12235,-0.568898 -0.003,-0.01605 0.003,-0.03283 0,-0.04894 -7.1e-4,-0.0044 -0.0177,-0.06913 -0.0272,-0.07341 -0.0125,-0.0056 -0.0271,-0.0053 -0.0408,-0.0061 -0.0589,-0.0033 -0.11783,-0.0037 -0.17672,-0.0061 -0.0929,-0.0038 -0.17844,-0.01032 -0.27189,-0.01223 -0.16763,-0.0034 -0.33532,0 -0.50299,0 -0.14953,0 -0.2993,-0.0082 -0.44861,0 -0.2769,0.0153 -0.55358,0.03703 -0.82925,0.06729 -0.0909,0.01 -0.18097,0.02683 -0.27189,0.0367 -0.56083,0.06092 -1.12314,0.105764 -1.68569,0.146813 -0.16316,0.0119 -0.32652,0.02143 -0.48939,0.0367 -0.16323,0.0153 -0.32632,0.03216 -0.4894,0.04894 -0.05,0.0051 -0.0995,0.01413 -0.14954,0.01835 -0.095,0.008 -0.19039,0.01122 -0.28548,0.01835 -0.10437,0.0078 -0.20807,0.01893 -0.31267,0.02447 -0.11463,0.0061 -0.22544,0.0087 -0.33985,0.01835 -0.12258,0.01034 -0.24434,0.0076 -0.36705,0.01224 -0.0868,0.0033 -0.17144,0.01223 -0.25829,0.01223 -0.0453,0 -0.0906,0 -0.13595,0 -0.0226,0 -0.0453,0 -0.068,0 -0.0136,0 -0.0518,-0.0079 -0.0408,0 0.0323,0.02323 0.0725,0.03263 0.10875,0.04894"
       id="path110294" />
    <path
       style="fill:#6ae4a3;fill-opacity:1;stroke:#000000;stroke-width:1;stroke-linecap:round;stroke-linejoin:round"
       d="m 92.793527,61.652143 c -0.11471,0.348424 -10e-4,-0.03976 -0.0816,0.507729 -0.0107,0.07286 -0.0345,0.1432 -0.0544,0.214101 -0.0436,0.155467 -0.0879,0.310772 -0.13595,0.464907 -0.11647,0.373436 -0.0537,0.08858 -0.13594,0.458788 -0.0547,0.246296 -0.0857,0.332011 -0.0952,0.544432 -0.002,0.04889 -0.0146,0.100103 0,0.146813 0.0236,0.07563 0.11879,0.27106 0.20391,0.342563 0.14831,0.124571 0.35802,0.154562 0.54378,0.17128 0.0588,0.0053 0.11767,0.01224 0.17672,0.01224 0.19553,0 0.38857,-0.04954 0.57096,-0.116227 0.0319,-0.01167 0.066,-0.01921 0.0952,-0.0367 0.0531,-0.03185 0.10426,-0.0679 0.14954,-0.11011 0.01,-0.0089 0.0769,-0.132223 0.0816,-0.140696"
       id="path111531" />
    <path
       style="fill:#6ae4a3;fill-opacity:1;stroke:#000000;stroke-width:1;stroke-linecap:round;stroke-linejoin:round"
       d="m 92.140997,63.022395 c 0.33533,-0.03874 0.67065,-0.07748 1.00598,-0.116226 0.13141,-0.01427 0.26288,-0.02804 0.39423,-0.04282 0.0549,-0.0062 0.0457,-0.02158 0.0272,0.0367"
       id="path111533" />
    <path
       style="fill:none;fill-opacity:0;stroke:#000000;stroke-width:1;stroke-linecap:round;stroke-linejoin:round"
       d="m 108.67351,67.708983 c 0.1326,-0.179024 -0.0134,0.0026 0.32626,-0.269164 0.0762,-0.06093 0.14061,-0.135754 0.21751,-0.195744 0.60466,-0.471609 0.42477,-0.346009 0.92441,-0.611727 0.0909,-0.04836 0.17113,-0.125489 0.27189,-0.146809 0.40318,-0.08537 1.32483,-0.06395 1.68569,0.220218 0.12861,0.101274 0.23458,0.231439 0.32628,0.367032 0.038,0.05609 0.0736,0.130822 0.0544,0.195752 -0.39072,1.318591 -0.13861,-0.302895 -1.30507,0.685128 -0.16416,0.139052 0.26117,0.484333 0.10877,0.636186 -0.20746,0.206713 -0.57807,0.09948 -0.87004,0.122343 -0.27084,0.02119 -0.91862,-0.114268 -1.08755,-0.171278 -0.0693,-0.02339 -0.10872,-0.09788 -0.16312,-0.14682 -0.0544,-0.04894 -0.15614,-0.07396 -0.16314,-0.146809 -0.0258,-0.278514 0.11326,-0.470308 0.27188,-0.660652 0.0505,-0.06057 0.0912,-0.138936 0.16314,-0.171286 0.17121,-0.07704 0.35864,-0.115572 0.54377,-0.146812 0.54452,-0.09188 0.75295,0.244568 1.19629,0.685128 0.17748,0.176366 0.49032,0.367705 0.43502,0.611717 -0.0677,0.298752 -0.44771,0.423966 -0.7069,0.587253 -0.0957,0.06029 -0.64992,0.14891 -0.76128,0.14681 -0.72004,-0.01409 -1.60819,-0.02311 -1.95757,-0.783006 -0.0667,-0.144983 0.0298,-0.399489 0.10874,-0.513839 0.11372,-0.164878 0.23178,-0.330928 0.38065,-0.464907 0.0739,-0.06648 0.17979,-0.08504 0.27189,-0.122344 0.37855,-0.153306 0.59877,-0.207773 1.08753,-0.04893 0.40707,0.132294 0.98644,0.188462 1.14192,0.58725 0.12168,0.312079 -0.37868,0.554419 -0.59813,0.807472 -0.0732,0.08437 -0.17929,0.133264 -0.27189,0.195744 -0.5284,0.356645 -0.92981,0.311376 -1.52257,0.244686 -0.36146,-0.04066 -0.52285,-0.02164 -0.81565,-0.318087 -0.0401,-0.04062 0,-0.114196 0,-0.171286 0,-0.06525 -0.0186,-0.133195 0,-0.195755 0.0192,-0.06484 0.0596,-0.124825 0.10874,-0.171275 0.53989,-0.510179 1.10767,-0.633609 1.84883,-0.538319 0.12817,0.01648 0.25231,0.05833 0.38065,0.07341 0.28905,0.03393 0.75723,-0.19488 0.87002,0.07341 0.1247,0.29659 -0.31557,0.561195 -0.48939,0.831938 -0.0623,0.09707 -0.14671,0.178105 -0.21751,0.269155 -0.24647,0.316889 -0.15564,0.297534 -0.65251,0.538316 -0.1943,0.09416 -0.7584,-0.01159 -0.92442,-0.04894 -0.13848,-0.03116 -0.40232,-0.141695 -0.43502,-0.318098 -0.0267,-0.144354 -0.0238,-0.295568 0,-0.44043 0.0134,-0.08078 0.0703,-0.147981 0.10875,-0.220221 0.12788,-0.239766 0.24621,-0.553793 0.54378,-0.636193 0.33063,-0.09155 0.74289,-0.10037 1.08754,-0.0734 0.32689,0.02558 0.65252,0.06525 0.97878,0.09788 0.54377,0.09787 1.08492,0.211665 1.63132,0.293621 0.21571,0.03236 0.43537,0.02859 0.65254,0.04894 0.21792,0.02043 0.43518,0.04751 0.65253,0.0734 0.5984,0.07127 1.19479,0.160257 1.79443,0.22022 0.87708,0.08771 -0.22692,-0.08511 1.1963,0.09788 0.11057,0.01422 0.21603,0.05687 0.32628,0.07341 0.27696,0.04154 0.58574,0.0734 0.87002,0.0734 0.0906,0 0.18126,0 0.27188,0 0.0544,0 0.11807,0.03042 0.16314,0 0.0127,-0.0086 -0.0218,-0.08808 -0.21751,-0.14681 -0.27134,-0.0814 -0.81547,-0.02459 -1.03316,0.122344 -0.19484,0.13151 -0.60265,0.559147 -0.32627,0.783004 0.0427,0.03461 0.10859,0.01746 0.16313,0.02447 0.35116,0.04514 0.54092,0.0776 0.92442,-0.04894 0.10171,-0.03356 0.18156,-0.1137 0.27188,-0.171277 0.58248,-0.371308 0.30523,-0.147675 0.87004,-0.831937 0.0734,-0.08896 0.15928,-0.16958 0.21751,-0.269154 0.0527,-0.09015 0.0946,-0.416952 0.0544,-0.489384 -0.0177,-0.03177 -0.40171,-0.16628 -0.43502,-0.171277 -0.25212,-0.03782 -0.50641,-0.06768 -0.76128,-0.07341 -0.56509,-0.01271 -1.52605,0.430618 -1.74007,1.027691 -0.047,0.131053 -0.1842,0.52267 -0.0544,0.709595 0.18757,0.27009 0.79762,0.328037 0.97881,0.36703 0.3538,0.07614 0.61884,0.102935 0.97879,0.04894 0.86722,-0.130081 1.15832,-0.256697 1.74006,-0.929814 0.0779,-0.09016 0.10527,-0.21393 0.16314,-0.318097 0.15294,-0.275282 0.28689,-0.31637 0.10874,-0.685128 -0.0809,-0.167459 -0.49162,-0.206527 -0.59814,-0.22022 -0.93216,-0.119842 -1.51816,-0.135107 -2.28385,0.489374 -0.0813,0.06631 -0.11218,0.177452 -0.16313,0.269163 -0.0579,0.104163 -0.14891,0.19978 -0.16312,0.318088 -0.11546,0.961203 0.55817,1.127727 1.35941,1.247911 0.18833,0.02825 0.73251,0.0017 0.92442,-0.07341 0.28422,-0.11121 0.56144,-0.247092 0.81567,-0.415964 0.31761,-0.210974 0.70268,-0.805307 0.76128,-1.174501 0.0106,-0.0668 -0.0628,-0.12166 -0.10877,-0.171287 -0.22306,-0.2409 -0.66372,-0.250968 -0.92439,-0.293621 -0.29613,-0.04845 -0.83617,-0.07943 -1.08756,0.146811 -0.35152,0.316359 -0.63721,0.802016 -0.7069,1.272378 -0.0272,0.183396 0.12286,0.276187 0.27188,0.318097 0.29933,0.08418 0.91121,0.226153 1.25067,0.0734 0.1555,-0.06997 0.30039,-0.164511 0.43502,-0.269153 0.24299,-0.188861 0.32628,-0.518961 0.32628,-0.807472 0.12687,-0.375187 0.18541,-0.780952 0.38062,-1.125561 0.0573,-0.101064 0.21925,-0.0772 0.32627,-0.122343 7.8e-4,-3.29e-4 0.75356,-0.339098 0.87003,-0.391508 0.35318,-0.158932 0.37072,-0.170955 0.81567,-0.342563 0.0714,-0.02754 0.14772,-0.042 0.21751,-0.0734 0.0399,-0.01795 0.0681,-0.05717 0.10874,-0.07341 0.32611,-0.130439 0.74361,-0.249702 1.08755,-0.342563 0.30526,-0.08242 0.61905,-0.137769 0.92442,-0.220221 0.53211,-0.143673 1.07967,-0.248492 1.6313,-0.29362 0.21678,-0.01774 0.43502,0 0.65253,0 0.27189,0 0.54378,0 0.81567,0 0.12688,0 0.25605,-0.02402 0.38063,0 0.0585,0.01129 0.10876,0.04893 0.16314,0.0734"
       id="path117476" />
    <path
       style="fill:none;fill-opacity:0;stroke:#000000;stroke-width:1;stroke-linecap:round;stroke-linejoin:round"
       d="m 118.67895,69.201582 c 0.0906,0.269158 0.2038,0.531747 0.27188,0.807472 0.11686,0.473246 0.0165,0.965829 0.0544,1.443656 0.006,0.07537 0.046,0.145071 0.0544,0.220218 0.01,0.08917 -0.006,0.179673 0,0.269166 0.0117,0.163708 0.0427,0.325665 0.0544,0.489373 0.006,0.08949 -0.009,0.179851 0,0.269153 0.01,0.09908 0.0428,0.194765 0.0544,0.293632 0.0247,0.211391 0.032,0.424529 0.0544,0.636183 0.0572,0.540141 0.16523,1.073869 0.2175,1.614942 0.0535,0.553233 0.0831,1.108663 0.10877,1.663877 0.0109,0.236279 -0.0243,0.474316 0,0.709594 0.008,0.08143 0.12817,0.83198 0.16312,1.052158 0.1226,0.772425 -0.0334,-0.165534 0.21751,1.076624 0.1,0.494782 0.17348,1.046187 0.21751,1.541534 0.0123,0.138113 0,0.277315 0,0.415973 0,0.399656 0,0.799311 0,1.198967 0,0.640104 0.0354,1.295236 0,1.93303 -0.0123,0.220626 -0.0427,0.440005 -0.0544,0.660662 -0.006,0.122171 0.009,0.245044 0,0.36703 -0.009,0.115279 -0.0416,0.227655 -0.0544,0.342564 -0.0235,0.211534 -0.0297,0.424791 -0.0544,0.636185 -0.0116,0.09887 -0.0448,0.194551 -0.0544,0.29363 -0.0394,0.407384 0,0.87722 0,1.296844 0,0.244687 -0.027,0.490871 0,0.734063 0.009,0.08304 0.0368,0.163002 0.0544,0.244687 0.0753,0.349937 0.17083,0.719542 0.21751,1.076624 0.0244,0.186877 0.0292,0.376002 0.0544,0.562784 0.0401,0.297577 0.14649,0.617818 0.2175,0.905349 0.0401,0.162232 0.0613,0.329155 0.10876,0.489373 0.0272,0.09175 0.18638,0.563393 0.27188,0.709594 0.28924,0.494586 0.0687,-0.117017 0.32626,0.636185 0.1059,0.309751 0.12111,0.48177 0.2719,0.807472 0.15114,0.326445 0.0539,0.07258 0.21749,0.342564 0.0774,0.127669 0.15257,0.257074 0.21751,0.391496 0.24083,0.498464 -0.19305,-0.222922 0.16314,0.391506 0.0678,0.11702 0.14967,0.225544 0.21751,0.342564 0.23537,0.406006 -0.015,0.04773 0.21751,0.391499 0.18206,0.269158 0.34883,0.516509 0.4894,0.807471 0.18081,0.374277 0.0963,0.281556 0.27188,0.538308 0.13613,0.199081 0.31812,0.376846 0.43502,0.587251 0.0253,0.04562 0.028,0.101769 0.0544,0.14682 0.36329,0.621207 0.0833,0.112453 0.32628,0.44043 0.0403,0.05434 0.0725,0.114192 0.10875,0.171286 0.0544,0.08156 0.10478,0.165918 0.16313,0.244687 0.27461,0.37071 -0.0461,-0.08108 0.21751,0.195755 0.0258,0.02702 0.0309,0.06885 0.0544,0.09788 0.0838,0.103746 0.1789,0.19798 0.27188,0.293619 0.20711,0.213024 0.47372,0.419274 0.65253,0.660654 0.0266,0.0359 0.0258,0.0881 0.0544,0.12235 0.028,0.0336 0.0803,0.0402 0.10875,0.0734 0.0637,0.0745 0.0994,0.17017 0.16314,0.24469 0.0284,0.0332 0.0827,0.0383 0.10876,0.0734 0.0311,0.0419 0.0197,0.10781 0.0544,0.14682 0.0775,0.0872 0.18838,0.1388 0.27189,0.22022 0.0267,0.0261 0.0257,0.0739 0.0544,0.0979 0.10068,0.0841 0.22238,0.14008 0.32628,0.22022 0.0864,0.0667 0.0993,0.19258 0.16311,0.26916 0.0971,0.11652 0.3595,0.22349 0.4894,0.29363 0.13257,0.0716 0.2462,0.17411 0.38065,0.24468 0.15332,0.0805 0.32726,0.15943 0.48939,0.22022 0.0532,0.0199 0.11136,0.0256 0.16314,0.0489 0.0399,0.0179 0.0689,0.0555 0.10874,0.0734 0.12154,0.0547 0.25631,0.0744 0.38065,0.12234 0.27548,0.10625 0.471,0.16424 0.76128,0.22022 0.25624,0.0494 0.50342,0.12777 0.76128,0.17128 0.25132,0.0424 0.50835,0.0571 0.76127,0.0734 0.14115,0.009 0.40543,0.10229 0.54379,0.0245 0.0325,-0.0183 0.0363,-0.0652 0.0544,-0.0979"
       id="path117478" />
    <path
       style="fill:none;fill-opacity:0;stroke:#000000;stroke-width:1;stroke-linecap:round;stroke-linejoin:round"
       d="m 108.72791,97.707719 c 0.19938,-0.24469 0.44485,-0.458158 0.59815,-0.734071 0.17741,-0.319328 0.25376,-0.68512 0.38064,-1.027681 0.13804,-0.372692 0.27348,-0.702868 0.38065,-1.076624 0.1419,-0.49484 0.15843,-0.700601 0.32626,-1.272379 0.0441,-0.150222 0.11919,-0.290171 0.16314,-0.440441 0.0469,-0.160388 0.0681,-0.327292 0.10874,-0.489373 0.24882,-0.991722 0.51511,-1.993702 1.03318,-2.887321 0.07,-0.120672 0.19819,-0.199658 0.27188,-0.318088 0.0551,-0.08862 0.0725,-0.195752 0.10875,-0.293629 0.12688,-0.179441 0.26417,-0.351957 0.38065,-0.538319 0.0473,-0.07569 0.067,-0.165796 0.10874,-0.244686 0.0491,-0.09273 0.11095,-0.178147 0.16314,-0.269153 0.191,-0.333036 0.3632,-0.695661 0.59814,-1.003215 0.43181,-0.565267 0.90718,-1.09151 1.35944,-1.639409 0.0775,-0.09394 0.13658,-0.202594 0.21751,-0.293632 0.10091,-0.113519 0.22306,-0.20665 0.32625,-0.318095 0.16891,-0.182412 0.32158,-0.37937 0.48941,-0.562777 0.36909,-0.403325 0.18273,-0.133419 0.54377,-0.562782 0.16806,-0.199863 0.32134,-0.411856 0.4894,-0.611719 0.0858,-0.102095 0.18648,-0.191156 0.27188,-0.293629 0.078,-0.09357 0.13787,-0.201465 0.21751,-0.293622 0.17444,-0.201845 0.36932,-0.385402 0.54377,-0.58725 0.0796,-0.09216 0.14301,-0.197258 0.21751,-0.29363 0.27388,-0.354317 0.56404,-0.700667 0.87004,-1.027692 0.39269,-0.419666 0.0876,-0.05558 0.7069,-0.636185 0.062,-0.05809 0.10343,-0.135324 0.16312,-0.195752 0.0857,-0.08675 0.18877,-0.155488 0.2719,-0.244687 0.145,-0.17128 0.29001,-0.342561 0.43501,-0.513842 0.0906,-0.08156 0.18859,-0.155654 0.2719,-0.244686 0.0624,-0.0667 0.0992,-0.154906 0.16312,-0.220221 0.13638,-0.139483 0.30541,-0.245695 0.43502,-0.391496 0.0544,-0.06119 0.0658,-0.150553 0.10876,-0.220221 0.048,-0.07773 0.11002,-0.145886 0.16312,-0.22022 0.11005,-0.154059 0.20858,-0.316617 0.32628,-0.464908 0.0641,-0.08081 0.15004,-0.142155 0.21751,-0.22022 0.0597,-0.06912 0.0965,-0.157742 0.16311,-0.220221 0.15241,-0.142877 0.3312,-0.255058 0.4894,-0.391496 0.11942,-0.102992 0.20906,-0.237074 0.32627,-0.342564 0.14102,-0.126913 0.29683,-0.237027 0.43501,-0.367032 0.0619,-0.05821 0.1,-0.138933 0.16313,-0.195752 0.065,-0.05852 0.15116,-0.08981 0.21751,-0.14681 0.1337,-0.114855 0.24695,-0.252177 0.38065,-0.367032 0.13271,-0.113999 0.29607,-0.187333 0.43502,-0.29363 0.2206,-0.168754 0.4396,-0.358658 0.65252,-0.538308 0.0932,-0.07863 0.17346,-0.17272 0.27188,-0.244686 0.12371,-0.09046 0.40351,-0.181565 0.54379,-0.244687 0.52176,-0.234786 1.07661,-0.444622 1.63131,-0.587251 1.1e-4,-2.6e-5 0.43489,-0.09785 0.435,-0.09788 9e-5,-1.6e-5 0.3262,-0.04892 0.32628,-0.04894 0.0412,-0.01482 0.0725,-0.04893 0.10875,-0.0734 0.0544,-0.01633 0.10875,-0.03263 0.16313,-0.04894"
       id="path117482" />
    <path
       style="fill:none;fill-opacity:0;stroke:#000000;stroke-width:1;stroke-linecap:round;stroke-linejoin:round"
       d="m 108.94543,99.591817 c 0.18125,0.277312 0.37101,0.549253 0.54376,0.831933 0.28308,0.46321 -0.26103,-0.25125 0.16314,0.34257 0.12012,0.16816 0.26275,0.31963 0.38063,0.48937 0.0639,0.092 0.10224,0.19967 0.16314,0.29362 0.0662,0.10221 0.15087,0.19167 0.21751,0.29363 0.17219,0.26345 0.30205,0.55457 0.48939,0.80747 0.065,0.0877 0.14804,0.16053 0.21751,0.24469 0.16623,0.20139 0.33113,0.40401 0.48939,0.61172 0.20576,0.27004 0.38481,0.56793 0.59816,0.83194 0.19908,0.24633 0.58237,0.47518 0.81565,0.68512 0.0586,0.0527 0.10876,0.11419 0.16314,0.17128 0.0906,0.10603 0.16821,0.22479 0.27189,0.3181 0.0796,0.0716 0.18413,0.10986 0.27188,0.17128 0.61352,0.48312 -0.16098,-0.10866 0.43502,0.29363 0.21486,0.14503 0.42548,0.33487 0.65253,0.4649 0.14103,0.0808 0.29335,0.14055 0.435,0.22022 0.0762,0.0429 0.13912,0.10801 0.21751,0.14681 0.1041,0.0515 0.22467,0.0661 0.32628,0.12235 0.13594,0.0753 0.24959,0.18562 0.38063,0.26915 0.29638,0.18894 0.21304,0.1012 0.48939,0.24469 0.16523,0.0858 0.32455,0.18262 0.4894,0.26916 0.52709,0.27671 -0.38491,-0.2347 0.43502,0.19574 0.23733,0.1246 0.46859,0.27087 0.7069,0.39151 0.1064,0.0539 0.22233,0.0884 0.32627,0.14681 0.0425,0.0239 0.0692,0.0694 0.10875,0.0979 0.20015,0.14411 0.43604,0.22891 0.65253,0.34256 0.0561,0.0295 0.10531,0.0719 0.16314,0.0979 0.21534,0.0969 0.43302,0.14261 0.65251,0.22021 0.20032,0.0708 0.39992,0.14376 0.59816,0.22022 0.2892,0.11154 0.57384,0.2248 0.87002,0.3181 0.19782,0.0623 0.40217,0.10344 0.59816,0.17128 0.0876,0.0303 0.55853,0.22743 0.70691,0.26916 0.0529,0.0149 0.10988,0.0108 0.16313,0.0245 0.42468,0.1092 0.8161,0.33775 1.25067,0.41597 0.12591,0.0227 0.25441,0.0283 0.38065,0.0489 0.3286,0.0538 0.64381,0.13006 0.97879,0.14681 0.2157,0.0108 0.37127,-0.0143 0.59814,-0.0245 0.2716,-0.0122 0.54437,-0.007 0.81567,-0.0245 0.36358,-0.0234 0.7246,-0.0951 1.08753,-0.12235 0.2347,-0.0176 0.4722,-0.0313 0.70691,-0.0489 0.0747,-0.006 0.43791,-0.004 0.48939,-0.0245 0.11776,-0.0471 0.21752,-0.13051 0.32628,-0.19576"
       id="path117484" />
    <path
       style="fill:none;fill-opacity:0;stroke:#000000;stroke-width:1;stroke-linecap:round;stroke-linejoin:round"
       d="m 66.531187,101.86741 c 0.308139,0.0326 0.61492,0.0828 0.924415,0.0979 0.846965,0.0412 1.000421,-0.0112 1.740065,-0.0245 1.365443,0 0.06418,0.009 1.359435,-0.0245 1.179888,-0.0303 2.355285,-0.0726 3.534522,-0.12235 1.2e-5,0 1.196273,-0.0489 1.196298,-0.0489 2.301379,-0.19417 0.33441,-0.0422 1.631319,-0.19575 0.180725,-0.0214 0.362511,-0.0326 0.543767,-0.0489 0.344393,-0.0408 0.689211,-0.0781 1.03318,-0.12234 0.616082,-0.0792 1.234952,-0.17708 1.84881,-0.26915 1.074452,-0.16117 2.134244,-0.40169 3.208265,-0.56279 0.7397,-0.11095 1.484845,-0.17767 2.229459,-0.24468 0.253765,-0.0245 0.507531,-0.0489 0.761296,-0.0734 0.108752,-0.0163 0.216795,-0.0384 0.326256,-0.0489 0.293071,-0.0283 1.064322,-0.0417 1.250671,-0.0489 0.59595,-0.0233 1.200863,-0.0551 1.794457,-0.0979 0.145545,-0.0105 0.289557,-0.03738 0.435021,-0.04893 0.669108,-0.05313 1.341488,-0.08685 2.011949,-0.122343 0.597987,-0.03166 1.19657,-0.03977 1.794457,-0.07341 0.509251,-0.02865 1.015473,-0.07345 1.522552,-0.122343 0.338445,-0.03264 0.768163,-0.03297 1.087554,-0.04894 0.542751,-0.02713 1.087409,-0.05709 1.631299,-0.07341 0.4884,-0.01466 0.979594,0 1.4682,0 0.306076,0 0.618796,-0.0172 0.924416,0 0.25423,0.01429 0.50575,0.03936 0.76128,0.04894 1.15921,0.04348 2.32176,-0.02447 3.48013,-0.02447"
       id="path117488" />
    <path
       style="fill:none;fill-opacity:0;stroke:#000000;stroke-width:1;stroke-linecap:round;stroke-linejoin:round"
       d="m 89.206498,75.490064 c -0.217511,0.02447 -0.434263,0.05703 -0.652532,0.0734 -0.343519,0.02577 -0.689063,0.0082 -1.03316,0.02447 -0.416994,0.01976 -0.834908,0.06044 -1.250691,0.09787 -0.311084,0.028 -0.614774,0.08752 -0.924395,0.122344 -0.07205,0.0081 -0.145058,-0.0027 -0.21751,0 -0.290544,0.0109 -0.579848,0.01445 -0.870042,0.02447 -0.163238,0.0057 -0.326059,0.02447 -0.489394,0.02447 -0.434584,0 -0.463415,-0.02252 -0.81567,-0.04895 -0.126876,-0.0081 -0.253752,-0.0163 -0.380628,-0.02447 -0.0725,0 -0.145098,0.0036 -0.217511,0 -0.311925,-0.01558 -0.354151,-0.04497 -0.706904,-0.09788 -0.07215,-0.01082 -0.146329,-0.0084 -0.217511,-0.02447 -0.183167,-0.04121 -0.361935,-0.100057 -0.543766,-0.146809 -4.5e-4,-1.19e-4 -0.434567,-0.09775 -0.435021,-0.09788 -0.201686,-0.05776 -0.395619,-0.14107 -0.598159,-0.195754 -0.107617,-0.02905 -0.2204,-0.03847 -0.326256,-0.0734 -0.166848,-0.05506 -0.324082,-0.136242 -0.489394,-0.195752 -0.106829,-0.03846 -0.219427,-0.05942 -0.326256,-0.09788 -0.07481,-0.02693 -0.142378,-0.07187 -0.21751,-0.09788 -0.160945,-0.05571 -0.330228,-0.08621 -0.489394,-0.146809 -0.07774,-0.0296 -0.143293,-0.08477 -0.217511,-0.122343 -0.306901,-0.155364 -0.615466,-0.314307 -0.924414,-0.464908 -0.196535,-0.0958 -0.410676,-0.156665 -0.598159,-0.269155 -0.05828,-0.03497 -0.104288,-0.08831 -0.163118,-0.122343 -0.06882,-0.03982 -0.145007,-0.06525 -0.217511,-0.09788 -0.126883,-0.07341 -0.254949,-0.144803 -0.380648,-0.220218 -0.07913,-0.04748 -0.137078,-0.126036 -0.217511,-0.171278 -0.103941,-0.05847 -0.222315,-0.08835 -0.326256,-0.146809 -0.09853,-0.05542 -0.133184,-0.149749 -0.21751,-0.220221 -0.793782,-0.571515 0.05227,0.0795 -0.380649,-0.342564 -0.09949,-0.097 -0.350354,-0.264517 -0.435021,-0.391506 -0.02895,-0.04342 -0.03127,-0.100021 -0.05437,-0.146812 -0.04957,-0.100388 -0.115672,-0.192207 -0.163119,-0.293619 -0.02539,-0.05426 -0.02706,-0.117983 -0.05439,-0.171288 -0.02779,-0.05419 -0.08129,-0.09245 -0.108745,-0.14681 -0.153235,-0.303392 -0.214969,-0.612613 -0.326276,-0.929814 -0.01478,-0.04211 -0.04625,-0.07846 -0.05437,-0.122344 -0.0104,-0.05614 0.009,-0.11489 0,-0.171278 -0.0094,-0.05916 -0.04197,-0.11268 -0.05437,-0.171286 -0.02394,-0.113112 -0.01939,-0.232367 -0.05437,-0.342564 -0.03827,-0.120546 -0.115005,-0.225605 -0.163138,-0.342564 -0.06544,-0.159012 -0.09611,-0.331025 -0.163138,-0.489373 -0.0493,-0.11647 -0.115737,-0.225303 -0.163118,-0.342564 -6.88e-4,-0.0019 -0.108094,-0.389763 -0.108765,-0.391499 -0.415414,-1.074933 0.02567,0.106665 -0.271883,-0.562782 -0.02433,-0.05474 -0.03004,-0.116541 -0.05437,-0.171278 -0.0484,-0.108892 -0.11474,-0.209203 -0.163138,-0.318098 -0.02433,-0.05474 -0.02862,-0.117202 -0.05437,-0.171286 -0.02908,-0.06106 -0.07714,-0.111498 -0.108766,-0.171278 -0.133336,-0.13704 -0.140739,-0.328207 -0.217491,-0.489373 -0.119892,-0.251756 -0.305095,-0.464039 -0.435021,-0.709594 -0.02801,-0.05295 -0.03102,-0.116123 -0.05437,-0.171286 -0.07836,-0.185126 -0.19458,-0.352748 -0.271903,-0.538308 -0.07815,-0.187531 -0.10874,-0.391504 -0.163118,-0.58725 -0.07043,-0.253535 -0.173724,-0.526841 -0.217511,-0.783006 -0.01374,-0.0804 0.0095,-0.163676 0,-0.244686 -0.0088,-0.0751 -0.03625,-0.146815 -0.05437,-0.220221 -0.01813,-0.1305 -0.04224,-0.260305 -0.05439,-0.391496 -0.006,-0.06497 0.0096,-0.131207 0,-0.195755 -0.0088,-0.05925 -0.03625,-0.114183 -0.05437,-0.171278 -0.01812,-0.09787 -0.04281,-0.194762 -0.05437,-0.293629 -0.03267,-0.279355 0,-0.602099 0,-0.880872 0,-0.45675 0,-0.913503 0,-1.370256 0,-0.183406 0.0169,-0.380231 0,-0.562783 -0.01215,-0.13119 -0.04271,-0.260263 -0.05437,-0.391497 -0.0065,-0.07312 0.01151,-0.147722 0,-0.220221 -0.03805,-0.2397 -0.112887,-0.472151 -0.163138,-0.709594 -0.09288,-0.438852 -0.164502,-0.88644 -0.271883,-1.321312 -0.474094,-1.919979 0.05755,0.280521 -0.271884,-0.905348 -0.0735,-0.264576 -0.08964,-0.542894 -0.163137,-0.807471 -0.02389,-0.086 -0.07776,-0.160987 -0.108765,-0.244687 -0.177481,-0.479164 -0.338454,-0.980154 -0.380629,-1.492599 -0.01806,-0.219475 0,-0.440434 0,-0.660651 0,-0.485411 -0.03377,-0.997861 0.108746,-1.468132 0.02806,-0.09261 0.07702,-0.177741 0.108764,-0.269153 0.05895,-0.169761 0.102484,-0.344676 0.163119,-0.513841 0.06023,-0.168043 0.153641,-0.32268 0.21751,-0.489375 0.165334,-0.199636 0.134286,-0.460436 0.217511,-0.685127 0.08531,-0.230321 0.23568,-0.432367 0.326275,-0.660661 0.03082,-0.07766 0.02671,-0.165847 0.05437,-0.244687 0.09986,-0.284616 0.367344,-0.755499 0.543766,-1.027691 0.08642,-0.133326 0.190307,-0.255157 0.271884,-0.391498 0.186797,-0.312197 0.278479,-0.70568 0.435021,-1.027691 0.04286,-0.08816 0.110591,-0.161933 0.163138,-0.244687 0.47132,-0.742267 -0.315056,0.412429 0.598139,-0.783005 0.06369,-0.08337 0.100689,-0.184853 0.163138,-0.269153 0.176832,-0.238707 0.386175,-0.452533 0.598159,-0.660651 0.06585,-0.06465 0.148914,-0.109551 0.21751,-0.171287 0.377914,-0.340121 -0.103682,-0.04012 0.598139,-0.513841 0.432415,-0.291874 1.318658,-0.596003 1.740065,-0.758538 1.188653,-0.458459 2.449735,-0.69859 3.697659,-0.929814 0.417685,-0.07739 0.832595,-0.169437 1.250671,-0.244687 6.35e-4,-1.17e-4 1.304412,-0.19564 1.305063,-0.195744 0.960068,-0.153294 1.914307,-0.315489 2.88199,-0.415974 0.144459,-0.015 0.290192,-0.0136 0.435021,-0.02447 0.833888,-0.06254 1.665461,-0.104434 2.501342,-0.122343 0.634255,-0.01359 1.268851,0.0079 1.903202,0 1.757668,-0.02197 3.518069,-0.08094 5.274587,-0.146811 0.869749,-0.03262 1.739937,-0.08156 2.610107,-0.09788 0.670536,-0.01257 1.34131,0 2.011966,0 0.924048,0 1.849408,-0.01094 2.773248,0 0.83835,0.0099 0.60393,0.03451 1.46818,0.0734 1.41063,0.06348 2.82876,0.113131 4.24142,0.122343 2.44827,0.01597 4.89307,-0.03026 7.34093,-0.04893 2.86451,-0.02184 5.7282,-0.01788 8.5916,-0.122344 2.12053,-0.07736 4.24033,-0.175807 6.36214,-0.22022 0.95868,-0.02007 1.92373,0 2.88199,0 1.08725,0 2.17548,-0.01529 3.26261,0 0.63528,-0.01757 1.26868,0.03836 1.90321,0.04894 0.97867,0.01632 1.95771,0.03059 2.93638,0.04893 0.88892,0.01667 1.77699,-0.02368 2.66448,0.04893 0.54568,0.04465 1.08482,0.117309 1.63132,0.14682 0.30814,0.01631 0.61628,0.03262 0.92441,0.04893 0.12688,0.0082 0.25369,0.01733 0.38063,0.02447 0.16308,0.0092 0.32734,0.004 0.4894,0.02447 0.54239,0.06834 1.08357,0.205778 1.63132,0.244697 0.21711,0.01543 0.43541,0.009 0.65253,0.02447 5.3e-4,3.3e-5 0.7608,0.09783 0.76127,0.09788 0.25349,0.02716 0.50843,0.04089 0.76128,0.0734 0.12817,0.01648 0.25235,0.05801 0.38065,0.07341 0.1442,0.0173 0.29069,0.0082 0.43502,0.02447 0.21856,0.02459 0.43411,0.07201 0.65253,0.09788 0.12626,0.01495 0.25444,0.009 0.38063,0.02447 0.0738,0.0091 0.14402,0.03791 0.21751,0.04893 0.2884,0.04326 0.58101,0.05886 0.87004,0.09788 0.56136,0.07579 1.12351,0.151232 1.68569,0.220221 0.41541,0.05098 0.83564,0.07141 1.25067,0.122343 0.59752,0.07333 1.2026,0.188498 1.79446,0.29363 0.59811,0.106241 1.19929,0.196358 1.79444,0.318088 0.20114,0.04114 0.39786,0.101754 0.59816,0.14682 0.89307,0.200935 1.13554,0.23574 1.9032,0.415964 0.75898,0.178186 0.77276,0.199622 1.68569,0.44044 0.55823,0.147251 1.12291,0.289344 1.68569,0.415964 0.12607,0.02837 0.25658,0.03728 0.38065,0.07341 0.18496,0.05385 0.35832,0.143597 0.54377,0.195753 0.10586,0.02977 0.21897,0.02479 0.32626,0.04893 0.0746,0.0168 0.145,0.04894 0.21751,0.07341 0.0906,0.02447 0.1803,0.0528 0.27188,0.0734 0.30729,0.06913 0.62507,0.09778 0.92441,0.195753 0.0944,0.03091 0.17942,0.08593 0.27189,0.122344 0.1977,0.07784 0.39893,0.146391 0.59816,0.22022 0.55632,0.20616 1.11463,0.413697 1.63132,0.709594 0.44272,0.25354 0.24639,0.195466 0.81565,0.611718 0.10238,0.07486 0.22963,0.113613 0.32627,0.195754 0.0696,0.05916 0.0989,0.155226 0.16312,0.22022 0.15422,0.156147 0.34084,0.278894 0.48939,0.440441 0.071,0.07722 0.10069,0.184853 0.16314,0.269153 0.065,0.08769 0.14718,0.161248 0.21751,0.244687 0.78946,0.936536 0.10137,0.121091 0.54377,0.685128 0.0524,0.06683 0.12188,0.121496 0.16314,0.195744 0.29211,0.525772 0.13667,0.356468 0.32625,0.783004 0.20099,0.452201 0.48563,0.856302 0.59816,1.345779 0.0874,0.380222 0.13288,0.769184 0.21751,1.150035 0.30335,1.160385 -0.0592,-0.293136 0.16312,0.807471 0.0465,0.230111 0.12633,0.45327 0.16314,0.685127 0.0179,0.112776 -0.009,0.228734 0,0.342564 0.009,0.115255 0.0484,0.227101 0.0544,0.342564 0.0122,0.236216 0,0.473063 0,0.709595 0,0.122343 0.009,0.245021 0,0.36703 -0.009,0.123341 -0.0366,0.24463 -0.0544,0.367031 -0.0366,0.25279 -0.0593,0.507949 -0.10875,0.758537 -0.0232,0.117531 -0.0736,0.228012 -0.10876,0.342554 -0.0374,0.122001 -0.0725,0.244694 -0.10875,0.36704 -0.0725,0.228373 -0.14654,0.456264 -0.21751,0.685118 -0.0378,0.121877 -0.0617,0.248426 -0.10876,0.367031 -0.044,0.110758 -0.10791,0.2125 -0.16312,0.318097 -0.0898,0.171724 -0.17309,0.347144 -0.27189,0.513851 -0.0466,0.07859 -0.11515,0.142478 -0.16313,0.22021 -0.043,0.06967 -0.0637,0.151841 -0.10877,0.22022 -0.17211,0.261377 -0.4193,0.602974 -0.65251,0.831939 -0.13921,0.136673 -0.29534,0.25532 -0.43502,0.391506 -0.15196,0.148156 -0.29258,0.307581 -0.43502,0.464907 -0.12248,0.135277 -0.41744,0.506138 -0.59816,0.660652 -0.10333,0.08834 -0.22195,0.157514 -0.32626,0.244686 -0.14969,0.125098 -0.2824,0.27 -0.43502,0.391507 -0.0838,0.06672 -0.18619,0.107013 -0.27188,0.171278 -0.078,0.05852 -0.13908,0.137769 -0.21751,0.195752 -0.17585,0.129998 -0.36522,0.240776 -0.54377,0.367033 -0.0753,0.05328 -0.14014,0.120983 -0.21751,0.171275 -0.0864,0.05613 -0.18651,0.0892 -0.27188,0.14682 -0.26791,0.180832 -0.4831,0.423561 -0.76128,0.587251 -0.53048,0.31216 -1.07665,0.616595 -1.63132,0.880872 -0.15861,0.07557 -0.33146,0.118766 -0.48939,0.195754 -0.14955,0.0729 -0.28707,0.168601 -0.43503,0.244687 -0.10605,0.05454 -0.21921,0.09426 -0.32627,0.146809 -0.0925,0.04539 -0.18125,0.09788 -0.27188,0.146812 -0.16313,0.08156 -0.32527,0.165151 -0.4894,0.244687 -0.29787,0.144346 -0.6184,0.241856 -0.92441,0.367041 -0.3459,0.141499 -0.67778,0.324135 -1.03316,0.44043 -0.14316,0.04685 -0.29398,0.06945 -0.43502,0.122344 -0.0779,0.02921 -0.14028,0.09145 -0.21751,0.122343 -0.0872,0.03486 -0.18527,0.03722 -0.27189,0.07341 -0.16828,0.07032 -0.31922,0.179054 -0.48939,0.244686 -0.0859,0.03314 -0.18391,0.02172 -0.27188,0.04895 -0.20298,0.06279 -0.39993,0.143751 -0.59816,0.220211 -0.56358,0.217371 -1.16521,0.34432 -1.74007,0.538315 -0.35928,0.121251 -0.71864,0.296641 -1.08753,0.391499 -0.0533,0.01371 -0.10876,0.01632 -0.16314,0.02447 -0.0906,0.02447 -0.18197,0.04643 -0.27188,0.0734 -0.29084,0.08725 -0.57291,0.2023 -0.87004,0.269152 -0.33997,0.07649 -0.6872,0.151276 -1.03316,0.195755 -0.12611,0.01622 -0.25491,0.0056 -0.38065,0.02447 -0.0562,0.0084 -0.10739,0.03819 -0.16314,0.04894 -0.14439,0.02785 -0.28915,0.05465 -0.435,0.0734 -0.17973,0.0231 -0.36308,0.0141 -0.54379,0.04894 -0.0557,0.01074 -0.10773,0.03648 -0.16312,0.04894 -0.0413,0.0093 -0.6444,0.07585 -0.65253,0.07341 -0.0234,-0.007 0,-0.04894 0,-0.07341 0,-0.12559 0.008,-0.05046 -0.0544,-0.220221"
       id="path117490" />
    <path
       style="fill:none;fill-opacity:0;stroke:#000000;stroke-width:1;stroke-linecap:round;stroke-linejoin:round"
       d="m 99.275784,75.508209 c 0.06344,0.110112 0.0765,0.273817 0.190325,0.330332 0.08984,0.04461 0.799771,0.0734 0.978791,0.0734 0.44193,0 0.7878,-0.04146 1.25068,-0.09788 0.15485,-0.01887 0.30979,-0.04015 0.4622,-0.07341 0.14717,-0.03211 0.28946,-0.08358 0.43502,-0.122343 0.29854,-0.07951 0.60028,-0.147164 0.89722,-0.232455 0.12935,-0.03715 0.25376,-0.08971 0.38064,-0.134575 0.48825,-0.172625 0.4815,-0.162738 1.06036,-0.415976 0.10174,-0.04451 0.19855,-0.09961 0.29908,-0.146809 0.88201,-0.41415 -0.42691,0.229867 0.89722,-0.440439 0.21981,-0.111275 0.3743,-0.167415 0.57096,-0.318095 0.25078,-0.19214 0.4932,-0.395081 0.73409,-0.599482 0.27821,-0.236072 0.23927,-0.249598 0.48939,-0.587251 0.0434,-0.05857 0.0996,-0.108125 0.13595,-0.171283 0.028,-0.04855 0.0321,-0.107643 0.0544,-0.159049 0.0957,-0.220647 0.2458,-0.445408 0.29907,-0.685125 0.17239,-0.775714 0.008,-0.03813 0.0544,-0.452671 0.004,-0.03757 0.0216,-0.07271 0.0272,-0.110111 0.0179,-0.12051 0.0199,-0.279684 0.0544,-0.403736 0.0371,-0.133485 0.1384,-0.321413 0.19031,-0.428202 0.12488,-0.256881 0.10876,-0.471239 0.10876,-0.746299 0,-0.117526 -0.01,0.014 0.0272,-0.08564 0.004,-0.01148 0.0121,-0.03852 0,-0.0367 -0.0314,0.0047 -0.0532,0.03476 -0.0816,0.04894 -0.0533,0.02667 -0.10876,0.04894 -0.16314,0.0734"
       id="path118327" />
    <path
       style="fill:none;fill-opacity:0;stroke:#000000;stroke-width:1;stroke-linecap:round;stroke-linejoin:round"
       d="m 97.807603,62.919022 c 0.549642,-0.07916 1.105199,-0.06117 1.658506,-0.06117 0.149347,0 0.370165,-0.0037 0.51658,0.01225 0.848791,0.09219 0.217801,0.0395 0.788471,0.122343 0.39797,0.05777 0.80044,0.09794 1.1963,0.171281 0.20011,0.03708 0.39776,0.08682 0.59815,0.122343 0.65437,0.115996 -0.0697,-0.05035 0.62533,0.08564 0.10075,0.01971 0.19909,0.05018 0.29908,0.0734 0.18098,0.04203 0.36312,0.07899 0.54378,0.122345 0.2197,0.05273 0.46804,0.133631 0.67971,0.19575 0.0723,0.02122 0.14724,0.03407 0.21751,0.06117 0.0573,0.02209 0.10591,0.06333 0.16313,0.08564 0.0793,0.03094 0.16525,0.04276 0.2447,0.07341 0.11127,0.04292 0.21751,0.09787 0.32626,0.146812 0.31135,0.1401 0.62117,0.284494 0.92442,0.440439 0.12526,0.06442 0.25787,0.114461 0.38063,0.183515 0.12546,0.07057 0.292,0.180946 0.40784,0.269155 0.18927,0.144135 0.29014,0.302321 0.46221,0.464908 0.0335,0.03169 0.0755,0.05361 0.10875,0.08564 0.0451,0.04349 0.20899,0.266067 0.2175,0.281389 0.0184,0.03305 0.0161,0.07399 0.0272,0.110109 0.0575,0.18618 0.11566,0.381376 0.19031,0.562782 0.0269,0.06537 0.0519,0.131604 0.0816,0.195752 0.0612,0.13212 0.15395,0.247685 0.21751,0.379265 0.0277,0.0574 0.0947,0.242718 0.10876,0.305858 0.003,0.01193 -0.004,0.02524 0,0.03671 0.005,0.01429 0.0204,0.02304 0.0272,0.0367 0.0329,0.06653 0.0272,0.06118 0.0272,0.122343"
       id="path118333" />
    <path
       style="fill:none;fill-opacity:0;stroke:#000000;stroke-width:1;stroke-linecap:round;stroke-linejoin:round"
       d="m 170.94497,92.195921 c 0.76119,0.01289 1.52462,-0.03398 2.28383,0.0367 0.1334,0.01241 0.38947,0.06445 0.51659,0.08564 0.15388,0.02564 0.30942,0.0419 0.4622,0.07341 0.0653,0.01347 0.12611,0.04339 0.19034,0.06117 0.0537,0.01487 0.1095,0.02146 0.16311,0.0367 0.1187,0.03374 0.23432,0.07795 0.35346,0.110112 0.0624,0.01683 0.12729,0.02252 0.19033,0.0367 0.24459,0.05503 0.49472,0.108945 0.73408,0.183515 0.0931,0.02902 0.3395,0.13489 0.40783,0.159049 0.0443,0.01564 0.0916,0.02119 0.13594,0.0367 0.27415,0.09594 0.57002,0.305293 0.81567,0.452671 0.0442,0.02649 0.0929,0.04511 0.13594,0.07341 0.11358,0.0747 0.21228,0.170604 0.32626,0.24469 0.0432,0.02806 0.0925,0.04572 0.13594,0.0734 0.0942,0.06003 0.18889,0.121042 0.2719,0.195749 0.0203,0.01826 0.0327,0.0446 0.0544,0.06117 0.23184,0.156485 0.16141,0.101211 0.32626,0.232455 0.0817,0.06506 0.16413,0.129281 0.2447,0.195752 0.0282,0.02328 0.0512,0.05294 0.0816,0.07341 0.0427,0.02881 0.0929,0.0452 0.13595,0.0734 0.0853,0.05584 0.15643,0.132464 0.24468,0.183518 0.3506,0.202822 -0.2367,-0.197924 0.27189,0.183515 0.0254,0.01902 0.059,0.02663 0.0816,0.04894 0.024,0.02379 0.0323,0.06006 0.0544,0.08564 0.0417,0.04824 0.0915,0.08886 0.13594,0.134578 0.019,0.01955 0.0326,0.0448 0.0544,0.06117 0.25783,0.193357 -0.0724,-0.141245 0.27188,0.22022 0.10985,0.11533 0.17729,0.251569 0.27189,0.379265 0.0235,0.03168 0.0591,0.05326 0.0816,0.08564 0.0233,0.03362 0.03,0.07722 0.0544,0.110109 0.0397,0.05359 0.0923,0.09635 0.13594,0.146812 0.0736,0.08517 0.12316,0.190698 0.19031,0.281392"
       id="path118335" />
    <path
       style="fill:none;fill-opacity:0;stroke:#000000;stroke-width:1;stroke-linecap:round;stroke-linejoin:round"
       d="m 171.21686,105.33566 c 0.13594,0.0163 0.27155,0.0356 0.40782,0.0489 0.32505,0.0318 0.6529,0.0163 0.97879,0.0245 0.47188,0.0118 0.94521,0.0277 1.41381,-0.0489 0.1871,-0.0306 0.78333,-0.17184 0.87004,-0.19576 0.0928,-0.0256 0.18018,-0.0684 0.27188,-0.0979 0.0987,-0.0317 0.20125,-0.0512 0.29908,-0.0856 0.87896,-0.30901 1.71521,-0.72499 2.50134,-1.22345 0.0574,-0.0364 0.10641,-0.0849 0.16314,-0.12234 0.62088,-0.40976 -0.22987,0.20709 0.62534,-0.41597 0.0524,-0.0382 0.29896,-0.22929 0.35345,-0.28139 0.0943,-0.0901 0.17762,-0.19125 0.27188,-0.28139 0.1019,-0.0974 0.22292,-0.17325 0.32626,-0.26915 0.0935,-0.0868 0.183,-0.17773 0.2719,-0.26916 0.038,-0.0391 0.0682,-0.0859 0.10875,-0.12235 0.0415,-0.0374 0.091,-0.0647 0.13594,-0.0979 0.082,-0.0606 0.16359,-0.12174 0.2447,-0.18351 0.17267,-0.13149 0.35165,-0.24879 0.51657,-0.39151 0.13157,-0.11385 0.0815,-0.0923 0.19034,-0.20798 0.0707,-0.0752 0.14364,-0.14819 0.21751,-0.22022 0.0679,-0.0662 0.15158,-0.1153 0.21749,-0.18352 0.0646,-0.0668 0.26369,-0.29494 0.32628,-0.3915 0.0406,-0.0626 0.0681,-0.13311 0.10874,-0.19575 0.15622,-0.241018 0.0166,0.0313 0.13594,-0.183516 0.038,-0.06839 0.0686,-0.140846 0.10877,-0.207981 0.0234,-0.0392 0.0562,-0.0721 0.0816,-0.110109 0.0823,-0.123529 0.15619,-0.273672 0.21751,-0.403736 0.0206,-0.04376 0.0284,-0.09373 0.0544,-0.134577 0.11783,-0.185568 0.27573,-0.340678 0.35345,-0.550551 0.0238,-0.06432 0.037,-0.182274 0.0544,-0.244686 0.0226,-0.0814 0.0494,-0.06486 0.0816,-0.159044 0.007,-0.01929 -0.005,-0.04138 0,-0.06117 0.006,-0.02328 0.0568,-0.09788 0.0816,-0.09788 0.0163,0 0,0.03263 0,0.04894"
       id="path118337" />
  </g>
</svg>
