<?xml version="1.0" encoding="UTF-8" standalone="no"?>
<!-- Created with Inkscape (http://www.inkscape.org/) -->

<svg
   width="132.66243mm"
   height="80.352081mm"
   viewBox="0 0 132.66243 80.352085"
   version="1.1"
   id="svg5"
   sodipodi:docname="acc-5.svg"
   inkscape:version="1.2.2 (b0a8486541, 2022-12-01)"
   xmlns:inkscape="http://www.inkscape.org/namespaces/inkscape"
   xmlns:sodipodi="http://sodipodi.sourceforge.net/DTD/sodipodi-0.dtd"
   xmlns="http://www.w3.org/2000/svg"
   xmlns:svg="http://www.w3.org/2000/svg">
  <sodipodi:namedview
     id="namedview7"
     pagecolor="#ffffff"
     bordercolor="#666666"
     borderopacity="1.0"
     inkscape:showpageshadow="2"
     inkscape:pageopacity="0.0"
     inkscape:pagecheckerboard="0"
     inkscape:deskcolor="#d1d1d1"
     inkscape:document-units="mm"
     showgrid="false"
     inkscape:zoom="1.6388654"
     inkscape:cx="2.4407129"
     inkscape:cy="151.3242"
     inkscape:window-width="2560"
     inkscape:window-height="1372"
     inkscape:window-x="0"
     inkscape:window-y="32"
     inkscape:window-maximized="1"
     inkscape:current-layer="layer1"
     showguides="true" />
  <defs
     id="defs2" />
  <g
     inkscape:label="Layer 1"
     inkscape:groupmode="layer"
     id="layer1"
     transform="translate(-65.470752,-32.844491)">
    <path
       style="fill:none;fill-opacity:1;fill-rule:nonzero;stroke:#000000;stroke-width:1;stroke-linecap:round;stroke-linejoin:round"
       d="m 154.37084,50.484722 c -0.30084,-0.105718 -0.61635,-0.03189 -0.92281,-0.07786 -0.019,-0.0029 0.0385,-9.53e-4 0.0577,0 0.0659,0.0033 0.2665,0.02216 0.3076,0.02595 0.74442,0.06871 0.42446,0.04829 1.24964,0.08651 1.67181,0.07744 3.34488,0.06347 5.01779,0.08651 0.38537,0.0053 0.50593,0.01658 0.86514,0 0.12832,-0.0059 0.2564,-0.01635 0.3845,-0.02595 0.0257,-0.0019 0.0923,0.01208 0.0769,-0.0086 -0.0194,-0.02616 -0.0636,-0.01913 -0.0961,-0.0173 -0.0713,0.004 -0.14099,0.02307 -0.21148,0.0346"
       id="path44329" />
    <path
       style="fill:#ddf1fb;fill-opacity:1;fill-rule:nonzero;stroke:#000000;stroke-width:1;stroke-linecap:round;stroke-linejoin:round"
       d="m 129.92811,62.433277 c 0.0385,0.07786 0.0628,0.164449 0.11536,0.233577 0.0333,0.04374 0.0882,0.06563 0.13457,0.09516 0.10755,0.06856 0.21979,0.129617 0.32683,0.198975 0.0533,0.03454 0.10213,0.07553 0.15381,0.112461 0.0573,0.04094 0.11822,0.07693 0.17302,0.121115 0.0992,0.07997 0.18919,0.170911 0.28838,0.250878 0.0548,0.04419 0.11847,0.07662 0.17303,0.121116 0.0483,0.03939 0.0906,0.08565 0.13458,0.129765 0.097,0.0972 0.19528,0.193209 0.28837,0.294135 0.096,0.104095 0.18037,0.2184 0.26916,0.328739 0.0902,0.112085 0.18352,0.221787 0.26915,0.337391 0.0363,0.04901 0.0625,0.104823 0.0961,0.155718 0.22332,0.338016 0.0169,-0.02125 0.32683,0.501759 0.0349,0.05894 0.0628,0.121782 0.0961,0.181671 0.0308,0.05548 0.0722,0.10559 0.0961,0.164369 0.0469,0.115136 0.0728,0.237877 0.11535,0.354692 0.0216,0.0593 0.0545,0.114011 0.0769,0.17302 0.0225,0.0594 0.0368,0.121652 0.0577,0.181672 0.0433,0.124567 0.0952,0.246134 0.13458,0.371994 0.0472,0.150986 0.0347,0.20214 0.0577,0.354692 0.0192,0.112463 0.0384,0.224926 0.0577,0.33739 0.0128,0.05479 0.029,0.108905 0.0385,0.164369 0.01,0.0572 0.0115,0.115511 0.0192,0.17302 0.0179,0.132835 0.0408,0.26498 0.0577,0.397947 0.009,0.06895 0.01,0.138755 0.0192,0.207624 0.01,0.07255 0.0285,0.143729 0.0384,0.216277 0.0157,0.114986 0.0252,0.230743 0.0385,0.346041 0.0116,0.101073 0.0293,0.201462 0.0385,0.302785 0.008,0.09212 0.0103,0.184761 0.0192,0.276832 0.004,0.04069 0.0161,0.08036 0.0192,0.121115 0.003,0.04313 0,0.08651 0,0.129765 0,0.123998 0.009,0.248334 0,0.371994 -0.003,0.04361 -0.0151,0.08623 -0.0192,0.129766 -0.009,0.09209 -0.0103,0.184762 -0.0192,0.276832 -0.0194,0.200818 -0.0169,0.04376 -0.0577,0.25953 -0.0375,0.198371 -0.0184,0.243321 -0.0769,0.406599 -0.016,0.04456 -0.0384,0.08651 -0.0577,0.129765 -0.032,0.08363 -0.0663,0.166446 -0.0961,0.250879 -3e-5,1.08e-4 -0.0769,0.259425 -0.0769,0.259532 -0.24605,0.608933 -0.0216,0.02261 -0.17303,0.363342 -0.015,0.03372 -0.0225,0.07055 -0.0384,0.103812 -0.0693,0.144166 -0.15531,0.275299 -0.23071,0.415249 -0.0487,0.09033 -0.0847,0.187143 -0.13457,0.276834 -0.0505,0.09089 -0.11666,0.172163 -0.17303,0.25953 -0.0201,0.03117 -0.0364,0.0648 -0.0577,0.09516 -0.0173,0.02458 -0.0412,0.04413 -0.0577,0.06921 -0.0349,0.05301 -0.0621,0.110787 -0.0961,0.16437 -0.0173,0.02727 -0.0414,0.04998 -0.0577,0.07786 -0.0159,0.02724 -0.0215,0.05987 -0.0384,0.08651 -0.0519,0.0818 -0.11322,0.157336 -0.17302,0.233577 -0.08,0.101986 -0.0772,0.08337 -0.19225,0.207624 -0.0841,0.09085 -0.15955,0.191798 -0.24993,0.276834 -0.0225,0.02119 -0.0526,0.03277 -0.0769,0.05191 -0.0813,0.06401 -0.15006,0.14282 -0.23071,0.207624 -0.0362,0.02906 -0.0809,0.04683 -0.11535,0.07786 -0.024,0.02161 -0.0385,0.05191 -0.0577,0.07786 -0.0897,0.06344 -0.17895,0.127585 -0.26916,0.190321 -0.20381,0.141737 -0.40291,0.266025 -0.61521,0.397948 -0.0612,0.03805 -0.088,0.06556 -0.1538,0.09516 -0.0183,0.0082 -0.076,0.0091 -0.0577,0.0173 0.0292,0.01315 0.0642,-0.0029 0.0961,0 0.12211,0.01099 0.24321,0.03169 0.36527,0.04326 0.30199,0.02861 0.60173,0.07362 0.90359,0.10381 0.36486,0.03649 0.72937,0.04325 1.09584,0.04325 0.44662,0 0.92071,-0.0092 1.36499,-0.06921 0.1996,-0.02694 0.57916,-0.08337 0.80746,-0.129765 0.29364,-0.05967 0.62144,-0.150035 0.90359,-0.216275 0.23931,-0.05618 0.33556,-0.06746 0.57676,-0.112464 0.23262,-0.0434 0.52563,-0.10013 0.76901,-0.147065 0.281,-0.05419 0.53884,-0.104512 0.82668,-0.15572 0.34666,-0.06167 0.69243,-0.112071 1.03816,-0.18167 0.35462,-0.07139 0.70466,-0.162866 1.0574,-0.242229 0.0574,-0.01291 0.11575,-0.0212 0.17302,-0.0346 0.10299,-0.0241 0.20442,-0.05464 0.30761,-0.07786 0.279,-0.06277 0.56505,-0.09503 0.84591,-0.147066 0.59865,-0.110919 1.19725,-0.241629 1.78795,-0.389296 0.41937,-0.10484 0.83138,-0.237079 1.24964,-0.346042 0.42566,-0.110894 -0.01,0.01701 0.6152,-0.164369 0.36871,-0.107039 0.0214,-0.01279 0.36529,-0.121115 0.13401,-0.04221 0.2703,-0.07709 0.40372,-0.121115 0.0181,-0.006 0.35932,-0.144846 0.36529,-0.147067 0.12109,-0.04509 0.24242,-0.08973 0.36527,-0.129765 0.0631,-0.02057 0.12868,-0.03283 0.19225,-0.0519 0.14879,-0.04463 0.29547,-0.09605 0.44219,-0.147069 0.0842,-0.02928 0.16617,-0.06465 0.24993,-0.09516 0.29604,-0.107841 0.59255,-0.20937 0.88436,-0.328739 0.0455,-0.01862 0.0888,-0.04254 0.13458,-0.06056 0.22079,-0.08693 0.45208,-0.146641 0.67288,-0.233577 0.0458,-0.01802 0.0885,-0.04342 0.13457,-0.06056 0.15304,-0.05689 0.30807,-0.108306 0.46141,-0.16437 0.0508,-0.01858 0.10376,-0.03134 0.1538,-0.05191 0.0975,-0.04006 0.19156,-0.08809 0.28838,-0.129767 0.255,-0.109757 0.51871,-0.198794 0.76901,-0.320087 0.20398,-0.09885 0.39734,-0.219921 0.59598,-0.328739 0.07,-0.03836 0.14432,-0.06929 0.21148,-0.112462 0.0234,-0.01507 0.0348,-0.04457 0.0577,-0.06056 0.0356,-0.0249 0.0786,-0.03741 0.11535,-0.06056 0.20469,-0.128949 0.39182,-0.285547 0.59598,-0.415249 0.0367,-0.02329 0.0789,-0.03689 0.11535,-0.06056 0.0217,-0.01409 0.0359,-0.03792 0.0577,-0.0519 0.0683,-0.04393 0.14368,-0.07637 0.21148,-0.121115 0.0288,-0.019 0.0489,-0.04906 0.0769,-0.06921 0.0364,-0.0262 0.078,-0.04446 0.11535,-0.06921 0.0716,-0.04738 0.14031,-0.09903 0.21147,-0.147067 0.0314,-0.02119 0.0641,-0.04037 0.0961,-0.06056 0.0385,-0.02018 0.0791,-0.0367 0.11534,-0.06056 0.27892,-0.183435 0.0354,-0.03199 0.19226,-0.164369 0.0302,-0.02546 0.0641,-0.04614 0.0961,-0.06921 0.0449,-0.04326 0.0883,-0.08808 0.13458,-0.129765 0.16873,-0.151845 -0.0142,0.02609 0.1538,-0.112464 0.0532,-0.04389 0.10158,-0.09337 0.15381,-0.138415 0.13182,-0.113689 0.2787,-0.204974 0.40372,-0.328739 0.0533,-0.05273 0.0769,-0.05026 0.0769,-0.121115 0,-0.01154 0.006,-0.02468 0,-0.0346 -0.11135,-0.187891 -0.36931,-0.346747 -0.5383,-0.467154 -0.21443,-0.15278 -0.0416,-0.05447 -0.38451,-0.25088 -0.0499,-0.02856 -0.10324,-0.05056 -0.1538,-0.07786 -0.0456,-0.02463 -0.0883,-0.05445 -0.13458,-0.07786 -0.10766,-0.0545 -0.21926,-0.101004 -0.32683,-0.155717 -0.04,-0.02033 -0.0769,-0.04614 -0.11534,-0.06921 -0.0577,-0.02595 -0.11618,-0.05014 -0.17303,-0.07786 -0.097,-0.04728 -0.19139,-0.09978 -0.28838,-0.147067 -0.0568,-0.02771 -0.11725,-0.04805 -0.17303,-0.07786 -0.047,-0.02513 -0.0885,-0.05971 -0.13457,-0.08651 -0.15862,-0.09219 -0.31654,-0.186137 -0.48064,-0.268182 -0.0628,-0.03143 -0.12892,-0.05605 -0.19225,-0.08651 -0.12255,-0.05895 -0.24273,-0.122724 -0.36528,-0.181672 -0.15364,-0.0739 -0.24434,-0.107442 -0.40373,-0.17302 -0.48369,-0.198996 -0.96968,-0.391666 -1.46112,-0.57097 -0.0762,-0.02782 -0.15463,-0.04958 -0.2307,-0.07786 -0.0714,-0.02654 -0.13995,-0.06036 -0.21148,-0.08651 -0.191,-0.06983 -0.38633,-0.127564 -0.57676,-0.198972 -0.17449,-0.06543 -0.34698,-0.136139 -0.51908,-0.207624 -0.20048,-0.08328 -0.39064,-0.176959 -0.59598,-0.250881 -0.0632,-0.02275 -0.12884,-0.03836 -0.19226,-0.06056 -0.23141,-0.08099 -0.45912,-0.17363 -0.6921,-0.25088 -0.27785,-0.09213 -0.24614,-0.06933 -0.61521,-0.181671 -0.15529,-0.04727 -0.30593,-0.109077 -0.46141,-0.155721 -0.33808,-0.10142 -0.67741,-0.189605 -1.01894,-0.276831 -0.15406,-0.03935 -0.30669,-0.08437 -0.4614,-0.121115 -0.0761,-0.01807 -0.1538,-0.02884 -0.2307,-0.04325 -0.0769,-0.0173 -0.15403,-0.03364 -0.23071,-0.05191 -0.36477,-0.0869 -0.35448,-0.09134 -0.65366,-0.155721 -0.22104,-0.04757 -0.40382,-0.07788 -0.63443,-0.129765 -0.12952,-0.02914 -0.25479,-0.07557 -0.38451,-0.103812 -0.13391,-0.02916 -0.26942,-0.05056 -0.40373,-0.07786 -0.0644,-0.01307 -0.1277,-0.0311 -0.19225,-0.04325 -0.21106,-0.03976 -0.4227,-0.07647 -0.63443,-0.112464 -0.14667,-0.02492 -0.29562,-0.03503 -0.44218,-0.06056 -0.0986,-0.01717 -0.39252,-0.07774 -0.53831,-0.112464 -0.0578,-0.01378 -0.11455,-0.03254 -0.17302,-0.04325 -0.11473,-0.02104 -0.23089,-0.0334 -0.34606,-0.05191 -0.4311,-0.06928 0.035,7.7e-5 -0.36528,-0.06921 -0.16533,-0.03409 -0.33358,-0.0498 -0.49986,-0.07786 -0.21118,-0.03564 -0.42174,-0.07723 -0.63443,-0.103815 -0.47549,-0.05943 0.24064,0.04763 -0.48063,-0.06056 -0.23135,-0.0347 -0.46033,-0.09044 -0.69211,-0.121116 -0.24248,-0.03209 -0.48761,-0.04749 -0.73056,-0.07786 -0.21716,-0.02714 -0.43563,-0.05081 -0.65366,-0.06921 -0.1535,-0.01296 -0.30783,-0.01394 -0.4614,-0.02596 -0.0451,-0.0035 -0.0896,-0.01297 -0.13458,-0.0173 -0.16608,-0.01601 -0.33342,-0.02212 -0.49986,-0.0346 -0.1536,-0.01151 -0.3075,-0.02883 -0.4614,-0.0346 -0.1664,-0.0062 -0.3335,-0.0024 -0.49986,-0.0087 -0.17953,-0.0067 -0.35883,-0.0186 -0.53831,-0.02596 -0.1724,-0.0071 -0.34642,0 -0.51908,0 -0.28153,0 -0.56446,-0.0063 -0.84591,0 -0.0322,7.94e-4 -0.064,0.0075 -0.0961,0.0087 -0.0512,0.0019 -0.10255,-0.0013 -0.1538,0 -0.21107,0.0059 -0.42462,0.0283 -0.63443,0.05191 -0.096,0.0108 -0.0511,0.0087 -0.13458,0.0087 -0.0192,0 -0.0577,-0.01923 -0.0577,0 0,0.01924 0.0444,-0.01392 0.0577,0 0.0139,0.01463 0,0.04037 0,0.06056"
       id="path44370-7" />
    <path
       style="fill:none;fill-opacity:1;fill-rule:nonzero;stroke:#000000;stroke-width:1;stroke-linecap:round;stroke-linejoin:round"
       d="m 154.92094,68.402481 c -0.30084,-0.105718 -0.61635,-0.03189 -0.92281,-0.07786 -0.019,-0.0029 0.0385,-9.53e-4 0.0577,0 0.0659,0.0033 0.2665,0.02216 0.3076,0.02595 0.74442,0.06871 0.42446,0.04829 1.24964,0.08651 1.67181,0.07744 3.34488,0.06347 5.01779,0.08651 0.38537,0.0053 0.50593,0.01658 0.86514,0 0.12832,-0.0059 0.2564,-0.01635 0.3845,-0.02595 0.0257,-0.0019 0.0923,0.01208 0.0769,-0.0086 -0.0194,-0.02616 -0.0636,-0.01913 -0.0961,-0.0173 -0.0713,0.004 -0.14099,0.02307 -0.21148,0.0346"
       id="path44329-5" />
    <path
       style="fill:none;stroke:#000000;stroke-width:1;stroke-linecap:round;stroke-linejoin:round"
       d="m 127.62716,63.011275 c 0.56046,0.975171 0.0915,0.214521 0.40373,0.648826 0.1874,0.260639 0.004,0.06556 0.30761,0.415249 0.0409,0.04702 0.0913,0.08488 0.13457,0.129767 0.12638,0.131235 0.24149,0.272912 0.36528,0.406597 0.0437,0.04722 0.0915,0.09065 0.13458,0.138417 0.0844,0.09347 0.28249,0.350072 0.32683,0.415249 0.0311,0.04574 0.046,0.101182 0.0769,0.147067 0.0335,0.04982 0.0836,0.08742 0.11535,0.138417 0.0584,0.09394 0.097,0.199191 0.1538,0.294134 0.0332,0.05543 0.0826,0.100041 0.11535,0.155718 0.0254,0.04308 0.035,0.09388 0.0577,0.138417 0.0955,0.187488 0.21513,0.364515 0.30761,0.553666 0.0978,0.132481 0.12384,0.296094 0.19225,0.441201 0.0225,0.04774 0.0566,0.08969 0.0769,0.138416 0.067,0.160929 0.0919,0.26171 0.13458,0.415249 0.054,0.194324 0.11801,0.389678 0.15379,0.58827 0.01,0.05429 0.0107,0.109865 0.0192,0.16437 0.11282,0.723363 0.0221,0.04951 0.0769,0.493107 0.0289,0.234306 0.0384,0.465098 0.0384,0.700733 0,0.121114 0.0107,0.242704 0,0.363342 -0.003,0.03788 -0.0149,0.07468 -0.0192,0.112464 -0.009,0.07477 -0.007,0.150702 -0.0192,0.224927 -0.007,0.04178 -0.029,0.07983 -0.0385,0.121115 -0.01,0.04261 -0.006,0.088 -0.0192,0.129765 -0.0257,0.08297 -0.066,0.160768 -0.0961,0.242227 -0.0403,0.108826 -0.0326,0.140834 -0.0961,0.242229 -0.16396,0.261591 -0.13999,0.176937 -0.32683,0.4239 -0.10104,0.07766 -0.12323,0.205168 -0.19225,0.302786 -0.0223,0.0315 -0.053,0.05621 -0.0769,0.08651 -0.0467,0.05918 -0.0888,0.121784 -0.13458,0.181672 -0.0248,0.03241 -0.0558,0.06028 -0.0769,0.09516 -0.0177,0.02926 -0.0256,0.06344 -0.0384,0.09516 -0.0385,0.05767 -0.0751,0.116616 -0.11535,0.17302 -0.0795,0.111239 -0.19624,0.204793 -0.28838,0.302786 -0.0206,0.02188 -0.0367,0.04768 -0.0577,0.06921 -0.024,0.02472 -0.0554,0.04228 -0.0769,0.06921 -0.0366,0.04573 -0.0595,0.101337 -0.0961,0.147068 -0.0215,0.02693 -0.0529,0.04448 -0.0769,0.06921 -0.0613,0.06302 -0.11676,0.131453 -0.17303,0.198974 -0.0784,0.09406 -0.15827,0.196353 -0.23071,0.294135 -0.0618,0.08337 -0.11099,0.175785 -0.17302,0.25953 -0.0778,0.104995 -0.16586,0.203048 -0.24993,0.302786 -0.0983,0.116574 -0.20265,0.21711 -0.3076,0.328738 -0.0206,0.02188 -0.0374,0.04705 -0.0577,0.06921 -0.0802,0.08764 -0.18517,0.175304 -0.26915,0.250879 -0.0591,0.05322 -0.11184,0.113536 -0.17303,0.16437 -0.0554,0.04607 -0.11471,0.08738 -0.17302,0.129765 -0.0728,0.05291 -0.0855,0.05096 -0.15381,0.112464 -0.0271,0.0244 -0.0508,0.05239 -0.0769,0.07786 -0.0123,0.01204 -0.0227,0.04168 -0.0384,0.0346 -0.0669,-0.03009 -0.0292,-0.106891 -0.0192,-0.147069"
       id="path62760-9" />
    <path
       style="fill:#6ae4a3;fill-opacity:1;stroke:#000000;stroke-width:1;stroke-linecap:round;stroke-linejoin:round"
       d="m 161.29322,67.798878 c -0.16313,0.236532 -0.32626,0.473063 -0.4894,0.709595 0,0.02447 -0.0245,0.07341 0,0.07341 0.0828,0 -0.067,-0.09857 0,-0.195754 0.14468,-0.209763 0.29715,-0.420004 0.4894,-0.587251 0.35531,-0.309105 0.76142,-0.554443 1.14193,-0.831937 0.54543,-0.397774 0.5711,-0.409362 1.19629,-0.929815 0.001,-0.001 0.65134,-0.586222 0.65253,-0.587251 0.10677,-0.09208 0.22326,-0.17289 0.32626,-0.269154 0.13298,-0.12428 0.24536,-0.26974 0.38065,-0.391497 0.065,-0.05851 0.15249,-0.08829 0.21751,-0.14681 0.0453,-0.04074 0.0689,-0.100741 0.10874,-0.14682 0.0872,-0.100924 0.18467,-0.1927 0.27189,-0.293621 0.0398,-0.04608 0.0618,-0.108053 0.10876,-0.14681 0.0642,-0.05294 0.14936,-0.07465 0.21751,-0.122354 0.8455,-0.684801 -0.10406,0.04601 0.43502,-0.29362 0.0413,-0.02599 0.0605,-0.105111 0.10875,-0.09788 0.0197,0.003 0.11213,0.304273 0.16314,0.391497 0.13641,0.233251 0.1896,0.179497 0.38063,0.367041 0.13411,0.131671 0.26877,0.26494 0.38065,0.415964 0.0433,0.05846 0.18886,0.459715 0.21751,0.51385 0.0458,0.08665 0.10602,0.165016 0.16313,0.244688 0.17742,0.247485 0.38742,0.472754 0.54377,0.734061 0.27472,0.459144 0.14492,0.293468 0.32626,0.660651 0.15973,0.323442 0.0499,0.0776 0.27188,0.391507 0.0781,0.110442 0.13699,0.233876 0.21751,0.342564 0.0469,0.06336 0.11191,0.111342 0.16314,0.171277 0.15832,0.185227 0.30665,0.373838 0.48939,0.538317 0.0451,0.04055 0.36872,0.334824 0.38065,0.36703 0.017,0.04589 -0.0148,0.100168 0,0.146811 0.0179,0.05638 0.10874,0.16004 0.10874,0.22022 0,0.03045 -0.0438,0.04485 -0.0544,0.07341 -0.008,0.02294 0.0112,0.05163 0,0.0734 -0.204,0.397771 -0.54898,0.651607 -0.92441,0.880882 -0.0848,0.0518 -0.18414,0.07568 -0.27188,0.122343 -0.44263,0.235375 -0.88521,0.508177 -1.30507,0.782994 -0.29393,0.192394 -0.56672,0.408779 -0.87002,0.587251 -0.14339,0.08438 -0.29712,0.151609 -0.43502,0.244686 -0.0452,0.03053 -0.0635,0.09183 -0.10877,0.122354 -0.11825,0.07982 -0.25829,0.122341 -0.38063,0.195744 -0.18715,0.112289 -0.3644,0.22148 -0.54378,0.342564 -0.0362,0.02447 -0.065,0.07341 -0.10875,0.07341 -0.0436,0 -0.19396,-0.156457 -0.21751,-0.171289 -0.0505,-0.03178 -0.11371,-0.04004 -0.16314,-0.0734 -0.0606,-0.04093 -0.10375,-0.104074 -0.16311,-0.14682 -0.12241,-0.08813 -0.25682,-0.15857 -0.38065,-0.244686 -0.0758,-0.05269 -0.13708,-0.126035 -0.21751,-0.171276 -1.31471,-0.739489 -0.12304,-0.01156 -1.03316,-0.489376 -0.19067,-0.100097 -0.57653,-0.388035 -0.70691,-0.489373 -0.24514,-0.190534 -0.48039,-0.42694 -0.65253,-0.685127 -0.28753,-0.431269 -0.28809,-0.646758 -0.87004,-0.734072"
       id="path111766" />
    <path
       style="fill:none;fill-opacity:1;stroke:#000000;stroke-width:1;stroke-linecap:round;stroke-linejoin:round"
       d="m 161.40197,50.646271 c 0.79461,-0.106556 1.59451,-0.08454 2.39259,-0.122344 0.36299,-0.01719 0.7242,-0.05855 1.08756,-0.07341 0.39742,-0.01626 0.79866,0 1.19629,0 0.6524,0 1.30586,-0.0022 1.95758,0.02447 0.53085,0.02172 1.05087,0.136572 1.57695,0.195754 0.39951,0.04494 0.79848,0.06267 1.19629,0.122343 1.06856,0.160273 2.11321,0.395238 3.15388,0.685128 0.45862,0.127757 0.96373,0.224709 1.4138,0.391497 0.48867,0.181089 0.99832,0.385187 1.46819,0.611728 0.35378,0.170571 0.64442,0.435579 0.97878,0.636184 0.10227,0.06136 0.22628,0.08182 0.32628,0.14681 0.0661,0.04297 0.10262,0.120728 0.16312,0.171287 0.18635,0.155736 0.40944,0.263106 0.59816,0.415964 0.28211,0.228508 0.46411,0.545269 0.7069,0.807471 0.0497,0.05367 0.11529,0.09146 0.16312,0.14681 0.25018,0.337737 0.13649,0.202482 0.32627,0.415974 0.0725,0.08156 0.16451,0.149293 0.21752,0.244687 0.0291,0.05236 0.0336,0.115106 0.0544,0.171277 0.0724,0.195447 0.18775,0.373475 0.27188,0.562784 0.0212,0.04769 0.029,0.101193 0.0544,0.146811 0.0927,0.166937 0.22684,0.321215 0.27191,0.513851 0.0263,0.112577 0.0315,0.229235 0.0544,0.342563 0.0878,0.434657 0.30204,0.829057 0.43502,1.247902 0.007,0.02332 -0.008,0.05046 0,0.07341 0.0106,0.02856 0.0438,0.04485 0.0544,0.07341 0.0502,0.135552 -0.0429,0.530753 0,0.685118 0.0163,0.05868 0.0903,0.08877 0.10875,0.14682 0.0432,0.13603 -0.0197,0.443037 0,0.611718 0.0134,0.114834 0.0315,0.229236 0.0544,0.342563 0.0134,0.06638 0.0494,0.128209 0.0544,0.195744 0.0133,0.178949 -0.0137,0.359403 0,0.538317 0.005,0.05973 0.0443,0.112234 0.0544,0.171277 0.008,0.04824 -0.005,0.09815 0,0.146821 0.013,0.122992 0.0544,0.243351 0.0544,0.36703 0,0.06772 -0.0445,0.128756 -0.0544,0.195744 -0.008,0.05648 0.0166,0.116645 0,0.171287 -0.10348,0.341449 -0.31995,0.705378 -0.54377,0.978748 -0.0808,0.09867 -0.1926,0.169273 -0.27188,0.269163 -0.25158,0.31698 -0.38811,0.693843 -0.65253,1.003215 -0.16976,0.198605 -0.22434,0.212823 -0.43502,0.415974 -0.0393,0.03788 -0.0664,0.088 -0.10877,0.122344 -0.16728,0.135486 -0.37302,0.232572 -0.54377,0.36703 -0.1295,0.101981 -0.25112,0.21611 -0.38063,0.318087 -0.13686,0.107774 -0.20513,0.10739 -0.38064,0.220221 -0.15366,0.09878 -0.29768,0.278197 -0.43503,0.391507 -0.16695,0.137734 -0.38293,0.222281 -0.54376,0.36703 -0.0767,0.06902 -0.13834,0.154061 -0.21751,0.220221 -0.0487,0.04066 -0.11168,0.06082 -0.16314,0.09787 -0.11874,0.08549 -0.21041,0.204265 -0.32626,0.29363 -0.10042,0.07746 -0.2106,0.14371 -0.32625,0.195753 -0.0518,0.0233 -0.11137,0.02564 -0.16314,0.04893 -0.17483,0.06693 -0.31962,0.192756 -0.48939,0.269154 -0.0698,0.0314 -0.14612,0.04587 -0.21751,0.07341 -0.16522,0.06373 -0.3209,0.166061 -0.4894,0.22022 -0.0708,0.02274 -0.14501,0.03262 -0.21751,0.04893 -0.12688,0.04894 -0.2514,0.104522 -0.38065,0.14682 -0.28194,0.09227 -0.58453,0.12233 -0.87002,0.195743 -0.47991,0.123406 0.0466,0.01648 -0.43502,0.171287 -0.0523,0.01682 -0.11079,0.0076 -0.16314,0.02447 -0.0757,0.02433 -0.14182,0.07355 -0.21751,0.09788 -0.0523,0.01682 -0.10949,0.0124 -0.16314,0.02447 -0.22443,0.05049 -0.43021,0.16306 -0.65251,0.22022 -0.16353,0.04205 -0.32599,0.07332 -0.48939,0.122344 -0.0544,0.01631 -0.10876,0.03262 -0.16314,0.04893 -0.0725,0.01631 -0.14597,0.02882 -0.21751,0.04894 -0.0737,0.02072 -0.14237,0.05891 -0.21751,0.0734 -0.0534,0.0103 -0.10891,-0.0041 -0.16314,0 -0.31393,0.02354 -0.0123,0.02539 -0.32626,0.04894 -0.10844,0.0081 -0.2175,0 -0.32625,0 -0.23205,0 -0.38253,0.0266 -0.16314,-0.22022"
       id="path111848" />
    <path
       style="fill:none;fill-opacity:1;stroke:#000000;stroke-width:1;stroke-linecap:round;stroke-linejoin:round"
       d="m 181.30403,58.843316 c -0.55996,0.336999 -1.25575,0.624377 -1.63132,1.198968 -0.0408,0.06248 -0.0888,0.123827 -0.10874,0.195744 -0.0589,0.211847 -0.13464,0.396571 0.0544,0.538317 0.17863,0.133963 0.81905,0.235768 0.87002,0.244687 0.58095,0.10166 0.98584,-0.158625 1.46821,-0.489374 0.14077,-0.09653 0.27061,-0.212051 0.38062,-0.342564 0.0917,-0.108736 0.15391,-0.239831 0.21751,-0.36703 5e-5,-8.8e-5 0.32628,-0.64089 0.32628,-0.831938 0,-0.05219 -0.0332,-0.09912 -0.0544,-0.14681 -0.0152,-0.03411 -0.0215,-0.08014 -0.0544,-0.09788 -0.15711,-0.08484 -0.2284,-0.04234 -0.38064,-0.02447 -0.36231,0.04253 -0.82742,-0.133426 -1.08754,0.122344 -0.32682,0.32136 -0.27396,0.875551 -0.38065,1.321311 -0.001,0.0053 -0.023,0.432963 0.0544,0.464908 0.39958,0.164823 0.82827,0.250805 1.25067,0.342564 0.31265,0.06792 0.82422,-0.05237 1.08753,-0.220221 0.37756,-0.240682 0.68718,-0.863349 0.7613,-1.296845 0.0165,-0.09648 0.0583,-0.214983 0,-0.29363 -0.38055,-0.513707 -0.87283,-0.557605 -1.4682,-0.660651 -0.56473,-0.09774 -0.74647,0.01505 -1.30505,0.342564 -0.34354,0.201436 -0.6796,0.422272 -0.97878,0.685117 -0.20629,0.181228 -0.24941,0.782087 -0.21752,0.954292 0.0199,0.107304 0.14083,0.167045 0.21752,0.244686 0.0685,0.0694 0.12685,0.15975 0.21751,0.195744 0.32804,0.130246 1.35014,0.346748 1.74006,0.171287 0.17743,-0.07984 0.34206,-0.191026 0.48939,-0.318097 0.20839,-0.179722 0.16314,-0.257175 0.16314,-0.489374 0,-0.37143 0.1044,-0.359058 -0.16314,-0.513841 -0.0688,-0.03981 -0.13911,-0.08465 -0.21751,-0.09788 -0.98477,-0.166182 -1.40474,0.134564 -2.17508,0.758527 -0.10366,0.08396 -0.18216,0.19493 -0.27189,0.29363 -0.0734,0.08075 -0.16918,0.146841 -0.2175,0.244688 -0.16841,0.340982 -0.17529,0.357711 0,0.562774 0.30285,0.354307 0.2555,0.214918 0.97878,0.269163 0.87532,0.06565 1.68088,-0.188521 2.28385,-0.856404 0.31413,-0.347941 0.52146,-0.655478 0.59814,-1.150035 0.0303,-0.195649 -0.23433,-0.515937 -0.38063,-0.587251 -0.79455,-0.387324 -1.19834,-0.456538 -2.06634,-0.36703 -0.84583,0.08722 -1.86053,0.199057 -2.55573,0.782994 -0.30252,0.254103 -0.51005,0.330677 -0.43502,0.685128 0.12902,0.609528 0.83289,0.869305 1.35943,1.003224 1.11221,0.282876 3.04187,0.44769 3.86078,-0.611727 0.0685,-0.08859 0.10312,-0.1991 0.16314,-0.29362 0.049,-0.07712 0.14715,-0.130277 0.16314,-0.220221 0.0824,-0.463741 -0.22317,-0.608428 -0.59816,-0.685128 -0.0891,-0.01823 -0.1819,-0.03796 -0.27189,-0.02447 -0.0786,0.0118 -0.145,0.06525 -0.21751,0.09788 0.32626,0.0571 0.64874,0.14344 0.97879,0.171288 0.25299,0.02135 0.50745,-0.01903 0.76128,-0.02447 0.45304,-0.0097 0.90635,0.0076 1.35944,0 0.16331,-0.0027 0.32626,-0.01631 0.48939,-0.02447 0.19939,0 0.39877,0 0.59816,0 1.12184,0 2.25041,-0.02597 3.37138,0.02447 0.30824,0.01387 0.61586,0.05606 0.92442,0.07341 0.17936,0.01009 0.36427,0 0.54376,0"
       id="path111852" />
    <path
       style="fill:#ddf1fb;fill-opacity:1;fill-rule:nonzero;stroke:#000000;stroke-width:1;stroke-linecap:round;stroke-linejoin:round"
       d="m 131.71155,99.33913 c 0.0385,0.07786 0.0628,0.164449 0.11536,0.233577 0.0333,0.04374 0.0882,0.06563 0.13457,0.09516 0.10755,0.06856 0.21979,0.129617 0.32683,0.198975 0.0533,0.03454 0.10213,0.07553 0.15381,0.112461 0.0573,0.04094 0.11822,0.07693 0.17302,0.121117 0.0992,0.08 0.18919,0.17091 0.28838,0.25088 0.0548,0.0442 0.11847,0.0766 0.17303,0.12111 0.0483,0.0394 0.0906,0.0857 0.13458,0.12977 0.097,0.0972 0.19528,0.19321 0.28837,0.29413 0.096,0.1041 0.18037,0.2184 0.26916,0.32874 0.0902,0.11209 0.18352,0.22179 0.26915,0.33739 0.0363,0.049 0.0625,0.10482 0.0961,0.15572 0.22332,0.33802 0.0169,-0.0212 0.32683,0.50176 0.0349,0.0589 0.0628,0.12178 0.0961,0.18167 0.0308,0.0555 0.0722,0.10559 0.0961,0.16437 0.0469,0.11514 0.0728,0.23788 0.11535,0.35469 0.0216,0.0593 0.0545,0.11401 0.0769,0.17302 0.0225,0.0594 0.0368,0.12165 0.0577,0.18167 0.0433,0.12457 0.0952,0.24614 0.13458,0.372 0.0472,0.15098 0.0347,0.20214 0.0577,0.35469 0.0192,0.11246 0.0384,0.22492 0.0577,0.33739 0.0128,0.0548 0.029,0.1089 0.0385,0.16437 0.01,0.0572 0.0115,0.11551 0.0192,0.17302 0.0179,0.13283 0.0408,0.26498 0.0577,0.39794 0.009,0.069 0.01,0.13876 0.0192,0.20763 0.01,0.0725 0.0285,0.14373 0.0384,0.21628 0.0157,0.11498 0.0252,0.23074 0.0385,0.34604 0.0116,0.10107 0.0293,0.20146 0.0385,0.30278 0.008,0.0921 0.0103,0.18476 0.0192,0.27683 0.004,0.0407 0.0161,0.0804 0.0192,0.12112 0.003,0.0431 0,0.0865 0,0.12976 0,0.124 0.009,0.24834 0,0.372 -0.003,0.0436 -0.0151,0.0862 -0.0192,0.12976 -0.009,0.0921 -0.0103,0.18477 -0.0192,0.27684 -0.0194,0.20081 -0.0169,0.0438 -0.0577,0.25953 -0.0375,0.19837 -0.0184,0.24332 -0.0769,0.40659 -0.016,0.0446 -0.0384,0.0865 -0.0577,0.12977 -0.032,0.0836 -0.0663,0.16645 -0.0961,0.25088 -3e-5,1.1e-4 -0.0769,0.25942 -0.0769,0.25953 -0.24605,0.60893 -0.0216,0.0226 -0.17303,0.36334 -0.015,0.0337 -0.0225,0.0705 -0.0384,0.10381 -0.0693,0.14417 -0.15531,0.2753 -0.23071,0.41525 -0.0487,0.0903 -0.0847,0.18715 -0.13457,0.27684 -0.0505,0.0909 -0.11666,0.17216 -0.17303,0.25953 -0.0201,0.0312 -0.0364,0.0648 -0.0577,0.0952 -0.0173,0.0246 -0.0412,0.0441 -0.0577,0.0692 -0.0349,0.053 -0.0621,0.11078 -0.0961,0.16437 -0.0173,0.0273 -0.0414,0.05 -0.0577,0.0779 -0.0159,0.0272 -0.0215,0.0599 -0.0384,0.0865 -0.0519,0.0818 -0.11322,0.15733 -0.17302,0.23357 -0.08,0.10199 -0.0772,0.0834 -0.19225,0.20763 -0.0841,0.0909 -0.15955,0.1918 -0.24993,0.27683 -0.0225,0.0212 -0.0526,0.0328 -0.0769,0.0519 -0.0813,0.064 -0.15006,0.14282 -0.23071,0.20763 -0.0362,0.0291 -0.0809,0.0468 -0.11535,0.0779 -0.024,0.0216 -0.0385,0.0519 -0.0577,0.0779 -0.0897,0.0634 -0.17895,0.12758 -0.26916,0.19032 -0.20381,0.14174 -0.40291,0.26602 -0.61521,0.39795 -0.0612,0.038 -0.088,0.0656 -0.1538,0.0952 -0.0183,0.008 -0.076,0.009 -0.0577,0.0173 0.0292,0.0131 0.0642,-0.003 0.0961,0 0.12211,0.011 0.24321,0.0317 0.36527,0.0433 0.30199,0.0286 0.60173,0.0736 0.90359,0.10381 0.36486,0.0365 0.72937,0.0433 1.09584,0.0433 0.44662,0 0.92071,-0.009 1.36499,-0.0692 0.1996,-0.0269 0.57916,-0.0834 0.80746,-0.12977 0.29364,-0.0597 0.62144,-0.15003 0.90359,-0.21627 0.23931,-0.0562 0.33556,-0.0675 0.57676,-0.11247 0.23262,-0.0434 0.52563,-0.10013 0.76901,-0.14706 0.281,-0.0542 0.53884,-0.10452 0.82668,-0.15572 0.34666,-0.0617 0.69243,-0.11207 1.03816,-0.18167 0.35462,-0.0714 0.70466,-0.16287 1.0574,-0.24223 0.0574,-0.0129 0.11575,-0.0212 0.17302,-0.0346 0.10299,-0.0241 0.20442,-0.0546 0.30761,-0.0779 0.279,-0.0628 0.56505,-0.095 0.84591,-0.14707 0.59865,-0.11092 1.19725,-0.24163 1.78795,-0.38929 0.41937,-0.10484 0.83138,-0.23708 1.24964,-0.34605 0.42566,-0.11089 -0.01,0.017 0.6152,-0.16436 0.36871,-0.10704 0.0214,-0.0128 0.36529,-0.12112 0.13401,-0.0422 0.2703,-0.0771 0.40372,-0.12111 0.0181,-0.006 0.35932,-0.14485 0.36529,-0.14707 0.12109,-0.0451 0.24242,-0.0897 0.36527,-0.12977 0.0631,-0.0206 0.12868,-0.0328 0.19225,-0.0519 0.14879,-0.0446 0.29547,-0.096 0.44219,-0.14707 0.0842,-0.0293 0.16617,-0.0647 0.24993,-0.0952 0.29604,-0.10784 0.59255,-0.20937 0.88436,-0.32874 0.0455,-0.0186 0.0888,-0.0425 0.13458,-0.0605 0.22079,-0.0869 0.45208,-0.14665 0.67288,-0.23358 0.0458,-0.018 0.0885,-0.0434 0.13457,-0.0606 0.15304,-0.0569 0.30807,-0.10831 0.46141,-0.16437 0.0508,-0.0186 0.10376,-0.0313 0.1538,-0.0519 0.0975,-0.0401 0.19156,-0.0881 0.28838,-0.12977 0.255,-0.10976 0.51871,-0.19879 0.76901,-0.32009 0.20398,-0.0988 0.39734,-0.21992 0.59598,-0.32874 0.07,-0.0384 0.14432,-0.0693 0.21148,-0.11246 0.0234,-0.0151 0.0348,-0.0446 0.0577,-0.0606 0.0356,-0.0249 0.0786,-0.0374 0.11535,-0.0606 0.20469,-0.12895 0.39182,-0.28554 0.59598,-0.41525 0.0367,-0.0233 0.0789,-0.0369 0.11535,-0.0606 0.0217,-0.0141 0.0359,-0.0379 0.0577,-0.0519 0.0683,-0.0439 0.14368,-0.0764 0.21148,-0.12111 0.0288,-0.019 0.0489,-0.0491 0.0769,-0.0692 0.0364,-0.0262 0.078,-0.0445 0.11535,-0.0692 0.0716,-0.0474 0.14031,-0.099 0.21147,-0.14707 0.0314,-0.0212 0.0641,-0.0404 0.0961,-0.0606 0.0385,-0.0202 0.0791,-0.0367 0.11534,-0.0606 0.27892,-0.18343 0.0354,-0.032 0.19226,-0.16437 0.0302,-0.0255 0.0641,-0.0461 0.0961,-0.0692 0.0449,-0.0433 0.0883,-0.0881 0.13458,-0.12976 0.16873,-0.15185 -0.0142,0.0261 0.1538,-0.11247 0.0532,-0.0439 0.10158,-0.0934 0.15381,-0.13841 0.13182,-0.11369 0.2787,-0.20497 0.40372,-0.32874 0.0533,-0.0527 0.0769,-0.0503 0.0769,-0.12111 0,-0.0115 0.006,-0.0247 0,-0.0346 -0.11135,-0.1879 -0.36931,-0.34675 -0.5383,-0.46716 -0.21443,-0.15278 -0.0416,-0.0545 -0.38451,-0.25088 -0.0499,-0.0286 -0.10324,-0.0506 -0.1538,-0.0779 -0.0456,-0.0246 -0.0883,-0.0545 -0.13458,-0.0779 -0.10766,-0.0545 -0.21926,-0.101 -0.32683,-0.15572 -0.04,-0.0203 -0.0769,-0.0461 -0.11534,-0.0692 -0.0577,-0.0259 -0.11618,-0.0501 -0.17303,-0.0779 -0.097,-0.0473 -0.19139,-0.0998 -0.28838,-0.14706 -0.0568,-0.0277 -0.11725,-0.0481 -0.17303,-0.0779 -0.047,-0.0251 -0.0885,-0.0597 -0.13457,-0.0865 -0.15862,-0.0922 -0.31654,-0.18614 -0.48064,-0.26818 -0.0628,-0.0314 -0.12892,-0.056 -0.19225,-0.0865 -0.12255,-0.059 -0.24273,-0.12273 -0.36528,-0.18168 -0.15364,-0.0739 -0.24434,-0.10744 -0.40373,-0.17302 -0.48369,-0.19899 -0.96968,-0.39166 -1.46112,-0.57097 -0.0762,-0.0278 -0.15463,-0.0496 -0.2307,-0.0779 -0.0714,-0.0265 -0.13995,-0.0604 -0.21148,-0.0865 -0.191,-0.0698 -0.38633,-0.12756 -0.57676,-0.19897 -0.17449,-0.0654 -0.34698,-0.13614 -0.51908,-0.20762 -0.20048,-0.0833 -0.39064,-0.17696 -0.59598,-0.25088 -0.0632,-0.0228 -0.12884,-0.0384 -0.19226,-0.0606 -0.23141,-0.081 -0.45912,-0.17363 -0.6921,-0.25088 -0.27785,-0.0921 -0.24614,-0.0693 -0.61521,-0.18167 -0.15529,-0.0473 -0.30593,-0.10908 -0.46141,-0.15573 -0.33808,-0.10142 -0.67741,-0.1896 -1.01894,-0.27683 -0.15406,-0.0393 -0.30669,-0.0844 -0.4614,-0.12111 -0.0761,-0.0181 -0.1538,-0.0288 -0.2307,-0.0433 -0.0769,-0.0173 -0.15403,-0.0336 -0.23071,-0.0519 -0.36477,-0.0869 -0.35448,-0.0913 -0.65366,-0.15572 -0.22104,-0.0476 -0.40382,-0.0779 -0.63443,-0.12977 -0.12952,-0.0291 -0.25479,-0.0756 -0.38451,-0.10381 -0.13391,-0.0292 -0.26942,-0.0506 -0.40373,-0.0779 -0.0644,-0.0131 -0.1277,-0.0311 -0.19225,-0.0433 -0.21106,-0.0398 -0.4227,-0.0765 -0.63443,-0.11246 -0.14667,-0.0249 -0.29562,-0.035 -0.44218,-0.06056 -0.0986,-0.01717 -0.39252,-0.07774 -0.53831,-0.112464 -0.0578,-0.01378 -0.11455,-0.03254 -0.17302,-0.04325 -0.11473,-0.02104 -0.23089,-0.0334 -0.34606,-0.05191 -0.4311,-0.06928 0.035,7.7e-5 -0.36528,-0.06921 -0.16533,-0.03409 -0.33358,-0.0498 -0.49986,-0.07786 -0.21118,-0.03564 -0.42174,-0.07723 -0.63443,-0.103815 -0.47549,-0.05943 0.24064,0.04763 -0.48063,-0.06056 -0.23135,-0.0347 -0.46033,-0.09044 -0.69211,-0.121116 -0.24248,-0.03209 -0.48761,-0.04749 -0.73056,-0.07786 -0.21716,-0.02714 -0.43563,-0.05081 -0.65366,-0.06921 -0.1535,-0.01296 -0.30783,-0.01394 -0.4614,-0.02596 -0.0451,-0.0035 -0.0896,-0.01297 -0.13458,-0.0173 -0.16608,-0.01601 -0.33342,-0.02212 -0.49986,-0.0346 -0.1536,-0.01151 -0.3075,-0.02883 -0.4614,-0.0346 -0.1664,-0.0062 -0.3335,-0.0024 -0.49986,-0.0087 -0.17953,-0.0067 -0.35883,-0.0186 -0.53831,-0.02596 -0.1724,-0.0071 -0.34642,0 -0.51908,0 -0.28153,0 -0.56446,-0.0063 -0.84591,0 -0.0322,7.94e-4 -0.064,0.0075 -0.0961,0.0087 -0.0512,0.0019 -0.10255,-0.0013 -0.1538,0 -0.21107,0.0059 -0.42462,0.0283 -0.63443,0.05191 -0.096,0.0108 -0.0511,0.0087 -0.13458,0.0087 -0.0192,0 -0.0577,-0.01923 -0.0577,0 0,0.01924 0.0444,-0.01392 0.0577,0 0.0139,0.01463 0,0.04037 0,0.06056"
       id="path44370-7-8" />
    <path
       style="fill:none;fill-opacity:1;fill-rule:nonzero;stroke:#000000;stroke-width:1;stroke-linecap:round;stroke-linejoin:round"
       d="m 156.70438,105.30833 c -0.30084,-0.10571 -0.61635,-0.0319 -0.92281,-0.0779 -0.019,-0.003 0.0385,-9.5e-4 0.0577,0 0.0659,0.003 0.2665,0.0222 0.3076,0.026 0.74442,0.0687 0.42446,0.0483 1.24964,0.0865 1.67181,0.0774 3.34488,0.0635 5.01779,0.0865 0.38537,0.005 0.50593,0.0166 0.86514,0 0.12832,-0.006 0.2564,-0.0164 0.3845,-0.0259 0.0257,-0.002 0.0923,0.0121 0.0769,-0.009 -0.0194,-0.0262 -0.0636,-0.0191 -0.0961,-0.0173 -0.0713,0.004 -0.14099,0.0231 -0.21148,0.0346"
       id="path44329-5-9" />
    <path
       style="fill:none;stroke:#000000;stroke-width:1;stroke-linecap:round;stroke-linejoin:round"
       d="m 129.4106,99.917128 c 0.56046,0.975172 0.0915,0.214522 0.40373,0.648822 0.1874,0.26064 0.004,0.0656 0.30761,0.41525 0.0409,0.047 0.0913,0.0849 0.13457,0.12977 0.12638,0.13124 0.24149,0.27291 0.36528,0.4066 0.0437,0.0472 0.0915,0.0906 0.13458,0.13841 0.0844,0.0935 0.28249,0.35008 0.32683,0.41525 0.0311,0.0457 0.046,0.10119 0.0769,0.14707 0.0335,0.0498 0.0836,0.0874 0.11535,0.13842 0.0584,0.0939 0.097,0.19919 0.1538,0.29413 0.0332,0.0554 0.0826,0.10004 0.11535,0.15572 0.0254,0.0431 0.035,0.0939 0.0577,0.13842 0.0955,0.18748 0.21513,0.36451 0.30761,0.55366 0.0978,0.13248 0.12384,0.2961 0.19225,0.4412 0.0225,0.0477 0.0566,0.0897 0.0769,0.13842 0.067,0.16093 0.0919,0.26171 0.13458,0.41525 0.054,0.19432 0.11801,0.38968 0.15379,0.58827 0.01,0.0543 0.0107,0.10986 0.0192,0.16437 0.11282,0.72336 0.0221,0.0495 0.0769,0.49311 0.0289,0.2343 0.0384,0.46509 0.0384,0.70073 0,0.12111 0.0107,0.2427 0,0.36334 -0.003,0.0379 -0.0149,0.0747 -0.0192,0.11246 -0.009,0.0748 -0.007,0.15071 -0.0192,0.22493 -0.007,0.0418 -0.029,0.0798 -0.0385,0.12112 -0.01,0.0426 -0.006,0.088 -0.0192,0.12976 -0.0257,0.083 -0.066,0.16077 -0.0961,0.24223 -0.0403,0.10882 -0.0326,0.14083 -0.0961,0.24223 -0.16396,0.26159 -0.13999,0.17693 -0.32683,0.4239 -0.10104,0.0777 -0.12323,0.20517 -0.19225,0.30278 -0.0223,0.0315 -0.053,0.0562 -0.0769,0.0865 -0.0467,0.0592 -0.0888,0.12179 -0.13458,0.18168 -0.0248,0.0324 -0.0558,0.0603 -0.0769,0.0952 -0.0177,0.0293 -0.0256,0.0634 -0.0384,0.0952 -0.0385,0.0577 -0.0751,0.11661 -0.11535,0.17302 -0.0795,0.11123 -0.19624,0.20479 -0.28838,0.30278 -0.0206,0.0219 -0.0367,0.0477 -0.0577,0.0692 -0.024,0.0247 -0.0554,0.0423 -0.0769,0.0692 -0.0366,0.0457 -0.0595,0.10134 -0.0961,0.14707 -0.0215,0.0269 -0.0529,0.0445 -0.0769,0.0692 -0.0613,0.063 -0.11676,0.13145 -0.17303,0.19897 -0.0784,0.0941 -0.15827,0.19636 -0.23071,0.29414 -0.0618,0.0834 -0.11099,0.17578 -0.17302,0.25953 -0.0778,0.10499 -0.16586,0.20305 -0.24993,0.30278 -0.0983,0.11658 -0.20265,0.21711 -0.3076,0.32874 -0.0206,0.0219 -0.0374,0.047 -0.0577,0.0692 -0.0802,0.0876 -0.18517,0.17531 -0.26915,0.25088 -0.0591,0.0532 -0.11184,0.11354 -0.17303,0.16437 -0.0554,0.0461 -0.11471,0.0874 -0.17302,0.12977 -0.0728,0.0529 -0.0855,0.051 -0.15381,0.11246 -0.0271,0.0244 -0.0508,0.0524 -0.0769,0.0779 -0.0123,0.012 -0.0227,0.0417 -0.0384,0.0346 -0.0669,-0.0301 -0.0292,-0.10689 -0.0192,-0.14707"
       id="path62760-9-7" />
    <path
       style="fill:#6ae4a3;fill-opacity:1;stroke:#000000;stroke-width:1;stroke-linecap:round;stroke-linejoin:round"
       d="m 163.07666,104.70473 c -0.16313,0.23653 -0.32626,0.47306 -0.4894,0.7096 0,0.0245 -0.0245,0.0734 0,0.0734 0.0828,0 -0.067,-0.0986 0,-0.19576 0.14468,-0.20976 0.29715,-0.42 0.4894,-0.58725 0.35531,-0.3091 0.76142,-0.55444 1.14193,-0.83194 0.54543,-0.39777 0.5711,-0.40936 1.19629,-0.92981 10e-4,-0.001 0.65134,-0.58622 0.65253,-0.58725 0.10677,-0.0921 0.22326,-0.17289 0.32626,-0.26916 0.13298,-0.12428 0.24536,-0.26974 0.38065,-0.39149 0.065,-0.0585 0.15249,-0.0883 0.21751,-0.14681 0.0453,-0.0407 0.0689,-0.10074 0.10874,-0.14682 0.0872,-0.10093 0.18467,-0.1927 0.27189,-0.29362 0.0398,-0.0461 0.0618,-0.10806 0.10876,-0.14681 0.0642,-0.0529 0.14936,-0.0747 0.21751,-0.12236 0.8455,-0.6848 -0.10406,0.046 0.43502,-0.29362 0.0413,-0.026 0.0605,-0.10511 0.10875,-0.0979 0.0197,0.003 0.11213,0.30427 0.16314,0.3915 0.13641,0.23325 0.1896,0.1795 0.38063,0.36704 0.13411,0.13167 0.26877,0.26494 0.38065,0.41596 0.0433,0.0585 0.18886,0.45972 0.21751,0.51385 0.0458,0.0867 0.10602,0.16502 0.16313,0.24469 0.17742,0.24749 0.38742,0.47276 0.54377,0.73406 0.27472,0.45915 0.14492,0.29347 0.32626,0.66065 0.15973,0.32345 0.0499,0.0776 0.27188,0.39151 0.0781,0.11044 0.13699,0.23388 0.21751,0.34256 0.0469,0.0634 0.11191,0.11135 0.16314,0.17128 0.15832,0.18523 0.30665,0.37384 0.48939,0.53832 0.0451,0.0405 0.36872,0.33482 0.38065,0.36703 0.017,0.0459 -0.0148,0.10017 0,0.14681 0.0179,0.0564 0.10874,0.16004 0.10874,0.22022 0,0.0305 -0.0438,0.0448 -0.0544,0.0734 -0.008,0.0229 0.0112,0.0516 0,0.0734 -0.204,0.39777 -0.54898,0.65161 -0.92441,0.88088 -0.0848,0.0518 -0.18414,0.0757 -0.27188,0.12235 -0.44263,0.23537 -0.88521,0.50817 -1.30507,0.78299 -0.29393,0.19239 -0.56672,0.40878 -0.87002,0.58725 -0.14339,0.0844 -0.29712,0.15161 -0.43502,0.24469 -0.0452,0.0305 -0.0635,0.0918 -0.10877,0.12235 -0.11825,0.0798 -0.25829,0.12234 -0.38063,0.19574 -0.18715,0.11229 -0.3644,0.22148 -0.54378,0.34257 -0.0362,0.0245 -0.065,0.0734 -0.10875,0.0734 -0.0436,0 -0.19396,-0.15646 -0.21751,-0.17129 -0.0505,-0.0318 -0.11371,-0.04 -0.16314,-0.0734 -0.0606,-0.0409 -0.10375,-0.10408 -0.16311,-0.14682 -0.12241,-0.0881 -0.25682,-0.15857 -0.38065,-0.24469 -0.0758,-0.0527 -0.13708,-0.12603 -0.21751,-0.17127 -1.31471,-0.73949 -0.12304,-0.0116 -1.03316,-0.48938 -0.19067,-0.1001 -0.57653,-0.38803 -0.70691,-0.48937 -0.24514,-0.19054 -0.48039,-0.42694 -0.65253,-0.68513 -0.28753,-0.43127 -0.28809,-0.64676 -0.87004,-0.73407"
       id="path111766-0" />
    <path
       style="fill:none;fill-opacity:1;stroke:#000000;stroke-width:1;stroke-linecap:round;stroke-linejoin:round"
       d="m 162.2066,87.576591 c 0.79461,-0.106556 1.59451,-0.08454 2.39259,-0.122344 0.36299,-0.01719 0.7242,-0.05855 1.08756,-0.07341 0.39742,-0.01626 0.79866,0 1.19629,0 0.6524,0 1.30586,-0.0022 1.95758,0.02447 0.53085,0.02172 1.05087,0.136572 1.57695,0.195754 0.39951,0.04494 0.79848,0.06267 1.19629,0.122343 1.06856,0.160273 2.11321,0.395238 3.15388,0.685128 0.45862,0.127757 0.96373,0.224709 1.4138,0.391497 0.48867,0.181089 0.99832,0.385187 1.46819,0.611728 0.35378,0.170571 0.64442,0.435579 0.97878,0.636184 0.10227,0.06136 0.22628,0.08182 0.32628,0.14681 0.0661,0.04297 0.10262,0.120728 0.16312,0.171287 0.18635,0.155736 0.40944,0.263106 0.59816,0.415964 0.28211,0.228508 0.46411,0.545269 0.7069,0.807471 0.0497,0.05367 0.11529,0.09146 0.16312,0.14681 0.25018,0.337737 0.13649,0.202482 0.32627,0.415974 0.0725,0.08156 0.16451,0.149293 0.21752,0.244687 0.0291,0.05236 0.0336,0.115106 0.0544,0.171277 0.0724,0.195447 0.18775,0.373475 0.27188,0.562784 0.0212,0.04769 0.029,0.101193 0.0544,0.146811 0.0927,0.166937 0.22684,0.321215 0.27191,0.513851 0.0263,0.112577 0.0315,0.229235 0.0544,0.342563 0.0878,0.434657 0.30204,0.829057 0.43502,1.247902 0.007,0.02332 -0.008,0.05046 0,0.07341 0.0106,0.02856 0.0438,0.04485 0.0544,0.07341 0.0502,0.135552 -0.0429,0.530753 0,0.685118 0.0163,0.05868 0.0903,0.08877 0.10875,0.14682 0.0432,0.13603 -0.0197,0.443037 0,0.611718 0.0134,0.114834 0.0315,0.229236 0.0544,0.342563 0.0134,0.06638 0.0494,0.128209 0.0544,0.195744 0.0133,0.178949 -0.0137,0.359403 0,0.538317 0.005,0.05973 0.0443,0.112234 0.0544,0.171277 0.008,0.04824 -0.005,0.09815 0,0.146821 0.013,0.122992 0.0544,0.243351 0.0544,0.36703 0,0.06772 -0.0445,0.128756 -0.0544,0.195744 -0.008,0.05648 0.0166,0.116645 0,0.171287 -0.10348,0.341449 -0.31995,0.705378 -0.54377,0.978749 -0.0808,0.0987 -0.1926,0.16928 -0.27188,0.26917 -0.25158,0.31698 -0.38811,0.69384 -0.65253,1.00321 -0.16976,0.19861 -0.22434,0.21282 -0.43502,0.41597 -0.0393,0.0379 -0.0664,0.088 -0.10877,0.12235 -0.16728,0.13548 -0.37302,0.23257 -0.54377,0.36703 -0.1295,0.10198 -0.25112,0.21611 -0.38063,0.31809 -0.13686,0.10777 -0.20513,0.10739 -0.38064,0.22022 -0.15366,0.0988 -0.29768,0.27819 -0.43503,0.3915 -0.16695,0.13774 -0.38293,0.22228 -0.54376,0.36703 -0.0767,0.069 -0.13834,0.15406 -0.21751,0.22022 -0.0487,0.0407 -0.11168,0.0608 -0.16314,0.0979 -0.11874,0.0855 -0.21041,0.20427 -0.32626,0.29363 -0.10042,0.0775 -0.2106,0.14371 -0.32625,0.19576 -0.0518,0.0233 -0.11137,0.0256 -0.16314,0.0489 -0.17483,0.0669 -0.31962,0.19275 -0.48939,0.26915 -0.0698,0.0314 -0.14612,0.0459 -0.21751,0.0734 -0.16522,0.0637 -0.3209,0.16606 -0.4894,0.22022 -0.0708,0.0227 -0.14501,0.0326 -0.21751,0.0489 -0.12688,0.0489 -0.2514,0.10452 -0.38065,0.14682 -0.28194,0.0923 -0.58453,0.12233 -0.87002,0.19574 -0.47991,0.12341 0.0466,0.0165 -0.43502,0.17129 -0.0523,0.0168 -0.11079,0.008 -0.16314,0.0245 -0.0757,0.0243 -0.14182,0.0735 -0.21751,0.0979 -0.0523,0.0168 -0.10949,0.0124 -0.16314,0.0245 -0.22443,0.0505 -0.43021,0.16306 -0.65251,0.22022 -0.16353,0.0421 -0.32599,0.0733 -0.48939,0.12235 -0.0544,0.0163 -0.10876,0.0326 -0.16314,0.0489 -0.0725,0.0163 -0.14597,0.0288 -0.21751,0.0489 -0.0737,0.0207 -0.14237,0.0589 -0.21751,0.0734 -0.0534,0.0103 -0.10891,-0.004 -0.16314,0 -0.31393,0.0235 -0.0123,0.0254 -0.32626,0.0489 -0.10844,0.008 -0.2175,0 -0.32625,0 -0.23205,0 -0.38253,0.0266 -0.16314,-0.22022"
       id="path111848-9" />
    <path
       style="fill:none;fill-opacity:1;stroke:#000000;stroke-width:1;stroke-linecap:round;stroke-linejoin:round"
       d="m 183.08747,95.749169 c -0.55996,0.336999 -1.25575,0.624377 -1.63132,1.198968 -0.0408,0.06248 -0.0888,0.123827 -0.10874,0.195744 -0.0589,0.211847 -0.13464,0.396571 0.0544,0.538317 0.17863,0.133963 0.81905,0.235768 0.87002,0.244687 0.58095,0.10166 0.98584,-0.158625 1.46821,-0.489374 0.14077,-0.09653 0.27061,-0.212051 0.38062,-0.342564 0.0917,-0.108736 0.15391,-0.239831 0.21751,-0.36703 5e-5,-8.8e-5 0.32628,-0.64089 0.32628,-0.831938 0,-0.05219 -0.0332,-0.09912 -0.0544,-0.14681 -0.0152,-0.03411 -0.0215,-0.08014 -0.0544,-0.09788 -0.15711,-0.08484 -0.2284,-0.04234 -0.38064,-0.02447 -0.36231,0.04253 -0.82742,-0.133426 -1.08754,0.122344 -0.32682,0.32136 -0.27396,0.875551 -0.38065,1.321311 -0.001,0.0053 -0.023,0.432963 0.0544,0.464908 0.39958,0.164823 0.82827,0.250805 1.25067,0.342564 0.31265,0.06792 0.82422,-0.05237 1.08753,-0.220221 0.37756,-0.240682 0.68718,-0.863349 0.7613,-1.296845 0.0165,-0.09648 0.0583,-0.214983 0,-0.29363 -0.38055,-0.513707 -0.87283,-0.557605 -1.4682,-0.660651 -0.56473,-0.09774 -0.74647,0.01505 -1.30505,0.342564 -0.34354,0.201436 -0.6796,0.422272 -0.97878,0.685117 -0.20629,0.181228 -0.24941,0.782087 -0.21752,0.954292 0.0199,0.107304 0.14083,0.167045 0.21752,0.244686 0.0685,0.0694 0.12685,0.15975 0.21751,0.195744 0.32804,0.130246 1.35014,0.346748 1.74006,0.171287 0.17743,-0.07984 0.34206,-0.191026 0.48939,-0.318097 0.20839,-0.179722 0.16314,-0.257175 0.16314,-0.489374 0,-0.37143 0.1044,-0.359058 -0.16314,-0.513841 -0.0688,-0.03981 -0.13911,-0.08465 -0.21751,-0.09788 -0.98477,-0.166182 -1.40474,0.134564 -2.17508,0.758527 -0.10366,0.08396 -0.18216,0.19493 -0.27189,0.29363 -0.0734,0.08075 -0.16918,0.146841 -0.2175,0.244688 -0.16841,0.340982 -0.17529,0.357711 0,0.562774 0.30285,0.354307 0.2555,0.214918 0.97878,0.269163 0.87532,0.06565 1.68088,-0.188521 2.28385,-0.856404 0.31413,-0.347941 0.52146,-0.655478 0.59814,-1.150035 0.0303,-0.195649 -0.23433,-0.515937 -0.38063,-0.587251 -0.79455,-0.387324 -1.19834,-0.456538 -2.06634,-0.36703 -0.84583,0.08722 -1.86053,0.199057 -2.55573,0.782994 -0.30252,0.254103 -0.51005,0.330677 -0.43502,0.685128 0.12902,0.609528 0.83289,0.869305 1.35943,1.003224 1.11221,0.282876 3.04187,0.44769 3.86078,-0.611727 0.0685,-0.08859 0.10312,-0.1991 0.16314,-0.29362 0.049,-0.07712 0.14715,-0.130277 0.16314,-0.220221 0.0824,-0.463741 -0.22317,-0.608428 -0.59816,-0.685128 -0.0891,-0.01823 -0.1819,-0.03796 -0.27189,-0.02447 -0.0786,0.0118 -0.145,0.06525 -0.21751,0.09788 0.32626,0.0571 0.64874,0.14344 0.97879,0.171288 0.25299,0.02135 0.50745,-0.01903 0.76128,-0.02447 0.45304,-0.0097 0.90635,0.0076 1.35944,0 0.16331,-0.0027 0.32626,-0.01631 0.48939,-0.02447 0.19939,0 0.39877,0 0.59816,0 1.12184,0 2.25041,-0.02597 3.37138,0.02447 0.30824,0.01387 0.61586,0.05606 0.92442,0.07341 0.17936,0.01009 0.36427,0 0.54376,0"
       id="path111852-2" />
    <path
       style="fill:none;fill-opacity:1;stroke:#000000;stroke-width:1;stroke-linecap:round;stroke-linejoin:round"
       d="m 89.025885,83.483375 c -0.533249,-0.03432 -1.107339,-0.168441 -1.63132,0.02447 -0.164203,0.06045 -0.789569,0.778135 -0.815649,0.807472 -0.251405,0.282815 -0.37642,0.441719 -0.108744,0.783005 0.08816,0.112405 0.324226,0.134347 0.435001,0.146809 0.871226,0.09801 1.343348,0.07969 1.794457,-0.783005 0.03459,-0.06614 0.08514,-0.124934 0.108744,-0.195744 0.08566,-0.256982 0.484111,-0.735015 0.217511,-0.783003 -0.469484,-0.08451 -0.867759,0.396627 -1.305044,0.587251 -0.142859,0.06227 -0.30177,0.09047 -0.43502,0.171286 -0.630279,0.382267 -1.359437,0.905356 -1.359437,1.737275 0,0.150453 0.209937,0.290677 0.326277,0.318098 0.500059,0.117867 1.009427,0.185293 1.522552,0.14681 1.048197,-0.07861 1.47955,-0.23431 2.338224,-0.929815 0.150783,-0.122129 0.280056,-0.274489 0.380629,-0.440431 0.173538,-0.286329 0.314823,-0.592854 0.435023,-0.905346 0.05585,-0.145211 0.08749,-0.5032 0,-0.660662 -0.180269,-0.324448 -0.900441,-0.38604 -1.087535,-0.36703 -0.293384,0.02981 -0.526558,0.284435 -0.815669,0.342564 -0.571391,0.114882 -1.171453,0.04335 -1.740064,0.171286 -0.345249,0.07768 -1.183838,0.924878 -1.305062,1.052158 -0.0942,0.09891 -0.33868,0.468477 -0.326258,0.636186 0.03865,0.521716 0.450072,0.611637 0.870043,0.685127 0.612119,0.107114 0.717939,0.107617 1.413809,-0.04894 0.15204,-0.03421 0.308848,-0.0798 0.43502,-0.171275 0.168862,-0.122423 0.634579,-0.582745 0.761277,-0.856406 0.03846,-0.08306 0.06217,-0.177962 0.05437,-0.269163 -0.01087,-0.127138 -0.02791,-0.268301 -0.108744,-0.36703 -0.06103,-0.07453 -0.181268,-0.06525 -0.271904,-0.09788 C 88.346218,84.051084 88.55548,84.0951 87.829588,84.0951 c -0.04742,0 -0.426882,0.02994 -0.489395,0.07341 -0.03771,0.02622 -0.466764,0.27618 -0.380629,0.489374 0.07971,0.197281 0.135048,0.149772 0.326257,0.171286 0.209537,0.02357 0.244163,0.08237 0.380649,-0.122344 0.0181,-0.02715 0,-0.06525 0,-0.09788 0,-0.04078 0,-0.08156 0,-0.122343"
       id="path112285" />
    <path
       style="fill:none;fill-opacity:1;stroke:#000000;stroke-width:1;stroke-linecap:round;stroke-linejoin:round"
       d="m 88.808374,84.731285 c -0.126876,-0.236529 -0.33175,-0.445669 -0.380627,-0.709594 -0.06346,-0.342643 0.819888,-1.240001 0.978787,-1.517065 0.04157,-0.07248 0.01738,-0.169772 0.05437,-0.244687 0.03761,-0.07616 0.120735,-0.122155 0.16314,-0.195754 0.08541,-0.148244 0.134421,-0.315347 0.217509,-0.464908 0.04436,-0.07985 0.108743,-0.146814 0.163118,-0.22022 0.258627,-0.349139 0.157951,-0.231407 0.435022,-0.538306 0.162507,-0.180004 0.347824,-0.341421 0.489395,-0.538318 0.06093,-0.08474 0.05333,-0.205185 0.108765,-0.293621 0.145552,-0.232212 0.331533,-0.436629 0.489392,-0.66066 0.07791,-0.110569 0.135038,-0.235355 0.217511,-0.342564 0.08133,-0.105725 0.188554,-0.189463 0.271883,-0.293621 0.08025,-0.100301 0.134514,-0.220059 0.217511,-0.318095 1.690529,-1.99685 -0.08962,0.174032 1.03316,-1.101093 0.260568,-0.295923 0.492864,-0.616522 0.761277,-0.905349 0.149402,-0.160763 0.332986,-0.286483 0.489394,-0.440441 0.831824,-0.818785 -0.154977,-0.06347 1.305063,-1.150033 0.616625,-0.458893 1.352702,-0.820486 2.011948,-1.198969 0.798151,-0.45823 1.605312,-0.890956 2.392598,-1.370256 0.20354,-0.123915 0.39441,-0.267923 0.59816,-0.391496 0.61981,-0.375907 1.26254,-0.713002 1.9032,-1.052158 0.1963,-0.103921 0.40272,-0.188087 0.59816,-0.293622 0.16739,-0.09039 0.32358,-0.200363 0.48939,-0.293629 0.50333,-0.283114 1.04492,-0.592541 1.57693,-0.831938 0.41389,-0.186246 0.82884,-0.370823 1.25067,-0.538308 0.16064,-0.06378 0.32954,-0.105602 0.48941,-0.171287 0.78076,-0.320778 1.5433,-0.717062 2.33821,-1.003215 0.17665,-0.06359 0.36625,-0.08573 0.54378,-0.14682 0.13156,-0.04527 0.25376,-0.114184 0.38063,-0.171277 0.30814,-0.07341 0.61891,-0.136541 0.92442,-0.22022 0.11202,-0.03068 0.21469,-0.09007 0.32627,-0.122344 0.14277,-0.0413 0.29106,-0.06086 0.435,-0.09788 0.43274,-0.111274 0.86656,-0.250478 1.30507,-0.342564 0.36188,-0.076 0.7226,-0.120749 1.08753,-0.171277 0.35996,-0.04984 0.72942,-0.108615 1.08755,-0.171287 0.50864,-0.08901 1.00876,-0.231972 1.52256,-0.293621 0.12624,-0.01515 0.2543,-0.01025 0.38065,-0.02447 0.41803,-0.04703 0.83427,-0.133302 1.25067,-0.195753 0.37879,-0.05681 0.76188,-0.07959 1.14192,-0.122344 0.56222,-0.06325 1.12178,-0.120533 1.68569,-0.171286 0.22128,-0.01992 0.43149,-0.07576 0.65253,-0.09787 0.34403,-0.03441 0.68883,-0.04524 1.03317,-0.07341 0.34478,-0.02821 0.68767,-0.0806 1.03318,-0.09788 0.25344,-0.01267 0.50766,0.0088 0.76127,0 0.17978,-0.0062 0.36357,-0.03735 0.54377,-0.04893 0.25209,-0.0162 0.5085,0 0.76128,0 0.47126,0 0.94253,0 1.4138,0 0.27189,0 0.54378,0 0.81567,0 0.10876,0 0.41505,-0.06279 0.32626,0 -0.16513,0.116769 -0.36251,0.179436 -0.54377,0.269154"
       id="path112289" />
    <path
       style="fill:none;fill-opacity:1;stroke:#000000;stroke-width:1;stroke-linecap:round;stroke-linejoin:round"
       d="m 131.76638,104.18396 c -0.27188,-0.0326 -0.54276,-0.0751 -0.81565,-0.0979 -0.45405,-0.0378 -0.90532,-0.016 -1.35944,-0.0245 -1.16013,-0.0217 -2.32039,-0.0252 -3.48015,-0.0489 -0.83353,-0.017 -1.66853,0.005 -2.50134,-0.0489 -0.72835,-0.0468 -1.45001,-0.14607 -2.17508,-0.22022 -2.11571,-0.21638 0.0728,0.0266 -1.25069,-0.12235 -0.99407,-0.11183 0.23064,0.0349 -1.41379,-0.22021 -0.88646,-0.13754 -1.78569,-0.20419 -2.6645,-0.39151 -1.13459,-0.24183 -2.25476,-0.56899 -3.37138,-0.88087 -0.65185,-0.18206 -1.3053,-0.35769 -1.95758,-0.53831 -0.16205,-0.0449 -0.32875,-0.0727 -0.48939,-0.12235 -0.12992,-0.0402 -0.24959,-0.11052 -0.38065,-0.14681 -0.50312,-0.13932 -1.01788,-0.23344 -1.52256,-0.36703 -0.19558,-0.0518 -1.15618,-0.32967 -1.19629,-0.34256 -0.12947,-0.0416 -0.25039,-0.10774 -0.38065,-0.14681 -0.14237,-0.0427 -0.29126,-0.0601 -0.43502,-0.0979 -0.43709,-0.11473 -0.87688,-0.22253 -1.30505,-0.367031 -0.14766,-0.04983 -0.28802,-0.11952 -0.43502,-0.171286 -0.39575,-0.139369 -0.80071,-0.25164 -1.1963,-0.391498 -0.12821,-0.04533 -0.252,-0.102704 -0.38064,-0.14681 -0.25214,-0.08644 -0.51083,-0.153463 -0.76128,-0.244697 -0.13073,-0.04762 -0.24972,-0.124153 -0.38063,-0.171275 -0.14173,-0.05102 -0.29497,-0.06689 -0.43502,-0.122344 -0.31416,-0.124404 -0.61221,-0.286729 -0.92442,-0.415975 -0.1414,-0.05854 -0.29172,-0.09307 -0.43502,-0.146809 -0.456346,-0.171125 -0.911616,-0.345959 -1.359432,-0.538308 -0.131091,-0.05631 -0.252114,-0.133792 -0.380629,-0.195755 -0.411798,-0.198538 -0.836879,-0.368477 -1.250691,-0.562782 -0.956629,-0.449186 -1.871403,-0.992502 -2.773224,-1.541534 -1.174487,-0.715031 0.657616,0.396182 -0.543786,-0.36703 -0.214101,-0.136012 -0.443565,-0.247695 -0.652512,-0.391496 -0.100438,-0.06912 -0.169072,-0.179147 -0.271884,-0.244689 -0.117325,-0.07479 -0.261337,-0.0997 -0.380648,-0.171286 -0.208252,-0.124944 -0.390719,-0.289674 -0.598159,-0.415965 -0.101864,-0.06201 -0.22741,-0.0801 -0.326256,-0.14682 -0.08552,-0.05772 -0.13949,-0.152704 -0.21751,-0.22022 -0.246163,-0.213014 -0.519308,-0.393952 -0.761278,-0.611717 -0.07669,-0.06902 -0.139491,-0.152707 -0.217508,-0.220221 -0.291979,-0.252661 -0.642512,-0.461224 -0.870043,-0.782994 -0.251082,-0.07978 -0.168376,-0.334103 -0.271883,-0.489374 -0.02705,-0.04058 -0.08261,-0.05671 -0.108747,-0.09788 -0.04784,-0.07535 -0.06092,-0.169336 -0.108765,-0.244687 -0.02614,-0.04117 -0.07972,-0.05869 -0.108746,-0.09788 -0.04038,-0.05452 -0.361013,-0.694648 -0.380648,-0.783003 -0.01061,-0.04777 0.01061,-0.09904 0,-0.146812 -0.0081,-0.03643 -0.04438,-0.06191 -0.05437,-0.09788 -0.0087,-0.03144 0,-0.06525 0,-0.09788 -0.01812,-0.07341 -0.0315,-0.148153 -0.05437,-0.22022 -0.01349,-0.04254 -0.04554,-0.0786 -0.05437,-0.122344 -0.0097,-0.04797 0.01619,-0.100634 0,-0.146812 -0.03946,-0.11244 -0.11474,-0.209203 -0.163137,-0.318095 -0.09026,-0.203081 -0.123195,-0.434591 -0.217511,-0.636185 -0.0258,-0.05517 -0.08097,-0.09262 -0.108765,-0.14681 -0.02734,-0.0533 -0.02785,-0.117575 -0.05437,-0.171288 -0.04645,-0.09407 -0.112168,-0.177448 -0.163118,-0.269153 -0.04804,-0.08647 -0.05071,-0.141846 -0.108765,-0.22022 -0.05056,-0.06825 -0.119111,-0.123114 -0.16314,-0.195752 -0.01267,-0.02093 0.0074,-0.05008 0,-0.0734 -0.03388,-0.106717 -0.09647,-0.203661 -0.163118,-0.293632 -0.02903,-0.03919 -0.07973,-0.05869 -0.108765,-0.09788 -0.02656,-0.03586 -0.02918,-0.08551 -0.05437,-0.122346 -0.04794,-0.07011 -0.115194,-0.125629 -0.163137,-0.195741 -0.02519,-0.03684 -0.02781,-0.08648 -0.05437,-0.122346 -0.02903,-0.03919 -0.07634,-0.06143 -0.108744,-0.09788 -1.9e-4,-2.14e-4 -0.135866,-0.183401 -0.163139,-0.22022 -0.01812,-0.02447 -0.08214,-0.06092 -0.05437,-0.07341 0.05014,-0.02257 0.108746,0.01632 0.163118,0.02447"
       id="path112297" />
    <path
       style="fill:none;fill-opacity:1;stroke:#000000;stroke-width:1;stroke-linecap:round;stroke-linejoin:round"
       d="m 89.787163,99.192336 c -0.178781,0.005 -0.960321,-0.03734 -1.250672,0.122343 -0.155289,0.08541 -0.446844,0.932171 0.05437,0.831941 0.101002,-0.0202 0.192866,-0.0808 0.271902,-0.146813 0.197395,-0.164957 0.558062,-1.104966 0.271883,-1.272378 -0.316015,-0.184865 -0.830881,-0.28415 -1.196297,-0.244687 -0.920015,0.09936 -1.449681,0.260331 -1.903204,1.076627 -0.190188,0.34232 0.247314,0.627801 0.489395,0.758521 0.115271,0.0622 0.253918,0.0646 0.380629,0.0979 0.0908,0.0238 0.178271,0.0664 0.271883,0.0734 0.293828,0.022 1.077233,0.0435 1.359435,-0.22022 0.155734,-0.14554 0.282781,-0.324477 0.380648,-0.513839 0.08609,-0.166566 0.163139,-0.350819 0.163139,-0.538316 0,-0.281552 -0.209565,-0.409112 -0.435022,-0.464908 -0.943327,-0.23346 -1.911197,-0.240935 -2.610107,0.562782 -0.207772,0.238932 -0.326273,0.413584 -0.326273,0.758531 0,0.0763 0.218543,0.29559 0.271883,0.3181 0.549587,0.23185 1.09661,0.31605 1.685711,0.24468 0.622387,-0.0754 1.026734,-0.11896 1.46818,-0.53832 0.159171,-0.1512 0.721699,-0.855524 0.652513,-0.905334 -0.413205,-0.29749 -1.014391,-0.09058 -1.522555,-0.122343 -0.533921,-0.03337 -1.023721,0.09149 -1.468181,0.391498 -0.09667,0.06525 -0.201083,0.12754 -0.271883,0.220221 -0.02817,0.03688 -0.428549,0.605648 -0.380648,0.831938 0.02029,0.0959 0.0889,0.18066 0.163136,0.24469 0.37945,0.32726 0.511887,0.34962 0.978789,0.41597 1.517124,0.21558 2.595769,-0.0793 3.534521,-1.296846 0.05152,-0.06682 0.259205,-0.623464 0.217512,-0.758537 -0.199861,-0.647478 -0.760058,-0.832421 -1.359437,-0.929814 -1.160129,-0.188508 -2.217973,-0.383736 -3.262638,0.269152 -0.133948,0.08371 -0.503555,0.6277 -0.38063,0.807472 0.422635,0.618079 1.253413,0.589034 1.903204,0.636196 0.574714,0.04171 1.584968,-0.03683 1.84881,-0.709597 0.352306,-0.89834 -0.09203,-1.092994 -0.652513,-1.223444 -0.358753,-0.0835 -0.721833,-0.15186 -1.087551,-0.195744 -0.172106,-0.02064 -0.785886,-0.01339 -0.978789,0.0734 -0.728789,0.327937 -0.626467,0.271502 -0.870042,0.783005 -0.05437,0.114186 -0.163119,0.21609 -0.163119,0.342561 0,0.113541 0.153125,0.617207 0.326258,0.734063 0.26911,0.181636 1.081217,0.277744 1.250669,0.293629 0.144603,0.01354 0.29037,-0.01146 0.435023,-0.02447 0.434353,-0.03909 0.912622,-0.159115 1.087551,-0.611716 0.03589,-0.09285 0.05437,-0.194083 0.05437,-0.293622 0,-0.910926 -0.25513,-0.936151 -1.087551,-1.076624 -0.128934,-0.02175 -0.414832,-0.04351 -0.543766,0 -0.135187,0.04562 -0.254024,0.129998 -0.380649,0.195744 -0.548214,0.284636 -0.626361,0.396661 -1.087532,0.88088"
       id="path112307" />
    <path
       style="fill:none;fill-opacity:1;stroke:#000000;stroke-width:1;stroke-linecap:round;stroke-linejoin:round"
       d="m 88.808374,98.458265 c 0.448432,-0.43299 0.295696,-1.088099 0.543788,-1.590466 0.163181,-0.330432 0.4148,-0.610124 0.598138,-0.929814 0.107315,-0.187124 0.171413,-0.396365 0.271883,-0.587251 0.063,-0.119695 0.145008,-0.228375 0.217511,-0.342564 0.234977,-0.370073 0.48541,-0.735256 0.761278,-1.076624 0.194442,-0.240612 0.403715,-0.468982 0.598158,-0.709594 0.0957,-0.118419 0.181255,-0.244686 0.271883,-0.36703 0.108752,-0.122343 0.222365,-0.240535 0.326256,-0.367032 0.179105,-0.218078 0.668579,-0.866662 0.924415,-1.150033 0.121972,-0.135102 0.256103,-0.258768 0.380648,-0.391499 1.829187,-1.949421 -0.103913,0.100783 0.978788,-1.076634 0.106735,-0.116073 0.224865,-0.221785 0.326256,-0.342554 0.300779,-0.358267 0.547425,-0.76237 0.870042,-1.101103 0.117726,-0.123605 0.253766,-0.228375 0.380648,-0.342564 0.235635,-0.212061 0.463269,-0.433364 0.706904,-0.636183 0.119427,-0.09942 0.260763,-0.170264 0.380629,-0.269155 0.09837,-0.08116 0.177091,-0.183854 0.271883,-0.269163 0.285993,-0.257381 0.614417,-0.470964 0.870042,-0.758526 0.06513,-0.07327 0.108759,-0.163126 0.163138,-0.244689 0.163132,-0.179438 0.317053,-0.367702 0.489394,-0.538316 1.004084,-0.994021 -0.298083,0.412297 0.598139,-0.538308 0.166358,-0.176451 0.326885,-0.358315 0.489395,-0.538316 0.0731,-0.081 0.13456,-0.173773 0.21751,-0.24469 0.0997,-0.08526 0.22177,-0.140866 0.32627,-0.220218 1.08403,-0.823148 -0.0129,-0.05505 1.14193,-0.905348 0.19556,-0.143997 0.39948,-0.276283 0.59814,-0.415965 0.16681,-0.117282 0.32038,-0.25295 0.48939,-0.36703 0.26635,-0.179779 0.53292,-0.361169 0.81567,-0.51385 0.35774,-0.19317 0.73937,-0.349139 1.08754,-0.562774 0.11183,-0.06863 0.21376,-0.152715 0.32627,-0.220221 0.21399,-0.128391 0.4403,-0.235725 0.65251,-0.367032 0.0785,-0.04856 0.13786,-0.124688 0.21751,-0.171286 0.10295,-0.06022 0.21973,-0.09323 0.32628,-0.14681 0.20174,-0.101462 0.40132,-0.207388 0.59814,-0.318097 0.36931,-0.207733 0.72429,-0.442704 1.08755,-0.660652 0.28196,-0.169166 0.58343,-0.303704 0.87002,-0.464907 0.47923,-0.269558 0.94255,-0.573667 1.41381,-0.856414 0.0883,-0.05299 0.18652,-0.08919 0.27189,-0.146809 0.0606,-0.04093 0.10008,-0.10971 0.16313,-0.146812 0.17431,-0.102566 0.36871,-0.167873 0.54377,-0.269153 0.15976,-0.09243 0.2864,-0.233127 0.43502,-0.342564 0.12514,-0.09214 0.25184,-0.182224 0.38065,-0.269163 0.33614,-0.226888 0.6748,-0.47008 1.03316,-0.660652 0.1053,-0.056 0.22194,-0.08904 0.32628,-0.14682 0.20463,-0.113334 0.40136,-0.24054 0.59813,-0.36703 0.0572,-0.03675 0.10204,-0.09256 0.16314,-0.122343 0.24721,-0.120507 0.52994,-0.16937 0.76128,-0.318087 0.0459,-0.02951 0.0725,-0.08156 0.10874,-0.122344 0.16314,-0.08156 0.32124,-0.174074 0.4894,-0.244697 0.19342,-0.08123 0.4021,-0.121092 0.59816,-0.195744 0.21989,-0.08373 0.43115,-0.189471 0.65253,-0.269163 0.10683,-0.03846 0.21962,-0.05888 0.32625,-0.09787 0.18367,-0.06715 0.36011,-0.153072 0.54377,-0.220221 0.36977,-0.135191 0.76634,-0.254357 1.14193,-0.36703 0.36146,-0.108436 0.72254,-0.250171 1.08755,-0.342563 0.10661,-0.02698 0.21803,-0.02946 0.32626,-0.04895 0.40012,-0.07202 0.79442,-0.180102 1.19629,-0.244686 0.45307,-0.07281 0.90539,-0.152112 1.35944,-0.220221 0.20516,-0.03077 0.57424,-0.08409 0.76128,-0.122343 0.19325,-0.03953 0.1615,-0.07673 0.38064,-0.09787 0.18061,-0.01741 0.36277,-0.01193 0.54377,-0.02447 0.19955,-0.01381 0.39782,-0.06213 0.59816,-0.0734 0.57956,-0.0326 1.1605,-0.04081 1.74006,-0.07341 0.46872,-0.02635 0.94371,-0.02447 1.41381,-0.02447 0.0893,0 0.48986,-0.02426 0.54377,0 0.0446,0.02008 0,0.09787 0,0.146809"
       id="path112309" />
    <path
       style="fill:none;fill-opacity:1;stroke:#000000;stroke-width:1;stroke-linecap:round;stroke-linejoin:round"
       d="m 90.494066,99.657243 c 0.53171,0.770917 0.349896,0.458447 0.59816,0.905337 0.01812,0.0326 0.02815,0.0713 0.05437,0.0979 0.04776,0.0484 0.110982,0.0788 0.163139,0.12234 0.07485,0.0626 0.140277,0.13618 0.217509,0.19576 0.05021,0.0387 0.115986,0.0555 0.163119,0.0979 0.02774,0.025 0.02903,0.0705 0.05439,0.0979 0.06627,0.0716 0.147671,0.12765 0.217511,0.19574 0.03907,0.0381 0.06666,0.0876 0.108745,0.12235 0.150121,0.12385 0.458318,0.27893 0.598159,0.36703 0.347863,0.21914 0.673764,0.48297 1.03316,0.68512 0.485674,0.27318 0.32771,0.15419 0.761277,0.36704 0.291794,0.14324 0.588678,0.27766 0.870042,0.44044 0.06332,0.0366 0.09904,0.11155 0.163138,0.14681 0.101771,0.056 0.219306,0.077 0.326256,0.12234 0.563274,0.23856 1.111247,0.4751 1.685692,0.68513 0.397282,0.14525 0.801097,0.26354 1.196298,0.41597 0.540895,0.20863 1.076711,0.43894 1.631319,0.61172 0.12509,0.039 0.25517,0.0602 0.38065,0.0979 0.49053,0.14716 0.97519,0.3248 1.46818,0.46491 0.3235,0.0919 0.65548,0.15211 0.97879,0.24469 0.0926,0.0265 0.17916,0.0718 0.27188,0.0979 0.19763,0.0556 0.39968,0.0943 0.59814,0.14681 0.10977,0.029 0.2155,0.0729 0.32628,0.0979 0.10729,0.0241 0.2175,0.0326 0.32626,0.0489 0.19938,0.0408 0.3996,0.0777 0.59815,0.12234 0.78248,0.17605 1.54998,0.39644 2.33823,0.53832 0.81471,0.14664 -0.75936,-0.0975 0.65251,0.14681 0.43112,0.0746 0.87862,0.0892 1.30506,0.19575 0.0742,0.0186 0.14314,0.0554 0.21751,0.0734 0.306,0.0741 0.61908,0.12081 0.92442,0.19576 0.11027,0.0271 0.21599,0.0708 0.32625,0.0979 0.30556,0.075 0.61873,0.11715 0.92442,0.19575 0.2368,0.0609 0.47054,0.13318 0.7069,0.19575 0.0718,0.019 0.14793,0.0229 0.21751,0.0489 0.0409,0.0153 0.0673,0.0594 0.10875,0.0734 10e-5,4e-5 0.65241,0.14678 0.65253,0.14681 0.36385,0.0955 0.71794,0.21803 1.08755,0.29363 0.26958,0.0551 0.54673,0.0808 0.81565,0.14681 0.0579,0.0142 0.10574,0.0573 0.16314,0.0734 0.0868,0.0244 0.53111,0.0878 0.59814,0.0979 0.25686,0.0385 0.50777,0.0898 0.76128,0.14681 0.27128,0.061 0.53597,0.13633 0.81567,0.14681 0.14401,0.005 0.38153,-0.0212 0.54376,0.0245 0.0927,0.0261 0.17791,0.0767 0.27189,0.0979 0.0888,0.02 0.1817,0.0123 0.27188,0.0245 0.21797,0.0294 0.43502,0.0653 0.65253,0.0979 0.68096,0.10214 1.37739,0.18578 2.06634,0.22022 0.0724,0.004 0.14521,-0.005 0.21751,0 0.38103,0.0286 0.76117,0.0881 1.14193,0.12234 0.54326,0.0489 1.08816,0.063 1.63132,0.0979 0.28957,0.0186 0.57924,0.0489 0.87002,0.0489 0.36252,0 0.72503,0 1.08755,0 0.17972,0 0.36463,-0.0134 0.54377,0 0.31395,0.0236 0.0123,0.0254 0.32625,0.049 0.19666,0.0147 0.40101,0 0.59816,0 0.47127,0 0.94254,0 1.41381,0 0.1343,0 0.78233,0.0465 0.81565,-0.0734 0.0119,-0.043 -0.0362,-0.0816 -0.0544,-0.12235"
       id="path112311" />
    <path
       style="fill:none;fill-opacity:1;stroke:#000000;stroke-width:1;stroke-linecap:round;stroke-linejoin:round"
       d="m 89.624045,84.878097 c -0.418478,0.08787 -0.865693,0.226166 -1.305063,0.195752 -0.07634,-0.0053 -0.14147,-0.06485 -0.217511,-0.07341 -0.433501,-0.04877 -0.869752,-0.06921 -1.305044,-0.09788 -0.579684,-0.03817 -1.160322,-0.06061 -1.740064,-0.09788 -0.180459,-0.01159 -0.950804,-0.0592 -1.196298,-0.09787 -0.68644,-0.108106 -1.348869,-0.314928 -2.011968,-0.51385 -0.14428,-0.04328 -0.291925,-0.07529 -0.43502,-0.122343 -0.328372,-0.107979 -0.649703,-0.236792 -0.978789,-0.342564 -0.981647,-0.315518 -0.117065,0.02904 -1.033161,-0.318087 -0.636958,-0.241359 -0.937842,-0.401887 -1.631318,-0.734071 -0.790236,-0.378537 -1.292119,-0.732512 -2.011968,-1.272379 -0.132278,-0.0992 -0.248348,-0.218881 -0.380627,-0.318087 -0.139962,-0.104968 -0.308015,-0.173313 -0.435022,-0.293632 -0.0607,-0.0575 -0.737908,-0.814316 -0.870043,-1.052158 -0.147775,-0.265993 -0.410186,-1.249997 -0.43502,-1.345776 -0.317934,-1.226252 -0.21749,-2.764089 -0.21749,-4.037346 0,-0.740402 0.02191,-1.487633 0,-2.226662 -0.0063,-0.212744 -0.04547,-0.423542 -0.05439,-0.636193 -0.0092,-0.220025 0.0127,-0.440801 0,-0.660652 -0.0236,-0.408741 -0.08387,-0.814778 -0.108747,-1.223444 -0.0114,-0.187248 0.0093,-0.375418 0,-0.562785 -0.0089,-0.180129 -0.04188,-0.358392 -0.05437,-0.538307 -0.07819,-1.125823 -0.113651,-2.094088 -0.380648,-3.205408 -0.05416,-0.225434 -0.153328,-0.437873 -0.217511,-0.660661 -0.06279,-0.21797 -0.105122,-0.44137 -0.163137,-0.660661 -0.123253,-0.465881 -0.269004,-0.925919 -0.380629,-1.394722 -0.0517,-0.217112 -0.07185,-0.440544 -0.108765,-0.660651 -0.140341,-0.836739 -0.143452,-0.77045 -0.271883,-1.810696 -0.100256,-0.812031 -0.127207,-1.634176 -0.217512,-2.44687 -0.11358,-1.022172 -0.380494,-2.028408 -0.43502,-3.058598 -0.009,-0.171044 0,-0.342567 0,-0.51385 0,-0.481219 -0.0281,-0.963258 0,-1.443656 0.0086,-0.147676 0.0375,-0.293479 0.05439,-0.44044 0.03749,-0.32611 0.06141,-0.653922 0.108744,-0.978749 0.02524,-0.173245 0.08053,-0.341056 0.108765,-0.51384 0.543883,-3.328452 -0.0519,0.242742 0.217511,-1.737286 0.111554,-0.819844 0.301953,-1.596013 0.598139,-2.37347 0.09431,-0.247546 0.433249,-0.807652 0.543766,-1.052158 0.13794,-0.305178 0.258993,-0.617788 0.380651,-0.929815 0.05966,-0.153014 0.09354,-0.31615 0.163136,-0.464907 0.148426,-0.317244 0.333235,-0.616306 0.489395,-0.929815 0.159181,-0.319573 0.27849,-0.657869 0.43502,-0.978748 0.297304,-0.609452 0.430853,-0.786903 0.924396,-1.394722 0.114734,-0.141301 0.254391,-0.260399 0.380648,-0.391507 0.467175,-0.48513 0.353219,-0.403557 1.033161,-0.954281 0.50283,-0.407272 1.095949,-0.749765 1.631317,-1.101092 0.580152,-0.380715 1.158182,-0.765844 1.794458,-1.052158 0.04828,-0.02173 1.059764,-0.343924 1.141925,-0.367031 0.151419,-0.04258 1.414159,-0.383068 1.794436,-0.464907 0.667943,-0.143746 1.340895,-0.263158 2.011969,-0.391497 0.271335,-0.05189 0.544187,-0.0956 0.815649,-0.146821 0.290454,-0.05481 0.57748,-0.12915 0.870043,-0.171277 1.249704,-0.179947 2.497018,-0.278561 3.752032,-0.391507 0.580477,-0.05224 1.159391,-0.121243 1.740064,-0.171277 1.265617,-0.10905 2.537892,-0.13867 3.806405,-0.195753 1.053377,-0.0474 2.106249,-0.151297 3.153873,-0.269154 0.254244,-0.0286 0.506611,-0.07332 0.761277,-0.09788 0.476513,-0.04595 1.609113,-0.131398 2.229473,-0.171277 0.81544,-0.05242 1.63241,-0.08213 2.44697,-0.14681 0.32686,-0.02595 0.65208,-0.07006 0.97879,-0.09788 0.34402,-0.02929 0.68966,-0.03876 1.03318,-0.07341 0.708,-0.07141 1.41258,-0.174477 2.12069,-0.244687 0.36157,-0.03585 0.72539,-0.04416 1.08756,-0.07341 2.01428,-0.162681 0.0341,-0.06329 2.88199,-0.220215 1.28443,-0.07077 2.57525,-0.07793 3.86077,-0.09788 1.30496,-0.02025 2.6103,-0.08355 3.91517,-0.09787 2.37424,-0.02606 4.74918,9.53e-4 7.12342,-0.02447 1.64925,-0.01767 3.29896,-0.05615 4.94833,-0.07341 1.48628,-0.01555 2.97269,-0.05144 4.45893,0 0.21799,0.0075 0.43483,0.03533 0.65252,0.04894 0.88801,0.0555 1.77771,0.09579 2.6645,0.171282 1.68784,0.14369 3.37159,0.320833 5.05707,0.489374 5.3e-4,4.6e-5 1.63087,0.146781 1.63132,0.14681 0.86595,0.05702 1.746,0.06836 2.61011,0.171287 1.05516,0.125684 1.02538,0.138378 1.84881,0.269154 0.41675,0.06619 0.83287,0.136665 1.25069,0.195753 0.21672,0.03065 0.43668,0.03698 0.65251,0.0734 0.21984,0.0371 0.43502,0.09788 0.65253,0.146821 0.38064,0.05709 0.76102,0.115986 1.14193,0.171277 0.47037,0.06828 0.94765,0.100409 1.41381,0.195753 0.39215,0.04104 0.75966,0.186589 1.14192,0.269154 0.47048,0.10162 0.9409,0.204022 1.41381,0.29362 0.1985,0.03761 0.40103,0.05353 0.59814,0.09788 0.13002,0.02925 0.2509,0.09188 0.38065,0.122344 0.28775,0.06756 0.58107,0.109097 0.87004,0.171287 1.04959,0.225888 2.09911,0.457248 3.15387,0.660651 0.86948,0.167672 -0.0278,-0.03527 1.1963,0.171286 0.18319,0.03091 0.36167,0.08547 0.54377,0.122344 0.7787,0.157684 1.55718,0.317522 2.33822,0.464907 0.34443,0.065 0.68778,0.135979 1.03316,0.195754 0.41579,0.07196 0.83635,0.11584 1.25069,0.195744 0.28064,0.05412 0.92822,0.221078 1.14191,0.269153 0.91882,0.206726 -0.29626,-0.112125 1.03318,0.220221 0.11015,0.02754 0.21548,0.07295 0.32625,0.09788 0.14347,0.03228 0.29186,0.0398 0.43502,0.07341 0.43785,0.102796 0.87139,0.223316 1.30505,0.342563 0.28747,0.07905 0.7458,0.23657 1.03318,0.293621 0.43271,0.0859 0.87143,0.138922 1.30504,0.22022 0.21913,0.04108 0.43311,0.107316 0.65253,0.14681 0.23412,0.04214 0.47322,0.05339 0.7069,0.09788 0.70925,0.135026 1.41211,0.302067 2.12072,0.440441 0.25225,0.04926 0.50822,0.07739 0.76127,0.122343 0.43578,0.0774 0.86909,0.168394 1.30507,0.244687 0.21664,0.03791 0.43703,0.0538 0.65251,0.09788 0.18394,0.03762 0.36033,0.106867 0.54379,0.14681 0.37878,0.08247 0.76314,0.137748 1.14192,0.220221 0.18345,0.03994 0.35999,0.108414 0.54377,0.14681 0.32422,0.06774 0.65503,0.101358 0.97879,0.171287 0.13027,0.02814 0.25144,0.08964 0.38064,0.122343 0.70479,0.178393 0.27169,0.02544 0.97879,0.171277 0.66309,0.136757 1.30114,0.352732 1.95758,0.513851 0.39441,0.09681 0.80593,0.163761 1.19629,0.269154 0.0768,0.02072 0.14201,0.07296 0.21751,0.09788 0.19695,0.06499 0.40301,0.101032 0.59815,0.171277 0.0783,0.02818 0.14165,0.08821 0.2175,0.122344 0.0698,0.0314 0.14678,0.04423 0.21752,0.07341 0.30816,0.127109 0.62031,0.254655 0.92441,0.391497 0.56384,0.253719 0.10748,0.03125 0.76128,0.415974 0.0888,0.05224 0.18474,0.09191 0.27188,0.14681 0.0945,0.05953 0.17813,0.135098 0.2719,0.195754 0.2668,0.172577 0.68982,0.379815 0.92442,0.636184 0.16006,0.17492 0.27494,0.387865 0.435,0.562784 0.0952,0.104013 0.22608,0.169966 0.32627,0.269154 3e-5,2.7e-5 0.43501,0.538289 0.43503,0.538317 0.1027,0.164323 0.1706,0.348634 0.27188,0.513841 0.0444,0.07241 0.12187,0.121506 0.16312,0.195754 0.13367,0.240604 0.24964,0.494169 0.32627,0.758527 0.0277,0.09561 0.0277,0.197721 0.0544,0.293631 0.10221,0.367973 0.28121,0.716012 0.32625,1.101092 0.008,0.06481 -0.005,0.130722 0,0.195753 0.0128,0.1555 0.0425,0.309338 0.0544,0.464907 0.0209,0.273194 0.0185,0.753718 0,1.003215 -0.006,0.08333 -0.0478,0.161396 -0.0544,0.244687 -0.0228,0.286497 0.0354,0.594334 0,0.880881 -0.009,0.07504 -0.0416,0.145691 -0.0544,0.220221 -0.0236,0.137835 -0.0299,0.278288 -0.0544,0.415964 -0.12308,0.692327 0.0105,-0.165042 -0.10877,0.318097 -0.0509,0.206099 -0.0294,0.310813 -0.10874,0.489374 -0.0544,0.106032 -0.10876,0.212065 -0.16314,0.318097 -0.0181,0.05709 -0.03,0.116539 -0.0544,0.171277 -0.0303,0.06821 -0.08,0.126852 -0.10875,0.195753 -0.0261,0.06251 -0.03,0.132578 -0.0544,0.195744 -0.0185,0.04794 -0.33615,0.8413 -0.38063,0.905348 -0.0417,0.06009 -0.12185,0.08642 -0.16314,0.14681 -0.0338,0.04945 -0.0336,0.115113 -0.0544,0.171287 -0.0627,0.169222 -0.14526,0.351257 -0.21751,0.513841 -0.0152,0.0341 -0.0362,0.06525 -0.0544,0.09788 -0.0362,0.03263 -0.0851,0.05524 -0.10876,0.09788 -0.0329,0.0592 -0.0308,0.132247 -0.0544,0.195753 -0.0284,0.07677 -0.069,0.148648 -0.10875,0.220211 -0.10341,0.186126 -0.27449,0.377497 -0.32627,0.58725 -0.008,0.03167 0.0144,0.06862 0,0.09788 -0.0764,0.154811 -0.11271,0.092 -0.21751,0.195754 -0.14782,0.146335 -0.23624,0.343179 -0.38063,0.489374 -0.0993,0.100502 -0.1492,0.064 -0.27189,0.14681 -1.3e-4,9e-5 -0.10864,0.146712 -0.10876,0.14682 -0.0325,0.02926 -0.0725,0.04893 -0.10875,0.0734 -0.0362,0.02447 -0.0786,0.04174 -0.10876,0.07341 -0.0239,0.02513 -0.0691,0.148951 -0.10875,0.171277 -0.0495,0.02783 -0.11136,0.02565 -0.16314,0.04894 -5e-5,2.5e-5 -0.32618,0.195709 -0.32625,0.195744 -0.12374,0.06363 -0.26532,0.09345 -0.38065,0.171286 -0.0252,0.01703 -0.0291,0.05637 -0.0544,0.0734 -0.0873,0.05896 -0.29344,0.113184 -0.38065,0.146821 -0.2182,0.08416 -0.42848,0.201938 -0.65253,0.269153 -0.0527,0.0158 -0.10948,0.0124 -0.16312,0.02447 -1.6e-4,3.7e-5 -0.32611,0.09785 -0.32627,0.09788 -0.15354,0.02303 -0.33394,0 -0.4894,0 -0.17342,0 -0.55682,0.04562 -0.7069,-0.04893 -0.0462,-0.02908 -0.0725,-0.08156 -0.10875,-0.122344"
       id="path112313" />
    <path
       style="fill:none;fill-opacity:1;stroke:#000000;stroke-width:1;stroke-linecap:round;stroke-linejoin:round"
       d="m 87.992725,99.901933 c -0.235636,-0.01632 -0.470885,-0.03971 -0.706904,-0.04895 -0.597696,-0.02339 -1.196305,0 -1.794457,0 -0.669501,0 -1.342802,-0.02008 -2.011947,0 -1.339421,0.04019 -2.687124,0.103209 -4.023915,0.195757 -0.308372,0.0213 -0.615757,0.0567 -0.924415,0.0734 -0.144796,0.008 -0.290073,-0.004 -0.435023,0 -0.145179,0.004 -0.289806,0.022 -0.435019,0.0245 -0.453073,0.008 -0.906437,-0.012 -1.359416,0 -0.549326,0.0146 -0.818283,0.0511 -1.413809,0.0734 -0.468641,0.0176 -0.945177,0 -1.413809,0 -0.833787,0 -1.667574,0 -2.501361,0 -0.652526,0 -1.305052,0 -1.957575,0 -0.342604,0 -0.690959,-0.0193 -1.033161,0 -0.492712,0.0277 -0.979228,0.12806 -1.468202,0.19576 -0.883724,0.12234 0.315632,-0.0555 -0.380627,0.0489 -0.05438,0.008 -0.19967,-0.0166 -0.163139,0.0245 0.05963,0.0671 0.635616,0.17971 0.706906,0.19575"
       id="path112315" />
    <rect
       style="fill:#6ae4a3;fill-opacity:0;stroke:none;stroke-width:1;stroke-linecap:round;stroke-linejoin:round"
       id="rect112317"
       width="144.15401"
       height="92.198372"
       x="59.479389"
       y="26.503557" />
    <path
       style="fill:#6ae4a3;fill-opacity:1;stroke:#000000;stroke-width:1;stroke-linecap:round;stroke-linejoin:round"
       d="m 146.47932,47.437509 c -0.0181,0.07137 -0.0603,0.140709 -0.0544,0.214104 0.004,0.04885 0.0595,0.07859 0.0816,0.122343 0.0461,0.0913 0.0799,0.188352 0.12235,0.28139 0.0255,0.05586 0.0596,0.107827 0.0816,0.165165 0.0397,0.103594 0.14736,0.575493 0.14953,0.587251 0.0231,0.124627 0.0115,0.253496 0.0272,0.379266 0.0148,0.118725 0.0389,0.23616 0.0544,0.354798 0.007,0.05477 0.007,0.110356 0.0136,0.165165 0.007,0.05336 0.0227,0.105447 0.0272,0.159046 0.0158,0.189295 0.0136,0.313457 0.0136,0.489376 0,0.05506 0.006,0.110463 0,0.165163 -0.0343,0.301395 -0.0501,0.238256 -0.0816,0.464908 -0.0172,0.123934 -0.0257,0.248934 -0.0408,0.373149 -0.004,0.03471 -0.0124,0.06905 -0.0136,0.103991 -0.003,0.09986 0,0.199828 0,0.299742 0,0.03466 -0.002,0.06941 0,0.103994 0.002,0.03286 0.009,0.06525 0.0136,0.09787 0.005,0.05709 0.0106,0.114089 0.0136,0.171282 0.006,0.108946 0.004,0.266583 0,0.367033 -0.002,0.03695 -0.0114,0.07319 -0.0136,0.110108 -0.0247,0.41198 0.0481,-0.336349 -0.0136,0.33033 -0.002,0.02678 -0.0111,0.05274 -0.0136,0.07952 -0.005,0.05279 0,0.106032 0,0.159049 0,0.03636 -0.006,0.08817 0,0.122343 0.001,0.0075 0.0109,0.01121 0.0136,0.01835 0.002,0.0057 -0.002,0.01262 0,0.01835 0.003,0.0071 0.007,0.01523 0.0136,0.01835 0.0125,0.0056 0.0275,0.0025 0.0408,0.0061 0.0322,0.0087 0.0632,0.02133 0.0952,0.03059 0.11191,0.03237 0.10114,0.02495 0.23111,0.04282 0.0645,0.0089 0.4914,0.06967 0.59814,0.07952 0.095,0.0088 0.1905,0.0099 0.28549,0.01835 0.20413,0.01809 0.40758,0.04335 0.61174,0.06117 0.60665,0.05297 0.002,-0.01933 0.57096,0.04894 0.52955,0.06354 1.05823,0.151812 1.59053,0.189632 0.0859,0.0061 0.17228,0.0019 0.2583,0.0061 0.0817,0.004 0.16313,0.01223 0.24469,0.01835 0.14954,0.0082 0.29901,0.0176 0.44861,0.02447 0.25801,0.01185 0.51676,0.01224 0.77488,0.01835 0.23128,0.0055 0.46183,0.01835 0.69331,0.01835 0.0713,0 0.35199,0.01445 0.43502,-0.01224 0.0568,-0.01824 0.15135,-0.08142 0.19032,-0.110108 0.0159,-0.01169 0.0266,-0.02914 0.0408,-0.04282 0.0175,-0.01693 0.0392,-0.02983 0.0544,-0.04894 0.10491,-0.132183 0.18705,-0.296904 0.2311,-0.45879 0.01,-0.03569 0.009,-0.07339 0.0136,-0.11011 0.0199,-0.165283 0.0197,-0.156698 0.0272,-0.373148 0.003,-0.08966 0,-0.179439 0,-0.269158 0,-0.09176 0.003,-0.183565 0,-0.275273 -0.002,-0.04709 -0.0113,-0.09364 -0.0136,-0.140696 -0.007,-0.134414 0.004,-0.269228 0,-0.403734 -0.002,-0.04912 -0.0114,-0.09772 -0.0136,-0.146812 -0.002,-0.05092 0.003,-0.102035 0,-0.152932 -0.0186,-0.331573 -0.0594,-0.66113 -0.0952,-0.990984 -0.0247,-0.227698 -0.007,-0.104104 -0.0136,-0.336447 -0.003,-0.102012 -0.0106,-0.203848 -0.0136,-0.305859 -0.002,-0.05503 0.002,-0.110155 0,-0.165165 -0.002,-0.05723 -0.0106,-0.114088 -0.0136,-0.171282 -0.006,-0.114117 -0.007,-0.228448 -0.0136,-0.342561 -0.003,-0.05516 -0.0114,-0.109969 -0.0136,-0.165165 -0.0108,-0.266705 0.007,-0.534504 0,-0.801353 -0.0163,-0.592979 0.006,-0.137344 -0.0408,-0.501601 -0.007,-0.05278 -0.005,-0.106479 -0.0136,-0.159049 -0.0302,-0.193293 -0.0878,-0.377189 -0.12235,-0.568898 -0.003,-0.01605 0.003,-0.03283 0,-0.04894 -7.1e-4,-0.0044 -0.0177,-0.06913 -0.0272,-0.07341 -0.0125,-0.0056 -0.0271,-0.0053 -0.0408,-0.0061 -0.0589,-0.0033 -0.11783,-0.0037 -0.17672,-0.0061 -0.0929,-0.0038 -0.17844,-0.01032 -0.27189,-0.01223 -0.16763,-0.0034 -0.33532,0 -0.50299,0 -0.14953,0 -0.2993,-0.0082 -0.44861,0 -0.2769,0.0153 -0.55358,0.03703 -0.82925,0.06729 -0.0909,0.01 -0.18097,0.02683 -0.27189,0.0367 -0.56083,0.06092 -1.12314,0.105764 -1.68569,0.146813 -0.16316,0.0119 -0.32652,0.02143 -0.48939,0.0367 -0.16323,0.0153 -0.32632,0.03216 -0.4894,0.04894 -0.05,0.0051 -0.0995,0.01413 -0.14954,0.01835 -0.095,0.008 -0.19039,0.01122 -0.28548,0.01835 -0.10437,0.0078 -0.20807,0.01893 -0.31267,0.02447 -0.11463,0.0061 -0.22544,0.0087 -0.33985,0.01835 -0.12258,0.01034 -0.24434,0.0076 -0.36705,0.01224 -0.0868,0.0033 -0.17144,0.01223 -0.25829,0.01223 -0.0453,0 -0.0906,0 -0.13595,0 -0.0226,0 -0.0453,0 -0.068,0 -0.0136,0 -0.0518,-0.0079 -0.0408,0 0.0323,0.02323 0.0725,0.03263 0.10875,0.04894"
       id="path110294" />
    <path
       style="fill:#6ae4a3;fill-opacity:1;stroke:#000000;stroke-width:1;stroke-linecap:round;stroke-linejoin:round"
       d="m 149.67399,48.985159 c -0.11471,0.348424 -0.001,-0.03976 -0.0816,0.507729 -0.0107,0.07286 -0.0345,0.1432 -0.0544,0.214101 -0.0436,0.155467 -0.0879,0.310772 -0.13595,0.464907 -0.11647,0.373436 -0.0537,0.08858 -0.13594,0.458788 -0.0547,0.246296 -0.0857,0.332011 -0.0952,0.544432 -0.002,0.04889 -0.0146,0.100103 0,0.146813 0.0236,0.07563 0.11879,0.27106 0.20391,0.342563 0.14831,0.124571 0.35802,0.154562 0.54378,0.17128 0.0588,0.0053 0.11767,0.01224 0.17672,0.01224 0.19553,0 0.38857,-0.04954 0.57096,-0.116227 0.0319,-0.01167 0.066,-0.01921 0.0952,-0.0367 0.0531,-0.03185 0.10426,-0.0679 0.14954,-0.11011 0.01,-0.0089 0.0769,-0.132223 0.0816,-0.140696"
       id="path111531" />
    <path
       style="fill:#6ae4a3;fill-opacity:1;stroke:#000000;stroke-width:1;stroke-linecap:round;stroke-linejoin:round"
       d="m 149.02146,50.355411 c 0.33533,-0.03874 0.67065,-0.07748 1.00598,-0.116226 0.13141,-0.01427 0.26288,-0.02804 0.39423,-0.04282 0.0549,-0.0062 0.0457,-0.02158 0.0272,0.0367"
       id="path111533" />
    <path
       style="fill:#6ae4a3;fill-opacity:1;stroke:#000000;stroke-width:1;stroke-linecap:round;stroke-linejoin:round"
       d="m 154.56767,84.276535 c -0.0181,0.07137 -0.0603,0.140709 -0.0544,0.214104 0.004,0.04885 0.0595,0.07859 0.0816,0.122343 0.0461,0.0913 0.0799,0.188352 0.12235,0.28139 0.0255,0.05586 0.0596,0.107827 0.0816,0.165165 0.0397,0.103594 0.14736,0.575493 0.14953,0.587251 0.0231,0.124627 0.0115,0.253496 0.0272,0.379266 0.0148,0.118725 0.0389,0.23616 0.0544,0.354798 0.007,0.05477 0.007,0.110356 0.0136,0.165165 0.007,0.05336 0.0227,0.105447 0.0272,0.159046 0.0158,0.189295 0.0136,0.313457 0.0136,0.489376 0,0.05506 0.006,0.110463 0,0.165163 -0.0343,0.301395 -0.0501,0.238256 -0.0816,0.464908 -0.0172,0.123934 -0.0257,0.248934 -0.0408,0.373149 -0.004,0.03471 -0.0124,0.06905 -0.0136,0.103991 -0.003,0.09986 0,0.199828 0,0.299742 0,0.03466 -0.002,0.06941 0,0.103994 0.002,0.03286 0.009,0.06525 0.0136,0.09787 0.005,0.05709 0.0106,0.114089 0.0136,0.171282 0.006,0.108946 0.004,0.266583 0,0.36703 -0.002,0.037 -0.0114,0.0732 -0.0136,0.11011 -0.0247,0.41198 0.0481,-0.336348 -0.0136,0.33033 -0.002,0.0268 -0.0111,0.0527 -0.0136,0.0795 -0.005,0.0528 0,0.10603 0,0.15905 0,0.0364 -0.006,0.0882 0,0.12234 0.001,0.008 0.0109,0.0112 0.0136,0.0183 0.002,0.006 -0.002,0.0126 0,0.0183 0.003,0.007 0.007,0.0152 0.0136,0.0184 0.0125,0.006 0.0275,0.002 0.0408,0.006 0.0322,0.009 0.0632,0.0213 0.0952,0.0306 0.11191,0.0324 0.10114,0.025 0.23111,0.0428 0.0645,0.009 0.4914,0.0697 0.59814,0.0795 0.095,0.009 0.1905,0.01 0.28549,0.0184 0.20413,0.0181 0.40758,0.0433 0.61174,0.0612 0.60665,0.053 0.002,-0.0193 0.57096,0.0489 0.52955,0.0635 1.05823,0.15181 1.59053,0.18964 0.0859,0.006 0.17228,0.002 0.2583,0.006 0.0817,0.004 0.16313,0.0122 0.24469,0.0183 0.14954,0.008 0.29901,0.0176 0.44861,0.0245 0.25801,0.0118 0.51676,0.0122 0.77488,0.0183 0.23128,0.005 0.46183,0.0183 0.69331,0.0183 0.0713,0 0.35199,0.0144 0.43502,-0.0122 0.0568,-0.0182 0.15135,-0.0814 0.19032,-0.1101 0.0159,-0.0117 0.0266,-0.0291 0.0408,-0.0428 0.0175,-0.0169 0.0392,-0.0298 0.0544,-0.0489 0.10491,-0.13219 0.18705,-0.29691 0.2311,-0.45879 0.01,-0.0357 0.009,-0.0734 0.0136,-0.11011 0.0199,-0.16529 0.0197,-0.1567 0.0272,-0.37315 0.003,-0.0897 0,-0.17944 0,-0.26916 0,-0.09176 0.003,-0.183564 0,-0.275272 -0.002,-0.04709 -0.0113,-0.09364 -0.0136,-0.140696 -0.007,-0.134414 0.004,-0.269228 0,-0.403734 -0.002,-0.04912 -0.0114,-0.09772 -0.0136,-0.146812 -0.002,-0.05092 0.003,-0.102035 0,-0.152932 -0.0186,-0.331573 -0.0594,-0.66113 -0.0952,-0.990984 -0.0247,-0.227698 -0.007,-0.104104 -0.0136,-0.336447 -0.003,-0.102012 -0.0106,-0.203848 -0.0136,-0.305859 -0.002,-0.05503 0.002,-0.110155 0,-0.165165 -0.002,-0.05723 -0.0106,-0.114088 -0.0136,-0.171282 -0.006,-0.114117 -0.007,-0.228448 -0.0136,-0.342561 -0.003,-0.05516 -0.0114,-0.109969 -0.0136,-0.165165 -0.0108,-0.266705 0.007,-0.534504 0,-0.801353 -0.0163,-0.592979 0.006,-0.137344 -0.0408,-0.501601 -0.007,-0.05278 -0.005,-0.106479 -0.0136,-0.159049 -0.0302,-0.193293 -0.0878,-0.377189 -0.12235,-0.568898 -0.003,-0.01605 0.003,-0.03283 0,-0.04894 -7.1e-4,-0.0044 -0.0177,-0.06913 -0.0272,-0.07341 -0.0125,-0.0056 -0.0271,-0.0053 -0.0408,-0.0061 -0.0589,-0.0033 -0.11783,-0.0037 -0.17672,-0.0061 -0.0929,-0.0038 -0.17844,-0.01032 -0.27189,-0.01223 -0.16763,-0.0034 -0.33532,0 -0.50299,0 -0.14953,0 -0.2993,-0.0082 -0.44861,0 -0.2769,0.0153 -0.55358,0.03703 -0.82925,0.06729 -0.0909,0.01 -0.18097,0.02683 -0.27189,0.0367 -0.56083,0.06092 -1.12314,0.105764 -1.68569,0.146813 -0.16316,0.0119 -0.32652,0.02143 -0.48939,0.0367 -0.16323,0.0153 -0.32632,0.03216 -0.4894,0.04894 -0.05,0.0051 -0.0995,0.01413 -0.14954,0.01835 -0.095,0.008 -0.19039,0.01122 -0.28548,0.01835 -0.10437,0.0078 -0.20807,0.01893 -0.31267,0.02447 -0.11463,0.0061 -0.22544,0.0087 -0.33985,0.01835 -0.12258,0.01034 -0.24434,0.0076 -0.36705,0.01224 -0.0868,0.0033 -0.17144,0.01223 -0.25829,0.01223 -0.0453,0 -0.0906,0 -0.13595,0 -0.0226,0 -0.0453,0 -0.068,0 -0.0136,0 -0.0518,-0.0079 -0.0408,0 0.0323,0.02323 0.0725,0.03263 0.10875,0.04894"
       id="path110294-6" />
    <path
       style="fill:#6ae4a3;fill-opacity:1;stroke:#000000;stroke-width:1;stroke-linecap:round;stroke-linejoin:round"
       d="m 157.76234,85.824185 c -0.11471,0.348424 -0.001,-0.03976 -0.0816,0.507729 -0.0107,0.07286 -0.0345,0.1432 -0.0544,0.214101 -0.0436,0.155467 -0.0879,0.310772 -0.13595,0.464907 -0.11647,0.373436 -0.0537,0.08858 -0.13594,0.458788 -0.0547,0.246296 -0.0857,0.332011 -0.0952,0.544432 -0.002,0.04889 -0.0146,0.100103 0,0.146813 0.0236,0.07563 0.11879,0.27106 0.20391,0.342563 0.14831,0.124571 0.35802,0.154562 0.54378,0.17128 0.0588,0.0053 0.11767,0.01224 0.17672,0.01224 0.19553,0 0.38857,-0.04954 0.57096,-0.116227 0.0319,-0.01167 0.066,-0.01921 0.0952,-0.0367 0.0531,-0.03185 0.10426,-0.0679 0.14954,-0.11011 0.01,-0.0089 0.0769,-0.132223 0.0816,-0.140696"
       id="path111531-2" />
    <path
       style="fill:#6ae4a3;fill-opacity:1;stroke:#000000;stroke-width:1;stroke-linecap:round;stroke-linejoin:round"
       d="m 157.10981,87.194437 c 0.33533,-0.03874 0.67065,-0.07748 1.00598,-0.116226 0.13141,-0.01427 0.26288,-0.02804 0.39423,-0.04282 0.0549,-0.0062 0.0457,-0.02158 0.0272,0.0367"
       id="path111533-5" />
  </g>
</svg>
