<?xml version="1.0" encoding="UTF-8" standalone="no"?>
<!-- Created with Inkscape (http://www.inkscape.org/) -->

<svg
   width="132.66243mm"
   height="80.352081mm"
   viewBox="0 0 132.66243 80.352085"
   version="1.1"
   id="svg5"
   sodipodi:docname="acc-1.svg"
   inkscape:version="1.2.2 (b0a8486541, 2022-12-01)"
   xmlns:inkscape="http://www.inkscape.org/namespaces/inkscape"
   xmlns:sodipodi="http://sodipodi.sourceforge.net/DTD/sodipodi-0.dtd"
   xmlns="http://www.w3.org/2000/svg"
   xmlns:svg="http://www.w3.org/2000/svg">
  <sodipodi:namedview
     id="namedview7"
     pagecolor="#ffffff"
     bordercolor="#666666"
     borderopacity="1.0"
     inkscape:showpageshadow="2"
     inkscape:pageopacity="0.0"
     inkscape:pagecheckerboard="0"
     inkscape:deskcolor="#d1d1d1"
     inkscape:document-units="mm"
     showgrid="false"
     inkscape:zoom="1.6388654"
     inkscape:cx="2.4407129"
     inkscape:cy="151.3242"
     inkscape:window-width="2560"
     inkscape:window-height="1372"
     inkscape:window-x="0"
     inkscape:window-y="32"
     inkscape:window-maximized="1"
     inkscape:current-layer="layer1"
     showguides="true" />
  <defs
     id="defs2" />
  <g
     inkscape:label="Layer 1"
     inkscape:groupmode="layer"
     id="layer1"
     transform="translate(-65.470752,-32.844491)">
    <path
       style="fill:none;fill-opacity:1;stroke:#000000;stroke-width:1;stroke-linecap:round;stroke-linejoin:round"
       d="m 89.624045,84.878097 c -0.418478,0.08787 -0.865693,0.226166 -1.305063,0.195752 -0.07634,-0.0053 -0.14147,-0.06485 -0.217511,-0.07341 -0.433501,-0.04877 -0.869752,-0.06921 -1.305044,-0.09788 -0.579684,-0.03817 -1.160322,-0.06061 -1.740064,-0.09788 -0.180459,-0.01159 -0.950804,-0.0592 -1.196298,-0.09787 -0.68644,-0.108106 -1.348869,-0.314928 -2.011968,-0.51385 -0.14428,-0.04328 -0.291925,-0.07529 -0.43502,-0.122343 -0.328372,-0.107979 -0.649703,-0.236792 -0.978789,-0.342564 -0.981647,-0.315518 -0.117065,0.02904 -1.033161,-0.318087 -0.636958,-0.241359 -0.937842,-0.401887 -1.631318,-0.734071 -0.790236,-0.378537 -1.292119,-0.732512 -2.011968,-1.272379 -0.132278,-0.0992 -0.248348,-0.218881 -0.380627,-0.318087 -0.139962,-0.104968 -0.308015,-0.173313 -0.435022,-0.293632 -0.0607,-0.0575 -0.737908,-0.814316 -0.870043,-1.052158 -0.147775,-0.265993 -0.410186,-1.249997 -0.43502,-1.345776 -0.317934,-1.226252 -0.21749,-2.764089 -0.21749,-4.037346 0,-0.740402 0.02191,-1.487633 0,-2.226662 -0.0063,-0.212744 -0.04547,-0.423542 -0.05439,-0.636193 -0.0092,-0.220025 0.0127,-0.440801 0,-0.660652 -0.0236,-0.408741 -0.08387,-0.814778 -0.108747,-1.223444 -0.0114,-0.187248 0.0093,-0.375418 0,-0.562785 -0.0089,-0.180129 -0.04188,-0.358392 -0.05437,-0.538307 -0.07819,-1.125823 -0.113651,-2.094088 -0.380648,-3.205408 -0.05416,-0.225434 -0.153328,-0.437873 -0.217511,-0.660661 -0.06279,-0.21797 -0.105122,-0.44137 -0.163137,-0.660661 -0.123253,-0.465881 -0.269004,-0.925919 -0.380629,-1.394722 -0.0517,-0.217112 -0.07185,-0.440544 -0.108765,-0.660651 -0.140341,-0.836739 -0.143452,-0.77045 -0.271883,-1.810696 -0.100256,-0.812031 -0.127207,-1.634176 -0.217512,-2.44687 -0.11358,-1.022172 -0.380494,-2.028408 -0.43502,-3.058598 -0.009,-0.171044 0,-0.342567 0,-0.51385 0,-0.481219 -0.0281,-0.963258 0,-1.443656 0.0086,-0.147676 0.0375,-0.293479 0.05439,-0.44044 0.03749,-0.32611 0.06141,-0.653922 0.108744,-0.978749 0.02524,-0.173245 0.08053,-0.341056 0.108765,-0.51384 0.543883,-3.328452 -0.0519,0.242742 0.217511,-1.737286 0.111554,-0.819844 0.301953,-1.596013 0.598139,-2.37347 0.09431,-0.247546 0.433249,-0.807652 0.543766,-1.052158 0.13794,-0.305178 0.258993,-0.617788 0.380651,-0.929815 0.05966,-0.153014 0.09354,-0.31615 0.163136,-0.464907 0.148426,-0.317244 0.333235,-0.616306 0.489395,-0.929815 0.159181,-0.319573 0.27849,-0.657869 0.43502,-0.978748 0.297304,-0.609452 0.430853,-0.786903 0.924396,-1.394722 0.114734,-0.141301 0.254391,-0.260399 0.380648,-0.391507 0.467175,-0.48513 0.353219,-0.403557 1.033161,-0.954281 0.50283,-0.407272 1.095949,-0.749765 1.631317,-1.101092 0.580152,-0.380715 1.158182,-0.765844 1.794458,-1.052158 0.04828,-0.02173 1.059764,-0.343924 1.141925,-0.367031 0.151419,-0.04258 1.414159,-0.383068 1.794436,-0.464907 0.667943,-0.143746 1.340895,-0.263158 2.011969,-0.391497 0.271335,-0.05189 0.544187,-0.0956 0.815649,-0.146821 0.290454,-0.05481 0.57748,-0.12915 0.870043,-0.171277 1.249704,-0.179947 2.497018,-0.278561 3.752032,-0.391507 0.580477,-0.05224 1.159391,-0.121243 1.740064,-0.171277 1.265617,-0.10905 2.537892,-0.13867 3.806405,-0.195753 1.053377,-0.0474 2.106249,-0.151297 3.153873,-0.269154 0.254244,-0.0286 0.506611,-0.07332 0.761277,-0.09788 0.476513,-0.04595 1.609113,-0.131398 2.229473,-0.171277 0.81544,-0.05242 1.63241,-0.08213 2.44697,-0.14681 0.32686,-0.02595 0.65208,-0.07006 0.97879,-0.09788 0.34402,-0.02929 0.68966,-0.03876 1.03318,-0.07341 0.708,-0.07141 1.41258,-0.174477 2.12069,-0.244687 0.36157,-0.03585 0.72539,-0.04416 1.08756,-0.07341 2.01428,-0.162681 0.0341,-0.06329 2.88199,-0.220215 1.28443,-0.07077 2.57525,-0.07793 3.86077,-0.09788 1.30496,-0.02025 2.6103,-0.08355 3.91517,-0.09787 2.37424,-0.02606 4.74918,9.53e-4 7.12342,-0.02447 1.64925,-0.01767 3.29896,-0.05615 4.94833,-0.07341 1.48628,-0.01555 2.97269,-0.05144 4.45893,0 0.21799,0.0075 0.43483,0.03533 0.65252,0.04894 0.88801,0.0555 1.77771,0.09579 2.6645,0.171282 1.68784,0.14369 3.37159,0.320833 5.05707,0.489374 5.3e-4,4.6e-5 1.63087,0.146781 1.63132,0.14681 0.86595,0.05702 1.746,0.06836 2.61011,0.171287 1.05516,0.125684 1.02538,0.138378 1.84881,0.269154 0.41675,0.06619 0.83287,0.136665 1.25069,0.195753 0.21672,0.03065 0.43668,0.03698 0.65251,0.0734 0.21984,0.0371 0.43502,0.09788 0.65253,0.146821 0.38064,0.05709 0.76102,0.115986 1.14193,0.171277 0.47037,0.06828 0.94765,0.100409 1.41381,0.195753 0.39215,0.04104 0.75966,0.186589 1.14192,0.269154 0.47048,0.10162 0.9409,0.204022 1.41381,0.29362 0.1985,0.03761 0.40103,0.05353 0.59814,0.09788 0.13002,0.02925 0.2509,0.09188 0.38065,0.122344 0.28775,0.06756 0.58107,0.109097 0.87004,0.171287 1.04959,0.225888 2.09911,0.457248 3.15387,0.660651 0.86948,0.167672 -0.0278,-0.03527 1.1963,0.171286 0.18319,0.03091 0.36167,0.08547 0.54377,0.122344 0.7787,0.157684 1.55718,0.317522 2.33822,0.464907 0.34443,0.065 0.68778,0.135979 1.03316,0.195754 0.41579,0.07196 0.83635,0.11584 1.25069,0.195744 0.28064,0.05412 0.92822,0.221078 1.14191,0.269153 0.91882,0.206726 -0.29626,-0.112125 1.03318,0.220221 0.11015,0.02754 0.21548,0.07295 0.32625,0.09788 0.14347,0.03228 0.29186,0.0398 0.43502,0.07341 0.43785,0.102796 0.87139,0.223316 1.30505,0.342563 0.28747,0.07905 0.7458,0.23657 1.03318,0.293621 0.43271,0.0859 0.87143,0.138922 1.30504,0.22022 0.21913,0.04108 0.43311,0.107316 0.65253,0.14681 0.23412,0.04214 0.47322,0.05339 0.7069,0.09788 0.70925,0.135026 1.41211,0.302067 2.12072,0.440441 0.25225,0.04926 0.50822,0.07739 0.76127,0.122343 0.43578,0.0774 0.86909,0.168394 1.30507,0.244687 0.21664,0.03791 0.43703,0.0538 0.65251,0.09788 0.18394,0.03762 0.36033,0.106867 0.54379,0.14681 0.37878,0.08247 0.76314,0.137748 1.14192,0.220221 0.18345,0.03994 0.35999,0.108414 0.54377,0.14681 0.32422,0.06774 0.65503,0.101358 0.97879,0.171287 0.13027,0.02814 0.25144,0.08964 0.38064,0.122343 0.70479,0.178393 0.27169,0.02544 0.97879,0.171277 0.66309,0.136757 1.30114,0.352732 1.95758,0.513851 0.39441,0.09681 0.80593,0.163761 1.19629,0.269154 0.0768,0.02072 0.14201,0.07296 0.21751,0.09788 0.19695,0.06499 0.40301,0.101032 0.59815,0.171277 0.0783,0.02818 0.14165,0.08821 0.2175,0.122344 0.0698,0.0314 0.14678,0.04423 0.21752,0.07341 0.30816,0.127109 0.62031,0.254655 0.92441,0.391497 0.56384,0.253719 0.10748,0.03125 0.76128,0.415974 0.0888,0.05224 0.18474,0.09191 0.27188,0.14681 0.0945,0.05953 0.17813,0.135098 0.2719,0.195754 0.2668,0.172577 0.68982,0.379815 0.92442,0.636184 0.16006,0.17492 0.27494,0.387865 0.435,0.562784 0.0952,0.104013 0.22608,0.169966 0.32627,0.269154 3e-5,2.7e-5 0.43501,0.538289 0.43503,0.538317 0.1027,0.164323 0.1706,0.348634 0.27188,0.513841 0.0444,0.07241 0.12187,0.121506 0.16312,0.195754 0.13367,0.240604 0.24964,0.494169 0.32627,0.758527 0.0277,0.09561 0.0277,0.197721 0.0544,0.293631 0.10221,0.367973 0.28121,0.716012 0.32625,1.101092 0.008,0.06481 -0.005,0.130722 0,0.195753 0.0128,0.1555 0.0425,0.309338 0.0544,0.464907 0.0209,0.273194 0.0185,0.753718 0,1.003215 -0.006,0.08333 -0.0478,0.161396 -0.0544,0.244687 -0.0228,0.286497 0.0354,0.594334 0,0.880881 -0.009,0.07504 -0.0416,0.145691 -0.0544,0.220221 -0.0236,0.137835 -0.0299,0.278288 -0.0544,0.415964 -0.12308,0.692327 0.0105,-0.165042 -0.10877,0.318097 -0.0509,0.206099 -0.0294,0.310813 -0.10874,0.489374 -0.0544,0.106032 -0.10876,0.212065 -0.16314,0.318097 -0.0181,0.05709 -0.03,0.116539 -0.0544,0.171277 -0.0303,0.06821 -0.08,0.126852 -0.10875,0.195753 -0.0261,0.06251 -0.03,0.132578 -0.0544,0.195744 -0.0185,0.04794 -0.33615,0.8413 -0.38063,0.905348 -0.0417,0.06009 -0.12185,0.08642 -0.16314,0.14681 -0.0338,0.04945 -0.0336,0.115113 -0.0544,0.171287 -0.0627,0.169222 -0.14526,0.351257 -0.21751,0.513841 -0.0152,0.0341 -0.0362,0.06525 -0.0544,0.09788 -0.0362,0.03263 -0.0851,0.05524 -0.10876,0.09788 -0.0329,0.0592 -0.0308,0.132247 -0.0544,0.195753 -0.0284,0.07677 -0.069,0.148648 -0.10875,0.220211 -0.10341,0.186126 -0.27449,0.377497 -0.32627,0.58725 -0.008,0.03167 0.0144,0.06862 0,0.09788 -0.0764,0.154811 -0.11271,0.092 -0.21751,0.195754 -0.14782,0.146335 -0.23624,0.343179 -0.38063,0.489374 -0.0993,0.100502 -0.1492,0.064 -0.27189,0.14681 -1.3e-4,9e-5 -0.10864,0.146712 -0.10876,0.14682 -0.0325,0.02926 -0.0725,0.04893 -0.10875,0.0734 -0.0362,0.02447 -0.0786,0.04174 -0.10876,0.07341 -0.0239,0.02513 -0.0691,0.148951 -0.10875,0.171277 -0.0495,0.02783 -0.11136,0.02565 -0.16314,0.04894 -5e-5,2.5e-5 -0.32618,0.195709 -0.32625,0.195744 -0.12374,0.06363 -0.26532,0.09345 -0.38065,0.171286 -0.0252,0.01703 -0.0291,0.05637 -0.0544,0.0734 -0.0873,0.05896 -0.29344,0.113184 -0.38065,0.146821 -0.2182,0.08416 -0.42848,0.201938 -0.65253,0.269153 -0.0527,0.0158 -0.10948,0.0124 -0.16312,0.02447 -1.6e-4,3.7e-5 -0.32611,0.09785 -0.32627,0.09788 -0.15354,0.02303 -0.33394,0 -0.4894,0 -0.17342,0 -0.55682,0.04562 -0.7069,-0.04893 -0.0462,-0.02908 -0.0725,-0.08156 -0.10875,-0.122344"
       id="path112313" />
    <path
       style="fill:none;fill-opacity:1;stroke:#000000;stroke-width:1;stroke-linecap:round;stroke-linejoin:round"
       d="m 88.095777,102.52417 c -0.228859,-0.0584 -0.456067,-0.12374 -0.686576,-0.17527 -0.583745,-0.1305 -1.176802,-0.21514 -1.765202,-0.32271 -0.658586,-0.1204 -1.317299,-0.26124 -1.979146,-0.36182 -1.324811,-0.20134 -2.661876,-0.38171 -3.993516,-0.53107 -0.307175,-0.0345 -0.615915,-0.055 -0.922544,-0.094 -0.143874,-0.0182 -0.284624,-0.0561 -0.427931,-0.0782 -0.143531,-0.0222 -0.289037,-0.0305 -0.432332,-0.0541 -0.447126,-0.0736 -0.889502,-0.17481 -1.337254,-0.24446 -0.542995,-0.0844 -0.814132,-0.0969 -1.403959,-0.18205 -0.464166,-0.067 -0.929767,-0.16998 -1.390759,-0.25426 -0.820194,-0.14994 -1.640387,-0.299884 -2.460581,-0.449828 -0.641888,-0.117347 -1.283776,-0.234694 -1.92566,-0.35204 -0.337019,-0.06161 -0.676224,-0.143244 -1.016318,-0.185799 -0.48966,-0.06136 -0.986293,-0.05013 -1.47947,-0.07146 -0.891317,-0.03858 0.320467,0.0022 -0.383215,-0.02035 -0.05493,-0.0019 -0.19343,-0.05224 -0.164885,-0.0052 0.04659,0.07673 0.592935,0.291086 0.660178,0.319685"
       id="path112315" />
    <rect
       style="fill:#6ae4a3;fill-opacity:0;stroke:none;stroke-width:1;stroke-linecap:round;stroke-linejoin:round"
       id="rect112317"
       width="144.15401"
       height="92.198372"
       x="59.479389"
       y="26.503557" />
    <path
       style="fill:none;fill-opacity:0;stroke:#000000;stroke-width:1;stroke-linecap:round;stroke-linejoin:round;stroke-opacity:1"
       d="m 177.8586,62.888642 c -0.34439,0 -0.68899,0.01191 -1.03318,0 -0.109,-0.0038 0.2179,-0.01228 0.32628,-0.02447 1.78947,-0.201309 1.03622,-0.08855 2.77322,-0.489374 0.33372,-0.07701 0.95102,-0.20126 1.30507,-0.318098 0.65515,-0.216201 -0.0721,-0.02363 0.48939,-0.244686 0.2136,-0.0841 0.43374,-0.150718 0.65253,-0.22021 0.30983,-0.09841 0.61841,-0.178885 0.92442,-0.29363 0.0744,-0.02792 0.14167,-0.07399 0.21751,-0.09788 0.10632,-0.03349 0.22064,-0.03776 0.32625,-0.0734 0.113,-0.03813 0.21405,-0.106426 0.32626,-0.14682 0.0699,-0.02516 0.1471,-0.02516 0.21751,-0.04893 0.37368,-0.126111 0.72232,-0.296635 1.08755,-0.440439 0.47684,-0.187751 0.98173,-0.24557 1.46818,-0.391499 0.0923,-0.02768 0.17963,-0.0702 0.27189,-0.09788 0.30194,-0.09058 0.61772,-0.151217 0.92441,-0.220221 0.25162,-0.05661 0.51358,-0.0672 0.76128,-0.146809 0.18281,-0.05876 0.35683,-0.143179 0.54377,-0.195755 0.31471,-0.08851 0.11088,-0.0287 0.38064,-0.04893 0.36532,-0.02739 -0.0644,-0.02334 0.38065,-0.07341 0.0721,-0.0081 0.14516,0.0047 0.21751,0 0.0549,-0.0035 0.21788,-0.02939 0.16312,-0.02447 -0.14533,0.01308 -0.29001,0.03262 -0.43502,0.04894"
       id="path113396" />
    <path
       style="fill:none;fill-opacity:0;stroke:#000000;stroke-width:1;stroke-linecap:round;stroke-linejoin:round;stroke-opacity:1"
       d="m 177.69546,102.18551 c -0.75696,-0.0863 -1.48491,0.045 -2.22945,0.12234 -0.25415,0.0264 -0.50753,0.0544 -0.7613,0.0734 -0.0542,0.004 -0.21749,0 -0.16312,0 0.14501,0 0.29053,-0.0122 0.43502,0 0.55158,0.0465 0.97252,0.29145 1.57693,0.22022 0.40232,-0.0474 0.74099,-0.47396 1.14192,-0.41596 0.68851,0.0996 1.24788,0.62295 1.90321,0.8564 0.22316,0.0795 0.47077,0.0543 0.7069,0.0734 0.47086,0.038 0.94254,0.0652 1.41381,0.0979 1.01346,0.0702 2.03038,0.12322 3.04513,0.17128 0.23551,0.0112 0.47166,0.009 0.7069,0.0245 0.45123,0.0305 0.91007,0.10187 1.35942,0.14681 0.72266,0.0723 1.45005,0.0927 2.1751,0.12234 0.32556,0.0133 0.65353,-0.0183 0.97879,0 0.58203,0.0327 1.15689,0.0489 1.74006,0.0489 0.61628,0 1.23256,0 1.84884,0 0.0544,0 0.10875,0 0.16313,0 0.0544,0 0.13672,0.0475 0.16312,0 0.0237,-0.0426 -0.0725,-0.0653 -0.10875,-0.0979"
       id="path113610" />
    <path
       style="fill:#6ae4a3;fill-opacity:1;stroke:#000000;stroke-width:1;stroke-linecap:round;stroke-linejoin:round"
       d="m 89.475131,70.611444 c -0.0181,0.07137 -0.0603,0.140709 -0.0544,0.214104 0.004,0.04885 0.0595,0.07859 0.0816,0.122343 0.0461,0.0913 0.0799,0.188352 0.12235,0.28139 0.0255,0.05586 0.0596,0.107827 0.0816,0.165165 0.0397,0.103594 0.14736,0.575493 0.14953,0.587251 0.0231,0.124627 0.0115,0.253496 0.0272,0.379266 0.0148,0.118725 0.0389,0.23616 0.0544,0.354798 0.007,0.05477 0.007,0.110356 0.0136,0.165165 0.007,0.05336 0.0227,0.105447 0.0272,0.159046 0.0158,0.189295 0.0136,0.313457 0.0136,0.489376 0,0.05506 0.006,0.110463 0,0.165163 -0.0343,0.301395 -0.0501,0.238256 -0.0816,0.464908 -0.0172,0.123934 -0.0257,0.248934 -0.0408,0.373149 -0.004,0.03471 -0.0124,0.06905 -0.0136,0.103991 -0.003,0.09986 0,0.199828 0,0.299742 0,0.03466 -0.002,0.06941 0,0.103994 0.002,0.03286 0.009,0.06525 0.0136,0.09787 0.005,0.05709 0.0106,0.114089 0.0136,0.171282 0.006,0.108946 0.004,0.266583 0,0.367033 -0.002,0.03695 -0.0114,0.07319 -0.0136,0.110108 -0.0247,0.41198 0.0481,-0.336349 -0.0136,0.33033 -0.002,0.02678 -0.0111,0.05274 -0.0136,0.07952 -0.005,0.05279 0,0.106032 0,0.159049 0,0.03636 -0.006,0.08817 0,0.122343 10e-4,0.0075 0.0109,0.01121 0.0136,0.01835 0.002,0.0057 -0.002,0.01262 0,0.01835 0.003,0.0071 0.007,0.01523 0.0136,0.01835 0.0125,0.0056 0.0275,0.0025 0.0408,0.0061 0.0322,0.0087 0.0632,0.02133 0.0952,0.03059 0.11191,0.03237 0.10114,0.02495 0.23111,0.04282 0.0645,0.0089 0.4914,0.06967 0.59814,0.07952 0.095,0.0088 0.1905,0.0099 0.28549,0.01835 0.20413,0.01809 0.40758,0.04335 0.61174,0.06117 0.60665,0.05297 0.002,-0.01933 0.57096,0.04894 0.52955,0.06354 1.05823,0.151812 1.59053,0.189632 0.0859,0.0061 0.17228,0.0019 0.2583,0.0061 0.0817,0.004 0.16313,0.01223 0.24469,0.01835 0.14954,0.0082 0.29901,0.0176 0.44861,0.02447 0.25801,0.01185 0.51676,0.01224 0.77488,0.01835 0.23128,0.0055 0.46183,0.01835 0.69331,0.01835 0.0713,0 0.35199,0.01445 0.43502,-0.01224 0.0568,-0.01824 0.15135,-0.08142 0.19032,-0.110108 0.0159,-0.01169 0.0266,-0.02914 0.0408,-0.04282 0.0175,-0.01693 0.0392,-0.02983 0.0544,-0.04894 0.10491,-0.132183 0.18705,-0.296904 0.2311,-0.45879 0.01,-0.03569 0.009,-0.07339 0.0136,-0.11011 0.0199,-0.165283 0.0197,-0.156698 0.0272,-0.373148 0.003,-0.08966 0,-0.179439 0,-0.269158 0,-0.09176 0.003,-0.183565 0,-0.275273 -0.002,-0.04709 -0.0113,-0.09364 -0.0136,-0.140696 -0.007,-0.134414 0.004,-0.269228 0,-0.403734 -0.002,-0.04912 -0.0114,-0.09772 -0.0136,-0.146812 -0.002,-0.05092 0.003,-0.102035 0,-0.152932 -0.0186,-0.331573 -0.0594,-0.66113 -0.0952,-0.990984 -0.0247,-0.227698 -0.007,-0.104104 -0.0136,-0.336447 -0.003,-0.102012 -0.0106,-0.203848 -0.0136,-0.305859 -0.002,-0.05503 0.002,-0.110155 0,-0.165165 -0.002,-0.05723 -0.0106,-0.114088 -0.0136,-0.171282 -0.006,-0.114117 -0.007,-0.228448 -0.0136,-0.342561 -0.003,-0.05516 -0.0114,-0.109969 -0.0136,-0.165165 -0.0108,-0.266705 0.007,-0.534504 0,-0.801353 -0.0163,-0.592979 0.006,-0.137344 -0.0408,-0.501601 -0.007,-0.05278 -0.005,-0.106479 -0.0136,-0.159049 -0.0302,-0.193293 -0.0878,-0.377189 -0.12235,-0.568898 -0.003,-0.01605 0.003,-0.03283 0,-0.04894 -7.1e-4,-0.0044 -0.0177,-0.06913 -0.0272,-0.07341 -0.0125,-0.0056 -0.0271,-0.0053 -0.0408,-0.0061 -0.0589,-0.0033 -0.11783,-0.0037 -0.17672,-0.0061 -0.0929,-0.0038 -0.17844,-0.01032 -0.27189,-0.01223 -0.16763,-0.0034 -0.33532,0 -0.50299,0 -0.14953,0 -0.2993,-0.0082 -0.44861,0 -0.2769,0.0153 -0.55358,0.03703 -0.82925,0.06729 -0.0909,0.01 -0.18097,0.02683 -0.27189,0.0367 -0.56083,0.06092 -1.12314,0.105764 -1.68569,0.146813 -0.16316,0.0119 -0.32652,0.02143 -0.48939,0.0367 -0.16323,0.0153 -0.32632,0.03216 -0.4894,0.04894 -0.05,0.0051 -0.0995,0.01413 -0.14954,0.01835 -0.095,0.008 -0.19039,0.01122 -0.28548,0.01835 -0.10437,0.0078 -0.20807,0.01893 -0.31267,0.02447 -0.11463,0.0061 -0.22544,0.0087 -0.33985,0.01835 -0.12258,0.01034 -0.24434,0.0076 -0.36705,0.01224 -0.0868,0.0033 -0.17144,0.01223 -0.25829,0.01223 -0.0453,0 -0.0906,0 -0.13595,0 -0.0226,0 -0.0453,0 -0.068,0 -0.0136,0 -0.0518,-0.0079 -0.0408,0 0.0323,0.02323 0.0725,0.03263 0.10875,0.04894"
       id="path110294" />
    <path
       style="fill:#6ae4a3;fill-opacity:1;stroke:#000000;stroke-width:1;stroke-linecap:round;stroke-linejoin:round"
       d="m 92.669801,72.159094 c -0.11471,0.348424 -0.001,-0.03976 -0.0816,0.507729 -0.0107,0.07286 -0.0345,0.1432 -0.0544,0.214101 -0.0436,0.155467 -0.0879,0.310772 -0.13595,0.464907 -0.11647,0.373436 -0.0537,0.08858 -0.13594,0.458788 -0.0547,0.246296 -0.0857,0.332011 -0.0952,0.544432 -0.002,0.04889 -0.0146,0.100103 0,0.146813 0.0236,0.07563 0.11879,0.27106 0.20391,0.342563 0.14831,0.124571 0.35802,0.154562 0.54378,0.17128 0.0588,0.0053 0.11767,0.01224 0.17672,0.01224 0.19553,0 0.38857,-0.04954 0.57096,-0.116227 0.0319,-0.01167 0.066,-0.01921 0.0952,-0.0367 0.0531,-0.03185 0.10426,-0.0679 0.14954,-0.11011 0.01,-0.0089 0.0769,-0.132223 0.0816,-0.140696"
       id="path111531" />
    <path
       style="fill:#6ae4a3;fill-opacity:1;stroke:#000000;stroke-width:1;stroke-linecap:round;stroke-linejoin:round"
       d="m 92.017271,73.529346 c 0.33533,-0.03874 0.67065,-0.07748 1.00598,-0.116226 0.13141,-0.01427 0.26288,-0.02804 0.39423,-0.04282 0.0549,-0.0062 0.0457,-0.02158 0.0272,0.0367"
       id="path111533" />
    <path
       style="fill:#6ae4a3;fill-opacity:1;stroke:#000000;stroke-width:1;stroke-linecap:round;stroke-linejoin:round"
       d="m 89.301641,89.469744 c -0.0181,0.07137 -0.0603,0.140709 -0.0544,0.214104 0.004,0.04885 0.0595,0.07859 0.0816,0.122343 0.0461,0.0913 0.0799,0.188352 0.12235,0.28139 0.0255,0.05586 0.0596,0.107827 0.0816,0.165165 0.0397,0.103594 0.14736,0.575493 0.14953,0.587251 0.0231,0.124627 0.0115,0.253496 0.0272,0.379266 0.0148,0.118725 0.0389,0.23616 0.0544,0.354798 0.007,0.05477 0.007,0.110356 0.0136,0.165165 0.007,0.05336 0.0227,0.105447 0.0272,0.159046 0.0158,0.189295 0.0136,0.313457 0.0136,0.489376 0,0.05506 0.006,0.110463 0,0.165163 -0.0343,0.301395 -0.0501,0.238256 -0.0816,0.464908 -0.0172,0.123934 -0.0257,0.248934 -0.0408,0.373149 -0.004,0.03471 -0.0124,0.06905 -0.0136,0.103991 -0.003,0.09986 0,0.199828 0,0.299742 0,0.03466 -0.002,0.06941 0,0.103994 0.002,0.03286 0.009,0.06525 0.0136,0.09787 0.005,0.05709 0.0106,0.114089 0.0136,0.171282 0.006,0.108946 0.004,0.266583 0,0.367033 -0.002,0.03695 -0.0114,0.07319 -0.0136,0.110108 -0.0247,0.41198 0.0481,-0.336349 -0.0136,0.33033 -0.002,0.02678 -0.0111,0.05274 -0.0136,0.07952 -0.005,0.05279 0,0.106032 0,0.159049 0,0.03636 -0.006,0.08817 0,0.122343 10e-4,0.0075 0.0109,0.01121 0.0136,0.01835 0.002,0.0057 -0.002,0.01262 0,0.01835 0.003,0.0071 0.007,0.01523 0.0136,0.01835 0.0125,0.0056 0.0275,0.0025 0.0408,0.0061 0.0322,0.0087 0.0632,0.02133 0.0952,0.03059 0.11191,0.03237 0.10114,0.02495 0.23111,0.04282 0.0645,0.0089 0.4914,0.06967 0.59814,0.07952 0.095,0.0088 0.1905,0.0099 0.28549,0.01835 0.20413,0.01809 0.40758,0.04335 0.61174,0.06117 0.60665,0.05297 0.002,-0.01933 0.57096,0.04894 0.52955,0.06354 1.05823,0.151812 1.59053,0.189632 0.0859,0.0061 0.17228,0.0019 0.2583,0.0061 0.0817,0.004 0.16313,0.01223 0.24469,0.01835 0.14954,0.0082 0.29901,0.0176 0.44861,0.02447 0.25801,0.01185 0.51676,0.01224 0.77488,0.01835 0.23128,0.0055 0.46183,0.01835 0.69331,0.01835 0.0713,0 0.35199,0.01445 0.43502,-0.01224 0.0568,-0.01824 0.15135,-0.08142 0.19032,-0.110108 0.0159,-0.01169 0.0266,-0.02914 0.0408,-0.04282 0.0175,-0.01693 0.0392,-0.02983 0.0544,-0.04894 0.10491,-0.132183 0.18705,-0.296904 0.2311,-0.45879 0.01,-0.03569 0.009,-0.07339 0.0136,-0.11011 0.0199,-0.165283 0.0197,-0.156698 0.0272,-0.373148 0.003,-0.08966 0,-0.179439 0,-0.269158 0,-0.09176 0.003,-0.183565 0,-0.275273 -0.002,-0.04709 -0.0113,-0.09364 -0.0136,-0.140696 -0.007,-0.134414 0.004,-0.269228 0,-0.403734 -0.002,-0.04912 -0.0114,-0.09772 -0.0136,-0.146812 -0.002,-0.05092 0.003,-0.102035 0,-0.152932 -0.0186,-0.331573 -0.0594,-0.66113 -0.0952,-0.990984 -0.0247,-0.227698 -0.007,-0.104104 -0.0136,-0.336447 -0.003,-0.102012 -0.0106,-0.203848 -0.0136,-0.305859 -0.002,-0.05503 0.002,-0.110155 0,-0.165165 -0.002,-0.05723 -0.0106,-0.114088 -0.0136,-0.171282 -0.006,-0.114117 -0.007,-0.228448 -0.0136,-0.342561 -0.003,-0.05516 -0.0114,-0.109969 -0.0136,-0.165165 -0.0108,-0.266705 0.007,-0.534504 0,-0.801353 -0.0163,-0.592979 0.006,-0.137344 -0.0408,-0.501601 -0.007,-0.05278 -0.005,-0.106479 -0.0136,-0.159049 -0.0302,-0.193293 -0.0878,-0.377189 -0.12235,-0.568898 -0.003,-0.01605 0.003,-0.03283 0,-0.04894 -7.1e-4,-0.0044 -0.0177,-0.06913 -0.0272,-0.07341 -0.0125,-0.0056 -0.0271,-0.0053 -0.0408,-0.0061 -0.0589,-0.0033 -0.11783,-0.0037 -0.17672,-0.0061 -0.0929,-0.0038 -0.17844,-0.01032 -0.27189,-0.01223 -0.16763,-0.0034 -0.33532,0 -0.50299,0 -0.14953,0 -0.2993,-0.0082 -0.44861,0 -0.2769,0.0153 -0.55358,0.03703 -0.82925,0.06729 -0.0909,0.01 -0.18097,0.02683 -0.27189,0.0367 -0.56083,0.06092 -1.12314,0.105764 -1.68569,0.146813 -0.16316,0.0119 -0.32652,0.02143 -0.48939,0.0367 -0.16323,0.0153 -0.32632,0.03216 -0.4894,0.04894 -0.05,0.0051 -0.0995,0.01413 -0.14954,0.01835 -0.095,0.008 -0.19039,0.01122 -0.28548,0.01835 -0.10437,0.0078 -0.20807,0.01893 -0.31267,0.02447 -0.11463,0.0061 -0.22544,0.0087 -0.33985,0.01835 -0.12258,0.01034 -0.24434,0.0076 -0.36705,0.01224 -0.0868,0.0033 -0.17144,0.01223 -0.25829,0.01223 -0.0453,0 -0.0906,0 -0.13595,0 -0.0226,0 -0.0453,0 -0.068,0 -0.0136,0 -0.0518,-0.0079 -0.0408,0 0.0323,0.02323 0.0725,0.03263 0.10875,0.04894"
       id="path110294-7" />
    <path
       style="fill:#6ae4a3;fill-opacity:1;stroke:#000000;stroke-width:1;stroke-linecap:round;stroke-linejoin:round"
       d="m 93.471891,90.828782 c -0.3596,0.146936 -1.29486,0.25596 -1.4138,0.862526 -0.0798,0.40713 0.21737,0.665235 0.43501,0.948165 0.29026,0.37732 0.23821,0.235446 0.47581,0.691244 0.022,0.0422 0.0557,0.268381 0.0544,0.28139 -0.004,0.03537 -0.0327,0.06354 -0.0544,0.09176 -0.10394,0.135627 -0.20226,0.15601 -0.38064,0.238571 -0.28213,0.130581 -0.60491,0.153196 -0.91082,0.165165 -0.20266,0.0079 -0.17969,0.01008 -0.43502,0.0061 -0.0617,-9.52e-4 -0.1746,-0.0076 -0.2311,-0.03059 -0.0578,-0.02352 -0.10876,-0.06117 -0.16314,-0.09176"
       id="path111535" />
    <path
       style="fill:#6ae4a3;fill-opacity:1;stroke:#000000;stroke-width:1;stroke-linecap:round;stroke-linejoin:round"
       d="m 92.329971,92.400903 c 0.45309,0.192136 1.34189,0.01638 1.95758,0.08564"
       id="path111537" />
    <path
       style="fill:#6ae4a3;fill-opacity:1;stroke:#000000;stroke-width:1;stroke-linecap:round;stroke-linejoin:round"
       d="m 89.437561,82.990852 c -0.16313,0.236532 -0.32626,0.473063 -0.4894,0.709595 0,0.02447 -0.0245,0.07341 0,0.07341 0.0828,0 -0.067,-0.09857 0,-0.195754 0.14468,-0.209763 0.29715,-0.420004 0.4894,-0.587251 0.35531,-0.309105 0.76142,-0.554443 1.14193,-0.831937 0.54543,-0.397774 0.5711,-0.409362 1.19629,-0.929815 0.001,-0.001 0.65134,-0.586222 0.65253,-0.587251 0.10677,-0.09208 0.22326,-0.17289 0.32626,-0.269154 0.13298,-0.12428 0.24536,-0.26974 0.38065,-0.391497 0.065,-0.05851 0.15249,-0.08829 0.21751,-0.14681 0.0453,-0.04074 0.0689,-0.100741 0.10874,-0.14682 0.0872,-0.100924 0.18467,-0.1927 0.27189,-0.293621 0.0398,-0.04608 0.0618,-0.108053 0.10876,-0.14681 0.0642,-0.05294 0.14936,-0.07465 0.21751,-0.122354 0.8455,-0.684801 -0.10406,0.04601 0.43502,-0.29362 0.0413,-0.02599 0.0605,-0.105111 0.10875,-0.09788 0.0197,0.003 0.11213,0.304273 0.16314,0.391497 0.13641,0.233251 0.1896,0.179497 0.38063,0.367041 0.13411,0.131671 0.26877,0.26494 0.38065,0.415964 0.0433,0.05846 0.18886,0.459715 0.21751,0.51385 0.0458,0.08665 0.10602,0.165016 0.16313,0.244688 0.17742,0.247485 0.38742,0.472754 0.54377,0.734061 0.27472,0.459144 0.14492,0.293468 0.32626,0.660651 0.15973,0.323442 0.0499,0.0776 0.27188,0.391507 0.0781,0.110442 0.13699,0.233876 0.21751,0.342564 0.0469,0.06336 0.11191,0.111342 0.16314,0.171277 0.15832,0.185227 0.30665,0.373838 0.48939,0.538317 0.0451,0.04055 0.36872,0.334824 0.38065,0.36703 0.017,0.04589 -0.0148,0.100168 0,0.146811 0.0179,0.05638 0.10874,0.16004 0.10874,0.22022 0,0.03045 -0.0438,0.04485 -0.0544,0.07341 -0.008,0.02294 0.0112,0.05163 0,0.0734 -0.204,0.397771 -0.54898,0.651607 -0.92441,0.880882 -0.0848,0.0518 -0.18414,0.07568 -0.27188,0.122343 -0.44263,0.235375 -0.88521,0.508177 -1.30507,0.782994 -0.29393,0.192394 -0.56672,0.408779 -0.87002,0.587251 -0.14339,0.08438 -0.29712,0.151609 -0.43502,0.244686 -0.0452,0.03053 -0.0635,0.09183 -0.10877,0.122354 -0.11825,0.07982 -0.25829,0.122341 -0.38063,0.195744 -0.18715,0.112289 -0.3644,0.22148 -0.54378,0.342564 -0.0362,0.02447 -0.065,0.07341 -0.10875,0.07341 -0.0436,0 -0.19396,-0.156457 -0.21751,-0.171289 -0.0505,-0.03178 -0.11371,-0.04004 -0.16314,-0.0734 -0.0606,-0.04093 -0.10375,-0.104074 -0.16311,-0.14682 -0.12241,-0.08813 -0.25682,-0.15857 -0.38065,-0.244686 -0.0758,-0.05269 -0.13708,-0.126035 -0.21751,-0.171276 -1.31471,-0.739489 -0.12304,-0.01156 -1.03316,-0.489376 -0.19067,-0.100097 -0.57653,-0.388035 -0.70691,-0.489373 -0.24514,-0.190534 -0.48039,-0.42694 -0.65253,-0.685127 -0.28753,-0.431269 -0.28809,-0.646758 -0.87004,-0.734072"
       id="path111766" />
    <path
       style="fill:#6ae4a3;fill-opacity:1;stroke:#000000;stroke-width:1;stroke-linecap:round;stroke-linejoin:round"
       d="m 89.196751,101.51615 c -0.16313,0.23653 -0.32626,0.47306 -0.4894,0.70959 0,0.0245 -0.0245,0.0734 0,0.0734 0.0828,0 -0.067,-0.0986 0,-0.19575 0.14468,-0.20976 0.29715,-0.42 0.4894,-0.58725 0.35531,-0.30911 0.76142,-0.55444 1.14193,-0.83194 0.54543,-0.39777 0.5711,-0.40936 1.19629,-0.929807 0.001,-10e-4 0.65134,-0.586224 0.65253,-0.587253 0.10677,-0.09208 0.22326,-0.17289 0.32626,-0.269154 0.13298,-0.12428 0.24536,-0.26974 0.38065,-0.391497 0.065,-0.05851 0.15249,-0.08829 0.21751,-0.14681 0.0453,-0.04074 0.0689,-0.100741 0.10874,-0.14682 0.0872,-0.100924 0.18467,-0.1927 0.27189,-0.293621 0.0398,-0.04608 0.0618,-0.108053 0.10876,-0.14681 0.0642,-0.05294 0.14936,-0.07465 0.21751,-0.122354 0.8455,-0.684801 -0.10406,0.04601 0.43502,-0.29362 0.0413,-0.02599 0.0605,-0.105111 0.10875,-0.09788 0.0197,0.003 0.11213,0.304273 0.16314,0.391497 0.13641,0.233251 0.1896,0.179497 0.38063,0.367041 0.13411,0.131671 0.26877,0.26494 0.38065,0.415964 0.0433,0.05846 0.18886,0.459715 0.21751,0.51385 0.0458,0.08665 0.10602,0.165016 0.16313,0.244688 0.17742,0.247485 0.38742,0.472749 0.54377,0.734059 0.27472,0.459147 0.14492,0.293467 0.32626,0.660647 0.15973,0.32344 0.0499,0.0776 0.27188,0.39151 0.0781,0.11044 0.13699,0.23388 0.21751,0.34256 0.0469,0.0634 0.11191,0.11135 0.16314,0.17128 0.15832,0.18523 0.30665,0.37384 0.48939,0.53832 0.0451,0.0405 0.36872,0.33482 0.38065,0.36703 0.017,0.0459 -0.0148,0.10017 0,0.14681 0.0179,0.0564 0.10874,0.16004 0.10874,0.22022 0,0.0305 -0.0438,0.0448 -0.0544,0.0734 -0.008,0.0229 0.0112,0.0516 0,0.0734 -0.204,0.39777 -0.54898,0.65161 -0.92441,0.88088 -0.0848,0.0518 -0.18414,0.0757 -0.27188,0.12234 -0.44263,0.23538 -0.88521,0.50818 -1.30507,0.783 -0.29393,0.19239 -0.56672,0.40878 -0.87002,0.58725 -0.14339,0.0844 -0.29712,0.15161 -0.43502,0.24468 -0.0452,0.0305 -0.0635,0.0918 -0.10877,0.12236 -0.11825,0.0798 -0.25829,0.12234 -0.38063,0.19574 -0.18715,0.11229 -0.3644,0.22148 -0.54378,0.34257 -0.0362,0.0245 -0.065,0.0734 -0.10875,0.0734 -0.0436,0 -0.19396,-0.15646 -0.21751,-0.17129 -0.0505,-0.0318 -0.11371,-0.04 -0.16314,-0.0734 -0.0606,-0.0409 -0.10375,-0.10408 -0.16311,-0.14682 -0.12241,-0.0881 -0.25682,-0.15857 -0.38065,-0.24469 -0.0758,-0.0527 -0.13708,-0.12603 -0.21751,-0.17127 -1.31471,-0.73949 -0.12304,-0.0116 -1.03316,-0.48938 -0.19067,-0.1001 -0.57653,-0.38804 -0.70691,-0.48937 -0.24514,-0.19054 -0.48039,-0.42694 -0.65253,-0.68513 -0.28753,-0.43127 -0.28809,-0.64676 -0.87004,-0.73407"
       id="path111766-5" />
    <path
       style="fill:none;fill-opacity:0;stroke:#000000;stroke-width:1;stroke-linecap:round;stroke-linejoin:round;stroke-opacity:1"
       d="m 98.825151,73.700707 c -1.12077,-0.478929 -1.10424,0.03513 -1.84883,0.14681 -0.0538,0.0081 -0.10874,0 -0.16312,0 -0.0544,0 -0.16313,0.05438 -0.16313,0 0,-0.05499 0.10815,-0.02447 0.16313,-0.02447 0.21994,0 0.43331,0.115811 0.65252,0.09788 0.45752,-0.03743 0.90903,-0.30889 1.35943,-0.22022 0.47429,0.09337 0.80985,0.535701 1.250669,0.734061 0.30858,0.138853 0.65376,0.175124 0.97881,0.269153 1.28057,0.370436 2.46297,0.921672 3.48013,1.78622 0.0889,0.07553 0.19145,0.135768 0.27188,0.22022 0.13814,0.145032 0.24759,0.315214 0.38065,0.464907 0.20583,0.231543 0.31005,0.271745 0.4894,0.513851 0.31664,0.146972 0.27354,0.49992 0.43502,0.734061 0.14825,0.214964 0.32526,0.408616 0.48939,0.611718 0.0343,0.04244 0.0846,0.07342 0.10875,0.122343 0.0761,0.154174 0.13618,0.31955 0.16313,0.489374 0.009,0.05639 -0.005,0.114435 0,0.171287 0.0129,0.139239 0.0415,0.276725 0.0544,0.415964 0.0374,0.404459 -0.029,0.828603 -0.10875,1.223445 -0.0902,0.446515 -0.38864,0.774284 -0.7069,1.076625 -0.0347,0.03301 -0.1987,0.191403 -0.27189,0.22022 -0.10565,0.0416 -0.21797,0.06377 -0.32627,0.09788 -0.45028,0.141826 -0.89618,0.291444 -1.35942,0.391497 -0.17878,0.03862 -0.36334,0.04349 -0.54378,0.0734 -0.16413,0.02721 -0.3243,0.07738 -0.4894,0.09788 -0.86847,0.107809 -1.74125,0.157463 -2.61011,0.269164 -0.532389,0.06844 -1.040079,0.171277 -1.576919,0.171277 -0.10876,0 -0.43383,0.01613 -0.32628,0 0.20833,-0.03124 0.39032,-0.02447 0.59816,-0.02447"
       id="path113378" />
    <path
       style="fill:none;fill-opacity:0;stroke:#000000;stroke-width:1;stroke-linecap:round;stroke-linejoin:round;stroke-opacity:1"
       d="m 96.269421,93.079985 c 0.30814,0.02447 0.61798,0.03284 0.92441,0.0734 0.65668,0.08691 1.31853,0.241374 1.9576,0.415973 1.507309,0.411802 2.752719,0.819626 4.023899,1.761751 0.20954,0.155306 0.30388,0.291976 0.48941,0.464908 0.17838,0.166267 0.3652,0.323313 0.54376,0.489376 0.0934,0.08684 0.17516,0.186052 0.27189,0.269152 0.10311,0.08858 0.22864,0.15008 0.32625,0.244687 0.20033,0.194157 0.34296,0.442553 0.54379,0.636193 0.0664,0.06406 0.14501,0.114187 0.21751,0.171278 0.12688,0.130498 0.25338,0.261361 0.38063,0.391496 0.0721,0.07377 0.16331,0.132427 0.21751,0.220221 0.0397,0.06434 0.0247,0.150693 0.0544,0.220221 0.0615,0.143883 0.15602,0.272092 0.21751,0.415975 0.0905,0.211741 0.0364,0.222017 0.0544,0.440431 0.0215,0.261606 0.0856,0.540426 0.0544,0.807473 -0.0116,0.0989 -0.0422,0.19483 -0.0544,0.29362 -0.006,0.0486 0.01,0.0988 0,0.14681 -0.009,0.0437 -0.0372,0.0812 -0.0544,0.12235 -0.15494,0.37187 -0.29848,0.69083 -0.65253,0.92981 -0.19849,0.13399 -0.26783,0.13253 -0.48939,0.24469 -0.20316,0.10284 -0.39075,0.24925 -0.59814,0.34257 -0.0518,0.0233 -0.11137,0.0256 -0.16314,0.0489 -0.11201,0.0504 -0.21424,0.12088 -0.32626,0.17128 -0.2154,0.0969 -0.48062,0.18812 -0.7069,0.24469 -0.0687,0.0172 -0.3296,0.0424 -0.38065,0.0489 -0.21803,0.028 -0.43222,0.088 -0.65253,0.0979 -0.10864,0.005 -0.21761,-0.005 -0.32626,0 -0.32658,0.0147 -0.65224,0.0816 -0.97878,0.0979 -0.55765,0.0279 -1.12722,0 -1.685689,0 -0.6692,0 -1.34489,0.0256 -2.01197,-0.0245 -0.0548,-0.004 -0.17313,0.0296 -0.16312,-0.0245 0.021,-0.11342 0.14501,-0.17944 0.21751,-0.26916"
       id="path113382" />
    <path
       style="fill:none;fill-opacity:0;stroke:#000000;stroke-width:1;stroke-linecap:round;stroke-linejoin:round;stroke-opacity:1"
       d="m 107.63426,98.438642 c -0.38064,0.154969 -0.79131,0.250499 -1.14192,0.464907 -0.36531,0.22339 -0.66757,0.537842 -0.97879,0.831934 -0.29741,0.281047 0.0626,0.369307 0.43502,0.293627 0.20572,-0.0418 1.54513,-0.493057 1.74006,-0.90534 0.0979,-0.207111 0.13947,-0.563015 -0.0544,-0.685128 -0.29138,-0.183568 -0.68877,0 -1.03316,0 -1.67384,0 -2.81707,0.133768 -4.18705,1.076626 -0.07,0.04814 -0.11256,0.127505 -0.16312,0.195755 -0.16452,0.22208 -0.17854,0.24093 0.10875,0.513837 0.0701,0.0666 0.5255,0.21068 0.59815,0.22022 0.97933,0.12853 1.97537,0.14246 2.8276,-0.44044 0.21052,-0.143987 0.37559,-0.346567 0.54379,-0.538306 0.10477,-0.119441 0.18672,-0.257376 0.27188,-0.391507 0.0239,-0.03767 0.0962,-0.106926 0.0544,-0.122343 -0.85649,-0.315317 -1.66711,0.117559 -2.33822,0.611729 -0.12698,0.0935 -0.2238,0.22269 -0.32626,0.34256 -0.23954,0.280257 -0.30601,0.368277 -0.27188,0.782997 0.0151,0.18351 0.32492,0.29952 0.43502,0.31809 1.30202,0.21971 2.71298,-0.11163 3.64327,-1.101087 0.19604,-0.20851 0.40527,-0.426152 0.43502,-0.734069 0.006,-0.06062 -0.0703,-0.0996 -0.10876,-0.146812 -0.16097,-0.197535 -0.2354,-0.56684 -0.4894,-0.58725 -0.37643,-0.03025 -0.67489,0.34549 -1.03316,0.464907 -0.13778,0.04593 -0.29198,-7.94e-4 -0.43502,0.02447 -0.27537,0.04849 -0.54784,0.115414 -0.81565,0.195755 -0.33603,0.100803 -0.59644,0.357584 -0.87004,0.562779"
       id="path113384" />
    <path
       style="fill:none;fill-opacity:0;stroke:#000000;stroke-width:1;stroke-linecap:round;stroke-linejoin:round;stroke-opacity:1"
       d="m 106.54673,78.325304 c -0.38064,0.783001 -1.20485,1.48066 -1.14193,2.349003 0.062,0.855387 2.17172,-0.633523 2.17509,-0.636184 0.26181,-0.207184 0.52329,-0.430745 0.7069,-0.709595 0.11606,-0.176257 0.25313,-0.420838 0.16314,-0.611727 -0.0821,-0.174257 -0.35509,-0.156928 -0.54379,-0.195744 -0.44842,-0.09224 -0.9073,-0.267804 -1.35941,-0.195753 -0.63371,0.100991 -1.63552,0.690779 -1.84883,1.394721 -0.0266,0.0876 -0.0756,0.180113 -0.0544,0.269154 0.13032,0.547279 0.46077,0.539835 0.92442,0.587251 0.87396,0.08938 1.39754,0.206416 2.06632,-0.464907 0.079,-0.07932 0.10698,-0.196757 0.16314,-0.293621 0.14694,-0.253449 0.28123,-0.36556 0.21751,-0.709594 -0.0207,-0.111561 -0.31548,-0.212917 -0.38065,-0.244687 -0.36359,-0.177243 -0.70151,-0.659153 -1.08753,-0.538317 -0.61559,0.192697 -0.95473,0.868178 -1.41381,1.321311 -0.2068,0.204124 -0.66476,0.877859 -0.54379,1.150035 0.0701,0.157627 0.2838,0.246473 0.43502,0.269154 0.33398,0.05009 1.00354,0.122658 1.35944,-0.04893 0.15759,-0.07598 0.29607,-0.187334 0.43502,-0.293631 0.0433,-0.03315 0.0866,-0.07248 0.10875,-0.122343 0.0259,-0.05843 -0.0258,-0.265336 -0.0544,-0.293621 -0.0447,-0.0442 -0.53619,-0.229215 -0.59816,-0.195753 -0.0595,0.03213 -0.0725,0.114191 -0.10874,0.171287"
       id="path113386" />
    <g
       id="g113266"
       transform="translate(1.6581481,19.136772)">
      <path
         style="fill:#ddf1fb;fill-opacity:1;fill-rule:nonzero;stroke:#000000;stroke-width:1;stroke-linecap:round;stroke-linejoin:round"
         d="m 129.92811,62.433277 c 0.0385,0.07786 0.0628,0.164449 0.11536,0.233577 0.0333,0.04374 0.0882,0.06563 0.13457,0.09516 0.10755,0.06856 0.21979,0.129617 0.32683,0.198975 0.0533,0.03454 0.10213,0.07553 0.15381,0.112461 0.0573,0.04094 0.11822,0.07693 0.17302,0.121115 0.0992,0.07997 0.18919,0.170911 0.28838,0.250878 0.0548,0.04419 0.11847,0.07662 0.17303,0.121116 0.0483,0.03939 0.0906,0.08565 0.13458,0.129765 0.097,0.0972 0.19528,0.193209 0.28837,0.294135 0.096,0.104095 0.18037,0.2184 0.26916,0.328739 0.0902,0.112085 0.18352,0.221787 0.26915,0.337391 0.0363,0.04901 0.0625,0.104823 0.0961,0.155718 0.22332,0.338016 0.0169,-0.02125 0.32683,0.501759 0.0349,0.05894 0.0628,0.121782 0.0961,0.181671 0.0308,0.05548 0.0722,0.10559 0.0961,0.164369 0.0469,0.115136 0.0728,0.237877 0.11535,0.354692 0.0216,0.0593 0.0545,0.114011 0.0769,0.17302 0.0225,0.0594 0.0368,0.121652 0.0577,0.181672 0.0433,0.124567 0.0952,0.246134 0.13458,0.371994 0.0472,0.150986 0.0347,0.20214 0.0577,0.354692 0.0192,0.112463 0.0384,0.224926 0.0577,0.33739 0.0128,0.05479 0.029,0.108905 0.0385,0.164369 0.01,0.0572 0.0115,0.115511 0.0192,0.17302 0.0179,0.132835 0.0408,0.26498 0.0577,0.397947 0.009,0.06895 0.01,0.138755 0.0192,0.207624 0.01,0.07255 0.0285,0.143729 0.0384,0.216277 0.0157,0.114986 0.0252,0.230743 0.0385,0.346041 0.0116,0.101073 0.0293,0.201462 0.0385,0.302785 0.008,0.09212 0.0103,0.184761 0.0192,0.276832 0.004,0.04069 0.0161,0.08036 0.0192,0.121115 0.003,0.04313 0,0.08651 0,0.129765 0,0.123998 0.009,0.248334 0,0.371994 -0.003,0.04361 -0.0151,0.08623 -0.0192,0.129766 -0.009,0.09209 -0.0103,0.184762 -0.0192,0.276832 -0.0194,0.200818 -0.0169,0.04376 -0.0577,0.25953 -0.0375,0.198371 -0.0184,0.243321 -0.0769,0.406599 -0.016,0.04456 -0.0384,0.08651 -0.0577,0.129765 -0.032,0.08363 -0.0663,0.166446 -0.0961,0.250879 -3e-5,1.08e-4 -0.0769,0.259425 -0.0769,0.259532 -0.24605,0.608933 -0.0216,0.02261 -0.17303,0.363342 -0.015,0.03372 -0.0225,0.07055 -0.0384,0.103812 -0.0693,0.144166 -0.15531,0.275299 -0.23071,0.415249 -0.0487,0.09033 -0.0847,0.187143 -0.13457,0.276834 -0.0505,0.09089 -0.11666,0.172163 -0.17303,0.25953 -0.0201,0.03117 -0.0364,0.0648 -0.0577,0.09516 -0.0173,0.02458 -0.0412,0.04413 -0.0577,0.06921 -0.0349,0.05301 -0.0621,0.110787 -0.0961,0.16437 -0.0173,0.02727 -0.0414,0.04998 -0.0577,0.07786 -0.0159,0.02724 -0.0215,0.05987 -0.0384,0.08651 -0.0519,0.0818 -0.11322,0.157336 -0.17302,0.233577 -0.08,0.101986 -0.0772,0.08337 -0.19225,0.207624 -0.0841,0.09085 -0.15955,0.191798 -0.24993,0.276834 -0.0225,0.02119 -0.0526,0.03277 -0.0769,0.05191 -0.0813,0.06401 -0.15006,0.14282 -0.23071,0.207624 -0.0362,0.02906 -0.0809,0.04683 -0.11535,0.07786 -0.024,0.02161 -0.0385,0.05191 -0.0577,0.07786 -0.0897,0.06344 -0.17895,0.127585 -0.26916,0.190321 -0.20381,0.141737 -0.40291,0.266025 -0.61521,0.397948 -0.0612,0.03805 -0.088,0.06556 -0.1538,0.09516 -0.0183,0.0082 -0.076,0.0091 -0.0577,0.0173 0.0292,0.01315 0.0642,-0.0029 0.0961,0 0.12211,0.01099 0.24321,0.03169 0.36527,0.04326 0.30199,0.02861 0.60173,0.07362 0.90359,0.10381 0.36486,0.03649 0.72937,0.04325 1.09584,0.04325 0.44662,0 0.92071,-0.0092 1.36499,-0.06921 0.1996,-0.02694 0.57916,-0.08337 0.80746,-0.129765 0.29364,-0.05967 0.62144,-0.150035 0.90359,-0.216275 0.23931,-0.05618 0.33556,-0.06746 0.57676,-0.112464 0.23262,-0.0434 0.52563,-0.10013 0.76901,-0.147065 0.281,-0.05419 0.53884,-0.104512 0.82668,-0.15572 0.34666,-0.06167 0.69243,-0.112071 1.03816,-0.18167 0.35462,-0.07139 0.70466,-0.162866 1.0574,-0.242229 0.0574,-0.01291 0.11575,-0.0212 0.17302,-0.0346 0.10299,-0.0241 0.20442,-0.05464 0.30761,-0.07786 0.279,-0.06277 0.56505,-0.09503 0.84591,-0.147066 0.59865,-0.110919 1.19725,-0.241629 1.78795,-0.389296 0.41937,-0.10484 0.83138,-0.237079 1.24964,-0.346042 0.42566,-0.110894 -0.01,0.01701 0.6152,-0.164369 0.36871,-0.107039 0.0214,-0.01279 0.36529,-0.121115 0.13401,-0.04221 0.2703,-0.07709 0.40372,-0.121115 0.0181,-0.006 0.35932,-0.144846 0.36529,-0.147067 0.12109,-0.04509 0.24242,-0.08973 0.36527,-0.129765 0.0631,-0.02057 0.12868,-0.03283 0.19225,-0.0519 0.14879,-0.04463 0.29547,-0.09605 0.44219,-0.147069 0.0842,-0.02928 0.16617,-0.06465 0.24993,-0.09516 0.29604,-0.107841 0.59255,-0.20937 0.88436,-0.328739 0.0455,-0.01862 0.0888,-0.04254 0.13458,-0.06056 0.22079,-0.08693 0.45208,-0.146641 0.67288,-0.233577 0.0458,-0.01802 0.0885,-0.04342 0.13457,-0.06056 0.15304,-0.05689 0.30807,-0.108306 0.46141,-0.16437 0.0508,-0.01858 0.10376,-0.03134 0.1538,-0.05191 0.0975,-0.04006 0.19156,-0.08809 0.28838,-0.129767 0.255,-0.109757 0.51871,-0.198794 0.76901,-0.320087 0.20398,-0.09885 0.39734,-0.219921 0.59598,-0.328739 0.07,-0.03836 0.14432,-0.06929 0.21148,-0.112462 0.0234,-0.01507 0.0348,-0.04457 0.0577,-0.06056 0.0356,-0.0249 0.0786,-0.03741 0.11535,-0.06056 0.20469,-0.128949 0.39182,-0.285547 0.59598,-0.415249 0.0367,-0.02329 0.0789,-0.03689 0.11535,-0.06056 0.0217,-0.01409 0.0359,-0.03792 0.0577,-0.0519 0.0683,-0.04393 0.14368,-0.07637 0.21148,-0.121115 0.0288,-0.019 0.0489,-0.04906 0.0769,-0.06921 0.0364,-0.0262 0.078,-0.04446 0.11535,-0.06921 0.0716,-0.04738 0.14031,-0.09903 0.21147,-0.147067 0.0314,-0.02119 0.0641,-0.04037 0.0961,-0.06056 0.0385,-0.02018 0.0791,-0.0367 0.11534,-0.06056 0.27892,-0.183435 0.0354,-0.03199 0.19226,-0.164369 0.0302,-0.02546 0.0641,-0.04614 0.0961,-0.06921 0.0449,-0.04326 0.0883,-0.08808 0.13458,-0.129765 0.16873,-0.151845 -0.0142,0.02609 0.1538,-0.112464 0.0532,-0.04389 0.10158,-0.09337 0.15381,-0.138415 0.13182,-0.113689 0.2787,-0.204974 0.40372,-0.328739 0.0533,-0.05273 0.0769,-0.05026 0.0769,-0.121115 0,-0.01154 0.006,-0.02468 0,-0.0346 -0.11135,-0.187891 -0.36931,-0.346747 -0.5383,-0.467154 -0.21443,-0.15278 -0.0416,-0.05447 -0.38451,-0.25088 -0.0499,-0.02856 -0.10324,-0.05056 -0.1538,-0.07786 -0.0456,-0.02463 -0.0883,-0.05445 -0.13458,-0.07786 -0.10766,-0.0545 -0.21926,-0.101004 -0.32683,-0.155717 -0.04,-0.02033 -0.0769,-0.04614 -0.11534,-0.06921 -0.0577,-0.02595 -0.11618,-0.05014 -0.17303,-0.07786 -0.097,-0.04728 -0.19139,-0.09978 -0.28838,-0.147067 -0.0568,-0.02771 -0.11725,-0.04805 -0.17303,-0.07786 -0.047,-0.02513 -0.0885,-0.05971 -0.13457,-0.08651 -0.15862,-0.09219 -0.31654,-0.186137 -0.48064,-0.268182 -0.0628,-0.03143 -0.12892,-0.05605 -0.19225,-0.08651 -0.12255,-0.05895 -0.24273,-0.122724 -0.36528,-0.181672 -0.15364,-0.0739 -0.24434,-0.107442 -0.40373,-0.17302 -0.48369,-0.198996 -0.96968,-0.391666 -1.46112,-0.57097 -0.0762,-0.02782 -0.15463,-0.04958 -0.2307,-0.07786 -0.0714,-0.02654 -0.13995,-0.06036 -0.21148,-0.08651 -0.191,-0.06983 -0.38633,-0.127564 -0.57676,-0.198972 -0.17449,-0.06543 -0.34698,-0.136139 -0.51908,-0.207624 -0.20048,-0.08328 -0.39064,-0.176959 -0.59598,-0.250881 -0.0632,-0.02275 -0.12884,-0.03836 -0.19226,-0.06056 -0.23141,-0.08099 -0.45912,-0.17363 -0.6921,-0.25088 -0.27785,-0.09213 -0.24614,-0.06933 -0.61521,-0.181671 -0.15529,-0.04727 -0.30593,-0.109077 -0.46141,-0.155721 -0.33808,-0.10142 -0.67741,-0.189605 -1.01894,-0.276831 -0.15406,-0.03935 -0.30669,-0.08437 -0.4614,-0.121115 -0.0761,-0.01807 -0.1538,-0.02884 -0.2307,-0.04325 -0.0769,-0.0173 -0.15403,-0.03364 -0.23071,-0.05191 -0.36477,-0.0869 -0.35448,-0.09134 -0.65366,-0.155721 -0.22104,-0.04757 -0.40382,-0.07788 -0.63443,-0.129765 -0.12952,-0.02914 -0.25479,-0.07557 -0.38451,-0.103812 -0.13391,-0.02916 -0.26942,-0.05056 -0.40373,-0.07786 -0.0644,-0.01307 -0.1277,-0.0311 -0.19225,-0.04325 -0.21106,-0.03976 -0.4227,-0.07647 -0.63443,-0.112464 -0.14667,-0.02492 -0.29562,-0.03503 -0.44218,-0.06056 -0.0986,-0.01717 -0.39252,-0.07774 -0.53831,-0.112464 -0.0578,-0.01378 -0.11455,-0.03254 -0.17302,-0.04325 -0.11473,-0.02104 -0.23089,-0.0334 -0.34606,-0.05191 -0.4311,-0.06928 0.035,7.7e-5 -0.36528,-0.06921 -0.16533,-0.03409 -0.33358,-0.0498 -0.49986,-0.07786 -0.21118,-0.03564 -0.42174,-0.07723 -0.63443,-0.103815 -0.47549,-0.05943 0.24064,0.04763 -0.48063,-0.06056 -0.23135,-0.0347 -0.46033,-0.09044 -0.69211,-0.121116 -0.24248,-0.03209 -0.48761,-0.04749 -0.73056,-0.07786 -0.21716,-0.02714 -0.43563,-0.05081 -0.65366,-0.06921 -0.1535,-0.01296 -0.30783,-0.01394 -0.4614,-0.02596 -0.0451,-0.0035 -0.0896,-0.01297 -0.13458,-0.0173 -0.16608,-0.01601 -0.33342,-0.02212 -0.49986,-0.0346 -0.1536,-0.01151 -0.3075,-0.02883 -0.4614,-0.0346 -0.1664,-0.0062 -0.3335,-0.0024 -0.49986,-0.0087 -0.17953,-0.0067 -0.35883,-0.0186 -0.53831,-0.02596 -0.1724,-0.0071 -0.34642,0 -0.51908,0 -0.28153,0 -0.56446,-0.0063 -0.84591,0 -0.0322,7.94e-4 -0.064,0.0075 -0.0961,0.0087 -0.0512,0.0019 -0.10255,-0.0013 -0.1538,0 -0.21107,0.0059 -0.42462,0.0283 -0.63443,0.05191 -0.096,0.0108 -0.0511,0.0087 -0.13458,0.0087 -0.0192,0 -0.0577,-0.01923 -0.0577,0 0,0.01924 0.0444,-0.01392 0.0577,0 0.0139,0.01463 0,0.04037 0,0.06056"
         id="path44370-7" />
      <path
         style="fill:none;stroke:#000000;stroke-width:1;stroke-linecap:round;stroke-linejoin:round"
         d="m 127.62716,63.011275 c 0.56046,0.975171 0.0915,0.214521 0.40373,0.648826 0.1874,0.260639 0.004,0.06556 0.30761,0.415249 0.0409,0.04702 0.0913,0.08488 0.13457,0.129767 0.12638,0.131235 0.24149,0.272912 0.36528,0.406597 0.0437,0.04722 0.0915,0.09065 0.13458,0.138417 0.0844,0.09347 0.28249,0.350072 0.32683,0.415249 0.0311,0.04574 0.046,0.101182 0.0769,0.147067 0.0335,0.04982 0.0836,0.08742 0.11535,0.138417 0.0584,0.09394 0.097,0.199191 0.1538,0.294134 0.0332,0.05543 0.0826,0.100041 0.11535,0.155718 0.0254,0.04308 0.035,0.09388 0.0577,0.138417 0.0955,0.187488 0.21513,0.364515 0.30761,0.553666 0.0978,0.132481 0.12384,0.296094 0.19225,0.441201 0.0225,0.04774 0.0566,0.08969 0.0769,0.138416 0.067,0.160929 0.0919,0.26171 0.13458,0.415249 0.054,0.194324 0.11801,0.389678 0.15379,0.58827 0.01,0.05429 0.0107,0.109865 0.0192,0.16437 0.11282,0.723363 0.0221,0.04951 0.0769,0.493107 0.0289,0.234306 0.0384,0.465098 0.0384,0.700733 0,0.121114 0.0107,0.242704 0,0.363342 -0.003,0.03788 -0.0149,0.07468 -0.0192,0.112464 -0.009,0.07477 -0.007,0.150702 -0.0192,0.224927 -0.007,0.04178 -0.029,0.07983 -0.0385,0.121115 -0.01,0.04261 -0.006,0.088 -0.0192,0.129765 -0.0257,0.08297 -0.066,0.160768 -0.0961,0.242227 -0.0403,0.108826 -0.0326,0.140834 -0.0961,0.242229 -0.16396,0.261591 -0.13999,0.176937 -0.32683,0.4239 -0.10104,0.07766 -0.12323,0.205168 -0.19225,0.302786 -0.0223,0.0315 -0.053,0.05621 -0.0769,0.08651 -0.0467,0.05918 -0.0888,0.121784 -0.13458,0.181672 -0.0248,0.03241 -0.0558,0.06028 -0.0769,0.09516 -0.0177,0.02926 -0.0256,0.06344 -0.0384,0.09516 -0.0385,0.05767 -0.0751,0.116616 -0.11535,0.17302 -0.0795,0.111239 -0.19624,0.204793 -0.28838,0.302786 -0.0206,0.02188 -0.0367,0.04768 -0.0577,0.06921 -0.024,0.02472 -0.0554,0.04228 -0.0769,0.06921 -0.0366,0.04573 -0.0595,0.101337 -0.0961,0.147068 -0.0215,0.02693 -0.0529,0.04448 -0.0769,0.06921 -0.0613,0.06302 -0.11676,0.131453 -0.17303,0.198974 -0.0784,0.09406 -0.15827,0.196353 -0.23071,0.294135 -0.0618,0.08337 -0.11099,0.175785 -0.17302,0.25953 -0.0778,0.104995 -0.16586,0.203048 -0.24993,0.302786 -0.0983,0.116574 -0.20265,0.21711 -0.3076,0.328738 -0.0206,0.02188 -0.0374,0.04705 -0.0577,0.06921 -0.0802,0.08764 -0.18517,0.175304 -0.26915,0.250879 -0.0591,0.05322 -0.11184,0.113536 -0.17303,0.16437 -0.0554,0.04607 -0.11471,0.08738 -0.17302,0.129765 -0.0728,0.05291 -0.0855,0.05096 -0.15381,0.112464 -0.0271,0.0244 -0.0508,0.05239 -0.0769,0.07786 -0.0123,0.01204 -0.0227,0.04168 -0.0384,0.0346 -0.0669,-0.03009 -0.0292,-0.106891 -0.0192,-0.147069"
         id="path62760-9" />
    </g>
    <path
       style="fill:none;fill-opacity:0;stroke:#000000;stroke-width:1;stroke-linecap:round;stroke-linejoin:round;stroke-opacity:1"
       d="m 106.57005,79.869974 c 0.4894,0.03262 0.9788,0.06525 1.4682,0.09788 0.18126,0.01633 0.36224,0.03604 0.54377,0.04893 0.16293,0.01156 0.327,0.0069 0.4894,0.02447 0.29117,0.03144 0.57988,0.0826 0.87004,0.122343 0.54382,0.07448 1.09051,0.151993 1.63132,0.244698 5.2e-4,7.6e-5 0.65206,0.146719 0.65251,0.146809 0.217,0.0434 0.43784,0.06867 0.65253,0.122343 0.11268,0.02817 0.21501,0.08897 0.32625,0.122344 0.10678,0.03203 0.22026,0.03895 0.32628,0.07341 0.42008,0.13652 0.84636,0.307443 1.25067,0.489373 0.21751,0.09788 0.43502,0.195747 0.65253,0.293622 0.0906,0.04078 0.18856,0.06818 0.27189,0.122343 0.0818,0.05316 0.13546,0.143007 0.21751,0.195752 0.17327,0.111389 0.36422,0.192635 0.54376,0.293621 0.11055,0.06218 0.21062,0.143709 0.32628,0.195755 1.23401,0.555286 -0.60947,-0.453935 1.08753,0.489373 1.00551,0.558925 -0.37705,-0.186571 0.4894,0.342564 0.62367,0.380876 1.30462,0.65555 1.95757,0.978747 0.34466,0.1706 0.67523,0.368895 1.03318,0.513852 0.24706,0.100047 0.50998,0.155835 0.76128,0.244687 0.30552,0.108021 0.5444,0.254643 0.87004,0.342564 0.19505,0.05266 0.40309,0.04521 0.59814,0.09788 0.093,0.02511 0.17827,0.07519 0.27188,0.09787 0.47238,0.114454 1.05355,0.180303 1.52258,0.269166 0.0922,0.01746 0.17924,0.05824 0.27188,0.0734 0.10763,0.01762 0.21814,0.01016 0.32625,0.02447 0.2003,0.02651 0.39809,0.06973 0.59816,0.09787 0.0901,0.01267 0.18209,0.0098 0.27189,0.02447 0.11001,0.01799 0.21642,0.05439 0.32625,0.0734 0.32315,0.05593 0.39432,0.04528 0.70691,0.07341 0.38056,0.03425 0.76097,0.07644 1.14192,0.09788 0.3421,0.01926 0.6905,0 1.03316,0 0.17815,0 0.36586,0.01336 0.54379,0 0.43382,-0.03255 -0.10641,-0.02447 0.32625,-0.02447"
       id="path115350" />
    <path
       style="fill:none;fill-opacity:0;stroke:#000000;stroke-width:1;stroke-linecap:round;stroke-linejoin:round;stroke-opacity:1"
       d="m 106.40693,99.444994 c 2.06634,-0.203904 4.13896,-0.351883 6.19901,-0.611717 0.33795,-0.04262 0.65829,-0.178247 0.97878,-0.293621 1.17915,-0.424471 1.37583,-0.572262 2.50137,-1.223444 0.32933,-0.190537 0.66342,-0.374388 0.97878,-0.58725 0.30183,-0.203724 0.56471,-0.462204 0.87003,-0.660652 1.18134,-0.767842 2.42896,-1.423191 3.69765,-2.030915 0.36195,-0.206333 0.76628,-0.315058 1.14193,-0.489376 0.53235,-0.247031 1.04174,-0.542168 1.57693,-0.782995 0.12401,-0.0558 0.25477,-0.09533 0.38064,-0.14682 0.39956,-0.119324 0.75949,-0.33052 1.14193,-0.489373 0.49949,-0.207468 1.00494,-0.427125 1.52255,-0.587251 0.28288,-0.106735 0.58149,-0.158122 0.87005,-0.244686 0.33649,-0.100941 0.13231,-0.0611 0.54376,-0.195755 0.35109,-0.1149 0.72572,-0.155083 1.08756,-0.22021 0.46579,-0.08384 0.94084,-0.160284 1.4138,-0.195752 0.12652,-0.0095 0.25376,0 0.38063,0 0.0544,0 0.20821,-0.03043 0.16314,0 -0.0778,0.05252 -0.18171,0.04732 -0.27188,0.07341 -0.16361,0.04733 -0.32626,0.09787 -0.4894,0.146809"
       id="path115352" />
    <path
       style="fill:none;fill-opacity:0;stroke:#000000;stroke-width:1;stroke-linecap:round;stroke-linejoin:round;stroke-opacity:1"
       d="m 156.54273,87.602112 c 0.64537,-0.119555 1.30977,-0.112829 1.95757,-0.220221 0.14663,-0.02432 0.28862,-0.07225 0.43502,-0.09788 0.18017,-0.03153 0.36355,-0.04222 0.54377,-0.07341 0.11188,-0.01937 0.21752,-0.06524 0.32628,-0.09787 0.0544,-0.01633 0.21488,-0.02564 0.16311,-0.04895 -0.22804,-0.102616 -0.67512,0.02987 -0.87002,0.146812 -0.021,0.0126 0.008,0.05046 0,0.07341 -0.0106,0.02856 -0.0471,0.04384 -0.0544,0.07341 -0.0461,0.186455 0.0256,0.188825 0.21751,0.220221 0.12548,0.02053 0.2535,0.02447 0.38065,0.02447 0.0575,0 0.35165,-0.06036 0.38065,-0.07341 0.24343,-0.109543 0.94743,-0.595522 1.08753,-0.831938 0.019,-0.03211 -0.0362,-0.06525 -0.0544,-0.09788 -0.0181,-0.03263 -0.0219,-0.07958 -0.0544,-0.09788 -0.25182,-0.141644 -0.63208,-0.252224 -0.92441,-0.171278 -0.51816,0.143479 -0.33302,0.08367 -0.59816,0.36703 -0.42663,0.455938 -0.22906,0.112776 -0.59814,0.880883 -0.12326,0.256527 -0.18598,0.317198 0.0544,0.513839 0.13198,0.107974 0.27593,0.207793 0.43502,0.269156 0.10176,0.03924 0.21746,0.01693 0.32626,0.02447 0.12684,0.0088 0.25437,0.0393 0.38065,0.02447 0.25321,-0.02972 1.05089,-0.175955 1.35943,-0.342564 0.12406,-0.06699 0.21751,-0.179445 0.32626,-0.269163 0.21751,-0.179438 0.45513,-0.336963 0.65253,-0.538308 0.0784,-0.07995 0.11264,-0.193688 0.16312,-0.293629 0.0402,-0.07967 0.13266,-0.158687 0.10877,-0.244689 -0.0939,-0.337852 -0.3259,-0.373619 -0.59816,-0.440439 -0.47232,-0.115925 -0.9649,-0.0508 -1.41381,0.122351 -0.12981,0.05007 -0.26885,0.08844 -0.38063,0.171278 -0.20036,0.148492 -0.37952,0.326202 -0.54379,0.513842 -0.0737,0.08424 -0.10874,0.195755 -0.16311,0.29363 -0.19779,0.35601 -0.25685,0.309221 -0.0544,0.783005 0.0678,0.158713 0.37197,0.225218 0.4894,0.244686 0.31799,0.05272 1.13364,0.132586 1.46818,-0.07341 0.2401,-0.147846 0.4484,-0.343797 0.65253,-0.538316 0.34674,-0.330414 0.41261,-0.593198 0.38063,-1.125558 -0.005,-0.09027 -0.34518,-0.188392 -0.38063,-0.195755 -0.8344,-0.173289 -1.39963,-0.01669 -2.12071,0.415975"
       id="path115354" />
    <path
       style="fill:none;fill-opacity:0;stroke:#000000;stroke-width:1;stroke-linecap:round;stroke-linejoin:round;stroke-opacity:1"
       d="m 161.16478,85.987169 c -0.2175,-0.03262 -0.44957,-0.01307 -0.65251,-0.09788 -0.13405,-0.05601 -0.10877,-0.288555 -0.10877,-0.391496 0,-0.0571 -0.0269,-0.120909 0,-0.171289 0.086,-0.161208 0.21753,-0.293616 0.32628,-0.44043 0.19932,-0.269063 0.30198,-0.39674 0.4894,-0.734071 0.1803,-0.324532 0.21314,-0.806437 0.27188,-1.150025 0.17246,-1.008853 -0.0503,0.350245 0.0544,-0.709593 0.0357,-0.361218 0.0791,-0.723533 0.16314,-1.076635 0.0876,-0.367959 0.2884,-0.746752 0.43502,-1.076627 0.24329,-0.54738 0.48662,-1.108813 0.70688,-1.663874 0.0634,-0.159824 0.10342,-0.328129 0.16314,-0.489374 0.3458,-0.9336 0.75686,-1.846617 1.14193,-2.764977 0.20407,-0.486686 0.39319,-1.025803 0.65253,-1.492589 1.32187,-2.379268 0.0358,-0.170646 0.81565,-1.223447 1.40528,-2.134153 -0.209,0.25766 0.7069,-0.978746 0.0624,-0.0843 0.0928,-0.191283 0.16314,-0.269153 0.16712,-0.185108 0.37078,-0.334219 0.54377,-0.513852 0.0634,-0.0658 0.1034,-0.151101 0.16314,-0.220221 0.18647,-0.215765 0.40438,-0.402463 0.59813,-0.611717 0.25202,-0.272171 0.51335,-0.528537 0.7613,-0.807471 0.0564,-0.06348 0.10173,-0.137044 0.16312,-0.195744 0.0843,-0.0806 0.18837,-0.138803 0.27188,-0.220221 0.12689,-0.138657 0.25377,-0.277315 0.38065,-0.415972 0.0725,-0.05709 0.15143,-0.106855 0.21751,-0.171278 0.0436,-0.04251 0.0635,-0.106072 0.10875,-0.14681 0.48124,-0.433104 0.23072,-0.157011 0.59815,-0.440441 0.2462,-0.189905 0.49221,-0.3863 0.70691,-0.611717 0.0753,-0.07902 0.15526,-0.155051 0.21751,-0.244686 0.0298,-0.04287 0.0173,-0.110104 0.0544,-0.14682 0.0591,-0.05853 0.15,-0.07374 0.21751,-0.122344 0.0128,-0.0092 0.41339,-0.33388 0.4894,-0.415964 0.16751,-0.180901 0.31262,-0.38779 0.48939,-0.562785 0.26526,-0.262596 0.0746,-0.04135 0.43502,-0.342564 0.0994,-0.111855 0.10549,-0.127807 0.21751,-0.220221 0.19497,-0.160829 0.40318,-0.304072 0.59814,-0.464907 0.18257,-0.150614 0.31933,-0.363905 0.54379,-0.464907 0.0878,-0.03953 0.18404,-0.05835 0.27188,-0.09788 0.21365,-0.09614 0.38298,-0.270214 0.59814,-0.36703 0.38209,-0.143272 0.22036,-0.07468 0.48939,-0.195745 0.0906,-0.04078 0.17773,-0.09056 0.27189,-0.122343 0.0521,-0.0176 0.10988,-0.0108 0.16313,-0.02447 0.0741,-0.01905 0.14501,-0.04893 0.21752,-0.0734 0.32494,-0.109661 0.64613,-0.23256 0.97878,-0.318095 2.1e-4,-5.5e-5 0.43482,-0.09781 0.43502,-0.09788 0.15856,-0.05096 0.47362,-0.26601 0.32626,-0.122343 -0.14601,0.142343 -0.32626,0.244686 -0.48939,0.36703"
       id="path115358" />
    <path
       style="fill:none;fill-opacity:0;stroke:#000000;stroke-width:1;stroke-linecap:round;stroke-linejoin:round;stroke-opacity:1"
       d="m 161.21918,87.259548 c 0.12687,0.391501 0.29039,0.77297 0.38062,1.174501 0.14563,0.648012 0.0811,1.189302 0.16314,1.835153 0.0124,0.09731 0.2084,1.149051 0.27189,1.394722 0.0938,0.363066 0.22588,0.715317 0.32625,1.076624 4e-5,1.32e-4 0.10875,0.489241 0.10877,0.489384 0.0589,0.52978 -0.13344,-0.08048 0.10874,0.709596 0.0262,0.08534 0.0778,0.160986 0.10877,0.244687 0.0733,0.19789 0.0971,0.411271 0.16311,0.611717 0.0605,0.183824 0.15576,0.354896 0.21752,0.538308 0.0573,0.170312 0.1136,0.341103 0.16313,0.51385 0.023,0.08031 0.0239,0.166904 0.0544,0.244686 0.0247,0.06296 0.0725,0.114184 0.10877,0.171278 0.0725,0.114186 0.13447,0.235794 0.21751,0.342564 0.0449,0.05775 0.11267,0.09385 0.16312,0.14682 0.0586,0.0615 0.10975,0.12968 0.16314,0.195744 0.11478,0.142031 0.31914,0.395928 0.43502,0.562785 0.0386,0.05555 0.0628,0.121655 0.10874,0.171275 0.13632,0.147214 0.29759,0.269804 0.43502,0.415975 0.0626,0.06656 0.10072,0.153514 0.16314,0.220221 0.0833,0.08903 0.18837,0.155856 0.27188,0.244687 0.11637,0.123761 0.21199,0.265803 0.32626,0.391496 0.15446,0.169897 0.19062,0.148267 0.38065,0.293632 0.11198,0.08566 0.21051,0.188661 0.32626,0.269152 0.0846,0.05881 0.18431,0.09261 0.2719,0.14681 0.18993,0.117514 0.36508,0.257503 0.54377,0.391505 0.039,0.0293 0.0683,0.0706 0.10874,0.0979 0.19044,0.12855 0.39529,0.23468 0.59816,0.34256 0.0702,0.0373 0.15391,0.0502 0.21751,0.0979 0.0487,0.0365 0.0725,0.0979 0.10874,0.14681 0.0725,0.0571 0.14217,0.11801 0.21752,0.17129 0.16577,0.11722 0.1509,0.0825 0.32625,0.17128 0.28131,0.1424 0.59522,0.26757 0.87004,0.41597 0.0429,0.0232 0.0725,0.0652 0.10877,0.0979 0.15552,0.13996 0.12873,0.13133 0.38063,0.24468 0.18973,0.0854 0.40402,0.12087 0.59816,0.19575 0.35014,0.13505 -0.0532,0.0175 0.43502,0.17128 0.52452,0.16522 1.08746,0.20973 1.6313,0.24469 0.0549,0.004 0.10876,0.0163 0.16314,0.0245 0.0906,0.008 0.18098,0.0204 0.27188,0.0245 0.16296,0.007 0.32652,-0.009 0.48939,0 0.57459,0.0323 -0.13957,0.0166 0.43502,0.0489 0.2389,0.0134 0.47004,-0.0337 0.70691,-0.0489 0.16687,-0.0108 0.32303,-0.024 0.48939,-0.0489"
       id="path115360" />
  </g>
</svg>
