<?xml version="1.0" encoding="UTF-8" standalone="no"?>
<!-- Created with Inkscape (http://www.inkscape.org/) -->

<svg
   width="155.70473mm"
   height="31.315735mm"
   viewBox="0 0 155.70472 31.315737"
   version="1.1"
   id="svg5"
   sodipodi:docname="acc.svg"
   inkscape:version="1.2.2 (b0a8486541, 2022-12-01)"
   xmlns:inkscape="http://www.inkscape.org/namespaces/inkscape"
   xmlns:sodipodi="http://sodipodi.sourceforge.net/DTD/sodipodi-0.dtd"
   xmlns="http://www.w3.org/2000/svg"
   xmlns:svg="http://www.w3.org/2000/svg">
  <sodipodi:namedview
     id="namedview7"
     pagecolor="#ffffff"
     bordercolor="#666666"
     borderopacity="1.0"
     inkscape:showpageshadow="2"
     inkscape:pageopacity="0.0"
     inkscape:pagecheckerboard="0"
     inkscape:deskcolor="#d1d1d1"
     inkscape:document-units="mm"
     showgrid="false"
     inkscape:zoom="2.3177057"
     inkscape:cx="313.67227"
     inkscape:cy="89.312462"
     inkscape:window-width="2560"
     inkscape:window-height="1372"
     inkscape:window-x="0"
     inkscape:window-y="32"
     inkscape:window-maximized="1"
     inkscape:current-layer="layer1"
     showguides="true" />
  <defs
     id="defs2" />
  <g
     inkscape:label="Layer 1"
     inkscape:groupmode="layer"
     id="layer1"
     transform="translate(-93.874706,-56.76699)">
    <path
       style="fill:none;fill-opacity:1;stroke:#000000;stroke-width:1;stroke-linecap:round;stroke-linejoin:round"
       d="m 94.374706,77.809049 c 0.950295,0.07127 0.804643,0.06959 1.691821,0.10381 1.986109,0.0766 3.973023,0.154253 5.959823,0.207628 0.73292,0.01969 1.45947,0.06851 2.19168,0.103811 0.53968,0 -0.0184,-0.0086 0.38451,0.0173 0.0384,0.0025 0.11535,-0.03845 0.11535,0 0,0.04484 -0.0769,0.04614 -0.11535,0.06921"
       id="path123085" />
    <path
       style="fill:#6ae4a3;fill-opacity:1;stroke:#000000;stroke-width:1;stroke-linecap:round;stroke-linejoin:round"
       d="m 103.87198,70.230755 c 0.28197,0.968915 0.61118,1.925314 0.84591,2.906744 0.074,0.309508 0.0554,0.634102 0.0769,0.951609 0.0297,0.438061 0.0372,0.877684 0.0769,1.314957 0.0373,0.410991 0.0907,0.820612 0.1538,1.228446 0.23159,1.498054 0.11668,-0.0298 0.30761,1.903226 0.0136,0.137746 -0.007,0.276994 0,0.415249 0.006,0.127377 0.0319,0.253284 0.0384,0.380641 0.006,0.120954 -0.007,0.242417 0,0.363347 0.006,0.110156 0.0256,0.219159 0.0384,0.328739 0.0128,0.207623 0.0299,0.415027 0.0384,0.62287 0.009,0.218974 -0.008,0.438474 0,0.657478 0.008,0.225132 0.0215,0.450124 0.0385,0.674779 0.0174,0.231457 0.0508,0.461434 0.0769,0.69208 0.0724,0.640764 0.1487,1.280919 0.2307,1.920526 0.0237,0.184814 0.0586,0.368242 0.0769,0.553667 0.032,0.323991 0.0385,0.629429 0.0385,0.951616 0,0.121114 0,0.242227 0,0.363341 0,0.02884 -0.0247,0.07167 0,0.08651 0.0333,0.02 0.0765,-0.01512 0.11536,-0.0173 0.16645,-0.0094 0.33316,-0.01418 0.49985,-0.0173 0.51259,-0.0096 1.02535,0 1.53802,0 1.59205,0 3.18304,0.02002 4.76787,0.190321 1.10572,0.118819 2.20331,0.282253 3.30674,0.415249 0.87316,0.105242 1.74079,0.175269 2.61463,0.25953 0.27734,0.02674 1.05825,0.112519 1.46112,0.138418 0.2515,0.01617 0.79664,0.03025 0.99971,0.0346 0.22699,0.0049 0.65083,0.07048 0.84592,-0.0173 0.22028,-0.09912 0.35359,-0.537735 0.42295,-0.709387 0.14016,-0.346864 0.13446,-0.702109 0.19225,-1.072727 0.13186,-0.84552 0.0361,0.148651 0.11535,-0.778589 0.0266,-0.311354 0.0436,-0.623596 0.0769,-0.934309 0.018,-0.168244 0.0579,-0.333623 0.0769,-0.501759 0.0195,-0.172397 0.0259,-0.346019 0.0384,-0.519059 0.0259,-0.357556 0.0598,-0.714643 0.0769,-1.072728 0.0168,-0.351407 0,-0.703618 0,-1.055426 0,-0.519062 0,-1.038124 0,-1.557186 0,-1.10125 0.0259,-2.204777 -0.0384,-3.304692 -0.038,-0.649819 -0.0266,-0.287342 -0.11535,-0.934309 -0.0426,-0.310889 -0.0727,-0.623419 -0.11536,-0.934308 -0.0215,-0.156351 -0.0568,-0.310624 -0.0769,-0.467158 -0.0184,-0.143576 -0.0251,-0.288415 -0.0384,-0.43255 -0.0883,-0.953667 -0.0769,-0.532072 -0.0769,-1.176537 0,-0.911242 0,-1.822483 0,-2.733724 0,-0.144183 0,-0.288367 0,-0.43255 0,-0.02307 0,-0.04614 0,-0.06921 0,-0.02307 0.0191,-0.0563 0,-0.06921 -0.0721,-0.04867 -0.27713,-0.0346 -0.34605,-0.0346 -0.32042,0 -0.64085,0 -0.96127,0 -0.91697,0 -0.29009,-0.01446 -1.69182,0.103811 -0.2178,0.01838 -0.43623,0.02954 -0.65366,0.05191 -0.23128,0.02379 -0.46087,0.06235 -0.69211,0.08651 -0.48657,0.05083 -0.97454,0.08759 -1.46111,0.138411 -0.23124,0.02415 -0.46083,0.06272 -0.69211,0.08651 -0.21743,0.02236 -0.43593,0.03274 -0.65366,0.05191 -0.5991,0.05275 -1.04791,0.1078 -1.61492,0.138419 -0.61463,0.03319 -1.23117,0.03314 -1.84562,0.06921 -0.14122,0.0083 -0.28197,0.02307 -0.42296,0.0346 -0.28197,0.01153 -0.56413,0.01923 -0.84592,0.0346 -0.74843,0.04082 -1.4843,0.198517 -2.23012,0.259537 -0.14063,0.01151 -0.2822,0.0074 -0.42296,0.0173 -0.41058,0.02887 -0.82116,0.05996 -1.23041,0.103811 -0.43611,0.04672 -0.87207,0.102302 -1.30732,0.155719 -0.22961,0.02818 -0.46173,0.03117 -0.69211,0.0519 -0.32128,0.02892 -0.63975,0.07488 -0.96126,0.103817 z"
       id="path123087" />
    <path
       style="fill:none;fill-opacity:1;stroke:#000000;stroke-width:1;stroke-linecap:round;stroke-linejoin:round"
       d="m 113.36925,81.87503 c -0.0171,-0.454068 -0.0244,-1.26173 -0.11535,-1.747507 -0.058,-0.309816 -0.14115,-0.614801 -0.2307,-0.917008 -0.14129,-0.476812 -0.30452,-0.946861 -0.46141,-1.418767 -0.23118,-0.695329 -0.30574,-0.887128 -0.57675,-1.574486 -0.0367,-0.093 -0.0806,-0.183091 -0.11536,-0.276837 -0.0354,-0.09557 -0.0499,-0.185187 -0.0384,-0.190321 0.23329,-0.104981 0.56528,-0.04617 0.80746,-0.05191 0.72954,-0.01728 1.46599,-0.04738 2.19168,-0.121112 1.7881,-0.181683 0.22539,0.0011 0.92281,-0.138418 0.17184,-0.03437 0.34762,-0.01942 0.46141,-0.17302"
       id="path123089" />
    <path
       style="fill:none;fill-opacity:1;stroke:#000000;stroke-width:1;stroke-linecap:round;stroke-linejoin:round"
       d="m 112.40799,79.089397 c 0.88468,-0.06596 1.76903,0.0173 2.65308,0.0173"
       id="path123091" />
    <path
       style="fill:none;fill-opacity:1;stroke:#000000;stroke-width:1;stroke-linecap:round;stroke-linejoin:round"
       d="m 122.78962,79.002887 c 0.23071,0.01154 0.46125,0.02691 0.69211,0.03461 0.55097,0.01837 1.10268,-0.0074 1.65337,-0.01731 1.34569,-0.02423 2.69214,-0.01828 4.03731,-0.0519 0.0771,-0.0019 0.15364,-0.01441 0.2307,-0.0173 0.49937,-0.01872 0.99978,-0.01731 1.49957,-0.01731 0.15047,0 0.49756,-0.0072 0.49986,0 0.0145,0.04558 -0.0513,0.08075 -0.0769,0.121118"
       id="path123093" />
    <path
       style="fill:none;fill-opacity:1;stroke:#000000;stroke-width:1;stroke-linecap:round;stroke-linejoin:round"
       d="m 139.36179,75.421365 c -0.20507,0.236463 -0.41692,0.467207 -0.61521,0.709387 0.034,0.137964 0.10891,-0.132626 0.0769,-0.103817 -0.11128,0.100146 -0.10832,0.383851 -0.0384,0.501759 0.0527,0.08887 0.38948,0.09348 0.46141,0.06921 0.24014,-0.08104 0.78747,-1.193339 0.11535,-1.176538 -0.28684,0.0072 -0.30001,0.489449 -0.46141,0.726688 -0.0314,0.04609 -0.0865,0.07343 -0.11535,0.121111 -0.0167,0.0275 0.008,0.126949 0.0384,0.138419 0.20602,0.07725 0.33679,-0.04094 0.49986,-0.17302 0.0372,-0.0301 0.0458,-0.08476 0.0769,-0.121118 0.006,-0.0069 0.20231,-0.166887 0.19225,-0.207621 -0.0277,-0.112129 -0.23184,-0.03444 -0.34605,-0.0173"
       id="path123095" />
    <path
       style="fill:none;fill-opacity:1;stroke:#000000;stroke-width:1;stroke-linecap:round;stroke-linejoin:round"
       d="m 140.1308,79.971804 c 0.3492,-0.960872 -1.19582,-0.253212 -1.07661,0.08651 0.0126,0.03602 0.22421,0.174718 0.3076,0.121111 0.0432,-0.02775 0.21597,-0.231911 0.2307,-0.311431 0.0168,-0.09054 -0.11971,-0.0871 -0.1538,-0.06921 -0.0494,0.02591 -0.0822,0.07631 -0.11535,0.121111 -0.11426,0.154241 -0.19225,0.265654 -0.19225,0.449858 0,0.02884 -0.0185,0.06436 0,0.08651 0.027,0.03239 0.0745,0.0414 0.11535,0.0519 0.05,0.01285 0.10302,0.02645 0.1538,0.01731 0.1646,-0.02962 0.79971,-0.408468 0.73056,-0.553668 -0.0775,-0.162671 -0.63542,-0.102295 -0.84591,-0.08651"
       id="path123097" />
    <path
       style="fill:none;fill-opacity:1;stroke:#000000;stroke-width:1;stroke-linecap:round;stroke-linejoin:round"
       d="m 141.86107,77.255381 c 3.24276,0 2.05131,0.03547 3.5759,-0.0173"
       id="path123099" />
    <path
       style="fill:none;fill-opacity:1;stroke:#000000;stroke-width:1;stroke-linecap:round;stroke-linejoin:round"
       d="m 142.66853,79.989105 c 0.98745,0.148111 0.52552,0.100875 1.99943,0.138418 0.26906,0.0069 0.53864,-0.01344 0.80746,0 0.17099,0.0085 0.1538,-0.03071 0.1538,0.06921"
       id="path123101" />
    <path
       style="fill:#6ae4a3;fill-opacity:1;stroke:#000000;stroke-width:1;stroke-linecap:round;stroke-linejoin:round"
       d="m 169.19939,78.760658 c 0.3121,-0.548611 0.96173,-0.718506 1.38421,-1.141936 0.17866,-0.179064 0.33062,-0.382967 0.49986,-0.570969 0.24093,-0.267648 0.47999,-0.537234 0.73055,-0.79589 0.18543,-0.191416 0.38615,-0.367417 0.57677,-0.553667 0.25799,-0.252081 0.50647,-0.513944 0.769,-0.761289 0.14783,-0.139277 0.30531,-0.268004 0.46141,-0.397948 0.1003,-0.0835 0.20251,-0.164846 0.30761,-0.24223 0.0361,-0.02659 0.0745,-0.08761 0.11535,-0.06921 0.0744,0.03347 0.10046,0.128614 0.15379,0.190327 0.0365,0.04218 0.0711,0.08724 0.11536,0.121112 0.0847,0.0648 0.18558,0.106757 0.26916,0.173019 0.37341,0.296049 0.75171,0.634138 1.03816,1.020826 0.21343,0.288125 0.42081,0.581107 0.61521,0.8824 0.0545,0.0845 0.094,0.178725 0.1538,0.25953 0.0567,0.07649 0.37144,0.451036 0.49985,0.588269 0.16589,0.177301 0.32051,0.370121 0.53831,0.484458 0.0498,0.02613 0.10028,0.05201 0.15381,0.06921 0.037,0.0119 0.10826,-0.02093 0.11534,0.0173 0.0271,0.146522 -0.30248,0.460606 -0.3845,0.536368 -0.17733,0.163791 -0.35358,0.329047 -0.53831,0.484451 -0.23381,0.196706 -0.49196,0.362793 -0.73056,0.553668 -0.32485,0.259863 -0.65204,0.517622 -0.96126,0.795897 -0.0798,0.07184 -0.14887,0.155364 -0.23071,0.224921 -0.26358,0.224038 -0.53705,0.398728 -0.80745,0.605577 -0.13364,0.102231 -0.24449,0.205923 -0.38451,0.294131 -0.0279,0.01759 -0.18148,0.121034 -0.2307,0.10381 -0.11197,-0.03919 -0.45539,-0.316015 -0.57677,-0.397941 -0.15117,-0.102042 -0.30939,-0.193337 -0.46139,-0.294138 -0.37662,-0.249751 -0.74279,-0.547359 -1.07662,-0.847799 -0.0701,-0.0631 -0.1237,-0.142845 -0.19225,-0.207628 -0.0599,-0.05664 -0.13096,-0.100547 -0.19225,-0.155712 -0.0926,-0.08338 -0.17652,-0.176161 -0.26916,-0.259537 -0.0357,-0.03215 -0.0796,-0.05436 -0.11535,-0.08651 -0.0287,-0.02581 -0.0441,-0.06621 -0.0769,-0.08651 -0.19162,-0.118556 -0.4387,-0.163652 -0.65366,-0.207621 -0.0381,-0.0078 -0.0811,10e-4 -0.11535,-0.0173 -0.17314,-0.09252 -0.33323,-0.207626 -0.49985,-0.311439 z"
       id="path123107" />
    <path
       style="fill:#6ae4a3;fill-opacity:1;stroke:#000000;stroke-width:1;stroke-linecap:round;stroke-linejoin:round"
       d="m 169.85305,67.237495 c 0.0852,0.907007 0.17141,1.20798 0.0769,2.041644 -0.0336,0.29667 -0.11199,0.586779 -0.1538,0.882407 -0.048,0.339065 -0.0829,0.679923 -0.11536,1.020819 -0.006,0.06315 -0.0227,0.13108 0,0.19032 0.0437,0.113925 0.10158,0.229827 0.19227,0.311439 0.0484,0.04356 0.1274,0.02877 0.19225,0.0346 0.31995,0.0288 0.6404,0.05317 0.96125,0.06921 0.76726,0.03836 1.5387,0.05191 2.30703,0.05191 0.6024,0 1.20479,0 1.80718,0 0.25634,0 0.51279,-0.0077 0.76902,0 0.22827,0.0068 0.43157,0.02335 0.65364,0.0519 2e-5,2e-6 0.23069,0.03462 0.23071,0.03461 0.025,-0.0084 0.0299,-0.04424 0.0385,-0.06921 0.10486,-0.30674 0.12133,-0.612759 0.1538,-0.934309 0.01,-0.09838 0.0332,-0.195399 0.0385,-0.294138 0.0354,-0.660619 0.0384,-1.312838 0.0384,-1.972435 0,-0.738219 0,-1.476438 0,-2.214657 0,-0.524558 0.10077,-1.025325 0.19226,-1.539885 0.0267,-0.150442 0.0385,-0.254808 0.0385,-0.397948 0,-0.04037 0.0323,-0.09689 0,-0.121111 -0.0293,-0.02198 -0.19918,-0.01832 -0.23071,-0.0173 -0.4691,0.01508 -0.3398,0.009 -0.769,0.0519 -0.55233,0.05523 -1.10159,0.130135 -1.65338,0.190328 -0.14062,0.01534 -0.2823,0.01953 -0.42296,0.0346 -0.75694,0.0811 -1.51143,0.198204 -2.26857,0.27683 -0.0894,0.0093 -0.17956,0.01 -0.26916,0.01731 -0.14858,0.01216 -0.43794,0.05953 -0.5383,0.06921 -0.13822,0.01333 -0.47248,-0.01907 -0.57676,0.08651 -0.25252,0.255678 -0.15785,0.187584 -0.23071,0.44985 -0.49328,1.775643 0.0287,-0.266333 -0.19225,0.761289 -0.0681,0.316857 -0.17818,0.623234 -0.26914,0.934309 z"
       id="path123109" />
    <path
       style="fill:none;fill-opacity:1;stroke:#000000;stroke-width:1;stroke-linecap:round;stroke-linejoin:round"
       d="m 173.42894,66.493507 c -0.36861,0.801663 -0.17982,0.308323 -0.46141,1.436075 -0.0504,0.202061 -0.11429,0.401087 -0.1538,0.605569 -0.0375,0.194166 -0.12883,0.397451 -0.0769,0.588269 0.0352,0.129447 0.18244,0.211253 0.30761,0.25953 0.20557,0.07929 0.74752,0.06011 0.96125,0 0.16236,-0.04566 0.30761,-0.138414 0.46141,-0.207621"
       id="path123111" />
    <path
       style="fill:none;fill-opacity:1;stroke:#000000;stroke-width:1;stroke-linecap:round;stroke-linejoin:round"
       d="m 172.08317,68.223713 c 2.30714,0.05464 1.46183,0.01542 2.53773,0.06921"
       id="path123113" />
    <path
       style="fill:none;fill-opacity:1;stroke:#000000;stroke-width:1;stroke-linecap:round;stroke-linejoin:round"
       d="m 177.9661,69.088819 c 1.46112,0.201856 2.94387,0.283872 4.38335,0.60557 0.48974,0.109447 0.92406,0.402784 1.34577,0.674778 0.83545,0.538844 0.90578,0.630414 1.23041,1.349558 0.0845,0.187094 0.17519,0.373349 0.23071,0.570968 0.0422,0.150095 0.26915,1.218894 0.26915,1.557186 0,0.208019 -0.0297,0.415034 -0.0385,0.62287 -0.004,0.09796 0.007,0.196314 0,0.294138 -0.0141,0.209813 -0.10089,0.598593 -0.1538,0.761289 -0.0261,0.08013 -0.0757,0.15058 -0.11536,0.224928 -0.15938,0.29884 -0.34213,0.60146 -0.57675,0.847799 -0.0595,0.06243 -0.13019,0.113177 -0.19225,0.17302 -0.30268,0.291862 -0.27282,0.322908 -0.57676,0.501759 -0.35758,0.210412 -0.76298,0.318047 -1.15351,0.44985 -0.48801,0.164703 -0.99063,0.29737 -1.49957,0.380648 -0.14018,0.02294 -0.28278,0.02897 -0.42296,0.05191 -0.28294,0.0463 -0.56297,0.109421 -0.84591,0.155719 -0.63396,0.103733 -1.28174,0.151863 -1.92252,0.103811 -0.0549,-0.0041 -0.39943,0.01948 -0.46141,-0.08651 -0.0505,-0.0863 -0.0769,-0.184558 -0.11536,-0.276838"
       id="path123115" />
    <path
       style="fill:none;fill-opacity:1;stroke:#000000;stroke-width:1;stroke-linecap:round;stroke-linejoin:round"
       d="m 184.92562,74.071808 c 0.2978,-0.067 0.8531,-0.198928 1.07662,-0.190328 0.13371,0.0052 1.04882,0.228701 0.99972,0.570969 -0.0164,0.114263 -0.13621,0.512573 -0.23071,0.640177 -0.0639,0.0863 -0.1422,0.164119 -0.2307,0.224929 -0.157,0.107831 -0.32112,0.21103 -0.49986,0.27683 -0.31819,0.117146 -0.84974,-0.01525 -1.11507,-0.155719 -0.0612,-0.03243 -0.0852,-0.11061 -0.11534,-0.17302 -0.0345,-0.07135 -0.0883,-0.146508 -0.0769,-0.224928 0.0262,-0.180596 0.18595,-0.718294 0.42296,-0.847799 0.26368,-0.144075 0.57483,-0.181832 0.84591,-0.311439 0.14249,-0.06812 0.23756,-0.21897 0.3845,-0.27683 0.0724,-0.02849 0.1543,0.02027 0.2307,0.0346 0.18155,0.03404 0.36137,0.04144 0.42297,0.276837 0.065,0.248495 -0.16566,0.709742 -0.30761,0.847799 -0.27318,0.265678 -0.57918,0.510067 -0.9228,0.674779 -0.53091,0.254478 -1.48916,0.193324 -1.99943,0.06921 -0.45869,-0.111566 -0.23897,-0.591077 -0.11536,-0.847798 0.0801,-0.166369 0.1711,-0.373517 0.34605,-0.432557 0.62891,-0.212249 1.30733,-0.230693 1.96098,-0.34604 0.32042,-0.02884 0.64037,-0.06354 0.96126,-0.08651 0.50251,-0.03597 0.73123,-0.06563 1.19198,0.0173 0.62369,0.11226 1.01685,0.31458 1.65336,0.588269 0.42011,0.180641 0.72613,0.350754 1.11507,0.588276 1.43352,0.875446 2.83612,1.970209 4.49871,2.370376 0.79763,0.191981 0.89189,0.224644 1.53801,0.25953 0.16648,0.009 0.33354,0.02881 0.49986,0.0173 0.17945,-0.01242 1.16193,-0.139675 1.49957,-0.19032 0.14128,-0.02119 0.28017,-0.06445 0.42295,-0.06921 0.20528,-0.0068 0.41014,0.02307 0.61521,0.03461"
       id="path123117" />
    <path
       style="fill:none;fill-opacity:1;stroke:#000000;stroke-width:1;stroke-linecap:round;stroke-linejoin:round"
       d="m 223.50984,80.590438 c 1.35406,-0.128875 2.71791,-0.09976 4.07577,-0.06921 1.83636,0.04132 -0.16326,0.04571 1.73027,0.0173 0.38237,-0.0057 0.25167,0.01993 0.73055,-0.0519 0.078,-0.01169 0.15602,-0.0267 0.23071,-0.05191 0.0673,-0.02271 0.11891,-0.101804 0.11534,-0.103811 -0.0539,-0.0303 -0.27581,-0.04514 -0.34605,-0.0346 -0.18072,0.02711 -0.36226,0.05477 -0.5383,0.10381 -0.36741,0.102344 -1.31435,0.691267 -0.80747,1.124629 0.0591,0.05053 0.15295,0.03461 0.23072,0.03461 0.21819,0 0.43724,-0.0068 0.65365,-0.03461 0.14399,-0.01851 0.28751,-0.05157 0.42295,-0.10381 0.47587,-0.18354 1.21462,-0.78786 1.38422,-1.245747 0.10491,-0.283263 0.0259,-0.4334 -0.26915,-0.484459 -0.88699,-0.153511 -1.9347,0.116094 -2.30703,1.020826 -0.11007,0.267458 -0.12574,0.301634 0.0769,0.605569 0.09,0.134999 0.37076,0.205565 0.49986,0.224929 0.11872,0.01781 0.82864,0.09857 1.07662,0.0692 0.49046,-0.05808 1.04157,-0.270913 1.30732,-0.70938 0.014,-0.0231 0.47111,-0.837541 0.19225,-0.951616 -0.18757,-0.07673 -0.57157,-0.129838 -0.76901,-0.0173 -0.13721,0.07821 -0.26898,0.169154 -0.3845,0.276837 -0.18956,0.176691 -0.35991,0.596798 -0.30761,0.847799 0.0149,0.07142 0.0965,0.110583 0.1538,0.155719 0.22275,0.175407 0.94104,0.243187 1.23041,0.121111 0.12395,-0.05229 0.24194,-0.122441 0.34606,-0.207621 0.0586,-0.04798 0.10906,-0.226121 0.11535,-0.294138 0.008,-0.08614 0.0262,-0.177075 0,-0.259529 -0.0157,-0.04931 -0.0707,-0.07769 -0.11535,-0.103811 -0.23574,-0.137906 -0.4997,-0.183118 -0.769,-0.17302 -0.28539,0.0107 -0.56392,0.04421 -0.84591,0.08651"
       id="path123127" />
    <path
       style="fill:none;fill-opacity:1;stroke:#000000;stroke-width:1;stroke-linecap:round;stroke-linejoin:round"
       d="m 232.23811,80.261699 c 0.34911,-1.885115 0.0494,-2.367119 1.26887,-3.546921 0.36659,-0.354659 1.19307,-0.623117 1.65337,-0.726681 0.46498,-0.104615 2.08652,-0.361733 2.72999,-0.449857 0.24295,-0.03327 0.4872,-0.0563 0.73055,-0.08651 0.12835,-0.01593 0.25891,-0.08273 0.38452,-0.0519 0.0519,0.01274 0.0256,0.103813 0.0384,0.15572"
       id="path123129" />
    <path
       style="fill:none;fill-opacity:1;stroke:#000000;stroke-width:1;stroke-linecap:round;stroke-linejoin:round"
       d="m 231.3153,80.486628 c 0.38451,1.015051 0.49516,2.18217 1.15352,3.045155 0.31554,0.413617 0.98909,0.332261 1.49957,0.432556 0.57079,0.112146 1.88352,0.135657 2.46082,0.08651 0.97495,-0.083 1.55961,-0.130825 2.38395,-0.501759 0.0752,-0.03384 0.12816,-0.103813 0.19225,-0.155719"
       id="path123131" />
    <path
       style="fill:none;fill-opacity:1;stroke:#000000;stroke-width:1;stroke-linecap:round;stroke-linejoin:round"
       d="m 238.544,83.739411 c 0.1538,-0.06921 0.30182,-0.153053 0.46141,-0.207628 0.4791,-0.163849 0.44042,-0.08891 0.88435,-0.17302 0.11682,-0.02214 0.22863,-0.06786 0.34606,-0.08651 0.65883,-0.104632 1.33271,-0.171906 1.99942,-0.207621 0.35878,-0.01922 0.71765,-0.03653 1.07661,-0.05191 0.11736,-0.005 0.80002,-0.03049 0.96127,-0.0173 0.28314,0.02316 0.56497,0.06167 0.84591,0.103811 0.14231,0.02135 0.28197,0.05767 0.42296,0.08651 0.50016,0.1023 1.00003,0.206535 1.49957,0.311439 0.67659,0.142084 1.34451,0.311617 2.03788,0.207628"
       id="path123135" />
    <g
       id="g113266"
       transform="translate(70.727346,11.505774)">
      <path
         style="fill:#ddf1fb;fill-opacity:1;fill-rule:nonzero;stroke:#000000;stroke-width:1;stroke-linecap:round;stroke-linejoin:round"
         d="m 129.92811,62.433277 c 0.0385,0.07786 0.0628,0.164449 0.11536,0.233577 0.0333,0.04374 0.0882,0.06563 0.13457,0.09516 0.10755,0.06856 0.21979,0.129617 0.32683,0.198975 0.0533,0.03454 0.10213,0.07553 0.15381,0.112461 0.0573,0.04094 0.11822,0.07693 0.17302,0.121115 0.0992,0.07997 0.18919,0.170911 0.28838,0.250878 0.0548,0.04419 0.11847,0.07662 0.17303,0.121116 0.0483,0.03939 0.0906,0.08565 0.13458,0.129765 0.097,0.0972 0.19528,0.193209 0.28837,0.294135 0.096,0.104095 0.18037,0.2184 0.26916,0.328739 0.0902,0.112085 0.18352,0.221787 0.26915,0.337391 0.0363,0.04901 0.0625,0.104823 0.0961,0.155718 0.22332,0.338016 0.0169,-0.02125 0.32683,0.501759 0.0349,0.05894 0.0628,0.121782 0.0961,0.181671 0.0308,0.05548 0.0722,0.10559 0.0961,0.164369 0.0469,0.115136 0.0728,0.237877 0.11535,0.354692 0.0216,0.0593 0.0545,0.114011 0.0769,0.17302 0.0225,0.0594 0.0368,0.121652 0.0577,0.181672 0.0433,0.124567 0.0952,0.246134 0.13458,0.371994 0.0472,0.150986 0.0347,0.20214 0.0577,0.354692 0.0192,0.112463 0.0384,0.224926 0.0577,0.33739 0.0128,0.05479 0.029,0.108905 0.0385,0.164369 0.01,0.0572 0.0115,0.115511 0.0192,0.17302 0.0179,0.132835 0.0408,0.26498 0.0577,0.397947 0.009,0.06895 0.01,0.138755 0.0192,0.207624 0.01,0.07255 0.0285,0.143729 0.0384,0.216277 0.0157,0.114986 0.0252,0.230743 0.0385,0.346041 0.0116,0.101073 0.0293,0.201462 0.0385,0.302785 0.008,0.09212 0.0103,0.184761 0.0192,0.276832 0.004,0.04069 0.0161,0.08036 0.0192,0.121115 0.003,0.04313 0,0.08651 0,0.129765 0,0.123998 0.009,0.248334 0,0.371994 -0.003,0.04361 -0.0151,0.08623 -0.0192,0.129766 -0.009,0.09209 -0.0103,0.184762 -0.0192,0.276832 -0.0194,0.200818 -0.0169,0.04376 -0.0577,0.25953 -0.0375,0.198371 -0.0184,0.243321 -0.0769,0.406599 -0.016,0.04456 -0.0384,0.08651 -0.0577,0.129765 -0.032,0.08363 -0.0663,0.166446 -0.0961,0.250879 -3e-5,1.08e-4 -0.0769,0.259425 -0.0769,0.259532 -0.24605,0.608933 -0.0216,0.02261 -0.17303,0.363342 -0.015,0.03372 -0.0225,0.07055 -0.0384,0.103812 -0.0693,0.144166 -0.15531,0.275299 -0.23071,0.415249 -0.0487,0.09033 -0.0847,0.187143 -0.13457,0.276834 -0.0505,0.09089 -0.11666,0.172163 -0.17303,0.25953 -0.0201,0.03117 -0.0364,0.0648 -0.0577,0.09516 -0.0173,0.02458 -0.0412,0.04413 -0.0577,0.06921 -0.0349,0.05301 -0.0621,0.110787 -0.0961,0.16437 -0.0173,0.02727 -0.0414,0.04998 -0.0577,0.07786 -0.0159,0.02724 -0.0215,0.05987 -0.0384,0.08651 -0.0519,0.0818 -0.11322,0.157336 -0.17302,0.233577 -0.08,0.101986 -0.0772,0.08337 -0.19225,0.207624 -0.0841,0.09085 -0.15955,0.191798 -0.24993,0.276834 -0.0225,0.02119 -0.0526,0.03277 -0.0769,0.05191 -0.0813,0.06401 -0.15006,0.14282 -0.23071,0.207624 -0.0362,0.02906 -0.0809,0.04683 -0.11535,0.07786 -0.024,0.02161 -0.0385,0.05191 -0.0577,0.07786 -0.0897,0.06344 -0.17895,0.127585 -0.26916,0.190321 -0.20381,0.141737 -0.40291,0.266025 -0.61521,0.397948 -0.0612,0.03805 -0.088,0.06556 -0.1538,0.09516 -0.0183,0.0082 -0.076,0.0091 -0.0577,0.0173 0.0292,0.01315 0.0642,-0.0029 0.0961,0 0.12211,0.01099 0.24321,0.03169 0.36527,0.04326 0.30199,0.02861 0.60173,0.07362 0.90359,0.10381 0.36486,0.03649 0.72937,0.04325 1.09584,0.04325 0.44662,0 0.92071,-0.0092 1.36499,-0.06921 0.1996,-0.02694 0.57916,-0.08337 0.80746,-0.129765 0.29364,-0.05967 0.62144,-0.150035 0.90359,-0.216275 0.23931,-0.05618 0.33556,-0.06746 0.57676,-0.112464 0.23262,-0.0434 0.52563,-0.10013 0.76901,-0.147065 0.281,-0.05419 0.53884,-0.104512 0.82668,-0.15572 0.34666,-0.06167 0.69243,-0.112071 1.03816,-0.18167 0.35462,-0.07139 0.70466,-0.162866 1.0574,-0.242229 0.0574,-0.01291 0.11575,-0.0212 0.17302,-0.0346 0.10299,-0.0241 0.20442,-0.05464 0.30761,-0.07786 0.279,-0.06277 0.56505,-0.09503 0.84591,-0.147066 0.59865,-0.110919 1.19725,-0.241629 1.78795,-0.389296 0.41937,-0.10484 0.83138,-0.237079 1.24964,-0.346042 0.42566,-0.110894 -0.01,0.01701 0.6152,-0.164369 0.36871,-0.107039 0.0214,-0.01279 0.36529,-0.121115 0.13401,-0.04221 0.2703,-0.07709 0.40372,-0.121115 0.0181,-0.006 0.35932,-0.144846 0.36529,-0.147067 0.12109,-0.04509 0.24242,-0.08973 0.36527,-0.129765 0.0631,-0.02057 0.12868,-0.03283 0.19225,-0.0519 0.14879,-0.04463 0.29547,-0.09605 0.44219,-0.147069 0.0842,-0.02928 0.16617,-0.06465 0.24993,-0.09516 0.29604,-0.107841 0.59255,-0.20937 0.88436,-0.328739 0.0455,-0.01862 0.0888,-0.04254 0.13458,-0.06056 0.22079,-0.08693 0.45208,-0.146641 0.67288,-0.233577 0.0458,-0.01802 0.0885,-0.04342 0.13457,-0.06056 0.15304,-0.05689 0.30807,-0.108306 0.46141,-0.16437 0.0508,-0.01858 0.10376,-0.03134 0.1538,-0.05191 0.0975,-0.04006 0.19156,-0.08809 0.28838,-0.129767 0.255,-0.109757 0.51871,-0.198794 0.76901,-0.320087 0.20398,-0.09885 0.39734,-0.219921 0.59598,-0.328739 0.07,-0.03836 0.14432,-0.06929 0.21148,-0.112462 0.0234,-0.01507 0.0348,-0.04457 0.0577,-0.06056 0.0356,-0.0249 0.0786,-0.03741 0.11535,-0.06056 0.20469,-0.128949 0.39182,-0.285547 0.59598,-0.415249 0.0367,-0.02329 0.0789,-0.03689 0.11535,-0.06056 0.0217,-0.01409 0.0359,-0.03792 0.0577,-0.0519 0.0683,-0.04393 0.14368,-0.07637 0.21148,-0.121115 0.0288,-0.019 0.0489,-0.04906 0.0769,-0.06921 0.0364,-0.0262 0.078,-0.04446 0.11535,-0.06921 0.0716,-0.04738 0.14031,-0.09903 0.21147,-0.147067 0.0314,-0.02119 0.0641,-0.04037 0.0961,-0.06056 0.0385,-0.02018 0.0791,-0.0367 0.11534,-0.06056 0.27892,-0.183435 0.0354,-0.03199 0.19226,-0.164369 0.0302,-0.02546 0.0641,-0.04614 0.0961,-0.06921 0.0449,-0.04326 0.0883,-0.08808 0.13458,-0.129765 0.16873,-0.151845 -0.0142,0.02609 0.1538,-0.112464 0.0532,-0.04389 0.10158,-0.09337 0.15381,-0.138415 0.13182,-0.113689 0.2787,-0.204974 0.40372,-0.328739 0.0533,-0.05273 0.0769,-0.05026 0.0769,-0.121115 0,-0.01154 0.006,-0.02468 0,-0.0346 -0.11135,-0.187891 -0.36931,-0.346747 -0.5383,-0.467154 -0.21443,-0.15278 -0.0416,-0.05447 -0.38451,-0.25088 -0.0499,-0.02856 -0.10324,-0.05056 -0.1538,-0.07786 -0.0456,-0.02463 -0.0883,-0.05445 -0.13458,-0.07786 -0.10766,-0.0545 -0.21926,-0.101004 -0.32683,-0.155717 -0.04,-0.02033 -0.0769,-0.04614 -0.11534,-0.06921 -0.0577,-0.02595 -0.11618,-0.05014 -0.17303,-0.07786 -0.097,-0.04728 -0.19139,-0.09978 -0.28838,-0.147067 -0.0568,-0.02771 -0.11725,-0.04805 -0.17303,-0.07786 -0.047,-0.02513 -0.0885,-0.05971 -0.13457,-0.08651 -0.15862,-0.09219 -0.31654,-0.186137 -0.48064,-0.268182 -0.0628,-0.03143 -0.12892,-0.05605 -0.19225,-0.08651 -0.12255,-0.05895 -0.24273,-0.122724 -0.36528,-0.181672 -0.15364,-0.0739 -0.24434,-0.107442 -0.40373,-0.17302 -0.48369,-0.198996 -0.96968,-0.391666 -1.46112,-0.57097 -0.0762,-0.02782 -0.15463,-0.04958 -0.2307,-0.07786 -0.0714,-0.02654 -0.13995,-0.06036 -0.21148,-0.08651 -0.191,-0.06983 -0.38633,-0.127564 -0.57676,-0.198972 -0.17449,-0.06543 -0.34698,-0.136139 -0.51908,-0.207624 -0.20048,-0.08328 -0.39064,-0.176959 -0.59598,-0.250881 -0.0632,-0.02275 -0.12884,-0.03836 -0.19226,-0.06056 -0.23141,-0.08099 -0.45912,-0.17363 -0.6921,-0.25088 -0.27785,-0.09213 -0.24614,-0.06933 -0.61521,-0.181671 -0.15529,-0.04727 -0.30593,-0.109077 -0.46141,-0.155721 -0.33808,-0.10142 -0.67741,-0.189605 -1.01894,-0.276831 -0.15406,-0.03935 -0.30669,-0.08437 -0.4614,-0.121115 -0.0761,-0.01807 -0.1538,-0.02884 -0.2307,-0.04325 -0.0769,-0.0173 -0.15403,-0.03364 -0.23071,-0.05191 -0.36477,-0.0869 -0.35448,-0.09134 -0.65366,-0.155721 -0.22104,-0.04757 -0.40382,-0.07788 -0.63443,-0.129765 -0.12952,-0.02914 -0.25479,-0.07557 -0.38451,-0.103812 -0.13391,-0.02916 -0.26942,-0.05056 -0.40373,-0.07786 -0.0644,-0.01307 -0.1277,-0.0311 -0.19225,-0.04325 -0.21106,-0.03976 -0.4227,-0.07647 -0.63443,-0.112464 -0.14667,-0.02492 -0.29562,-0.03503 -0.44218,-0.06056 -0.0986,-0.01717 -0.39252,-0.07774 -0.53831,-0.112464 -0.0578,-0.01378 -0.11455,-0.03254 -0.17302,-0.04325 -0.11473,-0.02104 -0.23089,-0.0334 -0.34606,-0.05191 -0.4311,-0.06928 0.035,7.7e-5 -0.36528,-0.06921 -0.16533,-0.03409 -0.33358,-0.0498 -0.49986,-0.07786 -0.21118,-0.03564 -0.42174,-0.07723 -0.63443,-0.103815 -0.47549,-0.05943 0.24064,0.04763 -0.48063,-0.06056 -0.23135,-0.0347 -0.46033,-0.09044 -0.69211,-0.121116 -0.24248,-0.03209 -0.48761,-0.04749 -0.73056,-0.07786 -0.21716,-0.02714 -0.43563,-0.05081 -0.65366,-0.06921 -0.1535,-0.01296 -0.30783,-0.01394 -0.4614,-0.02596 -0.0451,-0.0035 -0.0896,-0.01297 -0.13458,-0.0173 -0.16608,-0.01601 -0.33342,-0.02212 -0.49986,-0.0346 -0.1536,-0.01151 -0.3075,-0.02883 -0.4614,-0.0346 -0.1664,-0.0062 -0.3335,-0.0024 -0.49986,-0.0087 -0.17953,-0.0067 -0.35883,-0.0186 -0.53831,-0.02596 -0.1724,-0.0071 -0.34642,0 -0.51908,0 -0.28153,0 -0.56446,-0.0063 -0.84591,0 -0.0322,7.94e-4 -0.064,0.0075 -0.0961,0.0087 -0.0512,0.0019 -0.10255,-0.0013 -0.1538,0 -0.21107,0.0059 -0.42462,0.0283 -0.63443,0.05191 -0.096,0.0108 -0.0511,0.0087 -0.13458,0.0087 -0.0192,0 -0.0577,-0.01923 -0.0577,0 0,0.01924 0.0444,-0.01392 0.0577,0 0.0139,0.01463 0,0.04037 0,0.06056"
         id="path44370-7" />
      <path
         style="fill:none;stroke:#000000;stroke-width:1;stroke-linecap:round;stroke-linejoin:round"
         d="m 127.62716,63.011275 c 0.56046,0.975171 0.0915,0.214521 0.40373,0.648826 0.1874,0.260639 0.004,0.06556 0.30761,0.415249 0.0409,0.04702 0.0913,0.08488 0.13457,0.129767 0.12638,0.131235 0.24149,0.272912 0.36528,0.406597 0.0437,0.04722 0.0915,0.09065 0.13458,0.138417 0.0844,0.09347 0.28249,0.350072 0.32683,0.415249 0.0311,0.04574 0.046,0.101182 0.0769,0.147067 0.0335,0.04982 0.0836,0.08742 0.11535,0.138417 0.0584,0.09394 0.097,0.199191 0.1538,0.294134 0.0332,0.05543 0.0826,0.100041 0.11535,0.155718 0.0254,0.04308 0.035,0.09388 0.0577,0.138417 0.0955,0.187488 0.21513,0.364515 0.30761,0.553666 0.0978,0.132481 0.12384,0.296094 0.19225,0.441201 0.0225,0.04774 0.0566,0.08969 0.0769,0.138416 0.067,0.160929 0.0919,0.26171 0.13458,0.415249 0.054,0.194324 0.11801,0.389678 0.15379,0.58827 0.01,0.05429 0.0107,0.109865 0.0192,0.16437 0.11282,0.723363 0.0221,0.04951 0.0769,0.493107 0.0289,0.234306 0.0384,0.465098 0.0384,0.700733 0,0.121114 0.0107,0.242704 0,0.363342 -0.003,0.03788 -0.0149,0.07468 -0.0192,0.112464 -0.009,0.07477 -0.007,0.150702 -0.0192,0.224927 -0.007,0.04178 -0.029,0.07983 -0.0385,0.121115 -0.01,0.04261 -0.006,0.088 -0.0192,0.129765 -0.0257,0.08297 -0.066,0.160768 -0.0961,0.242227 -0.0403,0.108826 -0.0326,0.140834 -0.0961,0.242229 -0.16396,0.261591 -0.13999,0.176937 -0.32683,0.4239 -0.10104,0.07766 -0.12323,0.205168 -0.19225,0.302786 -0.0223,0.0315 -0.053,0.05621 -0.0769,0.08651 -0.0467,0.05918 -0.0888,0.121784 -0.13458,0.181672 -0.0248,0.03241 -0.0558,0.06028 -0.0769,0.09516 -0.0177,0.02926 -0.0256,0.06344 -0.0384,0.09516 -0.0385,0.05767 -0.0751,0.116616 -0.11535,0.17302 -0.0795,0.111239 -0.19624,0.204793 -0.28838,0.302786 -0.0206,0.02188 -0.0367,0.04768 -0.0577,0.06921 -0.024,0.02472 -0.0554,0.04228 -0.0769,0.06921 -0.0366,0.04573 -0.0595,0.101337 -0.0961,0.147068 -0.0215,0.02693 -0.0529,0.04448 -0.0769,0.06921 -0.0613,0.06302 -0.11676,0.131453 -0.17303,0.198974 -0.0784,0.09406 -0.15827,0.196353 -0.23071,0.294135 -0.0618,0.08337 -0.11099,0.175785 -0.17302,0.25953 -0.0778,0.104995 -0.16586,0.203048 -0.24993,0.302786 -0.0983,0.116574 -0.20265,0.21711 -0.3076,0.328738 -0.0206,0.02188 -0.0374,0.04705 -0.0577,0.06921 -0.0802,0.08764 -0.18517,0.175304 -0.26915,0.250879 -0.0591,0.05322 -0.11184,0.113536 -0.17303,0.16437 -0.0554,0.04607 -0.11471,0.08738 -0.17302,0.129765 -0.0728,0.05291 -0.0855,0.05096 -0.15381,0.112464 -0.0271,0.0244 -0.0508,0.05239 -0.0769,0.07786 -0.0123,0.01204 -0.0227,0.04168 -0.0384,0.0346 -0.0669,-0.03009 -0.0292,-0.106891 -0.0192,-0.147069"
         id="path62760-9" />
    </g>
    <path
       style="fill:none;fill-opacity:1;stroke:#000000;stroke-width:1;stroke-linecap:round;stroke-linejoin:round"
       d="m 238.41029,75.594385 c 0.1538,-0.02884 0.30686,-0.06197 0.4614,-0.08651 0.18301,-0.02906 0.2654,-0.01211 0.4614,-0.0173 0.26875,-0.0071 0.53879,-0.0087 0.80746,-0.01731 0.21805,-0.007 0.43606,-0.02761 0.65366,-0.0346 0.24557,-0.0079 0.48664,0.002 0.73056,-0.0346 0.0904,-0.01355 0.17898,-0.03715 0.26916,-0.05191 0.21688,-0.03549 0.44732,-0.03671 0.65366,-0.121118 0.12606,-0.05157 0.49043,-0.21209 0.61521,-0.311431 0.11099,-0.08836 0.19735,-0.204847 0.30759,-0.294138 0.0829,-0.06713 0.18826,-0.10352 0.26916,-0.17302 0.0619,-0.05315 0.094,-0.134834 0.1538,-0.19032 0.14615,-0.135634 0.32391,-0.236268 0.46141,-0.380648 0.0581,-0.06101 0.0665,-0.156257 0.11535,-0.224922 0.0547,-0.07687 0.13902,-0.129765 0.19226,-0.207628 0.10144,-0.148349 0.18017,-0.311014 0.26915,-0.467158 0.0392,-0.06879 0.0821,-0.135775 0.11535,-0.207621 0.031,-0.06697 0.0469,-0.140186 0.0769,-0.207628 0.0598,-0.134618 0.13381,-0.262711 0.19225,-0.397941 0.15601,-0.361039 0.14248,-0.771418 0.26915,-1.141937 0.3072,-0.898517 -0.0286,0.129075 0.19226,-0.467158 0.14534,-0.392432 -0.14728,0.235021 0.1538,-0.415249 0.16098,-0.347679 -0.007,0.05788 0.1538,-0.25953 0.0958,-0.189666 0.27125,-0.594228 0.2307,-0.813197 -0.008,-0.04165 -0.0293,-0.07976 -0.0384,-0.121111 -0.0361,-0.16264 -0.0596,-0.310354 -0.11535,-0.467158 -0.0353,-0.09923 -0.0835,-0.193755 -0.11535,-0.294131 -0.0606,-0.191018 -0.10829,-0.500958 -0.1538,-0.692086 -0.0492,-0.206506 -0.12169,-0.413332 -0.1538,-0.62287 -0.009,-0.05701 0.006,-0.115667 0,-0.17302 -0.007,-0.06436 -0.0263,-0.126742 -0.0384,-0.190321 -0.0264,-0.138284 -0.0432,-0.278583 -0.0769,-0.415249 -0.0177,-0.07165 -0.0522,-0.13809 -0.0769,-0.207628 -0.0778,-0.218838 -0.16707,-0.434106 -0.23071,-0.657478 -0.0224,-0.07862 -0.0188,-0.162859 -0.0385,-0.242229 -0.019,-0.07692 -0.0518,-0.149754 -0.0769,-0.224922 -0.15748,-0.472444 -0.33873,-0.96067 -0.42296,-1.453375 -0.0107,-0.06253 0.006,-0.127202 0,-0.190321 -0.007,-0.06439 -0.0338,-0.125764 -0.0385,-0.19032 -0.0321,-0.447603 0.0293,-0.901744 0,-1.349565 -0.009,-0.132981 -0.03,-0.264944 -0.0384,-0.397941 -0.004,-0.06907 0.007,-0.13874 0,-0.207628 -0.006,-0.06442 -0.0305,-0.126087 -0.0385,-0.19032 -0.0177,-0.143662 -0.0202,-0.288952 -0.0385,-0.43255 -0.0228,-0.179644 -0.10892,-0.540608 -0.1538,-0.692087 -0.0379,-0.127747 -0.0968,-0.196054 -0.15381,-0.311438 -0.28203,-0.57109 -0.03,-0.125183 -0.26914,-0.501759 -0.14235,-0.224177 -0.13273,-0.254065 -0.34606,-0.484451 -0.14774,-0.159559 -0.43179,-0.309067 -0.61521,-0.397949 -0.26394,-0.127907 -0.56166,-0.169933 -0.84591,-0.242229 -1.2042,-0.306275 -2.46321,-0.219339 -3.69125,-0.311439 -0.52507,-0.03938 -1.0498,-0.08801 -1.57646,-0.10381 -1.10298,-0.03309 -2.20313,-0.0346 -3.30675,-0.0346 -1.35858,0 -2.71717,0 -4.07575,0 -2.06338,0 -4.12718,-0.0102 -6.19053,0 -1.73067,0.0086 -3.46087,0.06016 -5.19082,0.103811 -0.99966,0.02522 -1.99955,0.04144 -2.99914,0.06921 -1.13901,0.03164 -4.02897,0.141501 -4.72941,0.17302 -0.4874,0.02193 -0.97392,0.0605 -1.46112,0.08651 -1.0252,0.05473 -2.0506,0.105735 -3.07604,0.155723 -5.72039,0.278856 2.72172,-0.13827 -3.1145,0.12111 -0.51297,0.0228 -1.02506,0.06323 -1.53802,0.08651 -3.31895,0.150605 -6.64016,0.25443 -9.95867,0.415249 -1.51238,0.07329 -3.02424,0.161893 -4.53716,0.224929 -1.01224,0.04218 -2.02491,0.07383 -3.03759,0.103811 -0.56248,0.01665 -1.20403,0.01645 -1.76873,0.0346 -0.60252,0.01937 -1.20454,0.05371 -1.80717,0.06921 -0.6797,0.01748 -1.3585,0.0027 -2.03788,0.0173 -0.29455,0.0063 -0.58968,0.02951 -0.88435,0.03461 -0.78215,0.01354 -1.56334,-0.0147 -2.34549,0.0173 -0.43761,0.0179 -0.87197,0.09644 -1.30732,0.138419 -0.0895,0.0086 -0.17974,0.0078 -0.26914,0.0173 -0.21998,0.02329 -0.36928,0.05884 -0.57677,0.06921 -0.60086,0.03004 -1.20603,-0.02459 -1.80716,0 -0.42625,0.01744 -0.84557,0.07782 -1.26887,0.121111 -0.43897,0.04489 -0.87282,0.07521 -1.30732,0.155719 -0.17378,0.0322 -0.16329,0.05109 -0.30761,0.08651 -0.1531,0.03758 -0.31471,0.04606 -0.46139,0.103811 -0.0547,0.02155 -0.0985,0.06659 -0.15381,0.08651 -0.0742,0.0267 -0.15631,0.02587 -0.23071,0.05191 -0.15703,0.05496 -0.30706,0.128184 -0.4614,0.190321 -0.48023,0.193353 -0.88732,0.372392 -1.30731,0.674779 -0.17033,0.122627 -0.45141,0.312468 -0.61522,0.484458 -0.0946,0.09936 -0.17652,0.210214 -0.26915,0.311438 -0.30121,0.329167 -0.27591,0.224503 -0.49986,0.640178 -0.035,0.06497 -0.0459,0.140649 -0.0769,0.207621 -0.0333,0.07185 -0.0821,0.135782 -0.11535,0.207628 -0.0607,0.131208 -0.17636,0.522099 -0.19225,0.60557 -0.0129,0.06799 0,0.138418 0,0.207628 0,0.253763 0,0.507526 0,0.761288 0,0.594036 0,1.188072 0,1.782108 0,0.686315 0,1.37263 0,2.058944 0,0.224927 0,0.449853 0,0.674779 0,0.161486 -0.0209,0.324335 0,0.484459 0.006,0.04748 0.0256,0.09227 0.0385,0.138411 0.0128,0.126883 0.0304,0.253376 0.0385,0.380648 0.0153,0.241732 0.0129,0.661166 0,0.882407 -0.004,0.07593 -0.0317,0.149159 -0.0385,0.224922 -0.006,0.06894 0.005,0.138566 0,0.207628 -0.008,0.127254 -0.0296,0.253421 -0.0385,0.380641 -0.0246,0.354336 0,0.717409 0,1.072727 0,0.288563 -0.0184,0.592957 0,0.882407 0.008,0.132999 0.0295,0.264982 0.0385,0.397948 0.004,0.05754 -0.006,0.115639 0,0.17302 0.007,0.07003 0.0336,0.137407 0.0385,0.207621 0.008,0.11507 -0.009,0.231031 0,0.34604 0.0154,0.200545 0.15671,0.561528 0.2307,0.761296 0.0403,0.108901 0.0654,0.22389 0.11536,0.328739 0.0638,0.133952 0.1538,0.253761 0.23069,0.380641 2e-5,2.2e-5 0.15379,0.242206 0.15381,0.242229 0.17602,0.203672 0.39793,0.369797 0.57676,0.570968 0.0513,0.06344 0.10253,0.12688 0.1538,0.190321 0.0256,0.02307 0.054,0.04343 0.0769,0.06921 0.0286,0.03219 0.0449,0.075 0.0769,0.10381 0.55437,0.399144 -0.0219,-0.03698 0.26916,0.224929 0.023,0.02069 0.0552,0.02991 0.0769,0.05191 0.0303,0.03064 0.0428,0.07751 0.0769,0.103811 0.0577,0.04448 0.13399,0.06011 0.19225,0.10381 0.0211,0.01584 0.0216,0.04894 0.0384,0.06921 1.2e-4,1.45e-4 0.15368,0.13826 0.1538,0.138419 0.0188,0.02536 0.0197,0.06115 0.0385,0.08651 0.0459,0.06201 0.10583,0.112579 0.1538,0.17302 0.0164,0.02067 0.0216,0.04893 0.0385,0.06921 0.0829,0.09942 0.22147,0.117194 0.30759,0.207621 0.0182,0.01911 0.0205,0.04984 0.0385,0.06921 0.0703,0.07591 0.14199,0.154397 0.2307,0.20762 0.0482,0.02892 0.10624,0.03924 0.15381,0.06921 0.0182,0.01148 0.0256,0.03461 0.0384,0.05191 0.0385,0.02307 0.0745,0.05081 0.11536,0.06921 0.16367,0.07365 0.32894,0.08265 0.49986,0.121111 0.0392,0.0088 0.0755,0.02949 0.11534,0.03461 0.1502,0.01932 0.31009,-0.0085 0.46141,0 0.10302,0.0058 0.20458,0.02881 0.30761,0.0346 0.30826,0.01734 0.0155,-0.02075 0.26915,0.0173 0.0478,0.0072 0.38171,0.02707 0.3845,0.03461 0.0134,0.03618 -0.0513,0.05767 -0.0769,0.08651"
       id="path124659" />
    <path
       style="fill:none;fill-opacity:1;stroke:#000000;stroke-width:1;stroke-linecap:round;stroke-linejoin:round"
       d="m 200.72879,82.636318 c -0.25067,0.0832 -0.48652,-0.04545 -0.73057,-0.05191 -0.84545,-0.02239 -1.69174,-0.02232 -2.53773,-0.0346 -1.18189,-0.01716 -2.35696,-0.01987 -3.53744,0.05191 -0.3203,0.01948 -0.64154,0.02468 -0.96127,0.0519 -0.15496,0.01319 -0.3072,0.04897 -0.46139,0.06921 -1.47388,0.193446 0.91481,-0.155124 -1.19197,0.17302 -0.4477,0.06973 -0.89999,0.127392 -1.34577,0.207628 -0.17254,0.03106 -0.69863,0.16806 -0.80746,0.190321 -0.11428,0.02337 -0.23161,0.02937 -0.34605,0.0519 -0.39923,0.07859 -0.79314,0.193089 -1.19197,0.276838 -0.28908,0.0607 -0.49846,0.0862 -0.80746,0.155719 -0.10392,0.02338 -0.20337,0.06462 -0.30761,0.08651 -0.27876,0.05854 -0.56538,0.07171 -0.84591,0.121111 -0.37218,0.06553 -0.74447,0.150815 -1.11507,0.224929 -0.31931,0.06386 -0.64192,0.108354 -0.96126,0.173019 -0.52567,0.106446 -1.04626,0.245231 -1.57647,0.32874 -0.57438,0.09046 -1.15345,0.152249 -1.73027,0.224928 -0.34637,0.04364 -0.69146,0.09736 -1.03816,0.138412 -0.6271,0.07426 -1.25701,0.131656 -1.88408,0.207628 -0.21819,0.02644 -0.43525,0.06194 -0.65366,0.08651 -0.47161,0.05305 -0.95109,0.04722 -1.42266,0.10381 -0.10325,0.01239 -0.20433,0.03986 -0.30761,0.05191 -0.24296,0.02835 -0.48738,0.0428 -0.73056,0.06921 -0.46272,0.05026 -0.91987,0.132839 -1.38421,0.17302 -0.21738,0.01881 -0.43608,0.01828 -0.65366,0.0346 -0.32417,-0.01103 -0.64056,0.06104 -0.96127,0.08651 -0.40928,0.0325 -0.82048,0.03961 -1.23041,0.05191 -0.42393,0.01272 -0.84494,0.07379 -1.26887,0.08651 -0.56398,0.01692 -1.1278,0.0052 -1.69182,0.0173 -0.397,0.0085 -0.79452,0.02715 -1.19197,0.0346 -0.4105,0.0077 -0.81966,0.02657 -1.23042,0.03461 -0.89666,0.01754 -1.79508,-0.0043 -2.69153,-0.0173 -0.44964,-0.0065 -0.89569,-0.0017 -1.34577,-0.01731 -1.65395,-0.05726 -3.30502,-0.155719 -4.96011,-0.155719 -0.47247,0 -0.9503,-0.01933 -1.42267,0 -0.0389,0.0016 -0.0766,0.01481 -0.11535,0.01731 -0.54949,0.03533 -1.10314,0.0467 -1.65337,0.06921 -0.25698,0.01051 -0.51265,0.02307 -0.76901,0.0346 -0.0643,0.0029 -0.17682,-0.04516 -0.19225,0.0173 -0.0165,0.06696 0.0996,0.09575 0.1538,0.138419 0.0998,0.07859 0.20507,0.149952 0.3076,0.224928"
       id="path124661" />
  </g>
</svg>
