<?xml version="1.0" encoding="UTF-8" standalone="no"?>
<!-- Created with Inkscape (http://www.inkscape.org/) -->

<svg
   width="58.848347mm"
   height="19.38068mm"
   viewBox="0 0 58.848348 19.380681"
   version="1.1"
   id="svg5"
   sodipodi:docname="adder-box.svg"
   inkscape:version="1.2.2 (b0a8486541, 2022-12-01)"
   xmlns:inkscape="http://www.inkscape.org/namespaces/inkscape"
   xmlns:sodipodi="http://sodipodi.sourceforge.net/DTD/sodipodi-0.dtd"
   xmlns="http://www.w3.org/2000/svg"
   xmlns:svg="http://www.w3.org/2000/svg">
  <sodipodi:namedview
     id="namedview7"
     pagecolor="#ffffff"
     bordercolor="#666666"
     borderopacity="1.0"
     inkscape:showpageshadow="2"
     inkscape:pageopacity="0.0"
     inkscape:pagecheckerboard="0"
     inkscape:deskcolor="#d1d1d1"
     inkscape:document-units="mm"
     showgrid="false"
     inkscape:zoom="4.6354114"
     inkscape:cx="61.914677"
     inkscape:cy="16.611255"
     inkscape:window-width="2560"
     inkscape:window-height="1372"
     inkscape:window-x="0"
     inkscape:window-y="32"
     inkscape:window-maximized="1"
     inkscape:current-layer="layer1"
     showguides="true" />
  <defs
     id="defs2" />
  <g
     inkscape:label="Layer 1"
     inkscape:groupmode="layer"
     id="layer1"
     transform="translate(-97.976936,-43.93118)">
    <path
       style="fill:#ddf1fb;fill-opacity:1;stroke:#000000;stroke-width:1;stroke-linecap:round;stroke-linejoin:round"
       d="m 115.91365,48.041654 c -0.12352,0.02726 -0.24286,-0.05014 -0.36528,-0.04326 -0.0351,0.002 -0.0278,0.06968 -0.0192,0.103812 0.22919,0.913421 0.0637,0.02995 0.19226,0.847801 0.0245,0.155901 0.0676,0.309614 0.0769,0.467156 0.0519,0.88277 0.0381,1.054896 -0.0384,1.808063 -0.0232,0.228072 -0.0367,0.457736 -0.0769,0.683429 -0.62532,3.509893 -0.0679,-0.0329 -0.40373,2.041643 -0.034,0.210196 -0.0799,0.419214 -0.0961,0.631524 -0.0287,0.374 -0.0298,0.749636 -0.0385,1.124632 -0.006,0.267247 -6.4e-4,0.785981 0.0192,1.055425 0.11673,1.584543 0.0544,0.519131 0.15381,1.557183 0.0157,0.164117 0.0252,0.328775 0.0384,0.493108 0.0413,0.510644 0.0849,0.884236 0.0961,1.366862 0.008,0.362113 -0.005,0.647963 -0.0384,1.020822 -0.0206,0.229849 -0.0796,0.447314 -0.17302,0.657478 -0.01,0.02185 -0.0252,0.04066 -0.0385,0.06056 -0.006,0.009 -0.0298,0.02412 -0.0192,0.02596 0.54885,0.09499 1.11802,0.09311 1.6726,0.09516 0.56393,0.0021 1.12788,0 1.69182,0 1.91617,0 3.83225,0.0071 5.74835,0.02596 1.67352,0.01649 2.22218,0.03396 4.1911,0.07786 0.48065,0.01072 0.96139,0.01864 1.4419,0.0346 1.29473,0.04301 2.66476,0.125751 3.94117,0.216275 0.67968,0.0482 1.21406,0.120748 1.88408,0.190324 0.46122,0.04789 0.92267,0.09362 1.38421,0.138415 0.58162,0.05645 1.16434,0.101413 1.7495,0.08651 0.0589,-0.0015 0.36017,-4.76e-4 0.44218,-0.103811 0.0149,-0.01875 0.0111,-0.04668 0.0192,-0.06921 0.15493,-0.429886 0.053,-0.07551 0.13457,-0.449854 0.0177,-0.0811 0.0439,-0.160369 0.0577,-0.242225 0.088,-0.524429 0.14731,-1.051169 0.1538,-1.583137 0.004,-0.363317 0.004,-0.72671 0,-1.090031 -0.004,-0.376263 -0.0241,-0.910022 -0.0769,-1.280349 -0.0652,-0.457446 -0.14518,-0.912779 -0.2307,-1.366861 -0.0858,-0.455478 -0.20862,-0.8764 -0.32683,-1.323607 -0.11583,-0.438194 -0.23071,-0.876638 -0.34606,-1.314957 -0.0577,-0.219158 -0.12042,-0.437045 -0.17302,-0.657476 -0.13857,-0.580654 -0.25264,-1.263659 -0.32683,-1.834016 -0.0246,-0.18916 -0.0255,-0.380652 -0.0385,-0.570969 -0.0326,-0.480759 -0.078,-1.104901 -0.0961,-1.557183 -0.006,-0.146949 0.003,-0.294173 0,-0.441202 -0.003,-0.13565 -0.0125,-0.27108 -0.0192,-0.406599 -0.0125,-0.253777 -0.0207,-0.507822 -0.0384,-0.761288 -0.057,-0.500066 -0.025,-0.16886 -0.0577,-0.640176 -0.0185,-0.265633 -0.0498,-0.501319 -0.0385,-0.761291 0.005,-0.107434 0.0471,-0.446177 0.0577,-0.519062 0.0118,-0.08144 0.0321,-0.100817 0,-0.173019 -0.006,-0.01442 -0.008,-0.03216 -0.0192,-0.04325 -0.022,-0.02175 -0.0516,-0.03405 -0.0769,-0.05191 -0.0645,-0.04559 -0.12481,-0.09735 -0.19225,-0.138414 -0.24852,-0.151294 -0.64188,-0.190053 -0.92282,-0.224927 -0.65656,-0.0815 -1.31921,-0.104773 -1.9802,-0.121116 -1.90907,-0.0472 -3.81958,-0.06186 -5.72912,-0.06921 -1.82717,-0.007 -3.65432,0.02619 -5.4792,-0.08651 -0.39136,-0.02418 -0.78199,-0.07323 -1.17274,-0.103815 -0.42146,-0.03298 -0.84714,-0.04644 -1.26886,-0.06921 -0.58942,-0.03183 -1.17947,-0.05417 -1.76873,-0.08651 -0.17302,-0.01153 -0.34605,-0.02307 -0.51908,-0.0346 -0.0705,-0.0087 -0.14068,-0.02027 -0.21148,-0.02596 -0.10874,-0.0087 -0.21806,-0.0088 -0.32683,-0.0173 -0.0388,-0.003 -0.0767,-0.01328 -0.11535,-0.0173 -1.5e-4,-1.5e-5 -0.269,-0.01728 -0.26915,-0.0173 -0.46158,-0.04154 -0.92039,-0.08356 -1.38422,-0.09516 -0.0512,-0.0013 -0.10253,0 -0.1538,0 -0.0961,-0.0058 -0.19219,-0.01275 -0.28838,-0.0173 -0.0256,-0.0013 -0.0513,0.0016 -0.0769,0 -0.0194,-0.0013 -0.0394,-0.01524 -0.0577,-0.0087 -0.0843,0.03034 -0.0357,0.241202 -0.0385,0.311436 -0.003,0.07519 -0.0162,0.149738 -0.0192,0.224927 -0.003,0.08644 0.004,0.17313 0,0.25953 -0.0124,0.245552 -0.0302,0.491014 -0.0577,0.735338 -0.0169,0.150231 -0.0358,0.300265 -0.0577,0.449853 -0.034,0.232791 -0.0411,0.178109 -0.0769,0.406598 -0.0216,0.138065 -0.0412,0.276484 -0.0577,0.415248 -0.006,0.04684 -0.009,0.198644 0,0.25088 0.0262,0.1533 0.0192,-0.03769 0.0192,0.129765"
       id="path50137" />
    <path
       style="fill:none;stroke:#000000;stroke-width:1;stroke-linecap:round;stroke-linejoin:round"
       d="m 117.98998,48.707783 c 0.40074,-0.01898 0.2626,0.0087 0.55753,-0.06056 0.0834,-0.01959 0.16864,-0.03336 0.24993,-0.06056 0.31678,-0.105995 0.62312,-0.235001 0.92281,-0.380646 0.1275,-0.06196 0.25803,-0.117646 0.3845,-0.18167 0.02,-0.01013 0.0387,-0.02265 0.0577,-0.0346 0.0131,-0.0082 0.023,-0.02595 0.0384,-0.02595 0.007,0 -0.0102,0.06555 0,0.103812 0.0129,0.0483 0.0427,0.09071 0.0577,0.138415 0.0492,0.157299 0.0909,0.316869 0.13457,0.475807 0.0268,0.09772 0.0608,0.194083 0.0769,0.294134 0.0161,0.09985 0.0129,0.201854 0.0192,0.302787 0.0129,0.204737 0.0297,0.409268 0.0384,0.614223 0.004,0.09507 0,0.190322 0,0.285482 0,0.265299 0,0.530597 0,0.795896 0,0.115346 0.009,0.231081 0,0.346039 -0.001,0.01572 -0.0158,0.02785 -0.0192,0.04326 -0.0122,0.05495 0.0294,0.05755 -0.0384,0.112465 -0.0151,0.01224 -0.0385,0.0058 -0.0577,0.0086"
       id="path50141" />
    <path
       style="fill:none;stroke:#000000;stroke-width:1;stroke-linecap:round;stroke-linejoin:round"
       d="m 118.18223,51.303089 c 0.17303,0.02884 0.34422,0.07258 0.51908,0.08651 1.31866,0.105023 2.63902,0.103812 3.9604,0.103812 0.21148,0 0.42296,0 0.63444,0 0.0705,0 0.14219,0.01299 0.21147,0 0.0155,-0.0029 0.0128,-0.02884 0.0192,-0.04326"
       id="path50143" />
    <path
       style="fill:none;stroke:#000000;stroke-width:1;stroke-linecap:round;stroke-linejoin:round"
       d="m 126.9105,47.74752 c -0.13321,0.514159 -0.094,1.012813 -0.0769,1.531231 0.0219,0.665639 0.0192,0.592483 0.0192,1.081377 0,0.08074 0,0.161487 0,0.24223 0,0.08074 -0.0147,0.162835 0,0.242227 0.003,0.01695 0.026,-0.02264 0.0385,-0.0346 0.0324,-0.0313 0.0578,-0.07138 0.0961,-0.09516 0.23777,-0.147573 0.49255,-0.29071 0.76902,-0.354692 0.48584,-0.112433 0.9673,-0.03319 1.44189,0.103813 0.11298,0.03261 0.44061,0.209592 0.5383,0.302786 0.0947,0.09033 0.1793,0.19261 0.24993,0.302785 0.0274,0.04266 0.0527,0.09845 0.0385,0.147067 -0.10099,0.344064 -0.38908,0.499059 -0.69212,0.631526 -0.1193,0.05215 -0.24038,0.101595 -0.36527,0.138415 -0.42913,0.126512 -0.90744,0.259532 -1.365,0.259532 -0.20039,0 -0.50822,0.0289 -0.67288,-0.147068 -0.0216,-0.02304 -0.0256,-0.05767 -0.0384,-0.08651"
       id="path50145" />
    <path
       style="fill:none;stroke:#000000;stroke-width:1;stroke-linecap:round;stroke-linejoin:round"
       d="m 132.31279,50.135202 c -0.15158,0.516404 -0.1113,0.31016 -0.17303,0.692081 -0.013,0.08071 -0.0317,0.160757 -0.0384,0.242229 -0.0234,0.280146 -0.008,0.551929 -0.0192,0.830498 -0.004,0.0953 -0.0128,0.190323 -0.0192,0.285484"
       id="path50147" />
    <path
       style="fill:none;stroke:#000000;stroke-width:1;stroke-linecap:round;stroke-linejoin:round"
       d="m 131.52456,48.456903 c -0.38535,-0.0091 -0.24863,-0.04365 -0.42297,0.0087"
       id="path50149" />
    <path
       style="fill:none;stroke:#000000;stroke-width:1;stroke-linecap:round;stroke-linejoin:round"
       d="m 134.60059,49.287401 c -0.075,0.528128 -0.2144,1.047797 -0.2307,1.583139 -0.003,0.103764 -0.0103,0.208138 0,0.311436 0.017,0.169832 0.0298,0.4437 0.1538,0.605572 0.19542,0.255008 0.61126,0.282448 0.90359,0.250879 0.0841,-0.0091 0.16662,-0.02884 0.24993,-0.04326"
       id="path50151" />
    <path
       style="fill:none;stroke:#000000;stroke-width:1;stroke-linecap:round;stroke-linejoin:round"
       d="m 133.87003,50.515846 c 0.66613,0.0099 1.33338,0.0017 1.99943,-0.0173 0.12123,-0.0035 0.53501,-0.0296 0.67288,-0.02596 0.11564,0.0031 0.2307,0.0173 0.34605,0.02596"
       id="path50153" />
    <path
       style="fill:none;stroke:#000000;stroke-width:1;stroke-linecap:round;stroke-linejoin:round"
       d="m 119.73947,55.715111 c -0.0833,0 -0.16698,-0.0078 -0.24992,0 -0.34536,0.03238 -0.75195,0.300289 -1.01894,0.449852 -0.17705,0.09918 -0.53913,0.319822 -0.69211,0.449852 -0.1314,0.111689 -0.73708,0.611213 -0.74978,0.925662 -0.004,0.09136 0.004,0.194055 0.0577,0.26818 0.0405,0.05605 0.12508,0.06149 0.19225,0.07786 0.43699,0.106511 0.9157,-0.01414 1.30732,-0.216275 0.33502,-0.172924 0.43989,-0.287357 0.69211,-0.614223 0.045,-0.05832 0.0662,-0.131664 0.0961,-0.198975 0.11127,-0.250366 0.0682,-0.170765 0.13457,-0.484455 0.005,-0.02342 0.0152,-0.04561 0.0192,-0.06921 0.002,-0.01421 -0.0132,-0.03734 0,-0.04325 0.0141,-0.0063 0.037,0.01056 0.0384,0.02596 0.0216,0.228376 -0.0373,0.604642 0.0192,0.830498 0.0906,0.361626 0.24625,0.671757 0.57676,0.865099 0.16411,0.096 0.40875,0.04015 0.57676,0.0087"
       id="path50155" />
    <path
       style="fill:none;stroke:#000000;stroke-width:1;stroke-linecap:round;stroke-linejoin:round"
       d="m 123.18079,56.268776 c -0.36861,-0.04159 -0.73505,0.05991 -1.07661,0.190323 -0.11053,0.0422 -0.22337,0.08103 -0.32683,0.138416 -0.27668,0.153456 -0.48352,0.240001 -0.63443,0.493108 -0.0337,0.05648 -0.0699,0.116289 -0.0769,0.18167 -0.0193,0.179805 -0.0249,0.371012 0.11535,0.501759 0.17719,0.165158 0.48595,0.168422 0.69211,0.181674 0.40991,0.02635 0.76816,-0.186009 1.05738,-0.458504 0.0654,-0.06162 0.096,-0.15245 0.13458,-0.233579 0.2194,-0.460708 -0.002,-0.221821 0.11535,-0.994867 0.0213,-0.140607 0.10254,-0.265298 0.15381,-0.397947 0.0128,-0.19609 0.0244,-0.392264 0.0385,-0.588269 0.0113,-0.157475 -10e-4,-0.353903 0.1538,-0.449854 0.0164,-0.01011 0.0409,-0.0094 0.0577,0 0.0138,0.0077 0.0148,0.02811 0.0192,0.04325 0.094,0.321572 0.0755,0.233063 0.0961,0.553666 0.0288,0.446517 0.0158,0.895401 0.0577,1.340907 0.0289,0.307718 0.0648,0.650872 0.24993,0.908358 0.13139,0.18275 0.19118,0.172414 0.42296,0.302785"
       id="path50157" />
    <path
       style="fill:none;stroke:#000000;stroke-width:1;stroke-linecap:round;stroke-linejoin:round"
       d="m 126.73746,56.459099 c -0.19866,0.03172 -0.4006,0.04721 -0.59598,0.09516 -0.0887,0.02177 -0.17077,0.06687 -0.24993,0.112464 -0.33626,0.193682 -0.68196,0.59819 -0.65365,1.012168 0.0157,0.229644 0.003,0.35319 0.17303,0.484459 0.17503,0.13502 0.43681,0.117491 0.63442,0.10381 0.0932,-0.0065 0.18249,-0.04304 0.26916,-0.07786 0.38314,-0.153935 0.64835,-0.444435 0.78824,-0.830499 0.11471,-0.316592 0.17848,-0.507732 0.2307,-0.813194 0.0678,-0.396849 0.0321,-0.31976 0.0192,-0.830498 -0.005,-0.195654 0.0141,-0.179946 -0.0192,-0.337391 -0.004,-0.02072 -0.009,-0.07907 -0.0192,-0.06056 -0.0154,0.02773 0,0.06344 0,0.09516 0,0.05191 0.001,0.103833 0,0.155719 -0.023,0.817787 -0.0192,0.241798 -0.0192,0.839147 0,0.308554 0,0.617108 0,0.925662 0,0.324305 -0.0182,0.41846 0.0961,0.778589 0.0314,0.09873 0.16,0.219894 0.23071,0.294138"
       id="path50159" />
    <path
       style="fill:none;stroke:#000000;stroke-width:1;stroke-linecap:round;stroke-linejoin:round"
       d="m 129.40977,57.298248 c 0.41054,-0.09237 0.33456,-0.0703 0.88437,-0.233579 0.20187,-0.05995 0.45538,-0.148447 0.65366,-0.224925 0.0776,-0.02994 0.15896,-0.05305 0.2307,-0.09516 0.0408,-0.02393 0.25838,-0.15851 0.2307,-0.224929 -0.061,-0.146416 -0.43101,-0.159564 -0.4614,-0.16437 -0.13398,-0.02118 -0.54247,-0.04062 -0.67289,-0.02595 -0.65411,0.07358 -1.09037,0.158063 -1.57647,0.622874 -0.0609,0.05823 -0.0828,0.147219 -0.11535,0.224925 -0.0317,0.07559 -0.0736,0.151675 -0.0769,0.233579 -0.003,0.08293 0.0232,0.166703 0.0577,0.242225 0.0691,0.151522 0.14809,0.300803 0.24993,0.432554 0.0546,0.07064 0.13316,0.121507 0.21148,0.164369 0.16223,0.08878 0.55364,0.277894 0.78823,0.294134 0.67184,0.04651 0.57887,0.03577 1.09584,-0.103813"
       id="path50161" />
    <path
       style="fill:none;stroke:#000000;stroke-width:1;stroke-linecap:round;stroke-linejoin:round"
       d="m 133.87003,56.969509 c -0.003,0.182155 -0.0347,0.362929 -0.0385,0.545014 -0.005,0.221996 0,0.444085 0,0.666128 0,0.155718 0,0.311436 0,0.467154 0,0.06056 0.0183,0.239393 0,0.181674 -0.0245,-0.0772 -0.009,-0.161842 -0.0192,-0.242229 -0.009,-0.07549 -0.0204,-0.15104 -0.0385,-0.224929 -0.0712,-0.291285 -0.18511,-0.617895 -0.2307,-0.925658 -0.0114,-0.07728 -0.064,-0.169563 -0.0192,-0.233575 0.0798,-0.114033 0.22671,-0.161979 0.34605,-0.233579 0.13092,-0.07855 0.25739,-0.172767 0.40373,-0.216275 0.38115,-0.11332 0.66759,-0.09795 1.03817,-0.121115 0.35363,-0.0221 0.70275,-0.05857 1.05738,-0.06921 0.0512,-0.0015 0.10254,0 0.15381,0 0.0449,0 0.0901,-0.0062 0.13458,0 0.0398,0.0055 0.0769,0.02307 0.11535,0.0346"
       id="path50163" />
    <path
       style="fill:none;stroke:#000000;stroke-width:1;stroke-linecap:round;stroke-linejoin:round"
       d="m 116.3366,49.278751 c -0.0919,-0.08017 -0.20861,0.02672 -0.3076,0 -0.0104,-0.0028 -0.009,-0.02374 -0.0192,-0.02595 -0.19954,-0.0419 -0.31908,-0.03455 -0.51908,-0.04326 -0.11538,-0.005 -0.23066,-0.01236 -0.34605,-0.0173 -0.28834,-0.01236 -0.57666,-0.02571 -0.86514,-0.0346 -0.0819,-0.0025 -1.08405,-0.01636 -1.13429,-0.0173 -0.82142,-0.0154 -1.64119,-0.02914 -2.46083,-0.08651 -0.69231,-0.04846 -1.38406,-0.106272 -2.07633,-0.155718 -1.42636,-0.101879 -0.27656,-0.02025 -1.03816,-0.06921 -0.0833,-0.0054 -0.16645,-0.01496 -0.24993,-0.0173 -0.28756,-0.0081 -0.57727,0 -0.86513,0"
       id="path50165" />
    <path
       style="fill:none;stroke:#000000;stroke-width:1;stroke-linecap:round;stroke-linejoin:round"
       d="m 115.18309,56.900299 c -0.2617,0.03436 -0.52564,0.007 -0.78823,0.0173 -0.19246,0.0075 -0.38483,0.01866 -0.57676,0.0346 -0.4939,0.04103 -0.98729,0.08832 -1.48035,0.138415 -0.21164,0.0215 -0.42212,0.05582 -0.63443,0.06921 -0.47371,0.02988 -0.94866,0.0358 -1.42267,0.06056 -0.2438,0.01273 -0.48704,0.0346 -0.73056,0.0519 -0.25633,0.0087 -0.51279,0.01432 -0.76901,0.02596 -0.44232,0.02009 -0.88435,0.04641 -1.32654,0.06921 -0.17301,0.0089 -0.34628,0.01361 -0.51908,0.02595 -0.30154,0.02154 -0.60204,0.05644 -0.90359,0.07786 -0.46751,0.03321 0.10371,-0.0081 -0.26915,0.0086 -0.0258,0.0012 -0.0511,0.0086 -0.0769,0.0086 -0.0258,0 -0.0644,-0.0312 -0.0769,-0.0086 -0.0117,0.02101 0.0409,0.02602 0.0577,0.04326 0.0284,0.02924 0.0513,0.06344 0.0769,0.09516"
       id="path50167" />
    <path
       style="fill:#ddf1fb;fill-opacity:1;stroke:#000000;stroke-width:1;stroke-linecap:round;stroke-linejoin:round"
       d="m 138.56158,48.988673 c -0.12161,-0.02108 -0.24312,-0.03409 -0.36528,-0.04326 -0.0192,-0.0014 -0.0691,-0.01545 -0.0577,0 0.0161,0.02174 0.05,0.0232 0.0769,0.02596 0.1149,0.01175 0.23154,0.0023 0.34606,0.0173 0.28331,0.03701 0.56226,0.104055 0.84591,0.138419 0.21678,0.02626 0.43545,0.03507 0.65366,0.04326 1.4989,0.05621 1.37837,0.05548 2.61463,0.0173 1.68881,-0.05215 0.57461,-0.02706 2.92224,-0.129765 0.28184,-0.01233 0.56396,-0.01667 0.84591,-0.02595 0.73692,-0.02426 1.4734,-0.0429 2.21091,-0.0346 0.1346,0.0015 0.2692,0.004 0.40372,0.0086 0.0409,0.0014 0.16021,0.0086 0.19226,0.04325 0.0157,0.01693 0,0.04614 0,0.06921"
       id="path52928" />
    <path
       style="fill:#ddf1fb;fill-opacity:1;stroke:#000000;stroke-width:1;stroke-linecap:round;stroke-linejoin:round"
       d="m 139.84968,58.400986 c 0.10253,0.01442 0.20456,0.03304 0.3076,0.04325 1.65265,0.163861 3.32001,0.195686 4.97934,0.147066 0.77585,-0.02273 1.55078,-0.07048 2.32625,-0.103811 0.36523,-0.0157 0.73068,-0.02606 1.09584,-0.04326 0.186,-0.0088 0.37169,-0.02299 0.55753,-0.0346 0.0449,-0.0028 0.0897,-0.01067 0.13458,-0.0086 0.0201,9e-4 0.0604,-0.0026 0.0577,0.0173 -0.007,0.04737 -0.0513,0.08074 -0.0769,0.121115"
       id="path52930" />
    <path
       style="fill:none;fill-opacity:1;stroke:#000000;stroke-width:1;stroke-linecap:round;stroke-linejoin:round"
       d="m 98.476936,49.455828 c 0.02563,-0.170137 0.03444,-0.343674 0.0769,-0.51041 0.02856,-0.112163 0.08513,-0.215438 0.134576,-0.320089 0.123649,-0.261714 0.264805,-0.515049 0.384505,-0.778592 0.05992,-0.131935 0.104909,-0.270192 0.153803,-0.406599 0.278426,-0.776775 -0.01501,-0.0094 0.32683,-1.124633 0.0293,-0.09558 0.08063,-0.183087 0.115349,-0.27683 0.07108,-0.191899 0.02557,-0.213333 0.192254,-0.363344 0.08465,-0.07618 0.273067,0.07081 0.326827,0.112464 0.2767,0.214431 0.6284,0.599499 0.80746,0.813194 0.10976,0.130991 0.19358,0.281706 0.28838,0.4239 0.40228,0.603404 0.29428,0.454119 0.74978,1.237096 0.43554,0.74865 0.33744,0.636369 0.65366,1.072728 0.1298,0.17912 0.31391,0.418096 0.51908,0.510409"
       id="path52936" />
    <path
       style="fill:none;fill-opacity:1;stroke:#000000;stroke-width:1;stroke-linecap:round;stroke-linejoin:round"
       d="m 99.822703,48.19278 c -0.388416,-0.09838 -0.560015,-0.08944 -0.922812,-0.02595 -0.05121,0.009 -0.102198,0.01962 -0.153803,0.02595 -0.01908,0.0024 -0.07669,-0.0029 -0.05768,0 0.185665,0.02785 0.37074,0.01348 0.557532,0.0173 0.07054,0.0015 0.140957,0.01076 0.211477,0.0086 0.122012,-0.0037 0.24361,-0.03578 0.365281,-0.02596 0.130946,0.01058 0.255012,0.06441 0.384512,0.08651 0.0768,0.01312 0.26887,0.0071 0.34605,0.0087 0.12199,0.0025 0.24409,0.0082 0.36528,0.0173 0.15146,0.01136 -0.0522,0.008 0.13458,0.0173 0.10833,0.0054 0.2183,0 0.32683,0"
       id="path52940" />
    <path
       style="fill:none;fill-opacity:1;stroke:#000000;stroke-width:1;stroke-linecap:round;stroke-linejoin:round"
       d="m 99.99573,55.805678 c -0.09702,0.949515 -0.06486,0.927534 -0.365281,2.041644 -0.146869,0.544659 -0.28057,0.682775 -0.365277,1.159234 -0.01569,0.08824 -0.01282,0.178789 -0.01923,0.268183"
       id="path52942" />
    <path
       style="fill:none;fill-opacity:1;stroke:#000000;stroke-width:1;stroke-linecap:round;stroke-linejoin:round"
       d="m 98.880667,56.039257 c 1.786073,-0.708023 1.306603,-0.760467 3.152943,-0.60557 0.24812,0.02081 0.49796,0.06685 0.73056,0.155716 0.11555,0.04415 0.28277,0.110003 0.28838,0.233579 0.0269,0.59364 -0.63628,0.932557 -1.01894,1.167888 -0.60954,0.374847 -1.16426,0.614822 -1.8264,0.865102 -0.18938,0.07158 -0.388666,0.115447 -0.576761,0.190321 -0.02397,0.0095 0.05111,0.0083 0.0769,0.0087 0.749421,0.01054 0.306961,-0.01919 0.980491,0.02595 0.65324,0.04378 0.54754,0.04014 1.38422,0.17302 0.24494,0.0389 0.44675,0.0659 0.67288,0.164369 0.18551,0.08078 0.30461,0.09756 0.36528,0.268184 0.0792,0.222767 -0.1166,0.441234 -0.28838,0.553664 -0.36102,0.236292 -0.88271,0.33792 -1.30732,0.423899 -0.43247,0.08757 -0.86979,0.145278 -1.30731,0.198975 -0.316434,0.03883 -0.0293,0.01877 -0.346058,0.0346"
       id="path52944" />
    <path
       style="fill:none;fill-opacity:1;stroke:#000000;stroke-width:1;stroke-linecap:round;stroke-linejoin:round"
       d="m 155.57593,46.367414 c -0.59598,0.03461 -1.19929,0.0045 -1.78795,0.103814 -0.24371,0.04112 -0.46454,0.178479 -0.67288,0.311435 -0.26764,0.170794 -0.64683,0.492144 -0.30761,0.873753 0.16035,0.180387 0.42554,0.232618 0.65366,0.311439 0.49171,0.169897 1.00196,0.280804 1.49957,0.432549 0.35623,0.108631 1.07609,0.281177 1.34577,0.640178 0.0941,0.125242 -0.14031,0.357103 -0.21148,0.406599 -0.0828,0.0576 -0.17545,0.101025 -0.26915,0.138415 -0.59119,0.235907 -0.65904,0.264095 -1.19197,0.35469 -0.14041,0.02387 -0.28211,0.03943 -0.42295,0.06056 -0.12832,0.01925 -0.25577,0.04446 -0.38451,0.06056 -0.21742,0.02718 -0.43587,0.04525 -0.65366,0.06921 -0.0706,0.0078 -0.14058,0.02179 -0.21148,0.02596 -0.0768,0.0045 -0.1538,0 -0.2307,0"
       id="path52946" />
    <path
       style="fill:none;fill-opacity:1;stroke:#000000;stroke-width:1;stroke-linecap:round;stroke-linejoin:round"
       d="m 155.01839,56.39395 c -0.69479,-0.05259 -1.37838,-0.02448 -2.0571,0.155716 -0.33498,0.08893 -0.67744,0.177859 -0.98049,0.346043 -0.28249,0.156779 -0.51297,0.39444 -0.74978,0.61422 -0.278,0.258004 -0.32683,0.718139 -0.32683,1.064077 0,0.09426 0.0291,0.186993 0.0577,0.276834 0.11133,0.350669 0.22693,0.42669 0.55753,0.700733 0.13559,0.112394 0.47169,0.269418 0.63443,0.311435 0.59578,0.153823 1.09262,0.200851 1.69182,0.224926 0.30757,0.01236 0.61505,0.02858 0.92281,0.0346 0.17316,0.0034 0.34679,-7.3e-5 0.51909,-0.0173 0.032,-0.0032 0.0654,9.26e-4 0.0961,-0.0086 0.0537,-0.01672 0.10253,-0.04614 0.1538,-0.06921"
       id="path52948" />
  </g>
</svg>
