<?xml version="1.0" encoding="UTF-8" standalone="no"?>
<!-- Created with Inkscape (http://www.inkscape.org/) -->

<svg
   width="41.318233mm"
   height="15.876945mm"
   viewBox="0 0 41.318234 15.876945"
   version="1.1"
   id="svg5"
   sodipodi:docname="and.svg"
   inkscape:version="1.2.2 (b0a8486541, 2022-12-01)"
   xmlns:inkscape="http://www.inkscape.org/namespaces/inkscape"
   xmlns:sodipodi="http://sodipodi.sourceforge.net/DTD/sodipodi-0.dtd"
   xmlns="http://www.w3.org/2000/svg"
   xmlns:svg="http://www.w3.org/2000/svg">
  <sodipodi:namedview
     id="namedview7"
     pagecolor="#ffffff"
     bordercolor="#666666"
     borderopacity="1.0"
     inkscape:showpageshadow="2"
     inkscape:pageopacity="0.0"
     inkscape:pagecheckerboard="0"
     inkscape:deskcolor="#d1d1d1"
     inkscape:document-units="mm"
     showgrid="false"
     inkscape:zoom="4.6354114"
     inkscape:cx="-28.260706"
     inkscape:cy="-16.179794"
     inkscape:window-width="2560"
     inkscape:window-height="1372"
     inkscape:window-x="0"
     inkscape:window-y="32"
     inkscape:window-maximized="1"
     inkscape:current-layer="layer1"
     showguides="true" />
  <defs
     id="defs2" />
  <g
     inkscape:label="Layer 1"
     inkscape:groupmode="layer"
     id="layer1"
     transform="translate(-135.94615,-74.41231)">
    <path
       style="fill:none;fill-opacity:1;stroke:#000000;stroke-width:1;stroke-linecap:round;stroke-linejoin:round"
       d="m 146.27315,75.396768 c -0.006,0.147068 -0.0235,0.294059 -0.0192,0.441204 0.002,0.07319 0.0233,0.144639 0.0385,0.216275 0.0361,0.170646 0.0815,0.339288 0.11535,0.510409 0.0731,0.369856 0.0687,0.769315 0.0769,1.141936 0.004,0.196043 0,0.39218 0,0.588269 0,0.201857 0.004,0.403759 0,0.60557 -0.002,0.10111 -0.0161,0.201705 -0.0192,0.302788 -0.003,0.103761 0.002,0.207646 0,0.311435 -0.004,0.204797 -0.0149,0.409427 -0.0192,0.614223 -0.002,0.100906 0.003,0.201904 0,0.302785 -0.0127,0.418312 -0.0492,0.836807 -0.0769,1.254401 -0.006,0.0923 -0.017,0.184359 -0.0192,0.276831 -0.0124,0.51779 0,1.039225 0,1.557184 0,0.285485 0,0.570971 0,0.856454 0,0.06056 -0.003,0.1212 0,0.181665 0.0125,0.231413 0.0641,0.46069 0.0769,0.692087 0.003,0.05759 0,0.115347 0,0.173021 0.006,0.115345 0.0106,0.230841 0.0192,0.346038 0.004,0.05501 0.0161,0.109294 0.0192,0.164367 0.003,0.05758 -0.002,0.115385 0,0.173019 0.0101,0.276413 0.0306,0.553506 0.0192,0.830498 -0.004,0.103923 -0.015,0.207516 -0.0192,0.311439 -0.002,0.05475 0.004,0.109762 0,0.164375 -0.0129,0.159242 -0.0376,0.317314 -0.0577,0.475802 -0.006,0.04621 -0.0128,0.09228 -0.0192,0.138412 -0.0128,0.04614 -0.0313,0.09107 -0.0385,0.138419 -0.0671,0.442982 0.016,0.08149 -0.0384,0.363342 -0.0221,0.1142 -0.0557,0.228267 -0.0961,0.337391 -0.0166,0.04486 -0.0395,0.07149 -0.0192,0.06921 0.0279,-0.0031 0.0513,-0.02307 0.0769,-0.03461"
       id="path43279" />
    <path
       style="fill:#ddf1fb;fill-opacity:1;fill-rule:nonzero;stroke:#000000;stroke-width:1;stroke-linecap:round;stroke-linejoin:round"
       d="m 145.96555,89.385467 c 0.14099,0.04037 0.27955,0.09043 0.42296,0.121113 0.74294,0.158938 1.49246,0.211455 2.24935,0.259535 0.92781,0.05894 1.84111,-0.0044 2.76843,-0.08651 0.37484,-0.03318 1.2841,-0.166603 1.65338,-0.233582 0.32807,-0.05951 1.84344,-0.347689 2.42238,-0.48446 0.25768,-0.06088 0.51323,-0.130532 0.76901,-0.198967 0.85586,-0.228991 1.70613,-0.455541 2.53773,-0.761296 0.72747,-0.26747 1.44865,-0.553307 2.17245,-0.830498 1.18571,-0.454083 0.90629,-0.325078 1.7495,-0.683427 0.66716,-0.283527 0.5534,-0.235677 1.34577,-0.64883 0.1462,-0.07623 0.57354,-0.30916 0.71134,-0.406595 0.27086,-0.191527 0.64202,-0.483696 0.90358,-0.726689 0.28632,-0.265994 0.57904,-0.597011 0.82668,-0.882399 0.0872,-0.100533 0.1679,-0.20661 0.24993,-0.311438 0.27598,-0.352684 0.53318,-0.728623 0.69211,-1.150583 0.11996,-0.318487 0.16686,-0.657669 0.19226,-0.994873 0.007,-0.0865 0.0192,-0.172781 0.0192,-0.25953 0,-0.167375 -0.015,-0.334435 -0.0192,-0.501757 -0.002,-0.08648 0.01,-0.173586 0,-0.25953 -0.009,-0.08246 -0.0323,-0.163208 -0.0577,-0.242229 -0.1288,-0.400884 -0.13247,-0.402584 -0.28838,-0.700734 -0.0379,-0.0724 -0.0671,-0.150302 -0.11535,-0.216275 -0.0806,-0.110364 -0.38693,-0.477992 -0.5383,-0.614223 -0.17623,-0.158598 -0.67718,-0.507353 -0.78825,-0.588269 -0.40284,-0.293488 -0.80285,-0.605324 -1.24963,-0.830498 -0.46353,-0.233612 -0.96474,-0.382722 -1.46112,-0.527713 -0.37787,-0.110373 -0.75424,-0.226131 -1.13429,-0.328739 -0.58345,-0.157525 -1.17626,-0.280644 -1.76872,-0.397945 -0.42226,-0.0836 -0.84239,-0.173607 -1.26887,-0.233579 -0.30722,-0.0432 -0.61489,-0.08332 -0.92282,-0.121115 -0.10873,-0.01334 -0.21834,-0.01935 -0.32682,-0.0346 -1.64548,-0.231386 0.0893,-0.01687 -0.90359,-0.121114 -0.09,-0.0094 -0.17894,-0.02799 -0.26915,-0.0346 -0.18555,-0.01359 -0.37174,-0.01623 -0.55754,-0.02595 -0.50665,-0.02651 -1.01207,-0.08101 -1.51879,-0.103814 -0.17295,-0.0078 -0.34612,-0.0097 -0.51908,-0.0173 -0.15542,-0.0068 -0.36251,-0.0258 -0.51908,-0.0346 -0.60077,-0.03379 -1.20552,-0.06056 -1.80718,-0.06056 -0.22429,0 -0.44861,0.003 -0.67288,0 -0.32679,-0.0043 -0.65374,-0.0186 -0.98049,-0.02596 -0.1922,-0.0043 -0.38453,0.0029 -0.57676,0 -0.81964,-0.01229 -1.64184,-0.04094 -2.46083,0 -0.17258,0.0086 -0.3464,-0.0065 -0.51908,0 -0.0258,9.79e-4 -0.0512,0.007 -0.0769,0.0086 -0.0192,0.0012 -0.0387,-0.0029 -0.0577,0 -0.11072,0.01661 -0.004,0.02041 -0.11535,0.02595 -0.0384,0.0019 -0.0769,0 -0.11535,0 -0.0192,0 -0.0577,-0.01923 -0.0577,0 0,0.02007 0.0469,3.44e-4 0.0577,0.0173 0.0189,0.02971 0.0128,0.06921 0.0192,0.103814"
       id="path43295" />
    <path
       style="fill:none;fill-opacity:1;stroke:#000000;stroke-width:1;stroke-linecap:round;stroke-linejoin:round"
       d="m 148.5994,83.373007 c 0.0577,-0.08651 0.12884,-0.165415 0.17303,-0.25953 0.11605,-0.247166 0.22311,-0.774933 0.26915,-1.029473 4e-5,-2.14e-4 0.0769,-0.553445 0.0769,-0.553659 0.0258,-0.187423 0.0547,-0.374443 0.0769,-0.562319 0.01,-0.08329 0.006,-0.168122 0.0192,-0.25088 0.0121,-0.07362 0.0417,-0.143385 0.0577,-0.216274 0.11531,-0.527532 -0.003,-0.165333 0.0961,-0.389299 0.0144,-0.03251 0.0241,-0.08027 0.0385,-0.07786 0.10185,0.01719 0.3875,0.204705 0.4614,0.25953 0.45126,0.334775 0.46043,0.327633 0.76901,0.674779 0.0855,0.09616 0.17618,0.188714 0.24993,0.294135 0.26722,0.381952 0.48247,0.79494 0.74979,1.176538 0.12756,0.182097 0.25441,0.364713 0.3845,0.545013 0.0747,0.103471 0.13165,0.156901 0.21148,0.25953 0.008,0.01042 0.029,0.02577 0.0192,0.03461 -0.0195,0.01757 -0.0513,0.01154 -0.0769,0.0173"
       id="path43301" />
    <path
       style="fill:none;fill-opacity:1;stroke:#000000;stroke-width:1;stroke-linecap:round;stroke-linejoin:round"
       d="m 148.2149,82.36949 c 0.87824,0.0208 1.75592,0.0085 2.63386,-0.0087 0.2441,-0.0048 0.49663,-0.0097 0.73056,0.06921"
       id="path43303" />
    <path
       style="fill:none;fill-opacity:1;stroke:#000000;stroke-width:1;stroke-linecap:round;stroke-linejoin:round"
       d="m 153.17502,83.390313 c 0.10021,-0.237733 0.16601,-0.490318 0.21147,-0.743987 0.0591,-0.329877 0.0517,-0.299112 0.0769,-0.570968 0.006,-0.06921 0.0192,-0.138123 0.0192,-0.207629 0,-0.269812 -0.0135,-0.404075 -0.0385,-0.640173 -0.0165,-0.156017 -0.02,-0.213998 -0.0577,-0.371994 -0.004,-0.01535 -0.035,-0.04326 -0.0192,-0.04326 0.024,0 0.038,0.02953 0.0577,0.04326 0.0508,0.03531 0.10268,0.069 0.1538,0.103812 0.18599,0.12667 0.37355,0.251069 0.55753,0.380646 0.52848,0.372221 1.01369,0.801534 1.57647,1.124632 0.0887,0.0509 0.17637,0.104122 0.26915,0.147066 0.13187,0.06103 0.26731,0.114353 0.40373,0.164373 0.037,0.01357 0.0769,0.0173 0.11535,0.02596 0.0256,0.0058 0.0515,0.02384 0.0769,0.0173 0.10328,-0.02656 0.0933,-0.264747 0.0961,-0.285483 0.009,-0.06318 0.0164,-0.126621 0.0192,-0.19032 0.004,-0.08066 -0.002,-0.161515 0,-0.242228 0.004,-0.161558 0.0148,-0.322908 0.0192,-0.48446 0.01,-0.362813 0,-0.726988 0,-1.090031"
       id="path43307" />
    <path
       style="fill:none;fill-opacity:1;stroke:#000000;stroke-width:1;stroke-linecap:round;stroke-linejoin:round"
       d="m 158.38506,80.518172 c 0.13831,0.688688 0.40275,1.349411 0.48063,2.050292 0.0143,0.128617 0.0504,0.471668 -0.0192,0.596921"
       id="path43309" />
    <path
       style="fill:none;fill-opacity:1;stroke:#000000;stroke-width:1;stroke-linecap:round;stroke-linejoin:round"
       d="m 158.11591,80.656591 c 1.83125,-0.425032 1.60893,-0.549899 3.36442,-0.346044 0.28773,0.03341 0.57975,0.08465 0.84591,0.198975 0.30536,0.131162 0.59226,0.312978 0.84591,0.527714 0.20432,0.172974 0.39304,0.618612 0.42295,0.882404 0.015,0.132419 0.007,0.272629 -0.0385,0.397946 -0.17988,0.497221 -0.84152,0.777452 -1.23041,0.986219 -0.21026,0.112868 -0.36549,0.145433 -0.59599,0.198967 -0.49634,0.115279 -1.01105,0.133426 -1.51879,0.15572 -0.21145,0.0093 -0.42291,0.01863 -0.63443,0.02596 -0.032,0.0011 -0.0641,-0.0013 -0.0961,0 -0.0449,0.0016 -0.0899,0.01368 -0.13458,0.0087 -0.0107,-0.0013 -0.0128,-0.0173 -0.0192,-0.02596"
       id="path43311" />
    <path
       style="fill:none;fill-opacity:1;stroke:#000000;stroke-width:1;stroke-linecap:round;stroke-linejoin:round"
       d="m 146.11935,78.095887 c -0.98933,0.130935 -0.52786,0.08595 -1.8264,0.155719 -0.46771,0.02513 -0.93528,0.05478 -1.40344,0.06921 -1.23652,0.03811 -2.47407,0.0069 -3.71048,-0.0173 -0.3591,-0.007 -0.71784,-0.02883 -1.07661,-0.0086 -0.0194,0.0011 -0.18854,0.0061 -0.19225,0.0086 -0.0143,0.0097 0,0.0346 0,0.05191"
       id="path43313" />
    <path
       style="fill:none;fill-opacity:1;stroke:#000000;stroke-width:1;stroke-linecap:round;stroke-linejoin:round"
       d="m 145.94632,85.189723 c -0.0769,-0.0087 -0.15337,-0.02297 -0.2307,-0.02596 -0.42905,-0.01656 -0.86002,0.01193 -1.28809,0.03461 -0.39089,0.02069 -0.78185,0.03994 -1.17274,0.06056 -1.20192,0.06338 -1.41609,0.08661 -2.63386,0.112464 -0.4549,0.0097 -0.91012,-0.01077 -1.36499,0 -0.38467,0.0091 -0.76908,0.02716 -1.15352,0.04325 -0.47611,0.01992 -0.949,0.06079 -1.42267,0.112463 -0.10622,0.01159 -0.0931,0.01061 -0.17303,0.0346 -0.0192,0.0058 -0.074,0.0056 -0.0577,0.0173 0.0439,0.03162 0.10289,0.03358 0.1538,0.05191 0.0773,0.02782 0.1538,0.05767 0.2307,0.08651"
       id="path43319" />
    <path
       style="fill:none;fill-opacity:1;stroke:#000000;stroke-width:1;stroke-linecap:round;stroke-linejoin:round"
       d="m 167.94001,81.115095 c 0.25634,0.02884 0.51151,0.0713 0.76901,0.08651 1.72524,0.101891 3.44475,0.124372 5.17159,0.09516 0.77671,-0.01315 1.55116,-0.03484 2.32626,-0.08651 0.0769,-0.0051 0.15373,-0.01259 0.2307,-0.0173 0.064,-0.0039 0.12814,-0.0066 0.19225,-0.0087 0.0256,-7.93e-4 0.0515,0.0033 0.0769,0 0.0199,-0.0026 0.0479,2.44e-4 0.0577,-0.0173 0.009,-0.01614 -0.0128,-0.0346 -0.0192,-0.05191"
       id="path43321" />
    <path
       style="fill:none;fill-opacity:1;fill-rule:nonzero;stroke:#000000;stroke-width:1;stroke-linecap:round;stroke-linejoin:round"
       d="m 145.88865,74.91231 c -0.055,0.298164 0.0231,0.586328 0.0384,0.882407 0.009,0.177136 -0.0156,0.06591 0.0192,0.242226 0.0369,0.186576 0.0876,0.379175 0.0961,0.570968 0.006,0.135399 0,0.271066 0,0.406598 0,0.222043 0,0.444086 0,0.666129 0,0.152969 -0.008,0.313628 0,0.467154 0.004,0.07801 0.015,0.155571 0.0192,0.233579 0.002,0.04031 -0.003,0.08087 0,0.121115 0.003,0.04075 0.0171,0.08029 0.0192,0.121114 0.0243,0.459342 0.004,0.08354 -0.0192,0.34604 -0.003,0.03734 0.002,0.07503 0,0.112465 0.0196,0.121956 -0.029,0.23614 -0.0385,0.354689 -0.009,0.114987 0,0.230696 0,0.346044 0,0.190321 0,0.380643 0,0.570965 0,0.241533 -0.01,0.485284 0,0.726687 0.0116,0.280765 0.0281,0.559776 0.0577,0.83915 0.0251,0.236992 0.10182,0.464833 0.13458,0.700733 0.006,0.05767 0.0128,0.115345 0.0192,0.173019 0,0.02884 -0.003,0.05783 0,0.08651 0.0108,0.102171 0.0451,0.200816 0.0577,0.302784 0.004,0.03434 -0.003,0.06937 0,0.103809 0.003,0.03221 0.0128,0.06344 0.0192,0.09516 0.006,0.06632 0.0151,0.132466 0.0192,0.198975 0.0104,0.168862 0,0.34137 0,0.510413 0,0.129765 0,0.25953 0,0.389294 0,0.08074 0.007,0.161756 0,0.242229 -0.002,0.02664 -0.0161,0.0513 -0.0192,0.07786 -0.003,0.02864 0,0.05767 0,0.08651 0,0.162819 0.007,0.323183 -0.0192,0.48446 -0.004,0.02638 -0.0158,0.05135 -0.0192,0.07786 -0.008,0.06291 0.007,0.127272 0,0.190325 -0.002,0.01834 -0.0165,0.03365 -0.0192,0.0519 -0.0105,0.07131 0.006,0.144465 0,0.216275 -0.002,0.02663 -0.016,0.05133 -0.0192,0.07786 -0.003,0.02574 0,0.0519 0,0.07786 0,0.129765 0,0.25953 0,0.389295 0,0.05191 0.004,0.104002 0,0.15572 -0.002,0.02387 -0.0157,0.04552 -0.0192,0.06921 -0.0322,0.217213 0.064,-0.182843 -0.0192,0.173022 -0.004,0.01797 -0.0161,0.03372 -0.0192,0.05191 -0.0112,0.06541 0,0.141083 0,0.207621 0,0.107561 0.002,-0.02829 -0.0192,0.181673 -0.007,0.06558 0.008,0.13357 0,0.198975 -0.003,0.02376 -0.0157,0.04552 -0.0192,0.06921 -0.003,0.01998 0.004,0.04077 0,0.06055 -0.009,0.04422 -0.0299,0.08547 -0.0385,0.129765 -0.004,0.02265 0.003,0.04639 0,0.06921 -0.003,0.02096 -0.0154,0.03973 -0.0192,0.06056 -0.0758,0.409463 0.009,-0.02662 -0.0192,0.224927 -0.004,0.03216 -0.014,0.06323 -0.0192,0.09516 -0.008,0.04596 -0.0145,0.09207 -0.0192,0.138419 -0.002,0.01722 0.003,0.03485 0,0.05191 -0.004,0.02088 -0.0142,0.03999 -0.0192,0.06056 -0.008,0.03142 -0.0119,0.06365 -0.0192,0.09516 -0.0194,0.08293 -0.0554,0.160145 -0.0769,0.242229 -0.003,0.01117 0,0.02307 0,0.0346 -0.0128,0.03172 -0.0246,0.0639 -0.0384,0.09516 -0.0243,0.05464 -0.017,0.01508 -0.0385,0.07786 -0.008,0.02265 -0.0109,0.04676 -0.0192,0.06921 -0.005,0.01238 -0.0157,0.02188 -0.0192,0.0346 -0.003,0.01111 0.002,0.02334 0,0.03461 -0.006,0.02826 -0.0267,0.104304 -0.0384,0.07786 -0.009,-0.02109 0.003,-0.04633 0,-0.06921 -0.003,-0.02651 -0.0128,-0.0519 -0.0192,-0.07786"
       id="path43504" />
  </g>
</svg>
