<?xml version="1.0" encoding="UTF-8" standalone="no"?>
<!-- Created with Inkscape (http://www.inkscape.org/) -->

<svg
   width="18.185795mm"
   height="11.800507mm"
   viewBox="0 0 18.185795 11.800507"
   version="1.1"
   id="svg5"
   sodipodi:docname="both.svg"
   inkscape:version="1.2.2 (b0a8486541, 2022-12-01)"
   xmlns:inkscape="http://www.inkscape.org/namespaces/inkscape"
   xmlns:sodipodi="http://sodipodi.sourceforge.net/DTD/sodipodi-0.dtd"
   xmlns="http://www.w3.org/2000/svg"
   xmlns:svg="http://www.w3.org/2000/svg">
  <sodipodi:namedview
     id="namedview7"
     pagecolor="#ffffff"
     bordercolor="#666666"
     borderopacity="1.0"
     inkscape:showpageshadow="2"
     inkscape:pageopacity="0.0"
     inkscape:pagecheckerboard="0"
     inkscape:deskcolor="#d1d1d1"
     inkscape:document-units="mm"
     showgrid="false"
     inkscape:zoom="9.2708228"
     inkscape:cx="69.788843"
     inkscape:cy="14.022488"
     inkscape:window-width="2560"
     inkscape:window-height="1372"
     inkscape:window-x="0"
     inkscape:window-y="32"
     inkscape:window-maximized="1"
     inkscape:current-layer="layer1"
     showguides="true" />
  <defs
     id="defs2" />
  <g
     inkscape:label="Layer 1"
     inkscape:groupmode="layer"
     id="layer1"
     transform="translate(-92.727384,-62.448422)">
    <path
       style="fill:#6ae4a3;fill-opacity:1;stroke:#000000;stroke-width:1;stroke-linecap:round;stroke-linejoin:round"
       d="m 93.788808,65.477973 c 0.04219,0.564618 0.03845,1.129958 0.03845,1.695601 0,0.08651 0.0033,0.173082 0,0.259529 -0.0031,0.08094 -0.01296,0.161473 -0.01922,0.242229 -0.02797,0.360823 -0.06082,0.715187 -0.115352,1.072727 -0.02996,0.196418 -0.06135,0.392647 -0.09613,0.588269 -0.03201,0.180052 -0.0842,0.356158 -0.115353,0.536361 -0.04517,0.261339 -0.087,0.523547 -0.115352,0.787243 -0.03036,0.282314 -0.01922,0.423871 -0.01922,0.735341 0,0.24511 0,0.490223 0,0.735333 0,0.09516 0.0038,0.190399 0,0.285485 -0.0045,0.112559 -0.01513,0.224822 -0.01923,0.337394 -0.0023,0.0634 0.0033,0.126963 0,0.19032 -0.0094,0.181523 -0.03739,0.267378 -0.0769,0.458505 -0.02265,0.109558 -0.01923,0.06417 -0.01923,0.147063 0,0.0087 -0.0087,0.02596 0,0.02596 0.04569,0 0.08907,-0.02186 0.134576,-0.02596 0.140418,-0.01265 0.281975,0.0013 0.422955,0 0.39091,-0.0033 0.781835,-0.0049 1.172741,-0.0087 0.660031,-0.0063 1.320051,-0.03695 1.980203,-0.02596 0.173099,0.0029 0.346059,0.01138 0.519081,0.0173 0.435201,0.01487 0.998724,0.02745 1.461116,0.06055 0.480886,0.03443 0.960352,0.09563 1.441897,0.121119 0.32009,0.01693 0.64084,0.01746 0.96126,0.02596 0.59599,0.01577 1.19194,0.0084 1.78795,0 0.0961,-0.0013 0.19228,0.0021 0.28838,0 0.16668,-0.0037 0.3332,-0.01302 0.49986,-0.0173 0.0577,-0.0016 0.11542,0.0029 0.17303,0 0.15428,-0.0077 0.30736,-0.03171 0.4614,-0.04326 0.56207,-0.04215 -0.0848,0.01955 0.26915,-0.02596 0.0528,-0.0068 0.25677,-0.0092 0.30761,-0.07786 0.091,-0.122817 0.065,-0.209391 0.0769,-0.346041 0.009,-0.104206 0.0226,-0.208044 0.0384,-0.311438 0.01,-0.06397 0.0292,-0.126267 0.0384,-0.19032 0.01,-0.06879 0.0133,-0.138375 0.0192,-0.207629 0.0278,-0.325292 0.0458,-0.652524 0.0769,-0.977562 0.0174,-0.181858 0.0452,-0.362754 0.0577,-0.545015 0,-5e-6 0.0384,-1.159235 0.0384,-1.159237 0,-0.0925 -0.0161,-0.184386 -0.0192,-0.276831 -0.003,-0.0951 0.007,-0.190556 0,-0.285483 -0.0366,-0.5212 -0.13597,-1.037981 -0.19225,-1.557187 -0.0293,-0.270621 -0.0421,-0.54311 -0.0769,-0.813194 -0.009,-0.06981 -0.0288,-0.137909 -0.0385,-0.207624 -0.0291,-0.209375 -0.0325,-0.42165 -0.0577,-0.631526 -0.009,-0.0727 -0.0288,-0.143695 -0.0384,-0.216275 -0.01,-0.07174 -0.007,-0.144934 -0.0192,-0.216276 -0.0263,-0.153924 -0.0705,-0.304472 -0.0961,-0.458504 -0.0129,-0.07706 -0.009,-0.156089 -0.0192,-0.233577 -0.009,-0.07263 -0.0291,-0.143656 -0.0384,-0.216276 -0.0163,-0.126481 -0.0248,-0.253849 -0.0384,-0.380645 -0.006,-0.052 -0.0158,-0.103529 -0.0192,-0.155718 -0.003,-0.04604 0.005,-0.09255 0,-0.138417 -0.0145,-0.133977 -0.0536,-0.258059 -0.0769,-0.389297 -0.006,-0.04325 -0.0128,-0.08651 -0.0192,-0.129765 -0.006,-0.0087 -0.0155,-0.01585 -0.0192,-0.02596 -0.003,-0.0081 0.008,-0.02193 0,-0.02596 -0.0355,-0.01865 -0.0764,-0.02487 -0.11535,-0.0346 -0.39054,-0.09763 -0.7924,-0.16532 -1.19197,-0.207624 -0.1341,-0.01421 -0.26914,-0.01749 -0.40372,-0.02596 -0.87604,-0.055 0.0358,0.0029 -1.34577,-0.06921 -0.26934,-0.01405 -0.53815,-0.03728 -0.80746,-0.05191 -2.194162,-0.119155 0.12239,0.0065 -1.018944,-0.04325 -0.09621,-0.0042 -0.192129,-0.01429 -0.288382,-0.0173 -0.474184,-0.0149 -0.948496,-0.01217 -1.422669,-0.02596 -3.44e-4,-1.1e-5 -0.384158,-0.0173 -0.384501,-0.0173 -0.121747,-0.0019 -0.243538,0.0019 -0.365284,0 -0.320361,-0.005 -0.640917,-0.01746 -0.96126,-0.02596 -0.140936,-0.0037 -0.282,0.0029 -0.422955,0 -0.04494,-7.94e-4 -0.08965,-0.0072 -0.13458,-0.0087 -0.185529,-0.006 -0.371841,0 -0.557527,0 -0.205071,0 -0.410142,0 -0.615213,0 -0.08972,0 -0.179649,-0.0062 -0.269152,0 -0.108945,0.0075 -0.217955,0.02482 -0.326827,0.0346 -0.01317,0.0011 -0.234389,0.0052 -0.249928,0.0087 -0.01509,0.0034 -0.03094,0.01244 -0.03845,0.02596 -0.01298,0.02336 -0.01207,0.0521 -0.01923,0.07786 -0.04449,0.160152 -0.07183,0.308178 -0.09613,0.475803 -0.02632,0.181596 -0.05,0.363463 -0.0769,0.545017 -0.0347,0.234218 -0.07321,0.471676 -0.05767,0.709385 0.0043,0.06649 0.01059,0.132901 0.01922,0.19897 0.0042,0.03209 0.0035,0.06688 0.01923,0.09516 0.0685,0.123288 0.208845,0.215355 0.230702,0.35469 0.02054,0.130977 -0.08411,0.251796 -0.115353,0.380643 -0.01495,0.06166 0,0.126883 0,0.190325 0,0.123997 0,0.247997 0,0.371994 0,0.04614 0,0.09228 0,0.138414 0,0.02307 0,0.04614 0,0.06921 0,0.0087 -0.0086,0.02596 0,0.02596 0.0087,0 0,-0.0173 0,-0.02596 0,-0.02595 0,-0.05191 0,-0.07786"
       id="path65521" />
    <path
       style="fill:none;fill-opacity:1;stroke:#000000;stroke-width:1;stroke-linecap:round;stroke-linejoin:round"
       d="m 105.10701,69.396498 c 0.19538,0.0155 0.39047,0.03045 0.58637,0.03893 0.064,0.0028 0.12818,0.0022 0.19225,0.0043 0.0673,0.0022 0.13458,0.0058 0.20186,0.0087 0.15381,0.0043 0.30762,0.0082 0.46141,0.01297 0.0393,0.0012 0.4559,0.01674 0.49024,0.0173 0.36457,0.006 0.73117,0.0075 1.09584,-0.0043 0.3238,-0.01053 0.64758,-0.02646 0.97088,-0.04758 0.0476,-0.0031 0.41139,-0.02925 0.53831,-0.0346 0.25646,-0.01082 0.51241,-0.01298 0.76901,-0.01298"
       id="path66257" />
    <path
       style="fill:none;fill-opacity:1;stroke:#000000;stroke-width:1;stroke-linecap:round;stroke-linejoin:round"
       d="m 97.830251,65.438657 c -0.04806,-0.0072 -0.09561,-0.02026 -0.14419,-0.02163 -0.03185,-9e-4 0.0034,0.03044 0.0096,0.05191 0.0061,0.021 0.0073,0.04314 0.0096,0.06488 0.0039,0.0365 0.02655,0.269218 0.02884,0.333066 0.01091,0.304484 -0.01897,0.609322 -0.03845,0.912682 -0.01092,0.170057 -0.02034,0.340214 -0.02884,0.51041 -0.0085,0.170046 -0.01701,0.340168 -0.01922,0.510412 -0.004,0.311178 0,0.623025 0,0.934308 0,0.136975 -0.0022,0.273967 0,0.410924 0.0037,0.232125 0.02891,0.464622 0.03845,0.696408 0.0039,0.09364 0,0.187438 0,0.281157 0,0.07353 0,0.147068 0,0.220602 0,0.02185 -0.0043,0.136463 0.02884,0.151392 0.0072,0.0032 0.0089,-0.01377 0.0096,-0.02163 0.0049,-0.05023 0,-0.100928 0,-0.151392 0,-0.170999 -0.0043,-0.09136 0.02884,-0.333064 0.0056,-0.0405 0.0098,-0.08135 0.01922,-0.121115 0.0098,-0.04121 0.02447,-0.08113 0.03845,-0.121115 0.09783,-0.279853 0.06835,-0.193986 0.153802,-0.402271 0.09434,-0.229939 0.04071,-0.100683 0.153801,-0.419575 0.01542,-0.04347 0.03612,-0.08521 0.04807,-0.129766 0.01059,-0.03948 0.01014,-0.08126 0.01922,-0.121113 0.0082,-0.0361 0.05644,-0.244871 0.09613,-0.311437 0.01813,-0.03041 0.0414,-0.05803 0.06729,-0.08218 0.100102,-0.09342 0.190423,-0.176022 0.317217,-0.224926 0.265708,-0.102484 0.504456,-0.148851 0.788236,-0.12544 0.399865,0.03299 0.674933,0.06857 1.009323,0.298459 0.0345,0.02369 0.0606,0.05803 0.0865,0.09084 0.0869,0.110007 0.10399,0.189055 0.14419,0.33739 0.0107,0.03945 0.0171,0.08029 0.0192,0.121114 0.004,0.08207 0.002,0.164397 0,0.246553 -0.001,0.03905 -0.008,0.07776 -0.01,0.116789 -0.002,0.05534 0.006,0.168773 -0.01,0.224927 -0.0196,0.07255 -0.0471,0.142959 -0.0769,0.21195 -0.0281,0.06495 -0.0868,0.143961 -0.13457,0.194647 -0.10792,0.114601 -0.21481,0.210019 -0.34606,0.294136 -0.285474,0.182959 -0.587867,0.351334 -0.922808,0.4239 -0.03376,0.0073 -0.115851,0.0096 -0.153803,0.01298 -0.108762,0.0098 -0.21752,0.01917 -0.326829,0.02163 -0.128264,0.0029 -0.256395,-0.0048 -0.384506,-0.0087 -0.112494,-0.0034 -0.224099,-0.01224 -0.336442,-0.0173 -0.0491,-0.0022 -0.09672,0.0056 -0.144189,-0.0086"
       id="path67976" />
  </g>
</svg>
