<?xml version="1.0" encoding="UTF-8" standalone="no"?>
<!-- Created with Inkscape (http://www.inkscape.org/) -->

<svg
   width="72.388992mm"
   height="61.959541mm"
   viewBox="0 0 72.388994 61.959546"
   version="1.1"
   id="svg5"
   sodipodi:docname="delay-eqs.svg"
   inkscape:version="1.2.2 (b0a8486541, 2022-12-01)"
   xmlns:inkscape="http://www.inkscape.org/namespaces/inkscape"
   xmlns:sodipodi="http://sodipodi.sourceforge.net/DTD/sodipodi-0.dtd"
   xmlns="http://www.w3.org/2000/svg"
   xmlns:svg="http://www.w3.org/2000/svg">
  <sodipodi:namedview
     id="namedview7"
     pagecolor="#ffffff"
     bordercolor="#666666"
     borderopacity="1.0"
     inkscape:showpageshadow="2"
     inkscape:pageopacity="0.0"
     inkscape:pagecheckerboard="0"
     inkscape:deskcolor="#d1d1d1"
     inkscape:document-units="mm"
     showgrid="false"
     inkscape:zoom="2.3177057"
     inkscape:cx="290.80483"
     inkscape:cy="119.08328"
     inkscape:window-width="2560"
     inkscape:window-height="1372"
     inkscape:window-x="0"
     inkscape:window-y="32"
     inkscape:window-maximized="1"
     inkscape:current-layer="layer1"
     showguides="true" />
  <defs
     id="defs2" />
  <g
     inkscape:label="Layer 1"
     inkscape:groupmode="layer"
     id="layer1"
     transform="translate(-104.14054,-29.305627)">
    <path
       style="fill:none;fill-opacity:1;stroke:#000000;stroke-width:1;stroke-linecap:round;stroke-linejoin:round;stroke-opacity:1"
       d="m 114.25315,86.061024 c -0.64305,0.148071 -1.2627,0.274931 -1.65337,0.865097 -0.0785,0.118587 -0.21378,0.269005 -0.1538,0.39795 0.0855,0.183745 0.30087,0.307665 0.49985,0.34604 0.27832,0.05367 0.57323,-0.0092 0.84592,-0.08651 0.21207,-0.06016 1.01298,-0.389942 1.26886,-0.674777 0.15017,-0.167151 0.26608,-0.362715 0.38451,-0.55367 0.0255,-0.04119 0.12475,-0.310769 0.11535,-0.328739 -0.12862,-0.245978 -0.66864,-0.227693 -0.88436,-0.22492 -1.11893,0.01439 -1.68827,0.01545 -2.53773,0.813189 -0.0709,0.06659 -0.31276,0.504693 -0.30761,0.622877 0.007,0.151045 0.12127,0.642181 0.30761,0.795898 0.41534,0.342644 1.16514,0.27572 1.65337,0.138412 0.14462,-0.04067 0.30243,-0.06602 0.42295,-0.155721 0.27218,-0.202552 0.63414,-0.578826 0.76901,-0.934307 0.0439,-0.115745 0.0564,-0.24125 0.0769,-0.363342 0.0308,-0.183761 0.0952,-0.368242 0.0769,-0.553667 -0.0192,-0.194593 -0.32513,-0.34232 -0.46141,-0.380648 -0.48811,-0.137274 -0.92635,-0.225488 -1.42267,-0.207621 -0.15467,0.0056 -0.31476,0.0024 -0.46141,0.05191 -0.77542,0.261697 -1.53446,0.766403 -1.38422,1.7129 0.0283,0.178067 0.43968,0.438028 0.57676,0.467156 0.63493,0.134916 1.00001,0.152191 1.57647,0.0173 0.43271,-0.101248 0.57218,-0.192985 0.92282,-0.51906 0.0183,-0.01699 0.13025,-0.219818 0.0769,-0.276836 -0.18658,-0.199398 -0.36874,-0.232516 -0.61521,-0.294132 -0.56233,-0.140576 -0.46503,-0.0931 -1.23042,-0.155718"
       id="path101717" />
    <path
       style="fill:none;fill-opacity:1;stroke:#000000;stroke-width:1;stroke-linecap:round;stroke-linejoin:round;stroke-opacity:1"
       d="m 113.36879,86.874221 c 3.81328,0.120838 1.59862,0.08572 5.26772,0.0692 0.43577,-0.0019 0.87154,0 1.30732,0 0.25633,0 0.51272,0.005 0.76901,0 0.0389,-7.94e-4 0.0864,0.0087 0.11535,-0.0173 0.08,-0.07202 0.12817,-0.173019 0.19225,-0.25953"
       id="path101719" />
    <path
       style="fill:#6ae4a3;fill-opacity:1;stroke:#000000;stroke-width:1;stroke-linecap:round;stroke-linejoin:round;stroke-opacity:1"
       d="m 120.09763,87.272162 c 0.65366,-0.599802 1.29941,-1.208339 1.96098,-1.799407 1.8418,-1.645551 -0.79183,0.883536 1.76872,-1.574489 0.96597,-0.927291 0.33743,-0.423209 1.42267,-1.314955 0.0346,-0.02847 0.0712,-0.07686 0.11535,-0.06921 0.29067,0.0503 1.32133,0.631806 1.46112,0.709387 0.50111,0.278101 0.98872,0.554683 1.46112,0.882399 0.24436,0.169516 0.38718,0.313846 0.61521,0.519068 0.051,0.0459 0.34605,0.276965 0.34605,0.328731 0,0.05346 -0.0294,0.103018 -0.0384,0.155721 -0.004,0.02273 0.005,0.04659 0,0.06921 -0.0317,0.157071 -0.18625,0.417302 -0.2307,0.50176 -0.11063,0.21018 -0.22003,0.421552 -0.34606,0.622877 -0.18645,0.297844 -0.39517,0.581562 -0.57675,0.882398 -0.10072,0.166862 -0.1698,0.351399 -0.26916,0.519068 -0.10602,0.178892 -0.2307,0.34604 -0.34605,0.519059 -0.19226,0.32874 -0.38487,0.65727 -0.57676,0.986219 -0.26616,0.456255 -0.29289,0.485952 -0.53831,1.038119 -0.0322,0.07241 -0.0472,0.151461 -0.0769,0.224928 -0.005,0.01278 -0.16412,0.296661 -0.19225,0.294132 -0.0443,-0.004 -0.33228,-0.165696 -0.34606,-0.173022 -0.21766,-0.115755 -0.43916,-0.224499 -0.65366,-0.346038 -0.0672,-0.03807 -0.82465,-0.523682 -0.84591,-0.536361 -0.39457,-0.23536 -0.79113,-0.467548 -1.19196,-0.692086 -0.22732,-0.127344 -0.46309,-0.23907 -0.69211,-0.363342 -0.49717,-0.269777 -1.17172,-0.666708 -1.61492,-0.951608 -0.21087,-0.135557 -0.41014,-0.288372 -0.61521,-0.432557 z"
       id="path101721" />
    <path
       style="fill:none;fill-opacity:1;stroke:#000000;stroke-width:1;stroke-linecap:round;stroke-linejoin:round;stroke-opacity:1"
       d="m 129.97941,86.061024 c -0.27512,0.09757 -0.56502,0.04859 -0.84591,0.08651 -0.0398,0.0054 -0.15339,0.02177 -0.11536,0.0346 0.29597,0.09988 0.72526,-0.141666 0.96127,-0.12111 0.57345,0.04994 1.12295,0.258164 1.69182,0.346038 0.29184,0.04508 0.58931,0.04002 0.88436,0.05191 0.56375,0.02273 1.128,0.03111 1.69183,0.0519 0.69731,0.02572 0.5479,0.03577 1.19196,0.06921 0.4065,0.02111 0.82796,-0.0085 1.23041,0.05191"
       id="path101723" />
    <path
       style="fill:none;fill-opacity:1;stroke:#000000;stroke-width:1;stroke-linecap:round;stroke-linejoin:round;stroke-opacity:1"
       d="m 139.78429,85.455446 c 1.47393,0.06921 2.94787,0.138419 4.4218,0.207629"
       id="path101725" />
    <path
       style="fill:none;fill-opacity:1;stroke:#000000;stroke-width:1;stroke-linecap:round;stroke-linejoin:round;stroke-opacity:1"
       d="m 139.70739,88.933158 c 1.29307,0.08208 2.58733,0.188188 3.8835,0.207629 0.33498,0.005 0.69828,-0.02185 1.03816,0 0.12746,0.0082 0.25806,0.03293 0.38451,0.0519"
       id="path101731" />
    <path
       style="fill:none;fill-opacity:1;stroke:#000000;stroke-width:1;stroke-linecap:round;stroke-linejoin:round;stroke-opacity:1"
       d="m 152.97281,86.562782 c -0.41014,0.484455 -0.88866,0.91847 -1.23042,1.453367 -0.0633,0.09913 0.25237,0.0019 0.34606,-0.06921 0.072,-0.05469 0.3632,-0.479912 0.34605,-0.657474 -0.0214,-0.221249 -0.49536,-0.201919 -0.73056,-0.224927 -0.0893,-0.0087 -0.18017,-0.01143 -0.26915,0 -0.0919,0.01183 -0.18162,0.03891 -0.26916,0.06921 -0.35761,0.123782 -0.56877,0.389921 -0.769,0.709379 -0.0421,0.06714 -0.0504,0.15027 -0.0769,0.224928 -0.0247,0.06954 -0.0827,0.134051 -0.0769,0.207621 0.008,0.09966 0.0635,0.191344 0.11536,0.276839 0.0873,0.14406 0.23064,0.132643 0.3845,0.138411 0.35357,0.01326 0.70123,0.03983 1.03816,-0.08651 0.31216,-0.117054 0.61303,-0.425889 0.80746,-0.657476 0.0711,-0.08474 0.10007,-0.197419 0.15381,-0.294132 0.0488,-0.08791 0.13298,-0.16115 0.1538,-0.25953 0.0576,-0.271991 0.2911,-0.653269 0.0769,-0.830498 -0.008,-0.0064 -1.2314,-0.284469 -1.61492,-0.08651 -0.3201,0.165221 -0.99187,0.474982 -1.19197,0.917008 -0.15165,0.335008 -0.28075,0.580726 -0.11535,0.899708 0.19055,0.367477 0.50215,0.401201 0.92281,0.501758 0.22979,0.05493 0.77222,0.04306 0.99972,-0.0173 0.85002,-0.225576 0.859,-0.169463 1.30731,-0.640173 0.0946,-0.09936 0.20477,-0.190272 0.26916,-0.311438 0.0163,-0.03069 0.21246,-0.507577 0.1538,-0.674778 -0.0199,-0.05667 -0.0686,-0.10075 -0.11535,-0.138419 -0.19787,-0.15933 -0.36209,-0.428157 -0.61521,-0.44985 -0.34776,-0.0298 -0.66648,0.207626 -0.99971,0.311438"
       id="path101733" />
    <path
       style="fill:none;fill-opacity:1;stroke:#000000;stroke-width:1;stroke-linecap:round;stroke-linejoin:round;stroke-opacity:1"
       d="m 152.2807,87.79123 c 2.46089,0.03783 4.92144,0.0692 7.38249,0.0692"
       id="path101735" />
    <path
       style="fill:none;fill-opacity:1;stroke:#000000;stroke-width:1;stroke-linecap:round;stroke-linejoin:round;stroke-opacity:1"
       d="m 111.86925,73.897685 c 0.39808,0.0057 0.79409,0.05953 1.19196,0.06921 0.28189,0.0069 0.56403,-0.007 0.84591,0 0.17975,0.0045 0.35869,0.02652 0.53831,0.0346 0.46126,0.02074 0.92268,0.03851 1.38422,0.05191 0.7301,0.02119 1.46111,0.0173 2.19167,0.0173"
       id="path101737" />
    <path
       style="fill:#6ae4a3;fill-opacity:1;stroke:#000000;stroke-width:1;stroke-linecap:round;stroke-linejoin:round;stroke-opacity:1"
       d="m 118.71343,73.966894 c 0.0144,-0.01659 1.90231,-2.184125 2.15323,-2.491494 0.18772,-0.229944 0.36015,-0.471963 0.53831,-0.709387 0.15508,-0.206669 0.30077,-0.420484 0.46141,-0.622872 0.0862,-0.108561 0.34896,-0.484457 0.57675,-0.484457 0.0664,0 0.13018,0.02838 0.19225,0.0519 0.18186,0.06891 0.35763,0.153005 0.53832,0.22493 0.15261,0.06075 0.3076,0.115345 0.4614,0.173019 0.16662,0.06921 0.33234,0.140623 0.49986,0.207629 0.71098,0.284382 1.40976,0.581422 2.11477,0.882399 0.50245,0.2145 1.00466,0.425092 1.49957,0.657479 0.26303,0.123502 0.51644,0.290475 0.76902,0.432548 0.114,0.06413 0.38906,0.171916 0.34605,0.346046 -0.016,0.06481 -0.12491,0.162319 -0.1538,0.190323 -0.29157,0.282586 -0.38497,0.380338 -0.69211,0.605568 -0.2409,0.176654 -0.49404,0.3366 -0.73057,0.519059 -0.12287,0.09479 -0.22678,0.212151 -0.34605,0.311439 -0.13724,0.114244 -0.28449,0.215992 -0.42296,0.328739 -0.25202,0.205211 -1.11786,0.974566 -1.19196,1.038127 -0.13826,0.118597 -0.28914,0.222443 -0.42296,0.346038 -0.11024,0.101825 -0.20268,0.221441 -0.3076,0.32874 -0.17709,0.18111 -0.36578,0.350901 -0.53831,0.53636 -0.0587,0.06306 -0.0929,0.146728 -0.1538,0.207629 -0.0558,0.05584 -0.14123,0.07815 -0.19225,0.138412 -0.21509,0.419425 -0.0141,0.116499 -0.19225,0.276836 -0.016,0.01439 -0.0174,0.04718 -0.0385,0.0519 -0.12854,0.02892 -0.68353,-0.279664 -0.769,-0.328739 -0.27221,-0.156281 -0.54484,-0.312563 -0.80747,-0.48446 -0.16085,-0.105283 -0.30589,-0.233003 -0.4614,-0.346038 -0.17776,-0.129215 -0.35836,-0.254479 -0.5383,-0.380643 -1.6989,-1.191154 -0.55984,-0.378174 -1.61493,-1.141936 -0.12793,-0.0926 -0.2969,-0.145426 -0.3845,-0.276828 -0.11444,-0.171649 -0.12817,-0.392182 -0.19226,-0.58827 z"
       id="path101739" />
    <path
       style="fill:none;fill-opacity:1;stroke:#000000;stroke-width:1;stroke-linecap:round;stroke-linejoin:round;stroke-opacity:1"
       d="m 128.51832,73.517036 c 1.28855,0 0.59455,-0.02045 1.96096,0.06921 0.71817,0.04713 1.34228,0.08741 2.07634,0.121111 0.20493,0.0094 0.41021,0.0093 0.6152,0.0173 0.0898,0.0035 0.1795,0.01058 0.26916,0.0173 0.16703,0.01252 0.33298,0.02387 0.49985,0.0346 0.0384,0.0024 0.11536,0.03845 0.11536,0 0,-0.03888 -0.0767,-0.02117 -0.11536,-0.0173 -0.0784,0.0079 -0.15519,0.02926 -0.23069,0.05191 -0.40907,0.122717 -0.65891,0.300334 -0.99972,0.570968 -0.0675,0.05362 -0.14443,0.101285 -0.19226,0.173022 -0.081,0.121449 -0.0176,0.397923 0.0385,0.484449 0.0603,0.09297 0.38718,0.158107 0.4614,0.155721 1.05654,-0.03397 1.56647,-0.3096 2.30703,-1.05542 0.15306,-0.154147 0.22097,-0.282089 0.26916,-0.484458 0.0485,-0.20371 0.0925,-0.367744 -0.1538,-0.41525 -0.21581,-0.04162 -0.43412,-0.07629 -0.65367,-0.08651 -0.91771,-0.04272 -2.06008,0.47144 -2.11478,1.505278 -0.006,0.106482 0.12896,0.352163 0.23071,0.397949 0.37524,0.168847 1.07265,0.300575 1.49957,0.207622 0.25069,-0.05458 0.49515,-0.140227 0.73056,-0.242229 0.23512,-0.101883 0.38744,-0.259128 0.49985,-0.48446 0.0559,-0.112091 0.28904,-0.597964 0.26916,-0.830498 -0.0522,-0.610698 -1.72403,-0.581321 -2.07633,-0.363339 -0.10311,0.0638 -0.41713,0.543991 -0.26915,0.640178 0.27883,0.181231 0.84981,0.254299 1.07661,-0.05191"
       id="path101741" />
    <path
       style="fill:none;fill-opacity:1;stroke:#000000;stroke-width:1;stroke-linecap:round;stroke-linejoin:round;stroke-opacity:1"
       d="m 141.74528,73.361316 c 1.35841,0.03704 2.71699,-0.02658 4.07576,0 0.48726,0.0095 0.97352,0.03461 1.46111,0.03461"
       id="path101751" />
    <path
       style="fill:none;fill-opacity:1;stroke:#000000;stroke-width:1;stroke-linecap:round;stroke-linejoin:round;stroke-opacity:1"
       d="m 141.24542,76.5968 c 1.97425,0.101282 3.94777,-0.207622 5.92139,-0.207622"
       id="path101753" />
    <path
       style="fill:none;fill-opacity:1;stroke:#000000;stroke-width:1;stroke-linecap:round;stroke-linejoin:round;stroke-opacity:1"
       d="m 154.74156,74.122607 c 1.19196,-0.01154 2.38389,-0.02736 3.57589,-0.0346 0.70491,-0.0043 1.40986,0 2.11478,0 0.20507,0 0.41016,0.0033 0.6152,0 0.15389,-0.0024 0.30777,-0.0081 0.46141,-0.0173 0.022,-0.0013 0.24412,-0.02093 0.11536,-0.06921 -0.0678,-0.0254 -0.3904,-0.04924 -0.46141,-0.05191 -0.0768,-0.0029 -0.15417,-0.0075 -0.2307,0 -0.35445,0.03467 -0.67251,0.06042 -0.99971,0.190328 -0.33992,0.134958 -1.15519,0.604059 -0.65366,1.05542 0.11447,0.103021 0.55189,0.113244 0.65366,0.103817 0.63067,-0.05842 0.82517,-0.06634 1.3073,-0.294137 0.1317,-0.06223 0.27064,-0.116787 0.38452,-0.207621 0.1711,-0.136486 0.31395,-0.30542 0.46141,-0.467159 0.10564,-0.115875 0.19225,-0.219062 0.19225,-0.380648 0,-0.282224 0.0257,-0.292013 -0.19225,-0.363339 -0.088,-0.02882 -0.17695,-0.06032 -0.26916,-0.06921 -0.68928,-0.06646 -0.6772,-0.05382 -1.23042,0.0173 -0.12827,0.01648 -0.26364,0.0059 -0.38451,0.05191 -0.21729,0.08273 -0.42153,0.200091 -0.6152,0.32874 -0.2577,0.17118 -0.44469,0.613949 -0.46141,0.899707 -0.007,0.120799 0.1229,0.299839 0.2307,0.346038 0.5193,0.222547 0.59118,0.215429 1.07662,0.224931 0.60988,0.01193 0.57982,0.01413 1.30731,-0.20763 0.24947,-0.07605 0.38365,-0.149899 0.53832,-0.34604 0.25949,-0.32907 0.23069,-0.229934 0.23069,-0.501759 0,-0.05191 0.0329,-0.115556 0,-0.155718 -0.13312,-0.162599 -0.31054,-0.195453 -0.49985,-0.207621 -0.42638,-0.02741 -0.87444,0.03396 -1.07661,0.44985 -0.0851,0.175054 -0.19888,0.350832 -0.1538,0.553667 0.0651,0.292894 0.3928,0.405461 0.65365,0.432549 0.0894,0.0093 0.18104,0.03514 0.26915,0.0173 0.28051,-0.0568 0.50189,-0.129016 0.69211,-0.32874 0.19611,-0.205901 0.22167,-0.36359 0.3076,-0.657476 0.0198,-0.06756 0.0524,-0.138631 0.0384,-0.207621 -0.0501,-0.247822 -0.41341,-0.291989 -0.57675,-0.32874 -0.502,-0.112948 -1.14263,0.02154 -1.57647,0.276831 -0.0828,0.04875 -0.15103,0.11924 -0.23071,0.173019 -0.40403,0.272703 -0.24042,0.06292 -0.34605,0.276831 -0.0117,0.02365 -0.0625,0.05837 -0.0385,0.06921 0.0282,0.0127 0.0513,-0.0346 0.0769,-0.0519"
       id="path101755" />
    <path
       style="fill:#6ae4a3;fill-opacity:1;stroke:#000000;stroke-width:1;stroke-linecap:round;stroke-linejoin:round;stroke-opacity:1"
       d="m 104.64054,51.405023 c 2.15239,0.09504 4.30655,0.05106 6.45967,0.08651 0.30779,0.0051 0.61526,0.02202 0.92282,0.0346 0.36334,0.01486 0.34606,0.133291 0.34606,-0.0346 0.35887,-0.230694 0.7312,-0.441675 1.07661,-0.692083 0.16705,-0.121106 0.83921,-0.926175 0.84591,-0.934309 0.16127,-0.19594 0.30735,-0.403907 0.46141,-0.605573 0.0653,-0.08555 0.1201,-0.179619 0.19225,-0.25953 0.0951,-0.105301 0.20215,-0.199232 0.3076,-0.294134 0.0732,-0.0659 0.1225,-0.07625 0.2307,-0.05191 0.0302,0.0068 0.0476,0.04201 0.0769,0.05191 0.0747,0.0252 0.15723,0.02335 0.2307,0.0519 0.64722,0.251526 1.24999,0.599838 1.84562,0.951613 0.14243,0.08412 0.28112,0.174428 0.42296,0.25953 0.12733,0.07639 0.26341,0.139 0.38451,0.224928 0.47408,0.336408 0.5211,0.390494 0.84591,0.709384 0.26313,0.258339 0.35709,0.365879 0.5383,0.692083 0.0182,0.0327 0.0724,0.109804 0.0384,0.155716 -0.0572,0.07722 -0.51574,0.209803 -0.6152,0.259533 -0.15784,0.07891 -0.30694,0.174222 -0.46141,0.25953 -0.12751,0.07042 -0.25916,0.133414 -0.3845,0.207624 -0.34423,0.203813 -0.41511,0.289549 -0.76902,0.51906 -0.2918,0.189236 -0.58669,0.373798 -0.88436,0.553668 -0.61071,0.369027 -1.24695,0.700915 -1.84562,1.090024 -0.0499,0.03246 -0.14591,0.141977 -0.23071,0.103817 -0.0271,-0.01219 -0.21934,-0.242491 -0.2307,-0.259529 -0.0439,-0.06587 -0.0614,-0.149659 -0.11536,-0.207628 -0.0227,-0.02442 -0.77627,-0.725821 -0.9228,-0.847799 -0.13724,-0.114244 -0.28363,-0.217061 -0.42296,-0.328739 -0.27083,-0.21708 -0.53575,-0.441485 -0.80745,-0.657478 -0.11287,-0.08973 -0.23888,-0.163077 -0.34606,-0.25953 -0.0733,-0.06598 -0.1255,-0.152326 -0.19226,-0.224929 -0.12191,-0.132576 -0.42295,-0.345583 -0.42295,-0.570965"
       id="path101757" />
    <path
       style="fill:#6ae4a3;fill-opacity:1;stroke:#000000;stroke-width:1;stroke-linecap:round;stroke-linejoin:round;stroke-opacity:1"
       d="m 105.71714,63.187712 c 0.26916,-0.01153 0.53815,-0.02787 0.80747,-0.0346 0.60485,-0.01512 1.40388,-0.01122 2.03787,-0.03461 0.9802,-0.03615 1.94647,-0.09461 2.92223,-0.17302 1.201,-0.0965 -0.40472,0.03604 1.07663,-0.06921 0.0769,-0.0055 0.30781,-0.0173 0.23069,-0.0173 -0.20525,0 -0.10235,0 -0.3076,0 0.44348,-0.652016 1.02695,-1.17383 1.57648,-1.730204 0.22587,-0.228682 0.80978,-0.885926 0.9228,-1.020819 0.19674,-0.208006 0.31768,-0.473468 0.49986,-0.692079 0.14547,-0.174553 0.29692,-0.34501 0.46141,-0.501759 0.0548,-0.05225 0.12784,-0.08127 0.19225,-0.121118 0.0381,-0.02359 0.0706,-0.07145 0.11536,-0.06921 0.14222,0.0071 0.72422,0.360025 0.73055,0.363348 0.13906,0.073 0.28702,0.12897 0.42296,0.207621 0.58984,0.341244 1.0994,0.81649 1.57647,1.297656 0.24471,0.246816 0.4986,0.485141 0.73055,0.743988 0.0893,0.0997 0.14693,0.224329 0.23072,0.328739 0.0832,0.103647 0.18247,0.193384 0.26914,0.294131 0.0672,0.07815 0.12552,0.163672 0.19227,0.242229 0.12491,0.147011 0.26099,0.284359 0.3845,0.432557 0.0138,0.01654 0.0224,0.0375 0.0384,0.0519 0.023,0.02069 0.0863,0.02243 0.0769,0.05191 -0.0136,0.04274 -0.0772,0.04562 -0.11535,0.06921 -0.0644,0.03985 -0.12677,0.08305 -0.19225,0.121112 -2.14847,1.24873 0.32563,-0.219355 -1.19197,0.709387 -0.16489,0.100913 -0.33874,0.187289 -0.49986,0.294131 -0.32626,0.216357 -0.63769,0.454409 -0.96126,0.674778 -0.18875,0.128545 -0.67971,0.429548 -0.88436,0.553668 -0.15336,0.09301 -0.30833,0.183351 -0.46141,0.276831 -0.0264,0.01612 -0.0469,0.05961 -0.0769,0.05191 -0.16212,-0.04169 -0.21652,-0.176261 -0.34605,-0.259529 -0.21209,-0.136341 -0.43965,-0.247317 -0.65365,-0.380648 -0.1195,-0.07446 -0.22572,-0.169126 -0.34606,-0.24223 -0.13648,-0.0829 -0.28462,-0.145166 -0.42295,-0.224921 -0.27193,-0.156776 -0.53432,-0.329825 -0.80747,-0.484459 -0.11323,-0.0641 -0.56973,-0.266983 -0.6921,-0.363347 -0.26793,-0.210985 -0.46097,-0.528463 -0.76902,-0.67478 -1.1599,-0.550933 -0.3837,0.2777 -0.69211,-0.06921"
       id="path101761" />
    <path
       style="fill:none;fill-opacity:1;stroke:#000000;stroke-width:1;stroke-linecap:round;stroke-linejoin:round;stroke-opacity:1"
       d="m 120.21298,51.889481 c 0.42296,0 0.84592,0 1.26887,0 0.11535,0 0.23097,-0.0078 0.34606,0 0.93574,0.0638 0.68872,0.05942 1.38421,0.155716 0.86846,0.120242 1.71993,0.264879 2.53773,0.588272 0.85239,0.337069 0.5801,0.200851 1.11507,0.501759 0.10254,0.05767 0.21315,0.102891 0.30761,0.17302 0.16307,0.121074 0.31437,0.257834 0.46141,0.397945 0.0714,0.06804 0.14161,0.140289 0.19225,0.224929 0.0407,0.068 0.0467,0.151654 0.0769,0.224928 0.25304,0.614867 0.43513,0.902519 0.57677,1.539879 0.10206,0.459286 0.0769,0.935351 0.0769,1.401466 0,0.213393 0.0131,0.42719 0,0.640178 -0.004,0.07025 -0.032,0.137537 -0.0384,0.207621 -0.006,0.06891 0.0129,0.139641 0,0.207628 -0.0211,0.110737 -0.11977,0.444742 -0.19226,0.588269 -0.0334,0.06622 -0.0829,0.123603 -0.11535,0.19032 -0.22068,0.131705 -0.10727,0.377755 -0.19225,0.553668 -0.0375,0.07755 -0.10344,0.13775 -0.15381,0.207621 -0.50946,0.706846 -0.0931,0.203099 -0.5383,0.640178 -0.62254,0.611203 0.47836,-0.380391 -0.61521,0.570968 -0.13088,0.113859 -0.19128,0.186699 -0.34606,0.27683 -0.15011,0.08742 -0.3092,0.158518 -0.46141,0.242229 -0.25796,0.141875 -0.50719,0.296616 -0.769,0.43255 -0.3096,0.160749 0.018,-0.03062 -0.38451,0.138419 -0.71218,0.356076 -0.0393,0.04435 -0.57675,0.242229 -0.066,0.02428 -0.12408,0.06947 -0.19225,0.08651 -0.16405,0.04101 -0.33372,0.05503 -0.49986,0.08651 -0.16443,0.03115 -0.33346,0.08428 -0.49986,0.10381 -0.38567,0.04527 -0.76913,0.0665 -1.15351,0.121118 -0.38462,0.05465 -0.76701,0.150182 -1.15352,0.190321 -0.11488,0.01193 -0.23084,0.0093 -0.34605,0.0173 -0.47616,0.03296 -0.20111,-0.0044 -0.46141,0.0346 -0.0325,0.0049 -0.25432,0.03961 -0.26915,0.03461 -0.0219,-0.0074 0,-0.04614 0,-0.06921"
       id="path101765" />
    <path
       style="fill:none;fill-opacity:1;stroke:#000000;stroke-width:1;stroke-linecap:round;stroke-linejoin:round;stroke-opacity:1"
       d="m 128.74899,56.561028 c -1.14888,0 -1.06755,-0.124449 -2.19167,1.591794 -0.10577,0.161477 0.38678,0.0861 0.57676,0.0519 0.36824,-0.06628 0.7327,-0.634534 0.88436,-0.847799 0.002,-0.0026 0.15277,-0.244102 0.11535,-0.311439 -0.0565,-0.101647 -0.21919,-0.108232 -0.3076,-0.10381 -0.15532,0.0078 -0.2817,0.202045 -0.34606,0.311438 -0.27542,0.468201 -0.54841,0.753583 0.11535,1.020819 0.1208,0.04864 0.25572,0.04989 0.38451,0.06921 0.44631,0.06694 0.84388,0.05328 1.23041,-0.207628 0.0797,-0.05378 0.16738,-0.100696 0.2307,-0.17302 0.10549,-0.12049 0.18428,-0.262144 0.26916,-0.397941 0.0386,-0.06179 0.14046,-0.242922 0.0769,-0.328739 -0.24324,-0.328384 -0.2889,-0.17562 -0.57675,-0.346047 -0.1625,-0.09621 -0.27442,-0.355184 -0.46141,-0.328739 -0.0262,0.0037 -0.91159,0.505278 -1.15351,0.709387 -0.2125,0.179282 -0.57817,0.465879 -0.42295,0.605569 0.20141,0.181263 0.32249,0.170136 0.57675,0.190328 0.11513,0.0091 0.23083,0.02528 0.34605,0.0173 0.26544,-0.01837 0.80535,-0.04531 1.03818,-0.294138 0.3928,-0.419811 -0.0551,-0.57487 -0.46141,-0.640171 -0.22807,-0.03665 -0.46131,-0.02517 -0.69211,-0.03461 0.64084,0.02884 1.28141,0.06432 1.92251,0.08651 0.19214,0.0067 0.38453,-0.0028 0.57677,0 0.80754,0.01172 1.6151,0.04499 2.42237,0.06921 0.64236,0.01927 1.28049,-0.0021 1.92252,-0.0173 0.25807,-0.0061 0.51258,0.0039 0.76902,-0.03461"
       id="path101767" />
    <path
       style="fill:none;fill-opacity:1;stroke:#000000;stroke-width:1;stroke-linecap:round;stroke-linejoin:round;stroke-opacity:1"
       d="m 140.8609,56.595636 c 3.60152,-0.07046 2.35807,-0.06921 3.72971,-0.06921"
       id="path101769" />
    <path
       style="fill:none;fill-opacity:1;stroke:#000000;stroke-width:1;stroke-linecap:round;stroke-linejoin:round;stroke-opacity:1"
       d="m 140.4764,59.08713 c 1.20507,0.189115 2.35133,0.190321 3.53744,0.190321"
       id="path101771" />
    <path
       style="fill:none;fill-opacity:1;stroke:#000000;stroke-width:1;stroke-linecap:round;stroke-linejoin:round;stroke-opacity:1"
       d="m 149.35846,51.508833 c 1.64056,-0.201856 3.26997,-0.541734 4.92166,-0.605569 0.46431,-0.01794 0.91376,0.192274 1.34577,0.363344 0.58949,0.233427 1.73207,0.713557 2.15323,1.384162 0.34323,0.546516 0.41169,0.812249 0.3845,1.332253 -0.0619,1.183897 -0.008,0.900924 -0.26914,1.885925 -0.0354,0.133491 -0.0646,0.2695 -0.11536,0.397949 -0.0522,0.132204 -0.1285,0.253599 -0.19225,0.380648 -0.11568,0.230528 -0.22248,0.465684 -0.34605,0.692079 -0.0561,0.102811 -0.13398,0.192526 -0.19225,0.294131 -0.24994,0.435802 0.0488,0.08986 -0.3845,0.674786 -0.28102,0.379353 -1.05549,0.769491 -1.42268,0.96891 -0.7583,0.411826 -1.58695,0.635573 -2.42237,0.830498 -0.67483,0.157453 -1.35126,0.316377 -2.03788,0.415249 -0.48463,0.06978 -0.97531,0.10107 -1.46112,0.155719 -0.0647,0.0073 -0.12762,0.02667 -0.19225,0.0346 -0.25065,0.03076 -0.19545,0.0808 -0.26916,-0.0519"
       id="path101773" />
    <path
       style="fill:none;fill-opacity:1;stroke:#000000;stroke-width:1;stroke-linecap:round;stroke-linejoin:round;stroke-opacity:1"
       d="m 158.77884,54.640502 c -0.64085,0.472922 -1.37424,0.841085 -1.92252,1.418767 -0.0969,0.102127 0.20578,0.230012 0.34605,0.242229 0.65417,0.05698 1.06419,-0.194913 1.49957,-0.640171 0.0958,-0.09797 0.13383,-0.239403 0.19225,-0.363347 0.0651,-0.13809 0.25712,-0.63129 -0.11535,-0.657478 -0.36574,-0.02571 -0.68983,0.248964 -1.03816,0.363347 -0.12613,0.04142 -0.26415,0.04779 -0.38451,0.103811 -0.65458,0.304708 -1.03214,0.550939 -1.34576,1.193838 -0.0309,0.06326 -0.0537,0.138917 -0.0385,0.207628 0.0496,0.22343 0.53392,0.249371 0.73056,0.276831 0.60329,0.08425 1.28705,-0.05152 1.84563,-0.25953 0.30903,-0.115086 0.49013,-0.471979 0.6152,-0.743988 0.0334,-0.07262 0.0692,-0.204206 0,-0.276831 -0.0774,-0.08125 -0.35052,-0.275253 -0.49986,-0.311438 -0.12813,-0.03104 -0.82878,-0.06921 -0.84591,-0.06921 -0.4161,0 -0.70866,0.166678 -1.07661,0.34604"
       id="path101775" />
    <path
       style="fill:none;fill-opacity:1;stroke:#000000;stroke-width:1;stroke-linecap:round;stroke-linejoin:round;stroke-opacity:1"
       d="m 157.77912,55.730537 c 1.5285,-0.06796 3.05068,-0.08035 4.57561,-0.03461 0.0769,0.0023 0.15387,-0.0031 0.23071,0 0.16617,0.0068 0.24725,0.04074 0.3845,-0.05191"
       id="path101777" />
    <path
       style="fill:#6ae4a3;fill-opacity:1;stroke:#000000;stroke-width:1;stroke-linecap:round;stroke-linejoin:round;stroke-opacity:1"
       d="m 163.20064,55.886249 c 0.23071,-0.282599 0.4426,-0.581661 0.69212,-0.847799 0.0986,-0.105187 0.23302,-0.170011 0.34605,-0.259529 0.20745,-0.164293 0.4073,-0.338043 0.6152,-0.501759 0.0998,-0.07859 0.20745,-0.146808 0.30761,-0.224929 0.263,-0.205127 0.51488,-0.424165 0.76902,-0.640174 0.11824,-0.100505 0.22413,-0.215426 0.34605,-0.311435 0.10035,-0.07903 0.32755,-0.24269 0.46141,-0.328739 0.0377,-0.02425 0.082,-0.03921 0.11534,-0.06921 0.0731,-0.06581 -0.01,-0.120179 0.1538,-0.10381 0.20332,0.02033 0.2482,0.09437 0.42296,0.17302 0.0749,0.0337 0.15951,0.04557 0.2307,0.08651 0.16087,0.09249 0.30846,0.206381 0.46141,0.311435 0.3906,0.268269 0.16251,0.09699 0.49986,0.432553 0.16451,0.163635 0.33983,0.316436 0.49986,0.484458 0.0711,0.07464 0.12445,0.164576 0.19225,0.242229 0.0733,0.084 0.1716,0.147676 0.23069,0.242229 0.17322,0.277139 0.30665,0.57725 0.46141,0.8651 0.0375,0.06973 0.0845,0.134712 0.11536,0.207621 0.0792,0.187123 0.0876,0.429227 0.1538,0.622877 0.0348,0.10168 0.10926,0.09935 0.0769,0.25953 -0.005,0.02587 -0.025,0.04651 -0.0385,0.06921 -0.14255,0.240549 -0.17787,0.255648 -0.42296,0.380641 -0.3036,0.154834 -0.61235,0.292853 -0.92281,0.432557 -0.668,0.300593 -1.347,0.584276 -1.99943,0.917008 -0.11488,0.05859 -0.22844,0.120099 -0.34605,0.173019 -0.0493,0.0222 -0.10619,0.02619 -0.1538,0.0519 -0.10144,0.05477 0.0554,0.103818 -0.1538,0.103818 -0.14801,0 -0.21653,-0.223084 -0.26916,-0.294138 -0.0459,-0.062 -0.10529,-0.113004 -0.15379,-0.17302 -0.0541,-0.06699 -0.092,-0.147622 -0.15381,-0.207621 -0.18282,-0.177518 -0.3855,-0.333372 -0.57676,-0.501759 -0.10354,-0.09115 -0.20017,-0.19032 -0.30761,-0.276837 -0.13636,-0.109808 -0.28966,-0.197912 -0.42295,-0.311439 -1.20577,-1.027029 -0.10974,-0.230288 -1.23042,-1.003518 z"
       id="path101781" />
    <path
       style="fill:none;fill-opacity:1;stroke:#000000;stroke-width:1;stroke-linecap:round;stroke-linejoin:round;stroke-opacity:1"
       d="m 170.39088,56.353407 c 1.48726,0.05899 2.97325,-0.05191 4.46027,-0.05191"
       id="path101783" />
    <path
       style="fill:#6ae4a3;fill-opacity:1;stroke:#000000;stroke-width:1;stroke-linecap:round;stroke-linejoin:round;stroke-opacity:1"
       d="m 176.02953,32.569095 c -2.15239,0.09504 -4.30655,0.05106 -6.45967,0.08651 -0.30779,0.0051 -0.61526,0.02202 -0.92282,0.0346 -0.36334,0.01486 -0.34606,0.133291 -0.34606,-0.0346 -0.35887,-0.230694 -0.7312,-0.441675 -1.07661,-0.692083 -0.16705,-0.121106 -0.83921,-0.926175 -0.84591,-0.934309 -0.16127,-0.19594 -0.30735,-0.403907 -0.46141,-0.605573 -0.0653,-0.08555 -0.1201,-0.179619 -0.19225,-0.25953 -0.0951,-0.105301 -0.20215,-0.199232 -0.3076,-0.294134 -0.0732,-0.0659 -0.1225,-0.07625 -0.2307,-0.05191 -0.0302,0.0068 -0.0476,0.04201 -0.0769,0.05191 -0.0747,0.0252 -0.15723,0.02335 -0.2307,0.0519 -0.64722,0.251526 -1.24999,0.599838 -1.84562,0.951613 -0.14243,0.08412 -0.28112,0.174428 -0.42296,0.25953 -0.12733,0.07639 -0.26341,0.139 -0.38451,0.224928 -0.47408,0.336408 -0.5211,0.390494 -0.84591,0.709384 -0.26313,0.258339 -0.35709,0.365879 -0.5383,0.692083 -0.0182,0.0327 -0.0724,0.109804 -0.0384,0.155716 0.0572,0.07722 0.51574,0.209803 0.6152,0.259533 0.15784,0.07891 0.30694,0.174222 0.46141,0.25953 0.12751,0.07042 0.25916,0.133414 0.3845,0.207624 0.34423,0.203813 0.41511,0.289549 0.76902,0.51906 0.2918,0.189236 0.58669,0.373798 0.88436,0.553668 0.61071,0.369027 1.24695,0.700915 1.84562,1.090024 0.0499,0.03246 0.14591,0.141977 0.23071,0.103817 0.0271,-0.01219 0.21934,-0.242491 0.2307,-0.259529 0.0439,-0.06587 0.0614,-0.149659 0.11536,-0.207628 0.0227,-0.02442 0.77627,-0.725821 0.9228,-0.847799 0.13724,-0.114244 0.28363,-0.217061 0.42296,-0.328739 0.27083,-0.21708 0.53575,-0.441485 0.80745,-0.657478 0.11287,-0.08973 0.23888,-0.163077 0.34606,-0.25953 0.0733,-0.06598 0.1255,-0.152326 0.19226,-0.224929 0.12191,-0.132576 0.42295,-0.345583 0.42295,-0.570965"
       id="path101757-4" />
    <path
       style="fill:#6ae4a3;fill-opacity:1;stroke:#000000;stroke-width:1;stroke-linecap:round;stroke-linejoin:round;stroke-opacity:1"
       d="m 174.95293,44.351784 c -0.26916,-0.01153 -0.53815,-0.02787 -0.80747,-0.0346 -0.60485,-0.01512 -1.40388,-0.01122 -2.03787,-0.03461 -0.9802,-0.03615 -1.94647,-0.09461 -2.92223,-0.17302 -1.201,-0.0965 0.40472,0.03604 -1.07663,-0.06921 -0.0769,-0.0055 -0.30781,-0.0173 -0.23069,-0.0173 0.20525,0 0.10235,0 0.3076,0 -0.44348,-0.652016 -1.02695,-1.17383 -1.57648,-1.730204 -0.22587,-0.228682 -0.80978,-0.885926 -0.9228,-1.020819 -0.19674,-0.208006 -0.31768,-0.473468 -0.49986,-0.692079 -0.14547,-0.174553 -0.29692,-0.34501 -0.46141,-0.501759 -0.0548,-0.05225 -0.12784,-0.08127 -0.19225,-0.121118 -0.0381,-0.02359 -0.0706,-0.07145 -0.11536,-0.06921 -0.14222,0.0071 -0.72422,0.360025 -0.73055,0.363348 -0.13906,0.073 -0.28702,0.12897 -0.42296,0.207621 -0.58984,0.341244 -1.0994,0.81649 -1.57647,1.297656 -0.24471,0.246816 -0.4986,0.485141 -0.73055,0.743988 -0.0893,0.0997 -0.14693,0.224329 -0.23072,0.328739 -0.0832,0.103647 -0.18247,0.193384 -0.26914,0.294131 -0.0672,0.07815 -0.12552,0.163672 -0.19227,0.242229 -0.12491,0.147011 -0.26099,0.284359 -0.3845,0.432557 -0.0138,0.01654 -0.0224,0.0375 -0.0384,0.0519 -0.023,0.02069 -0.0863,0.02243 -0.0769,0.05191 0.0136,0.04274 0.0772,0.04562 0.11535,0.06921 0.0644,0.03985 0.12677,0.08305 0.19225,0.121112 2.14847,1.24873 -0.32563,-0.219355 1.19197,0.709387 0.16489,0.100913 0.33874,0.187289 0.49986,0.294131 0.32626,0.216357 0.63769,0.454409 0.96126,0.674778 0.18875,0.128545 0.67971,0.429548 0.88436,0.553668 0.15336,0.09301 0.30833,0.183351 0.46141,0.276831 0.0264,0.01612 0.0469,0.05961 0.0769,0.05191 0.16212,-0.04169 0.21652,-0.176261 0.34605,-0.259529 0.21209,-0.136341 0.43965,-0.247317 0.65365,-0.380648 0.1195,-0.07446 0.22572,-0.169126 0.34606,-0.24223 0.13648,-0.0829 0.28462,-0.145166 0.42295,-0.224921 0.27193,-0.156776 0.53432,-0.329825 0.80747,-0.484459 0.11323,-0.0641 0.56973,-0.266983 0.6921,-0.363347 0.26793,-0.210985 0.46097,-0.528463 0.76902,-0.67478 1.1599,-0.550933 0.3837,0.2777 0.69211,-0.06921"
       id="path101761-3" />
    <path
       style="fill:none;fill-opacity:1;stroke:#000000;stroke-width:1;stroke-linecap:round;stroke-linejoin:round;stroke-opacity:1"
       d="m 160.45709,33.053553 c -0.42296,0 -0.84592,0 -1.26887,0 -0.11535,0 -0.23097,-0.0078 -0.34606,0 -0.93574,0.0638 -0.68872,0.05942 -1.38421,0.155716 -0.86846,0.120242 -1.71993,0.264879 -2.53773,0.588272 -0.85239,0.337069 -0.5801,0.200851 -1.11507,0.501759 -0.10254,0.05767 -0.21315,0.102891 -0.30761,0.17302 -0.16307,0.121074 -0.31437,0.257834 -0.46141,0.397945 -0.0714,0.06804 -0.14161,0.140289 -0.19225,0.224929 -0.0407,0.068 -0.0467,0.151654 -0.0769,0.224928 -0.25304,0.614867 -0.43513,0.902519 -0.57677,1.539879 -0.10206,0.459286 -0.0769,0.935351 -0.0769,1.401466 0,0.213393 -0.0131,0.42719 0,0.640178 0.004,0.07025 0.032,0.137537 0.0384,0.207621 0.006,0.06891 -0.0129,0.139641 0,0.207628 0.0211,0.110737 0.11977,0.444742 0.19226,0.588269 0.0334,0.06622 0.0829,0.123603 0.11535,0.19032 0.22068,0.131705 0.10727,0.377755 0.19225,0.553668 0.0375,0.07755 0.10344,0.13775 0.15381,0.207621 0.50946,0.706846 0.0931,0.203099 0.5383,0.640178 0.62254,0.611203 -0.47836,-0.380391 0.61521,0.570968 0.13088,0.113859 0.19128,0.186699 0.34606,0.27683 0.15011,0.08742 0.3092,0.158518 0.46141,0.242229 0.25796,0.141875 0.50719,0.296616 0.769,0.43255 0.3096,0.160749 -0.018,-0.03062 0.38451,0.138419 0.71218,0.356076 0.0393,0.04435 0.57675,0.242229 0.066,0.02428 0.12408,0.06947 0.19225,0.08651 0.16405,0.04101 0.33372,0.05503 0.49986,0.08651 0.16443,0.03115 0.33346,0.08428 0.49986,0.10381 0.38567,0.04527 0.76913,0.0665 1.15351,0.121118 0.38462,0.05465 0.76701,0.150182 1.15352,0.190321 0.11488,0.01193 0.23084,0.0093 0.34605,0.0173 0.47616,0.03296 0.20111,-0.0044 0.46141,0.0346 0.0325,0.0049 0.25432,0.03961 0.26915,0.03461 0.0219,-0.0074 0,-0.04614 0,-0.06921"
       id="path101765-1" />
    <path
       style="fill:none;fill-opacity:1;stroke:#000000;stroke-width:1;stroke-linecap:round;stroke-linejoin:round;stroke-opacity:1"
       d="m 151.92108,37.7251 c 1.14888,0 1.06755,-0.124449 2.19167,1.591794 0.10577,0.161477 -0.38678,0.0861 -0.57676,0.0519 -0.36824,-0.06628 -0.7327,-0.634534 -0.88436,-0.847799 -0.002,-0.0026 -0.15277,-0.244102 -0.11535,-0.311439 0.0565,-0.101647 0.21919,-0.108232 0.3076,-0.10381 0.15532,0.0078 0.2817,0.202045 0.34606,0.311438 0.27542,0.468201 0.54841,0.753583 -0.11535,1.020819 -0.1208,0.04864 -0.25572,0.04989 -0.38451,0.06921 -0.44631,0.06694 -0.84388,0.05328 -1.23041,-0.207628 -0.0797,-0.05378 -0.16738,-0.100696 -0.2307,-0.17302 -0.10549,-0.12049 -0.18428,-0.262144 -0.26916,-0.397941 -0.0386,-0.06179 -0.14046,-0.242922 -0.0769,-0.328739 0.24324,-0.328384 0.2889,-0.17562 0.57675,-0.346047 0.1625,-0.09621 0.27442,-0.355184 0.46141,-0.328739 0.0262,0.0037 0.91159,0.505278 1.15351,0.709387 0.2125,0.179282 0.57817,0.465879 0.42295,0.605569 -0.20141,0.181263 -0.32249,0.170136 -0.57675,0.190328 -0.11513,0.0091 -0.23083,0.02528 -0.34605,0.0173 -0.26544,-0.01837 -0.80535,-0.04531 -1.03818,-0.294138 -0.3928,-0.419811 0.0551,-0.57487 0.46141,-0.640171 0.22807,-0.03665 0.46131,-0.02517 0.69211,-0.03461 -0.64084,0.02884 -1.28141,0.06432 -1.92251,0.08651 -0.19214,0.0067 -0.38453,-0.0028 -0.57677,0 -0.80754,0.01172 -1.6151,0.04499 -2.42237,0.06921 -0.64236,0.01927 -1.28049,-0.0021 -1.92252,-0.0173 -0.25807,-0.0061 -0.51258,0.0039 -0.76902,-0.03461"
       id="path101767-4" />
    <path
       style="fill:none;fill-opacity:1;stroke:#000000;stroke-width:1;stroke-linecap:round;stroke-linejoin:round;stroke-opacity:1"
       d="m 139.80917,37.759708 c -3.60152,-0.07046 -2.35807,-0.06921 -3.72971,-0.06921"
       id="path101769-9" />
    <path
       style="fill:none;fill-opacity:1;stroke:#000000;stroke-width:1;stroke-linecap:round;stroke-linejoin:round;stroke-opacity:1"
       d="m 140.19367,40.251202 c -1.20507,0.189115 -2.35133,0.190321 -3.53744,0.190321"
       id="path101771-2" />
    <path
       style="fill:none;fill-opacity:1;stroke:#000000;stroke-width:1;stroke-linecap:round;stroke-linejoin:round;stroke-opacity:1"
       d="m 131.31161,32.672905 c -1.64056,-0.201856 -3.26997,-0.541734 -4.92166,-0.605569 -0.46431,-0.01794 -0.91376,0.192274 -1.34577,0.363344 -0.58949,0.233427 -1.73207,0.713557 -2.15323,1.384162 -0.34323,0.546516 -0.41169,0.812249 -0.3845,1.332253 0.0619,1.183897 0.008,0.900924 0.26914,1.885925 0.0354,0.133491 0.0646,0.2695 0.11536,0.397949 0.0522,0.132204 0.1285,0.253599 0.19225,0.380648 0.11568,0.230528 0.22248,0.465684 0.34605,0.692079 0.0561,0.102811 0.13398,0.192526 0.19225,0.294131 0.24994,0.435802 -0.0488,0.08986 0.3845,0.674786 0.28102,0.379353 1.05549,0.769491 1.42268,0.96891 0.7583,0.411826 1.58695,0.635573 2.42237,0.830498 0.67483,0.157453 1.35126,0.316377 2.03788,0.415249 0.48463,0.06978 0.97531,0.10107 1.46112,0.155719 0.0647,0.0073 0.12762,0.02667 0.19225,0.0346 0.25065,0.03076 0.19545,0.0808 0.26916,-0.0519"
       id="path101773-0" />
    <path
       style="fill:none;fill-opacity:1;stroke:#000000;stroke-width:1;stroke-linecap:round;stroke-linejoin:round;stroke-opacity:1"
       d="m 121.89123,35.804574 c 0.64085,0.472922 1.37424,0.841085 1.92252,1.418767 0.0969,0.102127 -0.20578,0.230012 -0.34605,0.242229 -0.65417,0.05698 -1.06419,-0.194913 -1.49957,-0.640171 -0.0958,-0.09797 -0.13383,-0.239403 -0.19225,-0.363347 -0.0651,-0.13809 -0.25712,-0.63129 0.11535,-0.657478 0.36574,-0.02571 0.68983,0.248964 1.03816,0.363347 0.12613,0.04142 0.26415,0.04779 0.38451,0.103811 0.65458,0.304708 1.03214,0.550939 1.34576,1.193838 0.0309,0.06326 0.0537,0.138917 0.0385,0.207628 -0.0496,0.22343 -0.53392,0.249371 -0.73056,0.276831 -0.60329,0.08425 -1.28705,-0.05152 -1.84563,-0.25953 -0.30903,-0.115086 -0.49013,-0.471979 -0.6152,-0.743988 -0.0334,-0.07262 -0.0692,-0.204206 0,-0.276831 0.0774,-0.08125 0.35052,-0.275253 0.49986,-0.311438 0.12813,-0.03104 0.82878,-0.06921 0.84591,-0.06921 0.4161,0 0.70866,0.166678 1.07661,0.34604"
       id="path101775-6" />
    <path
       style="fill:none;fill-opacity:1;stroke:#000000;stroke-width:1;stroke-linecap:round;stroke-linejoin:round;stroke-opacity:1"
       d="m 122.89095,36.894609 c -1.5285,-0.06796 -3.05068,-0.08035 -4.57561,-0.03461 -0.0769,0.0023 -0.15387,-0.0031 -0.23071,0 -0.16617,0.0068 -0.24725,0.04074 -0.3845,-0.05191"
       id="path101777-8" />
    <path
       style="fill:#6ae4a3;fill-opacity:1;stroke:#000000;stroke-width:1;stroke-linecap:round;stroke-linejoin:round;stroke-opacity:1"
       d="m 117.46943,37.050321 c -0.23071,-0.282599 -0.4426,-0.581661 -0.69212,-0.847799 -0.0986,-0.105187 -0.23302,-0.170011 -0.34605,-0.259529 -0.20745,-0.164293 -0.4073,-0.338043 -0.6152,-0.501759 -0.0998,-0.07859 -0.20745,-0.146808 -0.30761,-0.224929 -0.263,-0.205127 -0.51488,-0.424165 -0.76902,-0.640174 -0.11824,-0.100505 -0.22413,-0.215426 -0.34605,-0.311435 -0.10035,-0.07903 -0.32755,-0.24269 -0.46141,-0.328739 -0.0377,-0.02425 -0.082,-0.03921 -0.11534,-0.06921 -0.0731,-0.06581 0.01,-0.120179 -0.1538,-0.10381 -0.20332,0.02033 -0.2482,0.09437 -0.42296,0.17302 -0.0749,0.0337 -0.15951,0.04557 -0.2307,0.08651 -0.16087,0.09249 -0.30846,0.206381 -0.46141,0.311435 -0.3906,0.268269 -0.16251,0.09699 -0.49986,0.432553 -0.16451,0.163635 -0.33983,0.316436 -0.49986,0.484458 -0.0711,0.07464 -0.12445,0.164576 -0.19225,0.242229 -0.0733,0.084 -0.1716,0.147676 -0.23069,0.242229 -0.17322,0.277139 -0.30665,0.57725 -0.46141,0.8651 -0.0375,0.06973 -0.0845,0.134712 -0.11536,0.207621 -0.0792,0.187123 -0.0876,0.429227 -0.1538,0.622877 -0.0348,0.10168 -0.10926,0.09935 -0.0769,0.25953 0.005,0.02587 0.025,0.04651 0.0385,0.06921 0.14255,0.240549 0.17787,0.255648 0.42296,0.380641 0.3036,0.154834 0.61235,0.292853 0.92281,0.432557 0.668,0.300593 1.347,0.584276 1.99943,0.917008 0.11488,0.05859 0.22844,0.120099 0.34605,0.173019 0.0493,0.0222 0.10619,0.02619 0.1538,0.0519 0.10144,0.05477 -0.0554,0.103818 0.1538,0.103818 0.14801,0 0.21653,-0.223084 0.26916,-0.294138 0.0459,-0.062 0.10529,-0.113004 0.15379,-0.17302 0.0541,-0.06699 0.092,-0.147622 0.15381,-0.207621 0.18282,-0.177518 0.3855,-0.333372 0.57676,-0.501759 0.10354,-0.09115 0.20017,-0.19032 0.30761,-0.276837 0.13636,-0.109808 0.28966,-0.197912 0.42295,-0.311439 1.20577,-1.027029 0.10974,-0.230288 1.23042,-1.003518 z"
       id="path101781-9" />
    <path
       style="fill:none;fill-opacity:1;stroke:#000000;stroke-width:1;stroke-linecap:round;stroke-linejoin:round;stroke-opacity:1"
       d="m 110.27919,37.517479 c -1.48726,0.05899 -2.97325,-0.05191 -4.46027,-0.05191"
       id="path101783-2" />
  </g>
</svg>
