<?xml version="1.0" encoding="UTF-8" standalone="no"?>
<!-- Created with Inkscape (http://www.inkscape.org/) -->

<svg
   width="26.618483mm"
   height="12.057225mm"
   viewBox="0 0 26.618483 12.057226"
   version="1.1"
   id="svg5"
   sodipodi:docname="delay.svg"
   inkscape:version="1.2.2 (b0a8486541, 2022-12-01)"
   xmlns:inkscape="http://www.inkscape.org/namespaces/inkscape"
   xmlns:sodipodi="http://sodipodi.sourceforge.net/DTD/sodipodi-0.dtd"
   xmlns="http://www.w3.org/2000/svg"
   xmlns:svg="http://www.w3.org/2000/svg">
  <sodipodi:namedview
     id="namedview7"
     pagecolor="#ffffff"
     bordercolor="#666666"
     borderopacity="1.0"
     inkscape:showpageshadow="2"
     inkscape:pageopacity="0.0"
     inkscape:pagecheckerboard="0"
     inkscape:deskcolor="#d1d1d1"
     inkscape:document-units="mm"
     showgrid="false"
     inkscape:zoom="9.2708228"
     inkscape:cx="63.101195"
     inkscape:cy="13.483161"
     inkscape:window-width="2560"
     inkscape:window-height="1372"
     inkscape:window-x="0"
     inkscape:window-y="32"
     inkscape:window-maximized="1"
     inkscape:current-layer="layer1"
     showguides="true" />
  <defs
     id="defs2" />
  <g
     inkscape:label="Layer 1"
     inkscape:groupmode="layer"
     id="layer1"
     transform="translate(-94.503388,-62.580604)">
    <path
       style="fill:none;fill-opacity:1;stroke:#000000;stroke-width:1;stroke-linecap:round;stroke-linejoin:round"
       d="m 95.273292,67.895546 c -0.09159,-0.01743 -0.164847,0.05012 -0.249929,0.06056 -0.0077,9.53e-4 -0.02696,-0.01298 -0.01923,-0.01298 0.02284,0 0.0449,0.0084 0.06729,0.01298 0.07695,0.01564 0.153625,0.0326 0.230703,0.04758 0.08671,0.01685 0.386458,0.06874 0.451794,0.07786 0.534222,0.07452 0.663483,0.09456 1.143902,0.12544 0.554118,0.03562 1.039679,0.04284 1.614921,0.05623 0.682157,0.01588 1.365258,0.01514 2.047497,0.0173 0.36847,0.0012 0.73697,0 1.10545,0 0.0256,0 0.0513,-0.0011 0.0769,0 0.01,3.97e-4 0.0288,-0.0054 0.0288,0.0043 0,0.03452 -0.0737,0.0415 -0.11536,0.0519"
       id="path68727" />
    <path
       style="fill:#6ae4a3;fill-opacity:1;stroke:#000000;stroke-width:1;stroke-linecap:round;stroke-linejoin:round"
       d="m 101.80026,68.371353 c 0.0234,0.161542 -0.11972,-0.04266 -0.1538,-0.0043 -0.005,0.0059 0.002,0.02141 0.01,0.02163 0.0484,0.0013 0.10433,-0.04477 0.14419,-0.0173 0.0773,0.05325 0.10226,0.158075 0.16342,0.229252 0.0325,0.0378 0.0779,0.0623 0.11535,0.09516 0.0875,0.07674 0.17494,0.153638 0.25954,0.233578 0.0436,0.04124 0.0833,0.08651 0.12496,0.129764 0.0417,0.04326 0.0841,0.08575 0.12497,0.129765 0.0809,0.0872 0.15827,0.177712 0.24031,0.263857 0.043,0.04512 0.0905,0.0857 0.13458,0.129765 0.0425,0.04246 0.0824,0.08738 0.12496,0.129767 0.0921,0.09172 0.18805,0.179471 0.27877,0.272507 0.0471,0.04834 0.089,0.101557 0.13458,0.151392 0.14029,0.15347 0.28082,0.306738 0.42295,0.458504 0.2054,0.21931 0.0836,0.07242 0.27877,0.294135 0.17009,0.193254 0.23007,0.259638 0.36528,0.436876 0.16534,0.216725 0.31462,0.4443 0.49024,0.653153 0.0389,0.0463 0.19116,0.228816 0.25954,0.29846 0.0309,0.03146 0.0661,0.05858 0.0961,0.09083 0.0534,0.05724 0.10403,0.116969 0.1538,0.177347 0.0506,0.06141 0.0943,0.128328 0.14419,0.190322 0.20671,0.256726 0.10543,0.116345 0.2307,0.294134 0.0696,0.09874 0.12978,0.202699 0.18264,0.311437 0.0104,0.02129 0.0175,0.04409 0.0288,0.06488 0.0272,0.04996 0.0585,0.09758 0.0865,0.147068 0.0136,0.02407 0.0236,0.05018 0.0385,0.07353 0.0173,0.02727 0.0408,0.05034 0.0577,0.07786 0.005,0.0082 0.0777,0.143492 0.0961,0.18167 0.007,0.01421 0.0106,0.03002 0.0192,0.04326 0.014,0.02163 0.0333,0.03946 0.0481,0.06056 0.005,0.0065 0.006,0.01484 0.01,0.02163 0.009,0.01491 0.02,0.02835 0.0288,0.04326 0.004,0.0068 0.005,0.01557 0.01,0.02163 0.005,0.0059 0.0144,0.007 0.0192,0.01298 0.008,0.01026 0.0109,0.02434 0.0192,0.0346 0.005,0.006 0.0122,0.01615 0.0192,0.01298 0.006,-0.0027 -0.012,-0.01117 -0.01,-0.0173 0.0146,-0.0368 0.0352,-0.07125 0.0577,-0.103814 0.0226,-0.03263 0.0497,-0.06193 0.0769,-0.09083 0.0786,-0.08361 0.15731,-0.167299 0.24031,-0.246555 0.0485,-0.04632 0.10168,-0.08755 0.15381,-0.129765 0.29094,-0.235655 0.6137,-0.422825 0.93242,-0.618549 0.48843,-0.299939 0.98676,-0.583834 1.47073,-0.891055 0.46597,-0.295796 0.90811,-0.62462 1.35538,-0.947286 0.39088,-0.281979 -0.003,0.005 0.3749,-0.276832 0.0605,-0.04516 0.12458,-0.08579 0.18263,-0.134092 0.18854,-0.156873 0.31798,-0.276926 0.48064,-0.441202 0.0936,-0.09451 0.18337,-0.192802 0.27876,-0.285484 0.0457,-0.04439 0.0961,-0.08365 0.14419,-0.12544 0.19983,-0.173634 0.41152,-0.332187 0.62482,-0.488781 0.0678,-0.04978 0.15144,-0.104179 0.22109,-0.147068 0.0481,-0.02959 0.0972,-0.05482 0.14419,-0.08651 0.006,-0.0043 0.0146,-0.0068 0.0192,-0.01297 0.006,-0.0078 -0.009,-0.03291 -0.01,-0.0346 -0.0323,-0.06299 -0.0426,-0.06681 -0.11535,-0.13409 -0.0239,-0.02216 -0.052,-0.03952 -0.0769,-0.06056 -0.18822,-0.158805 0.0597,0.01839 -0.31722,-0.242229 -0.22075,-0.152641 -0.46993,-0.2892 -0.70171,-0.419574 -0.13612,-0.07657 -0.27943,-0.140252 -0.41335,-0.220602 -0.13354,-0.08012 -0.26393,-0.16541 -0.39412,-0.250879 -0.0574,-0.03769 -0.32308,-0.223877 -0.37489,-0.272507 -0.169,-0.158616 -0.3369,-0.319301 -0.49024,-0.493109 -0.10048,-0.113897 -0.17687,-0.247036 -0.26916,-0.367667 -0.0423,-0.05536 -0.0891,-0.10726 -0.13457,-0.160044 -0.16538,-0.191765 -0.34448,-0.371456 -0.5287,-0.545014 -0.0697,-0.0657 -0.1417,-0.128998 -0.21148,-0.194649 -0.036,-0.03385 -0.069,-0.07077 -0.10573,-0.103813 -0.0435,-0.03911 -0.0898,-0.0749 -0.13458,-0.112462 -0.0962,-0.08067 -0.19267,-0.16099 -0.28838,-0.242229 -0.35317,-0.299785 0.0893,0.06654 -0.27876,-0.229253 -0.0422,-0.03392 -0.0816,-0.07142 -0.12497,-0.103812 -0.0881,-0.06572 -0.17998,-0.12612 -0.26915,-0.190322 -0.039,-0.02808 -0.076,-0.0589 -0.11535,-0.08651 -0.0408,-0.02864 -0.0848,-0.05259 -0.12497,-0.08218 -0.0753,-0.05554 -0.14667,-0.116279 -0.22109,-0.17302 -0.0409,-0.03122 -0.0842,-0.05932 -0.12496,-0.09084 -0.0394,-0.03051 -0.0759,-0.06467 -0.11535,-0.09516 -0.1263,-0.09763 -0.25827,-0.187779 -0.38451,-0.285484 -0.22982,-0.177875 -0.44649,-0.375915 -0.65366,-0.579619 -0.0597,-0.05873 -0.10681,-0.129526 -0.17302,-0.181671 -0.009,-0.0072 -0.0753,-0.06251 -0.10574,-0.06056 -0.0112,7.2e-4 -0.0243,0.0071 -0.0288,0.0173 -7e-5,1.54e-4 8e-5,0.102749 0,0.103812 -0.004,0.0525 -0.0381,0.262259 -0.0384,0.263857 -0.008,0.03595 -0.0245,0.06965 -0.0384,0.103812 -0.0673,0.164844 -0.0682,0.14196 -0.21148,0.333064 -0.0417,0.0556 -0.16004,0.199397 -0.20186,0.25088 -0.0738,0.09078 -0.14621,0.182648 -0.2211,0.272507 -0.36364,0.436349 0.1026,-0.137583 -0.24031,0.276833 -0.0638,0.07709 -0.23199,0.284629 -0.31722,0.39362 -0.0892,0.114015 -0.1435,0.186834 -0.2307,0.315764 -0.0208,0.03072 -0.0363,0.06484 -0.0577,0.09516 -0.0204,0.02894 -0.0448,0.05485 -0.0673,0.08218 -0.0416,0.05052 -0.0832,0.10099 -0.12497,0.151392 -0.0356,0.04298 -0.0677,0.08891 -0.10574,0.129767 -0.0793,0.08522 -0.16862,0.172404 -0.25954,0.246554 -0.0279,0.02278 -0.0585,0.04225 -0.0865,0.06488 -0.0649,0.05236 -0.12764,0.107341 -0.19225,0.160043 -0.0379,0.03093 -0.0776,0.05969 -0.11536,0.09084 -0.11677,0.09634 -0.22819,0.199116 -0.34605,0.294135 -0.0374,0.03017 -0.0776,0.05678 -0.11535,0.08651 -0.0648,0.05102 -0.12759,0.104543 -0.19226,0.155719 -0.15645,0.12381 -0.34454,0.227103 -0.4614,0.393622 -0.0106,0.01518 -0.018,0.03251 -0.0288,0.04758 -0.0213,0.02969 -0.046,0.05682 -0.0673,0.08651 -10e-6,2.2e-5 -0.0577,0.09514 -0.0577,0.09516 -0.0294,0.05301 -0.0588,0.106082 -0.0865,0.160043 -0.0401,0.07824 -0.0727,0.161075 -0.11535,0.237904 -0.0116,0.0209 -0.0264,0.03992 -0.0384,0.06056 -0.02,0.03417 -0.038,0.06944 -0.0577,0.103812 -0.0209,0.03656 -0.0375,0.06445 -0.0673,0.09516 -0.0404,0.04167 -0.0985,0.0695 -0.12497,0.121115 -0.0245,0.04781 -0.008,0.107592 -0.0192,0.160044 -0.0123,0.05514 -0.0216,0.04573 -0.0481,0.07353 -0.004,0.0039 -0.004,0.01298 -0.01,0.01298 -0.004,0 -0.003,-0.0097 0,-0.01298 0.014,-0.01639 0.032,-0.02884 0.0481,-0.04326"
       id="path68731" />
    <path
       style="fill:none;fill-opacity:1;stroke:#000000;stroke-width:1;stroke-linecap:round;stroke-linejoin:round"
       d="m 113.5565,68.799579 c -0.0917,0.01059 -0.1881,0.0099 -0.27876,0.03028 -0.0125,0.0028 0.0256,0 0.0385,0 0.0192,0 0.0386,0.0024 0.0577,0 0.0612,-0.0077 0.12093,-0.02977 0.18264,-0.03028 0.11568,-9.53e-4 0.23073,0.01697 0.34606,0.02595 0.0513,0.004 0.10265,0.0075 0.1538,0.01298 0.17003,0.01836 0.33917,0.04484 0.50947,0.06056 0.21744,0.02007 0.4356,0.03164 0.65366,0.04326 0.0337,0.0018 0.53465,0.01662 0.55753,0.0173 0.39402,0.01182 0.78818,0.01777 1.18235,0.02163 0.18236,0.0018 0.60808,0.0025 0.84592,0.0087 0.37167,0.0096 0.74519,0.02462 1.11506,0.06488 0.13155,0.01432 0.26262,0.03279 0.39412,0.04758 0.0608,0.0068 0.12191,0.01011 0.18264,0.0173 0.16704,0.01978 0.33293,0.04843 0.49985,0.06921 0.0831,0.01035 0.16665,0.01708 0.24993,0.02596 0.0833,0.0089 0.16663,0.01721 0.24993,0.02595 0.0139,0.0015 0.12497,0.007 0.12497,0.0086 0,0.01353 -0.0252,0.01027 -0.0385,0.01298 -0.0221,0.0045 -0.0449,0.0058 -0.0673,0.0086"
       id="path68735" />
  </g>
</svg>
