<?xml version="1.0" encoding="UTF-8" standalone="no"?>
<!-- Created with Inkscape (http://www.inkscape.org/) -->

<svg
   width="53.384094mm"
   height="16.633875mm"
   viewBox="0 0 53.384096 16.633876"
   version="1.1"
   id="svg5"
   sodipodi:docname="discard.svg"
   inkscape:version="1.2.2 (b0a8486541, 2022-12-01)"
   xmlns:inkscape="http://www.inkscape.org/namespaces/inkscape"
   xmlns:sodipodi="http://sodipodi.sourceforge.net/DTD/sodipodi-0.dtd"
   xmlns="http://www.w3.org/2000/svg"
   xmlns:svg="http://www.w3.org/2000/svg">
  <sodipodi:namedview
     id="namedview7"
     pagecolor="#ffffff"
     bordercolor="#666666"
     borderopacity="1.0"
     inkscape:showpageshadow="2"
     inkscape:pageopacity="0.0"
     inkscape:pagecheckerboard="0"
     inkscape:deskcolor="#d1d1d1"
     inkscape:document-units="mm"
     showgrid="false"
     inkscape:zoom="2.3177057"
     inkscape:cx="342.14871"
     inkscape:cy="132.89004"
     inkscape:window-width="2560"
     inkscape:window-height="1372"
     inkscape:window-x="0"
     inkscape:window-y="32"
     inkscape:window-maximized="1"
     inkscape:current-layer="layer1"
     showguides="true" />
  <defs
     id="defs2" />
  <g
     inkscape:label="Layer 1"
     inkscape:groupmode="layer"
     id="layer1"
     transform="translate(-90.517036,-34.662344)">
    <path
       style="fill:#6ae4a3;fill-opacity:1;stroke:#000000;stroke-width:1;stroke-linecap:round;stroke-linejoin:round;stroke-opacity:1"
       d="m 97.174038,36.433039 c -0.02719,0.118266 -0.09484,0.234174 -0.08157,0.354798 0.03307,0.30063 0.160126,0.583925 0.21751,0.880876 0.0124,0.06419 0.107453,1.083653 0.108755,1.11333 0.0349,0.795638 0.05797,1.723869 0,2.532521 -0.03044,0.424581 -0.07318,0.848192 -0.108755,1.272373 -0.0181,0.21586 -0.1884,2.318702 -0.21751,2.569224 -0.02437,0.209709 -0.0725,0.415967 -0.108756,0.623951 -0.28942,1.660471 0.145638,-0.789967 -0.353452,1.773991 -0.03391,0.174186 -0.0524,0.351039 -0.08157,0.526079 -0.04819,0.289113 -0.183067,0.981994 -0.21751,1.198968 -0.01478,0.09307 -0.01727,0.187682 -0.02719,0.281392 -0.02427,0.229378 -0.03643,0.271577 -0.05437,0.513846 -0.0021,0.02847 0,0.05709 0,0.08564 0,0.01631 -0.009,0.03536 0,0.04894 0.09588,0.143819 0.378238,0.145709 0.516581,0.159049 0.289697,0.02793 0.579523,0.05581 0.870032,0.07341 0.304683,0.01845 0.844614,0.01032 1.141925,0.01223 0.435028,0.0028 0.870024,0.0097 1.305052,0.01223 0.10945,6.35e-4 1.62824,-7.67e-4 1.65851,0 0.67089,0.01693 1.34164,0.04109 2.01196,0.07341 0.66234,0.03193 1.32252,0.100846 1.98477,0.134581 0.64326,0.03277 1.28666,0.06378 1.93039,0.08564 0.31704,0.01077 0.6344,0.0082 0.9516,0.01223 0.81054,0.01042 1.77343,0.02447 2.55572,0.02447 0.20849,0 0.41687,-0.0099 0.62535,-0.01223 0.16312,-0.0018 0.32635,0.0055 0.48939,0 0.0927,-0.0031 0.70321,0.01996 0.87003,-0.159049 0.12096,-0.129793 0.27249,-0.369046 0.32627,-0.550545 0.0294,-0.09929 0.0441,-0.202824 0.0544,-0.305864 0.0654,-0.654813 0.0544,-0.695751 0.0544,-1.26014 0,-0.579096 0,-1.158191 0,-1.737286 0,-0.420047 0.006,-0.840135 0,-1.26014 -0.006,-0.432334 -0.0213,-0.864509 -0.0272,-1.296845 -0.003,-0.232433 0.005,-0.464952 0,-0.697361 -0.0134,-0.689895 -0.069,-1.349971 -0.13595,-2.043145 -0.0202,-0.208782 -0.0586,-0.415458 -0.0816,-0.623954 -0.0224,-0.203483 -0.0391,-0.407583 -0.0544,-0.61172 -0.0564,-0.751828 -0.12919,-1.509271 -0.0544,-2.263362 0.0284,-0.286356 0.0636,-0.572203 0.10876,-0.856407 0.0184,-0.115928 0.0566,-0.227873 0.0816,-0.342561 0.0203,-0.09334 0.0358,-0.187687 0.0544,-0.281393 0.0707,-0.356166 0.14359,-0.544302 0.0816,-0.893109 -0.002,-0.0092 -0.0405,-0.153804 -0.0544,-0.171282 -0.20044,-0.252541 -0.74231,-0.232417 -1.03317,-0.244687 -0.91744,-0.0387 -1.8278,-0.0237 -2.74605,0.01223 -0.45346,0.01774 -0.90654,0.04467 -1.35943,0.07341 -0.48047,0.03049 -0.96065,0.06545 -1.44099,0.09788 -0.50626,0.03417 -1.04332,0.07439 -1.54975,0.08564 -0.46211,0.01027 -0.92444,0.0064 -1.38663,0.01224 -0.89722,0.01137 -1.79476,0.03844 -2.69167,0 -0.3174,-0.0136 -0.63388,-0.05224 -0.9516,-0.06117 -0.661301,-0.0186 -1.322963,-0.0367 -1.984767,-0.0367 -0.03625,0 -0.0725,0 -0.108755,0 -0.02719,-0.0041 -0.0541,-0.011 -0.08157,-0.01224 -0.198219,-0.0089 -0.399592,0 -0.598149,0 -0.05438,0 -0.108904,0.0041 -0.163128,0 -0.02742,-0.0021 -0.05503,-0.0194 -0.08157,-0.01223 -0.06595,0.0178 -0.06674,0.100117 -0.08157,0.146813 -4e-6,1.4e-5 -0.05437,0.146799 -0.05437,0.146812 -0.07487,0.336928 -0.05278,0.415336 -0.02719,0.795236 z"
       id="path95902" />
    <path
       style="fill:#6ae4a3;fill-opacity:1;stroke:#000000;stroke-width:1;stroke-linecap:round;stroke-linejoin:round;stroke-opacity:1"
       d="m 102.85645,47.297178 c -0.0564,0.0039 -0.36773,0.02302 -0.48939,0.0367 -0.0273,0.0031 -0.0547,0.01827 -0.0816,0.01223 -0.0149,-0.0033 -0.0236,-0.02192 -0.0272,-0.0367 -0.043,-0.174004 0.11876,-0.393391 0.19032,-0.538312 0.31765,-0.643198 -0.22451,0.379621 0.40783,-0.758533 0.0561,-0.101007 0.11869,-0.199199 0.16314,-0.305859 0.17846,-0.428283 0.31992,-0.872472 0.43501,-1.321312 0.0272,-0.106033 0.0636,-0.210124 0.0816,-0.318097 0.009,-0.05362 0.10875,-0.81152 0.10875,-1.00322 0,-0.415219 -0.0314,-0.978464 -0.0816,-1.406955 -0.0482,-0.412531 -0.13336,-0.820371 -0.16312,-1.235671 -0.0285,-0.397295 -0.0272,-0.789123 -0.0272,-1.186738 0,-0.07133 -0.0144,-0.271666 0.0544,-0.318094 0.0517,-0.03488 0.1357,-0.02447 0.19033,-0.02447 0.26282,0 0.52564,0 0.78846,0 0.58001,0 1.16054,-0.013 1.74007,-0.03671 0.37284,-0.01525 0.74593,-0.06924 1.11473,-0.122344 0.26883,-0.03871 0.17297,-0.02435 0.43502,-0.11011 0.027,-0.0088 0.0605,-0.04346 0.0816,-0.02447 0.0194,0.01746 -0.0181,0.04894 -0.0272,0.07341"
       id="path96884" />
    <path
       style="fill:#6ae4a3;fill-opacity:1;stroke:#000000;stroke-width:1;stroke-linecap:round;stroke-linejoin:round;stroke-opacity:1"
       d="m 103.26428,42.953968 c 1.43204,-3.17e-4 2.86385,0.0275 4.2958,0.0367 0.19938,0.0013 0.39877,0 0.59815,0 0.33079,0 0.38457,-0.05129 0.21751,0.04894"
       id="path96886" />
    <path
       style="fill:#6ae4a3;fill-opacity:1;stroke:#000000;stroke-width:1;stroke-linecap:round;stroke-linejoin:round;stroke-opacity:1"
       d="m 96.739017,42.476827 c -0.591843,0.03558 -1.177392,-0.06076 -1.76726,-0.08564 -0.376832,-0.0159 -0.985846,-0.02121 -1.305054,-0.01223 -0.145464,0.0041 -0.28988,0.02616 -0.435021,0.0367 -0.95252,0.06913 0.263771,-0.04497 -1.114729,0.11011 -0.296741,0.03338 -0.599666,0.0645 -0.897223,0.08564 -0.02263,0.0016 -0.326266,0.01096 -0.326266,0.01223 0,0.03399 0.05438,0.04078 0.08157,0.06117"
       id="path96888" />
    <path
       style="fill:#6ae4a3;fill-opacity:1;stroke:#000000;stroke-width:1;stroke-linecap:round;stroke-linejoin:round;stroke-opacity:1"
       d="m 114.03097,43.541219 c -0.10876,0.02039 -0.34665,-0.04758 -0.32626,0.06117 0.0204,0.108752 0.21573,-0.05607 0.32626,-0.06117 0.24447,-0.01128 0.48936,0.01224 0.7341,0.01224 0.34334,0 1.18601,-0.05114 1.38661,-0.06117 0.78851,-0.03942 1.5776,-0.06983 2.36541,-0.122348 0.31726,-0.02115 0.63334,-0.04893 0.9516,-0.04893 0.12688,0 0.25377,0 0.38065,0 0.0272,0 0.10177,0.01819 0.0816,0 -0.0665,-0.0598 -0.40287,0.0079 -0.43501,0.01223 -0.25316,0.03417 -0.49533,0.119545 -0.70691,0.269154 -0.12399,0.08768 -0.14286,0.333145 -0.0816,0.452674 0.0326,0.06346 0.24516,0.125844 0.29907,0.134577 0.27938,0.04526 0.7909,0.10123 1.08756,0.01224 0.17779,-0.05334 0.34945,-0.12721 0.51658,-0.207986 0.14682,-0.07096 0.27237,-0.175478 0.35345,-0.318092 0.0763,-0.134224 0.20751,-0.334087 0.16313,-0.513846 -0.0152,-0.06139 -0.0468,-0.118467 -0.0816,-0.171282 -0.17106,-0.259776 -0.29395,-0.237953 -0.65253,-0.354797 -0.28272,-0.09212 -0.53723,-0.08335 -0.84285,-0.06117 -0.11664,0.0085 -0.36195,0.07119 -0.46221,0.159049 -0.12084,0.105888 -0.23331,0.223743 -0.32626,0.354797 -0.0246,0.03474 -0.14314,0.391865 -0.13595,0.440435 0.0457,0.308494 0.22576,0.462838 0.5166,0.501613 0.70034,0.09337 1.17961,-3.71e-4 1.6585,-0.575018 0.13493,-0.161904 0.14955,-0.363904 0.0816,-0.562784 -0.0332,-0.09697 -0.28366,-0.226568 -0.35345,-0.244687 -0.15967,-0.04145 -0.32444,-0.07341 -0.4894,-0.07341 -0.34202,0 -0.66532,0.413338 -0.81566,0.636189 -0.0481,0.07127 -0.0544,0.163125 -0.0816,0.244687 -0.0272,0.08156 -0.0961,0.159942 -0.0816,0.244687 0.10614,0.620932 0.64101,0.627839 1.14192,0.63619 0.0295,5.02e-4 0.3692,-0.03915 0.40784,-0.06117 0.0291,-0.0166 0.27637,-0.221084 0.29907,-0.318097 0.009,-0.03681 -0.01,-0.07647 -0.0272,-0.110106 -0.11745,-0.229027 -0.0878,-0.18633 -0.27188,-0.269158 -0.0453,-0.02039 -0.0883,-0.04689 -0.13595,-0.06117 -0.15628,-0.04688 -0.32567,-0.0743 -0.48939,-0.08564 -0.15502,-0.01073 -0.30826,-0.0072 -0.46221,-0.02447"
       id="path96890" />
    <path
       style="fill:#6ae4a3;fill-opacity:1;stroke:#000000;stroke-width:1;stroke-linecap:round;stroke-linejoin:round;stroke-opacity:1"
       d="m 136.28939,44.233503 c -0.10876,0.02039 -0.34665,-0.04758 -0.32626,0.06117 0.0204,0.108752 0.21573,-0.05607 0.32626,-0.06117 0.24447,-0.01128 0.48936,0.01224 0.7341,0.01224 0.34334,0 1.18601,-0.05114 1.38661,-0.06117 0.78851,-0.03942 1.5776,-0.06983 2.36541,-0.122348 0.31726,-0.02115 0.63334,-0.04893 0.9516,-0.04893 0.12688,0 0.25377,0 0.38065,0 0.0272,0 0.10177,0.01819 0.0816,0 -0.0665,-0.0598 -0.40287,0.0079 -0.43501,0.01223 -0.25316,0.03417 -0.49533,0.119545 -0.70691,0.269154 -0.12399,0.08768 -0.14286,0.333145 -0.0816,0.452674 0.0326,0.06346 0.24516,0.125844 0.29907,0.134577 0.27938,0.04526 0.7909,0.10123 1.08756,0.01224 0.17779,-0.05334 0.34945,-0.12721 0.51658,-0.207986 0.14682,-0.07096 0.27237,-0.175478 0.35345,-0.318092 0.0763,-0.134224 0.20751,-0.334087 0.16313,-0.513846 -0.0152,-0.06139 -0.0468,-0.118467 -0.0816,-0.171282 -0.17106,-0.259776 -0.29395,-0.237953 -0.65253,-0.354797 -0.28272,-0.09212 -0.53723,-0.08335 -0.84285,-0.06117 -0.11664,0.0085 -0.36195,0.07119 -0.46221,0.159049 -0.12084,0.105888 -0.23331,0.223743 -0.32626,0.354797 -0.0246,0.03474 -0.14314,0.391865 -0.13595,0.440435 0.0457,0.308494 0.22576,0.462838 0.5166,0.501613 0.70034,0.09337 1.17961,-3.71e-4 1.6585,-0.575018 0.13493,-0.161904 0.14955,-0.363904 0.0816,-0.562784 -0.0332,-0.09697 -0.28366,-0.226568 -0.35345,-0.244687 -0.15967,-0.04145 -0.32444,-0.07341 -0.4894,-0.07341 -0.34202,0 -0.66532,0.413338 -0.81566,0.636189 -0.0481,0.07127 -0.0544,0.163125 -0.0816,0.244687 -0.0272,0.08156 -0.0961,0.159942 -0.0816,0.244687 0.10614,0.620932 0.64101,0.627839 1.14192,0.63619 0.0295,5.02e-4 0.3692,-0.03915 0.40784,-0.06117 0.0291,-0.0166 0.27637,-0.221084 0.29907,-0.318097 0.009,-0.03681 -0.01,-0.07647 -0.0272,-0.110106 -0.11745,-0.229027 -0.0878,-0.18633 -0.27188,-0.269158 -0.0453,-0.02039 -0.0883,-0.04689 -0.13595,-0.06117 -0.15628,-0.04688 -0.32567,-0.0743 -0.48939,-0.08564 -0.15502,-0.01073 -0.30826,-0.0072 -0.46221,-0.02447"
       id="path96890-8" />
    <path
       style="fill:none;fill-opacity:1;stroke:#000000;stroke-width:1;stroke-linecap:round;stroke-linejoin:round;stroke-opacity:1"
       d="m 125.95399,42.431072 c 0.11781,-0.0082 0.23535,-0.02447 0.35345,-0.02447 0.0136,0 1.13803,0.03441 1.33224,0.03671 0.81387,0.0096 1.63479,0.01407 2.44698,-0.04894 0.27217,-0.02112 0.54367,-0.05009 0.81566,-0.07341 0.0128,-0.0011 0.20322,-0.02187 0.2175,-0.01223 0.0216,0.0146 0.0181,0.04894 0.0272,0.07341"
       id="path96896" />
    <path
       style="fill:none;fill-opacity:1;stroke:#000000;stroke-width:1;stroke-linecap:round;stroke-linejoin:round;stroke-opacity:1"
       d="m 126.98716,44.48645 c -0.18126,0.04486 -0.58864,-0.04668 -0.54378,0.134577 0.0449,0.181259 0.35881,-0.160186 0.54378,-0.134577 0.30728,0.04254 0.56622,0.267666 0.87003,0.330325 0.19985,0.04122 1.35363,0.08575 1.71288,0.09788 0.41701,0.01407 0.69936,0.0059 1.08754,0.122344"
       id="path96898" />
    <path
       style="fill:none;fill-opacity:1;stroke:#000000;stroke-width:1;stroke-linecap:round;stroke-linejoin:round;stroke-opacity:1"
       d="m 126.51887,37.546772 c 0.78548,0.783274 1.12019,0.860324 2.03788,1.332256 0.27048,0.139098 0.5295,0.307474 0.80746,0.43255 0.1261,0.05674 0.2568,0.102677 0.3845,0.15572 0.0389,0.01617 0.0822,0.02582 0.11536,0.0519 0.0207,0.01633 0.0256,0.04614 0.0384,0.06921"
       id="path97844" />
    <path
       style="fill:none;fill-opacity:1;stroke:#000000;stroke-width:1;stroke-linecap:round;stroke-linejoin:round;stroke-opacity:1"
       d="m 126.74958,39.501902 c 1.07732,0.311231 1.36736,-0.94078 2.15322,-1.176538"
       id="path97846" />
    <path
       style="fill:none;fill-opacity:1;stroke:#000000;stroke-width:1;stroke-linecap:round;stroke-linejoin:round;stroke-opacity:1"
       d="m 128.59519,37.564072 c -0.0722,0.563546 0.13521,1.249776 -0.11535,1.799415 -0.0391,0.08582 -0.12816,0.138416 -0.19225,0.207625"
       id="path97848" />
    <path
       style="fill:none;fill-opacity:1;stroke:#000000;stroke-width:1;stroke-linecap:round;stroke-linejoin:round;stroke-opacity:1"
       d="m 125.17311,38.100436 c 1.16786,0.06216 2.83707,0.113955 4.1911,0.242229 0.0387,0.0037 0.11535,-0.02158 0.11535,0.0173 0,0.03888 -0.0769,0.01153 -0.11535,0.0173"
       id="path97850" />
  </g>
</svg>
