<?xml version="1.0" encoding="UTF-8" standalone="no"?>
<!-- Created with Inkscape (http://www.inkscape.org/) -->

<svg
   width="53.857178mm"
   height="35.801632mm"
   viewBox="0 0 53.857179 35.801634"
   version="1.1"
   id="svg5"
   sodipodi:docname="fork-eqs.svg"
   inkscape:version="1.2.2 (b0a8486541, 2022-12-01)"
   xmlns:inkscape="http://www.inkscape.org/namespaces/inkscape"
   xmlns:sodipodi="http://sodipodi.sourceforge.net/DTD/sodipodi-0.dtd"
   xmlns="http://www.w3.org/2000/svg"
   xmlns:svg="http://www.w3.org/2000/svg">
  <sodipodi:namedview
     id="namedview7"
     pagecolor="#ffffff"
     bordercolor="#666666"
     borderopacity="1.0"
     inkscape:showpageshadow="2"
     inkscape:pageopacity="0.0"
     inkscape:pagecheckerboard="0"
     inkscape:deskcolor="#d1d1d1"
     inkscape:document-units="mm"
     showgrid="false"
     inkscape:zoom="2.3177057"
     inkscape:cx="-138.49903"
     inkscape:cy="78.09447"
     inkscape:window-width="2560"
     inkscape:window-height="1372"
     inkscape:window-x="0"
     inkscape:window-y="32"
     inkscape:window-maximized="1"
     inkscape:current-layer="layer1"
     showguides="true" />
  <defs
     id="defs2" />
  <g
     inkscape:label="Layer 1"
     inkscape:groupmode="layer"
     id="layer1"
     transform="translate(-87.560414,-38.517422)">
    <path
       style="fill:#6ae4a3;fill-opacity:1;stroke:#000000;stroke-width:1;stroke-linecap:round;stroke-linejoin:round"
       d="m 95.693197,55.431887 c -0.0032,0.07786 -0.01564,0.155886 -0.0096,0.233578 0.0037,0.04774 0.03094,0.09112 0.03845,0.138416 0.0086,0.05421 0.0078,0.109516 0.0096,0.164369 0.0046,0.139819 0.01164,0.279695 0.0096,0.419575 -0.0012,0.08099 -0.01137,0.161613 -0.01923,0.242228 -0.03275,0.33603 -0.04502,0.331991 -0.115352,0.748313 -0.01362,0.08061 -0.02408,0.161749 -0.03845,0.24223 -0.04416,0.247283 -0.09973,0.492433 -0.144188,0.739662 -0.01497,0.08327 -0.02383,0.167549 -0.03845,0.250879 -0.01422,0.08108 -0.03524,0.160917 -0.04806,0.242228 -0.01856,0.117698 -0.06339,0.446071 -0.0769,0.614223 -0.0092,0.114632 -0.01705,0.368246 -0.01923,0.458504 -0.0024,0.101169 -0.0048,0.206653 0.0096,0.307111 0.0082,0.05701 0.0061,0.0034 0.01922,0.03893 0.0015,0.0041 -0.0039,0.0112 0,0.01298 0.01176,0.0053 0.02579,0.0019 0.03845,0.0043 0.0099,0.0019 0.01923,0.0058 0.02884,0.0086 0.02243,0.0029 0.04486,0.0057 0.06729,0.0087 0.07691,0.01005 0.153584,0.02202 0.230703,0.03028 0.304991,0.03268 0.617956,0.02312 0.922812,0.02163 0.519328,-0.0025 1.037681,-0.01417 1.557245,-0.0087 0.215808,0.0023 0.551829,0.0195 0.769011,0.0346 2.048182,0.142438 -0.113928,0.0018 0.990099,0.06921 0.278753,0.01701 0.556863,0.0346 0.836303,0.0346 0.18367,0 0.11717,0.0019 0.33644,-0.0087 0.0573,-0.0028 0.12903,-0.0018 0.18264,-0.02595 0.006,-0.0027 0.005,-0.01237 0.01,-0.0173 0.009,-0.0097 0.0208,-0.0158 0.0288,-0.02595 0.0274,-0.03473 0.0514,-0.07202 0.0769,-0.108139 0.049,-0.06933 0.0784,-0.102027 0.10574,-0.185997 0.0762,-0.234328 0.0522,-0.201577 0.0961,-0.393622 0.0671,-0.293559 0.0275,-0.02876 0.0961,-0.484456 0.009,-0.05758 0.0327,-0.320569 0.0385,-0.371993 0.0333,-0.295262 0.0414,-0.359778 0.0769,-0.609898 0.034,-0.239399 0.0437,-0.304975 0.0961,-0.583944 0.0561,-0.298114 0.1431,-0.589211 0.20187,-0.88673 0.0541,-0.273638 0.0832,-0.550565 0.12496,-0.826172 0.0119,-0.07822 0.0717,-0.447737 0.0769,-0.475806 0.008,-0.04081 0.0203,-0.0805 0.0288,-0.121115 0.008,-0.03583 0.0131,-0.07205 0.0192,-0.108137 0.0175,-0.102675 0.0384,-0.199407 0.0384,-0.302786 0,-0.04614 0.006,-0.09267 0,-0.138416 -0.002,-0.01385 -0.0207,-0.0892 -0.0288,-0.09084 -0.0252,-0.005 -0.0513,-0.0028 -0.0769,-0.0043 -0.14161,-0.0085 -0.2802,-0.01152 -0.42296,-0.01297 -0.2439,-0.0025 -0.4867,0.0025 -0.73056,0.01297 -0.2416,0.01483 -0.18116,0.01256 -0.42295,0.02163 -0.48081,0.01803 -0.961395,0.03525 -1.4419,0.06056 -0.336436,0.01772 -0.672582,0.04427 -1.009327,0.05623 -0.448548,0.01593 -0.897029,0.01297 -1.345768,0.01297 -0.179301,0 -0.359012,-0.0034 -0.538305,0 -0.08367,0.0016 -0.166546,0.0061 -0.249929,0.0087 -0.100611,0.003 -0.197923,0.0044 -0.297991,0.0173 -0.0024,2.91e-4 -0.06453,0.0068 -0.06729,0.0087 -0.0065,0.0044 -0.006,0.01461 -0.0096,0.02163 -0.03783,0.07376 -0.06192,0.142729 -0.08651,0.224927 -0.0083,0.02773 -0.03318,0.147716 -0.03845,0.17302 -0.01951,0.09366 -0.04232,0.186728 -0.05768,0.281158 -0.01337,0.08224 -0.01,0.126901 -0.01923,0.216276 -0.0018,0.0175 -0.0077,0.03442 -0.0096,0.05191 -0.0013,0.01146 0.0015,0.02317 0,0.0346 -0.0017,0.01325 -0.01654,0.0275 -0.0096,0.03893 0.0037,0.0062 0.07184,0.01241 0.0769,0.01298"
       id="path70216" />
    <path
       style="fill:#6ae4a3;fill-opacity:1;stroke:#000000;stroke-width:1;stroke-linecap:round;stroke-linejoin:round"
       d="m 97.077415,56.586798 c 0.02563,0.05479 0.04235,0.114718 0.0769,0.16437 0.06554,0.09419 0.154591,0.170343 0.221091,0.263855 0.167318,0.235282 0.265353,0.400296 0.355667,0.661804 0.04118,0.119228 0.07857,0.240164 0.105739,0.363343 0.01466,0.06647 0.01223,0.135591 0.01922,0.203299 0.0058,0.0563 0.01199,0.112563 0.01923,0.168695 0.0082,0.06364 0.01346,0.128028 0.02884,0.190322 0.01171,0.04743 0.0096,-0.0066 0.0096,0.03028 0,0.0058 -0.0056,0.01881 0,0.0173 0.01828,-0.0049 0.0323,-0.01978 0.04806,-0.03028 0.06435,-0.04286 0.128912,-0.08543 0.192253,-0.129766 0.04603,-0.03222 0.291384,-0.213748 0.326828,-0.242228 0.123283,-0.09906 0.245835,-0.199128 0.365281,-0.302786 0.06008,-0.05214 0.114607,-0.110373 0.173026,-0.16437 0.158813,-0.146788 0.372271,-0.331008 0.528694,-0.458504 0.05256,-0.04284 0.108922,-0.08077 0.163415,-0.121114 0.166015,-0.1229 0.140483,-0.105063 0.336441,-0.242229 0.019,-0.0133 0.0391,-0.02501 0.0577,-0.03893 0.038,-0.0285 0.0285,-0.03893 0.0769,-0.03893"
       id="path70218" />
    <path
       style="fill:#6ae4a3;fill-opacity:1;stroke:#000000;stroke-width:1;stroke-linecap:round;stroke-linejoin:round"
       d="m 101.97985,57.962311 c 0.0481,0 0.0962,-0.0016 0.14419,0 0.35597,0.01209 0.71089,0.03602 1.06701,0.04758 0.69841,0.02268 1.39681,0.03401 2.09555,0.02595 0.0897,-10e-4 0.17946,0 0.26915,0 0.0128,0 0.0256,0 0.0384,0 0.01,0 0.0288,0.0096 0.0288,0 0,-0.0097 -0.0191,-0.0038 -0.0288,-0.0043 -0.016,-9e-4 -0.032,0 -0.0481,0 -0.0545,0 -0.10902,-0.0029 -0.16342,0 -0.0914,0.0049 -0.27753,0.05091 -0.32682,0.134091 -0.0114,0.01918 -0.0954,0.141036 -0.0385,0.177346 0.0665,0.0424 0.1725,0.05428 0.24993,0.04758 0.15562,-0.01346 0.22637,-0.0148 0.36528,-0.09949 0.0442,-0.02693 0.0785,-0.06752 0.11535,-0.103813 0.0491,-0.0483 0.0826,-0.105842 0.0769,-0.177346 -0.004,-0.04514 -0.0531,-0.06089 -0.0865,-0.07353 -0.15373,-0.05811 -0.39316,-0.124791 -0.54792,-0.03028 -0.0798,0.04876 -0.1222,0.111328 -0.17303,0.194648 -0.0212,0.0347 -0.0445,0.113477 -0.0288,0.155719 0.0454,0.122547 0.11322,0.185516 0.24031,0.198973 0.0733,0.0078 0.14736,0.01045 0.22109,0.0087 0.16814,-0.0041 0.31131,-0.06828 0.4518,-0.160045 0.0305,-0.01995 0.0516,-0.05156 0.0769,-0.07786 0.0747,-0.07773 0.11738,-0.111034 0.14419,-0.229252 0.005,-0.022 -0.01,-0.04452 -0.0192,-0.06488 -0.0435,-0.09142 -0.10301,-0.09432 -0.21148,-0.134091 -0.037,-0.01356 -0.15845,-0.02774 -0.19225,-0.02595 -0.27758,0.01469 -0.43405,0.06641 -0.60559,0.294136 -0.0196,0.02599 -0.0615,0.138953 -0.0481,0.177346 0.0423,0.121182 0.0838,0.1461 0.19226,0.177345 0.0439,0.01264 0.0889,0.02349 0.13457,0.02595 0.11519,0.0062 0.23103,0.0086 0.34606,0 0.0589,-0.0044 0.1164,-0.02194 0.17302,-0.03893 0.188,-0.0564 0.2979,-0.125989 0.47102,-0.246554 0.12832,-0.08936 0.20905,-0.21206 0.16342,-0.37632 -0.0174,-0.06253 -0.15688,-0.161427 -0.20187,-0.181671 -0.11189,-0.05035 -0.22784,-0.09256 -0.34605,-0.12544 -0.0591,-0.01643 -0.12156,-0.01643 -0.18264,-0.02163 -0.0575,-0.0049 -0.11569,-0.0155 -0.17303,-0.0087 -0.13817,0.0165 -0.31135,0.04772 -0.43257,0.134091 -0.0932,0.0664 -0.18458,0.213598 -0.22109,0.307111 -0.0131,0.03358 -0.007,0.07272 0,0.108138 0.0212,0.112355 0.1018,0.172603 0.20187,0.229252 0.0503,0.0285 0.25088,0.05308 0.29799,0.05191 0.19889,-0.005 0.4695,-0.01338 0.64404,-0.142742 0.14993,-0.11112 0.18684,-0.126729 0.23071,-0.268182 0.009,-0.02956 0.0293,-0.06158 0.0192,-0.09083 -0.0558,-0.161818 -0.19801,-0.240772 -0.35566,-0.268181 -0.17577,-0.03056 -0.25851,-0.04736 -0.41335,-0.0087 -0.17575,0.04394 -0.30397,0.144032 -0.3845,0.307111 -0.0335,0.06779 -0.068,0.160807 -0.0481,0.237903 0.006,0.02327 0.0367,0.03161 0.0577,0.04326 0.0888,0.0492 0.20451,0.03893 0.29799,0.03893 0.0415,0 0.16964,-0.0172 0.21148,-0.03893 0.13833,-0.07182 0.13069,-0.0747 0.20186,-0.164369 0.016,-0.02018 0.0448,-0.03499 0.0481,-0.06056 0.004,-0.03151 -0.0114,-0.0643 -0.0288,-0.09084 -0.0379,-0.05755 -0.27746,-0.02811 -0.29799,-0.02595 -0.0719,0.0075 -0.17431,0.03466 -0.24032,0.06056 -0.24463,0.09597 -0.19205,0.06907 -0.34605,0.17302"
       id="path70220" />
    <path
       style="fill:none;fill-opacity:1;stroke:#000000;stroke-width:1;stroke-linecap:round;stroke-linejoin:round"
       d="m 105.99793,57.754686 c 0.50947,-0.566642 0.95228,-1.201211 1.52841,-1.699926 0.23734,-0.205446 0.56928,-0.267077 0.86513,-0.371994 0.45686,-0.162013 0.98949,-0.195819 1.46112,-0.229252 0.17585,-0.01246 0.35245,-0.0096 0.5287,-0.01298 0.21897,-0.0041 0.44364,-0.0087 0.66327,-0.0087"
       id="path70222" />
    <path
       style="fill:none;fill-opacity:1;stroke:#000000;stroke-width:1;stroke-linecap:round;stroke-linejoin:round"
       d="m 106.13251,58.329979 c 0.092,0.103663 1.23252,1.456859 1.60531,1.699925 0.41507,0.270633 0.9861,0.422962 1.47073,0.519061 0.15857,0.03144 0.32016,0.04528 0.48063,0.06488 0.0715,0.0087 0.23995,0.03 0.32683,0.02163 0.0322,-0.0031 0.0641,-0.0087 0.0961,-0.01297"
       id="path70224" />
    <path
       style="fill:#6ae4a3;fill-opacity:1;stroke:#000000;stroke-width:1;stroke-linecap:round;stroke-linejoin:round"
       d="m 113.63997,57.127487 c 0.49964,0.07191 1.00476,0.104966 1.50918,0.116788 0.37445,0.0088 0.74995,0.01889 1.12468,0.01298 0.87174,-0.01376 0.0681,-0.0022 0.40373,-0.01298 0.0335,-0.0011 0.13416,-0.0092 0.13458,-0.0086 0.005,0.0062 -0.0127,0.0089 -0.0192,0.01297 -0.0191,0.0118 -0.0385,0.02307 -0.0577,0.0346"
       id="path70230" />
    <path
       style="fill:#6ae4a3;fill-opacity:1;stroke:#000000;stroke-width:1;stroke-linecap:round;stroke-linejoin:round"
       d="m 113.95719,59.285916 c -0.0609,0.0072 -0.24395,0.02163 -0.18265,0.02163 0.15398,0 0.3075,-0.01726 0.46141,-0.02163 0.564,-0.01599 0.7649,-0.01297 1.28809,-0.01297 0.49768,0 0.37927,-0.0039 0.81708,0.0086 0.0609,0.0017 0.12177,0.0024 0.18264,0.0043 0.0193,6.09e-4 0.0389,0.0086 0.0577,0.0043 0.0128,-0.0029 -0.0254,-0.0069 -0.0384,-0.0087 -0.0191,-0.0026 -0.0384,-0.0029 -0.0577,-0.0043"
       id="path70232" />
    <path
       style="fill:#6ae4a3;fill-opacity:1;stroke:#000000;stroke-width:1;stroke-linecap:round;stroke-linejoin:round"
       d="m 122.20482,51.629763 c -0.01,0.128324 -0.0205,0.256557 -0.0288,0.38497 -0.0225,0.347279 0.008,0.20612 -0.0481,0.709385 -0.0102,0.09167 -0.0305,0.181957 -0.0481,0.272507 -0.0122,0.06305 -0.1,0.4703 -0.11534,0.536362 -0.0373,0.16032 -0.0803,0.319316 -0.11536,0.480133 -0.0211,0.09689 -0.0557,0.335459 -0.0673,0.436876 -0.0141,0.123642 -0.0429,0.376016 -0.0481,0.532038 -0.004,0.11096 0,0.222043 0,0.333064 0,0.03028 0,0.06056 0,0.09084 0,0.0058 -0.005,0.01535 0,0.0173 0.0151,0.0054 0.0321,-9.79e-4 0.0481,0 0.2027,0.01244 0.12004,0.01423 0.31722,0.02163 0.23676,0.0089 0.58831,0.0043 0.77862,0 0.25973,-0.0059 0.51902,-0.02472 0.77862,-0.0346 0.60043,-0.02286 0.74789,-0.0309 1.25926,-0.03893 0.4838,-0.0076 0.96766,-0.0043 1.4515,-0.0043 0.29805,0 0.33806,0.0019 0.67289,-0.0087 0.11921,-0.0038 0.25864,-0.0019 0.36528,-0.06488 0.0129,-0.0076 0.0545,-0.09245 0.0577,-0.09949 0.0266,-0.0587 0.0554,-0.116611 0.0769,-0.177346 0.0296,-0.08356 0.0371,-0.186633 0.0481,-0.272507 0.016,-0.125443 0.0342,-0.250623 0.0481,-0.376319 0.0328,-0.297025 0.0358,-0.692367 0.0385,-0.951612 0,-6.9e-5 -0.0185,-0.435512 -0.0192,-0.441202 -0.0323,-0.250348 -0.0908,-0.46064 -0.14419,-0.700733 -0.0237,-0.106432 -0.0438,-0.213612 -0.0673,-0.320088 -0.0233,-0.105796 -0.0552,-0.20962 -0.0769,-0.315762 -0.0252,-0.123465 -0.048,-0.247472 -0.0673,-0.371994 -0.008,-0.0531 -0.0136,-0.106611 -0.0192,-0.160044 -5.3e-4,-0.0043 0.004,-0.01075 0,-0.01298 -0.008,-0.005 -0.0192,-0.0036 -0.0288,-0.0043 -0.0288,-0.0022 -0.0576,-0.0036 -0.0865,-0.0043 -0.0256,-6.88e-4 -0.0513,0 -0.0769,0 -0.0353,-0.0014 -0.0705,-0.003 -0.10575,-0.0043 -0.20198,-0.0074 -0.40346,-0.0144 -0.60559,-0.01298 -0.29221,0.0021 -0.58298,0.0075 -0.87475,0.02163 -1.15597,0.05602 0.0584,0.0039 -0.59598,0.02595 -0.53504,0.01806 -1.07079,0.02184 -1.60531,0.05191 -0.12164,0.0068 -0.2436,0.01164 -0.36528,0.0173 -0.0177,8.2e-4 -0.14744,0.0063 -0.17303,0.0087 -0.0514,0.0048 -0.1025,0.0118 -0.1538,0.0173 -0.016,0.0017 -0.032,0.0029 -0.0481,0.0043 -0.0416,0.0058 -0.0832,0.01209 -0.12496,0.0173 -0.0717,0.009 -0.14355,0.01547 -0.21148,0.04326 -0.0111,0.0045 -0.019,0.01469 -0.0288,0.02163 -0.0803,0.05682 -0.007,-0.0073 -0.11535,0.121114 -0.0186,0.02215 -0.0423,0.04034 -0.0577,0.06488 -0.0139,0.02233 -0.0186,0.04925 -0.0288,0.07353 -0.11104,0.264843 -0.0311,0.06352 -0.0961,0.229253 -0.01,0.02451 -0.019,0.04909 -0.0288,0.07353 -0.0364,0.09105 -0.0863,0.169386 -0.0577,0.268182 0.004,0.0139 0.0128,0.02595 0.0192,0.03893"
       id="path70238" />
    <path
       style="fill:#6ae4a3;fill-opacity:1;stroke:#000000;stroke-width:1;stroke-linecap:round;stroke-linejoin:round"
       d="m 123.05073,52.581376 c 0.48262,0.577634 0.749,0.812479 1.067,1.31928 0.0337,0.05376 0.0642,0.109513 0.0961,0.16437 0.003,0.0057 0.004,0.01459 0.01,0.0173 0.0323,0.01455 0.0374,-0.01414 0.0577,-0.03028 0.0981,-0.07793 0.1991,-0.152263 0.29799,-0.229252 0.39076,-0.304228 0.21885,-0.177567 0.60559,-0.47148 0.0444,-0.03375 0.0883,-0.06828 0.13458,-0.09949 0.14372,-0.09701 0.29342,-0.182171 0.43257,-0.285484 0.3241,-0.240629 0.0249,-0.0094 0.14419,-0.116788 0.0442,-0.03977 0.0167,-0.0053 0.0384,-0.0346"
       id="path70240" />
    <path
       style="fill:#6ae4a3;fill-opacity:1;stroke:#000000;stroke-width:1;stroke-linecap:round;stroke-linejoin:round"
       d="m 121.83954,57.499481 c -0.0775,0.01325 -0.15356,-0.02549 -0.23071,-0.02163 -0.004,2.16e-4 -0.002,0.0093 0,0.01297 0.0206,0.03436 0.0475,0.06468 0.0673,0.09949 0.0305,0.05369 0.0596,0.139557 0.0673,0.198974 0.0111,0.08603 0.0132,0.172991 0.0192,0.25953 0.0219,0.314803 0.0262,0.564522 0.01,0.899706 -0.003,0.06694 -0.0203,0.132506 -0.0288,0.198974 -0.0171,0.132518 -0.0309,0.265445 -0.0481,0.397947 -2e-4,0.0015 -0.0575,0.387785 -0.0577,0.389296 -0.0142,0.112297 -0.0252,0.224979 -0.0384,0.33739 -0.0182,0.154152 -0.021,0.134996 -0.0288,0.281157 -0.004,0.07638 -0.007,0.152803 -0.01,0.229252 -7.9e-4,0.02882 0.002,0.05772 0,0.08651 -0.002,0.02611 -0.007,0.05184 -0.01,0.07786 -0.007,0.07321 -5.3e-4,0.0925 -0.0192,0.147067 -0.003,0.0075 -0.005,0.01529 -0.01,0.02163 -0.009,0.01207 -0.0384,0.02307 -0.0288,0.0346 0.0613,0.07352 0.22441,0.126434 0.3076,0.151392 0.1242,0.03726 0.24899,0.07283 0.3749,0.103813 0.1379,0.03393 0.36034,0.06949 0.49985,0.08218 0.21438,0.0195 0.42912,0.03561 0.64405,0.04758 0.1248,0.007 0.61845,0.01202 0.74017,0.01298 0.47416,0.0037 0.94852,-3.15e-4 1.42267,0.0043 0.16922,0.0017 0.5736,0.0089 0.79784,0.01298 0.27574,0.0051 0.55093,0.01987 0.82669,0.01298 0.22721,-0.0057 0.14698,0.0013 0.42296,-0.03893 0.0721,-0.01053 0.18567,-0.03362 0.24993,-0.06921 0.0623,-0.03451 0.0517,-0.159225 0.0577,-0.203299 0.004,-0.02927 0.0134,-0.05756 0.0192,-0.08651 0.007,-0.0345 0.0112,-0.06956 0.0192,-0.103812 0.0208,-0.08835 0.0449,-0.175897 0.0673,-0.263857 0.0203,-0.07977 0.0591,-0.220036 0.0673,-0.302787 0.0363,-0.365851 0.012,-0.235801 0.0192,-0.510409 0.002,-0.06206 0.01,-0.123915 0.01,-0.185997 0,-0.604695 -0.009,-0.151896 -0.0192,-0.545014 -0.002,-0.06054 10e-4,-0.121123 0,-0.181672 -0.004,-0.255732 -0.0245,-0.51821 0,-0.774267 0.0101,-0.105548 0.025,-0.210591 0.0385,-0.315761 0.0135,-0.105327 0.0259,-0.150833 0.0288,-0.255206 0.004,-0.157368 0.008,-0.349039 -0.0192,-0.506084 -0.009,-0.05408 -0.025,-0.106836 -0.0384,-0.160045 -0.0218,-0.08657 -0.0217,-0.06189 -0.0385,-0.160043 -10e-4,-0.0071 0.004,-0.01584 0,-0.02163 -0.007,-0.009 -0.018,-0.01458 -0.0288,-0.0173 -0.0464,-0.01161 -0.28119,-0.01697 -0.28837,-0.0173 -0.20454,-0.0095 -0.4108,-0.0043 -0.61521,-0.0043 -0.1474,0 -0.29482,-0.0028 -0.44219,0 -0.27316,0.0051 -0.44772,0.01 -0.70172,0.02595 -0.24355,0.01534 -0.48705,0.03151 -0.73056,0.04758 -0.0769,0.0051 -0.15367,0.01353 -0.2307,0.0173 -0.0704,0.0034 -0.14102,0.0016 -0.21148,0.0043 -0.2084,0.0079 -0.41661,0.01957 -0.62482,0.03028 -0.18574,0.0096 -0.37196,0.01259 -0.55753,0.02595 -0.0257,0.0019 -0.0512,0.0067 -0.0769,0.0086 -0.032,0.0024 -0.0641,0.0019 -0.0961,0.0043 -0.19271,0.01445 -0.38471,0.03537 -0.57675,0.05623 -0.11827,0.01284 -0.2373,0.02303 -0.35567,0.0346 -0.0799,0.0078 -0.16037,0.0093 -0.24031,0.0173 -0.0779,0.0078 -0.15349,0.02735 -0.23071,0.03893 -0.0894,0.01341 -0.17957,0.0222 -0.26915,0.0346 -0.075,0.01039 -0.0512,0.0064 -0.13458,0.03028 -0.01,0.0028 -0.0205,0.003 -0.0288,0.0087 -0.0306,0.02066 -0.0609,0.04261 -0.0865,0.06921 -0.068,0.0706 -0.10786,0.245605 -0.13458,0.324413 -0.0508,0.149941 -0.0132,0.0055 -0.0385,0.155719 -0.0138,0.08227 -0.0389,0.147824 -0.0288,0.229252 0.011,0.08938 0.0552,0.150653 0.0961,0.233577"
       id="path70248" />
    <path
       style="fill:#6ae4a3;fill-opacity:1;stroke:#000000;stroke-width:1;stroke-linecap:round;stroke-linejoin:round"
       d="m 123.67555,58.503 c 0.24032,0.301343 0.50175,0.586992 0.72095,0.90403 0.0965,0.139566 0.14907,0.304872 0.22109,0.458505 0.0145,0.03098 0.0228,0.06472 0.0384,0.09516 0.004,0.0077 0.0119,0.02184 0.0192,0.0173 0.0246,-0.01523 0.0365,-0.04514 0.0577,-0.06488 0.23374,-0.218055 0.37879,-0.34514 0.62482,-0.536363 0.0434,-0.03372 0.0901,-0.06286 0.13458,-0.09516 0.0389,-0.02826 0.0759,-0.05911 0.11535,-0.08651 0.0375,-0.02599 0.0774,-0.04828 0.11535,-0.07353 0.0357,-0.02378 0.0703,-0.04933 0.10574,-0.07353 0.0575,-0.03924 0.11535,-0.07786 0.17303,-0.116789 0.0436,-0.02943 0.10759,-0.0639 0.13457,-0.112463 0.004,-0.0076 0,-0.0173 0,-0.02595"
       id="path70250" />
    <path
       style="fill:#6ae4a3;fill-opacity:1;stroke:#000000;stroke-width:1;stroke-linecap:round;stroke-linejoin:round"
       d="m 127.65518,53.446478 c 1.32845,0.01272 1.78299,0.0075 2.99914,0.04758 0.1283,0.0042 0.25633,0.01442 0.3845,0.02163 0.0769,0.0043 0.1538,0.0088 0.2307,0.01298 0.0288,0.0016 0.0597,-0.0063 0.0865,0.0043 0.009,0.0034 -0.002,0.02042 -0.01,0.02595 -0.023,0.01724 -0.0513,0.02595 -0.0769,0.03893"
       id="path70252" />
    <path
       style="fill:#6ae4a3;fill-opacity:1;stroke:#000000;stroke-width:1;stroke-linecap:round;stroke-linejoin:round"
       d="m 128.04929,59.56275 c 1.2145,-0.0084 2.42879,0.01559 3.64319,0.02163 0.22429,0.0011 0.44859,0.0011 0.67288,0 0.0673,-3.44e-4 0.1346,-0.002 0.20187,-0.0043 0.0161,-5.56e-4 0.032,-0.0027 0.0481,-0.0043 0.0128,-0.0013 0.0385,0.0086 0.0385,-0.0043 0,-0.0129 -0.0256,-0.0029 -0.0385,-0.0043"
       id="path70254" />
    <path
       style="fill:#6ae4a3;stroke:#000000;stroke-width:1;stroke-linecap:round;stroke-linejoin:round"
       d="m 88.307631,70.007419 c -0.07767,-0.06908 -0.165021,0.03016 -0.244697,0.01223 -0.01385,-0.0031 0.02784,-0.0064 0.04078,-0.01223 0.01,-0.0045 0.01625,-0.01835 0.02719,-0.01835 0.05922,0 0.117583,0.01522 0.176726,0.01835 0.09505,0.005 0.190328,0.0038 0.285481,0.0061 0.463339,0.01137 0.3556,0.01034 0.720498,0.01835 0.810766,0.0178 1.622703,0.01668 2.43338,-0.0061 0.199553,-0.0056 0.398524,-0.01835 0.598149,-0.01835 0.01359,0 0.02719,0 0.04078,0 0.01359,0 0.03208,-0.01044 0.04078,0 0.01044,0.01253 0,0.03262 0,0.04894"
       id="path72866" />
    <path
       style="fill:none;stroke:#000000;stroke-width:1;stroke-linecap:round;stroke-linejoin:round"
       d="m 93.555033,69.793315 c -0.266036,-0.0052 -0.251515,-0.04128 -0.435019,0.0367 -0.04196,0.01783 -0.08365,0.03706 -0.122348,0.06117 -0.07937,0.04945 -0.158726,0.09983 -0.231104,0.159046 -0.07543,0.06172 -0.192681,0.274212 -0.05438,0.336447 0.08976,0.04039 0.243066,0.01688 0.31267,0.0061 0.267762,-0.04142 0.48198,-0.205596 0.693309,-0.360917 0.05228,-0.03843 0.144423,-0.09956 0.135944,-0.183515 -0.0021,-0.02069 -0.03515,-0.02266 -0.05438,-0.03059 -0.03537,-0.01459 -0.07068,-0.03289 -0.108755,-0.0367 -0.04527,-0.0045 -0.09052,0.0149 -0.135942,0.01223 -0.163664,-0.0096 -0.325504,-0.04476 -0.489396,-0.04894 -0.07768,-0.002 -0.156199,0.0099 -0.231101,0.03059 -0.267435,0.07384 -0.459113,0.128138 -0.570963,0.385383 -0.02025,0.04658 -0.04604,0.0963 -0.04078,0.146813 0.0089,0.08551 0.04215,0.168281 0.08157,0.244687 0.04433,0.08592 0.157642,0.140492 0.244697,0.159049 0.120719,0.02573 0.243718,0.04389 0.367046,0.04894 0.0774,0.0032 0.154935,-0.01036 0.231103,-0.02447 0.292274,-0.05416 0.553768,-0.202349 0.747687,-0.428203 0.03471,-0.04043 0.0853,-0.07609 0.09516,-0.128462 0.01998,-0.106073 -0.0075,-0.294404 -0.135941,-0.342562 -0.0943,-0.03536 -0.204779,-0.0075 -0.299075,-0.04282 -0.100294,-0.03761 -0.172332,-0.131755 -0.271886,-0.171282 -0.05908,-0.02346 -0.126791,-0.01452 -0.190321,-0.01223 -0.178812,0.0064 -0.375351,0.108521 -0.435017,0.287509 -0.01362,0.04085 -0.02594,0.08721 -0.01359,0.12846 0.05125,0.171315 0.09403,0.204674 0.244697,0.238571 0.05339,0.01201 0.108425,0.01952 0.163133,0.01835 0.221782,-0.0048 0.54016,-0.0063 0.734093,-0.159046 0.05124,-0.04035 0.09712,-0.08829 0.135942,-0.140696 0.01243,-0.01678 0.02432,-0.04325 0.01359,-0.06117 -0.08612,-0.143935 -0.240748,-0.125392 -0.380641,-0.128462 -0.309087,-0.0068 -0.365901,-0.03084 -0.611745,0.02447"
       id="path72868" />
    <path
       style="fill:none;stroke:#000000;stroke-width:1;stroke-linecap:round;stroke-linejoin:round"
       d="m 93.555033,70.33163 c 0.276417,-0.536275 0.485909,-1.112727 0.829253,-1.608823 0.288218,-0.416445 0.887927,-0.669574 1.345837,-0.813588 0.18527,-0.05827 0.37927,-0.08496 0.57096,-0.116227 0.40871,-0.06667 0.67005,-0.07049 1.08754,-0.09176 0.12199,-0.0062 0.24496,-0.01469 0.36705,-0.01835 0.004,-1.28e-4 0.16324,-0.0073 0.19032,0 0.0106,0.0028 0.0207,0.0096 0.0272,0.01835 0.004,0.0049 -0.006,0.01835 0,0.01835 0.0109,0 0.0169,-0.01465 0.0272,-0.01835 0.0129,-0.0047 0.027,-0.0057 0.0408,-0.0061 0.0996,-0.0032 0.19938,0 0.29908,0 0.27652,0 0.55281,0.0021 0.82924,0.0061 0.37608,0.0055 0.75221,0.0061 1.128327,0.0061 0.12688,0 0.25376,0 0.38065,0 0.0306,0 0.0946,0.0075 0.12234,0 0.0106,-0.0028 0.0372,-0.01386 0.0272,-0.01835 -0.0459,-0.02066 -0.29049,-0.03949 -0.33985,-0.04282 -0.17531,-0.01183 -0.35202,-0.02805 -0.4758,0.122344 -0.0201,0.02441 -0.0373,0.05421 -0.0408,0.08564 -0.002,0.01513 0.014,0.02914 0.0272,0.03671 0.0912,0.05225 0.22363,0.0857 0.32626,0.04282 0.0942,-0.03934 0.18614,-0.08539 0.27189,-0.140696 0.0512,-0.03304 0.0922,-0.07987 0.13594,-0.122344 0.11604,-0.112677 0.18308,-0.17937 0.23111,-0.348681 0.007,-0.02327 -0.0116,-0.04882 -0.0272,-0.06729 -0.0827,-0.09765 -0.27531,-0.118286 -0.36705,-0.140696 -0.25747,-0.06289 -0.56254,-0.0689 -0.77487,0.116227 -0.0354,0.03088 -0.0705,0.06401 -0.0952,0.103993 -0.044,0.07122 -0.0887,0.145074 -0.10875,0.226335 -0.009,0.03478 0.01,0.07267 0.0272,0.103993 0.0697,0.125511 0.20755,0.156144 0.33986,0.189632 0.22932,0.05804 0.55318,-0.05161 0.74768,-0.12846 0.14055,-0.05553 0.33972,-0.228251 0.38065,-0.379266 0.007,-0.02702 -0.0232,-0.05163 -0.0408,-0.07341 -0.0801,-0.0991 -0.18426,-0.106455 -0.31267,-0.140696 -0.37845,-0.10092 -0.77045,0.154393 -1.01957,0.415969"
       id="path73350" />
    <path
       style="fill:none;stroke:#000000;stroke-width:1;stroke-linecap:round;stroke-linejoin:round"
       d="m 93.3919,70.980052 c -0.0725,0.03059 -0.229429,0.01398 -0.217508,0.09176 0.0191,0.124645 0.189432,0.167632 0.271886,0.26304 0.218986,0.253388 0.308822,0.412612 0.4758,0.679008 0.253723,0.404788 0.424976,0.733491 0.815655,1.027689 0.0949,0.07149 0.20397,0.123272 0.31267,0.171282 0.41374,0.182728 0.85065,0.26063 1.29146,0.342561 0.10441,0.01941 0.20768,0.04519 0.31267,0.06117 0.20329,0.03094 0.40794,0.05215 0.61175,0.07952 0.0998,0.01341 0.19899,0.03156 0.29907,0.04282 0.0994,0.01118 0.19935,0.01675 0.29907,0.02447 0.19029,0.01472 0.38043,0.03176 0.57096,0.04282 0.0905,0.0053 0.18126,0.0041 0.27189,0.0061 0.45117,0.0099 0.21072,0.0061 0.81566,0.0061 0.503877,0 1.005897,-0.03422 1.508967,-0.06117 0.3487,-0.01868 0.69778,-0.03074 1.04676,-0.04282 0.21421,-0.0074 0.43779,-0.0051 0.65252,-0.02447 0.0682,-0.0061 0.13594,-0.01642 0.20392,-0.02447 0.0109,-0.0013 0.0997,-0.0091 0.10876,-0.01835 0.0342,-0.03467 -0.0305,-0.06753 -0.068,-0.09787"
       id="path73352" />
    <path
       style="fill:none;stroke:#000000;stroke-width:1;stroke-linecap:round;stroke-linejoin:round"
       d="m 107.29887,70.062471 c 0.84708,0.0069 1.69517,0.02933 2.54214,0"
       id="path73354" />
    <path
       style="fill:none;stroke:#000000;stroke-width:1;stroke-linecap:round;stroke-linejoin:round"
       d="m 107.04058,71.530598 c 0.72027,0.02477 1.44109,0.02868 2.16149,0.04894 0.11784,0.0033 0.23569,0.0069 0.35345,0.01224 0.0182,8.21e-4 0.0378,-0.0014 0.0544,0.0061 0.0255,0.01146 0.0453,0.03262 0.068,0.04894"
       id="path73356" />
    <path
       style="fill:none;stroke:#000000;stroke-width:1;stroke-linecap:round;stroke-linejoin:round"
       d="m 113.64741,70.135879 c 2.74389,-0.03337 2.21142,-0.0069 4.89395,-0.116227 0.35816,-0.01459 0.71584,-0.03936 1.07395,-0.05505 0.33975,-0.01489 0.67971,-0.02471 1.01957,-0.0367 0.14782,-0.0052 0.34795,0.02982 0.4894,-0.05505"
       id="path73358" />
    <path
       style="fill:none;stroke:#000000;stroke-width:1;stroke-linecap:round;stroke-linejoin:round"
       d="m 124.53645,69.187714 c 2.27972,-0.110376 1.43418,-0.170439 2.54214,-0.06729"
       id="path73360" />
    <path
       style="fill:none;stroke:#000000;stroke-width:1;stroke-linecap:round;stroke-linejoin:round"
       d="m 123.9247,70.380566 c 2.2203,0.06797 1.33193,0.06117 2.66449,0.06117 0.13594,0 0.27188,0 0.40783,0 0.11594,0 0.17936,-0.01319 0.28548,0.03059 0.0169,0.007 0.0272,0.02447 0.0408,0.0367"
       id="path73362" />
    <path
       style="fill:none;stroke:#000000;stroke-width:1;stroke-linecap:round;stroke-linejoin:round"
       d="m 130.98015,69.077604 c 1.26327,-0.01137 0.0824,-0.0064 1.45459,0.0061 0.69366,0.0063 1.38827,0.0015 2.07993,-0.05505 0.17687,-0.01447 0.35305,-0.03831 0.53018,-0.04894 0.0453,-0.0027 0.0907,-0.0032 0.13594,-0.0061 0.0182,-0.0012 0.0387,0.0033 0.0544,-0.0061 0.007,-0.0039 -0.006,-0.01568 -0.0136,-0.01835 -0.0216,-0.0081 -0.0451,-0.0097 -0.068,-0.01224 -0.0859,-0.0097 -0.17209,-0.01762 -0.2583,-0.02447 -0.22975,-0.01824 -0.29486,-0.01641 -0.55736,0 -0.0456,0.0029 -0.0919,0.006 -0.13595,0.01835 -0.0296,0.0083 -0.0548,0.02777 -0.0816,0.04282 -0.0758,0.04264 -0.13252,0.06873 -0.16314,0.165166 -0.006,0.01951 0.01,0.04403 0.0272,0.05506 0.0719,0.04597 0.14982,0.08415 0.23111,0.11011 0.0609,0.01946 0.12661,0.01874 0.19032,0.02447 0.36753,0.03308 0.75029,-0.02769 1.07395,-0.214103 0.11568,-0.06663 0.24542,-0.171965 0.31266,-0.287509 0.0125,-0.02151 0.007,-0.05899 -0.0136,-0.07341 -0.18667,-0.132636 -0.51089,-0.179991 -0.73408,-0.183515 -0.30129,-0.0048 -0.63639,-0.02113 -0.91083,0.134577 -0.0454,0.02577 -0.0909,0.05619 -0.12235,0.09788 -0.0517,0.06845 -0.10536,0.142271 -0.12234,0.226335 -0.008,0.04012 0.0239,0.08273 0.0544,0.11011 0.0858,0.07719 0.18273,0.143266 0.28549,0.195751 0.0671,0.03426 0.14436,0.04322 0.21751,0.06117 0.16764,0.04115 0.30162,0.06874 0.4758,0.06729 0.1671,-0.0014 0.64835,0.01194 0.82925,-0.134577 0.0715,-0.05791 0.18406,-0.174012 0.13594,-0.226336 -0.0676,-0.07348 -0.20154,-0.125914 -0.29907,-0.146813 -0.0491,-0.01052 -0.0999,-0.0109 -0.14954,-0.01835 -0.0455,-0.0068 -0.0901,-0.01999 -0.13595,-0.02447 -0.0587,-0.0057 -0.1178,-0.0046 -0.17672,-0.0061 -0.0181,-4.76e-4 -0.0362,0 -0.0544,0 -0.0136,0 -0.0284,0.0056 -0.0408,0 -0.002,-6.87e-4 0.001,-0.02861 0,-0.04282 -0.004,-0.04086 -0.0112,-0.08138 -0.0136,-0.122343 -0.0118,-0.202315 0.009,-0.408836 0.0544,-0.605604 0.0181,-0.07813 0.0515,-0.151981 0.0816,-0.226337 0.11835,-0.29291 0.21966,-0.469424 0.43501,-0.746297 0.0691,-0.0888 0.15643,-0.162701 0.2447,-0.232453 0.34413,-0.27194 0.70156,-0.393615 1.12833,-0.550549 0.20711,-0.07616 0.71047,-0.185405 0.92441,-0.214101 0.5273,-0.07072 0.89072,-0.10109 1.38662,-0.122343 0.43944,-0.01883 0.87906,-0.01153 1.31865,-0.01835 0.13385,-0.0021 0.16138,-0.0076 0.28548,-0.01223 0.0136,-5.03e-4 0.0408,-0.01359 0.0408,0 0,0.01585 -0.0272,0.01631 -0.0408,0.02447"
       id="path73364" />
    <path
       style="fill:none;stroke:#000000;stroke-width:1;stroke-linecap:round;stroke-linejoin:round"
       d="m 134.93609,69.407932 c 0.37611,0.695321 0.59076,1.506353 1.12833,2.085964 0.2222,0.239578 0.64026,0.136816 0.9652,0.171282 0.50392,0.05345 1.10418,0.03063 1.61772,0.0061 0.0727,-0.0035 0.14529,-0.0095 0.2175,-0.01835 0.0277,-0.0034 0.0609,2.91e-4 0.0816,-0.01835 0.0135,-0.0122 -0.0362,-0.0053 -0.0544,-0.0061 -0.0272,-0.0012 -0.0544,-0.0012 -0.0816,0 -0.005,2.32e-4 -0.20312,0.0059 -0.25829,0.02447 -0.015,0.0051 -0.0275,0.01589 -0.0408,0.02447 -0.0184,0.01183 -0.0399,0.02036 -0.0544,0.0367 -0.005,0.0061 0,0.01631 0,0.02447 0,0.0464 -0.005,0.04042 0.0816,0.07341 0.0299,0.01138 0.0632,0.01054 0.0952,0.01223 0.0453,0.0024 0.0916,0.0094 0.13595,0 0.21188,-0.04469 0.44371,-0.122962 0.58455,-0.299742 0.0204,-0.02559 0.16604,-0.203391 0.14953,-0.28139 -0.0207,-0.09804 -0.26016,-0.12591 -0.27188,-0.128462 -0.0851,-0.01853 -0.31152,-0.02896 -0.39423,-0.0061 -0.13587,0.03752 -0.26953,0.08723 -0.39424,0.152929 -0.0635,0.03347 -0.11323,0.08906 -0.16313,0.140696 -0.1099,0.113743 -0.16436,0.205827 -0.14953,0.379266 0.005,0.06247 0.1574,0.13155 0.19032,0.140697 0.11126,0.03092 0.22481,0.05719 0.33985,0.06729 0.0725,0.0064 0.14533,-0.0092 0.21751,-0.01835 0.26463,-0.03349 0.31239,-0.05757 0.59815,-0.189631 0.0372,-0.01719 0.16889,-0.09208 0.17672,-0.159047 0.006,-0.05143 -0.001,-0.108237 -0.0272,-0.152931 -0.0227,-0.03877 -0.0701,-0.05664 -0.10876,-0.07952 -0.16577,-0.09815 -0.28028,-0.116339 -0.48939,-0.152932 -0.17004,-0.02976 -0.37783,0.02555 -0.4758,0.177399 -0.0202,0.03129 -0.0275,0.06922 -0.0408,0.103993 -0.0245,0.06409 -0.0489,0.08692 0,0.152929 0.0238,0.03212 0.20775,0.0109 0.23111,0.0061 0.0146,-0.003 0.0282,-0.0104 0.0408,-0.01835 0.0142,-0.009 0.0483,-0.03046 0.0136,-0.04894 -0.0432,-0.02295 -0.0906,-0.0367 -0.13594,-0.05505"
       id="path73366" />
    <path
       style="fill:none;stroke:#000000;stroke-width:1;stroke-linecap:round;stroke-linejoin:round"
       d="m 97.617821,42.857813 c -0.60586,0.02834 -1.256664,-0.07766 -1.845624,0.121111 -0.106531,0.03595 -0.207189,0.08782 -0.307593,0.138419 -0.38422,0.193642 -0.61574,0.294544 -0.922819,0.53636 -0.240192,0.189145 -0.237602,0.216887 -0.384501,0.536367 -0.02,0.04351 -0.04505,0.09099 -0.03846,0.138419 0.02514,0.181035 0.255389,0.235327 0.384515,0.27683 0.147085,0.04728 0.352568,0.04035 0.499857,0.0173 0.780696,-0.122188 1.010761,-0.227909 1.49957,-0.847799 0.06117,-0.07758 0.131773,-0.196151 0.03845,-0.294138 -0.2476,-0.25997 -0.657138,-0.351178 -0.999713,-0.34604 -0.46845,0.007 -1.023011,3.3e-5 -1.384215,0.363348 -0.200988,0.202162 -0.448354,0.400964 -0.422962,0.70938 0.0065,0.07897 0.02584,0.164344 0.07691,0.224928 0.09521,0.112945 0.217304,0.204411 0.346053,0.276831 0.08074,0.04541 0.178447,0.05037 0.269145,0.06921 0.351606,0.07302 0.749092,0.08052 1.076622,-0.08651 0.256242,-0.130678 0.697844,-0.587412 0.807464,-0.726688 0.0092,-0.01171 0.204568,-0.507098 0.19225,-0.55366 -0.107917,-0.407918 -0.270323,-0.509488 -0.615213,-0.640178 -0.124142,-0.04704 -0.252482,-0.08983 -0.384501,-0.103811 -1.122924,-0.118894 -1.725675,-0.01295 -2.537731,0.813191 -0.142966,0.145445 -0.275439,0.424971 -0.192264,0.640178 0.06896,0.178426 0.170943,0.350613 0.307606,0.484458 0.09037,0.08851 0.226859,0.113376 0.346054,0.155719 0.49082,0.174361 0.846389,0.150759 1.422676,0.138412 0.300909,-0.0064 0.919853,-0.117781 1.191964,-0.224922 0.60516,-0.238274 0.818747,-0.314226 1.191964,-0.692086 0.06931,-0.07017 0.154883,-0.133645 0.19225,-0.224922 0.05548,-0.135529 0.04631,-0.289342 0.07691,-0.432556 0.03352,-0.156852 0.255654,-0.389443 0.115342,-0.467151 -0.326128,-0.180616 -0.743528,-0.05571 -1.115056,-0.08651 -0.35651,-0.02955 -0.490312,-0.07007 -0.884372,-0.03461 -0.202794,0.01825 -0.665211,0.229359 -0.84591,0.328739 -0.03929,0.02161 -0.158029,0.05549 -0.115342,0.06921 0.122143,0.03926 0.256334,0.01153 0.384501,0.0173 0.384504,0.10958 0.763016,0.242925 1.153511,0.328741 0.163125,0.03585 0.333183,0.02389 0.499857,0.03461 3.003279,0.193071 -0.08107,0.0029 1.653373,0.08651 0.768847,0.03706 1.537553,0.07718 2.307021,0.103811 0.29467,0.0102 0.58977,0.0052 0.88437,0.0173 0.34529,0.01412 0.69315,0.0087 1.03816,0.03461 0.28796,0.0216 0.0307,0.0173 0.26915,0.0173 0.0385,0 0.1538,0 0.11535,0 -0.41487,0 -0.72335,-0.0341 -1.11505,0.15572 -0.0466,0.02256 -0.0755,0.07089 -0.11536,0.10381 -0.0361,0.0298 -0.2005,0.113073 -0.1538,0.207628 0.0178,0.03599 0.0769,0.02307 0.11535,0.0346 0.0384,0.01153 0.0753,0.0316 0.11535,0.0346 0.46462,0.03485 0.48455,0.0467 0.84591,-0.0346 0.116,-0.0261 0.23762,-0.03772 0.34605,-0.08651 0.16356,-0.0736 0.31183,-0.17785 0.46141,-0.27683 0.0688,-0.04551 0.13658,-0.09488 0.19225,-0.155719 0.0356,-0.03887 0.1538,-0.296056 0.1538,-0.328739 0,-0.0432 -0.20382,-0.138922 -0.26914,-0.15572 -0.29705,-0.07638 -1.46845,-0.350154 -1.69182,0.0519 -0.0287,0.05165 -0.0385,0.113944 -0.0385,0.173027 0,0.110327 -0.004,0.226714 0.0385,0.328739 0.0426,0.103646 0.30343,0.221603 0.3845,0.242222 0.42213,0.107364 0.6122,0.150319 0.99971,0.103818 0.22589,-0.02711 0.52119,-0.151855 0.69211,-0.25953 0.0547,-0.03443 0.0908,-0.09598 0.11535,-0.155719 0.0484,-0.117595 0.12342,-0.316038 0.0384,-0.449857 -0.13945,-0.21962 -0.57,-0.31842 -0.80746,-0.224922 -0.20234,0.07967 -0.24475,0.184118 -0.3845,0.380641 -0.0306,0.04301 -0.0628,0.08756 -0.0769,0.138418 -0.0123,0.04445 -0.01,0.09337 0,0.138412 0.0668,0.300692 0.27584,0.431057 0.57676,0.363347 0.13166,-0.02962 0.17272,-0.103256 0.2307,-0.207628 0.0499,-0.08983 0.049,-0.01754 0.0769,-0.155719 0.0148,-0.07349 0,-0.149948 0,-0.224921 0,-0.230696 0,-0.461391 0,-0.692087 0,-0.09804 -0.0178,-0.197726 0,-0.294131 0.0212,-0.114187 0.0727,-0.220704 0.11534,-0.328739 0.23128,-0.58659 0.20713,-0.715962 0.61522,-1.090028 0.23316,-0.213728 0.47021,-0.425938 0.73055,-0.605569 0.12725,-0.0878 0.27987,-0.131791 0.42296,-0.190328 0.13905,-0.05688 0.27683,-0.120789 0.42295,-0.155719 0.83911,-0.20059 1.71935,-0.212485 2.57619,-0.224922 0.22883,-0.0033 0.75859,-0.04804 0.96126,0.06921 0.0273,0.0158 0.0256,0.05767 0.0385,0.08651"
       id="path73368" />
    <path
       style="fill:none;stroke:#000000;stroke-width:1;stroke-linecap:round;stroke-linejoin:round"
       d="m 103.2316,43.359572 c 0.41014,1.136168 0.71806,2.314619 1.23041,3.408503 0.10342,0.220798 0.35611,0.346142 0.57677,0.44985 1.0438,0.490569 2.11075,0.449857 3.22984,0.449857 0.15391,0 0.3075,-0.0173 0.46141,-0.0173"
       id="path73370" />
    <path
       style="fill:none;stroke:#000000;stroke-width:1;stroke-linecap:round;stroke-linejoin:round"
       d="m 113.15183,42.961624 c 3.56452,0.03565 2.32305,0.22656 3.76814,-0.0173"
       id="path73372" />
    <path
       style="fill:none;stroke:#000000;stroke-width:1;stroke-linecap:round;stroke-linejoin:round"
       d="m 113.49788,45.401209 c 1.35975,0.04089 2.77003,0.449713 4.15266,0.311439"
       id="path73374" />
    <path
       style="fill:none;stroke:#000000;stroke-width:1;stroke-linecap:round;stroke-linejoin:round"
       d="m 126.34034,39.085971 c -0.89717,0.374876 -1.87062,0.603514 -2.69153,1.124629 -0.16612,0.105455 0.34278,0.220232 0.53832,0.242229 0.63431,0.07136 1.06765,-0.02381 1.57646,-0.34604 0.0377,-0.02388 1.06871,-0.722451 0.57675,-1.020818 -0.28646,-0.173736 -0.67362,0.02695 -0.99971,0.10381 -0.37041,0.08731 -0.88593,0.375033 -1.07661,0.743988 -0.22503,0.435423 -0.30319,0.427348 -0.0384,0.69208 0.26718,0.267166 0.42385,0.244831 0.88436,0.311439 0.61612,0.08911 1.25233,-0.233081 1.76873,-0.501759 0.20047,-0.104301 0.45014,-0.304943 0.57675,-0.50176 0.0797,-0.123896 0.13559,-0.261962 0.19225,-0.397948 0.0206,-0.04935 0.052,-0.103993 0.0384,-0.155719 -0.0152,-0.05811 -0.0616,-0.111674 -0.11534,-0.138419 -0.56991,-0.283442 -0.62424,-0.260992 -1.23043,-0.155712 -0.52774,0.09166 -1.06789,0.143298 -1.57646,0.311431 -0.13854,0.0458 -0.22736,0.189573 -0.30761,0.311439 -0.18904,0.287087 -0.40096,0.550245 -0.26914,0.882407 0.0335,0.08442 0.0759,0.178194 0.15379,0.224921 0.48055,0.28832 1.06941,0.363669 1.61492,0.25953 0.6469,-0.123494 1.30647,-0.269358 1.49957,-0.98621 0.0725,-0.26922 -0.43168,-0.496126 -0.5383,-0.570968 -0.19669,-0.138071 -0.33645,-0.43255 -0.57677,-0.43255 -0.2941,0 -0.51266,0.288366 -0.769,0.43255"
       id="path73376" />
    <path
       style="fill:none;stroke:#000000;stroke-width:1;stroke-linecap:round;stroke-linejoin:round"
       d="m 126.34034,39.899161 c 4.5943,-0.03334 3.5191,-0.009 6.72884,-0.06921 0.35826,-0.0067 1.02427,0.02043 1.42267,-0.0692"
       id="path73378" />
    <path
       style="fill:none;stroke:#000000;stroke-width:1;stroke-linecap:round;stroke-linejoin:round"
       d="m 126.60949,45.435816 c 0.0513,0.02307 0.11781,0.02602 0.15381,0.06921 0.0169,0.02027 -0.0209,0.04949 -0.0384,0.06921 -0.12103,0.136145 -0.28198,0.230693 -0.42296,0.34604 -0.0401,0.03276 -0.0682,0.08258 -0.11536,0.10381 -0.14148,0.06366 -0.67661,0.0358 -0.69211,0.0346 -0.0662,-0.005 -0.13045,-0.02758 -0.19225,-0.0519 -0.0417,-0.01643 -0.13384,-0.02838 -0.11534,-0.06921 0.12739,-0.280873 0.26526,-0.578381 0.49986,-0.778589 0.35242,-0.30077 1.53988,-0.142538 1.88407,-0.103818 0.1169,0.01315 0.23212,0.03991 0.34605,0.06921 0.20445,0.05258 0.26915,0.06642 0.26915,0.328739 0,0.06337 -0.2237,0.323539 -0.2307,0.328739 -0.12998,0.09748 -0.27121,0.184189 -0.42296,0.242229 -0.36982,0.141452 -1.27975,0.03166 -1.57647,-0.0173 -0.10677,-0.01762 -0.2749,-6.73e-4 -0.3076,-0.103818 -0.3377,-1.063729 0.24316,-0.744488 0.88437,-0.605569 0.0687,0.01488 0.15455,0.02718 0.19225,0.08651 0.0286,0.04514 -9e-4,0.117679 -0.0385,0.155719 -0.49191,0.498037 -1.08789,0.825127 -1.80716,0.640178 -0.16824,-0.04326 -0.37881,-0.08942 -0.46141,-0.242229 -0.23598,-0.436538 1.34467,-1.381649 1.26887,-0.77859 1.12451,0.337343 0.63718,0.272956 1.69182,0.311432 0.21781,0.0079 0.43569,0.0173 0.65364,0.0173 0.88518,0 1.60432,-0.01854 2.46084,-0.0346 0.32042,-0.006 0.6411,-0.0033 0.96127,-0.0173 0.85207,-0.03728 1.78414,-0.10559 2.65308,-0.15572 0.78197,-0.04511 1.56226,-0.08651 2.34549,-0.08651 0.12816,0 0.25633,0 0.3845,0 0.01,0 0.23069,-0.01105 0.23069,0.0346 0,0.03845 -0.0769,0 -0.11534,0"
       id="path73380" />
  </g>
</svg>
