<?xml version="1.0" encoding="UTF-8" standalone="no"?>
<!-- Created with Inkscape (http://www.inkscape.org/) -->

<svg
   width="95.001701mm"
   height="60.362293mm"
   viewBox="0 0 95.001698 60.362294"
   version="1.1"
   id="svg5"
   sodipodi:docname="gate-eqs.svg"
   inkscape:version="1.2.2 (b0a8486541, 2022-12-01)"
   xmlns:inkscape="http://www.inkscape.org/namespaces/inkscape"
   xmlns:sodipodi="http://sodipodi.sourceforge.net/DTD/sodipodi-0.dtd"
   xmlns="http://www.w3.org/2000/svg"
   xmlns:svg="http://www.w3.org/2000/svg">
  <sodipodi:namedview
     id="namedview7"
     pagecolor="#ffffff"
     bordercolor="#666666"
     borderopacity="1.0"
     inkscape:showpageshadow="2"
     inkscape:pageopacity="0.0"
     inkscape:pagecheckerboard="0"
     inkscape:deskcolor="#d1d1d1"
     inkscape:document-units="mm"
     showgrid="false"
     inkscape:zoom="3.2777308"
     inkscape:cx="99.764141"
     inkscape:cy="155.29036"
     inkscape:window-width="2560"
     inkscape:window-height="1372"
     inkscape:window-x="0"
     inkscape:window-y="32"
     inkscape:window-maximized="1"
     inkscape:current-layer="layer1"
     showguides="true" />
  <defs
     id="defs2" />
  <g
     inkscape:label="Layer 1"
     inkscape:groupmode="layer"
     id="layer1"
     transform="translate(-127.26849,-73.049976)">
    <path
       style="fill:none;fill-opacity:1;stroke:#000000;stroke-width:1;stroke-linecap:round;stroke-linejoin:round"
       d="m 146.27315,75.396768 c -0.006,0.147068 -0.0235,0.294059 -0.0192,0.441204 0.002,0.07319 0.0233,0.144639 0.0385,0.216275 0.0361,0.170646 0.0815,0.339288 0.11535,0.510409 0.0731,0.369856 0.0687,0.769315 0.0769,1.141936 0.004,0.196043 0,0.39218 0,0.588269 0,0.201857 0.004,0.403759 0,0.60557 -0.002,0.10111 -0.0161,0.201705 -0.0192,0.302788 -0.003,0.103761 0.002,0.207646 0,0.311435 -0.004,0.204797 -0.0149,0.409427 -0.0192,0.614223 -0.002,0.100906 0.003,0.201904 0,0.302785 -0.0127,0.418312 -0.0492,0.836807 -0.0769,1.254401 -0.006,0.0923 -0.017,0.184359 -0.0192,0.276831 -0.0124,0.51779 0,1.039225 0,1.557184 0,0.285485 0,0.570971 0,0.856454 0,0.06056 -0.003,0.1212 0,0.181665 0.0125,0.231413 0.0641,0.46069 0.0769,0.692087 0.003,0.05759 0,0.115347 0,0.173021 0.006,0.115345 0.0106,0.230841 0.0192,0.346038 0.004,0.05501 0.0161,0.109294 0.0192,0.164367 0.003,0.05758 -0.002,0.115385 0,0.173019 0.0101,0.276413 0.0306,0.553506 0.0192,0.830498 -0.004,0.103923 -0.015,0.207516 -0.0192,0.311439 -0.002,0.05475 0.004,0.109762 0,0.164375 -0.0129,0.159242 -0.0376,0.317314 -0.0577,0.475802 -0.006,0.04621 -0.0128,0.09228 -0.0192,0.138412 -0.0128,0.04614 -0.0313,0.09107 -0.0385,0.138419 -0.0671,0.442982 0.016,0.08149 -0.0384,0.363342 -0.0221,0.1142 -0.0557,0.228267 -0.0961,0.337391 -0.0166,0.04486 -0.0395,0.07149 -0.0192,0.06921 0.0279,-0.0031 0.0513,-0.02307 0.0769,-0.03461"
       id="path43279" />
    <path
       style="fill:#ddf1fb;fill-opacity:1;fill-rule:nonzero;stroke:#000000;stroke-width:1;stroke-linecap:round;stroke-linejoin:round"
       d="m 145.96555,89.385467 c 0.14099,0.04037 0.27955,0.09043 0.42296,0.121113 0.74294,0.158938 1.49246,0.211455 2.24935,0.259535 0.92781,0.05894 1.84111,-0.0044 2.76843,-0.08651 0.37484,-0.03318 1.2841,-0.166603 1.65338,-0.233582 0.32807,-0.05951 1.84344,-0.347689 2.42238,-0.48446 0.25768,-0.06088 0.51323,-0.130532 0.76901,-0.198967 0.85586,-0.228991 1.70613,-0.455541 2.53773,-0.761296 0.72747,-0.26747 1.44865,-0.553307 2.17245,-0.830498 1.18571,-0.454083 0.90629,-0.325078 1.7495,-0.683427 0.66716,-0.283527 0.5534,-0.235677 1.34577,-0.64883 0.1462,-0.07623 0.57354,-0.30916 0.71134,-0.406595 0.27086,-0.191527 0.64202,-0.483696 0.90358,-0.726689 0.28632,-0.265994 0.57904,-0.597011 0.82668,-0.882399 0.0872,-0.100533 0.1679,-0.20661 0.24993,-0.311438 0.27598,-0.352684 0.53318,-0.728623 0.69211,-1.150583 0.11996,-0.318487 0.16686,-0.657669 0.19226,-0.994873 0.007,-0.0865 0.0192,-0.172781 0.0192,-0.25953 0,-0.167375 -0.015,-0.334435 -0.0192,-0.501757 -0.002,-0.08648 0.01,-0.173586 0,-0.25953 -0.009,-0.08246 -0.0323,-0.163208 -0.0577,-0.242229 -0.1288,-0.400884 -0.13247,-0.402584 -0.28838,-0.700734 -0.0379,-0.0724 -0.0671,-0.150302 -0.11535,-0.216275 -0.0806,-0.110364 -0.38693,-0.477992 -0.5383,-0.614223 -0.17623,-0.158598 -0.67718,-0.507353 -0.78825,-0.588269 -0.40284,-0.293488 -0.80285,-0.605324 -1.24963,-0.830498 -0.46353,-0.233612 -0.96474,-0.382722 -1.46112,-0.527713 -0.37787,-0.110373 -0.75424,-0.226131 -1.13429,-0.328739 -0.58345,-0.157525 -1.17626,-0.280644 -1.76872,-0.397945 -0.42226,-0.0836 -0.84239,-0.173607 -1.26887,-0.233579 -0.30722,-0.0432 -0.61489,-0.08332 -0.92282,-0.121115 -0.10873,-0.01334 -0.21834,-0.01935 -0.32682,-0.0346 -1.64548,-0.231386 0.0893,-0.01687 -0.90359,-0.121114 -0.09,-0.0094 -0.17894,-0.02799 -0.26915,-0.0346 -0.18555,-0.01359 -0.37174,-0.01623 -0.55754,-0.02595 -0.50665,-0.02651 -1.01207,-0.08101 -1.51879,-0.103814 -0.17295,-0.0078 -0.34612,-0.0097 -0.51908,-0.0173 -0.15542,-0.0068 -0.36251,-0.0258 -0.51908,-0.0346 -0.60077,-0.03379 -1.20552,-0.06056 -1.80718,-0.06056 -0.22429,0 -0.44861,0.003 -0.67288,0 -0.32679,-0.0043 -0.65374,-0.0186 -0.98049,-0.02596 -0.1922,-0.0043 -0.38453,0.0029 -0.57676,0 -0.81964,-0.01229 -1.64184,-0.04094 -2.46083,0 -0.17258,0.0086 -0.3464,-0.0065 -0.51908,0 -0.0258,9.79e-4 -0.0512,0.007 -0.0769,0.0086 -0.0192,0.0012 -0.0387,-0.0029 -0.0577,0 -0.11072,0.01661 -0.004,0.02041 -0.11535,0.02595 -0.0384,0.0019 -0.0769,0 -0.11535,0 -0.0192,0 -0.0577,-0.01923 -0.0577,0 0,0.02007 0.0469,3.44e-4 0.0577,0.0173 0.0189,0.02971 0.0128,0.06921 0.0192,0.103814"
       id="path43295" />
    <path
       style="fill:none;fill-opacity:1;stroke:#000000;stroke-width:1;stroke-linecap:round;stroke-linejoin:round"
       d="m 148.5994,83.373007 c 0.0577,-0.08651 0.12884,-0.165415 0.17303,-0.25953 0.11605,-0.247166 0.22311,-0.774933 0.26915,-1.029473 4e-5,-2.14e-4 0.0769,-0.553445 0.0769,-0.553659 0.0258,-0.187423 0.0547,-0.374443 0.0769,-0.562319 0.01,-0.08329 0.006,-0.168122 0.0192,-0.25088 0.0121,-0.07362 0.0417,-0.143385 0.0577,-0.216274 0.11531,-0.527532 -0.003,-0.165333 0.0961,-0.389299 0.0144,-0.03251 0.0241,-0.08027 0.0385,-0.07786 0.10185,0.01719 0.3875,0.204705 0.4614,0.25953 0.45126,0.334775 0.46043,0.327633 0.76901,0.674779 0.0855,0.09616 0.17618,0.188714 0.24993,0.294135 0.26722,0.381952 0.48247,0.79494 0.74979,1.176538 0.12756,0.182097 0.25441,0.364713 0.3845,0.545013 0.0747,0.103471 0.13165,0.156901 0.21148,0.25953 0.008,0.01042 0.029,0.02577 0.0192,0.03461 -0.0195,0.01757 -0.0513,0.01154 -0.0769,0.0173"
       id="path43301" />
    <path
       style="fill:none;fill-opacity:1;stroke:#000000;stroke-width:1;stroke-linecap:round;stroke-linejoin:round"
       d="m 148.2149,82.36949 c 0.87824,0.0208 1.75592,0.0085 2.63386,-0.0087 0.2441,-0.0048 0.49663,-0.0097 0.73056,0.06921"
       id="path43303" />
    <path
       style="fill:none;fill-opacity:1;stroke:#000000;stroke-width:1;stroke-linecap:round;stroke-linejoin:round"
       d="m 153.17502,83.390313 c 0.10021,-0.237733 0.16601,-0.490318 0.21147,-0.743987 0.0591,-0.329877 0.0517,-0.299112 0.0769,-0.570968 0.006,-0.06921 0.0192,-0.138123 0.0192,-0.207629 0,-0.269812 -0.0135,-0.404075 -0.0385,-0.640173 -0.0165,-0.156017 -0.02,-0.213998 -0.0577,-0.371994 -0.004,-0.01535 -0.035,-0.04326 -0.0192,-0.04326 0.024,0 0.038,0.02953 0.0577,0.04326 0.0508,0.03531 0.10268,0.069 0.1538,0.103812 0.18599,0.12667 0.37355,0.251069 0.55753,0.380646 0.52848,0.372221 1.01369,0.801534 1.57647,1.124632 0.0887,0.0509 0.17637,0.104122 0.26915,0.147066 0.13187,0.06103 0.26731,0.114353 0.40373,0.164373 0.037,0.01357 0.0769,0.0173 0.11535,0.02596 0.0256,0.0058 0.0515,0.02384 0.0769,0.0173 0.10328,-0.02656 0.0933,-0.264747 0.0961,-0.285483 0.009,-0.06318 0.0164,-0.126621 0.0192,-0.19032 0.004,-0.08066 -0.002,-0.161515 0,-0.242228 0.004,-0.161558 0.0148,-0.322908 0.0192,-0.48446 0.01,-0.362813 0,-0.726988 0,-1.090031"
       id="path43307" />
    <path
       style="fill:none;fill-opacity:1;stroke:#000000;stroke-width:1;stroke-linecap:round;stroke-linejoin:round"
       d="m 158.38506,80.518172 c 0.13831,0.688688 0.40275,1.349411 0.48063,2.050292 0.0143,0.128617 0.0504,0.471668 -0.0192,0.596921"
       id="path43309" />
    <path
       style="fill:none;fill-opacity:1;stroke:#000000;stroke-width:1;stroke-linecap:round;stroke-linejoin:round"
       d="m 158.11591,80.656591 c 1.83125,-0.425032 1.60893,-0.549899 3.36442,-0.346044 0.28773,0.03341 0.57975,0.08465 0.84591,0.198975 0.30536,0.131162 0.59226,0.312978 0.84591,0.527714 0.20432,0.172974 0.39304,0.618612 0.42295,0.882404 0.015,0.132419 0.007,0.272629 -0.0385,0.397946 -0.17988,0.497221 -0.84152,0.777452 -1.23041,0.986219 -0.21026,0.112868 -0.36549,0.145433 -0.59599,0.198967 -0.49634,0.115279 -1.01105,0.133426 -1.51879,0.15572 -0.21145,0.0093 -0.42291,0.01863 -0.63443,0.02596 -0.032,0.0011 -0.0641,-0.0013 -0.0961,0 -0.0449,0.0016 -0.0899,0.01368 -0.13458,0.0087 -0.0107,-0.0013 -0.0128,-0.0173 -0.0192,-0.02596"
       id="path43311" />
    <path
       style="fill:none;fill-opacity:1;stroke:#000000;stroke-width:1;stroke-linecap:round;stroke-linejoin:round"
       d="m 146.11935,78.095887 c -0.98933,0.130935 -0.52786,0.08595 -1.8264,0.155719 -0.46771,0.02513 -0.93528,0.05478 -1.40344,0.06921 -1.23652,0.03811 -2.47407,0.0069 -3.71048,-0.0173 -0.3591,-0.007 -0.71784,-0.02883 -1.07661,-0.0086 -0.0194,0.0011 -0.18854,0.0061 -0.19225,0.0086 -0.0143,0.0097 0,0.0346 0,0.05191"
       id="path43313" />
    <path
       style="fill:none;fill-opacity:1;stroke:#000000;stroke-width:1;stroke-linecap:round;stroke-linejoin:round"
       d="m 145.94632,85.189723 c -0.0769,-0.0087 -0.15337,-0.02297 -0.2307,-0.02596 -0.42905,-0.01656 -0.86002,0.01193 -1.28809,0.03461 -0.39089,0.02069 -0.78185,0.03994 -1.17274,0.06056 -1.20192,0.06338 -1.41609,0.08661 -2.63386,0.112464 -0.4549,0.0097 -0.91012,-0.01077 -1.36499,0 -0.38467,0.0091 -0.76908,0.02716 -1.15352,0.04325 -0.47611,0.01992 -0.949,0.06079 -1.42267,0.112463 -0.10622,0.01159 -0.0931,0.01061 -0.17303,0.0346 -0.0192,0.0058 -0.074,0.0056 -0.0577,0.0173 0.0439,0.03162 0.10289,0.03358 0.1538,0.05191 0.0773,0.02782 0.1538,0.05767 0.2307,0.08651"
       id="path43319" />
    <path
       style="fill:none;fill-opacity:1;stroke:#000000;stroke-width:1;stroke-linecap:round;stroke-linejoin:round"
       d="m 167.94001,81.115095 c 0.25634,0.02884 0.51151,0.0713 0.76901,0.08651 1.72524,0.101891 3.44475,0.124372 5.17159,0.09516 0.77671,-0.01315 1.55116,-0.03484 2.32626,-0.08651 0.0769,-0.0051 0.15373,-0.01259 0.2307,-0.0173 0.064,-0.0039 0.12814,-0.0066 0.19225,-0.0087 0.0256,-7.93e-4 0.0515,0.0033 0.0769,0 0.0199,-0.0026 0.0479,2.44e-4 0.0577,-0.0173 0.009,-0.01614 -0.0128,-0.0346 -0.0192,-0.05191"
       id="path43321" />
    <path
       style="fill:none;fill-opacity:1;fill-rule:nonzero;stroke:#000000;stroke-width:1;stroke-linecap:round;stroke-linejoin:round"
       d="m 145.88865,74.91231 c -0.055,0.298164 0.0231,0.586328 0.0384,0.882407 0.009,0.177136 -0.0156,0.06591 0.0192,0.242226 0.0369,0.186576 0.0876,0.379175 0.0961,0.570968 0.006,0.135399 0,0.271066 0,0.406598 0,0.222043 0,0.444086 0,0.666129 0,0.152969 -0.008,0.313628 0,0.467154 0.004,0.07801 0.015,0.155571 0.0192,0.233579 0.002,0.04031 -0.003,0.08087 0,0.121115 0.003,0.04075 0.0171,0.08029 0.0192,0.121114 0.0243,0.459342 0.004,0.08354 -0.0192,0.34604 -0.003,0.03734 0.002,0.07503 0,0.112465 0.0196,0.121956 -0.029,0.23614 -0.0385,0.354689 -0.009,0.114987 0,0.230696 0,0.346044 0,0.190321 0,0.380643 0,0.570965 0,0.241533 -0.01,0.485284 0,0.726687 0.0116,0.280765 0.0281,0.559776 0.0577,0.83915 0.0251,0.236992 0.10182,0.464833 0.13458,0.700733 0.006,0.05767 0.0128,0.115345 0.0192,0.173019 0,0.02884 -0.003,0.05783 0,0.08651 0.0108,0.102171 0.0451,0.200816 0.0577,0.302784 0.004,0.03434 -0.003,0.06937 0,0.103809 0.003,0.03221 0.0128,0.06344 0.0192,0.09516 0.006,0.06632 0.0151,0.132466 0.0192,0.198975 0.0104,0.168862 0,0.34137 0,0.510413 0,0.129765 0,0.25953 0,0.389294 0,0.08074 0.007,0.161756 0,0.242229 -0.002,0.02664 -0.0161,0.0513 -0.0192,0.07786 -0.003,0.02864 0,0.05767 0,0.08651 0,0.162819 0.007,0.323183 -0.0192,0.48446 -0.004,0.02638 -0.0158,0.05135 -0.0192,0.07786 -0.008,0.06291 0.007,0.127272 0,0.190325 -0.002,0.01834 -0.0165,0.03365 -0.0192,0.0519 -0.0105,0.07131 0.006,0.144465 0,0.216275 -0.002,0.02663 -0.016,0.05133 -0.0192,0.07786 -0.003,0.02574 0,0.0519 0,0.07786 0,0.129765 0,0.25953 0,0.389295 0,0.05191 0.004,0.104002 0,0.15572 -0.002,0.02387 -0.0157,0.04552 -0.0192,0.06921 -0.0322,0.217213 0.064,-0.182843 -0.0192,0.173022 -0.004,0.01797 -0.0161,0.03372 -0.0192,0.05191 -0.0112,0.06541 0,0.141083 0,0.207621 0,0.107561 0.002,-0.02829 -0.0192,0.181673 -0.007,0.06558 0.008,0.13357 0,0.198975 -0.003,0.02376 -0.0157,0.04552 -0.0192,0.06921 -0.003,0.01998 0.004,0.04077 0,0.06055 -0.009,0.04422 -0.0299,0.08547 -0.0385,0.129765 -0.004,0.02265 0.003,0.04639 0,0.06921 -0.003,0.02096 -0.0154,0.03973 -0.0192,0.06056 -0.0758,0.409463 0.009,-0.02662 -0.0192,0.224927 -0.004,0.03216 -0.014,0.06323 -0.0192,0.09516 -0.008,0.04596 -0.0145,0.09207 -0.0192,0.138419 -0.002,0.01722 0.003,0.03485 0,0.05191 -0.004,0.02088 -0.0142,0.03999 -0.0192,0.06056 -0.008,0.03142 -0.0119,0.06365 -0.0192,0.09516 -0.0194,0.08293 -0.0554,0.160145 -0.0769,0.242229 -0.003,0.01117 0,0.02307 0,0.0346 -0.0128,0.03172 -0.0246,0.0639 -0.0384,0.09516 -0.0243,0.05464 -0.017,0.01508 -0.0385,0.07786 -0.008,0.02265 -0.0109,0.04676 -0.0192,0.06921 -0.005,0.01238 -0.0157,0.02188 -0.0192,0.0346 -0.003,0.01111 0.002,0.02334 0,0.03461 -0.006,0.02826 -0.0267,0.104304 -0.0384,0.07786 -0.009,-0.02109 0.003,-0.04633 0,-0.06921 -0.003,-0.02651 -0.0128,-0.0519 -0.0192,-0.07786"
       id="path43504" />
    <path
       style="fill:#6ae4a3;stroke:#000000;stroke-width:1;stroke-linecap:round;stroke-linejoin:round"
       d="m 131.32561,74.449744 c -0.0128,0.129764 -0.0293,0.259218 -0.0385,0.389294 -0.005,0.07321 -0.0194,0.556692 -0.0385,0.692083 -0.0136,0.09613 -0.0415,0.189763 -0.0577,0.285484 -0.0351,0.207134 -0.0575,0.416368 -0.0961,0.622874 -0.0191,0.10236 -0.0574,0.200491 -0.0769,0.302785 -0.019,0.09994 -0.023,0.202231 -0.0384,0.302784 -0.0294,0.190752 -0.0673,0.380132 -0.0961,0.570969 -0.0594,0.393026 -0.0242,0.249627 -0.0577,0.648828 -0.0165,0.19634 -0.0345,0.392601 -0.0577,0.588269 -0.009,0.07554 -0.028,0.149585 -0.0385,0.224925 -0.0285,0.205187 -0.0192,0.237916 -0.0192,0.467157 0,0.06632 -0.008,0.133121 0,0.198971 0.0143,0.118929 0.0274,0.238805 0.0577,0.354694 0.0161,0.06147 0.0435,0.11975 0.0577,0.18167 0.0156,0.06773 -0.0235,0.143206 0.0385,0.198974 0.16264,0.146376 0.38926,0.160529 0.59598,0.18167 0.23088,0.02361 0.46098,0.04841 0.69212,0.06921 0.68444,0.06159 1.36926,0.104262 2.05709,0.09516 0.29979,-0.004 0.65844,-0.02502 0.94204,-0.04326 1.25287,-0.08054 -0.63766,0.02864 0.61521,-0.05191 0.40218,-0.02586 0.80786,-0.051 1.21119,-0.06056 0.21144,-0.005 0.42303,-0.015 0.63444,-0.0087 0.0899,0.0027 0.17932,0.01363 0.26915,0.0173 0.0876,0.0036 0.22195,0.02993 0.26915,-0.06921 0.0115,-0.02414 0.0111,-0.05238 0.0192,-0.07786 0.0112,-0.03517 0.0316,-0.06755 0.0385,-0.10381 0.0189,-0.09997 0.0262,-0.201786 0.0385,-0.302785 0.007,-0.05761 0.0161,-0.115079 0.0192,-0.173023 0.003,-0.06047 -0.004,-0.121229 0,-0.18167 0.0196,-0.317507 0.0619,-0.633686 0.0769,-0.951613 0.0222,-0.469033 0.0192,-0.43663 0.0192,-0.795894 0,-0.239344 0.006,-0.478777 0,-0.718034 -0.002,-0.08097 -0.016,-0.161297 -0.0192,-0.242229 -0.003,-0.0778 0.002,-0.155746 0,-0.233579 -0.004,-0.167318 -0.0149,-0.334439 -0.0192,-0.501759 -0.002,-0.08072 0.003,-0.161551 0,-0.242229 -0.003,-0.07806 -0.0147,-0.155586 -0.0192,-0.233574 -0.0469,-0.200745 -0.009,-0.403896 -0.0192,-0.605573 -0.0124,-0.234265 -0.0453,-0.471983 -0.0961,-0.700733 -0.0509,-0.229206 -0.0477,-0.217727 -0.11536,-0.501759 -0.0442,-0.18565 -0.0667,-0.235424 -0.19225,-0.380645 -0.0113,-0.01304 -0.0223,-0.02865 -0.0384,-0.0346 -0.11838,-0.04359 -0.24112,-0.05327 -0.36528,-0.06056 -0.27044,-0.01587 -0.53683,-0.0173 -0.80746,-0.0173 -1.01456,0 -2.02469,0.04361 -3.03759,0.103814 -0.56344,0.03349 -1.12733,0.06921 -1.69182,0.06921 -0.23763,0 -0.47408,0.0076 -0.71134,0.0173 -0.0798,0.0033 -0.17085,-0.01068 -0.24992,0 -0.0704,0.0095 -0.11061,0.03247 -0.17303,0.06056"
       id="path79175" />
    <path
       style="fill:#6ae4a3;stroke:#000000;stroke-width:1;stroke-linecap:round;stroke-linejoin:round"
       d="m 133.20968,76.361619 c 0.0577,0.10958 0.11705,0.218285 0.17303,0.328739 0.0273,0.05396 0.0487,0.110842 0.0769,0.16437 0.25388,0.482361 -0.12376,-0.311406 0.28838,0.501759 0.025,0.04937 0.032,0.106669 0.0577,0.155719 0.026,0.04978 0.0665,0.09068 0.0961,0.138415 0.0264,0.0426 0.15413,0.260278 0.19225,0.34604 0.015,0.03372 0.0219,0.07083 0.0384,0.103814 0.0392,0.07809 0.0797,0.15697 0.13458,0.224925 0.0108,0.01341 0.0263,0.02234 0.0385,0.0346 0.0136,0.01373 0.0221,0.05354 0.0385,0.04326 0.009,-0.0057 0.11316,-0.2122 0.11535,-0.216275 0.10759,-0.199709 0.21896,-0.397363 0.32683,-0.596919 0.0642,-0.11866 0.15627,-0.30066 0.23071,-0.415249 0.15697,-0.241639 0.21936,-0.322088 0.36528,-0.519063 0.12483,-0.168527 0.24331,-0.346454 0.3845,-0.501759 0.0303,-0.03336 0.0626,-0.065 0.0961,-0.09516 0.0115,-0.01034 0.0243,-0.0323 0.0384,-0.02595 0.012,0.0054 -0.01,0.02532 -0.0192,0.0346 -0.0232,0.02295 -0.0513,0.04037 -0.0769,0.06055"
       id="path79177" />
    <path
       style="fill:#6ae4a3;stroke:#000000;stroke-width:1;stroke-linecap:round;stroke-linejoin:round"
       d="m 130.6335,83.386248 c 0.0675,0.121416 0.19912,0.317099 0.2307,0.475805 0.0622,0.312782 0.0853,0.684534 0.0384,1.003522 -0.0358,0.243731 -0.0884,0.484712 -0.13457,0.726687 -0.0942,0.493099 -0.19384,0.991013 -0.3076,1.479323 -0.21318,0.914963 0.0128,-0.203413 -0.17303,0.674778 -0.0704,0.332448 -0.13349,0.668567 -0.19226,1.003518 -0.008,0.04588 -0.0111,0.09256 -0.0192,0.138419 -0.004,0.02098 -0.0423,0.104412 0,0.129765 0.0402,0.02411 0.17433,0.0173 0.21148,0.0173 0.22429,0 0.44859,0 0.67288,0 0.65376,0 1.30729,0.0043 1.96097,0.0087 0.31391,0.0021 0.91514,0.01255 1.28809,0.0086 0.36531,-0.0038 0.73057,-0.01085 1.09584,-0.0173 0.37495,-0.0066 0.19512,-0.01306 0.55754,-0.0087 0.14741,0.0018 0.29488,0.0026 0.44218,0.0087 0.14569,0.006 0.24,0.02592 0.3845,0.04326 0.17296,0.02075 0.34559,0.04494 0.51909,0.06056 0.18426,0.01658 0.37259,0.02285 0.55753,0.0173 0.0449,-0.0014 0.0896,-0.0077 0.13457,-0.0086 0.19333,-0.004 0.38389,4.76e-4 0.57676,-0.0087 0.0769,-0.0036 0.15386,-0.0046 0.23071,-0.0086 0.0321,-0.0017 0.0678,0.0066 0.0961,-0.0087 0.11413,-0.06163 0.0835,-0.07847 0.11535,-0.164367 0.011,-0.02959 0.0294,-0.05629 0.0385,-0.08652 0.0541,-0.180113 0.0769,-0.334236 0.0769,-0.51906 0,-0.112462 0.004,-0.224998 0,-0.337386 -0.002,-0.06372 -0.013,-0.126871 -0.0192,-0.190327 -0.0258,-0.261517 -0.0244,-0.293526 -0.0769,-0.614224 -0.0223,-0.136121 -0.0539,-0.270591 -0.0769,-0.406595 -0.0219,-0.129345 -0.0324,-0.260565 -0.0577,-0.389295 -0.0133,-0.06776 -0.0415,-0.131849 -0.0577,-0.198974 -0.0482,-0.199741 -0.0764,-0.403816 -0.11535,-0.605569 -0.0926,-0.479279 0.0109,0.111262 -0.0577,-0.397949 -0.1096,-0.813803 -0.011,-0.04686 -0.0961,-0.545014 -0.009,-0.05155 -0.0128,-0.103812 -0.0192,-0.155719 -0.0128,-0.100928 -0.0206,-0.202617 -0.0385,-0.302785 -0.008,-0.04442 -0.0287,-0.08572 -0.0384,-0.129765 -0.009,-0.04269 -0.01,-0.08703 -0.0192,-0.129765 -0.0332,-0.153319 -0.0766,-0.274371 -0.13458,-0.415249 -0.0194,-0.04704 -0.0681,-0.219633 -0.11535,-0.268183 -0.0755,-0.07765 -0.13826,-0.08817 -0.2307,-0.129765 -0.2185,-0.09832 -0.45676,-0.101259 -0.69211,-0.121115 -0.33527,-0.02828 0.0441,-0.01255 -0.34605,-0.0173 -0.46324,-0.0056 -0.43059,-0.01641 -0.80746,0 -0.89183,0.03884 -1.77943,0.152418 -2.67232,0.17302 -0.46788,0.0108 -0.93548,0.0086 -1.40344,0.0086 -0.2885,0 -0.57703,0.0097 -0.86513,0.02596 -0.0642,0.0036 -0.13239,-0.0063 -0.19226,0.0173 -0.0978,0.03851 -0.17943,0.10958 -0.26915,0.164369 z"
       id="path79183" />
    <path
       style="fill:#6ae4a3;stroke:#000000;stroke-width:1;stroke-linecap:round;stroke-linejoin:round"
       d="m 132.17152,84.91748 c -0.0572,0.347483 -0.0929,0.406283 -0.0769,0.700729 0.009,0.158888 0.0207,0.317689 0.0385,0.475812 0.003,0.03037 0.0616,0.336458 0.0769,0.380641 0.0303,0.08764 0.0625,0.213414 0.1538,0.268183 0.14024,0.08415 0.31448,-0.08656 0.40373,-0.164373 0.36353,-0.316926 -0.0336,0.0064 0.53831,-0.46715 0.0388,-0.03215 0.16824,-0.136662 0.2307,-0.138419 0.0657,-0.0019 0.13114,0.01919 0.19226,0.04326 0.1414,0.05567 0.28494,0.280837 0.34605,0.36334 0.0427,0.05764 0.0762,0.121541 0.11535,0.181674 0.0378,0.05811 0.0837,0.111342 0.11535,0.17302 0.0265,0.05167 0.029,0.11387 0.0577,0.164373 0.056,0.09864 0.20861,0.372424 0.38451,0.346039 0.14723,-0.02208 0.21095,-0.15298 0.3076,-0.259529 0.35013,-0.386005 0.002,-0.0018 0.32683,-0.43255 0.0594,-0.07873 0.13251,-0.146442 0.19225,-0.224929 0.13974,-0.183617 0.27211,-0.372788 0.40373,-0.562314 0.0273,-0.03928 0.0484,-0.08269 0.0769,-0.121118 0.036,-0.04858 0.1538,-0.148527 0.1538,-0.233576"
       id="path79185" />
    <g
       id="g80357"
       transform="translate(-50.066419,22.661428)">
      <path
         style="fill:#ddf1fb;fill-opacity:1;fill-rule:nonzero;stroke:#000000;stroke-width:1;stroke-linecap:round;stroke-linejoin:round"
         d="m 192.43436,76.129041 c 0.0385,0.07786 0.0628,0.164449 0.11536,0.233577 0.0333,0.04374 0.0882,0.06563 0.13457,0.09516 0.10755,0.06856 0.21979,0.129617 0.32683,0.198975 0.0533,0.03454 0.10213,0.07553 0.15381,0.112461 0.0573,0.04094 0.11822,0.07693 0.17302,0.121115 0.0992,0.07997 0.18919,0.170911 0.28838,0.250878 0.0548,0.04419 0.11847,0.07662 0.17303,0.121116 0.0483,0.03939 0.0906,0.08565 0.13458,0.129765 0.097,0.0972 0.19528,0.193209 0.28837,0.294135 0.096,0.104095 0.18037,0.2184 0.26916,0.328739 0.0902,0.112085 0.18352,0.221787 0.26915,0.337391 0.0363,0.04901 0.0625,0.104823 0.0961,0.155718 0.22332,0.338016 0.0169,-0.02125 0.32683,0.501759 0.0349,0.05894 0.0628,0.121782 0.0961,0.181671 0.0308,0.05548 0.0722,0.10559 0.0961,0.164369 0.0469,0.115136 0.0728,0.237877 0.11535,0.354692 0.0216,0.0593 0.0545,0.114011 0.0769,0.17302 0.0225,0.0594 0.0368,0.121652 0.0577,0.181672 0.0433,0.124567 0.0952,0.246134 0.13458,0.371994 0.0472,0.150986 0.0347,0.20214 0.0577,0.354692 0.0192,0.112463 0.0384,0.224926 0.0577,0.33739 0.0128,0.05479 0.029,0.108905 0.0385,0.164369 0.01,0.0572 0.0115,0.115511 0.0192,0.17302 0.0179,0.132835 0.0408,0.26498 0.0577,0.397947 0.009,0.06895 0.01,0.138755 0.0192,0.207624 0.01,0.07255 0.0285,0.143729 0.0384,0.216277 0.0157,0.114986 0.0252,0.230743 0.0385,0.346041 0.0116,0.101073 0.0293,0.201462 0.0385,0.302785 0.008,0.09212 0.0103,0.184761 0.0192,0.276832 0.004,0.04069 0.0161,0.08036 0.0192,0.121115 0.003,0.04313 0,0.08651 0,0.129765 0,0.123998 0.009,0.248334 0,0.371994 -0.003,0.04361 -0.0151,0.08623 -0.0192,0.129766 -0.009,0.09209 -0.0103,0.184762 -0.0192,0.276832 -0.0194,0.200818 -0.0169,0.04376 -0.0577,0.25953 -0.0375,0.198371 -0.0184,0.243321 -0.0769,0.406599 -0.016,0.04456 -0.0384,0.08651 -0.0577,0.129765 -0.032,0.08363 -0.0663,0.166446 -0.0961,0.250879 -3e-5,1.08e-4 -0.0769,0.259425 -0.0769,0.259532 -0.24605,0.608933 -0.0216,0.02261 -0.17303,0.363342 -0.015,0.03372 -0.0225,0.07055 -0.0384,0.103812 -0.0693,0.144166 -0.15531,0.275299 -0.23071,0.415249 -0.0487,0.09033 -0.0847,0.187143 -0.13457,0.276834 -0.0505,0.09089 -0.11666,0.172163 -0.17303,0.25953 -0.0201,0.03117 -0.0364,0.0648 -0.0577,0.09516 -0.0173,0.02458 -0.0412,0.04413 -0.0577,0.06921 -0.0349,0.05301 -0.0621,0.110787 -0.0961,0.16437 -0.0173,0.02727 -0.0414,0.04998 -0.0577,0.07786 -0.0159,0.02724 -0.0215,0.05987 -0.0384,0.08651 -0.0519,0.0818 -0.11322,0.157336 -0.17302,0.233577 -0.08,0.101986 -0.0772,0.08337 -0.19225,0.207624 -0.0841,0.09085 -0.15955,0.191798 -0.24993,0.276834 -0.0225,0.02119 -0.0526,0.03277 -0.0769,0.05191 -0.0813,0.06401 -0.15006,0.14282 -0.23071,0.207624 -0.0362,0.02906 -0.0809,0.04683 -0.11535,0.07786 -0.024,0.02161 -0.0385,0.05191 -0.0577,0.07786 -0.0897,0.06344 -0.17895,0.127585 -0.26916,0.190321 -0.20381,0.141737 -0.40291,0.266025 -0.61521,0.397948 -0.0612,0.03805 -0.088,0.06556 -0.1538,0.09516 -0.0183,0.0082 -0.076,0.0091 -0.0577,0.0173 0.0292,0.01315 0.0642,-0.0029 0.0961,0 0.12211,0.01099 0.24321,0.03169 0.36527,0.04326 0.30199,0.02861 0.60173,0.07362 0.90359,0.10381 0.36486,0.03649 0.72937,0.04325 1.09584,0.04325 0.44662,0 0.92071,-0.0092 1.36499,-0.06921 0.1996,-0.02694 0.57916,-0.08337 0.80746,-0.129765 0.29364,-0.05967 0.62144,-0.150035 0.90359,-0.216275 0.23931,-0.05618 0.33556,-0.06746 0.57676,-0.112464 0.23262,-0.0434 0.52563,-0.10013 0.76901,-0.147065 0.281,-0.05419 0.53884,-0.104512 0.82668,-0.15572 0.34666,-0.06167 0.69243,-0.112071 1.03816,-0.18167 0.35462,-0.07139 0.70466,-0.162866 1.0574,-0.242229 0.0574,-0.01291 0.11575,-0.0212 0.17302,-0.0346 0.10299,-0.0241 0.20442,-0.05464 0.30761,-0.07786 0.279,-0.06277 0.56505,-0.09503 0.84591,-0.147066 0.59865,-0.110919 1.19725,-0.241629 1.78795,-0.389296 0.41937,-0.10484 0.83138,-0.237079 1.24964,-0.346042 0.42566,-0.110894 -0.01,0.01701 0.6152,-0.164369 0.36871,-0.107039 0.0214,-0.01279 0.36529,-0.121115 0.13401,-0.04221 0.2703,-0.07709 0.40372,-0.121115 0.0181,-0.006 0.35932,-0.144846 0.36529,-0.147067 0.12109,-0.04509 0.24242,-0.08973 0.36527,-0.129765 0.0631,-0.02057 0.12868,-0.03283 0.19225,-0.0519 0.14879,-0.04463 0.29547,-0.09605 0.44219,-0.147069 0.0842,-0.02928 0.16617,-0.06465 0.24993,-0.09516 0.29604,-0.107841 0.59255,-0.20937 0.88436,-0.328739 0.0455,-0.01862 0.0888,-0.04254 0.13458,-0.06056 0.22079,-0.08693 0.45208,-0.146641 0.67288,-0.233577 0.0458,-0.01802 0.0885,-0.04342 0.13457,-0.06056 0.15304,-0.05689 0.30807,-0.108306 0.46141,-0.16437 0.0508,-0.01858 0.10376,-0.03134 0.1538,-0.05191 0.0975,-0.04006 0.19156,-0.08809 0.28838,-0.129767 0.255,-0.109757 0.51871,-0.198794 0.76901,-0.320087 0.20398,-0.09885 0.39734,-0.219921 0.59598,-0.328739 0.07,-0.03836 0.14432,-0.06929 0.21148,-0.112462 0.0234,-0.01507 0.0348,-0.04457 0.0577,-0.06056 0.0356,-0.0249 0.0786,-0.03741 0.11535,-0.06056 0.20469,-0.128949 0.39182,-0.285547 0.59598,-0.415249 0.0367,-0.02329 0.0789,-0.03689 0.11535,-0.06056 0.0217,-0.01409 0.0359,-0.03792 0.0577,-0.0519 0.0683,-0.04393 0.14368,-0.07637 0.21148,-0.121115 0.0288,-0.019 0.0489,-0.04906 0.0769,-0.06921 0.0364,-0.0262 0.078,-0.04446 0.11535,-0.06921 0.0716,-0.04738 0.14031,-0.09903 0.21147,-0.147067 0.0314,-0.02119 0.0641,-0.04037 0.0961,-0.06056 0.0385,-0.02018 0.0791,-0.0367 0.11534,-0.06056 0.27892,-0.183435 0.0354,-0.03199 0.19226,-0.164369 0.0302,-0.02546 0.0641,-0.04614 0.0961,-0.06921 0.0449,-0.04326 0.0883,-0.08808 0.13458,-0.129765 0.16873,-0.151845 -0.0142,0.02609 0.1538,-0.112464 0.0532,-0.04389 0.10158,-0.09337 0.15381,-0.138415 0.13182,-0.113689 0.2787,-0.204974 0.40372,-0.328739 0.0533,-0.05273 0.0769,-0.05026 0.0769,-0.121115 0,-0.01154 0.006,-0.02468 0,-0.0346 -0.11135,-0.187891 -0.36931,-0.346747 -0.5383,-0.467154 -0.21443,-0.15278 -0.0416,-0.05447 -0.38451,-0.25088 -0.0499,-0.02856 -0.10324,-0.05056 -0.1538,-0.07786 -0.0456,-0.02463 -0.0883,-0.05445 -0.13458,-0.07786 -0.10766,-0.0545 -0.21926,-0.101004 -0.32683,-0.155717 -0.04,-0.02033 -0.0769,-0.04614 -0.11534,-0.06921 -0.0577,-0.02595 -0.11618,-0.05014 -0.17303,-0.07786 -0.097,-0.04728 -0.19139,-0.09978 -0.28838,-0.147067 -0.0568,-0.02771 -0.11725,-0.04805 -0.17303,-0.07786 -0.047,-0.02513 -0.0885,-0.05971 -0.13457,-0.08651 -0.15862,-0.09219 -0.31654,-0.186137 -0.48064,-0.268182 -0.0628,-0.03143 -0.12892,-0.05605 -0.19225,-0.08651 -0.12255,-0.05895 -0.24273,-0.122724 -0.36528,-0.181672 -0.15364,-0.0739 -0.24434,-0.107442 -0.40373,-0.17302 -0.48369,-0.198996 -0.96968,-0.391666 -1.46112,-0.57097 -0.0762,-0.02782 -0.15463,-0.04958 -0.2307,-0.07786 -0.0714,-0.02654 -0.13995,-0.06036 -0.21148,-0.08651 -0.191,-0.06983 -0.38633,-0.127564 -0.57676,-0.198972 -0.17449,-0.06543 -0.34698,-0.136139 -0.51908,-0.207624 -0.20048,-0.08328 -0.39064,-0.176959 -0.59598,-0.250881 -0.0632,-0.02275 -0.12884,-0.03836 -0.19226,-0.06056 -0.23141,-0.08099 -0.45912,-0.17363 -0.6921,-0.25088 -0.27785,-0.09213 -0.24614,-0.06933 -0.61521,-0.181671 -0.15529,-0.04727 -0.30593,-0.109077 -0.46141,-0.155721 -0.33808,-0.10142 -0.67741,-0.189605 -1.01894,-0.276831 -0.15406,-0.03935 -0.30669,-0.08437 -0.4614,-0.121115 -0.0761,-0.01807 -0.1538,-0.02884 -0.2307,-0.04325 -0.0769,-0.0173 -0.15403,-0.03364 -0.23071,-0.05191 -0.36477,-0.0869 -0.35448,-0.09134 -0.65366,-0.155721 -0.22104,-0.04757 -0.40382,-0.07788 -0.63443,-0.129765 -0.12952,-0.02914 -0.25479,-0.07557 -0.38451,-0.103812 -0.13391,-0.02916 -0.26942,-0.05056 -0.40373,-0.07786 -0.0644,-0.01307 -0.1277,-0.0311 -0.19225,-0.04325 -0.21106,-0.03976 -0.4227,-0.07647 -0.63443,-0.112464 -0.14667,-0.02492 -0.29562,-0.03503 -0.44218,-0.06056 -0.0986,-0.01717 -0.39252,-0.07774 -0.53831,-0.112464 -0.0578,-0.01378 -0.11455,-0.03254 -0.17302,-0.04325 -0.11473,-0.02104 -0.23089,-0.0334 -0.34606,-0.05191 -0.4311,-0.06928 0.035,7.7e-5 -0.36528,-0.06921 -0.16533,-0.03409 -0.33358,-0.0498 -0.49986,-0.07786 -0.21118,-0.03564 -0.42174,-0.07723 -0.63443,-0.103815 -0.47549,-0.05943 0.24064,0.04763 -0.48063,-0.06056 -0.23135,-0.0347 -0.46033,-0.09044 -0.69211,-0.121116 -0.24248,-0.03209 -0.48761,-0.04749 -0.73056,-0.07786 -0.21716,-0.02714 -0.43563,-0.05081 -0.65366,-0.06921 -0.1535,-0.01296 -0.30783,-0.01394 -0.4614,-0.02596 -0.0451,-0.0035 -0.0896,-0.01297 -0.13458,-0.0173 -0.16608,-0.01601 -0.33342,-0.02212 -0.49986,-0.0346 -0.1536,-0.01151 -0.3075,-0.02883 -0.4614,-0.0346 -0.1664,-0.0062 -0.3335,-0.0024 -0.49986,-0.0087 -0.17953,-0.0067 -0.35883,-0.0186 -0.53831,-0.02596 -0.1724,-0.0071 -0.34642,0 -0.51908,0 -0.28153,0 -0.56446,-0.0063 -0.84591,0 -0.0322,7.94e-4 -0.064,0.0075 -0.0961,0.0087 -0.0512,0.0019 -0.10255,-0.0013 -0.1538,0 -0.21107,0.0059 -0.42462,0.0283 -0.63443,0.05191 -0.096,0.0108 -0.0511,0.0087 -0.13458,0.0087 -0.0192,0 -0.0577,-0.01923 -0.0577,0 0,0.01924 0.0444,-0.01392 0.0577,0 0.0139,0.01463 0,0.04037 0,0.06056"
         id="path44370" />
      <path
         style="fill:none;fill-opacity:1;fill-rule:nonzero;stroke:#000000;stroke-width:1;stroke-linecap:round;stroke-linejoin:round"
         d="m 200.08601,81.094725 c -0.42295,0.594037 -0.99493,1.106289 -1.26886,1.782111 -0.26089,0.643639 0.2291,1.187942 0.73056,1.410116 0.20791,0.09212 0.44553,0.107591 0.67288,0.112463 0.86943,0.01863 1.44437,-0.021 2.23013,-0.311437 0.46318,-0.171202 0.92807,-0.418669 1.24964,-0.804544 0.065,-0.07804 0.13459,-0.156843 0.17303,-0.250879 0.11447,-0.280087 0.18141,-0.454906 0.0961,-0.718036 -0.0227,-0.07007 -0.0418,-0.149217 -0.0961,-0.198972 -0.13054,-0.119574 -0.28416,-0.214355 -0.44218,-0.294136 -0.10751,-0.05428 -0.22933,-0.07418 -0.34606,-0.103813 -0.46536,-0.118127 -0.76147,-0.135309 -1.28809,-0.198972 -0.21088,-0.02549 -0.49326,-0.05371 -0.71133,-0.06921 -0.1409,-0.01001 -0.28187,-0.01915 -0.42296,-0.02596 -0.0422,-0.002 -0.16999,-0.0083 -0.21147,0.02596 -0.0413,0.03409 -0.18925,0.238163 -0.23071,0.294135"
         id="path44315" />
      <path
         style="fill:none;fill-opacity:1;fill-rule:nonzero;stroke:#000000;stroke-width:1;stroke-linecap:round;stroke-linejoin:round"
         d="m 205.75747,80.783288 c -0.0192,0.08651 -0.0493,0.171304 -0.0577,0.259532 -0.005,0.04922 0.0157,0.09775 0.0192,0.147067 0.009,0.132474 0.0154,0.2652 0.0192,0.397946 0.0112,0.384673 -0.0302,0.810015 -0.0769,1.18519 -0.0123,0.09915 -0.0408,0.195651 -0.0577,0.294135 -0.0152,0.08902 -0.0269,0.178618 -0.0385,0.268182 -0.0899,0.695541 -0.0322,0.252726 -0.0769,0.67478 -0.006,0.05486 -0.0164,0.10928 -0.0192,0.16437 -0.004,0.06912 0,0.138416 0,0.207624 0,0.0173 0,0.0346 0,0.05191 0,0.0087 0,0.0346 0,0.02595 0,-0.05191 0,-0.103812 0,-0.155718"
         id="path44321" />
      <path
         style="fill:none;fill-opacity:1;fill-rule:nonzero;stroke:#000000;stroke-width:1;stroke-linecap:round;stroke-linejoin:round"
         d="m 205.56521,81.086074 c 0.42296,-0.08363 0.83912,-0.21629 1.26887,-0.250879 0.31826,-0.02561 1.29709,0.01824 1.69182,0.224927 0.34207,0.179115 0.55136,0.370843 0.53831,0.752638 -0.005,0.158568 -0.41925,0.576713 -0.42296,0.579619 -0.57069,0.446611 -1.34918,0.552333 -2.03787,0.657478 -0.2492,0.03805 -0.50023,0.06007 -0.74979,0.09516 -0.0385,0.0054 -0.0766,0.01382 -0.11535,0.0173 -0.0255,0.0023 -0.0982,-0.01434 -0.0769,0 0.0494,0.03336 0.33353,0.09502 0.36528,0.103812 0.71922,0.199161 -0.28839,-0.04063 0.99971,0.25953 0.45386,0.105761 0.91165,0.194277 1.36499,0.302786 0.0841,0.02012 0.16647,0.04667 0.24993,0.06921 0.21649,0.05845 0.26303,0.06354 0.48063,0.138416 0.0266,0.0091 0.0507,0.02449 0.0769,0.0346 0.044,0.01696 0.0899,0.02819 0.13458,0.04326"
         id="path44323" />
      <path
         style="fill:none;fill-opacity:1;fill-rule:nonzero;stroke:#000000;stroke-width:1;stroke-linecap:round;stroke-linejoin:round"
         d="m 195.93336,78.957924 c -0.57035,0.06344 -1.14051,0.128577 -1.71105,0.190323 -0.94826,0.102623 -1.89545,0.216389 -2.84533,0.302783 -1.56223,0.142091 -2.88062,0.216964 -4.42181,0.276835 -0.27541,0.0107 -0.55115,0.01028 -0.82669,0.0173 -0.0101,2.56e-4 -0.34433,0.0019 -0.3845,0.02595 -0.0185,0.01108 -0.0256,0.0346 -0.0384,0.05191"
         id="path44325" />
      <path
         style="fill:none;fill-opacity:1;fill-rule:nonzero;stroke:#000000;stroke-width:1;stroke-linecap:round;stroke-linejoin:round"
         d="m 194.06851,87.037976 c -0.77027,0.119981 -0.22557,0.04618 -0.98049,0.121115 -0.27571,0.02737 -0.55049,0.06453 -0.82668,0.08651 -0.66597,0.053 -1.33208,0.107408 -1.99943,0.138417 -0.84283,0.03916 -2.16968,0.03323 -3.01836,-0.0086 -0.50065,-0.02471 -0.99932,-0.08063 -1.49957,-0.112465 -0.15751,-0.01002 -0.41685,-0.0086 -0.59598,-0.0086 -0.0291,0 -0.1516,-0.0096 -0.17303,0 -0.0461,0.02075 -0.0384,0.04257 -0.0384,0.07786"
         id="path44327" />
      <path
         style="fill:none;fill-opacity:1;fill-rule:nonzero;stroke:#000000;stroke-width:1;stroke-linecap:round;stroke-linejoin:round"
         d="m 217.42719,82.098245 c -0.30084,-0.105718 -0.61635,-0.03189 -0.92281,-0.07786 -0.019,-0.0029 0.0385,-9.53e-4 0.0577,0 0.0659,0.0033 0.2665,0.02216 0.3076,0.02595 0.74442,0.06871 0.42446,0.04829 1.24964,0.08651 1.67181,0.07744 3.34488,0.06347 5.01779,0.08651 0.38537,0.0053 0.50593,0.01658 0.86514,0 0.12832,-0.0059 0.2564,-0.01635 0.3845,-0.02595 0.0257,-0.0019 0.0923,0.01208 0.0769,-0.0086 -0.0194,-0.02616 -0.0636,-0.01913 -0.0961,-0.0173 -0.0713,0.004 -0.14099,0.02307 -0.21148,0.0346"
         id="path44329" />
    </g>
    <path
       style="fill:#6ae4a3;stroke:#000000;stroke-width:1;stroke-linecap:round;stroke-linejoin:round"
       d="m 129.03904,99.088982 c -0.0128,0.129764 -0.0293,0.259218 -0.0385,0.389294 -0.005,0.07321 -0.0194,0.556694 -0.0385,0.692084 -0.0136,0.0961 -0.0415,0.18976 -0.0577,0.28548 -0.0351,0.20714 -0.0575,0.41637 -0.0961,0.62288 -0.0191,0.10236 -0.0574,0.20049 -0.0769,0.30278 -0.019,0.0999 -0.023,0.20223 -0.0384,0.30279 -0.0294,0.19075 -0.0673,0.38013 -0.0961,0.57097 -0.0594,0.39302 -0.0242,0.24962 -0.0577,0.64882 -0.0165,0.19634 -0.0345,0.3926 -0.0577,0.58827 -0.009,0.0755 -0.028,0.14959 -0.0385,0.22493 -0.0285,0.20518 -0.0192,0.23791 -0.0192,0.46715 0,0.0663 -0.008,0.13313 0,0.19898 0.0143,0.11892 0.0274,0.2388 0.0577,0.35468 0.0161,0.0615 0.0435,0.11975 0.0577,0.18167 0.0156,0.0677 -0.0235,0.14321 0.0385,0.19898 0.16264,0.14637 0.38926,0.16053 0.59598,0.18167 0.23088,0.0236 0.46098,0.0484 0.69212,0.0692 0.68444,0.0616 1.36926,0.10426 2.05709,0.0952 0.29979,-0.004 0.65844,-0.025 0.94204,-0.0433 1.25287,-0.0805 -0.63766,0.0286 0.61521,-0.0519 0.40218,-0.0259 0.80786,-0.051 1.21119,-0.0606 0.21144,-0.005 0.42303,-0.015 0.63444,-0.009 0.0899,0.003 0.17932,0.0136 0.26915,0.0173 0.0876,0.004 0.22195,0.0299 0.26915,-0.0692 0.0115,-0.0241 0.0111,-0.0524 0.0192,-0.0779 0.0112,-0.0352 0.0316,-0.0675 0.0385,-0.10381 0.0189,-0.1 0.0262,-0.20179 0.0385,-0.30279 0.007,-0.0576 0.0161,-0.11508 0.0192,-0.17302 0.003,-0.0605 -0.004,-0.12123 0,-0.18166 0.0196,-0.31751 0.0619,-0.63369 0.0769,-0.95162 0.0222,-0.46903 0.0192,-0.43663 0.0192,-0.79589 0,-0.23935 0.006,-0.47878 0,-0.71804 -0.002,-0.081 -0.016,-0.16129 -0.0192,-0.24222 -0.003,-0.0778 0.002,-0.15575 0,-0.23358 -0.004,-0.16732 -0.0149,-0.33444 -0.0192,-0.50176 -0.002,-0.0807 0.003,-0.16155 0,-0.24223 -0.003,-0.0781 -0.0147,-0.15559 -0.0192,-0.23358 -0.0469,-0.20074 -0.009,-0.40389 -0.0192,-0.605569 -0.0124,-0.234265 -0.0453,-0.471983 -0.0961,-0.700733 -0.0509,-0.229206 -0.0477,-0.217727 -0.11536,-0.501759 -0.0442,-0.18565 -0.0667,-0.235424 -0.19225,-0.380645 -0.0113,-0.01304 -0.0223,-0.02865 -0.0384,-0.0346 -0.11838,-0.04359 -0.24112,-0.05327 -0.36528,-0.06056 -0.27044,-0.01587 -0.53683,-0.0173 -0.80746,-0.0173 -1.01456,0 -2.02469,0.04361 -3.03759,0.103814 -0.56344,0.03349 -1.12733,0.06921 -1.69182,0.06921 -0.23763,0 -0.47408,0.0076 -0.71134,0.0173 -0.0798,0.0033 -0.17085,-0.01068 -0.24992,0 -0.0704,0.0095 -0.11061,0.03247 -0.17303,0.06056"
       id="path79175-7" />
    <path
       style="fill:#6ae4a3;stroke:#000000;stroke-width:1;stroke-linecap:round;stroke-linejoin:round"
       d="m 130.92311,101.00086 c 0.0577,0.10958 0.11705,0.21828 0.17303,0.32874 0.0273,0.054 0.0487,0.11084 0.0769,0.16437 0.25388,0.48236 -0.12376,-0.31141 0.28838,0.50176 0.025,0.0494 0.032,0.10666 0.0577,0.15571 0.026,0.0498 0.0665,0.0907 0.0961,0.13842 0.0264,0.0426 0.15413,0.26028 0.19225,0.34604 0.015,0.0337 0.0219,0.0708 0.0384,0.10381 0.0392,0.0781 0.0797,0.15697 0.13458,0.22493 0.0108,0.0134 0.0263,0.0223 0.0385,0.0346 0.0136,0.0137 0.0221,0.0535 0.0385,0.0433 0.009,-0.006 0.11316,-0.2122 0.11535,-0.21628 0.10759,-0.19971 0.21896,-0.39736 0.32683,-0.59692 0.0642,-0.11866 0.15627,-0.30066 0.23071,-0.41524 0.15697,-0.24164 0.21936,-0.32209 0.36528,-0.51907 0.12483,-0.16852 0.24331,-0.34645 0.3845,-0.50176 0.0303,-0.0334 0.0626,-0.065 0.0961,-0.0952 0.0115,-0.0103 0.0243,-0.0323 0.0384,-0.0259 0.012,0.005 -0.01,0.0253 -0.0192,0.0346 -0.0232,0.0229 -0.0513,0.0404 -0.0769,0.0605"
       id="path79177-5" />
    <path
       style="fill:#6ae4a3;stroke:#000000;stroke-width:1;stroke-linecap:round;stroke-linejoin:round"
       d="m 132.01558,124.57669 c -0.0128,0.12977 -0.0293,0.25922 -0.0385,0.3893 -0.005,0.0732 -0.0194,0.55669 -0.0385,0.69208 -0.0136,0.0961 -0.0415,0.18977 -0.0577,0.28549 -0.0351,0.20713 -0.0575,0.41637 -0.0961,0.62287 -0.0191,0.10236 -0.0574,0.20049 -0.0769,0.30279 -0.019,0.0999 -0.023,0.20223 -0.0384,0.30278 -0.0294,0.19075 -0.0673,0.38013 -0.0961,0.57097 -0.0594,0.39303 -0.0242,0.24963 -0.0577,0.64883 -0.0165,0.19634 -0.0345,0.3926 -0.0577,0.58827 -0.009,0.0755 -0.028,0.14958 -0.0385,0.22492 -0.0285,0.20519 -0.0192,0.23792 -0.0192,0.46716 0,0.0663 -0.008,0.13312 0,0.19897 0.0143,0.11893 0.0274,0.23881 0.0577,0.35469 0.0161,0.0615 0.0435,0.11975 0.0577,0.18167 0.0156,0.0677 -0.0235,0.14321 0.0385,0.19898 0.16264,0.14637 0.38926,0.16053 0.59598,0.18167 0.23088,0.0236 0.46098,0.0484 0.69212,0.0692 0.68444,0.0616 1.36926,0.10426 2.05709,0.0952 0.29979,-0.004 0.65844,-0.025 0.94204,-0.0433 1.25287,-0.0805 -0.63766,0.0286 0.61521,-0.0519 0.40218,-0.0259 0.80786,-0.051 1.21119,-0.0606 0.21144,-0.005 0.42303,-0.015 0.63444,-0.009 0.0899,0.003 0.17932,0.0136 0.26915,0.0173 0.0876,0.004 0.22195,0.0299 0.26915,-0.0692 0.0115,-0.0241 0.0111,-0.0524 0.0192,-0.0779 0.0112,-0.0352 0.0316,-0.0675 0.0385,-0.10381 0.0189,-0.1 0.0262,-0.20179 0.0385,-0.30279 0.007,-0.0576 0.0161,-0.11508 0.0192,-0.17302 0.003,-0.0605 -0.004,-0.12123 0,-0.18167 0.0196,-0.31751 0.0619,-0.63368 0.0769,-0.95161 0.0222,-0.46903 0.0192,-0.43663 0.0192,-0.7959 0,-0.23934 0.006,-0.47877 0,-0.71803 -0.002,-0.081 -0.016,-0.1613 -0.0192,-0.24223 -0.003,-0.0778 0.002,-0.15574 0,-0.23358 -0.004,-0.16732 -0.0149,-0.33444 -0.0192,-0.50176 -0.002,-0.0807 0.003,-0.16155 0,-0.24223 -0.003,-0.0781 -0.0147,-0.15558 -0.0192,-0.23357 -0.0469,-0.20074 -0.009,-0.4039 -0.0192,-0.60558 -0.0124,-0.23426 -0.0453,-0.47198 -0.0961,-0.70073 -0.0509,-0.22921 -0.0477,-0.21773 -0.11536,-0.50176 -0.0442,-0.18565 -0.0667,-0.23542 -0.19225,-0.38064 -0.0113,-0.013 -0.0223,-0.0286 -0.0384,-0.0346 -0.11838,-0.0436 -0.24112,-0.0533 -0.36528,-0.0606 -0.27044,-0.0159 -0.53683,-0.0173 -0.80746,-0.0173 -1.01456,0 -2.02469,0.0436 -3.03759,0.10381 -0.56344,0.0335 -1.12733,0.0692 -1.69182,0.0692 -0.23763,0 -0.47408,0.008 -0.71134,0.0173 -0.0798,0.003 -0.17085,-0.0107 -0.24992,0 -0.0704,0.01 -0.11061,0.0325 -0.17303,0.0606"
       id="path79175-7-8" />
    <path
       style="fill:#6ae4a3;stroke:#000000;stroke-width:1;stroke-linecap:round;stroke-linejoin:round"
       d="m 133.89965,126.48857 c 0.0577,0.10958 0.11705,0.21829 0.17303,0.32874 0.0273,0.054 0.0487,0.11084 0.0769,0.16437 0.25388,0.48236 -0.12376,-0.3114 0.28838,0.50176 0.025,0.0494 0.032,0.10667 0.0577,0.15572 0.026,0.0498 0.0665,0.0907 0.0961,0.13842 0.0264,0.0426 0.15413,0.26027 0.19225,0.34604 0.015,0.0337 0.0219,0.0708 0.0384,0.10381 0.0392,0.0781 0.0797,0.15697 0.13458,0.22492 0.0108,0.0134 0.0263,0.0223 0.0385,0.0346 0.0136,0.0137 0.0221,0.0535 0.0385,0.0433 0.009,-0.006 0.11316,-0.2122 0.11535,-0.21627 0.10759,-0.19971 0.21896,-0.39736 0.32683,-0.59692 0.0642,-0.11866 0.15627,-0.30066 0.23071,-0.41525 0.15697,-0.24164 0.21936,-0.32209 0.36528,-0.51906 0.12483,-0.16853 0.24331,-0.34646 0.3845,-0.50176 0.0303,-0.0334 0.0626,-0.065 0.0961,-0.0952 0.0115,-0.0103 0.0243,-0.0323 0.0384,-0.0259 0.012,0.005 -0.01,0.0253 -0.0192,0.0346 -0.0232,0.0229 -0.0513,0.0404 -0.0769,0.0605"
       id="path79177-5-9" />
    <path
       style="fill:#6ae4a3;stroke:#000000;stroke-width:1;stroke-linecap:round;stroke-linejoin:round"
       d="m 128.34693,108.02548 c 0.0675,0.12142 0.19912,0.3171 0.2307,0.47581 0.0622,0.31278 0.0853,0.68453 0.0384,1.00352 -0.0358,0.24373 -0.0884,0.48471 -0.13457,0.72669 -0.0942,0.49309 -0.19384,0.99101 -0.3076,1.47932 -0.21318,0.91496 0.0128,-0.20341 -0.17303,0.67478 -0.0704,0.33244 -0.13349,0.66856 -0.19226,1.00351 -0.008,0.0459 -0.0111,0.0926 -0.0192,0.13842 -0.004,0.021 -0.0423,0.10442 0,0.12977 0.0402,0.0241 0.17433,0.0173 0.21148,0.0173 0.22429,0 0.44859,0 0.67288,0 0.65376,0 1.30729,0.004 1.96097,0.009 0.31391,0.002 0.91514,0.0125 1.28809,0.009 0.36531,-0.004 0.73057,-0.0109 1.09584,-0.0173 0.37495,-0.007 0.19512,-0.0131 0.55754,-0.009 0.14741,0.002 0.29488,0.003 0.44218,0.009 0.14569,0.006 0.24,0.0259 0.3845,0.0433 0.17296,0.0207 0.34559,0.0449 0.51909,0.0606 0.18426,0.0166 0.37259,0.0229 0.55753,0.0173 0.0449,-10e-4 0.0896,-0.008 0.13457,-0.009 0.19333,-0.004 0.38389,4.7e-4 0.57676,-0.009 0.0769,-0.004 0.15386,-0.005 0.23071,-0.009 0.0321,-0.002 0.0678,0.007 0.0961,-0.009 0.11413,-0.0616 0.0835,-0.0785 0.11535,-0.16437 0.011,-0.0296 0.0294,-0.0563 0.0385,-0.0865 0.0541,-0.18011 0.0769,-0.33423 0.0769,-0.51906 0,-0.11246 0.004,-0.225 0,-0.33738 -0.002,-0.0637 -0.013,-0.12688 -0.0192,-0.19033 -0.0258,-0.26152 -0.0244,-0.29353 -0.0769,-0.61423 -0.0223,-0.13612 -0.0539,-0.27059 -0.0769,-0.40659 -0.0219,-0.12935 -0.0324,-0.26057 -0.0577,-0.3893 -0.0133,-0.0678 -0.0415,-0.13184 -0.0577,-0.19897 -0.0482,-0.19974 -0.0764,-0.40382 -0.11535,-0.60557 -0.0926,-0.47928 0.0109,0.11126 -0.0577,-0.39795 -0.1096,-0.8138 -0.011,-0.0469 -0.0961,-0.54501 -0.009,-0.0516 -0.0128,-0.10381 -0.0192,-0.15572 -0.0128,-0.10093 -0.0206,-0.20262 -0.0385,-0.30279 -0.008,-0.0444 -0.0287,-0.0857 -0.0384,-0.12976 -0.009,-0.0427 -0.01,-0.087 -0.0192,-0.12977 -0.0332,-0.15331 -0.0766,-0.27437 -0.13458,-0.41524 -0.0194,-0.047 -0.0681,-0.21964 -0.11535,-0.26819 -0.0755,-0.0777 -0.13826,-0.0882 -0.2307,-0.12976 -0.2185,-0.0983 -0.45676,-0.10126 -0.69211,-0.12112 -0.33527,-0.0283 0.0441,-0.0126 -0.34605,-0.0173 -0.46324,-0.006 -0.43059,-0.0164 -0.80746,0 -0.89183,0.0388 -1.77943,0.15242 -2.67232,0.17302 -0.46788,0.0108 -0.93548,0.009 -1.40344,0.009 -0.2885,0 -0.57703,0.01 -0.86513,0.026 -0.0642,0.004 -0.13239,-0.006 -0.19226,0.0173 -0.0978,0.0385 -0.17943,0.10958 -0.26915,0.16437 z"
       id="path79183-9" />
    <path
       style="fill:#6ae4a3;stroke:#000000;stroke-width:1;stroke-linecap:round;stroke-linejoin:round"
       d="m 129.88495,109.55671 c -0.0572,0.34749 -0.0929,0.40629 -0.0769,0.70073 0.009,0.15889 0.0207,0.31769 0.0385,0.47581 0.003,0.0304 0.0616,0.33646 0.0769,0.38065 0.0303,0.0876 0.0625,0.21341 0.1538,0.26818 0.14024,0.0841 0.31448,-0.0866 0.40373,-0.16437 0.36353,-0.31693 -0.0336,0.006 0.53831,-0.46715 0.0388,-0.0322 0.16824,-0.13667 0.2307,-0.13842 0.0657,-0.002 0.13114,0.0192 0.19226,0.0433 0.1414,0.0557 0.28494,0.28083 0.34605,0.36334 0.0427,0.0576 0.0762,0.12154 0.11535,0.18167 0.0378,0.0581 0.0837,0.11134 0.11535,0.17302 0.0265,0.0517 0.029,0.11387 0.0577,0.16437 0.056,0.0986 0.20861,0.37243 0.38451,0.34604 0.14723,-0.0221 0.21095,-0.15298 0.3076,-0.25953 0.35013,-0.386 0.002,-0.002 0.32683,-0.43255 0.0594,-0.0787 0.13251,-0.14644 0.19225,-0.22493 0.13974,-0.18361 0.27211,-0.37278 0.40373,-0.56231 0.0273,-0.0393 0.0484,-0.0827 0.0769,-0.12112 0.036,-0.0486 0.1538,-0.14852 0.1538,-0.23357"
       id="path79185-2" />
    <g
       id="g81334"
       transform="translate(3.3690911,21.593933)">
      <g
         id="g83216">
        <path
           style="fill:#ddf1fb;fill-opacity:1;fill-rule:nonzero;stroke:#000000;stroke-width:1;stroke-linecap:round;stroke-linejoin:round"
           d="m 144.6067,97.802427 c -0.0513,0.100929 -0.13193,0.191717 -0.1538,0.302788 -0.0245,0.12465 0.0151,0.253667 0.0192,0.380645 0.002,0.07205 0,0.144183 0,0.216274 0.006,0.07786 0.0152,0.155561 0.0192,0.233579 0.009,0.17003 0.011,0.340351 0.0192,0.51041 0.005,0.09526 0.0192,0.190107 0.0192,0.285484 0,0.104009 -0.0127,0.207631 -0.0192,0.311433 -0.0127,0.20187 -0.0212,0.40405 -0.0385,0.60558 -0.008,0.0985 -0.0256,0.19608 -0.0384,0.29413 -0.0381,0.2913 -0.0826,0.58181 -0.11535,0.87375 -0.0206,0.18385 -0.0301,0.36886 -0.0385,0.55367 -0.0169,0.37332 -0.0192,0.74288 -0.0192,1.11598 0,0.24511 -0.009,0.4904 0,0.73534 0.0229,0.59706 0.0385,-0.19042 0.0385,0.79589 0,0.0896 -0.016,0.17861 -0.0192,0.26818 -0.003,0.0893 0.007,0.17905 0,0.26818 -0.0248,0.32649 -0.0871,0.65026 -0.0961,0.97757 -0.006,0.23349 0,0.46715 0,0.70073 0,0.51329 0,1.02659 0,1.53988 0,0.27832 0.002,0.55188 0.0192,0.8305 0.004,0.0722 0.0192,0.1439 0.0192,0.21628 0,0.0695 -0.0148,0.13826 -0.0192,0.20762 -0.0338,0.52517 9.3e-4,0.22596 -0.0384,0.55367 -0.0215,0.17906 -0.0412,0.35947 -0.0769,0.53636 -0.006,0.026 -0.0128,0.0519 -0.0192,0.0779 0,0.0202 0.004,0.0408 0,0.0606 -0.009,0.0439 -0.0781,0.0748 -0.0385,0.0606 0.1047,-0.0377 0.20507,-0.0865 0.3076,-0.12977 0.38846,-0.16387 0.29169,-0.12019 0.73056,-0.32009 0.63181,-0.28777 1.21082,-0.54771 1.8264,-0.8478 0.73342,-0.35753 1.45844,-0.73212 2.19168,-1.09002 1.30609,-0.63752 2.65987,-1.16733 3.99885,-1.73021 0.96147,-0.40418 0.71966,-0.30965 1.92253,-0.83915 0.17902,-0.0788 0.3611,-0.15077 0.53831,-0.23358 0.15617,-0.073 0.30739,-0.15612 0.4614,-0.23357 0.28176,-0.14171 0.56532,-0.27989 0.84591,-0.4239 0.41051,-0.22167 0.35519,-0.1947 0.76901,-0.4066 0.24324,-0.12455 0.48596,-0.25014 0.73056,-0.372 0.0359,-0.0179 0.6269,-0.2968 0.67288,-0.32008 0.38426,-0.19453 0.78085,-0.39493 1.15352,-0.61423 0.16188,-0.0953 0.31842,-0.19944 0.48063,-0.29413 0.23363,-0.13638 0.47887,-0.24982 0.71133,-0.38929 0.0137,-0.008 0.14543,-0.0823 0.15381,-0.11247 0.01,-0.035 -0.12856,-0.14244 -0.13458,-0.14706 -0.0817,-0.0627 -0.1634,-0.12581 -0.24993,-0.18168 -0.2632,-0.16993 -0.74639,-0.36308 -0.99971,-0.46715 -0.10099,-0.0415 -0.20447,-0.0767 -0.3076,-0.11247 -0.68437,-0.23756 -1.39678,-0.35408 -2.09556,-0.53636 -0.1966,-0.0513 -1.03018,-0.28135 -1.34576,-0.37199 -0.42363,-0.12168 -0.84642,-0.24629 -1.26888,-0.372 -0.74584,-0.22193 0.008,-0.003 -0.71133,-0.22492 -0.41543,-0.12829 -0.83334,-0.24711 -1.24964,-0.372 -0.30173,-0.0905 -0.59991,-0.193076 -0.90359,-0.276829 -0.3999,-0.110291 -0.806,-0.197462 -1.21118,-0.285484 -0.32769,-0.07118 -0.65335,-0.151322 -0.98049,-0.224928 -0.30167,-0.06787 -0.60451,-0.128734 -0.90359,-0.207625 -0.33333,-0.08792 -0.67175,-0.178154 -0.99971,-0.285484 -0.0457,-0.01495 -0.0888,-0.03719 -0.13458,-0.05191 -0.15705,-0.05048 -0.3223,-0.07578 -0.48063,-0.121115 -0.0327,-0.0094 -0.0641,-0.02307 -0.0961,-0.0346 -0.0833,-0.0173 -0.16715,-0.03219 -0.24993,-0.0519 -0.13586,-0.03236 -0.26926,-0.0833 -0.40373,-0.121114 -0.0253,-0.0071 -0.0518,-0.0094 -0.0769,-0.0173 -0.26385,-0.08311 0.005,-0.01012 -0.19225,-0.06921 -0.091,-0.02731 -0.22826,-0.05643 -0.30761,-0.07786 -0.12178,-0.03288 -0.24289,-0.07377 -0.36527,-0.10381 -0.14048,-0.03448 -0.2826,-0.05907 -0.42296,-0.09516 -0.0466,-0.01197 -0.0882,-0.03908 -0.13458,-0.05191 -0.0826,-0.02288 -0.1654,-0.04629 -0.24993,-0.06056 -0.0287,-0.0048 -0.21736,-0.0334 -0.23069,-0.04326 -0.0763,-0.05638 -0.11941,-0.167602 -0.21148,-0.190324 -0.4103,-0.101246 -0.38451,-0.05606 -0.38451,0.121115"
           id="path45127" />
        <path
           style="fill:none;fill-opacity:1;fill-rule:nonzero;stroke:#000000;stroke-width:1;stroke-linecap:round;stroke-linejoin:round"
           d="m 145.41417,105.77867 c -0.17944,-0.25376 -0.40694,-0.47963 -0.53831,-0.76129 -0.0917,-0.19651 -0.0509,-0.43314 -0.11535,-0.64018 -0.0711,-0.22851 -0.18961,-0.43949 -0.28838,-0.65747 -0.0358,-0.0791 -0.0732,-0.15767 -0.11535,-0.23358 -0.009,-0.0168 -0.0577,-0.0433 -0.0384,-0.0433 0.0294,0 0.0505,0.0303 0.0769,0.0433 0.26841,0.13128 0.54007,0.25593 0.80746,0.38929 0.26456,0.13196 0.52576,0.27055 0.78824,0.4066 0.47304,0.2452 0.63827,0.35091 1.05738,0.52772 0.21103,0.089 0.32123,0.13087 0.53831,0.18167 0.0762,0.0178 0.15621,0.0672 0.2307,0.0433 0.0734,-0.0236 0.0194,-0.30703 0.0192,-0.31144 -0.004,-0.0893 0.004,-0.17887 0,-0.26818 -0.0208,-0.50159 -0.0593,-0.96712 -0.17303,-1.45337 -0.0293,-0.1254 -0.0688,-0.10248 -0.1538,-0.026"
           id="path45129" />
        <path
           style="fill:none;fill-opacity:1;fill-rule:nonzero;stroke:#000000;stroke-width:1;stroke-linecap:round;stroke-linejoin:round"
           d="m 149.6245,103.33908 c -1.14386,0.99643 -2.40594,1.25424 -0.57676,1.88593 0.53546,0.18491 1.49472,-0.25213 1.86485,-0.43256 0.18053,-0.088 0.36199,-0.20128 0.48063,-0.36334 0.26939,-0.36799 -0.0456,-0.46893 -0.30761,-0.57962 -0.42075,-0.17774 -0.83395,-0.26818 -1.28809,-0.26818 -0.0513,0 -0.10282,-0.005 -0.1538,0 -0.0841,0.009 -0.16662,0.0288 -0.24993,0.0433"
           id="path45131" />
        <path
           style="fill:none;fill-opacity:1;fill-rule:nonzero;stroke:#000000;stroke-width:1;stroke-linecap:round;stroke-linejoin:round"
           d="m 153.46955,102.647 c -0.37635,0.65826 0.3076,1.22575 0.3076,1.85132 0,0.11409 -0.0385,0.22492 -0.0577,0.33739"
           id="path45133" />
        <path
           style="fill:none;fill-opacity:1;fill-rule:nonzero;stroke:#000000;stroke-width:1;stroke-linecap:round;stroke-linejoin:round"
           d="m 150.98949,102.88923 c 1.40174,0.0853 2.808,0.0794 4.21033,0.15572 0.15424,0.008 0.30726,0.0331 0.4614,0.0433 0.064,0.004 0.12857,-0.007 0.19226,0 0.0154,0.002 0.0431,0.0112 0.0385,0.0259 -0.007,0.0214 -0.0385,0.0231 -0.0577,0.0346"
           id="path45135" />
        <path
           style="fill:#ffffff;fill-opacity:1;fill-rule:nonzero;stroke:#000000;stroke-width:1;stroke-linecap:round;stroke-linejoin:round"
           d="m 162.25548,101.92896 c -0.009,0.0383 -0.38405,-0.0347 -0.4614,-0.0173 -0.0151,0.003 -0.025,0.0184 -0.0385,0.026 -0.0378,0.0213 -0.0789,0.0369 -0.11535,0.0606 -0.14463,0.0937 -0.41863,0.27185 -0.55754,0.41525 -0.21998,0.22709 -0.37649,0.57709 -0.26915,0.89106 0.0187,0.0548 0.036,0.11474 0.0769,0.15572 0.19167,0.1921 0.3407,0.28211 0.57676,0.37199 0.0881,0.0335 0.1764,0.0698 0.26915,0.0865 0.66728,0.12011 1.7057,0.19962 2.30704,-0.18167 0.19635,-0.1245 0.29645,-0.29785 0.3845,-0.51906 0.0257,-0.0646 0.016,-0.13819 0.0192,-0.20762 0.003,-0.0691 0.0198,-0.14131 0,-0.20763 -0.0391,-0.13104 -0.105,-0.25336 -0.17303,-0.37199 -0.0352,-0.0614 -0.0819,-0.117 -0.13457,-0.16437 -0.12361,-0.11124 -0.46919,-0.27774 -0.57676,-0.32009 -0.0602,-0.0237 -0.37053,-0.0789 -0.44218,-0.0865 -0.14703,-0.0156 -0.29455,-0.0268 -0.44219,-0.0346 -0.0704,-0.004 -0.14301,-0.0168 -0.21147,0 -0.0763,0.0187 -0.1331,0.099 -0.21148,0.10381 -0.11741,0.007 -0.2291,-0.0566 -0.34606,-0.0692 -0.12419,-0.0134 -0.1171,0.0201 -0.21147,0.0519 -0.0249,0.008 -0.0513,0.0115 -0.0769,0.0173"
           id="path45143" />
        <path
           style="fill:#ffffff;fill-opacity:1;fill-rule:nonzero;stroke:#000000;stroke-width:1;stroke-linecap:round;stroke-linejoin:round"
           d="m 164.63942,102.88923 c 1.82917,0.13493 0.55415,0.0674 2.57618,0.0952 0.37176,0.005 0.74355,0.0117 1.11507,0.026 0.15411,0.006 0.30775,0.0212 0.4614,0.0346 0.0771,0.007 0.15359,0.0195 0.2307,0.026 0.0255,0.002 0.0535,-0.0105 0.0769,0 0.0105,0.005 0,0.0231 0,0.0346"
           id="path45145" />
        <path
           style="fill:#ffffff;fill-opacity:1;fill-rule:nonzero;stroke:#000000;stroke-width:1;stroke-linecap:round;stroke-linejoin:round"
           d="m 143.78378,104.53573 c -0.41655,-0.0375 -0.83141,-0.11092 -1.24964,-0.11246 -0.77748,-0.003 -1.55553,0.19296 -2.30703,0.35469 -0.48131,0.10359 -0.96029,0.21789 -1.4419,0.32009 -0.64631,0.13715 -1.29259,0.27495 -1.94174,0.39795 -0.10584,0.0201 -0.49185,0.0975 -0.71134,0.0865 -0.12642,-0.006 -0.0782,-0.008 0,-0.026"
           id="path45147" />
      </g>
    </g>
    <path
       style="fill:#6ae4a3;stroke:#000000;stroke-width:1;stroke-linecap:round;stroke-linejoin:round"
       d="m 180.23466,80.033876 c 0.19225,-0.0173 0.38373,-0.05014 0.57675,-0.05191 0.43591,-0.004 0.87153,0.0239 1.30732,0.0346 0.97265,0.02387 1.9496,0.03461 2.92224,0.03461 0.35609,0 0.72242,-0.01513 1.07662,-0.05191 0.0387,-0.004 0.0769,-0.01153 0.11535,-0.0173 0.0384,-0.0058 0.082,0.0027 0.11534,-0.0173 0.0149,-0.0089 0,-0.03461 0,-0.05191"
       id="path83278" />
    <path
       style="fill:#6ae4a3;stroke:#000000;stroke-width:1;stroke-linecap:round;stroke-linejoin:round"
       d="m 180.00395,83.632699 c 1.53978,0.05147 3.07555,0.18535 4.61407,0.25953 0.64813,0 -0.0368,-0.01141 0.34605,0.0173 0.0384,0.0029 0.0803,-0.01578 0.11535,0 0.0158,0.0071 0,0.03461 0,0.05191"
       id="path83280" />
    <path
       style="fill:#6ae4a3;stroke:#000000;stroke-width:1;stroke-linecap:round;stroke-linejoin:round"
       d="m 181.14577,102.42052 c -0.23563,0.0163 -0.72322,-0.1867 -0.7069,0.0489 0.0163,0.23564 0.47075,-0.0538 0.7069,-0.0489 0.56273,0.0115 1.12328,0.0759 1.68569,0.0979 0.72448,0.0283 1.45006,0 2.17509,0 0.8132,0 1.6347,0.0365 2.44699,0 0.66426,-0.0299 0.0405,-0.0245 0.54376,-0.0245"
       id="path83354" />
    <path
       style="fill:#6ae4a3;stroke:#000000;stroke-width:1;stroke-linecap:round;stroke-linejoin:round"
       d="m 182.9946,106.28658 c -0.42217,0.36948 -0.99315,-0.0243 -1.46818,0.0979 -0.0577,0.0148 -0.14243,0.0175 -0.16314,0.0734 -0.0152,0.041 0.0664,0.0625 0.10877,0.0734 0.0881,0.0226 0.18204,0.0389 0.27188,0.0245 0.42103,-0.0677 0.82481,-0.29128 1.25067,-0.26916 0.5429,0.0282 1.0513,0.27732 1.57695,0.41598 0.59814,0.008 1.19623,0.0245 1.79444,0.0245 0.85153,0 1.70741,-0.0587 2.55573,-0.12235 0.0907,-0.007 0.18134,-0.0154 0.27188,-0.0244 0.0726,-0.007 0.15097,-0.0544 0.21751,-0.0245 0.0399,0.0179 -0.0681,0.0572 -0.10874,0.0734 -0.12375,0.0495 -0.25377,0.0816 -0.38065,0.12234"
       id="path83356" />
    <path
       style="fill:#6ae4a3;stroke:#000000;stroke-width:1;stroke-linecap:round;stroke-linejoin:round"
       d="m 178.13467,121.92424 c 0.23563,-0.0489 0.46795,-0.11813 0.7069,-0.14681 0.30637,-0.0368 0.6162,-0.0341 0.92441,-0.0489 1.74009,-0.0839 3.47831,-0.14822 5.22022,-0.17128 0.50803,-0.007 1.01437,-0.0244 1.52255,-0.0244 0.0725,0 0.14678,-0.0159 0.21751,0 0.0776,0.0174 0.14501,0.0652 0.21751,0.0979"
       id="path83370" />
    <path
       style="fill:#6ae4a3;stroke:#000000;stroke-width:1;stroke-linecap:round;stroke-linejoin:round"
       d="m 180.03787,125.25199 c 2.44248,0.16552 4.89408,0.12542 7.34092,0.17129 1.30102,0.0244 0.13066,-5.2e-4 1.03316,0.0734 0.36793,0.0301 0.73153,-0.0111 1.08756,0.12237 0.0819,0.0307 0.145,0.0979 0.21751,0.1468"
       id="path83372" />
    <path
       style="fill:#6ae4a3;stroke:#000000;stroke-width:1;stroke-linecap:round;stroke-linejoin:round"
       d="m 194.51873,79.22215 c 0.11781,-0.02447 0.26246,-0.152148 0.35345,-0.07341 0.0956,0.08273 0.006,0.252969 0,0.379266 -0.0158,0.355663 -0.18853,0.72561 -0.32627,1.039925 -0.0478,0.109143 -0.11399,0.209535 -0.16313,0.318092 -0.15356,0.339205 -0.27049,0.693835 -0.40783,1.039925 -0.0881,0.222109 -0.17691,0.407424 -0.2447,0.636189 -0.12534,0.423011 -0.19554,0.729855 -0.24469,1.15003 -0.0258,0.22039 -0.0679,0.43919 -0.0816,0.660661 -0.0192,0.311495 0.0116,0.637441 0.0816,0.942048 0.0161,0.06984 0.0418,0.137431 0.0544,0.207982 0.006,0.03212 -0.005,0.06565 0,0.09788 0.004,0.02577 0.0226,0.04771 0.0272,0.0734 0.0315,0.177178 0.0544,0.358837 0.0544,0.538312 0,0.0409 -0.0348,0.451434 0.0544,0.513846 0.0631,0.04413 0.52544,0.09547 0.54377,0.09788 0.30438,0.03995 0.31069,0.04008 0.62533,0.06117 0.31715,0.02126 0.63413,0.04559 0.95161,0.06117 0.8779,0.04309 1.75973,0.01445 2.6373,0 0.26281,-0.0043 0.52573,-0.0041 0.78846,-0.01224 0.95145,-0.02953 1.90215,-0.105575 2.8548,-0.08564 0.71931,0.01505 0.85207,0.05603 1.71289,0.146815 0.79714,0.08407 1.59305,0.15933 2.3926,0.220215 0.70622,0.05378 1.41332,0.05092 2.12071,0.08564 0.61662,0.03027 1.23117,0.10911 1.84882,0.122343 0.38052,0.0082 0.76125,0.01223 1.14193,0.01223 0.39225,0 0.6401,-0.0075 1.00597,0.01224 0.38933,0.02102 0.77885,0.07341 1.16911,0.07341 0.0817,0 0.16305,-0.01064 0.2447,-0.01223 0.33873,-0.0066 0.28562,0.01375 0.51659,-0.01224 0.058,-0.0065 0.3186,-0.01935 0.35345,-0.06117 0.0157,-0.0188 -0.004,-0.04924 0,-0.07341 0.005,-0.03344 0.0167,-0.06569 0.0272,-0.09788 0.0348,-0.106513 0.0698,-0.213012 0.10875,-0.318092 0.0601,-0.162206 0.10817,-0.219673 0.13594,-0.391503 5.3e-4,-0.0037 0.0769,-0.651622 0.0816,-0.758532 0.005,-0.11408 -0.006,-0.228515 0,-0.342564 0.06,-1.215667 0.0215,-0.338159 0.10876,-1.15003 0.0131,-0.121977 0.0136,-0.245106 0.0272,-0.367036 0.0227,-0.204452 0.0629,-0.406859 0.0816,-0.611717 0.029,-0.317793 -0.0168,-0.233763 -0.0272,-0.538313 0,-0.179437 0,-0.358875 0,-0.538312 -0.009,-0.08156 -0.0242,-0.162676 -0.0272,-0.244687 -0.006,-0.171172 0,-0.342564 0,-0.513846 0,-0.167204 -0.012,-0.334836 0,-0.501612 0.003,-0.0408 0.0652,-0.599117 0.0816,-0.746295 0.002,-0.01409 0.0502,-0.456095 0.0544,-0.47714 0.0442,-0.222496 0.12069,-0.437832 0.16313,-0.660659 0.0388,-0.203678 0.0488,-0.619667 0.0544,-0.758533 0.002,-0.04272 0.0111,-0.334867 0,-0.354797 -0.0191,-0.03446 -0.0494,-0.06288 -0.0816,-0.08564 -0.0664,-0.04696 -0.23845,-0.08659 -0.29907,-0.09788 -0.49442,-0.09206 -0.55699,-0.104517 -1.00598,-0.122343 -0.5978,-0.02374 -1.19622,-0.02933 -1.79445,-0.0367 -1.61296,-0.01989 -3.22655,0.01544 -4.83957,0 -0.49831,-0.0048 -0.99696,-0.019 -1.49537,-0.02447 -0.54368,-0.006 -1.08767,0.0082 -1.63132,0 -0.35177,-0.0053 -0.70883,-0.01173 -1.06035,-0.0367 -0.62981,-0.04475 0.28632,-0.01402 -0.76128,-0.04894 -0.53443,-0.01781 -1.06964,-0.03176 -1.60413,-0.04894 -0.69981,-0.0225 -1.3954,-0.08498 -2.09352,-0.134579 -0.25408,-0.01805 -0.50672,-0.02525 -0.76129,-0.0367 -0.22677,-0.0102 -0.45339,-0.03621 -0.67971,-0.04894 -0.36277,-0.0204 -0.72504,-0.04078 -1.08755,-0.06117 -0.12747,-0.0072 -0.25262,-0.01224 -0.38064,-0.01224 -0.0544,0 -0.11008,-0.01193 -0.16312,0 -0.12318,0.02771 -0.2299,0.212465 -0.29908,0.305859 -0.17362,0.23437 -0.12635,0.153 -0.29907,0.526079 -0.0313,0.06758 -0.0637,0.135687 -0.0816,0.207985 -0.0187,0.07574 -0.012,0.155932 -0.0272,0.232453 -0.0302,0.152217 -0.0775,0.300672 -0.10875,0.452672 -0.0141,0.06848 0.029,0.166421 -0.0272,0.207984 -0.0968,0.07153 -0.30547,-0.03694 -0.35345,0.07341 -0.0666,0.153246 0.0927,0.323046 0.10875,0.489377 0.006,0.06134 -0.1711,0.16263 -0.21751,0.183512"
       id="path83470" />
    <path
       style="fill:#6ae4a3;stroke:#000000;stroke-width:1;stroke-linecap:round;stroke-linejoin:round"
       d="m 197.34634,80.518995 c 0.19938,0.138657 0.41472,0.256795 0.59814,0.415969 0.12279,0.106558 0.22642,0.380775 0.2719,0.526079 0.52913,1.690545 -0.0355,-0.08774 0.21751,0.868643 0.021,0.07939 0.0545,0.154914 0.0816,0.232454 0.0455,0.130444 0.0899,0.261255 0.13594,0.391497 0.0645,0.182419 0.1522,0.335483 0.27189,0.489379 0.015,0.01925 0.0318,0.05829 0.0544,0.04894 0.24677,-0.102501 0.34334,-0.243561 0.51659,-0.428207 0.0996,-0.106131 0.20206,-0.209611 0.29907,-0.318092 0.2021,-0.225976 0.4009,-0.454907 0.59815,-0.685128 0.0928,-0.108295 0.18911,-0.214199 0.27188,-0.330325 0.0717,-0.100617 0.12179,-0.215288 0.19033,-0.318097 0.12191,-0.182853 0.25556,-0.357615 0.38064,-0.538313 0.0471,-0.0681 0.0829,-0.144356 0.13594,-0.207981 0.22972,-0.275657 0.19032,-0.240372 0.19032,-0.171282"
       id="path83472" />
    <path
       style="fill:#6ae4a3;stroke:#000000;stroke-width:1;stroke-linecap:round;stroke-linejoin:round"
       d="m 202.53936,83.577593 c 0.13595,-0.09787 0.27275,-0.194567 0.40784,-0.293625 0.0313,-0.02296 0.36715,-0.269256 0.4622,-0.354798 0.36237,-0.326117 -0.28798,0.199652 0.35345,-0.281392 0.0293,-0.02195 0.0508,-0.05363 0.0816,-0.07341 0.0334,-0.02149 0.0765,-0.02571 0.10876,-0.04894 0.0151,-0.0109 0.0109,-0.03979 0.0272,-0.04894 0.10801,-0.06076 0.37541,0.02923 0.48939,0.08564 0.29346,0.14525 0.48685,0.346509 0.7069,0.575017 0.0725,0.0734 0.14501,0.146811 0.21752,0.220216 0.0362,0.02447 0.0777,0.04264 0.10875,0.07341 0.0159,0.0157 0.0152,0.04233 0.0272,0.06117 0.0326,0.05141 0.0725,0.09787 0.10875,0.146811"
       id="path83474" />
    <path
       style="fill:#6ae4a3;stroke:#000000;stroke-width:1;stroke-linecap:round;stroke-linejoin:round"
       d="m 207.51488,80.824854 c -0.16619,0.616943 -0.0861,0.180411 -0.10876,0.709594 -0.005,0.110382 -0.0211,0.220014 -0.0272,0.330331 -0.0121,0.220074 -0.0207,0.440345 -0.0272,0.660656 -0.002,0.06055 -0.0169,0.642634 0.0272,0.685127 0.0396,0.03817 0.1149,0.002 0.16312,-0.02447 0.16403,-0.08986 0.30775,-0.212636 0.46221,-0.318092 0.10837,-0.07398 0.21648,-0.148363 0.32627,-0.22022 0.26519,-0.173573 0.55769,-0.388302 0.81566,-0.06117 0.13675,0.17342 0.34294,0.70414 0.38064,0.807471 0.0553,0.151509 0.0735,0.748921 0.38063,0.648423 0.0678,-0.02219 0.13158,-0.0574 0.19033,-0.09788 0.23187,-0.159769 0.45642,-0.330056 0.67972,-0.501608 0.1449,-0.111323 0.70766,-0.576111 0.84284,-0.709594 0.19847,-0.195982 0.38057,-0.407881 0.57095,-0.611722 0.0724,-0.07755 0.14762,-0.152612 0.21752,-0.232454 0.048,-0.05484 0.0939,-0.111767 0.13594,-0.171282 0.0503,-0.07107 0.039,-0.12499 0.13595,-0.14681 0.0149,-0.0033 -0.019,0.02385 -0.0272,0.0367 -0.01,0.01575 -0.0181,0.03262 -0.0272,0.04893"
       id="path83476" />
    <path
       style="fill:#6ae4a3;stroke:#000000;stroke-width:1;stroke-linecap:round;stroke-linejoin:round"
       d="m 214.77424,83.247263 c 1.03292,-0.02987 2.0662,-0.0367 3.0995,-0.0367 0.23563,0 0.47134,-0.006 0.7069,0 0.21258,0.0054 1.31549,0.05093 1.74006,0.07341 0.39868,0.0211 0.79845,0.04086 1.19632,0.0734 0.0364,0.003 0.0725,0.0086 0.10875,0.01223 0.0453,0.0045 0.0945,-0.0064 0.13594,0.01224 0.0149,0.0067 0,0.03263 0,0.04894"
       id="path83478" />
    <path
       style="fill:#6ae4a3;stroke:#000000;stroke-width:1;stroke-linecap:round;stroke-linejoin:round"
       d="m 194.79061,100.21637 c -0.2176,0.67425 -0.28633,1.35939 -0.38064,2.05537 -0.0551,0.40657 -0.0591,0.24189 -0.0816,0.63619 -0.0123,0.21598 -0.0155,0.43241 -0.0272,0.64842 -0.0158,0.29126 -0.0399,0.42875 -0.0544,0.72183 -0.0505,1.02338 8e-4,0.4072 -0.0544,1.08887 -0.0449,0.55554 -0.0118,0.14344 -0.10875,0.91757 -0.0112,0.0895 -0.013,0.1801 -0.0272,0.26916 -0.0888,0.55952 -0.0464,-0.14135 -0.0816,0.69736 -0.005,0.12631 0,0.25285 0,0.37927 0,0.0977 -0.034,0.27426 0.0544,0.36703 0.0977,0.10257 0.25174,0.12293 0.38064,0.14681 0.60996,0.11302 1.23205,0.0938 1.84882,0.0612 0.80646,-0.0427 1.6965,-0.13504 2.47417,-0.19574 1.74547,-0.13625 3.49711,-0.18352 5.2474,-0.18352 0.86161,0 1.72181,0.003 2.58292,-0.0245 0.61631,-0.0195 1.23227,-0.0491 1.84883,-0.0612 0.72955,-0.0143 0.65474,-0.0122 1.22348,-0.0122 0.12688,0 0.25401,-0.008 0.38064,0 0.39966,0.0251 0.79803,0.0683 1.1963,0.1101 0.13617,0.0143 0.27119,0.0402 0.40783,0.0489 0.42041,0.027 0.85461,0.0367 1.27786,0.0367 0.23152,0 0.62436,0.0498 0.81566,-0.12234 0.0608,-0.0547 0.10753,-0.12346 0.16314,-0.18352 0.0351,-0.0379 0.0837,-0.065 0.10875,-0.1101 0.0222,-0.04 0.0174,-0.0899 0.0272,-0.13458 0.0356,-0.16328 0.0826,-0.32434 0.10875,-0.48938 0.0102,-0.0644 0,-0.1305 0,-0.19575 0,-1.34012 0.0152,0.17391 -0.0272,-0.72183 -0.005,-0.10184 0,-0.2039 0,-0.30586 0,-0.23245 -0.006,-0.46497 0,-0.69736 0.007,-0.27782 0.0426,-0.55428 0.0544,-0.83193 0.007,-0.1637 0.0383,-0.94691 0.0272,-1.24792 -0.012,-0.32309 -0.0435,-0.64544 -0.0816,-0.96651 -0.0117,-0.0988 -0.041,-0.195 -0.0544,-0.29363 -0.0397,-0.29219 -0.0536,-0.58732 -0.0816,-0.88087 -0.009,-0.0938 -0.0181,-0.1876 -0.0272,-0.28139 -0.0181,-0.0816 -0.0445,-0.16173 -0.0544,-0.24469 -0.007,-0.0605 -0.0196,-0.616251 -0.0816,-0.746301 -0.10201,-0.21422 -0.10384,-0.174785 -0.2447,-0.293626 -0.0373,-0.03145 -0.0677,-0.0715 -0.10876,-0.09787 -0.0866,-0.0557 -0.18149,-0.09743 -0.27188,-0.146815 -0.0365,-0.01994 -0.0692,-0.04824 -0.10875,-0.06117 -0.0614,-0.02009 -0.12643,-0.02712 -0.19033,-0.0367 -0.18087,-0.02713 -0.36164,-0.05654 -0.54376,-0.07341 -0.15987,-0.01481 -0.70853,-0.01511 -0.84285,-0.01223 -1.18372,0.02537 -1.01732,0.02676 -1.98477,0.07341 -1.03301,0.0498 -2.06583,0.100753 -3.0995,0.134582 -1.28002,0.04189 -0.36021,0.01752 -2.1751,0.04893 -0.61332,0.01062 -0.68691,0.01682 -1.27785,0.01224 -0.21356,-0.0017 -0.99978,-0.0065 -1.35944,-0.02447 -0.70749,-0.03537 -1.41243,-0.100361 -2.12071,-0.122344 -0.47927,-0.01487 -0.96141,0 -1.441,0 -0.28234,0 -0.56102,-0.01471 -0.84284,-0.02447 -0.18078,-0.0063 -0.36292,0 -0.54378,0 -0.22062,0 -0.45997,-0.02073 -0.67971,0.01224 -0.0928,0.01393 -0.18082,0.05064 -0.27189,0.0734 -0.14589,0.03647 -0.29193,0.06059 -0.43501,0.11011 -0.047,0.01625 -0.0893,0.044 -0.13594,0.06117 -0.11303,0.04161 -0.23391,0.07027 -0.35346,0.08564 -0.0814,0.01047 -0.19727,-0.0053 -0.27189,0.0367 -0.023,0.01293 -0.0466,0.08391 -0.0544,0.09788 -0.0345,0.06216 -0.0731,0.121998 -0.10876,0.183515 -0.0699,0.120657 -0.14256,0.236759 -0.21751,0.354797 -0.0181,0.02855 -0.0406,0.05474 -0.0544,0.08564 -0.0138,0.03094 -0.0159,0.06597 -0.0272,0.09788 -0.0249,0.0702 -0.0637,0.13568 -0.0816,0.20798 -0.0176,0.0713 0,0.14681 0,0.22022"
       id="path83482" />
    <path
       style="fill:#6ae4a3;stroke:#000000;stroke-width:1;stroke-linecap:round;stroke-linejoin:round"
       d="m 197.31915,102.07599 c 0.0362,0.11011 0.0763,0.21904 0.10875,0.33033 0.0401,0.13759 0.0704,0.27788 0.10876,0.41597 0.088,0.31698 0.19052,0.62044 0.29908,0.92981 0.0267,0.0761 0.13003,0.37491 0.16313,0.45268 0.051,0.11977 0.10913,0.23635 0.16313,0.3548 0.0277,0.0608 0.14896,0.40408 0.27189,0.33032 0.0175,-0.0105 -0.0121,-0.0448 0,-0.0612 0.0275,-0.0371 0.0737,-0.0556 0.10875,-0.0856 0.0556,-0.0475 0.10734,-0.0995 0.16313,-0.14681 0.17987,-0.15254 0.36464,-0.29926 0.54377,-0.45267 1.2436,-1.06505 -0.59035,0.48533 0.57096,-0.52608 0.18704,-0.1629 0.37713,-0.3224 0.57096,-0.47714 0.0873,-0.0697 0.18361,-0.12735 0.27188,-0.19576 0.075,-0.0581 0.14163,-0.1266 0.21752,-0.18351 0.14962,-0.11222 0.31926,-0.19749 0.4622,-0.3181 0.0394,-0.0333 0.0752,-0.0709 0.10876,-0.1101 0.0121,-0.0142 0.0102,-0.0413 0.0272,-0.0489 0.0112,-0.005 0,0.0245 0,0.0367"
       id="path83484" />
    <path
       style="fill:#6ae4a3;stroke:#000000;stroke-width:1;stroke-linecap:round;stroke-linejoin:round"
       d="m 202.37623,103.86221 c 0.0272,0.14682 0.0273,0.30133 0.0816,0.44044 0.0387,0.0993 0.12823,0.17031 0.19033,0.25693 0.099,0.13804 0.18102,0.2851 0.27188,0.4282 0.13388,0.18071 -0.002,-0.01 0.0816,0.12234 0.008,0.0129 0.0128,0.0416 0.0272,0.0367 0.17011,-0.0574 0.19656,-0.13031 0.32627,-0.23246 0.24545,-0.19328 0.50944,-0.37735 0.76128,-0.56278 0.0816,-0.0612 0.16314,-0.12234 0.24471,-0.18352 0.0272,-0.0163 0.0558,-0.0304 0.0815,-0.0489 0.0737,-0.053 0.0996,-0.0829 0.19033,-0.1101"
       id="path83486" />
    <path
       style="fill:#6ae4a3;stroke:#000000;stroke-width:1;stroke-linecap:round;stroke-linejoin:round"
       d="m 206.45452,102.69995 c 0,0.24469 -0.007,0.48946 0,0.73406 0.002,0.0861 0.0175,0.17135 0.0272,0.25692 0.0356,0.31458 0.009,0.38621 0.10875,0.61172 0.0152,0.0341 0.0363,0.0653 0.0544,0.0979 0.009,0.0163 0.009,0.0489 0.0272,0.0489 0.1943,0 0.21474,-0.0915 0.38064,-0.17128 0.19555,-0.0941 0.39712,-0.17521 0.59815,-0.25692 0.15838,-0.0644 0.31397,-0.14011 0.48939,-0.0612 0.22745,0.10235 0.48859,0.31711 0.65253,0.51384 0.0628,0.0753 0.10623,0.16487 0.16313,0.24469 0.0972,0.13638 0.19784,0.27032 0.29908,0.40373 0.0362,0.0478 0.10908,0.15596 0.19032,0.14682 0.0774,-0.009 0.15158,-0.0441 0.21751,-0.0856 0.0722,-0.0455 0.1295,-0.11141 0.19032,-0.17128 0.36394,-0.35824 0.31143,-0.35054 0.67972,-0.90535 0.0645,-0.0972 0.13182,-0.19272 0.19031,-0.29362 0.0504,-0.087 0.0817,-0.18454 0.13595,-0.26916 0.13881,-0.21654 0.29951,-0.46511 0.54377,-0.57502"
       id="path83488" />
    <path
       style="fill:#6ae4a3;stroke:#000000;stroke-width:1;stroke-linecap:round;stroke-linejoin:round"
       d="m 214.80142,103.92338 c 0.64258,-0.0482 0.21721,-0.0245 1.27788,-0.0245 0.90731,0 1.81218,0.009 2.71885,0.0489 0.30809,0.0134 0.6162,0.0264 0.92442,0.0367 0.0549,0.002 0.28741,-0.0227 0.35345,0.0367 0.0429,0.0386 -0.0634,0.0989 -0.10877,0.13458"
       id="path83490" />
    <path
       style="fill:#6ae4a3;stroke:#000000;stroke-width:1;stroke-linecap:round;stroke-linejoin:round"
       d="m 194.93338,120.85789 c 0.10875,0.12234 0.23978,0.22805 0.32626,0.36703 0.12931,0.20781 0.29989,0.66066 0.35345,0.92981 0.019,0.0953 0.0996,0.8571 0.10876,0.92982 0.043,0.34286 0.0929,0.68483 0.13594,1.02769 0.0204,0.16285 0.0315,0.32684 0.0544,0.48937 0.0613,0.43542 0.18358,0.98897 0.29908,1.38249 0.0398,0.13565 0.11054,0.26026 0.16313,0.39149 0.11409,0.28471 0.26315,0.70057 0.35345,0.96652 0.11886,0.39219 0.0387,0.14177 0.16313,0.50162 0.0254,0.0733 0.0772,0.30701 0.16314,0.40373 0.0674,0.0758 0.15855,0.0536 0.2447,0.0489 0.19022,-0.0103 0.38066,-0.0159 0.57096,-0.0245 0.73459,-0.0331 0.32311,-0.0149 1.11473,-0.0612 0.49842,-0.0291 0.99667,-0.0619 1.49538,-0.0856 0.27169,-0.0129 0.54376,-0.0165 0.81565,-0.0245 1.11461,-0.0329 2.22936,-0.0518 3.3442,-0.0734 1.15133,-0.0223 2.3018,-0.0602 3.45295,-0.0856 0.26279,-0.006 0.52572,-0.005 0.78847,-0.0122 1.04322,-0.0293 2.08471,-0.0672 3.1267,-0.12234 0.099,-0.005 0.49078,0.01 0.51658,-0.14681 0.0146,-0.089 0.017,-0.17957 0.0272,-0.26917 0.008,-0.0695 0.023,-0.13818 0.0272,-0.20798 0.0122,-0.20256 -0.0234,-0.67202 -0.0272,-0.79523 -0.003,-0.11005 0.004,-0.2203 0,-0.33033 -0.009,-0.2326 -0.10557,-1.15341 -0.10875,-1.1745 -0.0226,-0.14952 -0.078,-0.29237 -0.10876,-0.44044 -0.0328,-0.15799 -0.0544,-0.3181 -0.0816,-0.47714 -0.0634,-0.37111 -0.13046,-0.74163 -0.19032,-1.11333 -0.0308,-0.19113 -0.0496,-0.38408 -0.0816,-0.57502 -0.044,-0.26281 -0.26843,-1.34864 -0.29907,-1.46813 -0.0324,-0.12637 -0.0914,-0.24442 -0.13594,-0.36703 -0.037,-0.10169 -0.0614,-0.20854 -0.10876,-0.30586 -0.23548,-0.48439 -0.41738,-0.71389 -0.89723,-0.92981 -0.0683,-0.0307 -0.3251,-0.0883 -0.38063,-0.0979 -0.39837,-0.0689 -0.79289,-0.0956 -1.1963,-0.1101 -1.09655,-0.0395 -2.1929,-0.0335 -3.28983,-0.0489 -1.4321,-0.0201 -2.86376,-0.0805 -4.2958,-0.0979 -0.21749,-0.003 -0.43503,0.003 -0.65252,0 -0.56153,-0.007 -1.12384,-0.0249 -1.6857,-0.0122 -0.22479,0.005 -0.68086,0.0395 -0.84285,0.0489 -0.0906,0.005 -0.18156,0.004 -0.27188,0.0122 -0.0821,0.008 -0.16273,0.0275 -0.2447,0.0367 -0.41449,0.0466 -0.83437,0.0935 -1.25068,0.12234 -0.0634,0.004 -0.12687,0.008 -0.19031,0.0122 -0.0544,0.008 -0.1083,0.0203 -0.16313,0.0245 -0.63532,0.0476 -0.0355,-0.0144 -0.59816,0.0122 -0.25413,0.012 -0.18445,0.0195 -0.38063,0.0489 -0.2907,0.0436 0.12151,-0.0372 -0.27189,0.0612 -0.0267,0.007 -0.059,-0.004 -0.0816,0.0123 -0.0622,0.0435 -0.12301,0.0946 -0.16312,0.15904 -0.0263,0.0423 -0.0226,0.0973 -0.0272,0.14682 -0.0322,0.34796 -0.0272,0.38976 -0.0272,0.68511 0,0.23246 -0.0103,0.46514 0,0.69737 0.003,0.0577 0.0221,0.1137 0.0272,0.17128 0.004,0.0447 0,0.0897 0,0.13458 0.009,0.0693 0.0202,0.13842 0.0272,0.20798 0.0112,0.11048 -0.0256,0.12339 0.0816,0.19576"
       id="path83492" />
    <path
       style="fill:#6ae4a3;stroke:#000000;stroke-width:1;stroke-linecap:round;stroke-linejoin:round"
       d="m 198.95729,123.56168 c 0.90224,-0.0239 -0.002,0.004 1.1963,-0.0489 0.45391,-0.0199 0.90516,-0.0179 1.35943,-0.0245 0.2718,-0.0153 0.14489,-0.0122 0.38065,-0.0122 0.0272,0 0.0544,0 0.0815,0 0.0272,0 0.0579,-0.0133 0.0816,0 0.0185,0.0104 0.0458,0.13333 0.0544,0.15904 0.0979,0.29371 0.19196,0.59341 0.27189,0.89311 0.007,0.0262 0.0391,0.2103 0.0544,0.24469 0.0124,0.0278 0.0413,0.0459 0.0544,0.0734 0.066,0.13857 -0.035,0.15379 0.16313,0.18352"
       id="path83494" />
    <path
       style="fill:#6ae4a3;stroke:#000000;stroke-width:1;stroke-linecap:round;stroke-linejoin:round"
       d="m 204.96597,123.03561 c 0.0906,0.14681 0.16481,0.30515 0.27189,0.44043 0.13591,0.17171 0.48099,0.48114 0.65252,0.68513 0.058,0.0689 0.39989,0.55146 0.40784,0.56279 0.0152,0.0216 0.16834,0.24571 0.2175,0.23245 0.0183,-0.005 0.18035,-0.17405 0.19032,-0.18352 0.12576,-0.11946 0.25172,-0.23876 0.38064,-0.35479 0.25442,-0.22897 0.52785,-0.43913 0.78848,-0.66066 0.0464,-0.0395 0.0883,-0.0843 0.13594,-0.12235 0.2342,-0.18735 -0.0232,0.0883 0.32626,-0.26915 0.0745,-0.0762 0.12688,-0.17129 0.19032,-0.25693"
       id="path83496" />
    <path
       style="fill:#6ae4a3;stroke:#000000;stroke-width:1;stroke-linecap:round;stroke-linejoin:round"
       d="m 212.25252,123.72073 c 0.15407,0.004 0.30809,0.0108 0.46221,0.0122 0.28093,0.003 0.5619,-0.003 0.84284,0 0.66909,0.006 1.34507,0.046 2.01196,0.0856 0.57191,0.034 1.14056,0.10596 1.71289,0.13458"
       id="path83498" />
  </g>
</svg>
