<?xml version="1.0" encoding="UTF-8" standalone="no"?>
<!-- Created with Inkscape (http://www.inkscape.org/) -->

<svg
   width="20.994223mm"
   height="10.316252mm"
   viewBox="0 0 20.994223 10.316252"
   version="1.1"
   id="svg5"
   sodipodi:docname="join.svg"
   inkscape:version="1.2.2 (b0a8486541, 2022-12-01)"
   xmlns:inkscape="http://www.inkscape.org/namespaces/inkscape"
   xmlns:sodipodi="http://sodipodi.sourceforge.net/DTD/sodipodi-0.dtd"
   xmlns="http://www.w3.org/2000/svg"
   xmlns:svg="http://www.w3.org/2000/svg">
  <sodipodi:namedview
     id="namedview7"
     pagecolor="#ffffff"
     bordercolor="#666666"
     borderopacity="1.0"
     inkscape:showpageshadow="2"
     inkscape:pageopacity="0.0"
     inkscape:pagecheckerboard="0"
     inkscape:deskcolor="#d1d1d1"
     inkscape:document-units="mm"
     showgrid="false"
     inkscape:zoom="4.6354114"
     inkscape:cx="15.316871"
     inkscape:cy="12.728104"
     inkscape:window-width="2560"
     inkscape:window-height="1372"
     inkscape:window-x="0"
     inkscape:window-y="32"
     inkscape:window-maximized="1"
     inkscape:current-layer="layer1"
     showguides="true" />
  <defs
     id="defs2" />
  <g
     inkscape:label="Layer 1"
     inkscape:groupmode="layer"
     id="layer1"
     transform="translate(-134.81671,-68.101417)">
    <path
       style="fill:#ffffff;fill-opacity:1;fill-rule:nonzero;stroke:#000000;stroke-width:1;stroke-linecap:round;stroke-linejoin:round"
       d="m 155.04181,74.038563 c 0.0897,-0.0029 0.26627,-0.09837 0.26916,-0.0086 0.003,0.08972 -0.17943,0.01129 -0.26916,0.0086 -0.2053,-0.006 -0.41013,-0.02321 -0.6152,-0.0346 -0.17642,-0.0098 -1.16858,-0.06146 -1.48035,-0.08651 -0.17969,-0.01444 -0.35862,-0.03747 -0.53831,-0.05191 -0.35865,-0.02882 -0.71799,-0.0487 -1.07661,-0.07786 -0.67718,-0.05507 -0.35338,-0.05282 -1.01894,-0.08651 -1.06354,-0.05384 -2.12774,-0.05029 -3.19139,-0.09516 -0.23706,-0.01 -0.47417,-0.01884 -0.71134,-0.02596 -0.0188,-5.56e-4 -0.30347,0.01051 -0.32683,0 -0.0236,-0.01061 -0.0465,-0.02855 -0.0577,-0.0519 -0.01,-0.02083 0,-0.04614 0,-0.06921"
       id="path45908" />
    <path
       style="fill:#ffffff;fill-opacity:1;fill-rule:nonzero;stroke:#000000;stroke-width:1;stroke-linecap:round;stroke-linejoin:round"
       d="m 144.85243,73.225366 c 0.32683,0.317204 0.71886,0.578805 0.98049,0.951613 0.0505,0.07194 -0.0937,0.161061 -0.17303,0.198974 -0.2414,0.115417 -0.59846,0.131507 -0.84591,0.0173 -0.29624,-0.13672 -0.50918,-0.417621 -0.55754,-0.743989 -0.0102,-0.06857 0.0589,-0.132843 0.11536,-0.173019 0.14727,-0.104748 0.30135,-0.228084 0.48063,-0.250883 0.14113,-0.01795 0.26669,0.100187 0.40373,0.138418 0.18379,0.05128 0.37554,0.07244 0.55753,0.129765 0.0762,0.02399 0.14366,0.07032 0.21148,0.112464 0.19709,0.122473 0.49256,0.355447 0.3845,0.622874 -0.10276,0.25434 -0.46882,0.320858 -0.71133,0.34604 -0.0894,0.0093 -0.18,0.02889 -0.26916,0.0173 -0.30389,-0.03951 -0.83071,-0.132849 -1.03816,-0.43255 -0.0745,-0.107559 -0.21469,-0.324366 -0.17302,-0.493108 0.0383,-0.155067 0.24645,-0.180891 0.36527,-0.207625 0.0885,-0.01991 0.44913,-0.02333 0.53832,-0.0086 0.17531,0.02886 0.35103,0.06341 0.51908,0.121114 0.0782,0.02686 0.14556,0.07981 0.21147,0.129765 0.15463,0.117191 0.23969,0.23345 0.26916,0.441204 0.008,0.05833 -0.10791,0.174831 -0.1538,0.19032 -0.24917,0.08409 -0.5512,0.120267 -0.80747,0.0346 -0.31811,-0.106334 -0.4179,-0.115485 -0.59598,-0.33739 -0.0849,-0.105812 -0.16163,-0.269186 -0.1538,-0.406598 0.005,-0.08077 0.19652,-0.139375 0.2307,-0.147066 0.19058,-0.04288 0.38325,-0.07716 0.57676,-0.103814 0.43722,-0.06023 1.114,-0.05798 1.46112,0.233579 0.12154,0.10209 0.18939,0.224875 0.17302,0.397945 -0.005,0.05592 -0.0565,0.09862 -0.0961,0.138419 -0.18531,0.18601 -0.4023,0.185282 -0.67289,0.224925 -0.14254,0.02088 -0.47545,0.01073 -0.6152,-0.02596 -0.20934,-0.05495 -0.41858,-0.117179 -0.61521,-0.207624 -0.0951,-0.04376 -0.1721,-0.120272 -0.24993,-0.190321 -0.20045,-0.180399 -0.29879,-0.332127 -0.36528,-0.614223 -0.0129,-0.05477 0.0166,-0.112499 0.0385,-0.16437 0.10643,-0.25313 0.29717,-0.298427 0.57676,-0.415249 0.10333,-0.04318 0.21628,-0.0599 0.32683,-0.07786 0.42884,-0.06968 0.67796,-0.02872 1.15351,0.06921 0.12877,0.02652 0.54518,0.207659 0.65366,0.294135 0.17844,0.142232 0.41037,0.315958 0.42296,0.570968 0.0109,0.220079 -0.17188,0.396433 -0.32683,0.519059 -0.10273,0.0813 -0.4823,0.177187 -0.59598,0.181674 -0.39584,0.01562 -0.76251,0.01081 -1.1343,-0.112464 -0.38608,-0.128011 -0.59416,-0.277983 -0.90358,-0.588269 -0.037,-0.03713 -0.2214,-0.390191 -0.21148,-0.467158 0.0459,-0.356078 0.30828,-0.566637 0.63444,-0.648825 0.22099,-0.05569 0.44593,-0.100312 0.67288,-0.121114 0.12156,-0.01114 0.24464,0.0073 0.36528,0.02596 0.38473,0.05935 0.7849,0.265431 0.94203,0.640175 0.12453,0.296977 0.032,0.606798 -0.24993,0.769939 -0.072,0.04166 -0.14882,0.08043 -0.23069,0.09516 -0.36973,0.06655 -0.50754,0.07183 -0.82669,-0.0173 -0.0916,-0.0256 -0.19055,-0.04153 -0.26916,-0.09516 -0.0102,-0.0069 -0.50003,-0.388908 -0.42295,-0.562318 0.0777,-0.174949 0.3421,-0.260834 0.51908,-0.250879 0.50168,0.02822 0.64482,0.139001 1.01894,0.423903"
       id="path45910" />
    <path
       style="fill:#ffffff;fill-opacity:1;fill-rule:nonzero;stroke:#000000;stroke-width:1;stroke-linecap:round;stroke-linejoin:round"
       d="m 145.17926,72.680352 c -0.23292,-0.176825 -0.32446,-0.468255 -0.51908,-0.674779 -0.31553,-0.334824 -0.63437,-0.671993 -0.99972,-0.951613 -1.0354,-0.792448 -2.38929,-1.299149 -3.57589,-1.730202 -0.39538,-0.143628 -1.38466,-0.404091 -1.94175,-0.501759 -0.51359,-0.09004 -1.01894,-0.1653 -1.53802,-0.190324 -0.0833,-0.004 -0.16668,-0.0045 -0.24993,-0.0086 -0.0898,-0.0045 -0.17934,-0.01326 -0.26916,-0.0173 -0.0384,-0.0017 -0.0773,-0.0057 -0.11534,0 -0.0417,0.0063 -0.0769,0.03461 -0.11536,0.05191"
       id="path45912" />
    <path
       style="fill:#ffffff;fill-opacity:1;fill-rule:nonzero;stroke:#000000;stroke-width:1;stroke-linecap:round;stroke-linejoin:round"
       d="m 145.21771,74.064518 c -0.4556,0.702902 -0.22648,0.459893 -1.26887,1.133283 -0.30351,0.196077 -0.61855,0.375359 -0.94204,0.536363 -0.89951,0.447694 -1.7105,0.80705 -2.65308,1.107329 -0.98247,0.312989 -1.70721,0.442491 -2.74921,0.674782 -0.5098,0.113648 -1.02149,0.223272 -1.53802,0.302785 -0.14076,0.02167 -0.2819,0.04086 -0.42295,0.06056 -0.0448,0.0063 -0.0899,0.01 -0.13458,0.0173 -0.0734,0.01201 -0.11843,0.02837 -0.19225,0.0173"
       id="path45914" />
  </g>
</svg>
