<?xml version="1.0" encoding="UTF-8" standalone="no"?>
<!-- Created with Inkscape (http://www.inkscape.org/) -->

<svg
   width="143.24437mm"
   height="84.807747mm"
   viewBox="0 0 143.24438 84.807752"
   version="1.1"
   id="svg5"
   sodipodi:docname="join-eqs.svg"
   inkscape:version="1.2.2 (b0a8486541, 2022-12-01)"
   xmlns:inkscape="http://www.inkscape.org/namespaces/inkscape"
   xmlns:sodipodi="http://sodipodi.sourceforge.net/DTD/sodipodi-0.dtd"
   xmlns="http://www.w3.org/2000/svg"
   xmlns:svg="http://www.w3.org/2000/svg">
  <sodipodi:namedview
     id="namedview7"
     pagecolor="#ffffff"
     bordercolor="#666666"
     borderopacity="1.0"
     inkscape:showpageshadow="2"
     inkscape:pageopacity="0.0"
     inkscape:pagecheckerboard="0"
     inkscape:deskcolor="#d1d1d1"
     inkscape:document-units="mm"
     showgrid="false"
     inkscape:zoom="1.1588529"
     inkscape:cx="430.59824"
     inkscape:cy="271.82053"
     inkscape:window-width="2560"
     inkscape:window-height="1372"
     inkscape:window-x="0"
     inkscape:window-y="32"
     inkscape:window-maximized="1"
     inkscape:current-layer="layer1"
     showguides="true" />
  <defs
     id="defs2" />
  <g
     inkscape:label="Layer 1"
     inkscape:groupmode="layer"
     id="layer1"
     transform="translate(-56.399146,-39.962192)">
    <path
       style="fill:none;fill-opacity:1;stroke:#000000;stroke-width:1;stroke-linecap:round;stroke-linejoin:round"
       d="m 86.32749,89.43525 c -0.6543,0.91066 -2.97326,2.67206 -0.73057,2.47419 0.59938,-0.0529 1.2229,-0.34662 1.57648,-0.8478 0.52729,-0.74742 0.0831,-0.82548 -0.57676,-0.89971 -0.15029,-0.0169 -0.84947,-0.0831 -1.11506,0.0173 -0.57639,0.21787 -0.53098,0.19425 -0.80746,0.55367 -0.0525,0.0683 -0.1326,0.12415 -0.15381,0.20763 -0.0708,0.2788 -0.0618,0.40701 0.15381,0.53636 0.0964,0.0579 0.19791,0.11373 0.3076,0.13841 0.30346,0.0683 0.61372,0.10364 0.92281,0.13842 0.20411,0.023 0.41183,0.0633 0.61521,0.0346 1.25807,-0.17744 1.61867,-0.16319 2.46084,-0.65748 0.13336,-0.0783 0.27084,-0.15469 0.3845,-0.25953 0.038,-0.035 0.46956,-0.43776 0.42295,-0.60558 -0.0666,-0.23983 -0.87699,-0.28831 -0.92281,-0.29413 -0.30704,-0.039 -1.12746,-0.0172 -1.42267,0.0346 -1.06097,0.18611 -1.3662,0.21014 -2.15322,0.64018 -0.16006,0.0875 -0.32466,0.17344 -0.46141,0.29414 -0.23548,0.20785 -0.62991,0.48243 -0.57676,0.8651 0.0817,0.58834 0.93471,0.78834 1.42267,0.81319 1.22573,0.0624 3.81583,0.0748 4.30646,-1.47067 0.13693,-0.4313 -0.0575,-0.47574 -0.57676,-0.70938 -0.24986,-0.11243 -1.29889,-0.22356 -1.49957,-0.22493 -0.71752,-0.005 -2.20358,-0.009 -2.96068,0.39795 -0.2145,0.1152 -0.71334,0.34134 -0.76902,0.69208 -0.0128,0.0807 -0.0194,0.18442 0.0385,0.24223 0.18703,0.18702 0.41785,0.33004 0.65366,0.44985 0.70605,0.3587 2.18559,0.21811 2.80689,0.17302 0.25881,-0.0188 0.51488,-0.0686 0.769,-0.12112 0.62194,-0.12858 0.79525,-0.17764 1.30732,-0.60556 0.19957,-0.16678 0.22125,-0.42769 0.0385,-0.64018 -0.0863,-0.10032 -0.74018,-0.23378 -0.80745,-0.24223 -0.81538,-0.10239 -1.79035,-0.2032 -2.61464,-0.0346 -0.15445,0.0316 -0.30812,0.067 -0.46141,0.10381 -0.039,0.009 -0.15195,0.0181 -0.11534,0.0346 0.047,0.0212 0.10253,-0.0115 0.1538,-0.0173"
       id="path71310" />
    <path
       style="fill:none;fill-opacity:1;stroke:#000000;stroke-width:1;stroke-linecap:round;stroke-linejoin:round"
       d="m 90.8262,90.50797 c 2.583,-0.30115 5.80134,-1.05905 8.22841,0.24223 0.26625,0.14275 0.53302,0.30779 0.73055,0.53637 0.34152,0.39517 0.46742,1.07938 0.42297,1.57448 -0.0262,0.2917 -0.1231,0.57541 -0.23071,0.8478 -0.10955,0.27727 -0.46711,0.84812 -0.65367,1.14194 -0.0568,0.0896 -0.16137,0.20938 -0.11534,0.22492 0.12141,0.041 0.32444,-0.0417 0.42295,-0.10381 0.0182,-0.0115 0.0256,-0.0346 0.0385,-0.0519 0.0128,-0.0173 0.0545,-0.0375 0.0385,-0.0519 -0.14701,-0.1323 -0.68443,-0.15552 -0.84593,-0.13842 -0.58316,0.0618 -0.87327,0.0959 -1.34576,0.32874 -0.13319,0.0656 -0.27056,0.12971 -0.3845,0.22493 -0.15793,0.13198 -0.2946,0.28896 -0.42295,0.44985 -0.0592,0.0742 -0.19574,0.3341 -0.11536,0.44986 0.29128,0.41942 0.84144,0.48846 1.30732,0.44985 0.80664,-0.0669 1.53301,-0.1392 1.88407,-0.95162 0.0581,-0.13452 -0.0286,-0.30463 -0.1538,-0.36334 -0.48092,-0.22542 -0.77657,-0.28587 -1.26886,-0.31143 -0.16639,-0.009 -0.33661,-0.0334 -0.49985,0 -0.26506,0.0542 -0.52392,0.14499 -0.76902,0.25953 -0.0937,0.0438 -0.15837,0.13365 -0.2307,0.20762 -0.19594,0.20039 -0.31081,0.32953 -0.26916,0.65748 0.0171,0.13459 0.34106,0.28409 0.42295,0.29413 0.77434,0.095 0.88482,0.0954 1.49957,-0.10381 0.15627,-0.0506 0.31907,-0.091 0.46141,-0.17302 0.18148,-0.10453 0.3515,-0.23282 0.49986,-0.38064 0.0379,-0.0377 0.0384,-0.10226 0.0384,-0.15572 0,-0.28926 -0.59151,-0.27817 -0.76901,-0.29414 -0.14089,-0.0127 -0.28168,-0.0275 -0.42296,-0.0346 -0.24862,-0.0124 -0.72769,-0.0816 -0.99971,0.0519 -0.0931,0.0457 -0.17943,0.10381 -0.26915,0.15572"
       id="path71312" />
    <path
       style="fill:none;fill-opacity:1;stroke:#000000;stroke-width:1;stroke-linecap:round;stroke-linejoin:round"
       d="m 97.97799,95.73319 c 2.15323,0.006 4.30645,0.0126 6.45969,0.0173 0.51267,0.001 1.02534,0 1.53802,0 0.2063,0 0.25069,0.0263 0.1538,-0.0173"
       id="path71314" />
    <path
       style="fill:none;fill-opacity:1;stroke:#000000;stroke-width:1;stroke-linecap:round;stroke-linejoin:round"
       d="m 97.20898,96.21764 c 0.42825,0.75155 0.50696,0.76826 0.69211,1.73021 0.11889,0.61765 0.27795,1.34341 -0.19225,1.88593 -0.96397,1.11223 -1.86588,1.29947 -3.2683,1.7994 -0.28789,0.10263 -0.58447,0.18319 -0.88436,0.24223 -2.14738,0.42275 -2.64442,0.46658 -4.5756,0.70939 -1.07482,0.13514 -2.14782,0.20049 -3.22986,0.24223 -0.46158,0.0178 -0.92341,0.0116 -1.38421,0.0346 -0.009,5.3e-4 -0.3845,0.0166 -0.3845,0.0173 0,0.0964 0.25506,0.11009 0.42295,0.13842"
       id="path71316" />
    <path
       style="fill:none;fill-opacity:1;stroke:#000000;stroke-width:1;stroke-linecap:round;stroke-linejoin:round"
       d="m 160.35313,100.81648 c -0.6543,-0.91066 -2.97326,-2.67206 -0.73057,-2.47418 0.59938,0.0529 1.2229,0.34661 1.57648,0.84779 0.52729,0.74742 0.0831,0.82548 -0.57676,0.89971 -0.15029,0.0169 -0.84947,0.0831 -1.11506,-0.0173 -0.57639,-0.21786 -0.53098,-0.19424 -0.80746,-0.55367 -0.0525,-0.0683 -0.1326,-0.12414 -0.15381,-0.20762 -0.0708,-0.27881 -0.0618,-0.40702 0.15381,-0.53636 0.0964,-0.0579 0.19791,-0.11374 0.3076,-0.13842 0.30346,-0.0683 0.61372,-0.10364 0.92281,-0.13841 0.20411,-0.023 0.41183,-0.0633 0.61521,-0.0346 1.25807,0.17743 1.61867,0.16318 2.46084,0.65747 0.13336,0.0783 0.27084,0.15469 0.3845,0.25953 0.038,0.035 0.46956,0.43776 0.42295,0.60558 -0.0666,0.23983 -0.87699,0.28832 -0.92281,0.29413 -0.30704,0.039 -1.12746,0.0172 -1.42267,-0.0346 -1.06097,-0.18611 -1.3662,-0.21014 -2.15322,-0.64018 -0.16006,-0.0875 -0.32466,-0.17343 -0.46141,-0.29414 -0.23548,-0.20785 -0.62991,-0.48242 -0.57676,-0.86509 0.0817,-0.58835 0.93471,-0.78834 1.42267,-0.8132 1.22573,-0.0624 3.81583,-0.0748 4.30646,1.47067 0.13693,0.4313 -0.0575,0.47574 -0.57676,0.70938 -0.24986,0.11244 -1.29889,0.22356 -1.49957,0.22493 -0.71752,0.005 -2.20358,0.009 -2.96068,-0.39795 -0.2145,-0.11519 -0.71334,-0.34134 -0.76902,-0.69208 -0.0128,-0.0807 -0.0194,-0.18442 0.0385,-0.24222 0.18703,-0.18703 0.41785,-0.33005 0.65366,-0.44985 0.70605,-0.35871 2.18559,-0.21812 2.80689,-0.17302 0.25881,0.0188 0.51488,0.0686 0.769,0.12111 0.62194,0.12858 0.79525,0.17764 1.30732,0.60557 0.19957,0.16677 0.22125,0.42768 0.0385,0.64017 -0.0863,0.10032 -0.74018,0.23378 -0.80745,0.24223 -0.81538,0.10239 -1.79035,0.2032 -2.61464,0.0346 -0.15445,-0.0316 -0.30812,-0.067 -0.46141,-0.10381 -0.039,-0.009 -0.15195,-0.0181 -0.11534,-0.0346 0.047,-0.0212 0.10253,0.0115 0.1538,0.0173"
       id="path71310-6" />
    <path
       style="fill:none;fill-opacity:1;stroke:#000000;stroke-width:1;stroke-linecap:round;stroke-linejoin:round"
       d="m 164.85184,99.74376 c 2.583,0.30115 5.80134,1.05905 8.22841,-0.24223 0.26625,-0.14275 0.53302,-0.30779 0.73055,-0.53636 0.34152,-0.39518 0.46742,-1.07939 0.42297,-1.57449 -0.0262,-0.2917 -0.1231,-0.57541 -0.23071,-0.8478 -0.10955,-0.27727 -0.46711,-0.84812 -0.65367,-1.14193 -0.0568,-0.0896 -0.16137,-0.20939 -0.11534,-0.22493 0.12141,-0.041 0.32444,0.0417 0.42295,0.10381 0.0182,0.0115 0.0256,0.0346 0.0385,0.0519 0.0128,0.0173 0.0545,0.0375 0.0385,0.0519 -0.14701,0.1323 -0.68443,0.15552 -0.84593,0.13842 -0.58316,-0.0617 -0.87327,-0.0959 -1.34576,-0.32874 -0.13319,-0.0656 -0.27056,-0.12971 -0.3845,-0.22493 -0.15793,-0.13198 -0.2946,-0.28895 -0.42295,-0.44985 -0.0592,-0.0742 -0.19574,-0.3341 -0.11536,-0.44986 0.29128,-0.41942 0.84144,-0.48846 1.30732,-0.44984 0.80664,0.0669 1.53301,0.13919 1.88407,0.95161 0.0581,0.13452 -0.0286,0.30463 -0.1538,0.36334 -0.48092,0.22542 -0.77657,0.28587 -1.26886,0.31143 -0.16639,0.009 -0.33661,0.0334 -0.49985,0 -0.26506,-0.0542 -0.52392,-0.14499 -0.76902,-0.25953 -0.0937,-0.0438 -0.15837,-0.13365 -0.2307,-0.20762 -0.19594,-0.20038 -0.31081,-0.32953 -0.26916,-0.65748 0.0171,-0.13459 0.34106,-0.28408 0.42295,-0.29413 0.77434,-0.095 0.88482,-0.0953 1.49957,0.10381 0.15627,0.0506 0.31907,0.091 0.46141,0.17303 0.18148,0.10452 0.3515,0.23282 0.49986,0.38064 0.0379,0.0377 0.0384,0.10225 0.0384,0.15571 0,0.28926 -0.59151,0.27817 -0.76901,0.29414 -0.14089,0.0127 -0.28168,0.0275 -0.42296,0.0346 -0.24862,0.0124 -0.72769,0.0816 -0.99971,-0.0519 -0.0931,-0.0457 -0.17943,-0.10381 -0.26915,-0.15572"
       id="path71312-1" />
    <path
       style="fill:none;fill-opacity:1;stroke:#000000;stroke-width:1;stroke-linecap:round;stroke-linejoin:round"
       d="m 172.00363,94.51854 c 2.15323,-0.006 4.30645,-0.0126 6.45969,-0.0173 0.51267,-10e-4 1.02534,0 1.53802,0 0.2063,0 0.25069,-0.0263 0.1538,0.0173"
       id="path71314-8" />
    <path
       style="fill:none;fill-opacity:1;stroke:#000000;stroke-width:1;stroke-linecap:round;stroke-linejoin:round"
       d="m 171.23462,94.03409 c 0.42825,-0.75155 0.50696,-0.76826 0.69211,-1.73021 0.11889,-0.61765 0.27795,-1.34341 -0.19225,-1.88593 -0.96397,-1.11223 -1.86588,-1.29947 -3.2683,-1.799402 -0.28789,-0.10263 -0.58447,-0.18319 -0.88436,-0.242229 -2.14738,-0.422751 -2.64442,-0.466579 -4.5756,-0.709388 -1.07482,-0.135136 -2.14782,-0.200493 -3.22986,-0.242228 -0.46158,-0.01781 -0.92341,-0.01156 -1.38421,-0.0346 -0.009,-5.3e-4 -0.3845,-0.01659 -0.3845,-0.0173 0,-0.09639 0.25506,-0.110088 0.42295,-0.13842"
       id="path71316-7" />
    <path
       style="fill:none;fill-opacity:1;stroke:#000000;stroke-width:1;stroke-linecap:round;stroke-linejoin:round"
       d="m 110.99612,93.98691 c 1.67718,-0.11511 3.36012,-0.077 5.03702,0.0173"
       id="path71318" />
    <path
       style="fill:none;fill-opacity:1;stroke:#000000;stroke-width:1;stroke-linecap:round;stroke-linejoin:round"
       d="m 110.38091,97.43002 c 2.54684,0.0756 2.97616,0.14915 5.03702,0.0692 0.69885,-0.0271 0.50366,0.0541 0.84591,-0.13842"
       id="path71320" />
    <path
       style="fill:none;fill-opacity:1;stroke:#000000;stroke-width:1;stroke-linecap:round;stroke-linejoin:round"
       d="m 144.56037,92.67489 c 1.67718,-0.11512 3.36012,-0.077 5.03702,0.0173"
       id="path71318-0" />
    <path
       style="fill:none;fill-opacity:1;stroke:#000000;stroke-width:1;stroke-linecap:round;stroke-linejoin:round"
       d="m 143.94516,96.11799 c 2.54684,0.0756 2.97616,0.14915 5.03702,0.0692 0.69885,-0.0271 0.50366,0.0541 0.84591,-0.13842"
       id="path71320-23" />
    <path
       style="fill:none;fill-opacity:1;stroke:#000000;stroke-width:1;stroke-linecap:round;stroke-linejoin:round"
       d="m 93.38127,116.74661 c 1.67718,-0.11511 3.36012,-0.077 5.03702,0.0173"
       id="path71318-9" />
    <path
       style="fill:none;fill-opacity:1;stroke:#000000;stroke-width:1;stroke-linecap:round;stroke-linejoin:round"
       d="m 92.76606,120.18971 c 2.54684,0.0756 2.97616,0.14916 5.03702,0.0692 0.69885,-0.0271 0.50366,0.0541 0.84591,-0.13842"
       id="path71320-2" />
    <path
       style="fill:none;fill-opacity:1;stroke:#000000;stroke-width:1;stroke-linecap:round;stroke-linejoin:round"
       d="m 122.47096,94.74697 c 0.28197,-0.0115 0.56394,-0.0231 0.84591,-0.0346 0.57675,-0.0115 1.15386,-0.0114 1.73027,-0.0346 1.14123,-0.046 2.28083,-0.12788 3.4221,-0.17303 0.46672,-0.0185 4.49474,-0.1314 5.57532,-0.15571 1.71977,-0.0387 1.35201,-0.0346 2.49928,-0.0346 0.19505,0 0.59996,-0.0446 0.69211,0.19032 0.0175,0.0446 -0.005,0.10408 -0.0384,0.13842 -0.0625,0.0643 -0.1538,0.0923 -0.23071,0.13842"
       id="path71322" />
    <path
       style="fill:#6ae4a3;fill-opacity:1;stroke:#000000;stroke-width:1;stroke-linecap:round;stroke-linejoin:round"
       d="m 58.665085,111.0765 c -0.0544,0.29362 -0.14244,0.58297 -0.16313,0.88087 -0.0159,0.22854 0.0441,0.45627 0.0544,0.68513 0.026,0.5788 0.0544,1.1579 0.0544,1.73728 0,1.02423 -0.231,2.01289 -0.43502,3.00966 -0.0754,0.36836 -0.26321,1.09281 -0.16313,1.46812 0.0156,0.0584 0.27808,0.14116 0.32626,0.14681 0.639135,0.075 1.166365,0.11378 1.794445,0.12235 1.61313,0.022 3.22629,-0.0393 4.83957,-0.0245 1.57803,0.0145 3.15426,0.086 4.73082,0.14681 0.6344,0.0245 1.26877,0.0496 1.9032,0.0734 0.17164,0.006 0.4854,0.0434 0.59815,-0.14682 0.0426,-0.0719 0.0501,-0.16124 0.0544,-0.24468 0.0139,-0.26879 0,-0.5383 0,-0.80746 0,-0.17944 0,-0.35888 0,-0.53832 0,-1.06117 -0.0143,-2.13591 -0.21751,-3.18094 -0.0843,-0.43355 -0.18442,-0.86391 -0.27188,-1.29684 -0.0394,-0.19514 -0.063,-0.39351 -0.10876,-0.58725 -0.11013,-0.46582 -0.35228,-1.1006 -0.48939,-1.51707 -0.0695,-0.21098 -0.28515,-1.05647 -0.43502,-1.1745 -0.20059,-0.15797 -1.15272,-0.18841 -1.25068,-0.19575 -1.15434,-0.0866 -2.2848,0.0854 -3.42576,0.24468 -0.54281,0.0758 -1.869,0.23173 -2.22947,0.26917 -0.94271,0.0979 -1.88833,0.13707 -2.82761,0.26915 -0.31803,0.0447 -0.60914,0.0695 -0.92442,0.0979 -0.0368,0.003 -0.58534,0.01 -0.65252,0.0489 -1.258155,0.73267 -0.22003,0.44976 -1.794445,0.6362"
       id="path71445" />
    <path
       style="fill:none;fill-opacity:1;stroke:#000000;stroke-width:1;stroke-linecap:round;stroke-linejoin:round"
       d="m 62.52587,111.81056 c 0.89521,1.08765 0.63181,0.53412 0.81566,2.56922 0.033,0.36555 0.0211,0.73468 0,1.1011 -0.0152,0.26306 -0.15156,0.52299 -0.10876,0.783 0.0135,0.0821 0.13832,-0.0969 0.21751,-0.12234 0.30346,-0.0975 0.61107,-0.18623 0.92441,-0.24469 0.97601,-0.18211 1.83309,-0.26361 2.82762,-0.0734 0.51334,0.0982 0.59864,0.1845 0.76128,0.51384 0.0395,0.08 0.11815,0.15593 0.10876,0.24469 -0.034,0.32121 -0.81334,0.72198 -0.9788,0.80747 -0.28348,0.14646 -0.99212,0.3107 -1.30505,0.36703 -0.86722,0.15609 -1.7766,0.29363 -2.66448,0.29363 -0.13235,0 -0.24829,-0.0245 -0.38064,-0.0245"
       id="path71447" />
    <path
       style="fill:none;fill-opacity:1;stroke:#000000;stroke-width:1;stroke-linecap:round;stroke-linejoin:round"
       d="m 66.44103,123.80026 c -1.60947,0.15078 -3.22486,0.2633 -4.83958,0.34256 -0.34407,0.0169 -0.68892,0.0116 -1.03317,0.0245 -1.37705,0.0516 -2.754345,0.0979 -4.132655,0.0979 -0.18125,0 0.36251,0 0.54377,0 2.183485,0 0.96763,0.0116 2.773225,-0.0245 0.76827,-0.0154 1.84282,-0.0255 2.61011,-0.0734 8.55311,-0.53455 -1.33522,0.0759 4.0783,-0.36703 0.30722,-0.0251 0.61652,-0.01 0.92441,-0.0245 0.70726,-0.0341 1.41371,-0.0833 2.12071,-0.12234 1.36334,-0.0753 2.72591,-0.11524 4.07829,-0.31809 0.21751,-0.0326 0.43705,-0.0538 0.65253,-0.0979 0.73481,-0.1503 1.53215,-0.33323 2.22946,-0.63619 0.34951,-0.15185 0.68977,-0.32419 1.03318,-0.48938 0.4929,-0.2371 0.52471,-0.22999 0.92441,-0.53831 0.32857,-0.25346 0.78533,-0.59602 1.08754,-0.92981 0.20025,-0.22117 0.53929,-0.70687 0.65253,-0.92982 0.0415,-0.0816 0.0267,-0.18191 0.0544,-0.26915 0.027,-0.0851 0.0808,-0.15991 0.10874,-0.24469 0.0448,-0.13613 0.0718,-0.27749 0.10877,-0.41596 0.0175,-0.0654 0.0451,-0.12868 0.0544,-0.19576 0.027,-0.19414 -0.0292,-0.28589 -0.0544,-0.48937 -0.01,-0.081 0.0351,-0.17105 0,-0.24469 -0.0972,-0.20406 -0.2859,-0.42429 -0.43502,-0.58725 -0.0532,-0.0582 -0.0978,-0.12717 -0.16314,-0.17128 -0.0824,-0.0556 -0.18481,-0.0744 -0.27188,-0.12234 -0.0767,-0.0422 -0.13947,-0.1073 -0.21752,-0.14681 -0.2128,-0.10773 -0.43501,-0.19576 -0.65252,-0.29363 -0.10875,-0.0489 -0.21252,-0.11098 -0.32626,-0.14681 -0.24991,-0.0787 -0.50833,-0.12746 -0.76128,-0.19575 -0.33481,-0.0904 -0.69617,-0.22539 -1.03317,-0.29363 -0.5263,-0.10656 -0.99685,-0.13014 -1.52256,-0.17128 -1.14562,-0.0896 -0.44346,-0.0734 -1.35943,-0.0734 -0.7069,0 -1.41381,0 -2.12071,0 -0.0725,0 -0.14501,0 -0.21751,0 -0.0544,0 -0.14105,-0.0497 -0.16313,0 -0.0222,0.0499 0.0725,0.0816 0.10875,0.12234"
       id="path71449" />
    <path
       style="fill:none;fill-opacity:1;stroke:#000000;stroke-width:1;stroke-linecap:round;stroke-linejoin:round"
       d="m 81.50351,118.56394 c -0.5619,-0.0571 -1.12092,-0.17537 -1.68569,-0.17128 -0.56566,0.004 -1.13263,0.077 -1.68569,0.19575 -0.80051,0.17192 -1.56702,0.93066 -0.32626,1.41919 0.84533,0.33283 2.14631,-0.007 2.82762,-0.41598 0.38488,-0.23091 0.96608,-0.58925 0.87002,-1.02768 -0.10892,-0.49711 -1.20823,-0.80931 -1.74007,-0.70959 -0.48907,0.0917 -0.82718,0.19551 -1.19629,0.48937 -0.41132,0.32746 -0.44837,0.4725 -0.59815,1.05215 -0.0265,0.10266 -0.0368,0.21867 0,0.3181 0.18171,0.49059 0.96585,0.54946 1.41381,0.58725 0.30017,0.0253 1.03052,0.0467 1.25068,-0.17128 0.0426,-0.0421 0.0377,-0.11375 0.0544,-0.17129 0.0377,-0.13008 0.0963,-0.25663 0.10874,-0.39149 0.0289,-0.31245 -0.4032,-0.5058 -0.59813,-0.58725 -0.10286,-0.043 -0.21751,-0.049 -0.32627,-0.0734 -0.52091,-0.11719 -0.21496,-0.0688 -0.92441,-0.0979"
       id="path71451" />
    <path
       style="fill:none;fill-opacity:1;stroke:#000000;stroke-width:1;stroke-linecap:round;stroke-linejoin:round"
       d="m 80.63349,119.39587 c 7.82085,0.26864 4.69989,0.31425 7.93906,0.22022 0.93194,-0.027 0.58181,0.0188 1.03316,-0.0489"
       id="path71453" />
    <path
       style="fill:none;fill-opacity:1;stroke:#000000;stroke-width:1;stroke-linecap:round;stroke-linejoin:round"
       d="m 102.11248,116.75326 c 2.54468,-1.28826 5.42929,0.0828 8.1022,-0.3181 0.12547,-0.0188 -0.25438,-0.0126 -0.38063,0 -0.36399,0.0364 -0.73257,0.0585 -1.08755,0.14681 -0.50059,0.12461 -0.9794,0.32442 -1.46818,0.48938 -0.17599,0.0594 -0.69247,0.24869 -0.43502,0.53831 0.0377,0.0424 0.10711,0.0398 0.16314,0.0489 0.144,0.0236 0.28982,0.0344 0.43502,0.0489 0.89373,0.0894 1.95523,0.0475 2.71885,-0.48937 0.0221,-0.0155 0.54377,-0.29767 0.54377,-0.53832 0,-0.20979 -0.38981,-0.17108 -0.59814,-0.19575 -0.63894,-0.0757 -2.83368,0.0659 -2.50136,1.15003 0.0489,0.15946 0.54633,0.34891 0.65253,0.36704 0.39513,0.0674 0.79545,0.12234 1.1963,0.12234 0.25701,0 0.51009,-0.0679 0.76127,-0.12234 0.74399,-0.16119 0.94271,-0.2619 1.63132,-0.73407 0.0625,-0.0429 0.32626,-0.34414 0.32626,-0.46491 0,-0.39405 -0.12961,-0.36191 -0.435,-0.44043 -0.14395,-0.037 -0.28678,-0.0871 -0.43503,-0.0979 -0.78514,-0.057 -1.05554,-0.0834 -1.68569,0.0489 -0.12821,0.0269 -0.26773,0.0314 -0.38065,0.0979 -0.0575,0.0338 -0.41385,0.33783 -0.38062,0.46491 0.0861,0.32952 0.20395,0.28328 0.48939,0.34256 0.12652,0.0263 0.25194,0.0618 0.38063,0.0734 0.49428,0.0445 1.51774,0.005 1.79446,-0.51384 0.0637,-0.1195 0.12177,-0.25668 0.10874,-0.3915 -0.0149,-0.15383 -0.35123,-0.25113 -0.43502,-0.26916 -0.32381,-0.0697 -0.65151,-0.1203 -0.97879,-0.17128 -0.52315,-0.0815 -1.10736,-0.11442 -1.63132,-0.0489 -0.0956,0.0119 -0.1826,0.0617 -0.27188,0.0979 -0.0921,0.0373 -0.19186,0.0634 -0.27188,0.12235 -0.35758,0.34863 -0.20036,0.23312 -0.43502,0.39151"
       id="path71459" />
    <path
       style="fill:#6ae4a3;fill-opacity:1;stroke:#000000;stroke-width:1;stroke-linecap:round;stroke-linejoin:round"
       d="m 119.2413,114.03722 c 0.006,0.12362 0.16609,3.36185 0.21751,3.71925 0.003,0.0177 0.1356,2.0238 0.81567,2.25113 0.58311,0.19492 1.72495,0.16189 2.3926,0.0979 1.23465,-0.11841 2.46231,-0.30479 3.69764,-0.41597 2.32146,-0.20892 1.90089,-0.16473 3.58889,-0.24469 0.95834,-0.0454 1.21067,-0.0673 2.22948,-0.0979 0.90172,0 -0.003,0.0142 0.59814,-0.0245 0.0543,-0.003 0.11355,0.0223 0.16314,0 0.0756,-0.034 -0.36566,-1.01813 -0.38065,-1.07662 -0.0742,-0.28926 -0.10693,-0.58759 -0.16312,-0.88088 -0.0344,-0.17979 -0.0836,-0.35698 -0.10877,-0.5383 -0.0957,-0.6888 -0.1123,-1.3863 -0.16311,-2.07985 -0.0191,-0.26093 -0.045,-0.52155 -0.0544,-0.78301 -0.009,-0.24453 0,-0.48937 0,-0.73406 0,-0.35887 -0.014,-0.71802 0,-1.07662 0.004,-0.10749 0.044,-0.21103 0.0544,-0.3181 0.008,-0.0812 -0.009,-0.16368 0,-0.24469 0.0224,-0.19168 0.0992,-0.28241 0.0544,-0.29363 -0.79688,-0.19921 -2.71397,0.11435 -3.31701,0.19575 -1.34355,0.18138 -2.67878,0.41432 -4.02392,0.58726 -0.32521,0.0418 -0.65357,0.0561 -0.97878,0.0979 -0.30946,0.0398 -0.61572,0.10158 -0.92442,0.14681 -0.47074,0.069 -0.94273,0.12913 -1.41381,0.19575 -0.16333,0.0231 -0.32586,0.0518 -0.48939,0.0734 -0.40901,0.0541 -1.03695,0.0526 -1.35944,0.36703 -0.0374,0.0364 -0.0362,0.0979 -0.0544,0.14681"
       id="path71461" />
    <path
       style="fill:none;fill-opacity:1;stroke:#000000;stroke-width:1;stroke-linecap:round;stroke-linejoin:round"
       d="m 124.18963,113.52337 c 0.14501,1.26422 0.29002,2.52845 0.43502,3.79267 0.0362,0.0734 0.0271,0.22547 0.10875,0.22022 0.2348,-0.0151 0.43796,-0.17261 0.65253,-0.26917 0.61124,-0.27505 1.67659,-0.87849 2.39259,-0.90533 0.69039,-0.0259 1.57152,0.0794 1.95758,0.75853 0.0891,0.15678 0.13796,0.37849 0.0544,0.53831 -0.1547,0.29587 -0.43498,0.51587 -0.7069,0.7096 -0.17304,0.12328 -0.39717,0.1513 -0.59816,0.22021 -0.78368,0.26867 -0.90655,0.25374 -1.95758,0.44043 -0.68545,0.12175 -1.9282,0.35575 -2.55573,0.0734"
       id="path71463" />
    <path
       style="fill:none;fill-opacity:1;stroke:#000000;stroke-width:1;stroke-linecap:round;stroke-linejoin:round"
       d="m 133.16188,116.67984 c 2.40561,-0.22214 4.82038,-0.19947 7.23216,-0.24468 1.73938,-0.0326 -0.86797,-0.0245 0.87004,-0.0245"
       id="path71465" />
    <path
       style="fill:none;fill-opacity:1;stroke:#000000;stroke-width:1;stroke-linecap:round;stroke-linejoin:round"
       d="m 171.87845,109.87752 c -0.38064,-0.008 -1.13377,-0.40511 -1.14192,-0.0245 -0.008,0.38064 0.76555,0.0819 1.14192,0.0245 0.64754,-0.0989 1.26641,-0.33587 1.9032,-0.48937 0.95156,-0.22939 1.91225,-0.38917 2.88199,-0.51384 0.71027,-0.0913 0.7481,-0.1183 1.63133,-0.17129 1.2516,-0.0751 2.60201,0.15721 3.8064,0.48937 0.34514,0.0952 0.68869,0.19604 1.03316,0.29364 0.14493,0.0411 0.29468,0.0676 0.43502,0.12234 1.83957,0.7174 1.60003,2.40064 1.35944,3.98841 -0.0294,0.194 -0.0551,0.35327 -0.10877,0.53831 -0.12108,0.41775 -0.10874,0.21039 -0.10874,0.4649 0,0.0516 -0.0294,-0.0934 0.0544,-0.19574 0.0999,-0.12201 0.22278,-0.22357 0.32626,-0.34256 0.0599,-0.0689 0.10013,-0.15407 0.16313,-0.22022 0.14449,-0.1517 0.21751,-0.0681 0.21751,-0.3181 0,-0.0305 -0.0317,-0.053 -0.0544,-0.0734 -0.18779,-0.16899 -0.36111,-0.0999 -0.65253,-0.0489 -0.59049,0.10333 -1.12493,0.61183 -1.52255,1.00322 -0.0876,0.0862 -0.24574,0.34329 -0.21752,0.48938 0.0784,0.40578 0.35594,0.46784 0.70691,0.48937 0.8594,0.0527 1.33533,0.16068 1.79444,-0.63618 0.0249,-0.0432 0.10005,-0.38562 0.0544,-0.44044 -0.37473,-0.44966 -1.02549,-0.5788 -1.57693,-0.56279 -0.58648,0.017 -1.38378,-7.9e-4 -1.79445,0.53832 -0.27294,0.35823 -0.45291,0.52323 -0.38063,0.92982 0.0182,0.10275 0.0238,0.23293 0.10874,0.29362 0.62961,0.44996 1.48564,0.51512 2.22946,0.48937 0.45405,-0.0157 0.90764,-0.05 1.35944,-0.0979 0.5935,-0.0628 0.89345,-0.23288 1.19629,-0.75853 0.0725,-0.12586 0.0743,-0.26897 0,-0.3915 -0.25946,-0.42811 -0.36859,-0.47761 -0.81565,-0.61172 -0.13165,-0.0395 -0.50333,-0.18273 -0.7069,-0.17128 -0.16863,0.009 -0.28502,0.0793 -0.43502,0.14681 0.41688,0.15497 0.80672,0.43778 1.25064,0.46491 1.20791,0.0738 3.7889,-0.26833 5.16584,-0.44044 0.63469,-0.0793 1.26842,-0.16614 1.9032,-0.24469 0.39135,-0.0484 0.14548,0.0135 0.43503,-0.0734"
       id="path71467" />
    <path
       style="fill:none;fill-opacity:1;stroke:#000000;stroke-width:1;stroke-linecap:round;stroke-linejoin:round"
       d="m 184.33083,115.08938 c 0.27189,0.7259 0.64534,1.42151 0.81567,2.17772 0.11098,0.49272 0.107,1.76867 -0.32628,2.27558 -0.27759,0.32477 -0.67115,0.53165 -1.03316,0.75854 -0.14887,0.0933 -0.31816,0.15641 -0.48939,0.19576 -1.54803,0.3557 -2.03126,0.41462 -3.48015,0.51384 -0.57563,0.0394 -1.21529,0.0246 -1.79444,0.12234 -0.20244,0.0342 -0.39877,0.0979 -0.59816,0.14681"
       id="path71469" />
    <path
       style="fill:#6ae4a3;fill-opacity:1;stroke:#000000;stroke-width:1;stroke-linecap:round;stroke-linejoin:round"
       d="m 167.14763,117.21816 c -0.81847,4.12496 -0.153,0.036 -0.21751,1.83515 -0.0126,0.35236 -0.0389,0.70655 -0.10876,1.05216 -0.0398,0.19713 -0.15179,0.3727 -0.21749,0.56278 -0.55011,1.59139 0.49243,-1.06544 -0.65253,1.63941 -0.061,0.14418 -0.0947,0.29964 -0.16314,0.44044 -0.29917,0.6154 -0.18442,0.0489 -0.32626,0.783 -0.008,0.04 -0.01,0.0828 0,0.12234 0.0868,0.35173 1.3321,0.39047 1.74007,0.41597 2.38954,0.14936 4.78484,0.0979 7.17779,0.0979 0.41736,0 0.83496,0.007 1.25069,0.0489 0.30605,0.0306 0.61555,0.0663 0.92439,0.049 0.27364,-0.0154 0.54504,-0.0573 0.81567,-0.0979 0.13047,-0.0195 0.50739,-0.0157 0.54377,-0.19575 0.0517,-0.25591 -0.0385,-0.92826 -0.0544,-1.15004 -0.0122,-0.17084 0.0109,-0.3429 0,-0.51384 -0.0275,-0.43385 -0.11879,-0.84332 -0.16313,-1.27238 -0.0181,-0.23653 -0.0362,-0.47306 -0.0544,-0.70959 0,-0.1305 0.009,-0.26133 0,-0.3915 -0.0271,-0.37814 -0.12587,-0.74829 -0.16314,-1.12556 -0.0355,-0.35984 0,-0.78841 0,-1.15004 0,-0.21173 0.0267,-0.47789 -0.10874,-0.66065 -0.029,-0.0392 -0.0725,-0.0652 -0.10876,-0.0979 -0.0362,-0.0326 -0.0632,-0.0803 -0.10875,-0.0979 -0.20816,-0.0803 -0.54646,-0.0818 -0.76128,-0.0979 -0.52874,-0.0397 -1.04827,-0.0558 -1.57694,-0.0734 -0.52593,-0.0175 -1.05087,-0.0616 -1.57695,-0.0734 -0.99937,-0.0225 -1.99504,-0.007 -2.99074,0.0734 -0.32238,0.0259 -1.1113,0.043 -1.52257,0.12235 -0.59796,0.11532 0.36834,-0.0225 -0.38063,0.0979 -0.18058,0.029 -0.36891,0.0198 -0.54376,0.0734 -0.22803,0.07 -0.43503,0.19575 -0.65254,0.29362 z"
       id="path71479" />
    <path
       style="fill:none;fill-opacity:1;stroke:#000000;stroke-width:1;stroke-linecap:round;stroke-linejoin:round"
       d="m 172.20471,118.51501 c -0.10875,0.39965 -0.2473,0.79237 -0.32626,1.19896 -0.0846,0.43565 -0.0763,0.8861 -0.16314,1.32131 -0.0408,0.20472 -0.145,0.3915 -0.2175,0.58725 -0.0181,0.0489 -0.0313,0.10002 -0.0544,0.14681 -0.0135,0.0273 -0.0845,0.0779 -0.0544,0.0734 0.13179,-0.0198 0.25335,-0.0828 0.38063,-0.12234 0.92409,-0.28677 1.06465,-0.40899 1.9032,-0.44044 0.19941,-0.007 0.39953,0.005 0.59816,0.0245 0.0565,0.005 0.11678,0.0162 0.16314,0.049 0.24614,0.17406 0.21749,0.14676 0.21749,0.34256 0,0.0489 0.032,0.10978 0,0.14681 -0.10478,0.12124 -0.24463,0.20889 -0.38063,0.29362 -0.22361,0.13932 -0.58045,0.22307 -0.81567,0.29363 -0.2175,0.0653 -0.43161,0.14313 -0.65251,0.19576 -0.17704,0.0422 -0.36315,0.0268 -0.54379,0.0489 -0.46449,0.057 -0.17452,0.0489 -0.48939,0.0489"
       id="path71481" />
    <path
       style="fill:none;fill-opacity:1;stroke:#000000;stroke-width:1;stroke-linecap:round;stroke-linejoin:round"
       d="m 150.94323,113.00953 c 2.71107,0.29208 5.43591,0.24468 8.15658,0.24468 0.19596,0 0.664,-0.0309 0.87004,0.0734 0.0466,0.0236 0.0362,0.0979 0.0544,0.14681"
       id="path71483" />
    <path
       style="fill:none;fill-opacity:1;stroke:#000000;stroke-width:1;stroke-linecap:round;stroke-linejoin:round"
       d="m 151.26949,117.732 c 2.36316,-0.001 4.71643,-0.16464 7.06904,-0.36703 0.60708,-0.0522 1.23592,-0.14681 1.84883,-0.14681"
       id="path71485" />
    <path
       style="fill:#6ae4a3;fill-opacity:1;stroke:#000000;stroke-width:1;stroke-linecap:round;stroke-linejoin:round"
       d="m 58.128484,43.3092 c -0.21751,0 -0.44214,-0.05522 -0.65253,0 -0.0552,0.01449 -0.003,0.114254 0,0.171277 0.19668,3.36271 -0.0465,-1.105571 0.0544,1.66388 0.009,0.253325 0.0416,0.505363 0.0544,0.758533 0.0957,1.895392 -0.003,0.80289 0.10875,1.981968 0.0178,0.187632 0.0189,0.377682 0.0544,0.562784 0.0554,0.28927 0.14689,0.570462 0.2175,0.856405 0.0149,0.06044 0.11425,0.554063 0.21751,0.587251 0.23082,0.07419 0.47127,0.114188 0.7069,0.171282 0.23564,0.05709 0.46829,0.128332 0.7069,0.171281 0.30592,0.05506 0.61617,0.08238 0.92442,0.122344 0.76118,0.09869 1.5204,0.214347 2.28384,0.293625 0.41538,0.04313 0.83373,0.04996 1.25068,0.07341 2.08861,0.117482 0.99035,0.0604 3.69765,0.122344 1.38112,0.0316 0.35475,0.02447 1.63132,0.02447 0.29001,0 0.58002,0 0.87003,0 0.0513,0 0.27807,0.0081 0.32627,-0.02447 0.12516,-0.08448 0.006,-0.505893 0,-0.611723 -0.008,-0.138406 0.008,-0.277526 0,-0.415968 -0.047,-0.846378 -0.24269,-1.673586 -0.43502,-2.495814 -0.20616,-0.881322 -0.42167,-1.76958 -0.54378,-2.6671 -0.14292,-1.050432 -0.1665,-2.219202 -0.0544,-3.278814 0.01,-0.09102 0.0226,-0.183324 0.0544,-0.269158 0.0127,-0.03437 0.24292,-0.404537 0.16314,-0.440436 -0.0859,-0.03866 -0.59267,-0.02447 -0.59815,-0.02447 -0.39877,0 -0.79766,-0.01 -1.1963,0 -0.52337,0.01308 -1.11589,0.08315 -1.63132,0.146815 -1.51691,0.187377 -1.69426,0.232401 -2.99074,0.367031 -2.01206,0.208936 -0.0408,-0.0328 -2.882,0.293625 -0.23633,0.02715 -0.47051,0.07128 -0.7069,0.09788 -0.5578,0.06275 -1.12546,0.115301 -1.6857,0.14681 -0.25144,0.01414 -0.48475,-0.05208 -0.7069,0.09788"
       id="path71559" />
    <path
       style="fill:none;fill-opacity:1;stroke:#000000;stroke-width:1;stroke-linecap:round;stroke-linejoin:round"
       d="m 63.620584,43.578354 c -0.58002,0.807469 -1.20836,1.582338 -1.74007,2.422408 -0.40903,0.646241 -1.1224,1.584744 -0.43501,2.373475 0.19173,0.220006 0.5291,0.262832 0.81565,0.318092 1.2749,0.245863 1.87344,0.290886 3.04512,0 0.13847,-0.03438 0.25376,-0.130499 0.38064,-0.195748"
       id="path71561" />
    <path
       style="fill:none;fill-opacity:1;stroke:#000000;stroke-width:1;stroke-linecap:round;stroke-linejoin:round"
       d="m 58.781014,46.392264 c 1.9757,0 3.95141,0 5.92711,0"
       id="path71563" />
    <path
       style="fill:#6ae4a3;fill-opacity:1;stroke:#000000;stroke-width:1;stroke-linecap:round;stroke-linejoin:round"
       d="m 61.119234,52.925429 c -0.19938,0.530157 -0.46452,1.040049 -0.59815,1.59047 -0.10426,0.429452 -0.0647,0.881583 -0.10876,1.321312 -0.0466,0.465749 -0.10245,0.930595 -0.16312,1.394722 -0.0173,0.132208 -0.0871,0.665855 -0.16314,0.905348 -0.008,0.08608 -0.084,0.142189 -0.10876,0.22022 -0.0148,0.04664 0.0131,0.09966 0,0.146811 -0.0119,0.043 -0.0437,0.07902 -0.0544,0.122343 -0.0235,0.09502 0.012,0.196491 0,0.29363 -0.0102,0.08292 -0.0363,0.163125 -0.0544,0.244688 0,0.19575 0.0124,0.391893 0,0.58725 -0.006,0.09135 -0.0452,0.178087 -0.0544,0.269154 -0.009,0.08926 0.0146,0.180627 0,0.269154 -0.0711,0.431871 -0.10876,0.284066 -0.10876,0.611717 0,0.02769 -0.0159,0.237522 0,0.244687 0.0665,0.02994 0.14457,0.02284 0.21751,0.02448 0.28994,0.0065 0.58002,0 0.87003,0 0.27189,0 0.54379,-0.0025 0.81566,0 0.46574,0.0044 2.03994,0.02116 2.71887,0.04893 1.47074,0.06016 0.269,0.04583 1.74007,0.07341 1.45227,0.02723 2.89845,0.02613 4.35017,0 0.1716,-0.0031 0.70484,0.04295 0.81566,-0.07341 0.0458,-0.04805 -0.0515,-0.441948 -0.0544,-0.464908 -0.0607,-0.477631 -0.0544,-0.940497 -0.0544,-1.419188 0,-0.513845 0,-1.027689 0,-1.541533 0,-0.603562 0,-1.207124 0,-1.810686 0,-0.187594 0.009,-0.375428 0,-0.562784 -0.009,-0.17202 -0.0362,-0.342567 -0.0544,-0.51385 -0.0181,-0.285469 -0.0414,-0.570656 -0.0544,-0.856405 -0.0144,-0.316751 0,-0.637305 0,-0.954281 0,-0.03263 0,-0.06525 0,-0.09788 0,-0.02447 0.0243,-0.07028 0,-0.07341 -4e-5,-5e-6 -0.76124,0.04894 -0.76128,0.04894 -0.41679,0.01876 -0.83396,0.02867 -1.25068,0.04894 -0.93718,0.04559 -0.66894,0.05698 -1.68569,0.122344 -0.326,0.02096 -0.65306,0.0241 -0.97879,0.04894 -1.51007,0.11517 -3.0078,0.288362 -4.51331,0.440441 -0.95774,0.09675 -2.087,0.120666 -3.04512,0.36703"
       id="path71565" />
    <path
       style="fill:none;fill-opacity:1;stroke:#000000;stroke-width:1;stroke-linecap:round;stroke-linejoin:round"
       d="m 66.176314,54.760586 c -0.0363,0.285468 -0.003,0.58866 -0.10875,0.856405 -0.13789,0.350131 -0.79658,1.253637 -1.03317,1.688352 -0.21849,0.401468 -0.46541,1.067092 -0.59815,1.468122 -0.0159,0.04789 -0.0969,0.412776 -0.0544,0.489374 0.17891,0.322023 0.49308,0.396895 0.81566,0.440441 0.27036,0.0365 1.19007,0.20593 1.52256,0.09788 0.19591,-0.06367 0.36252,-0.195747 0.54378,-0.293621"
       id="path71571" />
    <path
       style="fill:none;fill-opacity:1;stroke:#000000;stroke-width:1;stroke-linecap:round;stroke-linejoin:round"
       d="m 62.913684,57.47662 c 1.56997,-0.304796 3.23851,0.102248 4.83957,-0.09788 0.40039,-0.05005 0.32276,0.03077 0.43502,-0.171277"
       id="path71573" />
    <path
       style="fill:none;fill-opacity:1;stroke:#000000;stroke-width:1;stroke-linecap:round;stroke-linejoin:round"
       d="m 70.254604,47.958268 c 0.47127,-0.09788 0.93828,-0.219196 1.41381,-0.293625 0.3596,-0.05628 0.72462,-0.07015 1.08754,-0.09788 1.48987,-0.113844 1.76683,-0.152065 3.15389,-0.122344 1.861967,0.0399 2.814967,-0.003 4.458917,0.783 0.52805,0.252464 1.08989,0.566465 1.41381,1.076625 0.16482,0.259583 0.39096,1.092082 0.43502,1.22344 0.23181,0.691046 0.1305,0.181004 0.21751,0.905348 0.0884,0.735474 0.0544,0.255362 0.0544,1.272373 0,0.224333 0.0191,0.538054 -0.0544,0.758533 -0.0706,0.211688 -0.1854,0.406019 -0.27189,0.611718 -0.0404,0.09622 -0.0599,0.201373 -0.10875,0.29363 -0.0427,0.08075 -0.10876,0.146814 -0.16313,0.22022 -0.41017,0.553695 -0.84737,1.067587 -1.41381,1.468123 -0.34399,0.24324 -0.69946,0.510496 -1.08754,0.685127 -0.23269,0.104701 -0.47423,0.188918 -0.70691,0.293621 -0.0939,0.04227 -0.17511,0.111566 -0.27188,0.14682 -0.28524,0.103905 -0.58153,0.174734 -0.87004,0.269154 -0.11039,0.03612 -0.21271,0.09791 -0.32626,0.122343 -0.73649,0.158497 -1.481267,0.194183 -2.229467,0.244687 -0.32643,0.02203 -0.6527,0.04673 -0.97879,0.07341 -0.1634,0.01337 -0.32554,0.04367 -0.4894,0.04893 -0.65403,0.02102 -1.30364,-0.03995 -1.95757,-0.02447 -0.45555,0.01079 -0.90402,0.122344 -1.35944,0.122344"
       id="path71575" />
    <path
       style="fill:none;fill-opacity:1;stroke:#000000;stroke-width:1;stroke-linecap:round;stroke-linejoin:round"
       d="m 79.988111,52.191364 c 0.0633,-0.113876 0.31023,-0.3876 0.38063,-0.44044 0.0795,-0.05962 0.18219,-0.07947 0.27189,-0.122344 0.20038,-0.0958 0.37669,-0.276545 0.59815,-0.293625 0.43646,-0.03367 0.86915,0.187195 1.30505,0.146815 0.38771,-0.03592 0.44039,-0.499424 0.81566,-0.269159 0.29557,0.181362 0.35957,0.244507 0.32627,0.513846 -0.0102,0.08292 -0.008,0.175167 -0.0544,0.244687 -0.45499,0.68245 -1.21944,0.95227 -2.01195,1.00322 -0.11124,0.0072 -0.21751,-0.04894 -0.32626,-0.07341 -0.10876,-0.02447 -0.23127,-0.01511 -0.32627,-0.07341 -0.0518,-0.03177 -0.34866,-0.30382 -0.32626,-0.464903 0.0112,-0.08109 0.0654,-0.15071 0.10875,-0.22022 0.11608,-0.18654 0.47227,-0.717806 0.76129,-0.734066 0.34471,-0.01939 0.68822,0.05863 1.03316,0.07341 0.41659,0.01787 0.83515,-0.01016 1.25068,0.02447 0.0792,0.0066 0.16841,0.03532 0.21751,0.09788 0.41701,0.531677 -0.39883,1.191212 -0.81566,1.37025 -0.20485,0.08799 -0.42974,0.13841 -0.65253,0.14681 -0.21979,0.0082 -0.4823,0.0414 -0.65252,-0.09787 -0.10195,-0.08343 0.003,-0.270171 0.0544,-0.391502 0.16843,-0.397914 0.39876,-0.766686 0.59815,-1.15003 0.30814,0.154968 0.5912,0.375873 0.92442,0.464903 0.26267,0.07018 0.5438,-0.0041 0.81565,0 0.79761,0.01217 1.59515,0.029 2.3926,0.04894 0.49008,0.01225 0.97816,0.07341 1.46818,0.07341"
       id="path71577" />
    <path
       style="fill:none;fill-opacity:1;stroke:#000000;stroke-width:1;stroke-linecap:round;stroke-linejoin:round"
       d="m 94.343701,49.866831 c 0.38067,-0.01966 3.12444,-0.101618 4.24143,-0.269159 0.18373,-0.02756 0.36252,-0.08156 0.54378,-0.122343"
       id="path71579" />
    <path
       style="fill:none;fill-opacity:1;stroke:#000000;stroke-width:1;stroke-linecap:round;stroke-linejoin:round"
       d="m 93.854311,52.460521 c 1.57425,0.09587 3.15481,-0.09787 4.73082,-0.09787"
       id="path71581" />
    <path
       style="fill:#6ae4a3;fill-opacity:1;stroke:#000000;stroke-width:1;stroke-linecap:round;stroke-linejoin:round"
       d="m 107.82926,46.881638 c -0.0906,0.228376 -0.21058,0.447198 -0.27189,0.685128 -0.0845,0.328084 -0.0951,0.671331 -0.16313,1.00322 -0.0408,0.199017 -0.11798,0.389169 -0.16312,0.58725 -0.20061,0.880146 -0.34293,1.774885 -0.59816,2.642629 -0.10142,0.344805 -0.21571,0.6857 -0.32626,1.027687 -0.0433,0.13387 -0.2823,0.54344 -0.0544,0.660656 0.0809,0.04161 0.18146,0.0143 0.27188,0.02448 0.12712,0.0143 0.25311,0.03881 0.38063,0.04893 0.48894,0.03883 0.97837,0.07225 1.46818,0.09788 0.28973,0.01516 0.58013,0.01328 0.87004,0.02447 1.98612,0.0766 0.15949,0.05062 3.09951,0.09788 1.26824,0.02038 2.53925,-0.03987 3.8064,-0.07341 0.92409,0 0.0408,0.013 0.7069,-0.02447 0.0453,-0.0025 0.32238,0.0029 0.32628,0 0.011,-0.0082 -0.0114,-0.230321 0,-0.293625 0.0444,-0.246685 0.11074,-0.488943 0.16312,-0.734066 0.29399,-1.375832 0.21751,-2.808626 0.21751,-4.208628 0,-0.432282 0,-0.864563 0,-1.296845 0,-0.187595 -0.0189,-0.37614 0,-0.562784 0.0176,-0.174189 0.0803,-0.341091 0.10876,-0.513841 0.007,-0.04505 0.14142,-1.03306 0.16312,-1.247912 0.003,-0.03088 0.0123,-0.188692 -0.0544,-0.195748 -0.74931,-0.07934 -1.50109,0.07 -2.22946,0.22022 -0.61696,0.127242 -1.23101,0.268532 -1.84883,0.391497 -0.86645,0.172449 -1.08682,0.177631 -1.95758,0.318097 -1.96978,0.317756 -1.36747,0.250664 -2.77324,0.440436 -0.54377,0.07341 -1.08754,0.146816 -1.63132,0.22022 -0.27621,0.03729 -0.38907,0.02333 -0.7069,0.122344 -0.15884,0.04948 -0.29002,0.163125 -0.43502,0.244687"
       id="path71585" />
    <path
       style="fill:none;fill-opacity:1;stroke:#000000;stroke-width:1;stroke-linecap:round;stroke-linejoin:round"
       d="m 111.52692,48.202955 c -0.0702,1.453213 -0.0287,1.026602 -0.21752,2.691567 -0.0315,0.277892 -0.16052,0.557097 -0.10876,0.831938 0.22434,1.191198 1.87047,0.728768 2.55573,0.538313 0.1643,-0.04566 0.29002,-0.179439 0.43502,-0.269159"
       id="path71587" />
    <path
       style="fill:none;fill-opacity:1;stroke:#000000;stroke-width:1;stroke-linecap:round;stroke-linejoin:round"
       d="m 108.10114,49.744487 c 6.50681,-0.378612 4.20162,-0.36703 6.9059,-0.36703"
       id="path71589" />
    <path
       style="fill:none;fill-opacity:1;stroke:#000000;stroke-width:1;stroke-linecap:round;stroke-linejoin:round"
       d="m 117.67154,50.454082 c 2.71585,-0.182331 5.43628,-0.253672 8.15658,-0.318092"
       id="path71591" />
    <path
       style="fill:#6ae4a3;fill-opacity:1;stroke:#000000;stroke-width:1;stroke-linecap:round;stroke-linejoin:round"
       d="m 134.64959,41.529006 c 0.11061,2.687822 0.46965,2.358883 -0.7069,4.60013 -0.21845,0.416123 -0.54361,0.766808 -0.81567,1.150035 -0.14484,0.204025 -0.31055,0.394669 -0.43502,0.611717 -0.0243,0.04245 -0.0484,0.139353 0,0.146816 1.53048,0.236121 3.54533,0.140874 5.0027,0.09787 1.17868,-0.03478 2.35602,-0.106364 3.53452,-0.14681 0.66771,-0.02291 2.89304,-0.09593 3.96954,-0.07341 0.41712,0.0087 0.83395,0.02884 1.25067,0.04893 0.0156,7.4e-4 0.57459,0.07015 0.59816,0.04894 0.12307,-0.110751 -0.32011,-0.672968 -0.32627,-0.685123 -0.17487,-0.345016 -0.3323,-0.698695 -0.4894,-1.052158 -0.44212,-0.994742 -0.5978,-1.79492 -0.7069,-2.911787 -0.023,-0.235412 0,-0.473063 0,-0.709595 0,-0.654601 -0.0243,-0.798431 0.10877,-1.517065 0.0176,-0.09515 0.0751,-0.178413 0.10874,-0.269154 0.0208,-0.05617 0.0319,-0.115743 0.0544,-0.171282 0.0368,-0.09103 0.12043,-0.163358 0.0544,-0.171282 -0.27008,-0.03241 -0.54384,-0.01469 -0.81567,-0.02447 -0.88541,-0.03187 -1.77967,-0.06865 -2.66448,0 -0.82006,0.06362 -1.63314,0.198865 -2.44697,0.318097 -0.23661,0.03467 -0.46951,0.09358 -0.70691,0.122343 -0.23448,0.02841 -0.47177,0.0265 -0.7069,0.04894 -0.36316,0.03466 -0.72573,0.07582 -1.08755,0.122343 -1.18405,0.152226 0.12187,0.0076 -0.70691,0.122344 -0.14454,0.02001 -0.28958,0.03704 -0.43502,0.04894 -0.3158,0.02584 -0.60348,-0.0167 -0.92441,0.04894 -0.23954,0.04899 -0.47126,0.1305 -0.70689,0.195749 z"
       id="path71593" />
    <path
       style="fill:none;fill-opacity:1;stroke:#000000;stroke-width:1;stroke-linecap:round;stroke-linejoin:round"
       d="m 140.3592,43.290758 c -0.73308,0.03665 -1.82452,-0.212604 -1.41381,1.321312 0.10676,0.398723 0.67953,0.474245 0.97879,0.758533 0.19397,0.184271 0.37531,0.39418 0.48939,0.636189 0.0288,0.06118 -0.0572,0.127481 -0.10876,0.171282 -0.29804,0.253323 -0.88803,0.481175 -1.1963,0.587251 -1.03401,0.355807 -1.75724,0.410334 -2.82762,0.440441"
       id="path71595" />
    <path
       style="fill:none;fill-opacity:1;stroke:#000000;stroke-width:1;stroke-linecap:round;stroke-linejoin:round"
       d="m 139.05413,45.492947 c 1.72776,0.237936 3.47142,-0.685123 5.22022,-0.685123"
       id="path71597" />
    <path
       style="fill:#6ae4a3;fill-opacity:1;stroke:#000000;stroke-width:1;stroke-linecap:round;stroke-linejoin:round"
       d="m 131.98509,51.096301 c 0.0329,0.508781 -0.15867,3.784034 0.59816,5.089504 0.23637,0.407715 1.77164,0.609327 2.06634,0.660661 1.14264,0.199033 2.93001,0.490326 4.13266,0.587251 1.33518,0.107606 2.6855,0.09206 4.02392,0.14681 0.4353,0.01781 0.87004,0.03387 1.30504,0.04893 0.16385,0.0057 0.43511,0.105763 0.4894,-0.04893 0.0792,-0.225796 0.0551,-0.476383 0.10876,-0.709594 0.0303,-0.131999 0.0879,-0.257678 0.10874,-0.391502 0.0613,-0.39324 0.12799,-1.212999 0.16314,-1.663876 0.0191,-0.244617 0.0484,-0.48878 0.0544,-0.734066 0.0169,-0.693075 0,-1.386563 0,-2.079845 0,-0.375187 0,-0.750375 0,-1.125563 0,-0.08972 0,-0.179439 0,-0.269159 0,-0.03262 0.0316,-0.08975 0,-0.09787 -0.12288,-0.0316 -0.25376,0 -0.38063,0 -0.12688,0 -0.25377,0 -0.38065,0 -0.92138,0 -0.66832,-0.01206 -2.01195,0.09787 -0.41966,0.03433 -1.56762,0.173425 -1.95759,0.220221 -1.0151,0.121807 -2.03021,0.243601 -3.04511,0.36703 -0.83654,0.101737 -1.66018,0.21598 -2.50136,0.293625 -0.30727,0.02836 -0.61594,0.04163 -0.92442,0.04894 -0.571,0.01352 -1.15022,-0.06966 -1.68569,0.171282"
       id="path71599" />
    <path
       style="fill:none;fill-opacity:1;stroke:#000000;stroke-width:1;stroke-linecap:round;stroke-linejoin:round"
       d="m 141.28359,52.319736 c -1.01503,0.37519 -2.12207,0.560694 -3.0451,1.125569 -0.17897,0.109524 0.1884,0.380131 0.32625,0.538312 0.93471,1.072553 0.51755,0.327115 1.03316,1.052158 0.0787,0.110704 0.29895,0.372856 0.10877,0.538313 -0.22119,0.192422 -0.49698,0.313577 -0.76128,0.440435 -0.28099,0.134871 -0.57513,0.241707 -0.87004,0.342564 -0.29643,0.101375 -0.61711,0.143895 -0.92442,0.195749"
       id="path71601" />
    <path
       style="fill:none;fill-opacity:1;stroke:#000000;stroke-width:1;stroke-linecap:round;stroke-linejoin:round"
       d="m 138.4016,54.326181 c 3.98767,0.05054 2.57376,0.04893 4.24143,0.04893"
       id="path71603" />
    <path
       style="fill:none;fill-opacity:1;stroke:#000000;stroke-width:1;stroke-linecap:round;stroke-linejoin:round"
       d="m 145.3619,45.101449 c 1.66598,-0.0043 3.33944,-0.09529 5.0027,0.02447 0.76095,0.05479 1.50838,0.152337 2.22946,0.415969 0.14637,0.05351 0.30287,0.08869 0.43502,0.171282 0.1978,0.123622 0.36301,0.293016 0.54377,0.440441 0.10926,0.08911 0.24031,0.157405 0.32627,0.269153 0.0816,0.106117 0.11253,0.243077 0.16312,0.367031 0.11258,0.275789 0.25229,0.5434 0.32628,0.831943 0.0365,0.14221 -0.0125,0.294157 0,0.440436 0.0362,0.277312 0.0725,0.554625 0.10875,0.831937 0,0.122344 -0.009,0.245045 0,0.367031 0.009,0.115279 0.0445,0.227366 0.0544,0.342564 0.0565,0.660656 -0.0895,1.357889 -0.54377,1.859629 -0.0719,0.0794 -0.18619,0.107016 -0.27188,0.171282 -0.078,0.05852 -0.13295,0.147129 -0.21751,0.195749 -0.24422,0.14042 -0.5134,0.23318 -0.76128,0.36703 -0.11546,0.06234 -0.2082,0.162999 -0.32627,0.22022 -0.11993,0.05812 -0.25641,0.07407 -0.38063,0.122344 -0.5522,0.214595 -1.10796,0.48454 -1.6857,0.636189 -0.18165,0.04768 -0.9535,0.206478 -1.25069,0.244687 -0.361,0.04641 -0.72583,0.05719 -1.08753,0.09788 -0.94039,0.105789 -1.8849,0.179845 -2.82762,0.269154 -0.10875,0.0082 -0.2175,0.01631 -0.32625,0.02447 -0.0906,0 -0.18153,-0.0068 -0.2719,0 -0.20032,0.01502 -0.39853,0.05095 -0.59815,0.07341"
       id="path71607" />
    <path
       style="fill:none;fill-opacity:1;stroke:#000000;stroke-width:1;stroke-linecap:round;stroke-linejoin:round"
       d="m 155.1498,48.747298 c -0.81566,0.367031 -1.69327,0.619495 -2.44697,1.101092 -0.19434,0.124174 -0.38608,0.435816 -0.2719,0.636189 0.14448,0.253559 0.52933,0.261727 0.81566,0.318097 0.97703,0.192343 1.90717,-0.06993 2.3926,-1.00322 0.0608,-0.116888 10e-4,-0.272039 -0.0544,-0.391502 -0.1112,-0.239076 -0.17647,-0.608948 -0.43502,-0.660656 -0.35839,-0.07167 -0.68034,0.271767 -1.03318,0.367031 -0.105,0.02835 -0.22243,-0.03235 -0.32626,0 -0.29374,0.09151 -0.37974,0.206848 -0.54377,0.415968 -0.0564,0.07188 -0.14774,0.130173 -0.16313,0.220221 -0.0873,0.510355 0.253,0.573266 0.65253,0.636189 0.56329,0.08871 1.17681,0.192033 1.57694,-0.318097 0.0302,-0.0385 0,-0.09787 0,-0.14681 0,-0.195996 -0.0643,-0.222452 -0.2719,-0.269159 -0.26573,-0.05978 -0.5435,-0.0378 -0.81565,-0.04894 0.70692,0.15497 1.40661,0.347659 2.12075,0.464909 0.62932,0.103323 1.26732,0.146901 1.9032,0.195753 1.18845,0.0913 2.43657,0.171277 3.64327,0.171277"
       id="path71609" />
    <path
       style="fill:none;fill-opacity:1;stroke:#000000;stroke-width:1;stroke-linecap:round;stroke-linejoin:round"
       d="m 164.55704,47.328109 c 1.32345,0.0031 2.64666,0.0039 3.96955,-0.02447 0.88835,-0.01904 0.091,0.03883 1.19629,-0.04894 0.19437,-0.01543 0.38081,-0.01234 0.54379,-0.122344"
       id="path71615" />
    <path
       style="fill:none;fill-opacity:1;stroke:#000000;stroke-width:1;stroke-linecap:round;stroke-linejoin:round"
       d="m 164.39393,51.316517 c 0.2175,-0.01631 0.43448,-0.04333 0.65253,-0.04893 1.39036,-0.03575 2.79442,0 4.18703,0"
       id="path71617" />
    <path
       style="fill:#6ae4a3;fill-opacity:1;stroke:#000000;stroke-width:1;stroke-linecap:round;stroke-linejoin:round"
       d="m 177.28132,44.758886 c 0.10227,0.948058 0.3991,3.484437 0.43502,4.551191 0.0135,0.399842 -0.034,0.799426 -0.0544,1.198973 -0.0159,0.310064 -0.11587,0.625496 -0.0544,0.929815 0.0204,0.100962 0.1706,0.128163 0.2719,0.14681 0.2993,0.0551 1.3368,0.09502 1.68569,0.09788 2.77193,0.02268 5.55267,-0.0942 8.31972,0.122344 0.89325,0.0699 0.0757,0.04088 1.08753,0.07341 0.0543,0.0017 0.12563,0.03938 0.16313,0 0.003,-0.0029 0,-0.697719 0,-0.807471 0,-0.603564 -0.0227,-1.207555 0,-1.810691 0.01,-0.253312 0.0423,-0.505326 0.0544,-0.758528 0.0242,-0.505437 0.0174,-1.012405 0.0544,-1.517066 0.0562,-0.767481 0.28892,-1.57503 0.43502,-2.324536 0.10658,-0.546698 0.0241,-0.219364 0.0544,-0.709595 0.003,-0.05657 0.1062,-0.864525 0.0544,-1.027686 -0.0555,-0.174833 -0.53231,-0.138493 -0.65254,-0.146815 -0.6893,-0.04772 -0.40493,-0.02447 -1.46818,-0.02447 -0.47127,0 -0.94398,-0.03691 -1.4138,0 -0.88994,0.06992 -1.77774,0.166376 -2.66448,0.269153 -0.30993,0.03592 -0.6153,0.104482 -0.92442,0.146816 -0.52478,0.07187 -1.0509,0.133754 -1.57694,0.195748 -0.3981,0.04692 -0.79873,0.07123 -1.1963,0.122344 -0.54505,0.07008 -1.08297,0.17536 -1.63132,0.22022 -0.4347,0.03556 -0.87148,0.07 -1.30505,0.09788 -0.24705,0.01588 -0.61424,0.01267 -0.81566,0.171282 -0.099,0.07799 -0.17046,0.250585 -0.21752,0.36703 -0.0224,0.05554 -0.0241,0.119574 -0.0544,0.171282 -0.0745,0.201304 -0.27454,0.31203 -0.38065,0.489374 -0.12236,0.204514 -0.2105,0.427865 -0.32625,0.63619"
       id="path71619" />
    <path
       style="fill:none;fill-opacity:1;stroke:#000000;stroke-width:1;stroke-linecap:round;stroke-linejoin:round"
       d="m 186.57982,44.636542 c -1.32318,0.220219 -2.67655,0.303628 -3.96954,0.660656 -0.9539,0.263396 -0.95538,0.611867 -0.59814,1.174502 0.30903,0.486713 1.52803,1.102087 1.68569,1.22344 0.26458,0.203644 0.48006,0.464617 0.70691,0.709594 0.0787,0.08504 0.23683,0.386213 0.16313,0.489374 -0.12711,0.177948 -0.34552,0.274741 -0.54378,0.367031 -0.79782,0.371381 -1.52859,0.481221 -2.3926,0.660661 -0.63856,0.132619 -1.37775,0.264582 -2.01195,0.318092 -0.16275,0.01373 -0.32626,-0.01631 -0.48939,-0.02447"
       id="path71621" />
    <path
       style="fill:none;fill-opacity:1;stroke:#000000;stroke-width:1;stroke-linecap:round;stroke-linejoin:round"
       d="m 181.95777,47.670668 c 1.23224,-0.07729 2.46475,-0.0734 3.69764,-0.0734"
       id="path71623" />
    <path
       style="fill:none;fill-opacity:1;stroke:#000000;stroke-width:1;stroke-linecap:round;stroke-linejoin:round"
       d="m 189.46181,47.377043 c 1.41381,0.04894 2.82756,0.09944 4.24143,0.146815 0.54371,0.01822 1.08745,0.03606 1.63132,0.04894 0.45213,0.01071 0.90777,-0.02258 1.35943,0 0.29011,0.0145 0.58008,0.03154 0.87003,0.04894 0.39899,0.02394 0.79697,0.07541 1.19629,0.09787 0.0724,0.0041 0.14516,-0.0047 0.21751,0 0.0549,0.0035 0.21329,0.0019 0.16314,0.02447 -0.083,0.03734 -0.18125,0.01631 -0.27188,0.02447"
       id="path71625" />
    <path
       style="fill:#6ae4a3;fill-opacity:1;stroke:#000000;stroke-width:1;stroke-linecap:round;stroke-linejoin:round"
       d="m 88.463899,64.915344 c 0.11528,0.557652 0.41876,1.999886 0.48939,2.471347 0.0376,0.250695 0.0353,0.505756 0.0544,0.758533 0.084,1.115878 0.0544,0.363101 0.0544,1.81069 0,0.466505 -0.0125,0.564921 0.0544,1.076625 0.005,0.03536 0.0776,0.298083 0.10875,0.318093 0.33811,0.217355 0.88004,0.15746 1.25067,0.146815 0.67082,-0.01927 1.34187,-0.03663 2.01197,-0.07341 6.91761,-0.379609 -1.89496,0.02685 4.78519,-0.318098 0.79461,-0.04103 1.59684,-0.04894 2.39259,-0.04894 0.21751,0 0.435021,0 0.652541,0 0.0544,0 0.13671,0.04753 0.16311,0 0.0329,-0.0592 -0.0461,-0.128539 -0.0544,-0.195749 -0.01,-0.08095 0,-0.163124 0,-0.244686 -0.0362,-0.130501 -0.0845,-0.258254 -0.10874,-0.391503 -0.14194,-0.77921 -0.18276,-1.542489 -0.27189,-2.324532 -0.0493,-0.432886 -0.126501,-0.862699 -0.163141,-1.296845 -0.0178,-0.211312 0,-0.424126 0,-0.636189 0,-0.759056 -0.0218,-0.807197 0.10875,-1.688347 0.021,-0.141771 0.0777,-0.276065 0.108761,-0.415969 0.0674,-0.303369 0.10875,-0.619386 0.10875,-0.929815 0,-0.03007 0.0239,-0.296586 0,-0.318092 -0.064,-0.05758 -0.405241,-0.07192 -0.435021,-0.07341 -0.58552,-0.02928 -1.15584,-0.01421 -1.74007,0 -1.07818,0.02623 -2.18602,-0.01223 -3.26263,0.09788 -0.50904,0.05206 -1.01595,0.123759 -1.52256,0.195748 -0.92575,0.13155 -0.16066,0.07198 -1.08755,0.171282 -0.19891,0.02131 -0.39902,0.02974 -0.59814,0.04894 -1.6e-4,1.5e-5 -0.32611,0.04893 -0.32628,0.04894 -0.32047,0.01802 -0.72854,-0.03625 -1.03316,0.07341 -0.0823,0.02963 -0.14086,0.104661 -0.21751,0.146815 -0.0871,0.04789 -0.18125,0.08156 -0.27188,0.122344"
       id="path71627" />
    <path
       style="fill:none;fill-opacity:1;stroke:#000000;stroke-width:1;stroke-linecap:round;stroke-linejoin:round"
       d="m 95.043549,64.695124 c -1.0773,1.211902 -0.59395,0.56085 -1.68571,2.59369 -0.19023,0.354202 -0.41017,0.697424 -0.54377,1.07663 -0.10456,0.296789 -0.32968,0.662827 -0.16314,0.92981 0.19989,0.32042 0.66608,0.376269 1.03318,0.464907 1.06654,0.257517 2.28109,-0.08784 3.26264,-0.391497 0.20466,-0.06331 0.36251,-0.228376 0.54377,-0.342564"
       id="path71629" />
    <path
       style="fill:none;fill-opacity:1;stroke:#000000;stroke-width:1;stroke-linecap:round;stroke-linejoin:round"
       d="m 92.596559,66.970722 c 1.14806,-1.91724 2.50854,0.01754 3.75203,-0.122344 0.20077,-0.02259 0.39877,-0.06525 0.59816,-0.09788"
       id="path71631" />
    <path
       style="fill:#6ae4a3;fill-opacity:1;stroke:#000000;stroke-width:1;stroke-linecap:round;stroke-linejoin:round"
       d="m 89.551429,74.972013 c 0.18464,2.326483 -0.53326,4.643763 -0.48939,6.9736 0.006,0.306587 -0.004,0.648029 0.16314,0.905343 0.16246,0.250644 1.60315,0.486119 1.63132,0.489384 1.42832,0.165547 3.49755,0.254645 4.94833,0.269154 1.70362,0.01704 3.74119,0.04352 5.437721,-0.318097 0.18171,-0.03873 0.3607,-0.09066 0.54377,-0.122344 0.0536,-0.0093 0.12563,0.03938 0.16313,0 0.0394,-0.04134 0.008,-0.114762 0,-0.171277 -0.27503,-1.918124 0.0443,0.503995 -0.21751,-1.027691 -0.029,-0.169776 -0.0378,-0.342405 -0.0544,-0.513846 -0.0583,-0.603198 -0.13724,-1.205235 -0.16312,-1.810691 -0.0424,-0.991255 0.10615,-0.469289 -0.16313,-1.761752 -0.0966,-0.463786 -0.4607,-1.066981 -0.70691,-1.443656 -0.23059,-0.352788 -0.54948,-0.727358 -0.924411,-0.929814 -0.43336,-0.234004 -1.60948,-0.187728 -2.06633,-0.171282 -1.22358,0.04405 -2.4303,0.247866 -3.64328,0.391502 -0.34353,0.04068 -0.6894,0.0592 -1.03316,0.09787 -1.15974,0.130464 -1.47433,0.184887 -2.3926,0.293625 -0.14491,0.01716 -0.28915,0.04508 -0.43502,0.04894 -0.16328,0.0043 -0.32617,-0.01835 -0.48939,-0.02447 -0.0543,-0.002 -0.11651,-0.02798 -0.16314,0 -0.028,0.01679 0,0.06525 0,0.09788"
       id="path71633" />
    <path
       style="fill:none;fill-opacity:1;stroke:#000000;stroke-width:1;stroke-linecap:round;stroke-linejoin:round"
       d="m 94.934779,77.663581 c -0.61627,0.08972 -1.29021,-0.0062 -1.84883,0.269153 -0.32565,0.160493 -0.56217,1.181291 -0.48939,1.541532 0.0486,0.240748 0.19551,0.452754 0.32628,0.660661 0.0369,0.05867 0.61908,0.698042 0.59813,0.905343 -0.0423,0.418657 -0.93704,0.612542 -1.25067,0.734066 -0.53586,0.207642 -1.11044,0.400196 -1.68569,0.464903"
       id="path71635" />
    <path
       style="fill:none;fill-opacity:1;stroke:#000000;stroke-width:1;stroke-linecap:round;stroke-linejoin:round"
       d="m 93.684109,79.523205 c 1.5875,-0.337896 2.9523,-0.170252 4.45894,-0.07341 0.34906,0.02244 0.0895,-0.0384 0.38063,0.04894"
       id="path71637" />
    <path
       style="fill:none;fill-opacity:1;stroke:#000000;stroke-width:1;stroke-linecap:round;stroke-linejoin:round"
       d="m 100.48125,69.515474 c 1.86696,0.228376 3.74547,0.376581 5.60087,0.685127 0.43443,0.07225 2.1146,0.433932 2.6101,1.052159 0.59613,0.743781 0.57969,1.361388 0.4894,2.275593 -0.0794,0.803383 -0.3052,1.118818 -0.65254,1.835163 -0.24676,0.508918 -0.42222,0.76836 -0.81565,1.174501 -0.19842,0.204839 -0.38352,0.423924 -0.59815,0.611718 -0.11352,0.09932 -0.25461,0.161808 -0.38063,0.244687 -0.10963,0.0721 -0.21105,0.157454 -0.32628,0.22022 -1.22781,0.668804 -2.53431,0.856405 -3.91515,0.856405 -0.34608,0 -0.68848,0.07617 -1.03316,0.02447"
       id="path71639" />
    <path
       style="fill:none;fill-opacity:1;stroke:#000000;stroke-width:1;stroke-linecap:round;stroke-linejoin:round"
       d="m 108.85536,73.821978 c -1.15971,0.06807 -1.10164,-0.129176 -1.9032,0.464908 -0.10717,0.07943 -0.2071,0.177023 -0.27189,0.293625 -0.0483,0.08701 -0.12604,0.224531 -0.0544,0.293625 0.10586,0.102077 0.28797,0.07341 0.43502,0.07341 0.55315,0 1.09664,-0.125546 1.57695,-0.415969 0.32024,-0.19364 0.58487,-0.467228 0.87002,-0.709595 0.0181,-0.01542 0.24063,-0.225678 0.0544,-0.195748 -0.2414,0.0388 -0.46664,0.150411 -0.7069,0.195748 -0.3231,0.06097 -0.67686,-0.0079 -0.97879,0.122344 -0.16777,0.07235 -0.22974,0.285313 -0.32627,0.44044 -0.0317,0.05086 -0.0456,0.112027 -0.0544,0.171282 -0.01,0.06455 -0.0388,0.143318 0,0.195749 0.18081,0.244079 0.60791,0.261537 0.87005,0.244687 0.95726,-0.06153 1.39029,-0.11296 1.95757,-0.929815 0.0552,-0.07948 0.0677,-0.181508 0.10875,-0.269153 0.0316,-0.06761 0.12421,-0.122721 0.10876,-0.195749 -0.0761,-0.359402 -0.26956,-0.333917 -0.54378,-0.391502 -0.16282,-0.03419 -0.32371,-0.08297 -0.4894,-0.09788 -0.77374,-0.06964 -1.00166,-0.117727 -1.6313,0.04894 -0.14794,0.03916 -0.30608,0.06437 -0.43502,0.146816 -0.22145,0.141604 -0.40854,0.331811 -0.59816,0.51384 -0.22033,0.211508 -0.40833,0.566026 -0.21751,0.880877 0.0515,0.08499 0.17541,0.09847 0.27188,0.122343 0.60354,0.149368 1.13345,0.18887 1.74009,0.09788 0.12778,-0.01917 0.25792,-0.03291 0.38063,-0.07341 0.0811,-0.02676 0.59103,-0.157709 0.54378,-0.391502 -0.0118,-0.05872 -0.01,-0.13121 -0.0544,-0.171282 -0.19851,-0.178653 -0.43501,-0.309939 -0.65251,-0.464908 z"
       id="path71641" />
    <path
       style="fill:none;fill-opacity:1;stroke:#000000;stroke-width:1;stroke-linecap:round;stroke-linejoin:round"
       d="m 109.77977,74.189014 c 1.5284,-0.09825 0.0271,-0.01427 2.3926,-0.07341 1.62215,-0.04055 0.99159,-0.03316 2.61011,-0.171282 1.10529,-0.09433 2.21084,-0.168108 3.31701,-0.244687 0.45343,-0.03139 0.90758,-0.07246 1.35941,-0.09787 0.36047,-0.02027 0.72641,0 1.08756,0 0.42239,0 0.83348,-0.01363 1.25067,0.04893"
       id="path71643" />
    <path
       style="fill:none;fill-opacity:1;stroke:#000000;stroke-width:1;stroke-linecap:round;stroke-linejoin:round"
       d="m 125.11414,72.353851 c 1.99264,-0.1101 3.98773,-0.102262 5.98149,-0.171282"
       id="path71645" />
    <path
       style="fill:none;fill-opacity:1;stroke:#000000;stroke-width:1;stroke-linecap:round;stroke-linejoin:round"
       d="m 125.98418,74.825198 c 3.75202,0.0252 2.42882,0.02447 3.96954,0.02447"
       id="path71647" />
    <path
       style="fill:#6ae4a3;fill-opacity:1;stroke:#000000;stroke-width:1;stroke-linecap:round;stroke-linejoin:round"
       d="m 140.88354,69.588879 c -0.27189,-0.02447 -0.66358,-0.300102 -0.81567,-0.0734 -0.25466,0.379596 -0.0284,0.913881 -0.0544,1.37025 -0.0465,0.816114 -0.13338,1.629985 -0.16314,2.44688 -0.0378,1.038327 -0.36829,2.01687 0.4894,2.740506 0.37722,0.318265 1.49187,0.60636 1.9032,0.685123 1.31637,0.252064 2.74618,0.31908 4.07829,0.367035 1.32766,0.0478 2.65232,-0.07204 3.96954,-0.22022 0.0426,-0.0048 1.4563,-0.116999 1.63132,-0.195754 0.19366,-0.08714 0.10006,-0.773464 0.10874,-0.929809 0.0336,-0.605075 0.12822,-1.20569 0.16314,-1.810692 0.0122,-0.21171 -0.009,-0.424319 0,-0.636189 0.009,-0.212642 0.0482,-0.423444 0.0544,-0.636189 0.0119,-0.407639 0,-0.815627 0,-1.22344 0,-0.212061 0.009,-0.424324 0,-0.636184 -0.009,-0.204518 -0.0418,-0.4074 -0.0544,-0.611723 -0.0429,-0.694863 -0.0883,-1.427418 -0.0544,-2.128783 0.0107,-0.220706 0.04,-0.440163 0.0544,-0.660656 0.004,-0.05697 -0.0113,-0.115318 0,-0.171282 0.0153,-0.07565 0.13679,-0.145785 0.0544,-0.244687 -0.0363,-0.04361 -0.10649,-0.04502 -0.16312,-0.04894 -0.18083,-0.01252 -0.36253,0 -0.54379,0 -0.34439,0 -0.68926,-0.01821 -1.03316,0 -1.65139,0.08742 -3.29837,0.260968 -4.94833,0.36703 -0.50616,0.03254 -1.01621,0.07716 -1.52255,0.09788 -0.10867,0.0044 -0.21752,0 -0.32628,0 -0.10875,0.0082 -0.21731,0.01957 -0.32625,0.02447 -0.12676,0.0057 -0.25986,-0.03883 -0.38065,0 -0.24949,0.08019 -0.31145,0.297481 -0.4894,0.464907 -0.0946,0.08898 -0.47523,0.443129 -0.65251,0.562785 -0.14306,0.09656 -0.75693,0.432336 -0.81567,0.51384 -0.11879,0.164816 -0.10874,0.391501 -0.16312,0.587251 z"
       id="path71649" />
    <path
       style="fill:none;fill-opacity:1;stroke:#000000;stroke-width:1;stroke-linecap:round;stroke-linejoin:round"
       d="m 143.87428,69.39313 c 1.31024,1.066331 -0.36712,2.177488 -0.21751,3.254347 0.008,0.06032 0.0583,-0.112738 0.10876,-0.146811 0.20685,-0.139613 0.41921,-0.278452 0.65252,-0.36703 0.9168,-0.348085 1.44712,-0.357076 2.44698,-0.342564 0.24492,0.0036 0.88764,0.322453 0.97879,0.513846 0.0849,0.178213 -0.19489,0.631246 -0.21751,0.660656 -0.0653,0.0849 -0.17957,0.116959 -0.27188,0.171282 -0.14339,0.08438 -0.28151,0.180545 -0.43502,0.244687 -0.35671,0.149043 -1.27518,0.469011 -1.74007,0.58725 -0.19723,0.05016 -0.40031,0.07465 -0.59816,0.122344 -2.43453,0.644407 -0.0499,0.03569 -1.30504,0.318092 -0.0916,0.02061 -0.17887,0.06085 -0.2719,0.07341 -0.0898,0.01213 -0.18137,-0.0045 -0.27189,0 -0.0729,0.0036 -0.14762,0.04543 -0.21751,0.02447 -0.0292,-0.0088 0.0363,-0.04894 0.0544,-0.07341"
       id="path71651" />
    <path
       style="fill:none;fill-opacity:1;stroke:#000000;stroke-width:1;stroke-linecap:round;stroke-linejoin:round"
       d="m 153.17278,72.62301 c 2.15404,-0.183081 4.31313,-0.190739 6.47088,-0.244687 0.12941,-0.0032 1.00966,-0.101533 1.08758,-0.04894 0.0433,0.0292 0.0362,0.09787 0.0543,0.14681"
       id="path71653" />
    <path
       style="fill:none;fill-opacity:1;stroke:#000000;stroke-width:1;stroke-linecap:round;stroke-linejoin:round"
       d="m 142.89549,72.745354 c -0.28483,0.661233 -0.27188,1.206858 -0.27188,1.859629"
       id="path71655" />
  </g>
</svg>
