<?xml version="1.0" encoding="UTF-8" standalone="no"?>
<!-- Created with Inkscape (http://www.inkscape.org/) -->

<svg
   width="34.252453mm"
   height="14.574037mm"
   viewBox="0 0 34.252453 14.574037"
   version="1.1"
   id="svg5"
   sodipodi:docname="not.svg"
   inkscape:version="1.2.2 (b0a8486541, 2022-12-01)"
   xmlns:inkscape="http://www.inkscape.org/namespaces/inkscape"
   xmlns:sodipodi="http://sodipodi.sourceforge.net/DTD/sodipodi-0.dtd"
   xmlns="http://www.w3.org/2000/svg"
   xmlns:svg="http://www.w3.org/2000/svg">
  <sodipodi:namedview
     id="namedview7"
     pagecolor="#ffffff"
     bordercolor="#666666"
     borderopacity="1.0"
     inkscape:showpageshadow="2"
     inkscape:pageopacity="0.0"
     inkscape:pagecheckerboard="0"
     inkscape:deskcolor="#d1d1d1"
     inkscape:document-units="mm"
     showgrid="false"
     inkscape:zoom="4.6354114"
     inkscape:cx="-83.056274"
     inkscape:cy="17.258447"
     inkscape:window-width="2560"
     inkscape:window-height="1372"
     inkscape:window-x="0"
     inkscape:window-y="32"
     inkscape:window-maximized="1"
     inkscape:current-layer="layer1"
     showguides="true" />
  <defs
     id="defs2" />
  <g
     inkscape:label="Layer 1"
     inkscape:groupmode="layer"
     id="layer1"
     transform="translate(-131.77746,-65.659527)">
    <path
       style="fill:#ddf1fb;fill-opacity:1;fill-rule:nonzero;stroke:#000000;stroke-width:1;stroke-linecap:round;stroke-linejoin:round"
       d="m 141.03042,66.217614 c -0.0513,0.100929 -0.13193,0.191717 -0.1538,0.302788 -0.0245,0.12465 0.0151,0.253667 0.0192,0.380645 0.002,0.07205 0,0.144183 0,0.216274 0.006,0.07786 0.0152,0.155561 0.0192,0.233579 0.009,0.17003 0.011,0.340351 0.0192,0.51041 0.005,0.09526 0.0192,0.190107 0.0192,0.285484 0,0.104009 -0.0127,0.207631 -0.0192,0.311435 -0.0127,0.201865 -0.0212,0.404043 -0.0385,0.605573 -0.008,0.09852 -0.0256,0.196089 -0.0384,0.294134 -0.0381,0.2913 -0.0826,0.581808 -0.11535,0.873754 -0.0206,0.183843 -0.0301,0.368853 -0.0385,0.553665 -0.0169,0.373321 -0.0192,0.742886 -0.0192,1.11598 0,0.245113 -0.009,0.490406 0,0.735338 0.0229,0.597064 0.0385,-0.190412 0.0385,0.795893 0,0.08963 -0.016,0.178615 -0.0192,0.268182 -0.003,0.08934 0.007,0.179046 0,0.268182 -0.0248,0.326485 -0.0871,0.650261 -0.0961,0.977564 -0.006,0.233489 0,0.467156 0,0.700733 0,0.513294 0,1.026588 0,1.539883 0,0.278318 0.002,0.551873 0.0192,0.830498 0.004,0.07224 0.0192,0.143899 0.0192,0.216275 0,0.0695 -0.0148,0.138264 -0.0192,0.207624 -0.0338,0.525172 9.3e-4,0.225957 -0.0384,0.553667 -0.0215,0.17906 -0.0412,0.359474 -0.0769,0.536361 -0.006,0.02596 -0.0128,0.05191 -0.0192,0.07786 0,0.02019 0.004,0.04077 0,0.06056 -0.009,0.04393 -0.0781,0.07482 -0.0385,0.06056 0.1047,-0.0377 0.20507,-0.08651 0.3076,-0.129765 0.38846,-0.163875 0.29169,-0.120195 0.73056,-0.320091 0.63181,-0.287768 1.21082,-0.547716 1.8264,-0.847799 0.73342,-0.357529 1.45844,-0.73212 2.19168,-1.090027 1.30609,-0.637519 2.65987,-1.167324 3.99885,-1.730206 0.96147,-0.404183 0.71966,-0.309647 1.92253,-0.839147 0.17902,-0.07881 0.3611,-0.150773 0.53831,-0.23358 0.15617,-0.07298 0.30739,-0.156122 0.4614,-0.233574 0.28176,-0.141708 0.56532,-0.279884 0.84591,-0.423899 0.41051,-0.221666 0.35519,-0.194702 0.76901,-0.406599 0.24324,-0.124552 0.48596,-0.250137 0.73056,-0.371996 0.0359,-0.01786 0.6269,-0.296807 0.67288,-0.320088 0.38426,-0.194524 0.78085,-0.394927 1.15352,-0.614222 0.16188,-0.09526 0.31842,-0.199443 0.48063,-0.294135 0.23363,-0.136384 0.47887,-0.249819 0.71133,-0.389294 0.0137,-0.0082 0.14543,-0.08231 0.15381,-0.112467 0.01,-0.035 -0.12856,-0.142441 -0.13458,-0.147063 -0.0817,-0.06271 -0.1634,-0.125809 -0.24993,-0.181674 -0.2632,-0.169931 -0.74639,-0.363077 -0.99971,-0.467156 -0.10099,-0.04149 -0.20447,-0.07666 -0.3076,-0.112464 -0.68437,-0.237566 -1.39678,-0.354078 -2.09556,-0.536359 -0.1966,-0.05129 -1.03018,-0.281353 -1.34576,-0.371994 -0.42363,-0.121678 -0.84642,-0.246286 -1.26888,-0.371995 -0.74584,-0.221938 0.008,-0.0028 -0.71133,-0.224928 -0.41543,-0.12829 -0.83334,-0.247109 -1.24964,-0.371994 -0.30173,-0.09051 -0.59991,-0.193078 -0.90359,-0.276831 -0.3999,-0.110291 -0.806,-0.197462 -1.21118,-0.285484 -0.32769,-0.07118 -0.65335,-0.151322 -0.98049,-0.224928 -0.30167,-0.06787 -0.60451,-0.128734 -0.90359,-0.207625 -0.33333,-0.08792 -0.67175,-0.178154 -0.99971,-0.285484 -0.0457,-0.01495 -0.0888,-0.03719 -0.13458,-0.05191 -0.15705,-0.05048 -0.3223,-0.07578 -0.48063,-0.121115 -0.0327,-0.0094 -0.0641,-0.02307 -0.0961,-0.0346 -0.0833,-0.0173 -0.16715,-0.03219 -0.24993,-0.0519 -0.13586,-0.03236 -0.26926,-0.0833 -0.40373,-0.121114 -0.0253,-0.0071 -0.0518,-0.0094 -0.0769,-0.0173 -0.26385,-0.08311 0.005,-0.01012 -0.19225,-0.06921 -0.091,-0.02731 -0.22826,-0.05643 -0.30761,-0.07786 -0.12178,-0.03288 -0.24289,-0.07377 -0.36527,-0.10381 -0.14048,-0.03448 -0.2826,-0.05907 -0.42296,-0.09516 -0.0466,-0.01197 -0.0882,-0.03908 -0.13458,-0.05191 -0.0826,-0.02288 -0.1654,-0.04629 -0.24993,-0.06056 -0.0287,-0.0048 -0.21736,-0.0334 -0.23069,-0.04326 -0.0763,-0.05638 -0.11941,-0.167602 -0.21148,-0.190324 -0.4103,-0.101246 -0.38451,-0.05606 -0.38451,0.121115"
       id="path45127" />
    <path
       style="fill:none;fill-opacity:1;fill-rule:nonzero;stroke:#000000;stroke-width:1;stroke-linecap:round;stroke-linejoin:round"
       d="m 141.83789,74.193855 c -0.17944,-0.253762 -0.40694,-0.479624 -0.53831,-0.761289 -0.0917,-0.196506 -0.0509,-0.433136 -0.11535,-0.640178 -0.0711,-0.228507 -0.18961,-0.439494 -0.28838,-0.657473 -0.0358,-0.0791 -0.0732,-0.157671 -0.11535,-0.23358 -0.009,-0.01685 -0.0577,-0.04325 -0.0384,-0.04325 0.0294,0 0.0505,0.03033 0.0769,0.04325 0.26841,0.131287 0.54007,0.255929 0.80746,0.389295 0.26456,0.131956 0.52576,0.270547 0.78824,0.406598 0.47304,0.245198 0.63827,0.350912 1.05738,0.527715 0.21103,0.08903 0.32123,0.130873 0.53831,0.18167 0.0762,0.01783 0.15621,0.0672 0.2307,0.04325 0.0734,-0.02357 0.0194,-0.30703 0.0192,-0.311435 -0.004,-0.08931 0.004,-0.178867 0,-0.268182 -0.0208,-0.501584 -0.0593,-0.967121 -0.17303,-1.453372 -0.0293,-0.125397 -0.0688,-0.102473 -0.1538,-0.02596"
       id="path45129" />
    <path
       style="fill:none;fill-opacity:1;fill-rule:nonzero;stroke:#000000;stroke-width:1;stroke-linecap:round;stroke-linejoin:round"
       d="m 146.04822,71.754267 c -1.14386,0.996434 -2.40594,1.254244 -0.57676,1.885926 0.53546,0.184912 1.49472,-0.252127 1.86485,-0.432554 0.18053,-0.08801 0.36199,-0.201285 0.48063,-0.363342 0.26939,-0.36799 -0.0456,-0.468932 -0.30761,-0.579617 -0.42075,-0.177742 -0.83395,-0.268185 -1.28809,-0.268185 -0.0513,0 -0.10282,-0.0054 -0.1538,0 -0.0841,0.009 -0.16662,0.02884 -0.24993,0.04326"
       id="path45131" />
    <path
       style="fill:none;fill-opacity:1;fill-rule:nonzero;stroke:#000000;stroke-width:1;stroke-linecap:round;stroke-linejoin:round"
       d="m 149.89327,71.062188 c -0.37635,0.658262 0.3076,1.225751 0.3076,1.851316 0,0.114094 -0.0385,0.224925 -0.0577,0.337389"
       id="path45133" />
    <path
       style="fill:none;fill-opacity:1;fill-rule:nonzero;stroke:#000000;stroke-width:1;stroke-linecap:round;stroke-linejoin:round"
       d="m 147.41321,71.304417 c 1.40174,0.08533 2.808,0.07944 4.21033,0.155715 0.15424,0.0084 0.30726,0.03305 0.4614,0.04325 0.064,0.0042 0.12857,-0.0072 0.19226,0 0.0154,0.0019 0.0431,0.01122 0.0385,0.02596 -0.007,0.02138 -0.0385,0.02307 -0.0577,0.0346"
       id="path45135" />
    <path
       style="fill:#ffffff;fill-opacity:1;fill-rule:nonzero;stroke:#000000;stroke-width:1;stroke-linecap:round;stroke-linejoin:round"
       d="m 158.6792,70.344151 c -0.009,0.03835 -0.38405,-0.03471 -0.4614,-0.0173 -0.0151,0.0034 -0.025,0.01836 -0.0385,0.02595 -0.0378,0.0213 -0.0789,0.03694 -0.11535,0.06056 -0.14463,0.09372 -0.41863,0.271849 -0.55754,0.415251 -0.21998,0.227089 -0.37649,0.577082 -0.26915,0.891055 0.0187,0.05478 0.036,0.114737 0.0769,0.155718 0.19167,0.192101 0.3407,0.282112 0.57676,0.371994 0.0881,0.03353 0.1764,0.06982 0.26915,0.08651 0.66728,0.120105 1.7057,0.199615 2.30704,-0.181671 0.19635,-0.1245 0.29645,-0.297855 0.3845,-0.51906 0.0257,-0.06458 0.016,-0.138194 0.0192,-0.207624 0.003,-0.06914 0.0198,-0.141308 0,-0.207626 -0.0391,-0.13104 -0.105,-0.253362 -0.17303,-0.371994 -0.0352,-0.06142 -0.0819,-0.116998 -0.13457,-0.164369 -0.12361,-0.111239 -0.46919,-0.277736 -0.57676,-0.320088 -0.0602,-0.02373 -0.37053,-0.07893 -0.44218,-0.08651 -0.14703,-0.01556 -0.29455,-0.02679 -0.44219,-0.0346 -0.0704,-0.0037 -0.14301,-0.0168 -0.21147,0 -0.0763,0.01871 -0.1331,0.09895 -0.21148,0.103812 -0.11741,0.0073 -0.2291,-0.05658 -0.34606,-0.06921 -0.12419,-0.01341 -0.1171,0.02006 -0.21147,0.05191 -0.0249,0.0084 -0.0513,0.01154 -0.0769,0.0173"
       id="path45143" />
    <path
       style="fill:#ffffff;fill-opacity:1;fill-rule:nonzero;stroke:#000000;stroke-width:1;stroke-linecap:round;stroke-linejoin:round"
       d="m 161.06314,71.304417 c 1.82917,0.134932 0.55415,0.06738 2.57618,0.09516 0.37176,0.0051 0.74355,0.01169 1.11507,0.02596 0.15411,0.0059 0.30775,0.02117 0.4614,0.0346 0.0771,0.0067 0.15359,0.01945 0.2307,0.02596 0.0255,0.0021 0.0535,-0.01053 0.0769,0 0.0105,0.0047 0,0.02307 0,0.0346"
       id="path45145" />
    <path
       style="fill:#ffffff;fill-opacity:1;fill-rule:nonzero;stroke:#000000;stroke-width:1;stroke-linecap:round;stroke-linejoin:round"
       d="m 140.16818,72.663426 c -0.41655,-0.03749 -0.83141,-0.110922 -1.24964,-0.112465 -0.77748,-0.0029 -1.55553,0.192965 -2.30703,0.354694 -0.48131,0.103582 -0.96029,0.217884 -1.4419,0.320086 -0.64631,0.13715 -1.29259,0.274955 -1.94174,0.397947 -0.10584,0.02005 -0.49185,0.09748 -0.71134,0.08651 -0.12642,-0.0063 -0.0782,-0.0084 0,-0.02596"
       id="path45147" />
  </g>
</svg>
