<?xml version="1.0" encoding="UTF-8" standalone="no"?>
<!-- Created with Inkscape (http://www.inkscape.org/) -->

<svg
   width="40.534389mm"
   height="14.646093mm"
   viewBox="0 0 40.53439 14.646094"
   version="1.1"
   id="svg5"
   sodipodi:docname="or.svg"
   inkscape:version="1.2.2 (b0a8486541, 2022-12-01)"
   xmlns:inkscape="http://www.inkscape.org/namespaces/inkscape"
   xmlns:sodipodi="http://sodipodi.sourceforge.net/DTD/sodipodi-0.dtd"
   xmlns="http://www.w3.org/2000/svg"
   xmlns:svg="http://www.w3.org/2000/svg">
  <sodipodi:namedview
     id="namedview7"
     pagecolor="#ffffff"
     bordercolor="#666666"
     borderopacity="1.0"
     inkscape:showpageshadow="2"
     inkscape:pageopacity="0.0"
     inkscape:pagecheckerboard="0"
     inkscape:deskcolor="#d1d1d1"
     inkscape:document-units="mm"
     showgrid="false"
     inkscape:zoom="4.6354114"
     inkscape:cx="-0.43146116"
     inkscape:cy="99.88326"
     inkscape:window-width="2560"
     inkscape:window-height="1372"
     inkscape:window-x="0"
     inkscape:window-y="32"
     inkscape:window-maximized="1"
     inkscape:current-layer="layer1"
     showguides="true" />
  <defs
     id="defs2" />
  <g
     inkscape:label="Layer 1"
     inkscape:groupmode="layer"
     id="layer1"
     transform="translate(-121.37376,-43.7266)">
    <path
       style="fill:#ddf1fb;fill-opacity:1;fill-rule:nonzero;stroke:#000000;stroke-width:1;stroke-linecap:round;stroke-linejoin:round"
       d="m 129.37801,44.515518 c 0.0385,0.07786 0.0628,0.164449 0.11536,0.233577 0.0333,0.04374 0.0882,0.06563 0.13457,0.09516 0.10755,0.06856 0.21979,0.129617 0.32683,0.198975 0.0533,0.03454 0.10213,0.07553 0.15381,0.112461 0.0573,0.04094 0.11822,0.07693 0.17302,0.121115 0.0992,0.07997 0.18919,0.170911 0.28838,0.250878 0.0548,0.04419 0.11847,0.07662 0.17303,0.121116 0.0483,0.03939 0.0906,0.08565 0.13458,0.129765 0.097,0.0972 0.19528,0.193209 0.28837,0.294135 0.096,0.104095 0.18037,0.2184 0.26916,0.328739 0.0902,0.112085 0.18352,0.221787 0.26915,0.337391 0.0363,0.04901 0.0625,0.104823 0.0961,0.155718 0.22332,0.338016 0.0169,-0.02125 0.32683,0.501759 0.0349,0.05894 0.0628,0.121782 0.0961,0.181671 0.0308,0.05548 0.0722,0.10559 0.0961,0.164369 0.0469,0.115136 0.0728,0.237877 0.11535,0.354692 0.0216,0.0593 0.0545,0.114011 0.0769,0.17302 0.0225,0.0594 0.0368,0.121652 0.0577,0.181672 0.0433,0.124567 0.0952,0.246134 0.13458,0.371994 0.0472,0.150986 0.0347,0.20214 0.0577,0.354692 0.0192,0.112463 0.0384,0.224926 0.0577,0.33739 0.0128,0.05479 0.029,0.108905 0.0385,0.164369 0.01,0.0572 0.0115,0.115511 0.0192,0.17302 0.0179,0.132835 0.0408,0.26498 0.0577,0.397947 0.009,0.06895 0.01,0.138755 0.0192,0.207624 0.01,0.07255 0.0285,0.143729 0.0384,0.216277 0.0157,0.114986 0.0252,0.230743 0.0385,0.346041 0.0116,0.101073 0.0293,0.201462 0.0385,0.302785 0.008,0.09212 0.0103,0.184761 0.0192,0.276832 0.004,0.04069 0.0161,0.08036 0.0192,0.121115 0.003,0.04313 0,0.08651 0,0.129765 0,0.123998 0.009,0.248334 0,0.371994 -0.003,0.04361 -0.0151,0.08623 -0.0192,0.129766 -0.009,0.09209 -0.0103,0.184762 -0.0192,0.276832 -0.0194,0.200818 -0.0169,0.04376 -0.0577,0.25953 -0.0375,0.198371 -0.0184,0.243321 -0.0769,0.406599 -0.016,0.04456 -0.0384,0.08651 -0.0577,0.129765 -0.032,0.08363 -0.0663,0.166446 -0.0961,0.250879 -3e-5,1.08e-4 -0.0769,0.259425 -0.0769,0.259532 -0.24605,0.608933 -0.0216,0.02261 -0.17303,0.363342 -0.015,0.03372 -0.0225,0.07055 -0.0384,0.103812 -0.0693,0.144166 -0.15531,0.275299 -0.23071,0.415249 -0.0487,0.09033 -0.0847,0.187143 -0.13457,0.276834 -0.0505,0.09089 -0.11666,0.172163 -0.17303,0.25953 -0.0201,0.03117 -0.0364,0.0648 -0.0577,0.09516 -0.0173,0.02458 -0.0412,0.04413 -0.0577,0.06921 -0.0349,0.05301 -0.0621,0.110787 -0.0961,0.16437 -0.0173,0.02727 -0.0414,0.04998 -0.0577,0.07786 -0.0159,0.02724 -0.0215,0.05987 -0.0384,0.08651 -0.0519,0.0818 -0.11322,0.157336 -0.17302,0.233577 -0.08,0.101986 -0.0772,0.08337 -0.19225,0.207624 -0.0841,0.09085 -0.15955,0.191798 -0.24993,0.276834 -0.0225,0.02119 -0.0526,0.03277 -0.0769,0.05191 -0.0813,0.06401 -0.15006,0.14282 -0.23071,0.207624 -0.0362,0.02906 -0.0809,0.04683 -0.11535,0.07786 -0.024,0.02161 -0.0385,0.05191 -0.0577,0.07786 -0.0897,0.06344 -0.17895,0.127585 -0.26916,0.190321 -0.20381,0.141737 -0.40291,0.266025 -0.61521,0.397948 -0.0612,0.03805 -0.088,0.06556 -0.1538,0.09516 -0.0183,0.0082 -0.076,0.0091 -0.0577,0.0173 0.0292,0.01315 0.0642,-0.0029 0.0961,0 0.12211,0.01099 0.24321,0.03169 0.36527,0.04326 0.30199,0.02861 0.60173,0.07362 0.90359,0.10381 0.36486,0.03649 0.72937,0.04325 1.09584,0.04325 0.44662,0 0.92071,-0.0092 1.36499,-0.06921 0.1996,-0.02694 0.57916,-0.08337 0.80746,-0.129765 0.29364,-0.05967 0.62144,-0.150035 0.90359,-0.216275 0.23931,-0.05618 0.33556,-0.06746 0.57676,-0.112464 0.23262,-0.0434 0.52563,-0.10013 0.76901,-0.147065 0.281,-0.05419 0.53884,-0.104512 0.82668,-0.15572 0.34666,-0.06167 0.69243,-0.112071 1.03816,-0.18167 0.35462,-0.07139 0.70466,-0.162866 1.0574,-0.242229 0.0574,-0.01291 0.11575,-0.0212 0.17302,-0.0346 0.10299,-0.0241 0.20442,-0.05464 0.30761,-0.07786 0.279,-0.06277 0.56505,-0.09503 0.84591,-0.147066 0.59865,-0.110919 1.19725,-0.241629 1.78795,-0.389296 0.41937,-0.10484 0.83138,-0.237079 1.24964,-0.346042 0.42566,-0.110894 -0.01,0.01701 0.6152,-0.164369 0.36871,-0.107039 0.0214,-0.01279 0.36529,-0.121115 0.13401,-0.04221 0.2703,-0.07709 0.40372,-0.121115 0.0181,-0.006 0.35932,-0.144846 0.36529,-0.147067 0.12109,-0.04509 0.24242,-0.08973 0.36527,-0.129765 0.0631,-0.02057 0.12868,-0.03283 0.19225,-0.0519 0.14879,-0.04463 0.29547,-0.09605 0.44219,-0.147069 0.0842,-0.02928 0.16617,-0.06465 0.24993,-0.09516 0.29604,-0.107841 0.59255,-0.20937 0.88436,-0.328739 0.0455,-0.01862 0.0888,-0.04254 0.13458,-0.06056 0.22079,-0.08693 0.45208,-0.146641 0.67288,-0.233577 0.0458,-0.01802 0.0885,-0.04342 0.13457,-0.06056 0.15304,-0.05689 0.30807,-0.108306 0.46141,-0.16437 0.0508,-0.01858 0.10376,-0.03134 0.1538,-0.05191 0.0975,-0.04006 0.19156,-0.08809 0.28838,-0.129767 0.255,-0.109757 0.51871,-0.198794 0.76901,-0.320087 0.20398,-0.09885 0.39734,-0.219921 0.59598,-0.328739 0.07,-0.03836 0.14432,-0.06929 0.21148,-0.112462 0.0234,-0.01507 0.0348,-0.04457 0.0577,-0.06056 0.0356,-0.0249 0.0786,-0.03741 0.11535,-0.06056 0.20469,-0.128949 0.39182,-0.285547 0.59598,-0.415249 0.0367,-0.02329 0.0789,-0.03689 0.11535,-0.06056 0.0217,-0.01409 0.0359,-0.03792 0.0577,-0.0519 0.0683,-0.04393 0.14368,-0.07637 0.21148,-0.121115 0.0288,-0.019 0.0489,-0.04906 0.0769,-0.06921 0.0364,-0.0262 0.078,-0.04446 0.11535,-0.06921 0.0716,-0.04738 0.14031,-0.09903 0.21147,-0.147067 0.0314,-0.02119 0.0641,-0.04037 0.0961,-0.06056 0.0385,-0.02018 0.0791,-0.0367 0.11534,-0.06056 0.27892,-0.183435 0.0354,-0.03199 0.19226,-0.164369 0.0302,-0.02546 0.0641,-0.04614 0.0961,-0.06921 0.0449,-0.04326 0.0883,-0.08808 0.13458,-0.129765 0.16873,-0.151845 -0.0142,0.02609 0.1538,-0.112464 0.0532,-0.04389 0.10158,-0.09337 0.15381,-0.138415 0.13182,-0.113689 0.2787,-0.204974 0.40372,-0.328739 0.0533,-0.05273 0.0769,-0.05026 0.0769,-0.121115 0,-0.01154 0.006,-0.02468 0,-0.0346 -0.11135,-0.187891 -0.36931,-0.346747 -0.5383,-0.467154 -0.21443,-0.15278 -0.0416,-0.05447 -0.38451,-0.25088 -0.0499,-0.02856 -0.10324,-0.05056 -0.1538,-0.07786 -0.0456,-0.02463 -0.0883,-0.05445 -0.13458,-0.07786 -0.10766,-0.0545 -0.21926,-0.101004 -0.32683,-0.155717 -0.04,-0.02033 -0.0769,-0.04614 -0.11534,-0.06921 -0.0577,-0.02595 -0.11618,-0.05014 -0.17303,-0.07786 -0.097,-0.04728 -0.19139,-0.09978 -0.28838,-0.147067 -0.0568,-0.02771 -0.11725,-0.04805 -0.17303,-0.07786 -0.047,-0.02513 -0.0885,-0.05971 -0.13457,-0.08651 -0.15862,-0.09219 -0.31654,-0.186137 -0.48064,-0.268182 -0.0628,-0.03143 -0.12892,-0.05605 -0.19225,-0.08651 -0.12255,-0.05895 -0.24273,-0.122724 -0.36528,-0.181672 -0.15364,-0.0739 -0.24434,-0.107442 -0.40373,-0.17302 -0.48369,-0.198996 -0.96968,-0.391666 -1.46112,-0.57097 -0.0762,-0.02782 -0.15463,-0.04958 -0.2307,-0.07786 -0.0714,-0.02654 -0.13995,-0.06036 -0.21148,-0.08651 -0.191,-0.06983 -0.38633,-0.127564 -0.57676,-0.198972 -0.17449,-0.06543 -0.34698,-0.136139 -0.51908,-0.207624 -0.20048,-0.08328 -0.39064,-0.176959 -0.59598,-0.250881 -0.0632,-0.02275 -0.12884,-0.03836 -0.19226,-0.06056 -0.23141,-0.08099 -0.45912,-0.17363 -0.6921,-0.25088 -0.27785,-0.09213 -0.24614,-0.06933 -0.61521,-0.181671 -0.15529,-0.04727 -0.30593,-0.109077 -0.46141,-0.155721 -0.33808,-0.10142 -0.67741,-0.189605 -1.01894,-0.276831 -0.15406,-0.03935 -0.30669,-0.08437 -0.4614,-0.121115 -0.0761,-0.01807 -0.1538,-0.02884 -0.2307,-0.04325 -0.0769,-0.0173 -0.15403,-0.03364 -0.23071,-0.05191 -0.36477,-0.0869 -0.35448,-0.09134 -0.65366,-0.155721 -0.22104,-0.04757 -0.40382,-0.07788 -0.63443,-0.129765 -0.12952,-0.02914 -0.25479,-0.07557 -0.38451,-0.103812 -0.13391,-0.02916 -0.26942,-0.05056 -0.40373,-0.07786 -0.0644,-0.01307 -0.1277,-0.0311 -0.19225,-0.04325 -0.21106,-0.03976 -0.4227,-0.07647 -0.63443,-0.112464 -0.14667,-0.02492 -0.29562,-0.03503 -0.44218,-0.06056 -0.0986,-0.01717 -0.39252,-0.07774 -0.53831,-0.112464 -0.0578,-0.01378 -0.11455,-0.03254 -0.17302,-0.04325 -0.11473,-0.02104 -0.23089,-0.0334 -0.34606,-0.05191 -0.4311,-0.06928 0.035,7.7e-5 -0.36528,-0.06921 -0.16533,-0.03409 -0.33358,-0.0498 -0.49986,-0.07786 -0.21118,-0.03564 -0.42174,-0.07723 -0.63443,-0.103815 -0.47549,-0.05943 0.24064,0.04763 -0.48063,-0.06056 -0.23135,-0.0347 -0.46033,-0.09044 -0.69211,-0.121116 -0.24248,-0.03209 -0.48761,-0.04749 -0.73056,-0.07786 -0.21716,-0.02714 -0.43563,-0.05081 -0.65366,-0.06921 -0.1535,-0.01296 -0.30783,-0.01394 -0.4614,-0.02596 -0.0451,-0.0035 -0.0896,-0.01297 -0.13458,-0.0173 -0.16608,-0.01601 -0.33342,-0.02212 -0.49986,-0.0346 -0.1536,-0.01151 -0.3075,-0.02883 -0.4614,-0.0346 -0.1664,-0.0062 -0.3335,-0.0024 -0.49986,-0.0087 -0.17953,-0.0067 -0.35883,-0.0186 -0.53831,-0.02596 -0.1724,-0.0071 -0.34642,0 -0.51908,0 -0.28153,0 -0.56446,-0.0063 -0.84591,0 -0.0322,7.94e-4 -0.064,0.0075 -0.0961,0.0087 -0.0512,0.0019 -0.10255,-0.0013 -0.1538,0 -0.21107,0.0059 -0.42462,0.0283 -0.63443,0.05191 -0.096,0.0108 -0.0511,0.0087 -0.13458,0.0087 -0.0192,0 -0.0577,-0.01923 -0.0577,0 0,0.01924 0.0444,-0.01392 0.0577,0 0.0139,0.01463 0,0.04037 0,0.06056"
       id="path44370" />
    <path
       style="fill:none;fill-opacity:1;fill-rule:nonzero;stroke:#000000;stroke-width:1;stroke-linecap:round;stroke-linejoin:round"
       d="m 137.02966,49.481202 c -0.42295,0.594037 -0.99493,1.106289 -1.26886,1.782111 -0.26089,0.643639 0.2291,1.187942 0.73056,1.410116 0.20791,0.09212 0.44553,0.107591 0.67288,0.112463 0.86943,0.01863 1.44437,-0.021 2.23013,-0.311437 0.46318,-0.171202 0.92807,-0.418669 1.24964,-0.804544 0.065,-0.07804 0.13459,-0.156843 0.17303,-0.250879 0.11447,-0.280087 0.18141,-0.454906 0.0961,-0.718036 -0.0227,-0.07007 -0.0418,-0.149217 -0.0961,-0.198972 -0.13054,-0.119574 -0.28416,-0.214355 -0.44218,-0.294136 -0.10751,-0.05428 -0.22933,-0.07418 -0.34606,-0.103813 -0.46536,-0.118127 -0.76147,-0.135309 -1.28809,-0.198972 -0.21088,-0.02549 -0.49326,-0.05371 -0.71133,-0.06921 -0.1409,-0.01001 -0.28187,-0.01915 -0.42296,-0.02596 -0.0422,-0.002 -0.16999,-0.0083 -0.21147,0.02596 -0.0413,0.03409 -0.18925,0.238163 -0.23071,0.294135"
       id="path44315" />
    <path
       style="fill:none;fill-opacity:1;fill-rule:nonzero;stroke:#000000;stroke-width:1;stroke-linecap:round;stroke-linejoin:round"
       d="m 142.70112,49.169765 c -0.0192,0.08651 -0.0493,0.171304 -0.0577,0.259532 -0.005,0.04922 0.0157,0.09775 0.0192,0.147067 0.009,0.132474 0.0154,0.2652 0.0192,0.397946 0.0112,0.384673 -0.0302,0.810015 -0.0769,1.18519 -0.0123,0.09915 -0.0408,0.195651 -0.0577,0.294135 -0.0152,0.08902 -0.0269,0.178618 -0.0385,0.268182 -0.0899,0.695541 -0.0322,0.252726 -0.0769,0.67478 -0.006,0.05486 -0.0164,0.10928 -0.0192,0.16437 -0.004,0.06912 0,0.138416 0,0.207624 0,0.0173 0,0.0346 0,0.05191 0,0.0087 0,0.0346 0,0.02595 0,-0.05191 0,-0.103812 0,-0.155718"
       id="path44321" />
    <path
       style="fill:none;fill-opacity:1;fill-rule:nonzero;stroke:#000000;stroke-width:1;stroke-linecap:round;stroke-linejoin:round"
       d="m 142.50886,49.472551 c 0.42296,-0.08363 0.83912,-0.21629 1.26887,-0.250879 0.31826,-0.02561 1.29709,0.01824 1.69182,0.224927 0.34207,0.179115 0.55136,0.370843 0.53831,0.752638 -0.005,0.158568 -0.41925,0.576713 -0.42296,0.579619 -0.57069,0.446611 -1.34918,0.552333 -2.03787,0.657478 -0.2492,0.03805 -0.50023,0.06007 -0.74979,0.09516 -0.0385,0.0054 -0.0766,0.01382 -0.11535,0.0173 -0.0255,0.0023 -0.0982,-0.01434 -0.0769,0 0.0494,0.03336 0.33353,0.09502 0.36528,0.103812 0.71922,0.199161 -0.28839,-0.04063 0.99971,0.25953 0.45386,0.105761 0.91165,0.194277 1.36499,0.302786 0.0841,0.02012 0.16647,0.04667 0.24993,0.06921 0.21649,0.05845 0.26303,0.06354 0.48063,0.138416 0.0266,0.0091 0.0507,0.02449 0.0769,0.0346 0.044,0.01696 0.0899,0.02819 0.13458,0.04326"
       id="path44323" />
    <path
       style="fill:none;fill-opacity:1;fill-rule:nonzero;stroke:#000000;stroke-width:1;stroke-linecap:round;stroke-linejoin:round"
       d="m 132.87701,47.344401 c -0.57035,0.06344 -1.14051,0.128577 -1.71105,0.190323 -0.94826,0.102623 -1.89545,0.216389 -2.84533,0.302783 -1.56223,0.142091 -2.88062,0.216964 -4.42181,0.276835 -0.27541,0.0107 -0.55115,0.01028 -0.82669,0.0173 -0.0101,2.56e-4 -0.34433,0.0019 -0.3845,0.02595 -0.0185,0.01108 -0.0256,0.0346 -0.0384,0.05191"
       id="path44325" />
    <path
       style="fill:none;fill-opacity:1;fill-rule:nonzero;stroke:#000000;stroke-width:1;stroke-linecap:round;stroke-linejoin:round"
       d="m 131.01216,55.424453 c -0.77027,0.119981 -0.22557,0.04618 -0.98049,0.121115 -0.27571,0.02737 -0.55049,0.06453 -0.82668,0.08651 -0.66597,0.053 -1.33208,0.107408 -1.99943,0.138417 -0.84283,0.03916 -2.16968,0.03323 -3.01836,-0.0086 -0.50065,-0.02471 -0.99932,-0.08063 -1.49957,-0.112465 -0.15751,-0.01002 -0.41685,-0.0086 -0.59598,-0.0086 -0.0291,0 -0.1516,-0.0096 -0.17303,0 -0.0461,0.02075 -0.0384,0.04257 -0.0384,0.07786"
       id="path44327" />
    <path
       style="fill:none;fill-opacity:1;fill-rule:nonzero;stroke:#000000;stroke-width:1;stroke-linecap:round;stroke-linejoin:round"
       d="m 154.37084,50.484722 c -0.30084,-0.105718 -0.61635,-0.03189 -0.92281,-0.07786 -0.019,-0.0029 0.0385,-9.53e-4 0.0577,0 0.0659,0.0033 0.2665,0.02216 0.3076,0.02595 0.74442,0.06871 0.42446,0.04829 1.24964,0.08651 1.67181,0.07744 3.34488,0.06347 5.01779,0.08651 0.38537,0.0053 0.50593,0.01658 0.86514,0 0.12832,-0.0059 0.2564,-0.01635 0.3845,-0.02595 0.0257,-0.0019 0.0923,0.01208 0.0769,-0.0086 -0.0194,-0.02616 -0.0636,-0.01913 -0.0961,-0.0173 -0.0713,0.004 -0.14099,0.02307 -0.21148,0.0346"
       id="path44329" />
  </g>
</svg>
