<?xml version="1.0" encoding="UTF-8" standalone="no"?>
<!-- Created with Inkscape (http://www.inkscape.org/) -->

<svg
   width="137.50198mm"
   height="21.172434mm"
   viewBox="0 0 137.50198 21.172435"
   version="1.1"
   id="svg5"
   sodipodi:docname="productivity.svg"
   inkscape:version="1.2.2 (b0a8486541, 2022-12-01)"
   xmlns:inkscape="http://www.inkscape.org/namespaces/inkscape"
   xmlns:sodipodi="http://sodipodi.sourceforge.net/DTD/sodipodi-0.dtd"
   xmlns="http://www.w3.org/2000/svg"
   xmlns:svg="http://www.w3.org/2000/svg">
  <sodipodi:namedview
     id="namedview7"
     pagecolor="#ffffff"
     bordercolor="#666666"
     borderopacity="1.0"
     inkscape:showpageshadow="2"
     inkscape:pageopacity="0.0"
     inkscape:pagecheckerboard="0"
     inkscape:deskcolor="#d1d1d1"
     inkscape:document-units="mm"
     showgrid="false"
     inkscape:zoom="2.3177057"
     inkscape:cx="256.28793"
     inkscape:cy="69.465248"
     inkscape:window-width="2560"
     inkscape:window-height="1372"
     inkscape:window-x="0"
     inkscape:window-y="32"
     inkscape:window-maximized="1"
     inkscape:current-layer="layer1"
     showguides="true" />
  <defs
     id="defs2" />
  <g
     inkscape:label="Layer 1"
     inkscape:groupmode="layer"
     id="layer1"
     transform="translate(-84.72818,-61.980491)">
    <path
       style="fill:#6ae4a3;fill-opacity:1;stroke:#000000;stroke-width:1;stroke-linecap:round;stroke-linejoin:round"
       d="m 112.63478,66.935577 c -0.1538,-0.06344 -0.2955,-0.177879 -0.46141,-0.19032 -0.0518,-0.0039 -0.003,0.103889 0,0.155718 0.01,0.184727 0.0233,0.369287 0.0385,0.553662 0.0105,0.127098 0.0324,0.253262 0.0384,0.380648 0.0304,0.643012 -0.0225,1.297019 -0.0384,1.937827 -0.008,0.340167 0,0.680545 0,1.020818 0,0.519062 -0.0189,1.038468 0,1.557184 0.0185,0.508643 0.0843,1.014547 0.11535,1.522579 0.05,0.817663 0.0385,0.885169 0.0385,1.678302 0,0.121113 0.006,0.242398 0,0.363342 -0.006,0.121618 -0.0298,0.241861 -0.0385,0.363339 -0.0169,0.236204 -0.0127,0.47398 -0.0385,0.709388 -0.0351,0.320765 -0.22658,0.751908 -0.30761,1.020818 -0.0341,0.113136 -0.0453,0.23219 -0.0769,0.34604 -0.0325,0.11715 -0.082,0.229106 -0.11536,0.346041 -0.0956,0.335505 -0.15253,0.680836 -0.2307,1.020823 -0.0877,0.381617 -0.19152,0.757688 -0.26916,1.141939 -0.0888,0.439661 0.0252,0.04383 -0.11534,0.570961 -0.01,0.03566 -0.0221,0.07073 -0.0385,0.103817 -0.01,0.01931 -0.0581,0.04307 -0.0384,0.0519 0.0354,0.01595 0.0766,-0.01421 0.11535,-0.0173 0.17924,-0.01424 0.35887,-0.02307 0.5383,-0.0346 0.17944,-0.0173 0.35872,-0.03627 0.53831,-0.05191 0.21775,-0.01897 0.43577,-0.0346 0.65366,-0.05191 0.55112,-0.05191 1.10217,-0.104653 1.65337,-0.15572 2.31545,-0.214511 4.63405,-0.374997 6.95954,-0.41524 0.19222,-0.0033 0.38451,0 0.57676,0 0.16662,0 0.33391,-0.01492 0.49986,0 0.55917,0.05032 1.09744,0.202351 1.65337,0.25953 0.30685,0.03156 0.61537,0.04405 0.92281,0.0692 0.18905,0.01548 0.54701,0.05968 0.73055,0.06921 0.38876,0.02019 0.57447,0.0173 0.92282,0.0173 0.28671,0 0.5314,0.0036 0.80746,-0.0346 0.71394,-0.09885 0.0363,-0.0024 0.57676,-0.103811 0.0764,-0.01434 0.15526,-0.01574 0.23071,-0.03461 0.0409,-0.01021 0.076,-0.03673 0.11534,-0.0519 0.043,-0.01656 0.25576,-0.0797 0.26916,-0.103812 0.0153,-0.02758 -0.0348,-0.05516 -0.0385,-0.08651 -0.009,-0.0802 0.007,-0.161832 0,-0.242231 -0.0535,-0.577392 -0.0385,0.280617 -0.0385,-0.380648 0,-0.282599 0.0153,-0.565613 0,-0.847797 -0.007,-0.121615 -0.0346,-0.241617 -0.0385,-0.363349 -0.009,-0.288224 0.008,-0.57685 0,-0.865098 -0.005,-0.161927 -0.0322,-0.322582 -0.0384,-0.48446 -0.0208,-0.541731 0,-1.084257 0,-1.626386 0,-0.957381 0,-1.914763 0,-2.872144 0,-0.484455 0.0138,-0.969108 0,-1.453367 -0.004,-0.138951 -0.0254,-0.276857 -0.0385,-0.41525 -0.0415,-0.438759 -0.0769,-0.710412 -0.0769,-1.193845 0,-0.133266 0.0323,-0.264824 0.0385,-0.397947 0.007,-0.144031 -0.004,-0.288427 0,-0.432551 0.009,-0.300051 0.0296,-0.599662 0.0385,-0.899708 0.004,-0.132588 -0.007,-0.265454 0,-0.397941 0.006,-0.127373 0.0289,-0.253479 0.0385,-0.380648 0.0161,-0.213172 0.0206,-0.427149 0.0384,-0.640178 8e-5,-0.0011 0.0768,-0.55272 0.0769,-0.553659 0.0161,-0.155419 0.0216,-0.311822 0.0385,-0.467159 0.009,-0.08128 0.0315,-0.160772 0.0385,-0.242229 0.006,-0.06896 0,-0.138414 0,-0.207621 0.0128,-0.09228 0.0281,-0.184243 0.0384,-0.276836 0.003,-0.02294 -0.006,-0.04698 0,-0.06921 0.007,-0.02543 0.0596,-0.05337 0.0385,-0.06921 -0.0413,-0.03095 -0.10227,-0.01487 -0.1538,-0.0173 -0.93059,-0.04409 -0.22836,-7.94e-4 -0.99971,-0.0173 -1.36924,-0.02934 1.60873,-0.072 -2.03788,-0.0173 -0.21816,0.0033 -0.43575,0.0235 -0.65366,0.03461 -4.12493,0.210124 0.39605,-0.03157 -2.11478,0.12111 -1.12709,0.06854 -2.25526,0.144161 -3.38364,0.19032 -1.03849,0.04248 -2.07653,0.06416 -3.1145,0.121118 -0.91112,0.05 -1.82083,0.130916 -2.72998,0.207621 -0.55972,0.04722 -1.13296,0.07136 -1.69182,0.13842 -0.47398,0.05687 -0.85919,0.123611 -1.30732,0.242229 -0.14034,0.03714 -0.28132,0.07194 -0.42295,0.103809 -0.0642,0.01445 -0.22413,0.02 -0.26916,0.06921 -0.0604,0.06598 -0.0769,0.161485 -0.11536,0.242228"
       id="path120036-8" />
    <path
       style="fill:#6ae4a3;fill-opacity:1;stroke:#000000;stroke-width:1;stroke-linecap:round;stroke-linejoin:round"
       d="m 118.24399,77.523665 c 0.0256,-0.184555 0.043,-0.370457 0.0769,-0.553667 0.0302,-0.163227 0.0825,-0.321747 0.11535,-0.484461 0.0919,-0.454895 0.0938,-0.925009 0.15381,-1.384157 0.19666,-1.504399 -0.08,1.193795 0.19225,-1.470675 0.017,-0.166876 0.0193,-0.335114 0.0384,-0.501759 0.0842,-0.732396 0.25493,-1.456026 0.2307,-2.197365 -0.008,-0.259707 -0.0111,-0.520186 -0.0384,-0.778589 -0.0133,-0.125563 -0.11843,-0.439674 -0.1538,-0.570968 -0.0345,-0.128013 -0.0239,-0.284641 -0.11534,-0.38064 -0.0213,-0.02241 -0.0999,-0.0726 -0.0769,-0.05191 0.0357,0.03215 0.0698,0.07114 0.11536,0.08651 0.061,0.02058 0.12831,0.01011 0.19225,0.0173 0.35402,0.03983 0.26569,0.04728 0.6921,0.06921 0.78084,0.04016 1.52669,0.03099 2.30704,0 0.14099,-0.0056 0.28282,-7.94e-4 0.42295,-0.0173 0.10437,-0.01236 0.20507,-0.04614 0.3076,-0.06921 0.12817,-0.02884 0.25867,-0.04876 0.3845,-0.08651 0.0577,-0.01733 0.19227,-0.160488 0.19227,-0.0173"
       id="path118423" />
    <path
       style="fill:#6ae4a3;fill-opacity:1;stroke:#000000;stroke-width:1;stroke-linecap:round;stroke-linejoin:round"
       d="m 118.89764,73.734514 c 0.17944,0.04037 0.35491,0.107362 0.53832,0.121118 0.35786,0.02684 0.71774,0 1.0766,0 0.5277,0 1.04943,-0.01958 1.57647,-0.05191 0.0749,-0.0046 0.26365,-0.024 0.34607,-0.0346 0.0386,-0.0049 0.15422,-0.0173 0.11534,-0.0173 -0.0643,0 -0.12817,0.01153 -0.19225,0.0173"
       id="path118425" />
    <path
       style="fill:#6ae4a3;fill-opacity:1;stroke:#000000;stroke-width:1;stroke-linecap:round;stroke-linejoin:round"
       d="m 92.921003,66.03511 c -0.166619,-0.0173 -0.482555,-0.218528 -0.499857,-0.05191 -0.0173,0.166619 0.421246,-0.09601 0.499857,0.05191 0.116998,0.22016 -0.05645,0.495511 -0.0769,0.743987 -0.01799,0.218792 -0.02196,0.43856 -0.03845,0.657471 -0.01831,0.242895 -0.05382,0.484203 -0.07691,0.726689 -0.04171,0.43802 -0.06042,0.878395 -0.115342,1.314955 -0.07055,0.560829 -0.144227,0.645197 -0.307605,1.297657 -0.225518,0.900618 0.08099,-0.118629 -0.192252,0.726681 -0.06514,0.201522 -0.124909,0.404783 -0.192263,0.605575 -0.03521,0.104955 -0.08185,0.20592 -0.115342,0.311433 -0.07582,0.238816 -0.125187,0.485267 -0.192251,0.726687 -0.02661,0.09577 -0.06112,0.162827 -0.03846,0.173021 0.117283,0.05277 0.404092,0.03461 0.499858,0.03461 0.281969,0 0.563938,0 0.84591,0 1.102235,0 2.204624,-0.0055 3.306746,-0.0173 1.473883,-0.0158 2.951827,-0.0549 4.421798,-0.173019 0.0775,-0.0062 0.15326,-0.02763 0.23071,-0.0346 0.10585,-0.0095 0.31174,0.02809 0.3845,-0.08651 0.0124,-0.01947 0,-0.04614 0,-0.06921 0,-0.0346 0,-0.06921 0,-0.103809 0,-0.269352 -0.0113,-0.543933 0,-0.8132 -0.0288,-0.350118 0.0598,-0.691552 0.0769,-1.038119 0.0216,-0.437785 0,-0.876636 0,-1.314955 0,-0.161486 0.006,-0.323099 0,-0.48446 -0.006,-0.161867 -0.0295,-0.322713 -0.0385,-0.484458 -0.0166,-0.299715 -0.0125,-0.600649 -0.0385,-0.899708 -0.0126,-0.145896 -0.0571,-0.287443 -0.0769,-0.432548 -0.0187,-0.13774 -0.0256,-0.276834 -0.0385,-0.415251 -0.0384,-0.247996 -0.0791,-0.495651 -0.11534,-0.743987 -0.0415,-0.284522 -0.0418,-0.900054 -0.26916,-1.090027 -0.1135,-0.09485 -0.29324,-0.08359 -0.42295,-0.08651 -0.565021,-0.0127 -0.400013,-0.0094 -0.922817,0.05191 -0.981681,0.115234 -1.95023,0.323567 -2.922233,0.501759 -0.163137,0.02991 -1.711555,0.331401 -2.153229,0.363341 -1.303756,0.09429 -1.179611,-0.06144 -2.191679,0.242229"
       id="path119998" />
    <path
       style="fill:#6ae4a3;fill-opacity:1;stroke:#000000;stroke-width:1;stroke-linecap:round;stroke-linejoin:round"
       d="m 94.151426,68.491996 c 0.490741,0.641329 1.167524,1.119579 1.691823,1.730206 0.606962,0.706903 -0.172284,-0.04795 0.3845,0.484457 0.06231,0.05958 0.130522,0.112834 0.192252,0.173022 0.06326,0.06168 0.248523,0.332018 0.384513,0.224927 0.02899,-0.02283 0.01963,-0.07207 0.03845,-0.103817 0.03293,-0.05557 0.07559,-0.104807 0.115342,-0.15572 0.126884,-0.162499 0.254932,-0.324099 0.384517,-0.48445 0.0755,-0.09343 0.159197,-0.180316 0.230698,-0.276839 0.698428,-0.942861 -0.647383,0.721771 0.615212,-0.882398 0.06896,-0.08762 0.156617,-0.158893 0.230698,-0.242232 0.131053,-0.147433 0.25736,-0.299032 0.3845,-0.449855 0.01386,-0.01646 0.04892,-0.07073 0.03846,-0.0519 -0.02323,0.04181 -0.05127,0.08074 -0.07691,0.121113"
       id="path120000" />
    <path
       style="fill:#6ae4a3;fill-opacity:1;stroke:#000000;stroke-width:1;stroke-linecap:round;stroke-linejoin:round"
       d="m 91.805947,79.25387 c 0.19225,-0.207626 0.364673,-0.435549 0.57675,-0.622877 0.136703,-0.12075 0.308798,-0.194243 0.46141,-0.294132 0.517665,-0.33882 1.031676,-0.682691 1.538017,-1.038124 0.373693,-0.262321 0.741736,-0.533405 1.115071,-0.795898 0.237154,-0.166743 0.648234,-0.483841 0.961252,-0.51906 0.05095,-0.0057 0.104307,-0.01336 0.153803,0 0.0208,0.0056 0.02024,0.04043 0.03846,0.05191 0.04757,0.02997 0.103518,0.04407 0.153802,0.06921 0.06514,0.03257 0.126376,0.07276 0.192252,0.103812 0.205065,0.09228 0.410131,0.184552 0.615199,0.276828 0.08972,0.05767 0.173873,0.125101 0.269157,0.173022 0.123537,0.06213 0.260313,0.09491 0.384501,0.155718 0.806455,0.394912 0.684202,0.351565 1.191966,0.640178 0.387075,0.220017 0.371287,0.1768 0.615213,0.38064 0.21453,0.179271 0.0272,0.04333 0.30761,0.311438 0.0347,0.03322 0.0812,0.0527 0.11534,0.08651 0.0306,0.0303 0.0449,0.07501 0.0769,0.103817 0.046,0.04138 0.10432,0.0667 0.1538,0.103812 0.0276,0.02069 0.0473,0.05147 0.0769,0.06921 0.0482,0.02892 0.10402,0.04307 0.1538,0.0692 0.11875,0.06234 0.23071,0.117655 0.0769,0.242229 -0.0481,0.03893 -0.10653,0.06393 -0.15381,0.103817 -0.0558,0.04705 -0.0937,0.114353 -0.1538,0.155712 -0.15926,0.109601 -0.33524,0.19277 -0.49986,0.294138 -0.404808,0.249274 -0.0519,0.06953 -0.499855,0.311438 -0.711967,0.384445 -1.448107,0.710708 -2.153229,1.107329 -0.411221,0.231307 -0.79044,0.514043 -1.191967,0.761288 -0.304733,0.187645 -0.08296,0.01524 -0.3845,0.22493 -0.0769,0.05767 -0.153808,0.115345 -0.230711,0.173019 -0.03845,0.0346 -0.07396,0.07278 -0.115343,0.103812 -0.03587,0.0269 -0.07897,0.04301 -0.115355,0.06921 -0.07477,0.05383 -0.331545,0.305359 -0.422963,0.29414 -0.362337,-0.04447 -0.773967,-0.352623 -1.076608,-0.519067 -0.09852,-0.05418 -0.211646,-0.07981 -0.307605,-0.138412 -0.08508,-0.05196 -0.153797,-0.126886 -0.230698,-0.190328 -0.153802,-0.126881 -0.315267,-0.245009 -0.46141,-0.38064 -0.116316,-0.10795 -0.201099,-0.245708 -0.307607,-0.363347 -0.241242,-0.266459 -0.4783,-0.523192 -0.730554,-0.778589 -0.179097,-0.18133 0.02817,0.01439 -0.153803,-0.19032 -0.04847,-0.05453 -0.104236,-0.102188 -0.153803,-0.155721 -0.01463,-0.0158 -0.0438,-0.03105 -0.03845,-0.05191 0.03533,-0.137752 0.102536,-0.265295 0.153804,-0.397941 z"
       id="path120006" />
    <path
       style="fill:none;fill-opacity:1;stroke:#000000;stroke-width:1;stroke-linecap:round;stroke-linejoin:round"
       d="m 100.49575,70.758563 c 1.02535,-0.04614 2.04967,-0.143177 3.07605,-0.138412 0.5305,0.0024 1.32691,0.445384 1.73027,0.743987 0.45303,0.335383 0.89764,0.816557 1.07662,1.366859 0.025,0.07679 0,0.161486 0,0.242229 0,0.08074 0,0.161485 0,0.242228 0,0.263464 0.006,0.444146 -0.0385,0.726689 -0.0133,0.08367 -0.0513,0.161486 -0.0769,0.242229 -0.15252,0.480425 0.008,0.0173 -0.3076,0.709379 -0.0306,0.06716 -0.0459,0.140655 -0.0769,0.207629 -0.12409,0.268021 -0.28483,0.517528 -0.42296,0.77859 -0.10845,0.204957 -0.19036,0.422389 -0.30761,0.622869 -0.36454,0.623358 0.24621,-0.431007 -0.34605,0.501766 -0.0338,0.05328 -0.0462,0.117851 -0.0769,0.173019 -0.0337,0.0606 -0.0798,0.113538 -0.11536,0.173022 -0.0787,0.131572 -0.12653,0.285437 -0.2307,0.397941 -0.0327,0.03527 -0.0766,0.05814 -0.11535,0.08651 -0.0637,0.04661 -0.12343,0.09971 -0.19225,0.138419 -0.035,0.01969 -0.0778,0.02051 -0.11536,0.03461 -0.14815,0.05555 -0.16511,0.0965 -0.34605,0.155713 -0.0619,0.02024 -0.12873,0.02032 -0.19226,0.03461 -0.53865,0.121192 0.30709,-0.03204 -0.57676,0.138416 -0.26717,0.05153 -0.5389,0.09007 -0.80745,0.138412 -0.33273,0.05989 -0.66499,0.05638 -0.99971,0.08651 -0.0707,0.0064 -0.54564,0.08726 -0.65366,0.05191 -0.10686,-0.03497 -0.20507,-0.09228 -0.30761,-0.138419"
       id="path120008" />
    <path
       style="fill:#6ae4a3;fill-opacity:1;stroke:#000000;stroke-width:1;stroke-linecap:round;stroke-linejoin:round"
       d="m 106.76319,73.440384 c -0.2551,-0.01352 -0.57727,-0.08059 -0.84591,0 -0.0539,0.01614 -0.10372,0.04366 -0.1538,0.0692 -0.14226,0.07254 -0.29153,0.134242 -0.42296,0.224928 -0.0635,0.04382 -0.0979,0.119872 -0.15381,0.173021 -0.0598,0.0568 -0.14521,0.08798 -0.19225,0.155718 -0.0489,0.0704 -0.2056,0.427998 -0.26914,0.570968 -0.0256,0.05767 -0.0663,0.110808 -0.0769,0.173019 -0.001,0.0059 -0.0275,0.332703 0.0384,0.39795 0.04,0.03955 0.10013,0.05249 0.15381,0.06921 0.25566,0.07965 0.5073,0.119658 0.76901,0.0346 0.4755,-0.154533 0.81874,-0.382215 1.07661,-0.8132 0.0246,-0.04109 0.023,-0.0931 0.0385,-0.138411 0.0337,-0.09839 0.0992,-0.134533 0,-0.25953 -0.0349,-0.04403 -0.10381,-0.0435 -0.1538,-0.06921 -0.0399,-0.0205 -0.0721,-0.05724 -0.11536,-0.06921 -0.33883,-0.09383 -0.70016,-0.129156 -0.99971,0.08651 -0.0487,0.03509 -0.0783,0.09116 -0.11535,0.13842 -0.0399,0.05082 -0.0859,0.09824 -0.11535,0.155712 -0.0481,0.09371 -0.0774,0.195903 -0.11535,0.294137 -0.0133,0.03442 -0.0384,0.06691 -0.0384,0.103812 0,0.152472 0.35464,0.190326 0.46139,0.190326 0.38171,0 0.81303,-0.141412 1.07663,-0.432557 0.0867,-0.09577 0.15192,-0.209034 0.23069,-0.31143 0.0366,-0.04761 0.088,-0.08498 0.11536,-0.13842 0.0424,-0.0826 -0.0548,-0.147957 -0.0769,-0.207626 -0.048,-0.129511 0.0194,-0.367628 -0.11536,-0.397942 -0.22481,-0.05058 -0.43097,0.165709 -0.65366,0.22492 -0.0619,0.01646 -0.13049,-0.01709 -0.19225,0 -0.37035,0.102558 -0.47252,0.314143 -0.65366,0.640178 -0.0441,0.07943 -0.1967,0.394615 -0.0769,0.48446 0.18091,0.135678 0.32979,0.161875 0.53832,0.138417 0.76081,-0.08558 0.87978,-0.194247 1.46111,-0.795896 0.055,-0.05694 0.0756,-0.139134 0.11535,-0.207629 0.0372,-0.06418 0.0908,-0.120322 0.11536,-0.19032 0.022,-0.0627 -0.0285,-0.343162 -0.0385,-0.363339 -0.11721,-0.237337 -0.56964,0.06665 -0.6152,0.06921 -0.24484,0.01378 -0.49004,-0.13426 -0.73057,-0.08651 -0.49326,0.09792 -0.8491,0.623376 -1.03816,1.038119 -0.0292,0.06405 -0.0251,0.13852 -0.0384,0.207626 -0.022,0.114009 -0.0918,0.23817 0.0384,0.32874 0.56645,0.393927 1.46093,0.160811 1.96098,-0.224928 0.30085,-0.232076 0.50114,-0.606991 0.65366,-0.93431 0.0317,-0.06812 0.13133,-0.376375 0.0384,-0.501758 -0.0594,-0.08024 -0.25537,-0.185185 -0.34606,-0.207627 -0.18962,-0.04693 -0.382,-0.08857 -0.57675,-0.103812 -0.10286,-0.008 -0.20615,0.0158 -0.3076,0.0346 -0.50019,0.09267 -0.97776,0.391096 -1.26888,0.813197 -0.003,0.0045 -0.27056,0.341585 -0.23069,0.467158 0.0352,0.11076 0.22086,0.0692 0.3076,0.0692"
       id="path120014" />
    <path
       style="fill:#6ae4a3;fill-opacity:1;stroke:#000000;stroke-width:1;stroke-linecap:round;stroke-linejoin:round"
       d="m 106.37869,74.218974 c 0.46241,0.02019 0.9232,0.0643 1.38421,0.103809 0.53803,0.04611 1.07613,0.103788 1.61492,0.138419 0.19146,0.0123 0.3853,-0.0123 0.57676,0 0.20553,0.0132 0.40912,0.05596 0.6152,0.06921 0.28082,0.01805 0.56485,-0.01405 0.84593,0 0.10304,0.0052 0.20457,0.02881 0.30759,0.0346 0.23044,0.01296 0.46374,0.01765 0.6921,0.05191"
       id="path120016" />
    <path
       style="fill:#6ae4a3;fill-opacity:1;stroke:#000000;stroke-width:1;stroke-linecap:round;stroke-linejoin:round"
       d="m 91.536787,79.738322 c -0.459683,0.07023 -0.923364,0.0092 -1.384214,0.03461 -0.385475,0.02125 -0.769972,0.05982 -1.153517,0.103809 -1.228367,0.140899 -0.406454,0.120423 -1.730268,0.22493 -2.561481,0.202213 -0.402515,-0.02352 -1.76873,0.121111 -0.0513,0.0054 -0.102633,0.01072 -0.153803,0.0173 -0.03856,0.0049 -0.144237,-0.0087 -0.115342,0.0173 0.03834,0.03451 0.103136,0.0075 0.153789,0.0173 0.03942,0.0076 0.0769,0.02307 0.115356,0.0346"
       id="path120018" />
    <path
       style="fill:#6ae4a3;fill-opacity:1;stroke:#000000;stroke-width:1;stroke-linecap:round;stroke-linejoin:round"
       d="m 129.48816,74.769435 c 1.52483,0.0011 3.05051,-0.129407 4.57562,-0.08651 0.47443,0.01333 0.94847,0.05587 1.42266,0.06921 0.19176,0.0054 0.41858,0.01474 0.61521,0 0.0388,-0.0029 0.0785,-0.02973 0.11535,-0.0173 0.025,0.0084 0.0256,0.04614 0.0385,0.06921"
       id="path120020" />
    <path
       style="fill:#6ae4a3;fill-opacity:1;stroke:#000000;stroke-width:1;stroke-linecap:round;stroke-linejoin:round"
       d="m 144.43635,73.364213 c -0.21788,0.02884 -0.43922,0.03826 -0.65365,0.08651 -0.021,0.0047 0.0197,0.04135 0.0385,0.05191 0.0464,0.02609 0.17656,0.05334 0.2307,0.0346 0.13281,-0.04597 0.24396,-0.173019 0.3845,-0.173019 0.98919,0.193527 0.62657,0.181351 1.42268,0.173019 1.94813,-0.02037 3.89654,-0.0096 5.84447,-0.0346 0.28201,-0.0036 0.56392,-0.01294 0.84592,-0.0173 0.17384,-0.0027 0.70614,0.03561 0.84591,-0.06921 0.0175,-0.0131 0,-0.227036 0,-0.294137"
       id="path120022" />
    <path
       style="fill:none;fill-opacity:1;stroke:#000000;stroke-width:1;stroke-linecap:round;stroke-linejoin:round"
       d="m 152.78011,70.855418 c 0.64085,0.39795 1.25517,0.842177 1.92254,1.193845 0.29492,0.155411 0.98989,0.31745 1.38421,0.484452 0.74915,0.317276 0.0406,0.01519 0.34606,0.207627 0.0666,0.04194 0.20144,0.06357 0.23069,0.15572 0.007,0.02199 0,0.04614 0,0.06921 0,0.240639 -0.104,0.378547 -0.23069,0.57096 -0.0526,0.07988 -0.0946,0.167127 -0.15381,0.242229 -0.0823,0.10436 -0.18317,0.192802 -0.26916,0.29414 -0.47529,0.560141 -0.9909,1.172689 -1.42266,1.764805 -0.0845,0.115919 -0.15112,0.243973 -0.2307,0.363342 -0.0743,0.111387 -0.15681,0.217109 -0.23071,0.328737 -0.17934,0.270912 -0.23553,0.42047 -0.42295,0.622879 -0.0286,0.03095 -0.26493,0.19349 -0.26916,0.19032 -0.0383,-0.02873 -0.0226,-0.09323 -0.0384,-0.138411 -0.0226,-0.06457 -0.0513,-0.126886 -0.0769,-0.190328"
       id="path120024" />
    <path
       style="fill:#6ae4a3;fill-opacity:1;stroke:#000000;stroke-width:1;stroke-linecap:round;stroke-linejoin:round"
       d="m 162.97781,76.470594 c 5.47323,-0.119171 3.2974,-0.03591 7.49785,-0.224931 0.24355,-0.01095 0.48858,-0.0049 0.73055,-0.0346 0.0445,-0.0055 0.0913,-0.03135 0.11536,-0.06921 0.0115,-0.01818 -0.0256,-0.03461 -0.0385,-0.05191"
       id="path120030" />
    <path
       style="fill:#6ae4a3;fill-opacity:1;stroke:#000000;stroke-width:1;stroke-linecap:round;stroke-linejoin:round"
       d="m 172.09057,67.992592 c -0.1538,-0.06344 -0.2955,-0.177879 -0.46141,-0.19032 -0.0518,-0.0039 -0.003,0.103889 0,0.155718 0.01,0.184727 0.0233,0.369287 0.0385,0.553662 0.0105,0.127098 0.0324,0.253262 0.0384,0.380648 0.0304,0.643012 -0.0225,1.297019 -0.0384,1.937827 -0.008,0.340167 0,0.680545 0,1.020818 0,0.519062 -0.0189,1.038468 0,1.557184 0.0185,0.508643 0.0843,1.014547 0.11535,1.522579 0.05,0.817663 0.0385,0.885169 0.0385,1.678302 0,0.121113 0.006,0.242398 0,0.363342 -0.006,0.121618 -0.0298,0.241861 -0.0385,0.363339 -0.0169,0.236204 -0.0127,0.47398 -0.0385,0.709388 -0.0351,0.320765 -0.22658,0.751908 -0.30761,1.020818 -0.0341,0.113136 -0.0453,0.23219 -0.0769,0.34604 -0.0325,0.11715 -0.082,0.229106 -0.11536,0.346041 -0.0956,0.335505 -0.15253,0.680836 -0.2307,1.020823 -0.0877,0.381617 -0.19152,0.757688 -0.26916,1.141939 -0.0888,0.439661 0.0252,0.04383 -0.11534,0.570961 -0.01,0.03566 -0.0221,0.07073 -0.0385,0.103817 -0.01,0.01931 -0.0581,0.04307 -0.0384,0.0519 0.0354,0.01595 0.0766,-0.01421 0.11535,-0.0173 0.17924,-0.01424 0.35887,-0.02307 0.5383,-0.0346 0.17944,-0.0173 0.35872,-0.03627 0.53831,-0.05191 0.21775,-0.01897 0.43577,-0.0346 0.65366,-0.05191 0.55112,-0.05191 1.10217,-0.104653 1.65337,-0.15572 2.31545,-0.214511 4.63405,-0.374997 6.95954,-0.41524 0.19222,-0.0033 0.38451,0 0.57676,0 0.16662,0 0.33391,-0.01492 0.49986,0 0.55917,0.05032 1.09744,0.202351 1.65337,0.25953 0.30685,0.03156 0.61537,0.04405 0.92281,0.0692 0.18905,0.01548 0.54701,0.05968 0.73055,0.06921 0.38876,0.02019 0.57447,0.0173 0.92282,0.0173 0.28671,0 0.5314,0.0036 0.80746,-0.0346 0.71394,-0.09885 0.0363,-0.0024 0.57676,-0.103811 0.0764,-0.01434 0.15526,-0.01574 0.23071,-0.03461 0.0409,-0.01021 0.076,-0.03673 0.11534,-0.0519 0.043,-0.01656 0.25576,-0.0797 0.26916,-0.103812 0.0153,-0.02758 -0.0348,-0.05516 -0.0385,-0.08651 -0.009,-0.0802 0.007,-0.161832 0,-0.242231 -0.0535,-0.577392 -0.0385,0.280617 -0.0385,-0.380648 0,-0.282599 0.0153,-0.565613 0,-0.847797 -0.007,-0.121615 -0.0346,-0.241617 -0.0385,-0.363349 -0.009,-0.288224 0.008,-0.57685 0,-0.865098 -0.005,-0.161927 -0.0322,-0.322582 -0.0384,-0.48446 -0.0208,-0.541731 0,-1.084257 0,-1.626386 0,-0.957381 0,-1.914763 0,-2.872144 0,-0.484455 0.0138,-0.969108 0,-1.453367 -0.004,-0.138951 -0.0254,-0.276857 -0.0385,-0.41525 -0.0415,-0.438759 -0.0769,-0.710412 -0.0769,-1.193845 0,-0.133266 0.0323,-0.264824 0.0385,-0.397947 0.007,-0.144031 -0.004,-0.288427 0,-0.432551 0.009,-0.300051 0.0296,-0.599662 0.0385,-0.899708 0.004,-0.132588 -0.007,-0.265454 0,-0.397941 0.006,-0.127373 0.0289,-0.253479 0.0385,-0.380648 0.0161,-0.213172 0.0206,-0.427149 0.0384,-0.640178 8e-5,-0.0011 0.0768,-0.55272 0.0769,-0.553659 0.0161,-0.155419 0.0216,-0.311822 0.0385,-0.467159 0.009,-0.08128 0.0315,-0.160772 0.0385,-0.242229 0.006,-0.06896 0,-0.138414 0,-0.207621 0.0128,-0.09228 0.0281,-0.184243 0.0384,-0.276836 0.003,-0.02294 -0.006,-0.04698 0,-0.06921 0.007,-0.02543 0.0596,-0.05337 0.0385,-0.06921 -0.0413,-0.03095 -0.10227,-0.01487 -0.1538,-0.0173 -0.93059,-0.04409 -0.22836,-7.94e-4 -0.99971,-0.0173 -1.36924,-0.02934 1.60873,-0.072 -2.03788,-0.0173 -0.21816,0.0033 -0.43575,0.0235 -0.65366,0.03461 -4.12493,0.210124 0.39605,-0.03157 -2.11478,0.12111 -1.12709,0.06854 -2.25526,0.144161 -3.38364,0.19032 -1.03849,0.04248 -2.07653,0.06416 -3.1145,0.121118 -0.91112,0.05 -1.82083,0.130916 -2.72998,0.207621 -0.55972,0.04722 -1.13296,0.07136 -1.69182,0.13842 -0.47398,0.05687 -0.85919,0.123611 -1.30732,0.242229 -0.14034,0.03714 -0.28132,0.07194 -0.42295,0.103809 -0.0642,0.01445 -0.22413,0.02 -0.26916,0.06921 -0.0604,0.06598 -0.0769,0.161485 -0.11536,0.242228"
       id="path120036" />
    <path
       style="fill:#6ae4a3;fill-opacity:1;stroke:#000000;stroke-width:1;stroke-linecap:round;stroke-linejoin:round"
       d="m 181.28025,71.626023 c -0.12912,-0.473327 -0.48173,0.09467 -0.69211,0 -0.0158,-0.0071 0,-0.03461 0,-0.05191 -0.0384,-0.0173 -0.075,-0.03979 -0.11536,-0.05191 -0.1534,-0.04602 -0.60479,-0.0652 -0.769,0 -0.42123,0.167246 -0.81713,0.423955 -1.15352,0.726686 -0.39368,0.354304 -0.81546,0.712656 -1.11507,1.159238 -0.30484,0.454387 -0.44032,0.904862 -0.61521,1.436068 -0.0484,0.14704 -0.0957,0.296312 -0.11534,0.449858 -0.0578,0.450943 0.0896,0.951299 0.19225,1.366859 0.0406,0.164488 0.085,0.329631 0.1538,0.484457 0.18067,0.406485 0.68882,1.059257 0.92281,1.314958 0.12055,0.131733 0.27777,0.224795 0.42296,0.328737 0.13701,0.09808 0.26712,0.212722 0.42295,0.276831 0.77623,0.319354 1.63971,0.446622 2.46084,0.22493 0.17078,-0.04611 0.39319,-0.252661 0.49985,-0.380648 0.38664,-0.46395 0.55281,-0.708713 0.73056,-1.245748 0.26155,-0.790255 0.087,-0.218697 0.19225,-0.692079 0.0104,-0.04675 0.0447,-0.09094 0.0385,-0.138419 -0.008,-0.0574 -0.0289,-0.123331 -0.0769,-0.155718 -0.0677,-0.04571 -0.33648,-0.06142 -0.42295,-0.0692"
       id="path120046" />
    <path
       style="fill:#6ae4a3;fill-opacity:1;stroke:#000000;stroke-width:1;stroke-linecap:round;stroke-linejoin:round"
       d="m 179.93448,76.695521 c 4.5503,-0.01752 3.00853,0.150315 4.65251,-0.03461"
       id="path120048" />
    <path
       style="fill:#6ae4a3;fill-opacity:1;stroke:#000000;stroke-width:1;stroke-linecap:round;stroke-linejoin:round"
       d="m 188.12444,75.051826 c 0.28847,1.99e-4 0.43197,0.249328 0.65366,0.363339 0.0357,0.01836 0.0778,0.02051 0.11534,0.03461 0.45778,0.171667 -0.15005,-0.05022 0.19225,0.103812 0.12292,0.05531 0.48544,0.153556 0.61521,0.173019 0.17269,0.0259 0.40165,0 0.57677,0 0.37355,0 0.74233,0.0013 1.11505,-0.0173 0.35885,-0.01794 0.71861,-0.0217 1.07663,-0.05191 0.72621,-0.06127 -0.35919,-0.01844 0.769,-0.06921 0.35835,-0.01611 0.71837,-0.0011 1.07662,-0.0173 0.82465,-0.0371 -0.67568,0.0028 0.65365,-0.0346 0.10278,-0.0029 0.49062,0.0083 0.57676,-0.06921 0.0274,-0.02469 0.0256,-0.06921 0.0385,-0.103809"
       id="path120050" />
    <path
       style="fill:#6ae4a3;fill-opacity:1;stroke:#000000;stroke-width:1;stroke-linecap:round;stroke-linejoin:round"
       d="m 196.23749,75.207544 c 0.77881,-0.554879 1.49439,-1.18087 2.19168,-1.834015 2.2312,-2.08997 0.0925,-0.08522 1.42267,-1.453374 0.10818,-0.111268 0.23071,-0.207627 0.34606,-0.311439 0.0406,-0.03656 0.22194,-0.228859 0.30759,-0.190323 0.0337,0.01514 0.009,0.08225 0.0385,0.103812 0.0427,0.0307 0.10769,0.0094 0.1538,0.03461 0.0535,0.02925 0.51606,0.343328 0.6152,0.432549 0.0829,0.07459 0.1557,0.159723 0.23071,0.242231 0.15573,0.171289 0.31822,0.337151 0.4614,0.51906 0.0755,0.09587 0.12687,0.208444 0.19226,0.311438 0.0628,0.09888 0.13276,0.193238 0.19225,0.294137 0.10723,0.181867 0.19634,0.37424 0.30761,0.553662 0.043,0.06932 0.11288,0.119756 0.15379,0.19032 0.037,0.06385 0.0469,0.140184 0.0769,0.207627 0.0705,0.158702 0.14215,0.317751 0.2307,0.467158 0.0565,0.09528 0.20355,0.174006 0.23071,0.25953 0.0413,0.130138 -0.0542,0.374415 -0.11536,0.484458 -0.10331,0.185962 -0.29966,0.392758 -0.42296,0.53636 -0.11452,0.133371 -0.22482,0.270656 -0.34605,0.397949 -0.17191,0.180499 -0.36117,0.343694 -0.53831,0.51906 -0.35219,0.348657 -0.042,0.02835 -0.46141,0.51906 -0.11565,0.13531 -0.11348,0.09158 -0.19225,0.242228 -0.0292,0.05593 -0.0431,0.11974 -0.0769,0.173019 -0.0185,0.02912 -0.0531,0.04424 -0.0769,0.06921 -0.0785,0.08244 -0.15732,0.171469 -0.2307,0.25953 -0.0243,0.02916 -0.10519,0.149312 -0.11535,0.15572 -0.0329,0.02072 -0.0788,0.0041 -0.11535,0.0173 -0.1107,0.03985 -0.19022,0.162301 -0.26916,0.242229 -0.11601,0.117472 -0.25184,0.22557 -0.34605,0.363347 -0.0648,0.09469 -0.13388,0.346244 -0.30761,0.294129 -0.15135,-0.0454 -0.0854,-0.107863 -0.19225,-0.19032 -0.64917,-0.500774 0.28694,0.328475 -0.3845,-0.242229 -0.0556,-0.04725 -0.10128,-0.105079 -0.1538,-0.155718 -0.12694,-0.122401 -0.26106,-0.237423 -0.38452,-0.363341 -0.2815,-0.287115 -0.48238,-0.638932 -0.73055,-0.951617 -0.0693,-0.08734 -0.15825,-0.157469 -0.2307,-0.242228 -0.056,-0.06547 -0.0941,-0.145582 -0.1538,-0.207621 -0.17904,-0.18592 -0.43087,-0.403294 -0.65366,-0.553667 -0.4876,-0.329118 -0.1302,-0.07234 -0.49986,-0.294132 -0.053,-0.03182 -0.0995,-0.07416 -0.1538,-0.103818 -0.1255,-0.06857 -0.2594,-0.121036 -0.3845,-0.19032 -0.0421,-0.02328 -0.0741,-0.06178 -0.11536,-0.08651 -3e-5,-1.8e-5 -0.23065,-0.103788 -0.23069,-0.103809 -0.15199,-0.08207 -0.29183,-0.156755 -0.46141,-0.207629 -0.15998,-0.04799 -0.33301,-0.02709 -0.49986,-0.0346"
       id="path120052" />
    <path
       style="fill:#6ae4a3;fill-opacity:1;stroke:#000000;stroke-width:1;stroke-linecap:round;stroke-linejoin:round"
       d="m 196.81424,63.234532 c -0.0769,0.317203 -0.18614,0.628274 -0.2307,0.951608 -0.0584,0.423551 -0.0459,0.853925 -0.0769,1.280356 -0.0331,0.456039 -0.0751,0.911392 -0.11536,1.366859 -0.0367,0.415409 -0.0738,0.830794 -0.11535,1.245745 -0.0225,0.225259 -0.0643,0.448747 -0.0769,0.674781 -0.0117,0.210994 -0.0383,1.016576 0.15381,1.124635 0.1628,0.09158 0.59928,0.0091 0.6921,0 0.32076,-0.03138 0.64087,-0.06902 0.96127,-0.103817 0.86976,-0.09447 1.73913,-0.162074 2.61462,-0.173019 1.24047,-0.01551 2.49477,-0.01225 3.7297,0.121118 0.0452,0.0049 0.70153,0.09534 0.73057,0.06921 0.0277,-0.02495 0.21278,-0.470684 0.2307,-0.519068 0.12925,-0.348956 0.1538,-0.704252 0.1538,-1.072727 0,-0.460404 0.0233,-0.939802 0,-1.40146 -0.007,-0.133096 -0.0342,-0.26475 -0.0385,-0.39795 -0.009,-0.26516 0.009,-0.530738 0,-0.795895 -0.004,-0.127458 -0.0319,-0.253286 -0.0384,-0.380641 -0.006,-0.120954 0,-0.242231 0,-0.363347 -0.0128,-0.242228 -0.0214,-0.484716 -0.0385,-0.72668 -0.03,-0.425822 -0.10178,-0.828478 -0.19225,-1.245748 -0.025,-0.11548 -0.0387,-0.23424 -0.0769,-0.346047 -0.0318,-0.09309 -0.10538,-0.0519 -0.19225,-0.0519 -0.39632,0 -0.79634,0.0072 -1.19198,0.0346 -0.56447,0.03908 -1.12997,0.07149 -1.69182,0.138419 -0.23165,0.02759 -0.46112,0.07114 -0.69211,0.103811 -0.66544,0.09411 -1.33263,0.175516 -1.99942,0.259529 -1.32861,0.159431 0.12311,-0.01831 -1.07661,0.138419 -0.23054,0.03012 -0.4612,0.0594 -0.69211,0.08651 -0.0639,0.0075 -0.12793,0.01883 -0.19225,0.0173 -0.17976,-0.0043 -0.35888,-0.02307 -0.53832,-0.0346 z"
       id="path120054" />
    <path
       style="fill:#6ae4a3;fill-opacity:1;stroke:#000000;stroke-width:1;stroke-linecap:round;stroke-linejoin:round"
       d="m 199.35199,65.085848 c 0,0.21916 -0.0123,0.438666 0,0.657479 0.003,0.04847 -0.0253,0.799917 0.23069,0.934307 0.0909,0.04774 0.20634,0.03439 0.30761,0.0173 0.49698,-0.08386 0.36769,-0.380852 0.99971,-0.173019 0.30103,0.09899 0.84004,0.395536 1.11506,0.553667 0.0536,0.03083 0.0958,0.08244 0.1538,0.103809 0.10832,0.03988 0.42222,0.0804 0.53832,0.05191 0.1897,-0.04656 0.43471,-0.500341 0.4614,-0.536369 0.0714,-0.0964 0.35158,-0.438034 0.42296,-0.553662 0.072,-0.116596 0.13158,-0.240485 0.19225,-0.363347 0.0919,-0.186028 -0.0103,-0.03796 0.0769,-0.155718"
       id="path120056" />
    <path
       style="fill:none;fill-opacity:1;stroke:#000000;stroke-width:1;stroke-linecap:round;stroke-linejoin:round"
       d="m 205.35025,66.712244 c 1.97585,-0.125031 2.0393,-0.294232 3.57591,0 0.235,0.045 0.46085,0.12895 0.69211,0.190321 0.96027,0.254828 1.52572,0.315505 2.19168,1.124627 0.0335,0.04075 0.0503,0.09286 0.0769,0.138419 0.14104,0.241176 0.25471,0.455428 0.34605,0.726689 0.0837,0.24842 0.0822,0.542486 0.11536,0.795888 0.008,0.06418 0.0316,0.125963 0.0384,0.190328 0.0323,0.305046 -0.0677,0.580916 -0.15381,0.8651 0,1.1e-5 -0.0769,0.276815 -0.0769,0.276831 -0.0185,0.03888 -0.0546,0.06699 -0.0769,0.103817 -0.0547,0.09027 -0.0964,0.188248 -0.1538,0.276831 -0.0327,0.0504 -0.0838,0.08731 -0.11534,0.138417 -0.0332,0.05371 -0.0513,0.115347 -0.0769,0.173021 -0.0769,0.121113 -0.14731,0.2466 -0.2307,0.363339 -0.0673,0.09419 -0.15991,0.167953 -0.2307,0.25953 -0.0641,0.08651 -0.12818,0.173019 -0.19226,0.25953 -0.0256,0.04037 -0.0484,0.08269 -0.0769,0.121118 -0.18073,0.243983 -0.39022,0.472289 -0.61521,0.67478 -0.0385,0.0346 -0.0718,0.07584 -0.11534,0.10381 -0.0473,0.0304 -0.10677,0.03842 -0.15381,0.06921 -0.0948,0.06205 -0.17524,0.14423 -0.26915,0.207622 -0.0604,0.04075 -0.1298,0.06635 -0.19226,0.103817 -0.053,0.03182 -0.0995,0.07415 -0.1538,0.103809 -0.17706,0.09675 -0.35828,0.1857 -0.5383,0.276831 -0.0502,0.0254 -0.1056,0.04028 -0.15381,0.06921 -0.0677,0.04063 -0.12509,0.09687 -0.19225,0.138419 -0.0359,0.0222 -0.0792,0.03021 -0.11535,0.0519 -0.0412,0.02474 -0.0724,0.06502 -0.11536,0.08651 -0.0735,0.03673 -0.15444,0.05601 -0.2307,0.08652 -0.0391,0.01566 -0.0752,0.039 -0.11535,0.0519 -0.05,0.01609 -0.10291,0.02151 -0.1538,0.03461 -0.28199,0.07251 -0.56476,0.149014 -0.84591,0.224923 -0.0775,0.02093 -0.15205,0.05312 -0.2307,0.06921 -0.063,0.01288 -0.12837,0.0096 -0.19225,0.0173 -0.25373,0.03045 -0.51557,0.05087 -0.76902,0.08651 -0.14147,0.0199 -0.28132,0.05047 -0.42295,0.06921 -0.30424,0.04026 -0.61721,0.06259 -0.92282,0.08651 -0.41072,0.03214 -0.81923,0.05498 -1.23041,0.06921 -0.27237,0.0094 -0.53554,0.04789 -0.80746,0.0173"
       id="path120058" />
    <path
       style="fill:#6ae4a3;fill-opacity:1;stroke:#000000;stroke-width:1;stroke-linecap:round;stroke-linejoin:round"
       d="m 212.3098,70.259159 c -0.63962,0.132839 -1.48521,0.116519 -1.99942,0.640175 -0.11095,0.112982 -0.2731,0.262681 -0.23072,0.41525 0.0451,0.162354 0.26181,0.227624 0.42296,0.276831 0.51489,0.157215 0.7913,0.02977 1.26888,-0.138411 0.0928,-0.03268 0.18654,-0.06769 0.26914,-0.121119 0.12404,-0.08023 0.23049,-0.184824 0.34606,-0.276831 0.0511,-0.04064 0.11202,-0.07099 0.1538,-0.121118 0.0471,-0.05654 0.19115,-0.445392 0.19225,-0.44985 0.0138,-0.05599 -0.006,-0.115668 0,-0.173019 0.0346,-0.327321 0.0895,-0.06415 -0.0384,-0.467159 -0.01,-0.03008 -0.0128,-0.06807 -0.0384,-0.08651 -0.0439,-0.03161 -0.10083,-0.0409 -0.15381,-0.0519 -0.29564,-0.0614 -0.32368,-0.08709 -0.57676,0.0173 -0.30198,0.124557 -0.49442,0.323029 -0.73056,0.570968 -0.31919,0.335145 -0.67251,1.301752 0,1.487977 0.22262,0.06164 0.46115,0.03831 0.69211,0.0346 0.39392,-0.0063 0.82089,-0.180326 1.15352,-0.34604 0.11681,-0.05819 0.20767,-0.158287 0.3076,-0.242229 0.0924,-0.07763 0.19155,-0.149786 0.26916,-0.242229 0.14145,-0.168478 0.26377,-0.352475 0.3845,-0.53636 0.14609,-0.222491 0.21973,-0.426368 0.0384,-0.657477 -0.0409,-0.05218 -0.28049,-0.08529 -0.30761,-0.08651 -0.082,-0.0037 -0.76292,-0.03544 -0.9228,0.0692 -0.52033,0.340561 -0.85583,1.005255 -1.03816,1.557187 -0.0249,0.07518 0.0627,0.148455 0.11534,0.207626 0.22156,0.249254 0.64458,0.229709 0.92282,0.242232 0.1419,0.0064 0.28325,-0.02619 0.42295,-0.05191 0.45599,-0.08394 0.6996,-0.183708 1.11507,-0.484457 0.20719,-0.14999 0.47611,-0.789821 0.49985,-1.003517 0.0123,-0.110495 -0.14915,-0.329676 -0.23071,-0.380648 -0.527,-0.329372 -1.32844,-0.544158 -1.92252,-0.276831 -0.092,0.0414 -0.21921,0.05076 -0.26915,0.13842 -0.0905,0.158887 -0.0769,0.357573 -0.11535,0.53636 z"
       id="path120060" />
    <path
       style="fill:#6ae4a3;fill-opacity:1;stroke:#000000;stroke-width:1;stroke-linecap:round;stroke-linejoin:round"
       d="m 213.73246,70.484086 c 1.99879,0.08202 3.99877,0.08463 5.99829,0.05191 0.66638,-0.0109 1.33298,-0.03461 1.99942,-0.03461"
       id="path120062" />
  </g>
</svg>
