<?xml version="1.0" encoding="UTF-8" standalone="no"?>
<!-- Created with Inkscape (http://www.inkscape.org/) -->

<svg
   width="153.62018mm"
   height="35.127312mm"
   viewBox="0 0 153.62018 35.127314"
   version="1.1"
   id="svg5"
   sodipodi:docname="streaming.svg"
   inkscape:version="1.2.2 (b0a8486541, 2022-12-01)"
   xmlns:inkscape="http://www.inkscape.org/namespaces/inkscape"
   xmlns:sodipodi="http://sodipodi.sourceforge.net/DTD/sodipodi-0.dtd"
   xmlns="http://www.w3.org/2000/svg"
   xmlns:svg="http://www.w3.org/2000/svg">
  <sodipodi:namedview
     id="namedview7"
     pagecolor="#ffffff"
     bordercolor="#666666"
     borderopacity="1.0"
     inkscape:showpageshadow="2"
     inkscape:pageopacity="0.0"
     inkscape:pagecheckerboard="0"
     inkscape:deskcolor="#d1d1d1"
     inkscape:document-units="mm"
     showgrid="false"
     inkscape:zoom="2.3177057"
     inkscape:cx="202.78675"
     inkscape:cy="114.33721"
     inkscape:window-width="2560"
     inkscape:window-height="1372"
     inkscape:window-x="0"
     inkscape:window-y="32"
     inkscape:window-maximized="1"
     inkscape:current-layer="layer1"
     showguides="true" />
  <defs
     id="defs2" />
  <g
     inkscape:label="Layer 1"
     inkscape:groupmode="layer"
     id="layer1"
     transform="translate(-127.43172,-30.52846)">
    <path
       style="fill:#6ae4a3;fill-opacity:1;stroke:#000000;stroke-width:1;stroke-linecap:round;stroke-linejoin:round;stroke-opacity:1"
       d="m 137.01617,41.825355 c 0,0.259529 -0.0243,0.520196 0,0.778589 0.12678,1.350138 0.12885,-0.529079 0.19226,0.968917 0.0282,0.666758 0.005,1.385499 -0.0385,2.058938 -0.0348,0.536612 -0.064,1.07381 -0.11535,1.609094 -0.0193,0.201677 -0.20236,1.342962 -0.2307,1.557179 -0.0784,0.592325 -0.14553,1.186459 -0.19225,1.782114 -0.0234,0.298126 0,0.61714 0,0.917008 0,0.02307 -0.0221,0.06258 0,0.06921 0.0384,0.01153 0.0753,-0.03123 0.11535,-0.03461 0.16613,-0.01402 0.33325,-0.0113 0.49986,-0.0173 0.78684,-0.02832 1.55785,-0.06622 2.34548,-0.138418 0.24419,-0.02238 0.48687,-0.0591 0.73056,-0.08651 0.87154,-0.09804 1.74294,-0.197414 2.61463,-0.29413 0.66597,-0.07389 1.33323,-0.135849 1.99943,-0.207629 0.98606,-0.106241 1.96923,-0.233659 2.96069,-0.27683 0.43626,-0.019 0.51844,-0.0173 0.84591,-0.0173 0.028,0 0.17865,0.02151 0.19225,-0.05191 0.01,-0.05257 -0.0328,-0.102551 -0.0385,-0.155719 -0.007,-0.06882 0.005,-0.13858 0,-0.207621 -0.008,-0.115778 -0.0279,-0.230464 -0.0384,-0.34604 -0.0279,-0.305471 -0.0526,-0.611227 -0.0769,-0.917008 -0.0142,-0.178686 -0.0193,-0.358146 -0.0385,-0.536367 -0.0355,-0.330117 -0.26296,-1.677322 -0.26916,-1.712898 -0.0998,-0.57259 -0.1346,-0.615468 -0.2307,-1.193845 -0.13311,-0.801126 -0.22456,-1.603126 -0.34605,-2.404985 -0.0772,-0.509681 -0.11229,-0.902997 -0.26916,-1.366858 -0.0438,-0.129637 -0.11052,-0.250822 -0.1538,-0.380648 -0.14987,-0.449589 -0.27848,-0.929089 -0.42295,-1.384159 -0.007,-0.02221 -0.0782,-0.184749 -0.11536,-0.190327 -0.0636,-0.0095 -0.128,0.01391 -0.19225,0.01731 -1.05857,0.05605 0.11092,-0.02599 -0.88436,0.0519 -1.40351,0.109838 1.08712,-0.09759 -1.61492,0.15572 -0.23034,0.02159 -0.46213,0.02674 -0.69211,0.05191 -0.24451,0.02676 -0.48619,0.07585 -0.73056,0.10381 -0.51196,0.05857 -1.02607,0.09715 -1.53802,0.155719 -0.24437,0.02796 -0.48649,0.0733 -0.73056,0.103811 -0.57641,0.07205 -1.1532,0.141046 -1.73027,0.207628 -0.59513,0.06867 -0.23309,-0.0077 -0.73056,0.08651 -0.19302,0.03657 -0.38208,0.09483 -0.57676,0.121111 -0.3885,0.05244 -0.13842,-0.05294 -0.65366,0.155719 -0.28723,0.116327 -0.43194,0.228844 -0.69211,0.397949"
       id="path103419" />
    <path
       style="fill:#6ae4a3;fill-opacity:1;stroke:#000000;stroke-width:1;stroke-linecap:round;stroke-linejoin:round;stroke-opacity:1"
       d="m 139.93841,44.230332 c 0.17944,0.322972 0.33617,0.659649 0.53831,0.968917 0.11968,0.183103 0.28338,0.333326 0.42296,0.501759 0.1424,0.171852 0.28458,0.343941 0.42295,0.519059 0.43572,0.551439 -0.049,-0.02497 0.3845,0.501759 0.17321,0.210435 0.35274,0.40377 0.53831,0.605577 0.15389,0.167347 0.32681,0.302768 0.49986,0.44985 0.0394,0.0335 0.0725,0.07487 0.11535,0.103811 0.0349,0.02359 0.0782,0.03187 0.11535,0.05191 1e-5,5e-6 0.15379,0.103811 0.1538,0.103811 0.0309,0 0.0643,-0.02364 0.0769,-0.0519 0.0244,-0.0548 -0.009,-0.438228 0,-0.501759 0.0546,-0.380945 0.25651,-0.71589 0.42296,-1.055427 0.0719,-0.146727 0.14541,-0.293167 0.2307,-0.432549 0.15846,-0.258939 0.33339,-0.507429 0.49986,-0.761289 0.0642,-0.09795 0.11826,-0.203335 0.19225,-0.294138 0.0678,-0.08326 0.16348,-0.141163 0.23071,-0.224929 0.10022,-0.124896 0.17382,-0.269267 0.26915,-0.397948 0.0332,-0.0448 0.0864,-0.07343 0.11535,-0.121111 0.0119,-0.01973 -0.007,-0.04722 0,-0.06921 0.006,-0.02052 0.0563,-0.06395 0.0384,-0.0519 -0.0429,0.02894 -0.0769,0.06921 -0.11535,0.10381"
       id="path103421" />
    <path
       style="fill:#6ae4a3;fill-opacity:1;stroke:#000000;stroke-width:1;stroke-linecap:round;stroke-linejoin:round;stroke-opacity:1"
       d="m 213.37873,34.807705 c 0,0.259529 -0.0243,0.520196 0,0.778589 0.12678,1.350138 0.12885,-0.529079 0.19226,0.968917 0.0282,0.666758 0.005,1.385499 -0.0385,2.058938 -0.0348,0.536612 -0.064,1.07381 -0.11535,1.609094 -0.0193,0.201677 -0.20236,1.342962 -0.2307,1.557179 -0.0784,0.592325 -0.14553,1.186459 -0.19225,1.782114 -0.0234,0.298126 0,0.61714 0,0.917008 0,0.02307 -0.0221,0.06258 0,0.06921 0.0384,0.01153 0.0753,-0.03123 0.11535,-0.03461 0.16613,-0.01402 0.33325,-0.0113 0.49986,-0.0173 0.78684,-0.02832 1.55785,-0.06622 2.34548,-0.138418 0.24419,-0.02238 0.48687,-0.0591 0.73056,-0.08651 0.87154,-0.09804 1.74294,-0.197414 2.61463,-0.29413 0.66597,-0.07389 1.33323,-0.135849 1.99943,-0.207629 0.98606,-0.106241 1.96923,-0.233659 2.96069,-0.27683 0.43626,-0.019 0.51844,-0.0173 0.84591,-0.0173 0.028,0 0.17865,0.02151 0.19225,-0.05191 0.01,-0.05257 -0.0328,-0.102551 -0.0385,-0.155719 -0.007,-0.06882 0.005,-0.13858 0,-0.207621 -0.008,-0.115778 -0.0279,-0.230464 -0.0384,-0.34604 -0.0279,-0.305471 -0.0526,-0.611227 -0.0769,-0.917008 -0.0142,-0.178686 -0.0193,-0.358146 -0.0385,-0.536367 -0.0355,-0.330117 -0.26296,-1.677322 -0.26916,-1.712898 -0.0998,-0.57259 -0.1346,-0.615468 -0.2307,-1.193845 -0.13311,-0.801126 -0.22456,-1.603126 -0.34605,-2.404985 -0.0772,-0.509681 -0.11229,-0.902997 -0.26916,-1.366858 -0.0438,-0.129637 -0.11052,-0.250822 -0.1538,-0.380648 -0.14987,-0.449589 -0.27848,-0.929089 -0.42295,-1.384159 -0.007,-0.02221 -0.0782,-0.184749 -0.11536,-0.190327 -0.0636,-0.0095 -0.128,0.01391 -0.19225,0.01731 -1.05857,0.05605 0.11092,-0.02599 -0.88436,0.0519 -1.40351,0.109838 1.08712,-0.09759 -1.61492,0.15572 -0.23034,0.02159 -0.46213,0.02674 -0.69211,0.05191 -0.24451,0.02676 -0.48619,0.07585 -0.73056,0.10381 -0.51196,0.05857 -1.02607,0.09715 -1.53802,0.155719 -0.24437,0.02796 -0.48649,0.0733 -0.73056,0.103811 -0.57641,0.07205 -1.1532,0.141046 -1.73027,0.207628 -0.59513,0.06867 -0.23309,-0.0077 -0.73056,0.08651 -0.19302,0.03657 -0.38208,0.09483 -0.57676,0.121111 -0.3885,0.05244 -0.13842,-0.05294 -0.65366,0.155719 -0.28723,0.116327 -0.43194,0.228844 -0.69211,0.397949"
       id="path103419-7" />
    <path
       style="fill:#6ae4a3;fill-opacity:1;stroke:#000000;stroke-width:1;stroke-linecap:round;stroke-linejoin:round;stroke-opacity:1"
       d="m 216.30097,37.212682 c 0.17944,0.322972 0.33617,0.659649 0.53831,0.968917 0.11968,0.183103 0.28338,0.333326 0.42296,0.501759 0.1424,0.171852 0.28458,0.343941 0.42295,0.519059 0.43572,0.551439 -0.049,-0.02497 0.3845,0.501759 0.17321,0.210435 0.35274,0.40377 0.53831,0.605577 0.15389,0.167347 0.32681,0.302768 0.49986,0.44985 0.0394,0.0335 0.0725,0.07487 0.11535,0.103811 0.0349,0.02359 0.0782,0.03187 0.11535,0.05191 1e-5,5e-6 0.15379,0.103811 0.1538,0.103811 0.0309,0 0.0643,-0.02364 0.0769,-0.0519 0.0244,-0.0548 -0.009,-0.438228 0,-0.501759 0.0546,-0.380945 0.25651,-0.71589 0.42296,-1.055427 0.0719,-0.146727 0.14541,-0.293167 0.2307,-0.432549 0.15846,-0.258939 0.33339,-0.507429 0.49986,-0.761289 0.0642,-0.09795 0.11826,-0.203335 0.19225,-0.294138 0.0678,-0.08326 0.16348,-0.141163 0.23071,-0.224929 0.10022,-0.124896 0.17382,-0.269267 0.26915,-0.397948 0.0332,-0.0448 0.0864,-0.07343 0.11535,-0.121111 0.0119,-0.01973 -0.007,-0.04722 0,-0.06921 0.006,-0.02052 0.0563,-0.06395 0.0384,-0.0519 -0.0429,0.02894 -0.0769,0.06921 -0.11535,0.10381"
       id="path103421-1" />
    <path
       style="fill:#6ae4a3;fill-opacity:1;stroke:#000000;stroke-width:1;stroke-linecap:round;stroke-linejoin:round;stroke-opacity:1"
       d="m 140.09221,58.642938 c 0.0128,-0.236463 -0.0523,-0.490651 0.0385,-0.709387 0.0986,-0.237678 0.33575,-0.390065 0.49985,-0.588269 0.33272,-0.401879 0.13425,-0.215591 0.53831,-0.622869 0.32684,-0.329444 0.67816,-0.634312 0.99971,-0.968918 0.0951,-0.09893 0.17944,-0.207626 0.26915,-0.311438 0.16662,-0.17302 0.33156,-0.347671 0.49986,-0.51906 0.1505,-0.153264 0.32316,-0.285446 0.4614,-0.44985 0.11087,-0.131842 0.20705,-0.275389 0.30761,-0.415249 0.21478,-0.298723 0.20496,-0.272157 0.53831,-0.467158 0.0387,-0.02264 0.0712,-0.07715 0.11535,-0.06921 0.17585,0.03165 0.63541,0.37174 0.76901,0.484458 0.37799,0.318917 0.64482,0.540669 0.96126,0.882407 0.26805,0.28948 0.51447,0.598275 0.76901,0.8997 0.0775,0.09178 0.1509,0.187059 0.2307,0.276838 0.0741,0.08334 0.16534,0.151892 0.23071,0.242228 0.26318,0.363742 0.3436,0.633593 0.53831,1.00352 0.14787,0.280937 0.43402,0.677683 0.49985,1.003517 0.006,0.02826 -0.005,0.05809 0,0.08651 0.007,0.04227 0.11771,0.303188 0.0769,0.346038 -0.0456,0.04788 -0.57917,0.260622 -0.65366,0.29414 -0.17943,0.08074 -0.35351,0.174654 -0.53831,0.24222 -0.1131,0.04136 -0.2307,0.06921 -0.34605,0.103818 -0.24352,0.08651 -0.48905,0.167573 -0.73056,0.259529 -0.43836,0.166905 -0.84282,0.413856 -1.26887,0.605571 -0.137,0.06165 -0.2837,0.09932 -0.42295,0.155718 -0.29746,0.12047 -0.59169,0.248954 -0.88436,0.380648 -0.0409,0.01841 -0.0745,0.0508 -0.11535,0.0692 -0.10983,0.04942 -0.234,0.0597 -0.34606,0.103817 -0.0856,0.03372 -0.35604,0.244997 -0.42295,0.22492 -0.0495,-0.01487 -0.0721,-0.07548 -0.11535,-0.103809 -0.17346,-0.113528 -0.35965,-0.206306 -0.53831,-0.311439 -0.0893,-0.05256 -0.18324,-0.09773 -0.26916,-0.155712 -1.91698,-1.293903 0.20788,0.118046 -0.84591,-0.622877 -0.11254,-0.07913 -0.23825,-0.139457 -0.34605,-0.22493 -0.16214,-0.128548 -0.29527,-0.291902 -0.4614,-0.415248 -0.0923,-0.06851 -0.21567,-0.08677 -0.30761,-0.15572 -0.0652,-0.04894 -0.0954,-0.13338 -0.1538,-0.190321 -0.0961,-0.09365 -0.21275,-0.164668 -0.30761,-0.259529 -0.0223,-0.0223 -0.0183,-0.06227 -0.0384,-0.08651 -0.0329,-0.03946 -0.1476,-0.08834 -0.19225,-0.08651 -0.10389,0.0043 -0.20507,0.0346 -0.3076,0.05191"
       id="path103427" />
    <path
       style="fill:#6ae4a3;fill-opacity:1;stroke:#000000;stroke-width:1;stroke-linecap:round;stroke-linejoin:round;stroke-opacity:1"
       d="m 252.23784,57.798805 c 0.0128,-0.236463 -0.0523,-0.490651 0.0385,-0.709387 0.0986,-0.237678 0.33575,-0.390065 0.49985,-0.588269 0.33272,-0.401879 0.13425,-0.215591 0.53831,-0.622869 0.32684,-0.329444 0.67816,-0.634312 0.99971,-0.968918 0.0951,-0.09893 0.17944,-0.207626 0.26915,-0.311438 0.16662,-0.17302 0.33156,-0.347671 0.49986,-0.51906 0.1505,-0.153264 0.32316,-0.285446 0.4614,-0.44985 0.11087,-0.131842 0.20705,-0.275389 0.30761,-0.415249 0.21478,-0.298723 0.20496,-0.272157 0.53831,-0.467158 0.0387,-0.02264 0.0712,-0.07715 0.11535,-0.06921 0.17585,0.03165 0.63541,0.37174 0.76901,0.484458 0.37799,0.318917 0.64482,0.540669 0.96126,0.882407 0.26805,0.28948 0.51447,0.598275 0.76901,0.8997 0.0775,0.09178 0.1509,0.187059 0.2307,0.276838 0.0741,0.08334 0.16534,0.151892 0.23071,0.242228 0.26318,0.363742 0.3436,0.633593 0.53831,1.00352 0.14787,0.280937 0.43402,0.677683 0.49985,1.003517 0.006,0.02826 -0.005,0.05809 0,0.08651 0.007,0.04227 0.11771,0.303188 0.0769,0.346038 -0.0456,0.04788 -0.57917,0.260622 -0.65366,0.29414 -0.17943,0.08074 -0.35351,0.174654 -0.53831,0.24222 -0.1131,0.04136 -0.2307,0.06921 -0.34605,0.103818 -0.24352,0.08651 -0.48905,0.167573 -0.73056,0.259529 -0.43836,0.166905 -0.84282,0.413856 -1.26887,0.605571 -0.137,0.06165 -0.2837,0.09932 -0.42295,0.155718 -0.29746,0.12047 -0.59169,0.248954 -0.88436,0.380648 -0.0409,0.01841 -0.0745,0.0508 -0.11535,0.0692 -0.10983,0.04942 -0.234,0.0597 -0.34606,0.103817 -0.0856,0.03372 -0.35604,0.244997 -0.42295,0.22492 -0.0495,-0.01487 -0.0721,-0.07548 -0.11535,-0.103809 -0.17346,-0.113528 -0.35965,-0.206306 -0.53831,-0.311439 -0.0893,-0.05256 -0.18324,-0.09773 -0.26916,-0.155712 -1.91698,-1.293903 0.20788,0.118046 -0.84591,-0.622877 -0.11254,-0.07913 -0.23825,-0.139457 -0.34605,-0.22493 -0.16214,-0.128548 -0.29527,-0.291902 -0.4614,-0.415248 -0.0923,-0.06851 -0.21567,-0.08677 -0.30761,-0.15572 -0.0652,-0.04894 -0.0954,-0.13338 -0.1538,-0.190321 -0.0961,-0.09365 -0.21275,-0.164668 -0.30761,-0.259529 -0.0223,-0.0223 -0.0183,-0.06227 -0.0384,-0.08651 -0.0329,-0.03946 -0.1476,-0.08834 -0.19225,-0.08651 -0.10389,0.0043 -0.20507,0.0346 -0.3076,0.05191"
       id="path103427-7" />
    <path
       style="fill:none;fill-opacity:1;stroke:#000000;stroke-width:1;stroke-linecap:round;stroke-linejoin:round;stroke-opacity:1"
       d="m 148.35907,45.666407 c 0.35887,-0.06921 0.71536,-0.152211 1.07661,-0.207628 0.20342,-0.03121 0.40992,-0.03747 0.61521,-0.0519 0.78437,-0.05515 1.06484,-0.04412 1.99943,-0.05191 1.00435,-0.0084 1.86783,0.03491 2.88379,0.138419 1.19967,0.122227 2.40804,0.398191 3.42209,1.072727 0.0974,0.06476 0.17963,0.149721 0.26915,0.224922 0.38923,0.326937 0.41465,0.309635 0.73057,0.847798 0.0588,0.100149 0.0661,0.223552 0.11535,0.32874 0.0538,0.114981 0.14069,0.212738 0.19225,0.328739 0.10272,0.231111 0.18381,0.471308 0.26915,0.709387 0.0429,0.119619 0.0954,0.23784 0.11535,0.36334 0.019,0.119618 -0.004,0.242314 0,0.363347 0.009,0.250528 0.0557,0.709053 0.0385,1.003518 -0.006,0.110139 -0.0254,0.219186 -0.0385,0.328739 -0.0364,0.305919 -0.0525,0.615407 -0.11535,0.917009 -0.0302,0.145174 -0.21069,0.707259 -0.2307,0.761288 -0.0311,0.08386 -0.0813,0.159528 -0.11535,0.24223 -0.13874,0.337102 -0.17247,0.698202 -0.38451,1.003517 -0.086,0.123799 -0.17201,0.248097 -0.26916,0.363341 -0.20614,0.244551 -0.55419,0.423653 -0.80745,0.588269 -0.0778,0.05056 -0.15074,0.108665 -0.2307,0.155719 -0.33868,0.199294 -0.71596,0.316463 -1.07662,0.467158 -0.38213,0.159668 -0.75341,0.353444 -1.15351,0.467151 -0.12637,0.03591 -0.25671,0.05606 -0.38451,0.08651 -0.3076,0.07498 -0.61521,0.149953 -0.92281,0.224931 -0.1538,0.02884 -0.30874,0.05216 -0.46141,0.08651 -0.15513,0.03491 -0.30627,0.08621 -0.4614,0.121118 -0.74702,0.168077 -1.51419,0.307491 -2.26858,0.432551 -0.69881,0.115846 -1.40971,0.137446 -2.11478,0.190321 -0.19236,0.01442 -0.38348,0.0259 -0.57676,0.03461 -0.19178,0.0086 -0.38497,-0.0072 -0.57675,0 -0.16105,0.006 -0.29943,0.01823 -0.46141,0"
       id="path103441" />
    <path
       style="fill:#6ae4a3;fill-opacity:1;stroke:#000000;stroke-width:1;stroke-linecap:round;stroke-linejoin:round;stroke-opacity:1"
       d="m 159.70197,50.268747 c -0.20507,-0.0173 -0.41049,-0.07296 -0.61521,-0.05191 -0.56578,0.05819 -0.90856,0.241653 -1.34577,0.588275 -0.0808,0.06404 -0.15423,0.14641 -0.19225,0.242223 -0.093,0.23427 0.0117,0.251447 0.1538,0.363347 0.0513,0.04037 0.0918,0.100815 0.15381,0.121111 0.43739,0.14314 0.95718,0.215687 1.42267,0.207628 0.20536,-0.0036 0.41079,-0.01461 0.6152,-0.03461 0.35268,-0.0345 0.52957,-0.165604 0.73056,-0.44985 0.0852,-0.120533 0.1546,-0.302676 0.11535,-0.449851 -0.0102,-0.03843 -0.33427,-0.236696 -0.34605,-0.242228 -0.79519,-0.373379 -0.55968,-0.321671 -1.42267,-0.259537 -0.0776,0.0056 -0.15851,0.0057 -0.2307,0.03461 -0.16129,0.06451 -0.32493,0.134761 -0.46141,0.242229 -0.0922,0.07259 -0.24889,0.437875 -0.26916,0.53636 -0.0805,0.39128 -0.18245,0.878221 0.19226,1.159237 0.15466,0.115992 0.32092,0.220942 0.49986,0.294138 0.0762,0.03118 0.5566,0.07701 0.65366,0.06921 0.25783,-0.02072 0.51665,-0.04704 0.76901,-0.103818 0.1349,-0.03035 0.26622,-0.08408 0.3845,-0.155719 0.38514,-0.233295 0.85469,-0.541281 0.96126,-1.020819 0.0417,-0.187467 0.095,-0.37978 0.0769,-0.570968 -0.009,-0.09522 -0.10121,-0.162348 -0.15381,-0.242229 -0.246,-0.373597 -0.14313,-0.269603 -0.76901,-0.44985 -0.11209,-0.03228 -0.23141,-0.0734 -0.34606,-0.05191 -0.20282,0.03803 -0.37656,0.174881 -0.57675,0.224928 -0.26404,0.06601 -0.54869,0.0368 -0.80746,0.121118 -0.29276,0.09539 -0.50747,0.547966 -0.61521,0.761289 -0.10447,0.206856 -0.1289,0.41374 0.0769,0.60557 0.0996,0.09288 0.25365,0.100565 0.38451,0.138418 0.0496,0.01434 0.10238,0.01309 0.1538,0.0173 0.0896,0.0073 0.17955,0.02463 0.26915,0.0173 0.28397,-0.02324 0.42108,-0.302386 0.49986,-0.53636 0.0202,-0.06013 0,-0.126885 0,-0.190328 0.20507,-0.06344 0.40407,-0.151609 0.61521,-0.190315 0.13868,-0.02542 0.28198,0 0.42297,0 0.25633,0 0.51269,-0.0031 0.769,0 0.33327,0.0041 0.66662,0.0061 0.99972,0.0173 0.71736,0.02421 1.437,0.100051 2.15322,0.138418 0.35854,0.01921 0.71791,0.01885 1.07662,0.0346 0.96181,0.04223 1.92242,0.10483 2.88378,0.15572 0.51134,0.02707 1.02895,0.01831 1.53803,0.06921 0.0513,0.0051 0.10253,0.01153 0.1538,0.0173 0.0513,0.01154 0.10168,0.02791 0.1538,0.03461 0.0381,0.0049 0.0868,-0.02572 0.11535,0 0.0196,0.01765 -0.0173,0.05337 -0.0385,0.0692 -0.0583,0.0437 -0.12817,0.06921 -0.19225,0.103818"
       id="path103443" />
    <path
       style="fill:#ddf1fb;fill-opacity:1;stroke:#000000;stroke-width:1;stroke-linecap:round;stroke-linejoin:round;stroke-opacity:1"
       d="m 171.77542,43.936201 c -0.13129,0.748367 -0.11535,0.434972 -0.11535,0.934309 0,0.305669 -0.0179,0.61186 0,0.917008 0.007,0.115858 0.0256,0.230693 0.0385,0.346039 0.0128,0.224927 0.0298,0.449653 0.0385,0.674779 0.0171,0.44518 -0.004,0.213746 -0.0385,0.657479 -0.0259,0.337984 -0.0234,0.684055 -0.0769,1.020825 -0.0203,0.127843 -0.0516,0.253687 -0.0769,0.380641 -0.10094,0.507172 -0.19356,1.017915 -0.30761,1.522584 -0.0726,0.321093 -0.17022,0.624373 -0.19225,0.95161 -0.006,0.09207 0.004,0.184652 0,0.27683 -0.0172,0.370942 -0.0553,0.73572 -0.0385,1.107336 0.009,0.190555 0.0301,0.38039 0.0385,0.570961 0.005,0.103714 -0.006,0.207823 0,0.311438 0.006,0.104403 0.0385,0.206838 0.0385,0.311439 0,0.219534 -0.0217,0.438586 -0.0385,0.657478 -0.0382,0.497763 -0.16243,0.802935 -0.34606,1.280349 -0.0572,0.148644 -0.15595,0.407909 -0.2307,0.553668 -0.11681,0.227772 -0.24234,0.461537 -0.38451,0.674778 -0.0146,0.02196 -0.0243,0.04693 -0.0384,0.06921 -0.0115,0.01818 -0.0569,0.04083 -0.0385,0.05191 0.0442,0.02654 0.10244,0.01243 0.1538,0.0173 0.19217,0.0182 0.3844,0.03587 0.57676,0.0519 0.966,0.0805 -0.0828,-0.01857 1.03816,0.08651 3.31791,0.311042 -0.19623,-0.03507 1.99943,0.224928 0.24291,0.02876 0.4872,0.04448 0.73056,0.06921 2.55446,0.259556 0.7847,0.09869 2.49928,0.242228 1.12733,0.09438 2.25631,0.167299 3.38365,0.25953 0.2438,0.01995 0.48716,0.04487 0.73056,0.06921 0.23239,0.02323 0.77068,0.13707 0.96126,-0.0173 0.0335,-0.0271 0.0532,-0.06785 0.0769,-0.103817 0.32159,-0.488421 0.16042,-0.194972 0.30761,-0.605568 0.0355,-0.09914 0.0876,-0.192532 0.11535,-0.294132 0.15982,-0.585621 0.14396,-0.590262 0.19225,-1.090036 0.0304,-0.314371 0.1107,-1.130596 0.11534,-1.297648 0.005,-0.161931 -0.032,-0.322591 -0.0384,-0.484458 -0.006,-0.161359 0.004,-0.323024 0,-0.484458 -0.0181,-0.715383 -0.0403,-1.430783 -0.0769,-2.145455 -0.0296,-0.577254 -0.0956,-1.152523 -0.11535,-1.730198 -0.006,-0.178685 0.004,-0.357633 0,-0.536368 -0.006,-0.24754 -0.0552,-1.086821 -0.0385,-1.470675 0.0177,-0.405156 0.0881,-0.806516 0.11534,-1.211139 0.008,-0.120843 -0.006,-0.242401 0,-0.363348 0.006,-0.12162 0.0301,-0.241834 0.0385,-0.36334 0.0173,-0.253494 0.0214,-0.507777 0.0384,-0.761289 0.009,-0.12724 0.0322,-0.253275 0.0385,-0.380648 0.0217,-0.439997 -0.0392,-0.87811 0.0384,-1.314949 0.0308,-0.17338 0.0414,-0.231438 0.11536,-0.397949 0.009,-0.01968 0.0557,-0.03899 0.0385,-0.05191 -0.0817,-0.06131 -0.45179,-0.0346 -0.53831,-0.0346 -0.19225,0 -0.3845,0 -0.57675,0 -0.23553,0 -0.57579,-0.0052 -0.80746,0.0173 -0.70571,0.06866 -1.409,0.172514 -2.11478,0.242229 -0.33287,0.03288 -0.66672,0.05496 -0.99972,0.08651 -0.65228,0.06179 -1.30542,0.13465 -1.96097,0.155719 -0.0661,0.0021 -0.62061,-0.0011 -0.65366,0 -0.31146,0.01001 -0.61428,0.103701 -0.92281,0.138411 -0.29351,0.03302 -0.5896,0.05447 -0.88436,0.06921 -0.2536,0.01268 -0.51998,0.0052 -0.76901,0.06921 -0.25,0.06428 -0.0696,0.04089 -0.34605,0.15572 -0.0999,0.04151 -0.20507,0.06921 -0.30761,0.10381"
       id="path103453" />
    <path
       style="fill:none;fill-opacity:1;stroke:#000000;stroke-width:1;stroke-linecap:round;stroke-linejoin:round;stroke-opacity:1"
       d="m 176.31258,48.054084 c -0.64084,0.455621 -1.46379,0.728247 -1.92252,1.366865 -0.15048,0.209487 0.43898,0.296516 0.69211,0.346039 0.3522,0.06891 0.72716,0.08165 1.07661,0 0.33574,-0.07844 0.6328,-0.280724 0.92282,-0.467157 0.34583,-0.222314 0.41154,-0.413651 0.65366,-0.69208 0.0339,-0.03903 0.0636,-0.10381 0.11534,-0.10381 0.0346,0 -0.005,0.0695 0,0.10381 0.008,0.06418 0.0298,0.126177 0.0385,0.190321 0.0344,0.25563 0.0562,0.637456 0.0769,0.882406 0.0395,0.466798 0.13709,1.407998 0.15381,1.972435 0.006,0.213297 0,0.426781 0,0.640171 0,0.380645 0.0178,0.761707 0,1.141937 -0.039,0.833308 -0.39399,1.452583 -1.15352,1.851316 -0.112,0.0588 -0.22375,0.123456 -0.34605,0.15572 -0.80128,0.211365 -1.57137,0.235472 -2.38393,0.08651 -0.10644,-0.01951 -0.20422,-0.07183 -0.30761,-0.10381 -0.10175,-0.03148 -0.2085,-0.04749 -0.3076,-0.08651 -0.7029,-0.31629 -0.4054,-0.195904 -0.88436,-0.380648"
       id="path103455" />
    <path
       style="fill:#6ae4a3;fill-opacity:1;stroke:#000000;stroke-width:1;stroke-linecap:round;stroke-linejoin:round;stroke-opacity:1"
       d="m 182.61847,50.355257 c 1.31189,0.07872 -0.13518,-0.02121 1.11505,0.103811 0.16619,0.01662 0.33342,0.02074 0.49986,0.03461 1.75281,0.146059 3.50953,0.243629 5.26773,0.294131 0.77462,0.02225 0.28801,0.01731 0.99971,0.01731 0.16662,0 0.33324,0 0.49986,0 0.0384,0 0.0769,0 0.11534,0 0.0384,0 0.0835,-0.02151 0.11536,0 0.0178,0.01204 -0.021,0.03932 -0.0384,0.0519 -0.0477,0.03437 -0.10254,0.05767 -0.1538,0.08651"
       id="path103457" />
    <path
       style="fill:#ddf1fb;fill-opacity:1;stroke:#000000;stroke-width:1;stroke-linecap:round;stroke-linejoin:round;stroke-opacity:1"
       d="m 233.46242,31.882067 c -0.13129,0.748367 -0.11535,0.434972 -0.11535,0.934309 0,0.305669 -0.0179,0.61186 0,0.917008 0.007,0.115858 0.0256,0.230693 0.0385,0.346039 0.0128,0.224927 0.0298,0.449653 0.0385,0.674779 0.0171,0.44518 -0.004,0.213746 -0.0385,0.657479 -0.0259,0.337984 -0.0234,0.684055 -0.0769,1.020825 -0.0203,0.127843 -0.0516,0.253687 -0.0769,0.380641 -0.10094,0.507172 -0.19356,1.017915 -0.30761,1.522584 -0.0726,0.321093 -0.17022,0.624373 -0.19225,0.951611 -0.006,0.09207 0.004,0.184652 0,0.276829 -0.0172,0.370942 -0.0553,0.73572 -0.0385,1.107336 0.009,0.190555 0.0301,0.38039 0.0385,0.570961 0.005,0.103714 -0.006,0.207823 0,0.311438 0.006,0.104403 0.0385,0.206838 0.0385,0.311439 0,0.219534 -0.0217,0.438586 -0.0385,0.657478 -0.0382,0.497763 -0.16243,0.802935 -0.34606,1.280349 -0.0572,0.148644 -0.15595,0.407909 -0.2307,0.553668 -0.11681,0.227772 -0.24234,0.461537 -0.38451,0.674778 -0.0146,0.02196 -0.0243,0.04693 -0.0384,0.06921 -0.0115,0.01818 -0.0569,0.04083 -0.0385,0.05191 0.0442,0.02654 0.10244,0.01243 0.1538,0.0173 0.19217,0.0182 0.3844,0.03587 0.57676,0.0519 0.966,0.0805 -0.0828,-0.01857 1.03816,0.08651 3.31791,0.311042 -0.19623,-0.03507 1.99943,0.224928 0.24291,0.02876 0.4872,0.04448 0.73056,0.06921 2.55446,0.259556 0.7847,0.09869 2.49928,0.242228 1.12733,0.09438 2.25631,0.167299 3.38365,0.25953 0.2438,0.01995 0.48716,0.04487 0.73056,0.06921 0.23239,0.02323 0.77068,0.13707 0.96126,-0.0173 0.0335,-0.0271 0.0532,-0.06785 0.0769,-0.103817 0.32159,-0.488421 0.16042,-0.194972 0.30761,-0.605568 0.0355,-0.09914 0.0876,-0.192532 0.11535,-0.294132 0.15982,-0.585621 0.14396,-0.590262 0.19225,-1.090036 0.0304,-0.314371 0.1107,-1.130596 0.11534,-1.297648 0.005,-0.161931 -0.032,-0.322591 -0.0384,-0.484458 -0.006,-0.161359 0.004,-0.323024 0,-0.484458 -0.0181,-0.715383 -0.0403,-1.430783 -0.0769,-2.145455 -0.0296,-0.577254 -0.0956,-1.152523 -0.11535,-1.730198 -0.006,-0.178685 0.004,-0.357633 0,-0.536368 -0.006,-0.24754 -0.0552,-1.086821 -0.0385,-1.470675 0.0177,-0.405156 0.0881,-0.806516 0.11534,-1.211139 0.008,-0.120843 -0.006,-0.242401 0,-0.363348 0.006,-0.12162 0.0301,-0.241834 0.0385,-0.36334 0.0173,-0.253494 0.0214,-0.507777 0.0384,-0.761289 0.009,-0.12724 0.0322,-0.253275 0.0385,-0.380648 0.0217,-0.439997 -0.0392,-0.87811 0.0384,-1.314949 0.0308,-0.17338 0.0414,-0.231438 0.11536,-0.397949 0.009,-0.01968 0.0557,-0.03899 0.0385,-0.05191 -0.0817,-0.06131 -0.45179,-0.0346 -0.53831,-0.0346 -0.19225,0 -0.3845,0 -0.57675,0 -0.23553,0 -0.57579,-0.0052 -0.80746,0.0173 -0.70571,0.06866 -1.409,0.172514 -2.11478,0.242229 -0.33287,0.03288 -0.66672,0.05496 -0.99972,0.08651 -0.65228,0.06179 -1.30542,0.13465 -1.96097,0.155719 -0.0661,0.0021 -0.62061,-0.0011 -0.65366,0 -0.31146,0.01001 -0.61428,0.103701 -0.92281,0.138411 -0.29351,0.03302 -0.5896,0.05447 -0.88436,0.06921 -0.2536,0.01268 -0.51998,0.0052 -0.76901,0.06921 -0.25,0.06428 -0.0696,0.04089 -0.34605,0.15572 -0.0999,0.04151 -0.20507,0.06921 -0.30761,0.10381"
       id="path103453-6" />
    <path
       style="fill:none;fill-opacity:1;stroke:#000000;stroke-width:1;stroke-linecap:round;stroke-linejoin:round;stroke-opacity:1"
       d="m 237.99958,35.99995 c -0.64084,0.455621 -1.46379,0.728247 -1.92252,1.366865 -0.15048,0.209487 0.43898,0.296516 0.69211,0.346039 0.3522,0.06891 0.72716,0.08165 1.07661,0 0.33574,-0.07844 0.6328,-0.280724 0.92282,-0.467157 0.34583,-0.222314 0.41154,-0.413651 0.65366,-0.69208 0.0339,-0.03903 0.0636,-0.10381 0.11534,-0.10381 0.0346,0 -0.005,0.0695 0,0.10381 0.008,0.06418 0.0298,0.126177 0.0385,0.190321 0.0344,0.25563 0.0562,0.637456 0.0769,0.882406 0.0395,0.466798 0.13709,1.407998 0.15381,1.972435 0.006,0.213297 0,0.426781 0,0.640171 0,0.380645 0.0178,0.761707 0,1.141937 -0.039,0.833308 -0.39399,1.452583 -1.15352,1.851316 -0.112,0.0588 -0.22375,0.123456 -0.34605,0.15572 -0.80128,0.211365 -1.57137,0.235472 -2.38393,0.08651 -0.10644,-0.01951 -0.20422,-0.07183 -0.30761,-0.10381 -0.10175,-0.03148 -0.2085,-0.04749 -0.3076,-0.08651 -0.7029,-0.31629 -0.4054,-0.195904 -0.88436,-0.380648"
       id="path103455-4" />
    <path
       style="fill:#6ae4a3;fill-opacity:1;stroke:#000000;stroke-width:1;stroke-linecap:round;stroke-linejoin:round;stroke-opacity:1"
       d="m 139.1694,59.438829 c -0.32042,-0.04614 -0.63868,-0.111197 -0.96126,-0.138412 -0.56469,-0.04765 -2.95586,0.01717 -2.96069,0.0173 -5.18603,0.133358 2.11949,0.01029 -4.99856,0.13842 -0.26911,0.0048 -0.53831,0 -0.80747,0 -0.37168,0.0058 -0.74343,0.0087 -1.11506,0.0173 -0.12826,0.003 -0.26162,-0.01955 -0.38451,0.0173 -0.0518,0.01556 0.10446,0.0297 0.15381,0.05191 0.16884,0.07597 0.33101,0.166248 0.49985,0.242228"
       id="path103459" />
    <path
       style="fill:none;fill-opacity:1;stroke:#000000;stroke-width:1;stroke-linecap:round;stroke-linejoin:round;stroke-opacity:1"
       d="m 196.96051,48.711561 c 1.23896,-0.0892 0.5992,-0.07476 1.61491,-0.05191 1.34554,0.03028 2.69136,0.04777 4.0373,0.03461 0.3461,-0.0034 0.6921,-0.01297 1.03818,-0.0173 0.19223,-0.0024 0.38463,0.0072 0.57675,0 0.14107,-0.0053 0.40172,-0.03655 0.0769,0"
       id="path104189" />
    <path
       style="fill:none;fill-opacity:1;stroke:#000000;stroke-width:1;stroke-linecap:round;stroke-linejoin:round;stroke-opacity:1"
       d="m 197.61417,52.120064 c 1.67723,-0.08552 3.35823,-0.0047 5.03702,-0.05191 0.0919,-0.0026 0.77071,-0.07737 0.9228,-0.0346 0.0432,0.01214 0.0769,0.04614 0.11536,0.06921"
       id="path104191" />
    <path
       style="fill:none;fill-opacity:1;stroke:#000000;stroke-width:1;stroke-linecap:round;stroke-linejoin:round;stroke-opacity:1"
       d="m 225.45232,38.27843 c 0.25634,0.0058 0.51295,0.0042 0.76902,0.0173 1.30176,0.06657 0.50357,0.04186 1.38421,0.121114 0.33186,0.02987 1.20995,0.07322 1.42267,0.08651 0.55123,0.03445 1.10214,0.06706 1.65337,0.103811 0.24624,0.01642 0.48392,0.05912 0.73057,0.06921 0.12735,0.0052 0.25736,-0.0095 0.3845,0 0.20487,0.01536 0.40881,0.0346 0.61521,0.0346 0.0897,0 0.17943,0 0.26915,0 0.0384,0 0.15356,-0.0043 0.11535,0 -0.19182,0.02158 -0.38451,0.0346 -0.57676,0.0519"
       id="path104238" />
    <path
       style="fill:#ddf1fb;fill-opacity:1;stroke:#000000;stroke-width:1;stroke-linecap:round;stroke-linejoin:round;stroke-opacity:1"
       d="m 231.96653,50.791114 c -0.13129,0.748367 -0.11535,0.434972 -0.11535,0.934309 0,0.305669 -0.0179,0.61186 0,0.917008 0.007,0.115858 0.0256,0.230693 0.0385,0.346039 0.0128,0.224927 0.0298,0.449653 0.0385,0.674779 0.0171,0.44518 -0.004,0.213746 -0.0385,0.657479 -0.0259,0.337984 -0.0234,0.684055 -0.0769,1.020825 -0.0203,0.127843 -0.0516,0.253687 -0.0769,0.380641 -0.10094,0.507172 -0.19356,1.017915 -0.30761,1.522584 -0.0726,0.321093 -0.17022,0.624373 -0.19225,0.951611 -0.006,0.09207 0.004,0.184652 0,0.276829 -0.0172,0.370942 -0.0553,0.73572 -0.0385,1.107336 0.009,0.190555 0.0301,0.38039 0.0385,0.570961 0.005,0.103714 -0.006,0.207823 0,0.311438 0.006,0.104403 0.0385,0.206838 0.0385,0.311439 0,0.219534 -0.0217,0.438586 -0.0385,0.657478 -0.0382,0.497763 -0.16243,0.802935 -0.34606,1.280349 -0.0572,0.148644 -0.15595,0.407909 -0.2307,0.553668 -0.11681,0.227772 -0.24234,0.461537 -0.38451,0.674778 -0.0146,0.02196 -0.0243,0.04693 -0.0384,0.06921 -0.0115,0.01818 -0.0569,0.04083 -0.0385,0.05191 0.0442,0.02654 0.10244,0.01243 0.1538,0.0173 0.19217,0.0182 0.3844,0.03587 0.57676,0.0519 0.966,0.0805 -0.0828,-0.01857 1.03816,0.08651 3.31791,0.311042 -0.19623,-0.03507 1.99943,0.224928 0.24291,0.02876 0.4872,0.04448 0.73056,0.06921 2.55446,0.259556 0.7847,0.09869 2.49928,0.242228 1.12733,0.09438 2.25631,0.167299 3.38365,0.25953 0.2438,0.01995 0.48716,0.04487 0.73056,0.06921 0.23239,0.02323 0.77068,0.13707 0.96126,-0.0173 0.0335,-0.0271 0.0532,-0.06785 0.0769,-0.103817 0.32159,-0.488421 0.16042,-0.194972 0.30761,-0.605568 0.0355,-0.09914 0.0876,-0.192532 0.11535,-0.294132 0.15982,-0.585621 0.14396,-0.590262 0.19225,-1.090036 0.0304,-0.314371 0.1107,-1.130596 0.11534,-1.297648 0.005,-0.161931 -0.032,-0.322591 -0.0384,-0.484458 -0.006,-0.161359 0.004,-0.323024 0,-0.484458 -0.0181,-0.715383 -0.0403,-1.430783 -0.0769,-2.145455 -0.0296,-0.577254 -0.0956,-1.152523 -0.11535,-1.730198 -0.006,-0.178685 0.004,-0.357633 0,-0.536368 -0.006,-0.24754 -0.0552,-1.086821 -0.0385,-1.470675 0.0177,-0.405156 0.0881,-0.806516 0.11534,-1.211139 0.008,-0.120843 -0.006,-0.242401 0,-0.363348 0.006,-0.12162 0.0301,-0.241834 0.0385,-0.36334 0.0173,-0.253494 0.0214,-0.507777 0.0384,-0.761289 0.009,-0.12724 0.0322,-0.253275 0.0385,-0.380648 0.0217,-0.439997 -0.0392,-0.87811 0.0384,-1.314949 0.0308,-0.17338 0.0414,-0.231438 0.11536,-0.397949 0.009,-0.01968 0.0557,-0.03899 0.0385,-0.05191 -0.0817,-0.06131 -0.45179,-0.0346 -0.53831,-0.0346 -0.19225,0 -0.3845,0 -0.57675,0 -0.23553,0 -0.57579,-0.0052 -0.80746,0.0173 -0.70571,0.06866 -1.409,0.172514 -2.11478,0.242229 -0.33287,0.03288 -0.66672,0.05496 -0.99972,0.08651 -0.65228,0.06179 -1.30542,0.13465 -1.96097,0.155719 -0.0661,0.0021 -0.62061,-0.0011 -0.65366,0 -0.31146,0.01001 -0.61428,0.103701 -0.92281,0.138411 -0.29351,0.03302 -0.5896,0.05447 -0.88436,0.06921 -0.2536,0.01268 -0.51998,0.0052 -0.76901,0.06921 -0.25,0.06428 -0.0696,0.04089 -0.34605,0.15572 -0.0999,0.04151 -0.20507,0.06921 -0.30761,0.10381"
       id="path103453-6-5" />
    <path
       style="fill:none;fill-opacity:1;stroke:#000000;stroke-width:1;stroke-linecap:round;stroke-linejoin:round;stroke-opacity:1"
       d="m 236.50369,54.908997 c -0.64084,0.455621 -1.46379,0.728247 -1.92252,1.366865 -0.15048,0.209487 0.43898,0.296516 0.69211,0.346039 0.3522,0.06891 0.72716,0.08165 1.07661,0 0.33574,-0.07844 0.6328,-0.280724 0.92282,-0.467157 0.34583,-0.222314 0.41154,-0.413651 0.65366,-0.69208 0.0339,-0.03903 0.0636,-0.10381 0.11534,-0.10381 0.0346,0 -0.005,0.0695 0,0.10381 0.008,0.06418 0.0298,0.126177 0.0385,0.190321 0.0344,0.25563 0.0562,0.637456 0.0769,0.882406 0.0395,0.466798 0.13709,1.407998 0.15381,1.972435 0.006,0.213297 0,0.426781 0,0.640171 0,0.380645 0.0178,0.761707 0,1.141937 -0.039,0.833308 -0.39399,1.452583 -1.15352,1.851316 -0.112,0.0588 -0.22375,0.123456 -0.34605,0.15572 -0.80128,0.211365 -1.57137,0.235472 -2.38393,0.08651 -0.10644,-0.01951 -0.20422,-0.07183 -0.30761,-0.10381 -0.10175,-0.03148 -0.2085,-0.04749 -0.3076,-0.08651 -0.7029,-0.31629 -0.4054,-0.195904 -0.88436,-0.380648"
       id="path103455-4-0" />
    <path
       style="fill:#6ae4a3;fill-opacity:1;stroke:#000000;stroke-width:1;stroke-linecap:round;stroke-linejoin:round;stroke-opacity:1"
       d="m 242.80958,57.21017 c 1.31189,0.07872 -0.13518,-0.02121 1.11505,0.103812 0.16619,0.01662 0.33342,0.02074 0.49986,0.03461 1.75281,0.146059 3.50953,0.243628 5.26773,0.294131 0.77462,0.02225 0.28801,0.01731 0.99971,0.01731 0.16662,0 0.33324,0 0.49986,0 0.0384,0 0.0769,0 0.11534,0 0.0384,0 0.0835,-0.02151 0.11536,0 0.0178,0.01204 -0.021,0.03932 -0.0384,0.0519 -0.0477,0.03437 -0.10254,0.05767 -0.1538,0.08651"
       id="path103457-9-4" />
    <path
       style="fill:none;fill-opacity:1;stroke:#000000;stroke-width:1;stroke-linecap:round;stroke-linejoin:round;stroke-opacity:1"
       d="m 231.0661,57.431791 c -0.62801,-0.0022 -1.25632,0.0038 -1.88408,0.0173 -1.56311,0.03349 -3.12713,0.05191 -4.69096,0.05191 -0.54973,0 -1.10318,0.0099 -1.65336,0 -0.91016,-0.01638 -1.81959,-0.0173 -2.73,-0.0173 -0.47366,0 -0.94901,-0.0093 -1.42266,0 -0.27178,-0.04262 -0.53815,0.02787 -0.80746,0.0346 -0.60141,0.01503 -1.20555,0 -1.80718,0 -0.1538,0 -0.30771,-0.0058 -0.4614,0 -0.20554,0.0077 -0.40912,0.05891 -0.61521,0.06921 -0.22755,0.01138 -0.46612,0 -0.69211,0 -0.49985,0 -0.99971,0 -1.49957,0 -0.53899,0 -1.0763,-0.0346 -1.61492,-0.0346 -0.14099,0 -0.28197,0 -0.42295,0 -0.0385,0 -0.11536,-0.03845 -0.11536,0 0,0.05575 0.0769,0.08074 0.11536,0.121112"
       id="path104320" />
    <path
       style="fill:none;fill-opacity:1;stroke:#000000;stroke-width:1;stroke-linecap:round;stroke-linejoin:round;stroke-opacity:1"
       d="m 244.71603,38.849395 c 0.32042,-0.01153 0.64112,-0.01691 0.96126,-0.0346 0.83213,-0.04598 1.66554,-0.132269 2.49929,-0.155719 0.84837,-0.02386 1.69034,-0.01203 2.53773,0.0173 0.43585,0.01509 0.87233,0.02059 1.30732,0.05191 0.20655,0.01487 0.40975,0.06051 0.6152,0.08651 0.20473,0.02591 0.41122,0.03796 0.61521,0.06921 0.15257,0.02337 1.39781,0.230901 1.76872,0.328739 0.18224,0.04807 0.35828,0.117214 0.53831,0.17302 2.03877,0.631987 0.46651,0.112957 1.80717,0.588269 0.21718,0.077 0.43885,0.141537 0.65365,0.224929 0.4391,0.170465 0.87487,0.349705 1.30733,0.53636 0.41513,0.179174 0.81667,0.388595 1.23041,0.570968 0.6023,0.265496 1.21802,0.502379 1.80717,0.795897 0.17048,0.08493 0.3326,0.185722 0.49986,0.276831 3.12483,1.687329 -0.26576,-0.16636 1.38421,0.778589 0.13857,0.07936 0.28786,0.139813 0.42297,0.224929 0.29479,0.185714 0.72447,0.494195 1.03816,0.726687 0.11584,0.08586 0.23783,0.164252 0.34605,0.25953 0.18709,0.164713 0.35887,0.34604 0.53831,0.51906 0.31922,0.307805 0.64295,0.624702 0.92281,0.968916 0.0603,0.07421 0.0969,0.165375 0.15381,0.24223 0.0587,0.07925 0.13754,0.142858 0.19225,0.224921 0.0166,0.02486 0.3398,0.56355 0.3845,0.709387 0.0256,0.08362 0.0219,0.173665 0.0385,0.25953 0.0347,0.179553 0.0814,0.356671 0.11535,0.53636 0.11104,0.587105 0.11536,1.187085 0.11536,1.782114 0,1.692567 0.0287,-0.05921 -0.0385,0.847799 -0.035,0.472 0.0743,0.06259 -0.0769,0.69208 -0.0658,0.27375 -0.21876,0.515802 -0.34605,0.761295 -0.12793,0.24672 -0.0168,0.109133 -0.19225,0.34604 -0.087,0.117422 -0.18402,0.227273 -0.26916,0.34604 -0.0432,0.06029 -0.0725,0.129751 -0.11534,0.19032 -0.0471,0.0666 -0.10671,0.123723 -0.1538,0.190321 -0.13248,0.18735 -0.2403,0.3925 -0.38452,0.570968 -0.0627,0.07754 -0.1612,0.11885 -0.2307,0.190327 -0.88038,1.039894 0.12868,-0.09725 -0.5383,0.536361 -0.0468,0.04449 -0.0673,0.112506 -0.11536,0.155719 -0.13272,0.119448 -0.28419,0.216351 -0.42295,0.328739 -2.6e-4,3.18e-4 -0.30722,0.276527 -0.3076,0.27683 -0.19908,0.156768 -0.4089,0.302866 -0.61522,0.449857 -0.9578,0.682404 0.10964,-0.08636 -0.46141,0.36334 -0.0486,0.03827 -0.10591,0.06465 -0.15378,0.103812 -0.19525,0.159745 -0.37067,0.337621 -0.57677,0.484457 -0.1415,0.100814 -0.30195,0.213418 -0.46141,0.294138 -0.0411,0.02082 -0.32348,0.142652 -0.34605,0.155712 -0.0299,0.01728 -0.0477,0.05083 -0.0769,0.06921 -0.0357,0.02246 -0.0776,0.03305 -0.11535,0.05191 -0.0777,0.03884 -0.1515,0.08547 -0.2307,0.121111 -1.7e-4,7.7e-5 -0.23054,0.06914 -0.23071,0.06921 -0.17125,0.06742 -0.31659,0.13866 -0.49986,0.173021 -0.28781,0.05396 -0.19693,0.02734 -0.42295,0.03461 -0.38814,0.01246 -0.76576,0.0218 -1.15351,0 -0.0852,-0.0048 -0.55585,-0.02246 -0.61522,-0.06921 -0.0973,-0.07663 -0.0102,-0.285303 0,-0.363347 0.018,-0.137837 0.0256,-0.276834 0.0385,-0.41525"
       id="path104351" />
    <path
       style="fill:none;fill-opacity:1;stroke:#000000;stroke-width:1;stroke-linecap:round;stroke-linejoin:round;stroke-opacity:1"
       d="m 268.55538,48.867285 c 0.28578,0.02572 0.84113,0.0087 0.99971,0.294131 0.10837,0.195061 -0.0316,0.348572 -0.1538,0.519067 -0.0502,0.07007 -0.12325,0.12129 -0.19225,0.17302 -0.38749,0.290599 -0.87034,0.369809 -1.34577,0.346039 -0.11578,-0.0058 -0.23698,0.0047 -0.34606,-0.03461 -0.15286,-0.05503 -0.29799,-0.138403 -0.42296,-0.242222 -0.24504,-0.203564 0.0904,-0.653333 0.26916,-0.917008 0.0829,-0.122268 0.22698,-0.189418 0.34606,-0.276838 0.46506,-0.341447 0.6338,-0.419432 1.30732,-0.570968 0.30199,-0.06794 0.62828,-0.19907 0.9228,-0.10381 0.18666,0.06037 0.23651,0.318918 0.30761,0.501759 0.0234,0.06032 -0.0116,0.13143 -0.0385,0.19032 -0.0766,0.168094 -0.1641,0.332504 -0.26916,0.484459 -0.0756,0.109314 -0.17654,0.198857 -0.26914,0.294137 -0.40948,0.421164 -0.84236,0.647789 -1.42268,0.743989 -0.11436,0.01896 -0.23063,0.04542 -0.34605,0.0346 -0.19763,-0.01853 -0.6008,-0.05409 -0.76901,-0.25953 -0.121,-0.147776 -0.0926,-0.46757 -0.0769,-0.605569 0.0247,-0.216497 0.13023,-0.373128 0.26917,-0.536368 0.3497,-0.410887 0.62815,-0.723258 1.15351,-0.865099 0.40166,-0.10844 0.34232,-0.09991 0.6152,-0.06921 0.0513,0.0058 0.1099,-0.0098 0.1538,0.0173 0.0656,0.0406 0.11631,0.10557 0.15381,0.17302 0.0448,0.08056 -0.0642,0.621368 -0.0769,0.657478 -0.0333,0.09489 -0.1025,0.17302 -0.1538,0.25953 -0.0513,0.08651 -0.0897,0.182037 -0.1538,0.259537 -0.42553,0.514596 -0.90889,0.91192 -1.61493,0.8997 -0.24094,-0.0042 -0.60141,-0.0778 -0.69211,-0.36334 -0.10166,-0.32023 0.31777,-0.805036 0.46141,-0.934309 0.30127,-0.271125 0.61356,-0.569002 0.99972,-0.692086 0.56497,-0.180081 1.17914,-0.126881 1.76871,-0.190321 0.21789,0.05767 0.43184,0.133092 0.65366,0.17302 0.16438,0.02959 0.3334,0.02099 0.49986,0.03461 0.55051,0.04504 1.10122,0.06663 1.65337,0.08651 0.49984,0.018 0.99956,0.04006 1.49957,0.0519 0.67476,0.01598 1.36709,-0.03354 2.03788,0 0.10305,0.0052 0.20474,0.02656 0.30761,0.03461 0.192,0.01503 0.38485,0.01815 0.57675,0.0346 0.0775,0.0066 0.15316,0.02879 0.23071,0.03461 0.0767,0.0058 0.1538,0 0.2307,0 0.14098,0.0173 0.28193,0.03498 0.42296,0.0519 0.0512,0.0061 0.10253,0.01153 0.1538,0.0173 0.0513,0.01154 0.10164,0.02821 0.15379,0.03461 0.48468,0.05949 0.0535,-0.01905 0.53832,0.0173 0.0649,0.0049 0.1274,0.02876 0.19225,0.0346 0.0638,0.0057 0.12842,-0.0057 0.19225,0 0.32446,0.05841 0.0628,0.02302 0.34605,0.03461 0.21793,0.0089 0.43664,0.0302 0.65366,0.0519 0.15169,0.01517 0.26916,0.03604 0.26916,0.01731 0,-0.09325 -0.93355,0.09814 -0.96126,0.103811"
       id="path104353" />
  </g>
</svg>
