<?xml version="1.0" encoding="UTF-8" standalone="no"?>
<!-- Created with Inkscape (http://www.inkscape.org/) -->

<svg
   width="16.284807mm"
   height="2.9350274mm"
   viewBox="0 0 16.284807 2.9350274"
   version="1.1"
   id="svg5"
   sodipodi:docname="stub.svg"
   inkscape:version="1.2.2 (b0a8486541, 2022-12-01)"
   xmlns:inkscape="http://www.inkscape.org/namespaces/inkscape"
   xmlns:sodipodi="http://sodipodi.sourceforge.net/DTD/sodipodi-0.dtd"
   xmlns="http://www.w3.org/2000/svg"
   xmlns:svg="http://www.w3.org/2000/svg">
  <sodipodi:namedview
     id="namedview7"
     pagecolor="#ffffff"
     bordercolor="#666666"
     borderopacity="1.0"
     inkscape:showpageshadow="2"
     inkscape:pageopacity="0.0"
     inkscape:pagecheckerboard="0"
     inkscape:deskcolor="#d1d1d1"
     inkscape:document-units="mm"
     showgrid="false"
     inkscape:zoom="4.6354114"
     inkscape:cx="12.080913"
     inkscape:cy="-1.0786529"
     inkscape:window-width="2560"
     inkscape:window-height="1372"
     inkscape:window-x="0"
     inkscape:window-y="32"
     inkscape:window-maximized="1"
     inkscape:current-layer="layer1"
     showguides="true" />
  <defs
     id="defs2" />
  <g
     inkscape:label="Layer 1"
     inkscape:groupmode="layer"
     id="layer1"
     transform="translate(-135.67595,-72.122376)">
    <path
       style="fill:#ffffff;fill-opacity:1;fill-rule:nonzero;stroke:#000000;stroke-width:1;stroke-linecap:round;stroke-linejoin:round"
       d="m 149.53752,72.633256 c 0.28389,-0.0033 0.53435,0.06031 0.80746,0.147066 0.55511,0.176321 1.0619,0.609788 1.11507,1.219792 0.0117,0.134404 -0.16586,0.238405 -0.26916,0.259533 -0.12867,0.02632 -0.58544,0.08809 -0.769,0.06056 -0.22263,-0.03339 -0.91584,-0.154609 -1.11507,-0.397945 -0.13359,-0.163163 -0.31212,-0.489838 -0.19225,-0.718037 0.0562,-0.106906 0.1396,-0.197101 0.21148,-0.294135 0.0691,-0.09331 0.0976,-0.254058 0.21147,-0.27683 0.16349,-0.0327 0.32394,0.08147 0.48063,0.138415 0.17723,0.06441 0.35656,0.129291 0.51908,0.224925 0.0908,0.05346 0.16421,0.134487 0.23071,0.216275 0.21663,0.266449 0.35531,0.422288 0.42295,0.726688 0.0139,0.06247 0.0436,0.286508 -0.0192,0.354693 -0.0791,0.08589 -0.18253,0.149637 -0.28838,0.198971 -0.21863,0.101889 -0.8267,0.04261 -0.92281,0.0346 -0.29729,-0.02477 -0.77502,-0.151982 -0.98049,-0.389295 -0.12363,-0.142778 -0.22278,-0.307067 -0.3076,-0.475808 -0.0415,-0.08252 -0.094,-0.377338 -0.0385,-0.475805 0.17247,-0.305868 0.28675,-0.370333 0.57676,-0.467154 0.1069,-0.03569 0.21415,-0.08858 0.32683,-0.08651 0.47,0.0086 0.89173,0.167966 1.26887,0.44985 0.091,0.06802 0.54668,0.480227 0.59598,0.735338 0.023,0.118915 0.029,0.245761 0,0.363344 -0.0157,0.06357 -0.25306,0.184615 -0.28838,0.19032 -0.66772,0.107859 -1.64242,0.02046 -2.03787,-0.622873 -0.1009,-0.164144 -0.11074,-0.326989 -0.0192,-0.51041 0.0517,-0.103627 0.30053,-0.166149 0.38451,-0.173019 0.2044,-0.01672 0.41084,-0.02589 0.6152,-0.0086 0.10614,0.009 0.20712,0.05118 0.30761,0.08651 0.34917,0.122751 0.44581,0.196741 0.74978,0.484455 0.0311,0.02946 0.17993,0.241724 0.15381,0.320089 -0.0649,0.194711 -0.17541,0.222084 -0.34606,0.25088 -0.0889,0.015 -0.1792,0.03162 -0.26916,0.02595 -0.40041,-0.02522 -0.68595,-0.05447 -1.03816,-0.198974 -0.10632,-0.04362 -0.22037,-0.08089 -0.3076,-0.155719 -0.12213,-0.104757 -0.22089,-0.236458 -0.3076,-0.371994 -0.0289,-0.0452 -0.0951,-0.304615 -0.0577,-0.371995 0.0822,-0.147913 0.42779,-0.46247 0.59598,-0.493105 0.15301,-0.02787 0.30968,0.03507 0.46141,0.06921 0.55463,0.124786 0.69932,0.190386 1.03816,0.640178 0.0407,0.05404 0.12593,0.22115 0.0769,0.302785 -0.13418,0.223403 -0.4419,0.261181 -0.67288,0.224925 -0.1885,-0.02959 -0.37571,-0.07189 -0.55753,-0.129765 -0.28022,-0.08919 -0.61081,-0.385726 -0.55753,-0.709384 0.006,-0.03376 0.0224,-0.06495 0.0384,-0.09516 0.0546,-0.102651 0.0626,-0.266472 0.17303,-0.302785 0.11239,-0.03696 0.21179,0.110806 0.32683,0.138416 0.081,0.01944 0.16843,-0.01726 0.24993,0 0.37824,0.08009 0.74847,0.271334 0.78823,0.700733 0.007,0.0742 -0.11348,0.191358 -0.17302,0.207624 -0.28039,0.0766 -0.42912,0.07667 -0.69211,0.02595 -0.091,-0.01754 -0.18745,-0.02555 -0.26915,-0.06921 -0.12717,-0.06795 -0.23992,-0.161937 -0.34606,-0.259534 -0.10891,-0.100144 -0.12576,-0.212408 -0.0961,-0.35469 0.022,-0.105819 0.27929,-0.128624 0.34605,-0.121114 0.12372,0.01392 0.24912,0.03306 0.36528,0.07786 0.0673,0.02594 0.12236,0.07847 0.17303,0.129765 0.17689,0.179094 0.20213,0.349246 0.26915,0.605573 10e-4,0.005 0.0433,0.234072 0,0.268181 -0.13909,0.109523 -0.23589,0.08006 -0.3845,0.05191 -0.0645,-0.01223 -0.13365,-0.01359 -0.19226,-0.04326 -0.098,-0.04963 -0.18961,-0.114518 -0.26915,-0.190321 -0.0154,-0.01466 -0.13729,-0.263263 -0.0961,-0.294134 0.0308,-0.02307 0.0774,-0.0062 0.11535,0 0.10372,0.01697 0.20489,0.04695 0.30761,0.06921 0.0703,0.01524 0.14098,0.02884 0.21148,0.04326"
       id="path47416" />
    <path
       style="fill:#ffffff;fill-opacity:1;fill-rule:nonzero;stroke:#000000;stroke-width:1;stroke-linecap:round;stroke-linejoin:round"
       d="m 149.36449,73.584865 c -0.94883,-0.175129 -1.90411,-0.306958 -2.86456,-0.397945 -0.74339,-0.07042 -1.48486,-0.119789 -2.23013,-0.155719 -0.17943,-0.0087 -0.35873,-0.02108 -0.5383,-0.02595 -1.12133,-0.0304 -2.24296,-0.02992 -3.36442,-0.0173 -1.05206,0.01183 0.56779,-0.02165 -0.98049,0.0086 -0.009,1.76e-4 -0.49842,0.01591 -0.51908,0.0173 -0.32929,0.02222 -0.65293,0.06147 -0.98049,0.09516 -0.27549,0.02834 -0.5517,0.05395 -0.82669,0.08651 -0.21192,0.02509 -0.42017,0.0519 -0.63443,0.0519 -0.0653,0 -0.12775,0.0076 -0.19225,0.0173 -0.0192,0.0029 -0.0577,-0.01079 -0.0577,0.0086 0,0.01944 0.0385,0.0058 0.0577,0.0087"
       id="path47418" />
  </g>
</svg>
