<?xml version="1.0" encoding="UTF-8" standalone="no"?>
<!-- Created with Inkscape (http://www.inkscape.org/) -->

<svg
   width="69.493996mm"
   height="10.741048mm"
   viewBox="0 0 69.493997 10.741048"
   version="1.1"
   id="svg5"
   sodipodi:docname="stub-eqs.svg"
   inkscape:version="1.2.2 (b0a8486541, 2022-12-01)"
   xmlns:inkscape="http://www.inkscape.org/namespaces/inkscape"
   xmlns:sodipodi="http://sodipodi.sourceforge.net/DTD/sodipodi-0.dtd"
   xmlns="http://www.w3.org/2000/svg"
   xmlns:svg="http://www.w3.org/2000/svg">
  <sodipodi:namedview
     id="namedview7"
     pagecolor="#ffffff"
     bordercolor="#666666"
     borderopacity="1.0"
     inkscape:showpageshadow="2"
     inkscape:pageopacity="0.0"
     inkscape:pagecheckerboard="0"
     inkscape:deskcolor="#d1d1d1"
     inkscape:document-units="mm"
     showgrid="false"
     inkscape:zoom="2.3177057"
     inkscape:cx="-185.09684"
     inkscape:cy="65.150635"
     inkscape:window-width="2560"
     inkscape:window-height="1372"
     inkscape:window-x="0"
     inkscape:window-y="32"
     inkscape:window-maximized="1"
     inkscape:current-layer="layer1"
     showguides="true" />
  <defs
     id="defs2" />
  <g
     inkscape:label="Layer 1"
     inkscape:groupmode="layer"
     id="layer1"
     transform="translate(-99.894996,-41.993361)">
    <path
       style="fill:#6ae4a3;stroke:#000000;stroke-width:1;stroke-linecap:round;stroke-linejoin:round;fill-opacity:1"
       d="m 101.01467,44.310076 c 0.10254,0.247996 0.2264,0.488212 0.30761,0.743988 0.0351,0.110615 0.0425,0.230052 0.0385,0.346039 -0.0243,0.700537 -0.0549,0.64458 -0.19226,1.211139 -0.28861,1.190484 0.11555,-0.369917 -0.34606,1.453376 -0.18488,0.73025 -0.053,0.109563 -0.19225,0.761288 -0.0114,0.05331 -0.13809,0.61918 -0.1538,0.795897 -0.006,0.06319 0.0115,0.127941 0,0.190321 -0.0144,0.07791 -0.0994,0.148957 -0.0769,0.224928 0.0166,0.056 1.28683,0.0819 1.46113,0.08651 1.21774,0.03224 2.43498,0.02386 3.65278,0.0346 3.80136,0.03354 -0.15254,-0.0021 1.80718,0.0346 0.43545,0.0082 0.3557,-0.0037 0.80746,-0.0173 0.0512,-0.0015 0.1087,0.02436 0.15381,0 0.0557,-0.03009 0.0369,-0.213186 0.0384,-0.242229 0.0103,-0.190475 0.0306,-0.380376 0.0385,-0.570969 0.005,-0.121011 -0.006,-0.242368 0,-0.36334 0.007,-0.144583 0.0301,-0.288039 0.0384,-0.43255 0.0173,-0.299677 0.0218,-0.599993 0.0385,-0.899707 0.0173,-0.312008 0.067,-0.621977 0.0769,-0.934309 0.0129,-0.407078 0.0165,-0.98768 0,-1.418767 -0.0208,-0.542524 -0.0659,-1.082537 -0.0384,-1.626395 0.005,-0.099 0.0931,-0.284131 0.19225,-0.328739 0.0355,-0.01595 0.12112,0.02115 0.11535,-0.0173 -0.006,-0.03845 -0.0765,0.0173 -0.11535,0.0173 -0.26922,0 -0.53833,-0.01057 -0.80746,-0.0173 -0.49977,-0.01249 -0.99973,-0.04007 -1.49958,-0.05191 -0.55057,-0.01304 -1.10255,0 -1.65337,0 -0.2307,0 -0.4616,-0.0094 -0.69211,0 -0.4554,0.01864 -0.9322,0.07583 -1.38421,0.138419 -0.14324,0.01983 -0.28141,0.08258 -0.42295,0.103811 -0.0763,0.01144 -0.15547,3.7e-4 -0.23071,0.01731 -0.0548,0.01234 -0.10254,0.04613 -0.1538,0.0692 -0.32255,0.145143 -0.15589,0.06535 -0.49986,0.242229"
       id="path74161" />
    <path
       style="fill:none;stroke:#000000;stroke-width:1;stroke-linecap:round;stroke-linejoin:round"
       d="m 103.39861,45.867254 c 0.16662,0.08651 0.3579,0.136687 0.49986,0.259537 0.44496,0.385046 0.78486,1.053933 1.07661,1.557179 0.048,0.08274 0.0989,0.163939 0.1538,0.242229 0.0222,0.03158 0.0399,0.07542 0.0769,0.08651 0.0206,0.0062 0.0252,-0.03496 0.0385,-0.0519 0.0636,-0.08111 0.12306,-0.165812 0.19225,-0.242229 0.0721,-0.07962 0.15807,-0.145807 0.2307,-0.224929 0.44734,-0.487358 0.8437,-1.017662 1.34576,-1.453368 0.0444,-0.03855 0.10505,-0.05361 0.15381,-0.08652 0.0541,-0.03651 0.0997,-0.0846 0.1538,-0.121111"
       id="path74163" />
    <path
       style="fill:none;stroke:#000000;stroke-width:1;stroke-linecap:round;stroke-linejoin:round"
       d="m 107.82042,46.645851 c 1.01173,0.04902 2.02409,0.110144 3.03759,0.10381 0.55123,-0.0034 1.10225,-0.02298 1.65337,-0.0346 0.63315,-0.01336 0.8567,-0.01007 1.46112,-0.05191 0.0512,-0.0035 -0.1027,-0.0042 -0.1538,0 -0.0902,0.0074 -0.17944,0.02307 -0.26916,0.0346"
       id="path74165" />
    <path
       style="fill:none;stroke:#000000;stroke-width:1;stroke-linecap:round;stroke-linejoin:round"
       d="m 113.6649,46.195993 c -0.25634,0.455622 -0.91398,0.864584 -0.76902,1.366866 0.16658,0.577175 1.38354,-0.1205 1.61493,-0.328739 0.13091,-0.117819 0.54065,-0.698094 0.34605,-0.917009 -0.0654,-0.07353 -0.17349,-0.09816 -0.26916,-0.121118 -1.02693,-0.246453 0.358,0.130514 -0.5383,0.15572 -0.13823,0.0039 -0.31914,-0.277575 -0.3845,-0.15572 -0.10518,0.19608 0.0841,0.437177 0.11535,0.657479 0.007,0.05139 -0.0309,0.114008 0,0.155719 0.1313,0.177258 0.59138,-0.08142 0.65365,-0.121111 0.0506,-0.03229 0.0807,-0.08938 0.11536,-0.138419 0.0387,-0.05472 0.23591,-0.216505 0.11535,-0.311439 -0.11311,-0.08907 -0.52274,-0.117761 -0.5383,-0.121111 -0.15546,-0.03346 -0.30698,-0.159022 -0.46141,-0.121118 -0.29654,0.07278 -0.53831,0.288371 -0.80747,0.432557"
       id="path74167" />
    <path
       style="fill:none;stroke:#000000;stroke-width:1;stroke-linecap:round;stroke-linejoin:round"
       d="m 118.04825,46.71506 c 5.17933,-0.247186 3.40533,0.03961 5.38307,-0.294138"
       id="path74169" />
    <path
       style="fill:none;stroke:#000000;stroke-width:1;stroke-linecap:round;stroke-linejoin:round"
       d="m 117.66375,49.154646 c 1.53805,0.02129 3.07622,0.02149 4.61405,0.06921 0.0899,0.0028 0.17933,0.01363 0.26916,0.0173 0.10352,0.0042 0.62959,-0.05405 0.42295,0.224928 -0.0308,0.04157 -0.0769,0.06921 -0.11534,0.103811"
       id="path74173" />
    <path
       style="fill:none;stroke:#000000;stroke-width:1;stroke-linecap:round;stroke-linejoin:round"
       d="m 129.4296,44.915645 c 0.11577,0.469536 0.0936,0.726084 -0.0385,1.141937"
       id="path74175" />
    <path
       style="fill:none;stroke:#000000;stroke-width:1;stroke-linecap:round;stroke-linejoin:round"
       d="m 129.16044,49.898633 c -0.55212,0.358642 -0.45452,0.266252 -0.57675,0.761289"
       id="path74177" />
    <path
       style="fill:none;stroke:#000000;stroke-width:1;stroke-linecap:round;stroke-linejoin:round"
       d="m 132.19803,52.234409 c 0.67739,-0.09227 1.35879,-0.148523 2.03788,-0.224929"
       id="path74179" />
    <path
       style="fill:none;stroke:#000000;stroke-width:1;stroke-linecap:round;stroke-linejoin:round"
       d="m 137.81181,52.1825 c 0.16662,0 0.33324,0 0.49986,0"
       id="path74181" />
    <path
       style="fill:none;stroke:#000000;stroke-width:1;stroke-linecap:round;stroke-linejoin:round"
       d="m 141.96446,48.289546 c -0.34678,-0.56568 -0.30759,-0.30558 -0.30759,-0.726687"
       id="path74183" />
    <path
       style="fill:none;stroke:#000000;stroke-width:1;stroke-linecap:round;stroke-linejoin:round"
       d="m 141.7722,46.299811 c -0.19224,-0.13265 -0.3845,-0.265299 -0.57674,-0.397949"
       id="path74185" />
    <path
       style="fill:none;stroke:#000000;stroke-width:1;stroke-linecap:round;stroke-linejoin:round"
       d="m 141.3108,44.673416 c -0.0897,-0.207624 -0.17943,-0.415247 -0.26915,-0.62287"
       id="path74187" />
    <path
       style="fill:none;stroke:#000000;stroke-width:1;stroke-linecap:round;stroke-linejoin:round"
       d="m 140.73405,42.960511 c -0.33324,-0.0058 -0.66648,-0.01153 -0.99972,-0.0173"
       id="path74189" />
    <path
       style="fill:none;stroke:#000000;stroke-width:1;stroke-linecap:round;stroke-linejoin:round"
       d="m 136.92744,42.527961 c -0.34605,-0.01153 -0.69211,-0.02307 -1.03816,-0.0346"
       id="path74191" />
    <path
       style="fill:none;stroke:#000000;stroke-width:1;stroke-linecap:round;stroke-linejoin:round"
       d="m 132.85169,42.68368 c -0.32042,0.01154 -0.64084,0.02307 -0.96127,0.03461"
       id="path74193" />
    <path
       style="fill:none;stroke:#000000;stroke-width:1;stroke-linecap:round;stroke-linejoin:round"
       d="m 146.23247,45.884562 c 0.76901,0.02307 1.53802,0.04613 2.30703,0.0692"
       id="path74195" />
    <path
       style="fill:none;stroke:#000000;stroke-width:1;stroke-linecap:round;stroke-linejoin:round"
       d="m 144.50219,48.756697 c 1.11506,0.05767 2.23013,0.115347 3.34519,0.17302 0.0513,0.01154 0.13246,-0.01341 0.15381,0.03461 0.0171,0.03852 -0.0769,0.0346 -0.11535,0.0519"
       id="path74197" />
    <path
       style="fill:none;stroke:#000000;stroke-width:1;stroke-linecap:round;stroke-linejoin:round"
       d="m 157.30621,46.317111 c 0.16662,-0.161486 0.39526,-0.277342 0.49986,-0.484458 0.13984,-0.276881 -0.66091,0.280631 -0.49986,0.484458 0.55141,0.697843 0.91219,0.391467 1.42267,0.0519 0.22213,-0.147764 0.29805,-0.265874 0.42296,-0.484451 0.0191,-0.03341 0.29336,-0.346304 0.1538,-0.484459 -0.04,-0.03955 -0.0985,-0.05903 -0.1538,-0.06921 -0.22866,-0.04209 -0.46043,-0.06696 -0.69211,-0.08651 -0.75392,-0.06361 -1.88661,-0.04904 -2.42239,0.553668 -0.009,0.0099 -0.40077,0.437227 -0.3845,0.605569 0.0253,0.262014 0.56755,0.423025 0.65366,0.449851 0.23022,0.07172 0.69018,0.06092 0.92281,0.01731 0.31119,-0.05835 0.62314,-0.122769 0.92281,-0.224929 0.25581,-0.0872 0.67487,-0.430155 0.80747,-0.674778 0.005,-0.0098 0.30691,-0.500882 0.15379,-0.657479 -0.23933,-0.244756 -0.45495,-0.272897 -0.769,-0.311438 -0.15309,-0.01879 -0.30734,-0.04171 -0.46141,-0.0346 -0.62312,0.02876 -1.3969,0.05581 -1.92252,0.46715 -0.0757,0.05923 -0.85318,0.636516 -0.57677,0.951617 0.66335,0.756196 1.67698,0.676941 2.5762,0.570968 0.29794,-0.03511 0.63057,-0.144899 0.88435,-0.311439 0.45052,-0.295642 0.49234,-0.277211 0.65366,-0.640177 0.03,-0.06744 0.11727,-0.145846 0.0769,-0.207621 -0.46725,-0.714836 -1.94591,-0.653791 -2.61463,-0.674786 -0.55311,-0.01737 -1.39338,-0.02884 -1.73028,0.501766 -0.21186,0.333659 -0.19225,0.228671 -0.19225,0.467151"
       id="path74199" />
    <path
       style="fill:none;stroke:#000000;stroke-width:1;stroke-linecap:round;stroke-linejoin:round"
       d="m 158.57507,45.348195 c 1.73115,0.276672 3.48571,0.171135 5.22927,0.207628 1.41271,0.02957 2.81647,0.139496 4.22956,0.08651 0.11542,-0.0043 0.23064,-0.01297 0.34605,-0.0173 0.0384,-0.0014 0.0925,0.0309 0.11535,0 0.0469,-0.06331 -0.51548,-0.15335 -0.53829,-0.155719 -0.42952,-0.0446 -0.88507,-0.0085 -1.30732,0.08651 -0.1712,0.03852 -0.2051,0.01449 -0.26917,0.17302 -0.009,0.02139 -0.013,0.05017 0,0.06921 0.0412,0.06022 0.0918,0.117326 0.15382,0.155713 0.0447,0.02765 0.10231,0.02408 0.15379,0.03461 0.0895,0.01831 0.17781,0.0502 0.26917,0.05191 0.76124,0.01427 1.08556,-0.09546 1.6149,-0.622877 0.13908,-0.138572 0.30007,-0.356239 0.11535,-0.553667 -0.038,-0.0406 -0.5309,-0.172333 -0.53829,-0.17302 -0.41233,-0.03839 -1.20405,-0.05389 -1.61492,0.17302 -0.1683,0.09294 -0.31852,0.217436 -0.46143,0.346046 -0.0568,0.05112 -0.17811,0.251175 -0.15379,0.34604 0.0907,0.353924 0.37715,0.409356 0.69211,0.44985 0.87376,0.112339 1.18576,0.125228 1.92253,-0.36334 0.14593,-0.09677 0.40163,-0.323821 0.34604,-0.536367 -0.0159,-0.06059 -0.30362,-0.120828 -0.3076,-0.121111 -0.17898,-0.01272 -0.35988,-0.01912 -0.5383,0 -0.3738,0.04005 -0.80648,0.394433 -1.03817,0.640177 -0.0433,0.04592 -0.049,0.116431 -0.0769,0.17302 -0.0234,0.04732 -0.0952,0.08892 -0.0769,0.138412 0.0543,0.146507 0.21604,0.191674 0.34604,0.207628 0.46102,0.05658 1.02265,-0.05047 1.38422,-0.363347 0.0973,-0.08422 0.18601,-0.1786 0.26917,-0.276831 0.0376,-0.04438 0.055,-0.147495 0.0384,-0.155719 -0.62123,-0.307499 -1.08984,-0.04664 -1.69182,0.294138 -0.0897,0.05078 -0.1294,0.160523 -0.19225,0.242229 -0.12192,0.158501 -0.25173,0.291676 -0.23068,0.51906 0.006,0.06585 0.23232,0.164735 0.26914,0.17302 0.39847,0.08965 0.34466,0.08235 0.61521,0.05191 0.0513,-0.0058 0.10859,0.0076 0.15379,-0.01731 0.16785,-0.09232 0.1793,-0.162743 0.26915,-0.294131 0.0243,-0.03555 0.0848,-0.06146 0.0769,-0.103811 -0.0456,-0.246587 -1.11043,-0.101617 -1.19196,-0.08651 -0.0441,0.0082 -0.0835,0.03766 -0.11536,0.0692 -0.0798,0.07901 -0.22091,0.383298 -0.0385,0.432556 0.36662,0.09898 0.46085,0.101686 0.769,0 0.10465,-0.03453 0.21571,-0.0603 0.30761,-0.121118 0.12942,-0.08564 0.23757,-0.200479 0.34607,-0.311438 0.01,-0.01 0.18267,-0.255185 0.11535,-0.294131 -0.12509,-0.07237 -0.44662,-0.08885 -0.57675,-0.08651 -0.31463,0.0057 -0.92284,-0.0027 -1.19199,0.27683 -0.10779,0.111934 -0.18861,0.247754 -0.26915,0.380648 -0.0507,0.08368 -0.12941,0.245964 -0.0384,0.34604 0.23861,0.262469 0.5476,0.324614 0.88436,0.311438 0.27854,-0.0109 0.55973,-0.01385 0.80746,-0.155719 0.15561,-0.08911 0.319,-0.366559 0.3845,-0.484458 0.007,-0.01349 0.0775,-0.288948 0.0769,-0.294138 -0.009,-0.07873 -0.078,-0.222274 -0.15379,-0.276831 -0.0342,-0.02464 -0.0789,-0.03079 -0.11536,-0.05191 -0.20257,-0.136714 -0.0999,-0.07348 -0.3076,-0.190321"
       id="path74201" />
  </g>
</svg>
