<?xml version="1.0" encoding="UTF-8" standalone="no"?>
<!-- Created with Inkscape (http://www.inkscape.org/) -->

<svg
   width="43.894379mm"
   height="14.646093mm"
   viewBox="0 0 43.894379 14.646094"
   version="1.1"
   id="svg5"
   sodipodi:docname="xor.svg"
   inkscape:version="1.2.2 (b0a8486541, 2022-12-01)"
   xmlns:inkscape="http://www.inkscape.org/namespaces/inkscape"
   xmlns:sodipodi="http://sodipodi.sourceforge.net/DTD/sodipodi-0.dtd"
   xmlns="http://www.w3.org/2000/svg"
   xmlns:svg="http://www.w3.org/2000/svg">
  <sodipodi:namedview
     id="namedview7"
     pagecolor="#ffffff"
     bordercolor="#666666"
     borderopacity="1.0"
     inkscape:showpageshadow="2"
     inkscape:pageopacity="0.0"
     inkscape:pagecheckerboard="0"
     inkscape:deskcolor="#d1d1d1"
     inkscape:document-units="mm"
     showgrid="false"
     inkscape:zoom="6.5554617"
     inkscape:cx="74.899377"
     inkscape:cy="36.610694"
     inkscape:window-width="2560"
     inkscape:window-height="1372"
     inkscape:window-x="0"
     inkscape:window-y="32"
     inkscape:window-maximized="1"
     inkscape:current-layer="layer1"
     showguides="true" />
  <defs
     id="defs2" />
  <g
     inkscape:label="Layer 1"
     inkscape:groupmode="layer"
     id="layer1"
     transform="translate(-118.01377,-43.7266)">
    <path
       style="fill:#ddf1fb;fill-opacity:1;fill-rule:nonzero;stroke:#000000;stroke-width:1;stroke-linecap:round;stroke-linejoin:round"
       d="m 129.37801,44.515518 c 0.0385,0.07786 0.0628,0.164449 0.11536,0.233577 0.0333,0.04374 0.0882,0.06563 0.13457,0.09516 0.10755,0.06856 0.21979,0.129617 0.32683,0.198975 0.0533,0.03454 0.10213,0.07553 0.15381,0.112461 0.0573,0.04094 0.11822,0.07693 0.17302,0.121115 0.0992,0.07997 0.18919,0.170911 0.28838,0.250878 0.0548,0.04419 0.11847,0.07662 0.17303,0.121116 0.0483,0.03939 0.0906,0.08565 0.13458,0.129765 0.097,0.0972 0.19528,0.193209 0.28837,0.294135 0.096,0.104095 0.18037,0.2184 0.26916,0.328739 0.0902,0.112085 0.18352,0.221787 0.26915,0.337391 0.0363,0.04901 0.0625,0.104823 0.0961,0.155718 0.22332,0.338016 0.0169,-0.02125 0.32683,0.501759 0.0349,0.05894 0.0628,0.121782 0.0961,0.181671 0.0308,0.05548 0.0722,0.10559 0.0961,0.164369 0.0469,0.115136 0.0728,0.237877 0.11535,0.354692 0.0216,0.0593 0.0545,0.114011 0.0769,0.17302 0.0225,0.0594 0.0368,0.121652 0.0577,0.181672 0.0433,0.124567 0.0952,0.246134 0.13458,0.371994 0.0472,0.150986 0.0347,0.20214 0.0577,0.354692 0.0192,0.112463 0.0384,0.224926 0.0577,0.33739 0.0128,0.05479 0.029,0.108905 0.0385,0.164369 0.01,0.0572 0.0115,0.115511 0.0192,0.17302 0.0179,0.132835 0.0408,0.26498 0.0577,0.397947 0.009,0.06895 0.01,0.138755 0.0192,0.207624 0.01,0.07255 0.0285,0.143729 0.0384,0.216277 0.0157,0.114986 0.0252,0.230743 0.0385,0.346041 0.0116,0.101073 0.0293,0.201462 0.0385,0.302785 0.008,0.09212 0.0103,0.184761 0.0192,0.276832 0.004,0.04069 0.0161,0.08036 0.0192,0.121115 0.003,0.04313 0,0.08651 0,0.129765 0,0.123998 0.009,0.248334 0,0.371994 -0.003,0.04361 -0.0151,0.08623 -0.0192,0.129766 -0.009,0.09209 -0.0103,0.184762 -0.0192,0.276832 -0.0194,0.200818 -0.0169,0.04376 -0.0577,0.25953 -0.0375,0.198371 -0.0184,0.243321 -0.0769,0.406599 -0.016,0.04456 -0.0384,0.08651 -0.0577,0.129765 -0.032,0.08363 -0.0663,0.166446 -0.0961,0.250879 -3e-5,1.08e-4 -0.0769,0.259425 -0.0769,0.259532 -0.24605,0.608933 -0.0216,0.02261 -0.17303,0.363342 -0.015,0.03372 -0.0225,0.07055 -0.0384,0.103812 -0.0693,0.144166 -0.15531,0.275299 -0.23071,0.415249 -0.0487,0.09033 -0.0847,0.187143 -0.13457,0.276834 -0.0505,0.09089 -0.11666,0.172163 -0.17303,0.25953 -0.0201,0.03117 -0.0364,0.0648 -0.0577,0.09516 -0.0173,0.02458 -0.0412,0.04413 -0.0577,0.06921 -0.0349,0.05301 -0.0621,0.110787 -0.0961,0.16437 -0.0173,0.02727 -0.0414,0.04998 -0.0577,0.07786 -0.0159,0.02724 -0.0215,0.05987 -0.0384,0.08651 -0.0519,0.0818 -0.11322,0.157336 -0.17302,0.233577 -0.08,0.101986 -0.0772,0.08337 -0.19225,0.207624 -0.0841,0.09085 -0.15955,0.191798 -0.24993,0.276834 -0.0225,0.02119 -0.0526,0.03277 -0.0769,0.05191 -0.0813,0.06401 -0.15006,0.14282 -0.23071,0.207624 -0.0362,0.02906 -0.0809,0.04683 -0.11535,0.07786 -0.024,0.02161 -0.0385,0.05191 -0.0577,0.07786 -0.0897,0.06344 -0.17895,0.127585 -0.26916,0.190321 -0.20381,0.141737 -0.40291,0.266025 -0.61521,0.397948 -0.0612,0.03805 -0.088,0.06556 -0.1538,0.09516 -0.0183,0.0082 -0.076,0.0091 -0.0577,0.0173 0.0292,0.01315 0.0642,-0.0029 0.0961,0 0.12211,0.01099 0.24321,0.03169 0.36527,0.04326 0.30199,0.02861 0.60173,0.07362 0.90359,0.10381 0.36486,0.03649 0.72937,0.04325 1.09584,0.04325 0.44662,0 0.92071,-0.0092 1.36499,-0.06921 0.1996,-0.02694 0.57916,-0.08337 0.80746,-0.129765 0.29364,-0.05967 0.62144,-0.150035 0.90359,-0.216275 0.23931,-0.05618 0.33556,-0.06746 0.57676,-0.112464 0.23262,-0.0434 0.52563,-0.10013 0.76901,-0.147065 0.281,-0.05419 0.53884,-0.104512 0.82668,-0.15572 0.34666,-0.06167 0.69243,-0.112071 1.03816,-0.18167 0.35462,-0.07139 0.70466,-0.162866 1.0574,-0.242229 0.0574,-0.01291 0.11575,-0.0212 0.17302,-0.0346 0.10299,-0.0241 0.20442,-0.05464 0.30761,-0.07786 0.279,-0.06277 0.56505,-0.09503 0.84591,-0.147066 0.59865,-0.110919 1.19725,-0.241629 1.78795,-0.389296 0.41937,-0.10484 0.83138,-0.237079 1.24964,-0.346042 0.42566,-0.110894 -0.01,0.01701 0.6152,-0.164369 0.36871,-0.107039 0.0214,-0.01279 0.36529,-0.121115 0.13401,-0.04221 0.2703,-0.07709 0.40372,-0.121115 0.0181,-0.006 0.35932,-0.144846 0.36529,-0.147067 0.12109,-0.04509 0.24242,-0.08973 0.36527,-0.129765 0.0631,-0.02057 0.12868,-0.03283 0.19225,-0.0519 0.14879,-0.04463 0.29547,-0.09605 0.44219,-0.147069 0.0842,-0.02928 0.16617,-0.06465 0.24993,-0.09516 0.29604,-0.107841 0.59255,-0.20937 0.88436,-0.328739 0.0455,-0.01862 0.0888,-0.04254 0.13458,-0.06056 0.22079,-0.08693 0.45208,-0.146641 0.67288,-0.233577 0.0458,-0.01802 0.0885,-0.04342 0.13457,-0.06056 0.15304,-0.05689 0.30807,-0.108306 0.46141,-0.16437 0.0508,-0.01858 0.10376,-0.03134 0.1538,-0.05191 0.0975,-0.04006 0.19156,-0.08809 0.28838,-0.129767 0.255,-0.109757 0.51871,-0.198794 0.76901,-0.320087 0.20398,-0.09885 0.39734,-0.219921 0.59598,-0.328739 0.07,-0.03836 0.14432,-0.06929 0.21148,-0.112462 0.0234,-0.01507 0.0348,-0.04457 0.0577,-0.06056 0.0356,-0.0249 0.0786,-0.03741 0.11535,-0.06056 0.20469,-0.128949 0.39182,-0.285547 0.59598,-0.415249 0.0367,-0.02329 0.0789,-0.03689 0.11535,-0.06056 0.0217,-0.01409 0.0359,-0.03792 0.0577,-0.0519 0.0683,-0.04393 0.14368,-0.07637 0.21148,-0.121115 0.0288,-0.019 0.0489,-0.04906 0.0769,-0.06921 0.0364,-0.0262 0.078,-0.04446 0.11535,-0.06921 0.0716,-0.04738 0.14031,-0.09903 0.21147,-0.147067 0.0314,-0.02119 0.0641,-0.04037 0.0961,-0.06056 0.0385,-0.02018 0.0791,-0.0367 0.11534,-0.06056 0.27892,-0.183435 0.0354,-0.03199 0.19226,-0.164369 0.0302,-0.02546 0.0641,-0.04614 0.0961,-0.06921 0.0449,-0.04326 0.0883,-0.08808 0.13458,-0.129765 0.16873,-0.151845 -0.0142,0.02609 0.1538,-0.112464 0.0532,-0.04389 0.10158,-0.09337 0.15381,-0.138415 0.13182,-0.113689 0.2787,-0.204974 0.40372,-0.328739 0.0533,-0.05273 0.0769,-0.05026 0.0769,-0.121115 0,-0.01154 0.006,-0.02468 0,-0.0346 -0.11135,-0.187891 -0.36931,-0.346747 -0.5383,-0.467154 -0.21443,-0.15278 -0.0416,-0.05447 -0.38451,-0.25088 -0.0499,-0.02856 -0.10324,-0.05056 -0.1538,-0.07786 -0.0456,-0.02463 -0.0883,-0.05445 -0.13458,-0.07786 -0.10766,-0.0545 -0.21926,-0.101004 -0.32683,-0.155717 -0.04,-0.02033 -0.0769,-0.04614 -0.11534,-0.06921 -0.0577,-0.02595 -0.11618,-0.05014 -0.17303,-0.07786 -0.097,-0.04728 -0.19139,-0.09978 -0.28838,-0.147067 -0.0568,-0.02771 -0.11725,-0.04805 -0.17303,-0.07786 -0.047,-0.02513 -0.0885,-0.05971 -0.13457,-0.08651 -0.15862,-0.09219 -0.31654,-0.186137 -0.48064,-0.268182 -0.0628,-0.03143 -0.12892,-0.05605 -0.19225,-0.08651 -0.12255,-0.05895 -0.24273,-0.122724 -0.36528,-0.181672 -0.15364,-0.0739 -0.24434,-0.107442 -0.40373,-0.17302 -0.48369,-0.198996 -0.96968,-0.391666 -1.46112,-0.57097 -0.0762,-0.02782 -0.15463,-0.04958 -0.2307,-0.07786 -0.0714,-0.02654 -0.13995,-0.06036 -0.21148,-0.08651 -0.191,-0.06983 -0.38633,-0.127564 -0.57676,-0.198972 -0.17449,-0.06543 -0.34698,-0.136139 -0.51908,-0.207624 -0.20048,-0.08328 -0.39064,-0.176959 -0.59598,-0.250881 -0.0632,-0.02275 -0.12884,-0.03836 -0.19226,-0.06056 -0.23141,-0.08099 -0.45912,-0.17363 -0.6921,-0.25088 -0.27785,-0.09213 -0.24614,-0.06933 -0.61521,-0.181671 -0.15529,-0.04727 -0.30593,-0.109077 -0.46141,-0.155721 -0.33808,-0.10142 -0.67741,-0.189605 -1.01894,-0.276831 -0.15406,-0.03935 -0.30669,-0.08437 -0.4614,-0.121115 -0.0761,-0.01807 -0.1538,-0.02884 -0.2307,-0.04325 -0.0769,-0.0173 -0.15403,-0.03364 -0.23071,-0.05191 -0.36477,-0.0869 -0.35448,-0.09134 -0.65366,-0.155721 -0.22104,-0.04757 -0.40382,-0.07788 -0.63443,-0.129765 -0.12952,-0.02914 -0.25479,-0.07557 -0.38451,-0.103812 -0.13391,-0.02916 -0.26942,-0.05056 -0.40373,-0.07786 -0.0644,-0.01307 -0.1277,-0.0311 -0.19225,-0.04325 -0.21106,-0.03976 -0.4227,-0.07647 -0.63443,-0.112464 -0.14667,-0.02492 -0.29562,-0.03503 -0.44218,-0.06056 -0.0986,-0.01717 -0.39252,-0.07774 -0.53831,-0.112464 -0.0578,-0.01378 -0.11455,-0.03254 -0.17302,-0.04325 -0.11473,-0.02104 -0.23089,-0.0334 -0.34606,-0.05191 -0.4311,-0.06928 0.035,7.7e-5 -0.36528,-0.06921 -0.16533,-0.03409 -0.33358,-0.0498 -0.49986,-0.07786 -0.21118,-0.03564 -0.42174,-0.07723 -0.63443,-0.103815 -0.47549,-0.05943 0.24064,0.04763 -0.48063,-0.06056 -0.23135,-0.0347 -0.46033,-0.09044 -0.69211,-0.121116 -0.24248,-0.03209 -0.48761,-0.04749 -0.73056,-0.07786 -0.21716,-0.02714 -0.43563,-0.05081 -0.65366,-0.06921 -0.1535,-0.01296 -0.30783,-0.01394 -0.4614,-0.02596 -0.0451,-0.0035 -0.0896,-0.01297 -0.13458,-0.0173 -0.16608,-0.01601 -0.33342,-0.02212 -0.49986,-0.0346 -0.1536,-0.01151 -0.3075,-0.02883 -0.4614,-0.0346 -0.1664,-0.0062 -0.3335,-0.0024 -0.49986,-0.0087 -0.17953,-0.0067 -0.35883,-0.0186 -0.53831,-0.02596 -0.1724,-0.0071 -0.34642,0 -0.51908,0 -0.28153,0 -0.56446,-0.0063 -0.84591,0 -0.0322,7.94e-4 -0.064,0.0075 -0.0961,0.0087 -0.0512,0.0019 -0.10255,-0.0013 -0.1538,0 -0.21107,0.0059 -0.42462,0.0283 -0.63443,0.05191 -0.096,0.0108 -0.0511,0.0087 -0.13458,0.0087 -0.0192,0 -0.0577,-0.01923 -0.0577,0 0,0.01924 0.0444,-0.01392 0.0577,0 0.0139,0.01463 0,0.04037 0,0.06056"
       id="path44370" />
    <path
       style="fill:none;fill-opacity:1;fill-rule:nonzero;stroke:#000000;stroke-width:1;stroke-linecap:round;stroke-linejoin:round"
       d="m 128.74155,47.521327 c -0.57035,0.06344 -1.14051,0.128577 -1.71105,0.190323 -0.94826,0.102623 -1.89545,0.216389 -2.84533,0.302783 -1.56223,0.142091 -2.88062,0.216964 -4.42181,0.276835 -0.27541,0.0107 -0.55115,0.01028 -0.82669,0.0173 -0.0101,2.56e-4 -0.34433,0.0019 -0.3845,0.02595 -0.0185,0.01108 -0.0256,0.0346 -0.0384,0.05191"
       id="path44325" />
    <path
       style="fill:none;fill-opacity:1;fill-rule:nonzero;stroke:#000000;stroke-width:1;stroke-linecap:round;stroke-linejoin:round"
       d="m 128.48594,55.232836 c -0.77027,0.119981 -0.22557,0.04618 -0.98049,0.121115 -0.27571,0.02737 -0.55049,0.06453 -0.82668,0.08651 -0.66597,0.053 -1.33208,0.107408 -1.99943,0.138417 -0.84283,0.03916 -2.16968,0.03323 -3.01836,-0.0086 -0.50065,-0.02471 -0.99932,-0.08063 -1.49957,-0.112465 -0.15751,-0.01002 -0.41685,-0.0086 -0.59598,-0.0086 -0.0291,0 -0.1516,-0.0096 -0.17303,0 -0.0461,0.02075 -0.0384,0.04257 -0.0384,0.07786"
       id="path44327" />
    <path
       style="fill:none;fill-opacity:1;fill-rule:nonzero;stroke:#000000;stroke-width:1;stroke-linecap:round;stroke-linejoin:round"
       d="m 154.37084,50.484722 c -0.30084,-0.105718 -0.61635,-0.03189 -0.92281,-0.07786 -0.019,-0.0029 0.0385,-9.53e-4 0.0577,0 0.0659,0.0033 0.2665,0.02216 0.3076,0.02595 0.74442,0.06871 0.42446,0.04829 1.24964,0.08651 1.67181,0.07744 3.34488,0.06347 5.01779,0.08651 0.38537,0.0053 0.50593,0.01658 0.86514,0 0.12832,-0.0059 0.2564,-0.01635 0.3845,-0.02595 0.0257,-0.0019 0.0923,0.01208 0.0769,-0.0086 -0.0194,-0.02616 -0.0636,-0.01913 -0.0961,-0.0173 -0.0713,0.004 -0.14099,0.02307 -0.21148,0.0346"
       id="path44329" />
    <path
       style="fill:none;stroke:#000000;stroke-width:1;stroke-linecap:round;stroke-linejoin:round"
       d="m 127.07706,45.093516 c 0.56046,0.975171 0.0915,0.214521 0.40373,0.648826 0.1874,0.260639 0.004,0.06556 0.30761,0.415249 0.0409,0.04702 0.0913,0.08488 0.13457,0.129767 0.12638,0.131235 0.24149,0.272912 0.36528,0.406597 0.0437,0.04722 0.0915,0.09065 0.13458,0.138417 0.0844,0.09347 0.28249,0.350072 0.32683,0.415249 0.0311,0.04574 0.046,0.101182 0.0769,0.147067 0.0335,0.04982 0.0836,0.08742 0.11535,0.138417 0.0584,0.09394 0.097,0.199191 0.1538,0.294134 0.0332,0.05543 0.0826,0.100041 0.11535,0.155718 0.0254,0.04308 0.035,0.09388 0.0577,0.138417 0.0955,0.187488 0.21513,0.364515 0.30761,0.553666 0.0978,0.132481 0.12384,0.296094 0.19225,0.441201 0.0225,0.04774 0.0566,0.08969 0.0769,0.138416 0.067,0.160929 0.0919,0.26171 0.13458,0.415249 0.054,0.194324 0.11801,0.389678 0.15379,0.58827 0.01,0.05429 0.0107,0.109865 0.0192,0.16437 0.11282,0.723363 0.0221,0.04951 0.0769,0.493107 0.0289,0.234306 0.0384,0.465098 0.0384,0.700733 0,0.121114 0.0107,0.242704 0,0.363342 -0.003,0.03788 -0.0149,0.07468 -0.0192,0.112464 -0.009,0.07477 -0.007,0.150702 -0.0192,0.224927 -0.007,0.04178 -0.029,0.07983 -0.0385,0.121115 -0.01,0.04261 -0.006,0.088 -0.0192,0.129765 -0.0257,0.08297 -0.066,0.160768 -0.0961,0.242227 -0.0403,0.108826 -0.0326,0.140834 -0.0961,0.242229 -0.16396,0.261591 -0.13999,0.176937 -0.32683,0.4239 -0.10104,0.07766 -0.12323,0.205168 -0.19225,0.302786 -0.0223,0.0315 -0.053,0.05621 -0.0769,0.08651 -0.0467,0.05918 -0.0888,0.121784 -0.13458,0.181672 -0.0248,0.03241 -0.0558,0.06028 -0.0769,0.09516 -0.0177,0.02926 -0.0256,0.06344 -0.0384,0.09516 -0.0385,0.05767 -0.0751,0.116616 -0.11535,0.17302 -0.0795,0.111239 -0.19624,0.204793 -0.28838,0.302786 -0.0206,0.02188 -0.0367,0.04768 -0.0577,0.06921 -0.024,0.02472 -0.0554,0.04228 -0.0769,0.06921 -0.0366,0.04573 -0.0595,0.101337 -0.0961,0.147068 -0.0215,0.02693 -0.0529,0.04448 -0.0769,0.06921 -0.0613,0.06302 -0.11676,0.131453 -0.17303,0.198974 -0.0784,0.09406 -0.15827,0.196353 -0.23071,0.294135 -0.0618,0.08337 -0.11099,0.175785 -0.17302,0.25953 -0.0778,0.104995 -0.16586,0.203048 -0.24993,0.302786 -0.0983,0.116574 -0.20265,0.21711 -0.3076,0.328738 -0.0206,0.02188 -0.0374,0.04705 -0.0577,0.06921 -0.0802,0.08764 -0.18517,0.175304 -0.26915,0.250879 -0.0591,0.05322 -0.11184,0.113536 -0.17303,0.16437 -0.0554,0.04607 -0.11471,0.08738 -0.17302,0.129765 -0.0728,0.05291 -0.0855,0.05096 -0.15381,0.112464 -0.0271,0.0244 -0.0508,0.05239 -0.0769,0.07786 -0.0123,0.01204 -0.0227,0.04168 -0.0384,0.0346 -0.0669,-0.03009 -0.0292,-0.106891 -0.0192,-0.147069"
       id="path62760" />
    <path
       style="fill:none;stroke:#000000;stroke-width:1;stroke-linecap:round;stroke-linejoin:round"
       d="m 135.2293,49.275343 c -0.26599,0.06285 -0.0691,-0.228513 -0.16313,-0.281392 -0.0124,-0.007 -0.0272,-0.0082 -0.0408,-0.01223 -0.0112,-0.0034 -0.10875,-0.04776 -0.10875,-0.0061 0,0.11481 0.29294,0.26423 0.31267,0.299742 0.49943,0.898933 -0.5125,-0.2619 0.17672,0.556665 0.21282,0.252752 0.43623,0.496741 0.66612,0.734064 0.0787,0.08126 0.1725,0.146455 0.25829,0.220218 0.16797,0.144418 0.33834,0.286136 0.503,0.434321 0.009,0.0078 0.40559,0.399528 0.42142,0.415969 0.20268,0.210465 0.39317,0.41442 0.55736,0.654539 0.48905,0.751872 -0.0438,-0.03191 0.2583,0.348681 0.17143,0.215996 -0.13149,-0.09454 0.12235,0.152929"
       id="path127319" />
    <path
       style="fill:none;stroke:#000000;stroke-width:1;stroke-linecap:round;stroke-linejoin:round"
       d="m 135.4468,53.080237 c 0.0363,-0.06321 0.0663,-0.130375 0.10876,-0.189631 0.0719,-0.100426 0.27777,-0.301619 0.35345,-0.379267 0.15881,-0.162927 0.31845,-0.32505 0.4758,-0.489376 0.41318,-0.431477 0.80294,-0.884181 1.2099,-1.321315 0.16632,-0.178655 0.33464,-0.355442 0.50299,-0.532195 0.0447,-0.04699 0.16331,-0.168082 0.21751,-0.207985 0.0114,-0.0084 0.0272,-0.0082 0.0408,-0.01223"
       id="path127321" />
    <path
       style="fill:none;stroke:#000000;stroke-width:1;stroke-linecap:round;stroke-linejoin:round"
       d="m 140.55826,50.309149 c -0.16031,0.02672 -0.32322,0.07017 -0.4622,0.159046 -0.044,0.02814 -0.0867,0.05967 -0.12235,0.09788 -0.0828,0.08879 -0.16275,0.181092 -0.2311,0.28139 -0.12387,0.181759 -0.17673,0.526452 -0.17673,0.727947 0,0.06711 0.0577,0.249042 0.12235,0.293625 0.16015,0.110502 0.34899,0.181012 0.54377,0.183516 0.0865,0.0011 0.17372,-0.0064 0.25829,-0.02447 0.44527,-0.09525 0.71492,-0.165795 1.08755,-0.440438 0.10738,-0.07914 0.19031,-0.188089 0.27188,-0.293626 0.0284,-0.03679 0.0393,-0.08446 0.0544,-0.12846 0.0429,-0.12547 0.0417,-0.174891 -0.0408,-0.311978 -0.0391,-0.06492 -0.21777,-0.155751 -0.27189,-0.177398 -0.10657,-0.04263 -0.21559,-0.07967 -0.32626,-0.110108 -0.0427,-0.01174 -0.24642,-0.03334 -0.29908,-0.04282 -0.091,-0.01638 -0.18088,-0.03867 -0.27188,-0.05505"
       id="path127323" />
    <path
       style="fill:none;stroke:#000000;stroke-width:1;stroke-linecap:round;stroke-linejoin:round"
       d="m 143.53542,49.923765 c -0.0317,0.103992 -0.076,0.204951 -0.0952,0.311976 -0.0129,0.07226 0,0.146814 0,0.22022 0,0.163126 -0.003,0.326279 0,0.489377 0.002,0.08167 0.009,0.163131 0.0136,0.244687 0.003,0.05939 0.0219,0.380214 0.0272,0.446555 0.008,0.100009 0.0166,0.199975 0.0272,0.299742 0.004,0.04015 0.009,0.08489 0.0272,0.122343 0.003,0.0068 0.006,0.02002 0.0136,0.01835 0.0197,-0.0044 0.0174,-0.07285 0.0136,-0.103991 -0.006,-0.04741 -0.0181,-0.0938 -0.0272,-0.140696 -0.009,-0.07137 -0.02,-0.142527 -0.0272,-0.214104 -0.02,-0.197612 -0.0393,-0.395322 -0.0544,-0.593367 -0.009,-0.121729 -0.0312,-0.441948 0.0136,-0.568899 0.0484,-0.137044 0.11944,-0.26712 0.20391,-0.385383 0.0402,-0.05632 0.10054,-0.09892 0.16314,-0.128462 0.46573,-0.219795 0.85352,-0.1661 1.37302,-0.15293 0.16631,0.0042 0.19604,0.01318 0.33986,0.05505 0.0588,0.01713 0.14065,0.02982 0.16313,0.103994 0.006,0.02135 -0.0124,0.04449 -0.0272,0.06117 -0.0676,0.07604 -0.138,0.150627 -0.21751,0.214101 -0.11765,0.09392 -0.31551,0.173811 -0.44861,0.232453 -0.13566,0.05977 -0.27002,0.122767 -0.40783,0.177399 -0.0528,0.02092 -0.10963,0.02993 -0.16313,0.04894 -0.0328,0.01165 -0.0634,0.02855 -0.0952,0.04282 -0.0513,0.02306 -0.11526,0.03424 -0.10875,0.116227 0.003,0.03371 0.0314,0.06083 0.0544,0.08564 0.0908,0.09804 0.18616,0.19201 0.28548,0.281392 0.0686,0.06173 0.14384,0.115703 0.21751,0.17128 0.38114,0.287521 0.79181,0.531368 1.22349,0.734063 0.13121,0.06161 0.26205,0.124037 0.39423,0.183518 0.43096,0.193924 -0.13555,-0.0695 0.2583,0.09787 0.042,0.01783 0.0819,0.04016 0.12235,0.06117 0.0185,0.0096 0.0382,0.0175 0.0544,0.03059 0.006,0.0048 0.0254,0.0511 0.0272,0.05506"
       id="path127325" />
  </g>
</svg>
